<?xml version="1.0" encoding="utf-8"?>
<!-- Generator: Adobe Illustrator 19.0.1, SVG Export Plug-In . SVG Version: 6.00 Build 0)  -->
<svg version="1.1" id="Capa_1" xmlns="http://www.w3.org/2000/svg" xmlns:xlink="http://www.w3.org/1999/xlink" x="0px" y="0px"
	 viewBox="-41 164.9 512 512" style="enable-background:new -41 164.9 512 512;" xml:space="preserve">
<style type="text/css">
	.st0{fill:#FFFFFF;}
</style>
<g>
	<g>
		<path class="st0" d="M76.8,339.2c-3.9-3.9-10.2-3.9-14.1,0c-3.9,3.9-3.9,10.2,0,14.1c3.9,3.9,10.2,3.9,14.1,0
			C80.7,349.5,80.7,343.1,76.8,339.2z"/>
	</g>
</g>
<g>
	<g>
		<path class="st0" d="M212.2,612.6c4.4-6,6.8-13.2,6.8-20.7c0-19.3-15.7-35-35-35H14c-9.4,0-18.1,3.6-24.7,10.2
			c-6.6,6.6-10.3,15.4-10.3,24.8c0,7.7,2.5,14.9,6.8,20.7C-30.1,621-41,637.7-41,656.9v10c0,5.5,4.5,10,10,10h260
			c5.5,0,10-4.5,10-10v-10C239,637.7,228.1,621,212.2,612.6z M3.4,581.3c2.8-2.8,6.6-4.4,10.6-4.4h170c8.3,0,15,6.7,15,15
			c0,4-1.6,7.8-4.4,10.6c-2.8,2.8-6.6,4.4-10.6,4.4H14c-8.3,0-15-6.7-15-15C-1,587.9,0.6,584.1,3.4,581.3z M-21,656.9
			c0-16.5,13.5-30,30-30h5h170h5c16.5,0,30,13.5,30,30H-21z"/>
	</g>
</g>
<g>
	<g>
		<path class="st0" d="M461.7,585c-3.4-5.3-7.4-9.9-12-13.8l-46.7-40.8c-0.4-0.5-0.8-1.1-1.3-1.6c-0.8-0.8-1.7-1.4-2.7-1.9
			l-28.3-24.6L239.9,388.2c5.4-5.6,8.3-12.9,8.3-20.7c0-8-3.1-15.6-8.8-21.2c-2.5-2.5-5.3-4.4-8.3-5.8l12.1-12.1
			c3.4,0.9,6.9,1.4,10.3,1.4c10.2,0,20.5-3.9,28.3-11.7c7.6-7.6,11.7-17.6,11.7-28.3c0-10.7-4.2-20.7-11.7-28.3L197,176.6
			c-7.6-7.6-17.6-11.7-28.3-11.7c-10.7,0-20.7,4.2-28.3,11.7c-10.4,10.4-13.9,25.3-10.3,38.6L9.4,336c-3.3-0.9-6.8-1.4-10.4-1.4
			c-10.7,0-20.7,4.2-28.3,11.7c-15.6,15.6-15.6,41,0,56.6l84.8,84.8c7.8,7.8,18,11.7,28.3,11.7c10.2,0,20.5-3.9,28.3-11.7
			c10.4-10.4,13.9-25.3,10.3-38.6l12.1-12.1c1.5,3,3.4,5.8,5.9,8.3c5.7,5.7,13.2,8.8,21.2,8.8c7.8,0,15.1-2.9,20.7-8.3l139.3,160.1
			c0.4,0.6,0.8,1.2,1.4,1.7c0.2,0.2,0.4,0.3,0.6,0.5l41.5,47.7c1,1.2,2.1,2.4,3.3,3.6c11.4,11.4,26.5,17.6,42.3,17.6
			c2.8,0,5.6-0.2,8.4-0.6c18.8-2.6,35.1-13.9,44.6-30.9C474.1,626.7,473.3,603,461.7,585z M154.6,190.8c3.8-3.8,8.8-5.9,14.1-5.9
			c5.3,0,10.4,2.1,14.1,5.9l84.8,84.8c3.8,3.8,5.9,8.8,5.9,14.1s-2.1,10.4-5.9,14.1c-7.8,7.8-20.5,7.8-28.3,0L154.6,219c0,0,0,0,0,0
			C146.8,211.2,146.8,198.5,154.6,190.8z M98,473.6c-7.8,7.8-20.5,7.8-28.3,0l-84.8-84.8c-7.8-7.8-7.8-20.5,0-28.3
			c3.8-3.8,8.8-5.9,14.1-5.9c5.3,0,10.4,2.1,14.1,5.8L98,445.3C105.8,453.1,105.8,465.8,98,473.6z M140.1,403.2l-28,28l-84.9-84.9
			l113.1-113.1l84.9,84.9l-28,28c-0.1,0.1-0.2,0.2-0.3,0.3l-56.5,56.5C140.3,403,140.2,403.1,140.1,403.2z M175.8,424.1
			C175.8,424.1,175.8,424.1,175.8,424.1l-7.1,7.1c-1.9,1.9-4.4,2.9-7.1,2.9c-2.7,0-5.2-1-7.1-2.9c-1.9-1.9-2.9-4.4-2.9-7.1
			c0-2.6,1-5.1,2.8-6.9l56.8-56.8c3.9-3.8,10.2-3.7,14,0.1c1.9,1.9,2.9,4.4,2.9,7.1c0,2.7-1,5.2-2.9,7.1l-7,7c0,0-0.1,0.1-0.1,0.1
			L175.8,424.1z M196.5,431.6l29.2-29.2l123.7,107.9l-45.2,45.2L196.5,431.6z M317.5,570.6l47.1-47.1l15.1,13.2l-49,49L317.5,570.6z
			 M446.2,635.6c-6.5,11.5-17.4,19.1-29.9,20.9c-12.5,1.7-24.9-2.4-33.8-11.3c-0.8-0.8-1.5-1.6-2.2-2.4c0,0-0.1-0.1-0.1-0.1
			l-36.4-41.8l51-51l41.8,36.4c0,0,0.1,0.1,0.1,0.1c3.1,2.7,5.9,5.8,8.3,9.5C452.5,607.6,453,623.5,446.2,635.6z"/>
	</g>
</g>
<g>
	<g>
		<path class="st0" d="M147.5,268.5c-3.9-3.9-10.2-3.9-14.1,0L90.9,311c-3.9,3.9-3.9,10.2,0,14.1c2,2,4.5,2.9,7.1,2.9s5.1-1,7.1-2.9
			l42.4-42.4C151.4,278.8,151.4,272.4,147.5,268.5z"/>
	</g>
</g>
</svg>
