<?xml version="1.0" encoding="utf-8"?>
<!-- Generator: Adobe Illustrator 19.0.1, SVG Export Plug-In . SVG Version: 6.00 Build 0)  -->
<svg version="1.1" id="Layer_1" xmlns="http://www.w3.org/2000/svg" xmlns:xlink="http://www.w3.org/1999/xlink" x="0px" y="0px"
	 viewBox="-41 218.8 512 405" style="enable-background:new -41 218.8 512 405;" xml:space="preserve">
<style type="text/css">
	.st0{fill:#FCFCFC;}
</style>
<g>
	<g>
		<g>
			<path class="st0" d="M461.6,365.9c-14.6-7.6-46.5-7.5-59.1,8.2c-4.8,6-9.3,11.8-14,17.8c-12.2,15.8-26.1,33.7-51.5,62.8
				c-5.7,6.5-13.1,11.9-21.7,16.4c0.3-1.3,0.5-2.6,0.6-3.9c0.9-10.6-4-20.8-12.6-26.7c-10.2-7-24-7.2-37.8-0.4
				c-17.7,8.6-37.4,8.5-56.5,8.4c-2.3,0-4.6,0-6.8,0c-8.1,0-16.4-3.5-26.1-7.6c-13.1-5.5-28-11.8-47.4-11.8
				c-21.9,0-43.2,12.9-56.6,22.9v-4.1c0-4.5-3.6-8.1-8.1-8.1h-97c-4.5,0-8.1,3.6-8.1,8.1v161.6c0,4.5,3.6,8.1,8.1,8.1h97
				c4.5,0,8.1-3.6,8.1-8.1V594c35,4.9,66.5,6.8,94.8,6.8c56.8,0,101-7.8,135.9-15.8c33.6-7.7,96.3-73.4,131.4-138
				c6.6-12.1,13.6-23.7,19.7-33.9c8.5-14.1,14.7-24.2,16.5-30.4C471.2,380.3,472.8,371.7,461.6,365.9z M56,601.4h-80.8V455.9H56
				C56,455.9,56,601.4,56,601.4z M440.2,404.8c-6.2,10.3-13.3,22-20.1,34.5c-35.2,64.8-94.9,124-120.8,130
				C248,581,176,592.4,72.1,577.7V472.9c7.7-6.9,32.7-27.7,56.6-27.7c16.2,0,28.9,5.4,41.2,10.5c10.8,4.6,21.1,8.9,32.4,8.9
				c2.2,0,4.5,0,6.7,0c19.9,0.1,42.6,0.3,63.7-10c8.4-4.1,16.2-4.4,21.6-0.7c3.9,2.7,6.1,7.2,5.6,12.1c-0.5,6.5-5.6,12.5-13.8,16.4
				c-41.8,11.4-94.4,11.4-125,11.4c-4.5,0-8.1,3.6-8.1,8.1s3.6,8.1,8.1,8.1c30.2,0,65.3-0.4,99.2-5.7c42.9-6.7,72.1-19.3,89-38.7
				c25.8-29.4,39.8-47.6,52.1-63.5c4.7-6,9.1-11.7,13.8-17.6c3.2-4,11-6.7,20.5-7c8.7-0.3,15.7,1.5,18.5,3
				C452,385.3,446.2,394.8,440.2,404.8z"/>
			<path class="st0" d="M289.3,294.3c7.4,0,13.5-6,13.5-13.5c0-7.4-6-13.5-13.5-13.5c-7.4,0-13.5,6-13.5,13.5
				C275.8,288.2,281.8,294.3,289.3,294.3z"/>
			<path class="st0" d="M182.6,403.2h30.5c4.5,0,8.1-3.6,8.1-8.1v-7.2h7.2c2.1,0,8.1-3,8.1-8.1v-7.2h7.2c4.5,0,8.1-3.6,8.1-8.1v-7.2
				h7.2c2.1,0,4.2-0.9,5.7-2.4l18.1-18.1c2.2,0.3,4.4,0.4,6.7,0.4c0,0,0,0,0,0c15.1,0,29.3-5.9,40-16.6c22.1-22.1,22.1-57.9,0-80
				c-10.7-10.7-24.9-16.6-40-16.6c-15.1,0-29.3,5.9-40,16.6c-15.5,15.5-20.5,38.6-13.3,59l-59.1,59.1c-1.5,1.5-2.4,3.6-2.4,5.7v30.5
				C174.5,399.6,178.1,403.2,182.6,403.2z M190.7,368l60.5-60.5c2.4-2.4,3.1-6.1,1.6-9.2c-7.4-15.4-4.2-33.9,7.9-46
				c7.6-7.6,17.8-11.8,28.6-11.8s20.9,4.2,28.6,11.8c15.8,15.8,15.8,41.4,0,57.1c-7.6,7.6-17.8,11.8-28.6,11.8c0,0,0,0,0,0
				c-2.6,0-5.3-0.3-7.9-0.8c-2.6-0.5-5.4,0.3-7.3,2.2l-18.6,18.7h-11.9c-4.5,0-8.1,3.6-8.1,8.1v7.2h-7.2c-4.5,0-8.1,3.6-8.1,8.1v7.2
				h-7.2h0c-4.2,0-8.1,3.5-8.1,8.1v7.2h-14.3L190.7,368L190.7,368z"/>
			<path class="st0" d="M15.6,542.1c7.4,0,13.5-6,13.5-13.5c0-7.4-6-13.5-13.5-13.5c-7.4,0-13.5,6-13.5,13.5
				C2.1,536.1,8.1,542.1,15.6,542.1z"/>
		</g>
	</g>
</g>
</svg>
