<?xml version="1.0" encoding="utf-8"?>
<!-- Generator: Adobe Illustrator 19.0.1, SVG Export Plug-In . SVG Version: 6.00 Build 0)  -->
<svg version="1.1" id="Слой_1" xmlns="http://www.w3.org/2000/svg" xmlns:xlink="http://www.w3.org/1999/xlink" x="0px" y="0px"
	 viewBox="0 0 415.9 371.9" style="enable-background:new 0 0 415.9 371.9;" xml:space="preserve">
<style type="text/css">
	.st0{display:none;}
	.st1{display:inline;fill:url(#SVGID_1_);}
	.st2{display:inline;fill:url(#SVGID_2_);}
	.st3{display:inline;fill:url(#SVGID_3_);}
	.st4{display:inline;fill:url(#SVGID_4_);}
	.st5{display:inline;fill:url(#SVGID_5_);}
	.st6{display:inline;fill:url(#SVGID_6_);}
	.st7{display:inline;fill:url(#SVGID_7_);}
	.st8{display:inline;fill:url(#SVGID_8_);}
	.st9{display:inline;}
	.st10{fill:url(#SVGID_9_);}
	.st11{fill:url(#SVGID_10_);}
	.st12{fill:url(#SVGID_11_);}
	.st13{fill:url(#SVGID_12_);}
	.st14{fill:url(#SVGID_13_);}
	.st15{fill:url(#SVGID_14_);}
	.st16{fill:url(#SVGID_15_);}
	.st17{fill:url(#SVGID_16_);}
	.st18{fill:url(#SVGID_17_);}
	.st19{fill:url(#SVGID_18_);}
	.st20{fill:url(#SVGID_19_);}
	.st21{fill:url(#SVGID_20_);}
	.st22{fill:url(#SVGID_21_);}
	.st23{fill:url(#SVGID_22_);}
	.st24{fill:url(#SVGID_23_);}
	.st25{fill:url(#SVGID_24_);}
	.st26{fill:url(#SVGID_25_);}
	.st27{fill:url(#SVGID_26_);}
	.st28{fill:url(#SVGID_27_);}
	.st29{fill:url(#SVGID_28_);}
	.st30{fill:url(#SVGID_29_);}
	.st31{display:inline;fill:url(#SVGID_30_);}
	.st32{display:inline;fill:url(#SVGID_31_);}
	.st33{display:inline;fill:url(#SVGID_32_);}
	.st34{display:inline;fill:url(#SVGID_33_);}
	.st35{display:inline;fill:url(#SVGID_34_);}
	.st36{display:inline;fill:url(#SVGID_35_);}
	.st37{display:inline;fill:url(#SVGID_36_);}
	.st38{display:inline;fill:url(#SVGID_37_);}
	.st39{display:inline;fill:url(#SVGID_38_);}
	.st40{display:inline;fill:url(#SVGID_39_);}
	.st41{display:inline;fill:url(#SVGID_40_);}
	.st42{display:inline;fill:url(#SVGID_41_);}
	.st43{fill:url(#SVGID_42_);}
	.st44{fill:url(#SVGID_43_);}
	.st45{fill:url(#SVGID_44_);}
	.st46{fill:url(#SVGID_45_);}
	.st47{display:none;fill:url(#SVGID_46_);}
	.st48{display:none;fill:url(#SVGID_47_);}
	.st49{display:none;fill:url(#SVGID_48_);}
	.st50{display:none;fill:url(#SVGID_49_);}
	.st51{display:none;fill:url(#SVGID_50_);}
	.st52{display:none;fill:url(#SVGID_51_);}
	.st53{display:none;fill:url(#SVGID_52_);}
	.st54{display:none;fill:url(#SVGID_53_);}
	.st55{display:none;fill:url(#SVGID_54_);}
	.st56{display:none;fill:url(#SVGID_55_);}
	.st57{display:inline;fill:url(#SVGID_56_);}
	.st58{fill:url(#SVGID_57_);}
	.st59{display:none;fill:url(#SVGID_58_);}
	.st60{display:none;fill:url(#SVGID_59_);}
	.st61{display:none;fill:url(#SVGID_60_);}
	.st62{display:none;fill:url(#SVGID_61_);}
	.st63{display:none;fill:url(#SVGID_62_);}
	.st64{display:none;fill:url(#SVGID_63_);}
	.st65{display:none;fill:url(#SVGID_64_);}
	.st66{display:none;fill:url(#SVGID_65_);}
	.st67{display:none;fill:url(#SVGID_66_);}
	.st68{display:none;fill:url(#SVGID_67_);}
	.st69{display:inline;fill:url(#SVGID_68_);}
	.st70{fill:url(#SVGID_69_);}
	.st71{display:none;fill:url(#SVGID_70_);}
	.st72{display:none;fill:url(#SVGID_71_);}
	.st73{display:none;fill:url(#SVGID_72_);}
	.st74{display:none;fill:url(#SVGID_73_);}
	.st75{display:none;fill:url(#SVGID_74_);}
	.st76{display:none;fill:url(#SVGID_75_);}
	.st77{display:none;fill:url(#SVGID_76_);}
	.st78{display:none;fill:url(#SVGID_77_);}
	.st79{display:none;fill:url(#SVGID_78_);}
	.st80{display:none;fill:url(#SVGID_79_);}
	.st81{display:none;fill:url(#SVGID_80_);}
	.st82{display:none;fill:url(#SVGID_81_);}
	.st83{display:none;fill:url(#SVGID_82_);}
	.st84{display:none;fill:url(#SVGID_83_);}
	.st85{display:none;fill:url(#SVGID_84_);}
	.st86{display:none;fill:url(#SVGID_85_);}
	.st87{display:none;fill:url(#SVGID_86_);}
	.st88{display:none;fill:url(#SVGID_87_);}
	.st89{display:none;fill:url(#SVGID_88_);}
	.st90{display:none;fill:url(#SVGID_89_);}
	.st91{display:none;fill:url(#SVGID_90_);}
	.st92{display:none;fill:url(#SVGID_91_);}
	.st93{display:none;fill:url(#SVGID_92_);}
	.st94{display:inline;fill:none;}
	.st95{fill:url(#SVGID_93_);}
	.st96{fill:url(#SVGID_94_);}
	.st97{fill:url(#SVGID_95_);}
	.st98{fill:url(#SVGID_96_);}
	.st99{fill:url(#SVGID_97_);}
	.st100{fill:url(#SVGID_98_);}
	.st101{display:inline;fill:url(#SVGID_99_);}
	.st102{display:inline;fill:url(#SVGID_100_);}
	.st103{display:inline;fill:url(#SVGID_101_);}
	.st104{display:inline;fill:url(#SVGID_102_);}
	.st105{display:inline;fill:url(#SVGID_103_);}
	.st106{display:inline;fill:url(#SVGID_104_);}
	.st107{display:inline;fill:url(#SVGID_105_);}
	.st108{clip-path:url(#SVGID_107_);fill:url(#SVGID_108_);}
	.st109{clip-path:url(#SVGID_107_);fill:url(#SVGID_109_);}
	.st110{fill:url(#SVGID_110_);}
	.st111{fill:url(#SVGID_111_);}
	.st112{fill:url(#SVGID_112_);}
	.st113{fill:url(#SVGID_113_);}
	.st114{fill:url(#SVGID_114_);}
	.st115{clip-path:url(#SVGID_116_);fill:url(#SVGID_117_);}
	.st116{clip-path:url(#SVGID_116_);fill:url(#SVGID_118_);}
	.st117{fill:url(#SVGID_119_);}
	.st118{fill:url(#SVGID_120_);}
	.st119{fill:url(#SVGID_121_);}
	.st120{fill:url(#SVGID_122_);}
	.st121{fill:url(#SVGID_123_);}
	.st122{fill:url(#SVGID_124_);}
	.st123{fill:url(#SVGID_125_);}
	.st124{fill:url(#SVGID_126_);}
</style>
<g class="st0">
	<linearGradient id="SVGID_1_" gradientUnits="userSpaceOnUse" x1="141.7059" y1="174.4174" x2="141.7059" y2="154.4206">
		<stop  offset="0" style="stop-color:#E5700F"/>
		<stop  offset="1" style="stop-color:#FEBA1C"/>
	</linearGradient>
	<path class="st1" d="M134.6,157.3c-3.9,3.9-3.9,10.2,0,14.1c3.9,3.9,10.2,3.9,14.1,0c3.9-3.9,3.9-10.2,0-14.1
		C144.9,153.4,138.5,153.4,134.6,157.3z"/>
	<linearGradient id="SVGID_2_" gradientUnits="userSpaceOnUse" x1="170.9948" y1="494.983" x2="170.9948" y2="374.9874">
		<stop  offset="0" style="stop-color:#E5700F"/>
		<stop  offset="1" style="stop-color:#FEBA1C"/>
	</linearGradient>
	<path class="st2" d="M284.2,430.7c4.4-6,6.8-13.2,6.8-20.7c0-19.3-15.7-35-35-35H86c-9.4,0-18.1,3.6-24.7,10.2
		C54.6,391.8,51,400.6,51,410c0,7.7,2.5,14.9,6.8,20.7C41.9,439.1,31,455.8,31,475v10c0,5.5,4.5,10,10,10h260c5.5,0,10-4.5,10-10
		v-10C311,455.8,300.1,439.1,284.2,430.7z M75.4,399.4c2.8-2.8,6.6-4.4,10.6-4.4h170c8.3,0,15,6.7,15,15c0,4-1.6,7.8-4.4,10.6
		c-2.8,2.8-6.6,4.4-10.6,4.4H86c-8.3,0-15-6.7-15-15C71,406,72.6,402.2,75.4,399.4z M51,475c0-16.5,13.5-30,30-30h5h170h5
		c16.5,0,30,13.5,30,30H51z"/>
	<linearGradient id="SVGID_3_" gradientUnits="userSpaceOnUse" x1="287.0104" y1="494.998" x2="287.0104" y2="-16.998">
		<stop  offset="0" style="stop-color:#E5700F"/>
		<stop  offset="1" style="stop-color:#FEBA1C"/>
	</linearGradient>
	<path class="st3" d="M533.7,403.1c-3.4-5.3-7.4-9.9-12-13.8l-46.7-40.8c-0.4-0.5-0.8-1.1-1.3-1.6c-0.8-0.8-1.7-1.4-2.7-1.9
		l-28.3-24.6L311.9,206.3c5.4-5.6,8.3-12.9,8.3-20.7c0-8-3.1-15.6-8.8-21.2c-2.5-2.5-5.3-4.4-8.3-5.8l12.1-12.1
		c3.4,0.9,6.9,1.4,10.3,1.4c10.2,0,20.5-3.9,28.3-11.7c7.6-7.6,11.7-17.6,11.7-28.3c0-10.7-4.2-20.7-11.7-28.3L269-5.3
		c-7.6-7.6-17.6-11.7-28.3-11.7C230-17,220-12.8,212.4-5.3C202,5.2,198.5,20,202.1,33.3L81.4,154.1c-3.3-0.9-6.8-1.4-10.4-1.4
		c-10.7,0-20.7,4.2-28.3,11.7c-15.6,15.6-15.6,41,0,56.6l84.8,84.8c7.8,7.8,18,11.7,28.3,11.7c10.2,0,20.5-3.9,28.3-11.7
		c10.4-10.4,13.9-25.3,10.3-38.6l12.1-12.1c1.5,3,3.4,5.8,5.9,8.3c5.7,5.7,13.2,8.8,21.2,8.8c7.8,0,15.1-2.9,20.7-8.3L393.6,424
		c0.4,0.6,0.8,1.2,1.4,1.7c0.2,0.2,0.4,0.3,0.6,0.5l41.5,47.7c1,1.2,2.1,2.4,3.3,3.6c11.4,11.4,26.5,17.6,42.3,17.6
		c2.8,0,5.6-0.2,8.4-0.6c18.8-2.6,35.1-13.9,44.6-30.9C546.1,444.8,545.3,421.1,533.7,403.1z M226.6,8.9c3.8-3.8,8.8-5.9,14.1-5.9
		c5.3,0,10.4,2.1,14.1,5.9l84.8,84.8c3.8,3.8,5.9,8.8,5.9,14.1c0,5.3-2.1,10.4-5.9,14.1c-7.8,7.8-20.5,7.8-28.3,0l-84.9-84.9
		c0,0,0,0,0,0C218.8,29.3,218.8,16.7,226.6,8.9z M170,291.7c-7.8,7.8-20.5,7.8-28.3,0l-84.8-84.8c-7.8-7.8-7.8-20.5,0-28.3
		c3.8-3.8,8.8-5.9,14.1-5.9c5.3,0,10.4,2.1,14.1,5.8l84.9,84.9C177.8,271.2,177.8,283.9,170,291.7z M212.1,221.3l-28,28l-84.9-84.9
		L212.4,51.3l84.9,84.9l-28,28c-0.1,0.1-0.2,0.2-0.3,0.3L212.4,221C212.3,221.1,212.2,221.2,212.1,221.3z M247.8,242.2
		C247.8,242.2,247.8,242.2,247.8,242.2l-7.1,7.1c-1.9,1.9-4.4,2.9-7.1,2.9c-2.7,0-5.2-1-7.1-2.9c-1.9-1.9-2.9-4.4-2.9-7.1
		c0-2.6,1-5.1,2.8-6.9l56.8-56.8c3.9-3.8,10.2-3.7,14,0.1c1.9,1.9,2.9,4.4,2.9,7.1c0,2.7-1,5.2-2.9,7.1l-7,7c0,0-0.1,0.1-0.1,0.1
		L247.8,242.2z M268.5,249.7l29.2-29.2l123.7,107.9l-45.2,45.2L268.5,249.7z M389.5,388.7l47.1-47.1l15.1,13.2l-49,49L389.5,388.7z
		 M518.2,453.7c-6.5,11.5-17.4,19.1-29.9,20.9c-12.5,1.7-24.9-2.4-33.8-11.3c-0.8-0.8-1.5-1.6-2.2-2.4c0,0-0.1-0.1-0.1-0.1
		L415.8,419l51-51l41.8,36.4c0,0,0.1,0.1,0.1,0.1c3.1,2.7,5.9,5.8,8.3,9.5C524.5,425.7,525,441.6,518.2,453.7z"/>
	<linearGradient id="SVGID_4_" gradientUnits="userSpaceOnUse" x1="191.1985" y1="146.1349" x2="191.1985" y2="83.7075">
		<stop  offset="0" style="stop-color:#E5700F"/>
		<stop  offset="1" style="stop-color:#FEBA1C"/>
	</linearGradient>
	<path class="st4" d="M205.3,86.6l-42.4,42.4c-3.9,3.9-3.9,10.2,0,14.1c2,2,4.5,2.9,7.1,2.9c2.6,0,5.1-1,7.1-2.9l42.4-42.4
		c3.9-3.9,3.9-10.2,0-14.1C215.6,82.7,209.2,82.7,205.3,86.6z"/>
</g>
<g class="st0">
	<linearGradient id="SVGID_5_" gradientUnits="userSpaceOnUse" x1="-582.2957" y1="164.419" x2="-562.2914" y2="164.419">
		<stop  offset="0" style="stop-color:#E5700F"/>
		<stop  offset="1" style="stop-color:#FEBA1C"/>
	</linearGradient>
	<path class="st5" d="M-579.4,157.3c-3.9,3.9-3.9,10.2,0,14.1c3.9,3.9,10.2,3.9,14.1,0c3.9-3.9,3.9-10.2,0-14.1
		C-569.1,153.4-575.5,153.4-579.4,157.3z"/>
	<linearGradient id="SVGID_6_" gradientUnits="userSpaceOnUse" x1="-682.9995" y1="434.9852" x2="-403.0099" y2="434.9852">
		<stop  offset="0" style="stop-color:#E5700F"/>
		<stop  offset="1" style="stop-color:#FEBA1C"/>
	</linearGradient>
	<path class="st6" d="M-429.8,430.7c4.4-6,6.8-13.2,6.8-20.7c0-19.3-15.7-35-35-35h-170c-9.4,0-18.1,3.6-24.7,10.2
		c-6.6,6.6-10.2,15.4-10.2,24.8c0,7.7,2.5,14.9,6.8,20.7c-15.9,8.4-26.8,25.1-26.8,44.3v10c0,5.5,4.5,10,10,10h260
		c5.5,0,10-4.5,10-10v-10C-403,455.8-413.9,439.1-429.8,430.7z M-638.6,399.4c2.8-2.8,6.6-4.4,10.6-4.4h170c8.3,0,15,6.7,15,15
		c0,4-1.6,7.8-4.4,10.6c-2.8,2.8-6.6,4.4-10.6,4.4h-170c-8.3,0-15-6.7-15-15C-643,406-641.4,402.2-638.6,399.4z M-663,475
		c0-16.5,13.5-30,30-30h5h170h5c16.5,0,30,13.5,30,30H-663z"/>
	<linearGradient id="SVGID_7_" gradientUnits="userSpaceOnUse" x1="-682.9782" y1="239" x2="-171" y2="239">
		<stop  offset="0" style="stop-color:#E5700F"/>
		<stop  offset="1" style="stop-color:#FEBA1C"/>
	</linearGradient>
	<path class="st7" d="M-180.3,403.1c-3.4-5.3-7.4-9.9-12-13.8l-46.7-40.8c-0.4-0.5-0.8-1.1-1.3-1.6c-0.8-0.8-1.7-1.4-2.7-1.9
		l-28.3-24.6l-130.8-114.1c5.4-5.6,8.3-12.9,8.3-20.7c0-8-3.1-15.6-8.8-21.2c-2.5-2.5-5.3-4.4-8.3-5.8l12.1-12.1
		c3.4,0.9,6.9,1.4,10.3,1.4c10.2,0,20.5-3.9,28.3-11.7c7.6-7.6,11.7-17.6,11.7-28.3s-4.2-20.7-11.7-28.3L-445-5.3
		c-7.6-7.6-17.6-11.7-28.3-11.7c-10.7,0-20.7,4.2-28.3,11.7C-512,5.2-515.5,20-511.9,33.3l-120.7,120.7c-3.3-0.9-6.8-1.4-10.4-1.4
		c-10.7,0-20.7,4.2-28.3,11.7c-15.6,15.6-15.6,41,0,56.6l84.8,84.8c7.8,7.8,18,11.7,28.3,11.7c10.2,0,20.5-3.9,28.3-11.7
		c10.4-10.4,13.9-25.3,10.3-38.6l12.1-12.1c1.5,3,3.4,5.8,5.9,8.3c5.7,5.7,13.2,8.8,21.2,8.8c7.8,0,15.1-2.9,20.7-8.3L-320.4,424
		c0.4,0.6,0.8,1.2,1.4,1.7c0.2,0.2,0.4,0.3,0.6,0.5l41.5,47.7c1,1.2,2.1,2.4,3.3,3.6c11.4,11.4,26.5,17.6,42.3,17.6
		c2.8,0,5.6-0.2,8.4-0.6c18.8-2.6,35.1-13.9,44.6-30.9C-167.9,444.8-168.7,421.1-180.3,403.1z M-324.5,388.7l47.1-47.1l15.1,13.2
		l-49,49L-324.5,388.7z M-445.5,249.7l29.2-29.2l123.7,107.9l-45.2,45.2L-445.5,249.7z M-487.4,8.9c3.8-3.8,8.8-5.9,14.1-5.9
		c5.3,0,10.4,2.1,14.1,5.9l84.8,84.8c3.8,3.8,5.9,8.8,5.9,14.1c0,5.3-2.1,10.4-5.9,14.1c-7.8,7.8-20.5,7.8-28.3,0l-84.9-84.9
		c0,0,0,0,0,0C-495.2,29.3-495.2,16.7-487.4,8.9z M-544,291.7c-7.8,7.8-20.5,7.8-28.3,0l-84.8-84.8c-7.8-7.8-7.8-20.5,0-28.3
		c3.8-3.8,8.8-5.9,14.1-5.9c5.3,0,10.4,2.1,14.1,5.8l84.9,84.9C-536.2,271.2-536.2,283.9-544,291.7z M-614.7,164.4l113.1-113.1
		l84.9,84.9l-28,28c-0.1,0.1-0.2,0.2-0.3,0.3l-56.5,56.5c-0.1,0.1-0.2,0.2-0.3,0.4l-28,28L-614.7,164.4z M-480.4,252.2
		c-2.7,0-5.2-1-7.1-2.9c-1.9-1.9-2.9-4.4-2.9-7.1c0-2.6,1-5.1,2.8-6.9l56.8-56.8c3.9-3.8,10.2-3.7,14,0.1c1.9,1.9,2.9,4.4,2.9,7.1
		c0,2.7-1,5.2-2.9,7.1l-7,7c0,0-0.1,0.1-0.1,0.1l-42.3,42.3c0,0,0,0-0.1,0.1l-7,7C-475.2,251.2-477.7,252.2-480.4,252.2z
		 M-195.8,453.7c-6.5,11.5-17.4,19.1-29.9,20.9c-12.5,1.7-24.9-2.4-33.8-11.3c-0.8-0.8-1.5-1.6-2.2-2.4c0,0-0.1-0.1-0.1-0.1
		l-36.4-41.8l51-51l41.8,36.4c0,0,0.1,0.1,0.1,0.1c3.1,2.7,5.9,5.8,8.3,9.5C-189.5,425.7-189,441.6-195.8,453.7z"/>
	<linearGradient id="SVGID_8_" gradientUnits="userSpaceOnUse" x1="-554.015" y1="114.9212" x2="-491.5869" y2="114.9212">
		<stop  offset="0" style="stop-color:#E5700F"/>
		<stop  offset="1" style="stop-color:#FEBA1C"/>
	</linearGradient>
	<path class="st8" d="M-494.5,86.6c-3.9-3.9-10.2-3.9-14.1,0l-42.4,42.4c-3.9,3.9-3.9,10.2,0,14.1c2,2,4.5,2.9,7.1,2.9
		s5.1-1,7.1-2.9l42.4-42.4C-490.6,96.9-490.6,90.5-494.5,86.6z"/>
</g>
<g class="st0">
	<g class="st9">
		<linearGradient id="SVGID_9_" gradientUnits="userSpaceOnUse" x1="98.5731" y1="239" x2="467.6824" y2="239">
			<stop  offset="0" style="stop-color:#E5700F"/>
			<stop  offset="1" style="stop-color:#FEBA1C"/>
		</linearGradient>
		<path class="st10" d="M445.3,349.8c-6.7-33.8-38.5-39.6-38.6-39.6v0c-0.3-0.1,2.9,0.7-77.3-19.2v-2.7h59.1
			c12.2,0,22.1-9.9,22.1-22.1V153.6c1-4.2,1-8.5,0-12.7V99.7c0-4.1-3.4-7.5-7.5-7.5c-4.1,0-7.5,3.4-7.5,7.5v21.5
			c-4-2.4-8.5-4.1-13.4-4.9c-1.8-7.8-8.3-14-16.5-15.1c-8.6-1.1-15.1-6.1-19.3-14.9c-2-4.1-5.9-6.8-10.4-7.2
			c-4.5-0.4-8.8,1.5-11.5,5.2c-12.9,17.5-48.7,56.9-110.6,56.9c-4.7,0-7.9-0.2-9-0.3c-11.4-0.7-21,8.4-21,19.8V178
			c0,27.5,11.4,54.3,31.4,73.3c6.6,6.3,13.9,11.6,21.7,15.8v6.2H178c-3.9,0-7.1-3.2-7.1-7.1V97.7C171,43,215.5-2,269.3-2
			c0.2,0,0.3,0,0.5,0c19.3,0.1,41.5,5.6,56.7,13.9c9.6,5.3,15.6,1.1,25,1.1c23.2,0,41.7,23.8,44,45.3c0,0.3,0,1.6,0.1,6.4
			c0,7.2,8.2,7.8,7.5,7.5c4.1,0,7.5-3.4,7.5-7.5c0-1.3,0-6.6-0.1-7.8C407.5,27.1,382.1-2,351.6-2c-11.9,0-13.7,3-17.8,0.8
			c-17.2-9.5-42.3-15.7-63.9-15.8c-62.3-0.4-114,51.5-114,114.7v168.6c0,12.2,9.9,22.1,22.1,22.1h58.8v2.7l-77,19.1
			c-0.1,0-0.2,0.1-0.3,0.1l-5.6,1.7c-0.2,0-0.3,0.1-0.5,0.2c-10,3.7-27.6,13.6-32.4,37.8C98.1,464.5,99.1,459.6,99,460
			c-2.8,19.5,7,35,30.4,35h81.1c4.1,0,7.5-3.4,7.5-7.5c0-4.1-3.4-7.5-7.5-7.5h-28.2v-70.8c0-4.1-3.4-7.5-7.5-7.5s-7.5,3.4-7.5,7.5
			V480h-37.9c-10,0-15.8-3.2-15.8-13.7c0-5.1-0.2-0.1,22.1-113.6c3.4-16.8,15.6-23.9,22.7-26.6l5.2-1.5l44.2-11
			c49.2,58,46.3,54.9,49.1,57.7c16.4,16,39.9,14.9,55.3-3.2l46.3-54.4l44.1,10.9c1.3,0.6,23.2,4.4,27.9,28.1
			c22.1,112.5,22.1,108.5,22.1,113.6c-0.1,10.3-5.6,13.7-15.8,13.7h-37.6v-70.8c0-4.1-3.4-7.5-7.5-7.5s-7.5,3.4-7.5,7.5V480H245.6
			c-4.1,0-7.5,3.4-7.5,7.5c0,4.1,3.4,7.5,7.5,7.5h191.3c18.5,0,30.7-10.2,30.8-28.6C467.7,457.9,467.2,462,445.3,349.8z
			 M382.7,131.8c6.3,1.9,11.1,6,12.9,11.1v8.6c-1.8,5.1-6.6,9.2-12.9,11.1V131.8z M382.7,179.3V178c4.7-0.9,9-2.5,12.9-4.8v93.1
			c0,3.9-3.2,7.1-7.1,7.1h-59.1v-5.8C361.2,250.9,382.7,217.6,382.7,179.3z M225.5,240.5c-17-16.2-26.7-38.9-26.7-62.4
			c0.4-16.3-1.1-18.3,1.5-20.8c0.9-0.9,2.2-1.4,3.6-1.3c53.8,3.2,100-20.4,130.6-60c8.2,14.5,20.3,19,29.3,20.1
			c2.2,0.3,3.9,2.2,3.9,4.4c0,20.8,0,38.2,0,58.8C367.7,254,278.3,290.9,225.5,240.5z M300.8,358.4c-10.5,12.3-25.1,12.2-35.5-0.1
			l-15.7-18.5h66.9L300.8,358.4z M329.4,324.9H237l-12.9-15.2l22.1-5.5c3.3-0.8,5.7-3.9,5.7-7.4l0-23.2c20.6,6.9,42.4,6.8,62.6,0.2
			c0.1,24-0.3,23.4,0.4,25.5c0.8,2.3,2.8,4.2,5.3,4.8l22.2,5.5L329.4,324.9z"/>
	</g>
</g>
<g class="st0">
	<g class="st9">
		<g>
			<linearGradient id="SVGID_10_" gradientUnits="userSpaceOnUse" x1="101" y1="239" x2="467" y2="239">
				<stop  offset="0" style="stop-color:#E5700F"/>
				<stop  offset="1" style="stop-color:#FEBA1C"/>
			</linearGradient>
			<path class="st11" d="M459.3-14.5H108.7c-4.2,0-7.7,3.5-7.7,7.7v491.6c0,4.3,3.5,7.7,7.7,7.7h266.6c2.1,0,4-0.8,5.4-2.3l84-84
				c1.4-1.4,2.3-3.4,2.3-5.5V-6.8C467-11,463.5-14.5,459.3-14.5z M383,466.2v-57.8h57.8L383,466.2z M451.6,393.1l-76.4-0.1
				c-2.1,0-4,0.8-5.5,2.3c-1.4,1.4-2.3,3.4-2.3,5.5l0.1,76.4H116.4V0.9h335.2V393.1z"/>
		</g>
	</g>
</g>
<g class="st0">
	<g class="st9">
		<g>
			<linearGradient id="SVGID_11_" gradientUnits="userSpaceOnUse" x1="159" y1="397.5001" x2="247" y2="397.5001">
				<stop  offset="0" style="stop-color:#E5700F"/>
				<stop  offset="1" style="stop-color:#FEBA1C"/>
			</linearGradient>
			<path class="st12" d="M234.1,366.4c-8.3-8.3-19.4-12.9-31.1-12.9c-24.3,0-44,19.7-44,44s19.7,44,44,44s44-19.7,44-44
				C247,385.8,242.5,374.7,234.1,366.4z M203,426.1c-15.8,0-28.6-12.8-28.6-28.6s12.8-28.6,28.6-28.6s28.6,12.8,28.6,28.6
				S218.8,426.1,203,426.1z"/>
		</g>
	</g>
</g>
<g class="st0">
	<g class="st9">
		<g>
			<linearGradient id="SVGID_12_" gradientUnits="userSpaceOnUse" x1="272.2" y1="399.1" x2="343.7" y2="399.1">
				<stop  offset="0" style="stop-color:#E5700F"/>
				<stop  offset="1" style="stop-color:#FEBA1C"/>
			</linearGradient>
			<path class="st13" d="M343.7,399.1c0,4.2-3.5,7.7-7.7,7.7h-56.1c-4.3,0-7.7-3.5-7.7-7.7c0-4.3,3.5-7.7,7.7-7.7H336
				C340.3,391.4,343.7,394.9,343.7,399.1z"/>
		</g>
	</g>
</g>
<g class="st0">
	<g class="st9">
		<g>
			<linearGradient id="SVGID_13_" gradientUnits="userSpaceOnUse" x1="162.1" y1="54.4" x2="207" y2="54.4">
				<stop  offset="0" style="stop-color:#E5700F"/>
				<stop  offset="1" style="stop-color:#FEBA1C"/>
			</linearGradient>
			<path class="st14" d="M207,54.4c0,4.3-3.5,7.7-7.7,7.7h-29.5c-4.3,0-7.7-3.5-7.7-7.7s3.5-7.7,7.7-7.7h29.6
				C203.6,46.7,207,50.2,207,54.4z"/>
		</g>
	</g>
</g>
<g class="st0">
	<g class="st9">
		<g>
			<linearGradient id="SVGID_14_" gradientUnits="userSpaceOnUse" x1="305.9" y1="54.4" x2="410" y2="54.4">
				<stop  offset="0" style="stop-color:#E5700F"/>
				<stop  offset="1" style="stop-color:#FEBA1C"/>
			</linearGradient>
			<path class="st15" d="M410,54.4c0,4.3-3.5,7.7-7.7,7.7h-88.7c-4.3,0-7.7-3.5-7.7-7.7s3.5-7.7,7.7-7.7h88.7
				C406.6,46.7,410,50.2,410,54.4z"/>
		</g>
	</g>
</g>
<g class="st0">
	<g class="st9">
		<g>
			<linearGradient id="SVGID_15_" gradientUnits="userSpaceOnUse" x1="243.6" y1="98.299" x2="410" y2="98.299">
				<stop  offset="0" style="stop-color:#E5700F"/>
				<stop  offset="1" style="stop-color:#FEBA1C"/>
			</linearGradient>
			<path class="st16" d="M410,98.3c0,4.3-3.5,7.7-7.7,7.7h-151c-4.2,0-7.7-3.5-7.7-7.7c0-4.2,3.5-7.7,7.7-7.7h151
				C406.6,90.5,410,94,410,98.3z"/>
		</g>
	</g>
</g>
<g class="st0">
	<g class="st9">
		<g>
			<linearGradient id="SVGID_16_" gradientUnits="userSpaceOnUse" x1="157.5" y1="178.8" x2="410.5" y2="178.8">
				<stop  offset="0" style="stop-color:#E5700F"/>
				<stop  offset="1" style="stop-color:#FEBA1C"/>
			</linearGradient>
			<path class="st17" d="M410.5,178.8c0,4.3-3.5,7.7-7.7,7.7H165.2c-4.3,0-7.7-3.5-7.7-7.7s3.5-7.7,7.7-7.7h237.6
				C407.1,171.1,410.5,174.6,410.5,178.8z"/>
		</g>
	</g>
</g>
<g class="st0">
	<g class="st9">
		<g>
			<linearGradient id="SVGID_17_" gradientUnits="userSpaceOnUse" x1="157.5" y1="213.5" x2="410.5" y2="213.5">
				<stop  offset="0" style="stop-color:#E5700F"/>
				<stop  offset="1" style="stop-color:#FEBA1C"/>
			</linearGradient>
			<path class="st18" d="M410.5,213.5c0,4.3-3.5,7.7-7.7,7.7H165.2c-4.3,0-7.7-3.5-7.7-7.7s3.5-7.7,7.7-7.7h237.6
				c2.1,0,4,0.8,5.4,2.3C409.7,209.5,410.5,211.5,410.5,213.5z"/>
		</g>
	</g>
</g>
<g class="st0">
	<g class="st9">
		<g>
			<linearGradient id="SVGID_18_" gradientUnits="userSpaceOnUse" x1="157.5" y1="251.2" x2="410.5" y2="251.2">
				<stop  offset="0" style="stop-color:#E5700F"/>
				<stop  offset="1" style="stop-color:#FEBA1C"/>
			</linearGradient>
			<path class="st19" d="M410.5,251.2c0,4.2-3.5,7.7-7.7,7.7H165.2c-4.3,0-7.7-3.5-7.7-7.7c0-4.3,3.5-7.7,7.7-7.7h237.6
				c2.1,0,4,0.8,5.4,2.3C409.7,247.3,410.5,249.2,410.5,251.2z"/>
		</g>
	</g>
</g>
<g class="st0">
	<g class="st9">
		<g>
			<linearGradient id="SVGID_19_" gradientUnits="userSpaceOnUse" x1="389.5" y1="285.9" x2="410.5" y2="285.9">
				<stop  offset="0" style="stop-color:#E5700F"/>
				<stop  offset="1" style="stop-color:#FEBA1C"/>
			</linearGradient>
			<path class="st20" d="M410.5,285.9c0,4.2-3.5,7.7-7.7,7.7h-5.6c-4.2,0-7.7-3.5-7.7-7.7c0-4.3,3.5-7.7,7.7-7.7h5.6
				C407.1,278.2,410.5,281.7,410.5,285.9z"/>
		</g>
	</g>
</g>
<g class="st0">
	<g class="st9">
		<g>
			<linearGradient id="SVGID_20_" gradientUnits="userSpaceOnUse" x1="157.5" y1="285.9" x2="369.2" y2="285.9">
				<stop  offset="0" style="stop-color:#E5700F"/>
				<stop  offset="1" style="stop-color:#FEBA1C"/>
			</linearGradient>
			<path class="st21" d="M369.2,285.9c0,4.2-3.5,7.7-7.7,7.7H165.2c-4.3,0-7.7-3.5-7.7-7.7c0-4.3,3.5-7.7,7.7-7.7h196.3
				C365.8,278.2,369.2,281.7,369.2,285.9z"/>
		</g>
	</g>
</g>
<g class="st0">
	<g class="st9">
		<linearGradient id="SVGID_21_" gradientUnits="userSpaceOnUse" x1="116.4" y1="232.002" x2="468.4" y2="232.002">
			<stop  offset="0" style="stop-color:#E5700F"/>
			<stop  offset="1" style="stop-color:#FEBA1C"/>
		</linearGradient>
		<path class="st22" d="M468.3,103.5c0-0.6-0.2-1.3-0.4-1.9c-0.1-0.3-0.1-0.5-0.2-0.8c-0.3-0.8-0.8-1.6-1.4-2.3l-96-104
			c-0.7-0.7-1.5-1.3-2.4-1.7c-0.2-0.1-0.5-0.2-0.7-0.3c-0.7-0.3-1.5-0.4-2.3-0.5c-0.2,0-0.3-0.1-0.5-0.1h-240c-4.4,0-8,3.6-8,8v464
			c0,4.4,3.6,8,8,8h336c4.4,0,8-3.6,8-8V104C468.4,103.8,468.3,103.7,468.3,103.5z M372.4,20.5L442.1,96h-69.7V20.5z M452.4,456
			h-320V8h224v96c0,4.4,3.6,8,8,8h88V456z"/>
	</g>
</g>
<g class="st0">
	<g class="st9">
		<linearGradient id="SVGID_22_" gradientUnits="userSpaceOnUse" x1="228.4" y1="160.002" x2="420.4" y2="160.002">
			<stop  offset="0" style="stop-color:#E5700F"/>
			<stop  offset="1" style="stop-color:#FEBA1C"/>
		</linearGradient>
		<path class="st23" d="M412.4,152h-176c-4.4,0-8,3.6-8,8s3.6,8,8,8h176c4.4,0,8-3.6,8-8S416.8,152,412.4,152z"/>
	</g>
</g>
<g class="st0">
	<g class="st9">
		<linearGradient id="SVGID_23_" gradientUnits="userSpaceOnUse" x1="228.4" y1="304.002" x2="420.4" y2="304.002">
			<stop  offset="0" style="stop-color:#E5700F"/>
			<stop  offset="1" style="stop-color:#FEBA1C"/>
		</linearGradient>
		<path class="st24" d="M412.4,296h-176c-4.4,0-8,3.6-8,8s3.6,8,8,8h176c4.4,0,8-3.6,8-8S416.8,296,412.4,296z"/>
	</g>
</g>
<g class="st0">
	<g class="st9">
		<linearGradient id="SVGID_24_" gradientUnits="userSpaceOnUse" x1="228.4" y1="376.002" x2="420.4" y2="376.002">
			<stop  offset="0" style="stop-color:#E5700F"/>
			<stop  offset="1" style="stop-color:#FEBA1C"/>
		</linearGradient>
		<path class="st25" d="M412.4,368h-176c-4.4,0-8,3.6-8,8s3.6,8,8,8h176c4.4,0,8-3.6,8-8S416.8,368,412.4,368z"/>
	</g>
</g>
<g class="st0">
	<g class="st9">
		<linearGradient id="SVGID_25_" gradientUnits="userSpaceOnUse" x1="162.5625" y1="147.268" x2="246.4343" y2="147.268">
			<stop  offset="0" style="stop-color:#E5700F"/>
			<stop  offset="1" style="stop-color:#FEBA1C"/>
		</linearGradient>
		<path class="st26" d="M244.2,119c-3.1-3.2-8.1-3.3-11.3-0.2c-0.1,0.1-0.1,0.1-0.2,0.2l-39.6,39.6l-17-17c-3.2-3.1-8.2-3-11.3,0.2
			c-3,3.1-3,8,0,11.1l22.6,22.6c3.1,3.1,8.2,3.1,11.3,0l45.2-45.3C247.2,127.3,247.3,122.2,244.2,119z"/>
	</g>
</g>
<g class="st0">
	<g class="st9">
		<linearGradient id="SVGID_26_" gradientUnits="userSpaceOnUse" x1="228.4" y1="232.002" x2="420.4" y2="232.002">
			<stop  offset="0" style="stop-color:#E5700F"/>
			<stop  offset="1" style="stop-color:#FEBA1C"/>
		</linearGradient>
		<path class="st27" d="M412.4,224h-176c-4.4,0-8,3.6-8,8s3.6,8,8,8h176c4.4,0,8-3.6,8-8S416.8,224,412.4,224z"/>
	</g>
</g>
<g class="st0">
	<g class="st9">
		<linearGradient id="SVGID_27_" gradientUnits="userSpaceOnUse" x1="162.5625" y1="219.2679" x2="246.4343" y2="219.2679">
			<stop  offset="0" style="stop-color:#E5700F"/>
			<stop  offset="1" style="stop-color:#FEBA1C"/>
		</linearGradient>
		<path class="st28" d="M244.2,191c-3.1-3.2-8.1-3.3-11.3-0.2c-0.1,0.1-0.1,0.1-0.2,0.2l-39.6,39.6l-17-17c-3.2-3.1-8.2-3-11.3,0.2
			c-3,3.1-3,8,0,11.1l22.6,22.6c3.1,3.1,8.2,3.1,11.3,0l45.2-45.3C247.2,199.3,247.3,194.2,244.2,191z"/>
	</g>
</g>
<g class="st0">
	<g class="st9">
		<linearGradient id="SVGID_28_" gradientUnits="userSpaceOnUse" x1="162.5625" y1="291.3664" x2="246.2378" y2="291.3664">
			<stop  offset="0" style="stop-color:#E5700F"/>
			<stop  offset="1" style="stop-color:#FEBA1C"/>
		</linearGradient>
		<path class="st29" d="M243.8,263c-3.1-3-8-3-11.1,0l-39.6,39.6l-17-17c-3.2-3.1-8.2-3-11.3,0.2c-3,3.1-3,8,0,11.1l22.6,22.6
			c3.1,3.1,8.2,3.1,11.3,0l45.2-45.3C247.1,271.2,247,266.1,243.8,263z"/>
	</g>
</g>
<g class="st0">
	<g class="st9">
		<linearGradient id="SVGID_29_" gradientUnits="userSpaceOnUse" x1="162.5625" y1="363.318" x2="245.5322" y2="363.318">
			<stop  offset="0" style="stop-color:#E5700F"/>
			<stop  offset="1" style="stop-color:#FEBA1C"/>
		</linearGradient>
		<path class="st30" d="M244,335c-3.1-3.1-8.2-3.1-11.3,0l-39.6,39.6l-17-17c-3.2-3.1-8.2-3-11.3,0.2c-3,3.1-3,8,0,11.1l22.6,22.6
			c3.1,3.1,8.2,3.1,11.3,0l45.2-45.3C246.4,343.4,245.7,338.6,244,335z"/>
	</g>
</g>
<g class="st0">
	<linearGradient id="SVGID_30_" gradientUnits="userSpaceOnUse" x1="99" y1="239" x2="472" y2="239">
		<stop  offset="0" style="stop-color:#E5700F"/>
		<stop  offset="1" style="stop-color:#FEBA1C"/>
	</linearGradient>
	<path class="st31" d="M466.4-15c4.7,2.3,5.6,6.9,5.6,12.5c0,65.8,0,131.6,0,197.4c0,94.7,0,189.5,0,284.2c0,2.3-0.1,4.6-0.4,6.9
		c-0.5,4.2-2.8,6.3-6.1,6.9c-1.5,0.3-3,0.2-4.5,0.2c-105,0-210,0-315.1,0c-9.1,0-10.9-2.3-11-13.4c0-33.6,0-67.1,0-100.7
		c0-3.4-0.8-5.8-2.8-8.2c-8.5-10-16.8-20.3-25.1-30.5c-4.9-6-4.9-10,0-16c1.7-2.1,3.6-3.9,6.3-6.7c-3.8-4.2-7.1-7.6-10.2-11.3
		c-5.7-6.7-5.6-10.8-0.1-17.5c7-8.5,14-17.1,21-25.6c4.3-5.2,4.6-5.4,10.6-5.3c0.1-1.4,0.2-2.8,0.2-4.3c0-85.2,0-170.3,0-255.5
		c0-5.6,0.4-10.7,5.3-13.1C249-15,357.7-15,466.4-15z M457.4,2.5c-102.9,0-205.4,0-308,0c-0.1,1.5-0.2,2.7-0.2,3.8
		c0,88.5,0,176.9,0.1,265.4c0,2.3,1.1,5.1,2.4,6.7c15.7,19.3,31.5,38.4,47.2,57.6c15.2,18.5,30.4,36.9,45.5,55.4
		c5,6.2,5,10.3-0.1,16.4c-1.9,2.3-4.1,4.3-7,7.3c3.7,4,6.7,7,9.5,10.4c3.6,4.3,3.8,9.6,0.8,13.2c-3.1,3.7-7,3.4-10.8-1.1
		c-2.8-3.3-5.5-6.8-8.9-11.1c-1.9,2.8-3.3,5.2-5,7.3c-5.8,7.2-8.8,7.2-14.6,0.2c-18.5-22.4-36.9-44.9-55.3-67.3
		c-1-1.2-2.1-2.4-3.6-4c0,38,0,75.2,0,112.8c102.7,0,205.2,0,308,0C457.4,317.8,457.4,160.3,457.4,2.5z M165.3,356.4
		c4.9-6,9.9-12.2,14.4-17.8c-10.5-12.8-21.2-26-31.3-38.4c-4.9,5.9-10,12-14.6,17.6C144.2,330.6,154.9,343.7,165.3,356.4z
		 M194.3,391.6c7.2,8.9,14.3,17.7,20.9,25.9c5-6.1,10.1-12.3,15-18.3c-6.9-8.3-14.2-17-21.3-25.5
		C204.2,379.5,199.2,385.6,194.3,391.6z M191.3,351.3c-5.3,6.5-10.2,12.6-15.3,18.8c2.4,2.8,5,5.8,7.3,8.4c5-6.1,10-12.2,15.1-18.4
		C196.2,357.3,193.8,354.3,191.3,351.3z M117.2,296.8c1.8,2.8,3.6,5.5,4.7,7.3c5.2-6.3,10.3-12.4,15-18.1c-1.6-2.1-3.5-4.5-5.4-6.9
		C126.7,285.2,121.8,291.2,117.2,296.8z M134.4,348.2c0.3-0.1,0.5-0.2,0.8-0.3c-0.4-1.4-0.5-3.2-1.3-4.2c-3.2-4.2-6.6-8.3-10.1-12.3
		c-0.5-0.6-1.9-0.1-2.9-0.1C125.7,337.4,130.1,342.8,134.4,348.2z"/>
	<linearGradient id="SVGID_31_" gradientUnits="userSpaceOnUse" x1="326.8634" y1="374.1973" x2="444.6504" y2="374.1973">
		<stop  offset="0" style="stop-color:#E5700F"/>
		<stop  offset="1" style="stop-color:#FEBA1C"/>
	</linearGradient>
	<path class="st32" d="M410.9,406.9c-3,3.9-5.7,8.9-9.1,11.8c-8.7,7.4-19.9-3.3-21.6-19.9c-0.9-8.8,0.7-16.6,3.1-24.3
		c2.1-7,4.4-13.8,6.2-21c1.3-5-0.3-9-3.7-9c-2.2,0-4.7,0.5-6.5,2.1c-5.5,5-11.1,10-16.1,16.1c-8.8,10.7-16.4,23.4-22.8,37.9
		c-1.3,2.9-2.3,6.3-3.4,9.4c-1.6,4.4-4.1,6-6.7,4.2c-2.7-1.8-4.2-6.4-2.9-11c1.8-6.1,3.9-12.1,6.4-17.4c9.4-19.4,20.5-36,33.5-49
		c5.1-5.1,10.5-8.9,16.6-9.8c9.5-1.4,20.6,11.6,15.7,32.7c-1.8,7.7-4.4,14.9-6.6,22.3c-0.8,2.8-1.5,5.8-2,8.8
		c-0.8,4.7,0.7,10,3.3,12.2c2.2,1.9,4,0.2,5.1-2.5c2.6-6.4,5.1-13,7.3-19.9c1.5-4.6,2.1-10.1,6.2-10.1c4-0.1,5.1,5.3,6.4,9.9
		c0.8,2.9,1.4,5.9,2.3,9.9c1.2-4.8,2.3-8.8,3.3-12.8c2.3-9.2,6-10.8,10.6-4.2c4.4,6.3,8.1,13.5,9.1,23.4c0.9,9-1.2,16.2-5,22.3
		c-2,3.1-5,2.9-7,0.1c-2.1-3-2.5-7.7-0.6-11.6c2.1-4.4,3-8.6,0.8-12.9c-3,6.5-5.9,13.2-9.1,19.5c-1.3,2.5-3.1,4.8-4.9,5.6
		c-1.8,0.9-4.2,0.7-6-0.6c-2.1-1.5-2.5-5.3-1.9-9.1C410.8,409,410.9,407.7,410.9,406.9z"/>
	<linearGradient id="SVGID_32_" gradientUnits="userSpaceOnUse" x1="251.1003" y1="144.892" x2="432.0541" y2="144.892">
		<stop  offset="0" style="stop-color:#E5700F"/>
		<stop  offset="1" style="stop-color:#FEBA1C"/>
	</linearGradient>
	<path class="st33" d="M341.7,153.4c-27.5,0-54.9,0-82.4,0c-1.1,0-2.3,0.1-3.4-0.1c-3-0.5-4.9-4-4.9-8.6c0-4.3,1.9-7.7,4.8-8.3
		c1-0.2,2-0.1,3.1-0.1c55.1,0,110.2,0,165.3,0c5.3,0,7.7,2.6,7.8,8.5c0,5.9-2.4,8.6-7.7,8.6C396.8,153.4,369.3,153.4,341.7,153.4z"
		/>
	<linearGradient id="SVGID_33_" gradientUnits="userSpaceOnUse" x1="251.1152" y1="64.2697" x2="432.0343" y2="64.2697">
		<stop  offset="0" style="stop-color:#E5700F"/>
		<stop  offset="1" style="stop-color:#FEBA1C"/>
	</linearGradient>
	<path class="st34" d="M341.5,55.6c27.4,0,54.7,0,82.1,0c1.3,0,2.7,0,4,0.3c2.7,0.6,4.2,3.3,4.4,7.6c0.2,4.6-1.2,7.6-3.9,8.9
		c-1,0.4-2,0.5-3,0.5c-54.9,0-109.8,0-164.7,0c-1.6,0-3.3,0.1-4.9-0.4c-2.8-0.8-4.6-4.4-4.3-8.8c0.2-4.5,1.8-7.3,4.6-7.8
		c1.2-0.2,2.5-0.2,3.7-0.2C286.8,55.6,314.2,55.6,341.5,55.6z"/>
	<linearGradient id="SVGID_34_" gradientUnits="userSpaceOnUse" x1="251.092" y1="265.9211" x2="388.8875" y2="265.9211">
		<stop  offset="0" style="stop-color:#E5700F"/>
		<stop  offset="1" style="stop-color:#FEBA1C"/>
	</linearGradient>
	<path class="st35" d="M319.8,274.5c-20.3,0-40.6,0-60.9,0c-1,0-2.1,0.1-3.1-0.1c-2.8-0.5-4.7-3.8-4.8-8.1c-0.1-4.4,1.7-8,4.5-8.7
		c1.1-0.3,2.2-0.2,3.4-0.2c40.7,0,81.3,0,122,0c1.2,0,2.5-0.1,3.7,0.3c2.5,0.7,4.3,4.4,4.2,8.5c-0.1,4.1-1.9,7.5-4.5,8.1
		c-1.1,0.2-2.2,0.2-3.4,0.2C360.6,274.5,340.2,274.5,319.8,274.5z"/>
	<linearGradient id="SVGID_35_" gradientUnits="userSpaceOnUse" x1="251.0981" y1="185.2603" x2="376.7076" y2="185.2603">
		<stop  offset="0" style="stop-color:#E5700F"/>
		<stop  offset="1" style="stop-color:#FEBA1C"/>
	</linearGradient>
	<path class="st36" d="M313.8,193.9c-18.4,0-36.8,0-55.3,0c-1.4,0-2.9-0.1-4.2-0.9c-2.4-1.4-3.5-4.5-3.2-8.6c0.3-3.9,1.6-6.4,4-7.2
		c1.3-0.4,2.6-0.5,4-0.5c36.4,0,72.9,0,109.3,0c1.4,0,2.9,0,4.3,0.5c2.5,0.8,3.9,3.5,4.1,7.6c0.2,4.1-1,7.1-3.4,8.4
		c-1.3,0.7-2.8,0.8-4.2,0.8C350.7,193.9,332.2,193.9,313.8,193.9z"/>
	<linearGradient id="SVGID_36_" gradientUnits="userSpaceOnUse" x1="326.2901" y1="225.6085" x2="432.02" y2="225.6085">
		<stop  offset="0" style="stop-color:#E5700F"/>
		<stop  offset="1" style="stop-color:#FEBA1C"/>
	</linearGradient>
	<path class="st37" d="M379,234.3c-14.9,0-29.9,0-44.8,0c-5.2,0-7.8-2.8-7.9-8.5c-0.1-5.8,2.6-8.9,8-8.9c30.1,0,60.2,0,90.3,0
		c1.3,0,2.7,0.1,3.9,0.8c2.5,1.2,3.6,4.1,3.5,8.2c-0.1,4.1-1.4,6.9-3.9,7.8c-1.2,0.4-2.4,0.5-3.7,0.5
		C409.3,234.3,394.2,234.3,379,234.3C379,234.3,379,234.3,379,234.3z"/>
	<linearGradient id="SVGID_37_" gradientUnits="userSpaceOnUse" x1="251.1463" y1="104.5616" x2="351.9038" y2="104.5616">
		<stop  offset="0" style="stop-color:#E5700F"/>
		<stop  offset="1" style="stop-color:#FEBA1C"/>
	</linearGradient>
	<path class="st38" d="M301.3,113.3c-14.2,0-28.5,0-42.7,0c-1.3,0-2.7-0.1-3.9-0.8c-2.3-1.2-3.8-4.1-3.4-7.8
		c0.4-2.8,1.7-5.8,3.1-7.7c0.9-1.2,2.7-1,4.1-1c28.5,0,57,0,85.4,0c5.3,0,8.1,3.1,8,8.9c-0.1,5.7-2.7,8.5-7.9,8.5
		C329.7,113.3,315.5,113.3,301.3,113.3z"/>
	<linearGradient id="SVGID_38_" gradientUnits="userSpaceOnUse" x1="357.6423" y1="104.5413" x2="432.0279" y2="104.5413">
		<stop  offset="0" style="stop-color:#E5700F"/>
		<stop  offset="1" style="stop-color:#FEBA1C"/>
	</linearGradient>
	<path class="st39" d="M395,95.9c10.1,0,20.3,0,30.4,0c4.2,0,6.6,3.1,6.6,8.4c0,4.3-1.2,7.3-3.9,8.3c-1.3,0.5-2.6,0.6-4,0.6
		c-19.5,0-39.1,0-58.6,0c-5.2,0-7.8-2.8-7.9-8.5c-0.1-5.9,2.6-9,7.9-9C375.4,95.8,385.2,95.8,395,95.9C395,95.8,395,95.9,395,95.9z"
		/>
	<linearGradient id="SVGID_39_" gradientUnits="userSpaceOnUse" x1="251.1307" y1="225.5886" x2="321.2053" y2="225.5886">
		<stop  offset="0" style="stop-color:#E5700F"/>
		<stop  offset="1" style="stop-color:#FEBA1C"/>
	</linearGradient>
	<path class="st40" d="M285.9,234.3c-9,0-18,0-27,0c-1.2,0-2.5-0.1-3.7-0.5c-2.5-0.8-3.9-3.5-4.1-7.6c-0.2-4.3,1.1-7.3,3.7-8.5
		c1.2-0.5,2.4-0.7,3.6-0.7c18.4,0,36.8,0,55.3,0c1,0,2.1,0,3,0.4c2.8,1,4.7,4.6,4.4,8.7c-0.3,4.4-1.8,7.5-4.6,7.9
		c-2.7,0.4-5.5,0.3-8.3,0.4C300.8,234.3,293.3,234.3,285.9,234.3z"/>
	<linearGradient id="SVGID_40_" gradientUnits="userSpaceOnUse" x1="340.4131" y1="402.9075" x2="377.2895" y2="402.9075">
		<stop  offset="0" style="stop-color:#E5700F"/>
		<stop  offset="1" style="stop-color:#FEBA1C"/>
	</linearGradient>
	<path class="st41" d="M377.3,381c-0.5,1.1-1.3,4.6-2.6,5.4c-8.7,5.2-13.8,16.7-18.9,28.1c-2.1,4.6-3.5,10-5.1,15.1
		c-1.3,4.3-3.7,6.6-6.5,5.3c-2.6-1.2-4.6-5.6-3.6-10c1.2-5.7,2.6-11.7,4.8-16.4c4.5-9.7,9.3-19.2,14.7-27.8
		c2.8-4.4,6.8-7.3,10.5-9.6C374.1,369,377.3,373.5,377.3,381z"/>
	<linearGradient id="SVGID_41_" gradientUnits="userSpaceOnUse" x1="382.6872" y1="185.2753" x2="432.062" y2="185.2753">
		<stop  offset="0" style="stop-color:#E5700F"/>
		<stop  offset="1" style="stop-color:#FEBA1C"/>
	</linearGradient>
	<path class="st42" d="M407.3,193.9c-5.8,0-11.7,0.1-17.5,0c-1.3,0-2.7-0.2-3.9-0.9c-2.3-1.5-3.5-4.6-3.2-8.7c0.3-3.8,1.6-6.4,4-7.2
		c1-0.4,2-0.4,3-0.4c11.7,0,23.3-0.1,35,0c1.5,0,3.1,0.2,4.5,1.2c2.5,1.8,3.2,5.5,2.6,9.6c-0.7,4.5-2.8,6.4-5.5,6.4
		C420,194,413.7,193.9,407.3,193.9z"/>
</g>
<g class="st0">
	<g class="st9">
		<g>
			<linearGradient id="SVGID_42_" gradientUnits="userSpaceOnUse" x1="-36" y1="245.9114" x2="476.0005" y2="245.9114">
				<stop  offset="0" style="stop-color:#E5700F"/>
				<stop  offset="1" style="stop-color:#FEBA1C"/>
			</linearGradient>
			<path class="st43" d="M466.6,122.5c-14.6-7.6-46.5-7.5-59.1,8.2c-4.8,6-9.3,11.8-14,17.8c-12.2,15.8-26.1,33.7-51.5,62.8
				c-5.7,6.5-13.1,11.9-21.7,16.4c0.3-1.3,0.5-2.6,0.6-3.9c0.9-10.6-4-20.8-12.6-26.7c-10.2-7-24-7.2-37.8-0.4
				c-17.7,8.6-37.4,8.5-56.5,8.4c-2.3,0-4.6,0-6.8,0c-8.1,0-16.4-3.5-26.1-7.6c-13.1-5.5-28-11.8-47.4-11.8
				c-21.9,0-43.2,12.9-56.6,22.9v-4.1c0-4.5-3.6-8.1-8.1-8.1h-97c-4.5,0-8.1,3.6-8.1,8.1v161.6c0,4.5,3.6,8.1,8.1,8.1h97
				c4.5,0,8.1-3.6,8.1-8.1v-15.5c35,4.9,66.5,6.8,94.8,6.8c56.8,0,101-7.8,135.9-15.8c33.6-7.7,96.3-73.4,131.4-138
				c6.6-12.1,13.6-23.7,19.7-33.9c8.5-14.1,14.7-24.2,16.5-30.4C476.2,136.9,477.8,128.3,466.6,122.5z M61,358h-80.8V212.6H61
				C61,212.6,61,358,61,358z M445.2,161.5c-6.2,10.3-13.3,22-20.1,34.5c-35.2,64.8-94.9,124-120.8,130C253,337.6,181,349,77.1,334.3
				V229.5c7.7-6.9,32.7-27.7,56.6-27.7c16.2,0,28.9,5.4,41.2,10.5c10.8,4.6,21.1,8.9,32.4,8.9c2.2,0,4.5,0,6.7,0
				c19.9,0.1,42.6,0.3,63.7-10c8.4-4.1,16.2-4.4,21.6-0.7c3.9,2.7,6.1,7.2,5.6,12.1c-0.5,6.5-5.6,12.5-13.8,16.4
				c-41.8,11.4-94.4,11.4-125,11.4c-4.5,0-8.1,3.6-8.1,8.1c0,4.5,3.6,8.1,8.1,8.1c30.2,0,65.3-0.4,99.2-5.7
				c42.9-6.7,72.1-19.3,89-38.7c25.8-29.4,39.8-47.6,52.1-63.5c4.7-6,9.1-11.7,13.8-17.6c3.2-4,11-6.7,20.5-7
				c8.7-0.3,15.7,1.5,18.5,3C457,141.9,451.2,151.5,445.2,161.5z"/>
			<linearGradient id="SVGID_43_" gradientUnits="userSpaceOnUse" x1="250.784" y1="99.927" x2="277.723" y2="99.927">
				<stop  offset="0" style="stop-color:#E5700F"/>
				<stop  offset="1" style="stop-color:#FEBA1C"/>
			</linearGradient>
			<path class="st44" d="M264.3,113.4c7.4,0,13.5-6,13.5-13.5c0-7.4-6-13.5-13.5-13.5c-7.4,0-13.5,6-13.5,13.5
				C250.8,107.4,256.8,113.4,264.3,113.4z"/>
			<linearGradient id="SVGID_44_" gradientUnits="userSpaceOnUse" x1="149.505" y1="132.825" x2="320.7988" y2="132.825">
				<stop  offset="0" style="stop-color:#E5700F"/>
				<stop  offset="1" style="stop-color:#FEBA1C"/>
			</linearGradient>
			<path class="st45" d="M157.6,222.3h30.5c4.5,0,8.1-3.6,8.1-8.1v-7.2h7.2c2.1,0,8.1-3,8.1-8.1v-7.2h7.2c4.5,0,8.1-3.6,8.1-8.1
				v-7.2h7.2c2.1,0,4.2-0.9,5.7-2.4l18.1-18.1c2.2,0.3,4.4,0.4,6.7,0.4c0,0,0,0,0,0c15.1,0,29.3-5.9,40-16.6
				c22.1-22.1,22.1-57.9,0-80c-10.7-10.7-24.9-16.6-40-16.6c-15.1,0-29.3,5.9-40,16.6c-15.5,15.5-20.5,38.6-13.3,59L151.9,178
				c-1.5,1.5-2.4,3.6-2.4,5.7v30.5C149.5,218.7,153.1,222.3,157.6,222.3z M165.7,187.1l60.5-60.5c2.4-2.4,3.1-6.1,1.6-9.2
				c-7.4-15.4-4.2-33.9,7.9-46c7.6-7.6,17.8-11.8,28.6-11.8s20.9,4.2,28.6,11.8c15.8,15.8,15.8,41.4,0,57.1
				c-7.6,7.6-17.8,11.8-28.6,11.8c0,0,0,0,0,0c-2.6,0-5.3-0.3-7.9-0.8c-2.6-0.5-5.4,0.3-7.3,2.2l-18.6,18.6h-11.9
				c-4.5,0-8.1,3.6-8.1,8.1v7.2h-7.2c-4.5,0-8.1,3.6-8.1,8.1v7.2h-7.2h0c-4.2,0-8.1,3.5-8.1,8.1v7.2h-14.3L165.7,187.1L165.7,187.1z
				"/>
			<linearGradient id="SVGID_45_" gradientUnits="userSpaceOnUse" x1="-22.899" y1="347.755" x2="4.04" y2="347.755">
				<stop  offset="0" style="stop-color:#E5700F"/>
				<stop  offset="1" style="stop-color:#FEBA1C"/>
			</linearGradient>
			<path class="st46" d="M-9.4,361.2c7.4,0,13.5-6,13.5-13.5c0-7.4-6-13.5-13.5-13.5c-7.4,0-13.5,6-13.5,13.5
				C-22.9,355.2-16.9,361.2-9.4,361.2z"/>
		</g>
	</g>
</g>
<linearGradient id="SVGID_46_" gradientUnits="userSpaceOnUse" x1="106.6839" y1="233.7155" x2="173.0988" y2="233.7155">
	<stop  offset="0" style="stop-color:#E5700F"/>
	<stop  offset="1" style="stop-color:#FEBA1C"/>
</linearGradient>
<path class="st47" d="M171.4,224.7c-2.6-3.2-7.4-3.7-10.6-1c-5.3,4.4-12.9,6.9-20.9,6.9c-8,0-15.6-2.5-20.9-6.9
	c-3.2-2.6-7.9-2.2-10.6,1c-2.6,3.2-2.2,7.9,1,10.6c8.1,6.6,18.9,10.3,30.5,10.3c11.6,0,22.4-3.6,30.5-10.3
	C173.6,232.6,174,227.9,171.4,224.7z"/>
<linearGradient id="SVGID_47_" gradientUnits="userSpaceOnUse" x1="89.547" y1="182.3015" x2="104.547" y2="182.3015">
	<stop  offset="0" style="stop-color:#E5700F"/>
	<stop  offset="1" style="stop-color:#FEBA1C"/>
</linearGradient>
<path class="st48" d="M97,170.5c-4.1,0-7.5,3.4-7.5,7.5v8.6c0,4.1,3.4,7.5,7.5,7.5s7.5-3.4,7.5-7.5V178
	C104.5,173.9,101.2,170.5,97,170.5z"/>
<linearGradient id="SVGID_48_" gradientUnits="userSpaceOnUse" x1="175.236" y1="182.3015" x2="190.236" y2="182.3015">
	<stop  offset="0" style="stop-color:#E5700F"/>
	<stop  offset="1" style="stop-color:#FEBA1C"/>
</linearGradient>
<path class="st49" d="M182.7,194.1c4.1,0,7.5-3.4,7.5-7.5V178c0-4.1-3.4-7.5-7.5-7.5s-7.5,3.4-7.5,7.5v8.6
	C175.2,190.7,178.6,194.1,182.7,194.1z"/>
<linearGradient id="SVGID_49_" gradientUnits="userSpaceOnUse" x1="-13.281" y1="238" x2="258.788" y2="238">
	<stop  offset="0" style="stop-color:#E5700F"/>
	<stop  offset="1" style="stop-color:#FEBA1C"/>
</linearGradient>
<path class="st50" d="M79.8,332.1l6.4-3.2c11.3-5.7,18.4-17,18.4-29.7v-8.7c11.3,4.2,23.3,6.3,35.5,6.3c7,0,14.1-0.7,21.2-2.1
	c22.6-4.6,43.1-17.3,57.8-35.6c14.6-18.3,22.6-41.1,22.6-64.2c-0.1-44.4-33.8-52.2-72.8-61.3c-19-4.4-40.5-9.4-62-19.2
	c-7.1-3.2-15.5-1-19.9,5.4c-14.6,21-30,33.6-41.3,33.6c-3.4,0-6.7,0.7-9.6,2v-20.2C36,77.9,82.6,31.3,139.9,31.3
	s103.9,46.6,103.9,103.9v17.1c0,4.1,3.4,7.5,7.5,7.5c4.1,0,7.5-3.4,7.5-7.5v-17.1c0-44.2-24.3-82.9-60.2-103.4
	c0.1-1.3,0.2-2.5,0.2-3.8c0-25.4-26.4-46.1-58.9-46.1C107.4-18,81,2.7,81,28.1c0,1.3,0.1,2.5,0.2,3.8C45.3,52.3,21,91,21,135.2V178
	c0,11,7.3,20.4,17.3,23.5c1.8,28.3,15.1,54.4,37.2,72.5c4.4,3.6,9.1,6.8,14,9.6v15.7c0,6.9-3.9,13.2-10.1,16.3L5.1,352.7
	c-11.3,5.7-18.4,17-18.4,29.7v35.5c0,6.2,3.5,11.5,8.6,14.2v54.4c0,4.1,3.4,7.5,7.5,7.5s7.5-3.4,7.5-7.5V434h27.8v52.5
	c0,4.1,3.4,7.5,7.5,7.5s7.5-3.4,7.5-7.5v-77.1c0-4.1-3.4-7.5-7.5-7.5s-7.5,3.4-7.5,7.5v9.6H2.8c-0.6,0-1.1-0.5-1.1-1.1v-35.5
	c0-6.9,3.9-13.2,10.1-16.3l54.6-27.3c11.2,20,33.1,40.8,34.1,41.7c1.4,1.4,3.3,2,5.1,2c2,0,4-0.8,5.5-2.4c2.8-3,2.7-7.8-0.3-10.6
	C110.5,369.4,89.9,349.9,79.8,332.1z M139.9-3c22.5,0,41.2,12.1,43.6,27.6c-13.5-5.3-28.2-8.3-43.6-8.3c-15.4,0-30.1,2.9-43.6,8.3
	C98.7,9.1,117.3-3,139.9-3z M85.1,262.4c-20.3-16.6-31.9-41.1-31.9-67.2c0-4.1-3.4-7.5-7.5-7.5c-5.3,0-9.6-4.3-9.6-9.6
	s4.3-9.6,9.6-9.6c22.5,0,43.3-25.1,53.6-40.1c0.2-0.3,0.5-0.4,0.8-0.4c0.2,0,0.4,0.1,0.6,0.1l0,0c22.8,10.3,45.1,15.5,64.7,20.1
	c41.3,9.6,61.1,15.6,61.2,46.8c0.1,19.7-6.8,39.2-19.3,54.8c-12.5,15.6-30,26.4-49.1,30.3C132,285.4,105.3,279,85.1,262.4z"/>
<linearGradient id="SVGID_50_" gradientUnits="userSpaceOnUse" x1="123.8622" y1="362.2706" x2="387.2823" y2="362.2706">
	<stop  offset="0" style="stop-color:#E5700F"/>
	<stop  offset="1" style="stop-color:#FEBA1C"/>
</linearGradient>
<path class="st51" d="M362.5,255.3c-33-33-86.7-33-119.7,0l-94.3,94.3c-33,33-33,86.7,0,119.7c16.5,16.5,38.2,24.7,59.8,24.7
	c21.2,0,42.3-7.9,58.7-23.6l12,20c2.1,3.6,6.7,4.7,10.3,2.6s4.7-6.7,2.6-10.3L268.8,444c-2.9-4.8-8.2-7.8-13.8-7.8h-12.3
	c-7.5,0-14.8-3.2-19.8-8.8c-5.1-5.6-7.6-13-6.8-20.7c1.3-13.5,13.6-24.1,28.1-24.1H260c13,0,24.9,7.1,31.1,18.6l47.9,88.9
	c1.4,2.5,3.9,3.9,6.6,3.9c1.2,0,2.4-0.3,3.5-0.9c3.6-2,5-6.5,3-10.2L318,419.5l44.5-44.5C395.5,342,395.5,288.3,362.5,255.3z
	 M201.1,405.3c-1.1,11.8,2.8,23.5,10.7,32.2c7.9,8.7,19.2,13.7,30.9,13.7H255c0.4,0,0.7,0.2,0.9,0.5l3.3,5.4l-1.5,1.5
	c-27.1,27.1-71.3,27.1-98.5,0c-27.1-27.1-27.1-71.3,0-98.5l22.3-22.3c7.6,7.5,22.5,21.7,40.5,35.7
	C210.5,380.3,202.4,391.9,201.1,405.3z M310.6,405.7l-6.3-11.6c-8.8-16.3-25.8-26.5-44.3-26.5h-15.8c-1.7,0-3.3,0.1-5,0.3
	c-20.6-15.1-38.6-32.2-47.1-40.6l61.4-61.4c27.1-27.1,71.3-27.1,98.5,0c13.1,13.1,20.4,30.6,20.4,49.2s-7.2,36.1-20.4,49.2
	L310.6,405.7z"/>
<linearGradient id="SVGID_51_" gradientUnits="userSpaceOnUse" x1="252.3813" y1="315.1198" x2="353.0227" y2="315.1198">
	<stop  offset="0" style="stop-color:#E5700F"/>
	<stop  offset="1" style="stop-color:#FEBA1C"/>
</linearGradient>
<path class="st52" d="M338.3,279.5c-19.6-19.6-51.6-19.6-71.2,0c-19.6,19.6-19.6,51.6,0,71.2c9.8,9.8,22.7,14.7,35.6,14.7
	s25.8-4.9,35.6-14.7C357.9,331.1,357.9,299.2,338.3,279.5z M327.7,340.1c-13.8,13.8-36.2,13.8-50,0c-13.8-13.8-13.8-36.2,0-50
	c6.9-6.9,15.9-10.3,25-10.3s18.1,3.4,25,10.3C341.5,303.9,341.5,326.3,327.7,340.1z"/>
<linearGradient id="SVGID_52_" gradientUnits="userSpaceOnUse" x1="283.02" y1="303" x2="298.02" y2="303">
	<stop  offset="0" style="stop-color:#E5700F"/>
	<stop  offset="1" style="stop-color:#FEBA1C"/>
</linearGradient>
<circle class="st53" cx="290.5" cy="303" r="7.5"/>
<linearGradient id="SVGID_53_" gradientUnits="userSpaceOnUse" x1="307.27" y1="327.17" x2="322.27" y2="327.17">
	<stop  offset="0" style="stop-color:#E5700F"/>
	<stop  offset="1" style="stop-color:#FEBA1C"/>
</linearGradient>
<circle class="st54" cx="314.8" cy="327.2" r="7.5"/>
<linearGradient id="SVGID_54_" gradientUnits="userSpaceOnUse" x1="-60.683" y1="312.624" x2="183.374" y2="312.624">
	<stop  offset="0" style="stop-color:#E5700F"/>
	<stop  offset="1" style="stop-color:#FEBA1C"/>
</linearGradient>
<path class="st55" d="M144.4,367.2h-23.4l0-17.2c19.1-16.7,31.1-41.2,31.1-68.4v-29.9c6.1-30.6,3.3-53.3-8.3-67.5
	c-7.3-8.9-16.4-12.3-22.8-13.6v-34.5c0-4.3-3.5-7.8-7.8-7.8c-3,0-6,0-9.1,0c-3.2,0-6.5,0-9.8,0c-37.6,0-79.8,2.4-104.8,30.8
	c-18,20.4-24.3,50.6-19.1,92.2v30.3c0,27.3,12.1,51.8,31.2,68.4v17.2h-23.4c-21.5,0-38.9,17.5-38.9,38.9v83.1c0,4.3,3.5,7.8,7.8,7.8
	h228.5c4.3,0,7.8-3.5,7.8-7.8v-83.1c0,0,0,0,0,0C183.4,384.6,165.9,367.2,144.4,367.2z M105.5,370.8l-23.9,15.9l-12.4-6.2V372
	c13.1-1.1,25.4-5,36.4-11.1L105.5,370.8z M1.2,169.3c20.8-23.5,59-25.5,93.1-25.5c3.3,0,6.5,0,9.7,0c0.5,0,0.9,0,1.4,0v33.8
	c0,2.1,0.9,4.2,2.4,5.7c1.6,1.5,3.6,2.2,5.8,2.1c0.7,0,11-0.2,18.2,8.6c5.3,6.5,8,16.4,7.9,29.3l-3.4-6.8c-1.7-3.4-5.7-5.1-9.3-3.9
	c-0.5,0.1-46.6,14.8-73.2,14.8c-25.5,0-48.6-13.8-48.9-14c-3.4-2.1-7.9-1.2-10.3,2l-10.3,13.7C-16.2,202.8-10.6,182.7,1.2,169.3z
	 M-13.9,281.5v-28.7l17.1-22.7c9.6,4.8,29.1,12.9,50.7,12.9c23.1,0,57.4-9.4,71.6-13.5l11.2,22.5v29.6c0,41.5-33.8,75.3-75.3,75.3
	C19.8,356.8-13.9,323-13.9,281.5z M53.6,372v8l-16.8,6.7l-19.5-15.6v-10.3C28.1,367,40.5,370.9,53.6,372z M167.8,481.4h-36.3v-23.4
	c0-4.3-3.5-7.8-7.8-7.8s-7.8,3.5-7.8,7.8v23.4H6.8v-23.4c0-4.3-3.5-7.8-7.8-7.8s-7.8,3.5-7.8,7.8v23.4h-36.3v-75.3
	c0-12.9,10.5-23.4,23.4-23.4H6.7l23.8,19.1c0.1,0.1,0.2,0.1,0.2,0.1c0.2,0.2,0.4,0.3,0.7,0.4c0.1,0.1,0.3,0.2,0.4,0.2
	c0.2,0.1,0.4,0.2,0.7,0.3c0.2,0.1,0.3,0.1,0.5,0.2c0.3,0.1,0.5,0.1,0.8,0.2c0.1,0,0.3,0.1,0.4,0.1c0.4,0.1,0.8,0.1,1.2,0.1
	c0.3,0,0.5,0,0.8,0c0,0,0.1,0,0.1,0c0.2,0,0.4-0.1,0.6-0.1c0.1,0,0.2,0,0.3-0.1c0.2,0,0.3-0.1,0.5-0.1c0.1,0,0.2-0.1,0.3-0.1
	c0.1,0,0.1,0,0.2-0.1l22.7-9.1l17.5,8.7c0,0,0,0,0,0l0.1,0.1c0.1,0.1,0.2,0.1,0.3,0.1c0.2,0.1,0.3,0.1,0.5,0.2
	c0.2,0.1,0.4,0.1,0.6,0.2c0.1,0,0.2,0.1,0.3,0.1c0.3,0.1,0.6,0.1,0.8,0.2c0,0,0,0,0.1,0c0.3,0,0.6,0.1,0.9,0.1c0.4,0,0.7,0,1.1-0.1
	c0.2,0,0.3-0.1,0.5-0.1c0.2,0,0.4-0.1,0.6-0.1c0.2,0,0.3-0.1,0.5-0.2c0.2-0.1,0.4-0.1,0.6-0.2c0.1-0.1,0.3-0.1,0.4-0.2
	c0.2-0.1,0.4-0.2,0.6-0.3c0,0,0.1,0,0.1-0.1l29.2-19.5h28.8c12.9,0,23.4,10.5,23.4,23.4c0,0,0,0,0,0L167.8,481.4L167.8,481.4z"/>
<linearGradient id="SVGID_55_" gradientUnits="userSpaceOnUse" x1="198.954" y1="302.254" x2="443.012" y2="302.254">
	<stop  offset="0" style="stop-color:#E5700F"/>
	<stop  offset="1" style="stop-color:#FEBA1C"/>
</linearGradient>
<path class="st56" d="M443,229.5C443,229.5,443,229.5,443,229.5c0-67.3-54.8-122-122-122c-67.3,0-122,54.7-122,122v187v72.7
	c0,4.3,3.5,7.8,7.8,7.8h228.5c4.3,0,7.8-3.5,7.8-7.8v-72.7c0,0,0,0,0,0L443,229.5L443,229.5z M321,123.1
	c58.7,0,106.5,47.8,106.5,106.4c0,0,0,0,0,0v155.8c-6.5-4.9-14.6-7.8-23.4-7.8h-30.9c-0.1,0-0.2,0-0.3,0s-0.2,0-0.3,0h-12.7l0-14
	c30.7-14.6,51.9-45.9,51.9-82.1V240c0-4.3-3.5-7.8-7.8-7.8h-13v-13c0-4.3-3.5-7.8-7.8-7.8s-7.8,3.5-7.8,7.8v13h-15.6v-13
	c0-4.3-3.5-7.8-7.8-7.8s-7.8,3.5-7.8,7.8v13h-15.6v-13c0-4.3-3.5-7.8-7.8-7.8s-7.8,3.5-7.8,7.8v13h-15.6v-13c0-4.3-3.5-7.8-7.8-7.8
	s-7.8,3.5-7.8,7.8v13h-15.6v-13c0-4.3-3.5-7.8-7.8-7.8s-7.8,3.5-7.8,7.8v13h-13c-4.3,0-7.8,3.5-7.8,7.8v41.6
	c0,36.2,21.3,67.5,51.9,82.1v14h-12.7c-0.1,0-0.2,0-0.3,0c-0.1,0-0.2,0-0.3,0h-30.9c-8.8,0-16.9,2.9-23.4,7.8V229.5
	C214.5,170.8,262.3,123.1,321,123.1z M245.7,247.7h150.6v33.8c0,41.5-33.8,75.3-75.3,75.3s-75.3-33.8-75.3-75.3L245.7,247.7
	L245.7,247.7z M289.8,393.1c4.3,0,7.8-3.5,7.8-7.8v-16c7.5,2,15.3,3,23.4,3c8.1,0,15.9-1.1,23.4-3.1l0,16v0c0,0,0,0,0,0
	c0,0.1,0,0.3,0,0.4c0,0.1,0,0.3,0,0.4c0,0.1,0,0.2,0.1,0.4c0,0.1,0,0.3,0.1,0.4c0,0.1,0.1,0.2,0.1,0.4c0,0.1,0.1,0.3,0.1,0.4
	c0,0.1,0.1,0.3,0.1,0.4c0,0.1,0.1,0.2,0.1,0.3c0.1,0.2,0.2,0.4,0.3,0.5c0,0,0,0.1,0.1,0.1c1.1,2,3,3.4,5.3,3.9c0,0,0,0,0,0
	c0.2,0,0.4,0.1,0.6,0.1c0.1,0,0.1,0,0.2,0c0.2,0,0.3,0,0.5,0c0.1,0,0.2,0,0.3,0c0,0,0,0,0,0h12.3c-3.7,20.6-21.8,36.3-43.4,36.3
	s-39.7-15.7-43.4-36.3L289.8,393.1L289.8,393.1z M427.4,481.4h-36.3v-23.4c0-4.3-3.5-7.8-7.8-7.8s-7.8,3.5-7.8,7.8v23.4H266.5v-23.4
	c0-4.3-3.5-7.8-7.8-7.8s-7.8,3.5-7.8,7.8v23.4h-36.3v-64.9c0-12.9,10.5-23.4,23.4-23.4h23.9c3.8,29.3,28.9,51.9,59.2,51.9
	s55.4-22.7,59.2-51.9h23.9c12.9,0,23.4,10.5,23.4,23.3c0,0,0,0,0,0L427.4,481.4L427.4,481.4z"/>
<g class="st0">
	<linearGradient id="SVGID_56_" gradientUnits="userSpaceOnUse" x1="189.1266" y1="54.6868" x2="280.9148" y2="54.6868">
		<stop  offset="0" style="stop-color:#E5700F"/>
		<stop  offset="1" style="stop-color:#FEBA1C"/>
	</linearGradient>
	<path class="st57" d="M266.6-0.5C257.3-9.8,245-14.9,232-14.9c-13.1,0-25.3,5.1-34.6,14.3c-0.5,0.5-0.9,1.1-1.1,1.8
		c-0.3,1.2-0.1,2.5,0.7,3.4l8.3,11.5l-13.9,18c-1.3,1.7-1,4.1,0.6,5.5L208,52.8l-13.7,17.9c-1.1,1.4-1.1,3.3,0,4.8l11.8,15.8
		l-15.1,9.3c-1,0.6-1.7,1.7-1.9,2.9c-0.1,1.2,0.3,2.4,1.1,3.3l16.3,16.3c0.7,0.7,1.8,1.2,2.8,1.2c0.1,0,0.2,0,0.2,0
		c1-0.1,1.9-0.5,2.6-1.2l54.4-54.4c9.2-9.2,14.3-21.5,14.3-34.6C280.9,21,275.8,8.7,266.6-0.5L266.6-0.5z M261,63.1l-51.6,51.6
		l-10-10l14.5-9c0.9-0.6,1.6-1.5,1.8-2.6c0.2-1.1-0.1-2.2-0.7-3.1l-12.6-16.9l14.2-18.6c1.3-1.7,1-4.1-0.6-5.5L199.9,36l13.4-17.3
		c1.1-1.4,1.1-3.3,0.1-4.7l-8-11.2C212.8-3.5,222.1-7,232-7c11,0,21.3,4.3,29,12c7.8,7.8,12,18.1,12,29S268.7,55.4,261,63.1
		L261,63.1z M261,63.1"/>
	<g class="st9">
		<linearGradient id="SVGID_57_" gradientUnits="userSpaceOnUse" x1="91.164" y1="59.3005" x2="189.2624" y2="59.3005">
			<stop  offset="0" style="stop-color:#E5700F"/>
			<stop  offset="1" style="stop-color:#FEBA1C"/>
		</linearGradient>
		<path class="st58" d="M171.2,104.7l14.5-9c0.9-0.6,1.6-1.5,1.8-2.6c0.2-1.1,0-2.2-0.7-3.1l-12.6-16.9l14.2-18.6
			c1.3-1.7,1-4.1-0.6-5.5L171.7,36l13.4-17.3c1.1-1.4,1.1-3.3,0.1-4.7L178,3.9c-3.5-4.9-7.8-8.9-12.8-11.9
			c-19.3-11.4-43.8-8.4-59.6,7.5C96.3,8.7,91.2,21,91.2,34.1c0,13.1,5.1,25.4,14.3,34.6l63.6,63.6c0.8,0.8,1.8,1.2,2.8,1.2
			s2-0.4,2.8-1.2l9.2-9.2c0.4-0.3,0.6-0.7,0.9-1.2c0.7-1.5,0.4-3.3-0.8-4.5L171.2,104.7z M171.9,124l-60.8-60.8
			c-7.8-7.8-12-18.1-12-29s4.3-21.3,12-29c7.9-7.9,18.4-12,29-12c7.2,0,14.4,1.9,20.9,5.8c4,2.4,7.6,5.7,10.5,9.7l5.5,7.7l-13.9,18
			c-1.3,1.7-1,4.1,0.6,5.5l16.1,13.1l-13.7,17.9c-1.1,1.4-1.1,3.3,0,4.8l11.8,15.8l-15.1,9.3c-1,0.6-1.7,1.7-1.9,2.9
			c-0.1,1.2,0.3,2.4,1.1,3.3l13.5,13.5L171.9,124z M171.9,124"/>
	</g>
</g>
<linearGradient id="SVGID_58_" gradientUnits="userSpaceOnUse" x1="105.8479" y1="234.7155" x2="172.2628" y2="234.7155">
	<stop  offset="0" style="stop-color:#E5700F"/>
	<stop  offset="1" style="stop-color:#FEBA1C"/>
</linearGradient>
<path class="st59" d="M170.6,225.7c-2.6-3.2-7.4-3.7-10.6-1c-5.3,4.4-12.9,6.9-20.9,6.9c-8,0-15.6-2.5-20.9-6.9
	c-3.2-2.6-7.9-2.2-10.6,1c-2.6,3.2-2.2,7.9,1,10.6c8.1,6.6,18.9,10.3,30.5,10.3c11.6,0,22.4-3.6,30.5-10.3
	C172.7,233.6,173.2,228.9,170.6,225.7z"/>
<linearGradient id="SVGID_59_" gradientUnits="userSpaceOnUse" x1="88.711" y1="183.3015" x2="103.711" y2="183.3015">
	<stop  offset="0" style="stop-color:#E5700F"/>
	<stop  offset="1" style="stop-color:#FEBA1C"/>
</linearGradient>
<path class="st60" d="M96.2,171.5c-4.1,0-7.5,3.4-7.5,7.5v8.6c0,4.1,3.4,7.5,7.5,7.5s7.5-3.4,7.5-7.5V179
	C103.7,174.9,100.4,171.5,96.2,171.5z"/>
<linearGradient id="SVGID_60_" gradientUnits="userSpaceOnUse" x1="174.4" y1="183.3015" x2="189.4" y2="183.3015">
	<stop  offset="0" style="stop-color:#E5700F"/>
	<stop  offset="1" style="stop-color:#FEBA1C"/>
</linearGradient>
<path class="st61" d="M181.9,195.1c4.1,0,7.5-3.4,7.5-7.5V179c0-4.1-3.4-7.5-7.5-7.5s-7.5,3.4-7.5,7.5v8.6
	C174.4,191.7,177.8,195.1,181.9,195.1z"/>
<linearGradient id="SVGID_61_" gradientUnits="userSpaceOnUse" x1="-14.117" y1="239" x2="257.952" y2="239">
	<stop  offset="0" style="stop-color:#E5700F"/>
	<stop  offset="1" style="stop-color:#FEBA1C"/>
</linearGradient>
<path class="st62" d="M78.9,333.1l6.4-3.2c11.3-5.7,18.4-17,18.4-29.7v-8.7c11.3,4.2,23.3,6.3,35.5,6.3c7,0,14.1-0.7,21.2-2.1
	c22.6-4.6,43.1-17.3,57.8-35.6c14.6-18.3,22.6-41.1,22.6-64.2c-0.1-44.4-33.8-52.2-72.8-61.3c-19-4.4-40.5-9.4-62-19.2
	c-7.1-3.2-15.5-1-19.9,5.4c-14.6,21-30,33.6-41.3,33.6c-3.4,0-6.7,0.7-9.6,2v-20.2c0-57.3,46.6-103.9,103.9-103.9
	S243,78.9,243,136.2v17.1c0,4.1,3.4,7.5,7.5,7.5c4.1,0,7.5-3.4,7.5-7.5v-17.1c0-44.2-24.3-82.9-60.2-103.4c0.1-1.3,0.2-2.5,0.2-3.8
	C198,3.7,171.5-17,139.1-17c-32.5,0-58.9,20.7-58.9,46.1c0,1.3,0.1,2.5,0.2,3.8C44.4,53.3,20.2,92,20.2,136.2V179
	c0,11,7.3,20.4,17.3,23.5c1.8,28.3,15.1,54.4,37.2,72.5c4.4,3.6,9.1,6.8,14,9.6v15.7c0,6.9-3.9,13.2-10.1,16.3L4.2,353.7
	c-11.3,5.7-18.4,17-18.4,29.7v35.5c0,6.2,3.5,11.5,8.6,14.2v54.4c0,4.1,3.4,7.5,7.5,7.5s7.5-3.4,7.5-7.5V435h27.8v52.5
	c0,4.1,3.4,7.5,7.5,7.5s7.5-3.4,7.5-7.5v-77.1c0-4.1-3.4-7.5-7.5-7.5s-7.5,3.4-7.5,7.5v9.6H2c-0.6,0-1.1-0.5-1.1-1.1v-35.5
	c0-6.9,3.9-13.2,10.1-16.3l54.6-27.3c11.2,20,33.1,40.8,34.1,41.7c1.4,1.4,3.3,2,5.1,2c2,0,4-0.8,5.5-2.4c2.8-3,2.7-7.8-0.3-10.6
	C109.7,370.4,89.1,350.9,78.9,333.1z M139.1-2c22.5,0,41.2,12.1,43.6,27.6c-13.5-5.3-28.2-8.3-43.6-8.3c-15.4,0-30.1,2.9-43.6,8.3
	C97.9,10.1,116.5-2,139.1-2z M84.2,263.4c-20.3-16.6-31.9-41.1-31.9-67.2c0-4.1-3.4-7.5-7.5-7.5c-5.3,0-9.6-4.3-9.6-9.6
	s4.3-9.6,9.6-9.6c22.5,0,43.3-25.1,53.6-40.1c0.2-0.3,0.5-0.4,0.8-0.4c0.2,0,0.4,0.1,0.6,0.1l0,0c22.8,10.3,45.1,15.5,64.7,20.1
	c41.3,9.6,61.1,15.6,61.2,46.8c0.1,19.7-6.8,39.2-19.3,54.8c-12.5,15.6-30,26.4-49.1,30.3C131.2,286.4,104.5,280,84.2,263.4z"/>
<linearGradient id="SVGID_62_" gradientUnits="userSpaceOnUse" x1="123.0262" y1="363.2706" x2="386.4463" y2="363.2706">
	<stop  offset="0" style="stop-color:#E5700F"/>
	<stop  offset="1" style="stop-color:#FEBA1C"/>
</linearGradient>
<path class="st63" d="M361.7,256.3c-33-33-86.7-33-119.7,0l-94.3,94.3c-33,33-33,86.7,0,119.7c16.5,16.5,38.2,24.7,59.8,24.7
	c21.2,0,42.3-7.9,58.7-23.6l12,20c2.1,3.6,6.7,4.7,10.3,2.6s4.7-6.7,2.6-10.3L267.9,445c-2.9-4.8-8.2-7.8-13.8-7.8h-12.3
	c-7.5,0-14.8-3.2-19.8-8.8c-5.1-5.6-7.6-13-6.8-20.7c1.3-13.5,13.6-24.1,28.1-24.1h15.8c13,0,24.9,7.1,31.1,18.6l47.9,88.9
	c1.4,2.5,3.9,3.9,6.6,3.9c1.2,0,2.4-0.3,3.5-0.9c3.6-2,5-6.5,3-10.2l-34.2-63.4l44.5-44.5C394.7,343,394.7,289.3,361.7,256.3z
	 M200.3,406.3c-1.1,11.8,2.8,23.5,10.7,32.2c7.9,8.7,19.2,13.7,30.9,13.7h12.3c0.4,0,0.7,0.2,0.9,0.5l3.3,5.4l-1.5,1.5
	c-27.1,27.1-71.3,27.1-98.5,0c-27.1-27.1-27.1-71.3,0-98.5l22.3-22.3c7.6,7.5,22.5,21.7,40.5,35.7
	C209.7,381.3,201.6,392.9,200.3,406.3z M309.7,406.7l-6.3-11.6c-8.8-16.3-25.8-26.5-44.3-26.5h-15.8c-1.7,0-3.3,0.1-5,0.3
	c-20.6-15.1-38.6-32.2-47.1-40.6l61.4-61.4c27.1-27.1,71.3-27.1,98.5,0c13.1,13.1,20.4,30.6,20.4,49.2s-7.2,36.1-20.4,49.2
	L309.7,406.7z"/>
<linearGradient id="SVGID_63_" gradientUnits="userSpaceOnUse" x1="251.5453" y1="316.1198" x2="352.1867" y2="316.1198">
	<stop  offset="0" style="stop-color:#E5700F"/>
	<stop  offset="1" style="stop-color:#FEBA1C"/>
</linearGradient>
<path class="st64" d="M337.5,280.5c-19.6-19.6-51.6-19.6-71.2,0c-19.6,19.6-19.6,51.6,0,71.2c9.8,9.8,22.7,14.7,35.6,14.7
	s25.8-4.9,35.6-14.7C357.1,332.1,357.1,300.2,337.5,280.5z M326.9,341.1c-13.8,13.8-36.2,13.8-50,0c-13.8-13.8-13.8-36.2,0-50
	c6.9-6.9,15.9-10.3,25-10.3s18.1,3.4,25,10.3C340.6,304.9,340.6,327.3,326.9,341.1z"/>
<linearGradient id="SVGID_64_" gradientUnits="userSpaceOnUse" x1="282.184" y1="304" x2="297.184" y2="304">
	<stop  offset="0" style="stop-color:#E5700F"/>
	<stop  offset="1" style="stop-color:#FEBA1C"/>
</linearGradient>
<circle class="st65" cx="289.7" cy="304" r="7.5"/>
<linearGradient id="SVGID_65_" gradientUnits="userSpaceOnUse" x1="306.434" y1="328.17" x2="321.434" y2="328.17">
	<stop  offset="0" style="stop-color:#E5700F"/>
	<stop  offset="1" style="stop-color:#FEBA1C"/>
</linearGradient>
<circle class="st66" cx="313.9" cy="328.2" r="7.5"/>
<linearGradient id="SVGID_66_" gradientUnits="userSpaceOnUse" x1="-61.683" y1="289.624" x2="182.374" y2="289.624">
	<stop  offset="0" style="stop-color:#E5700F"/>
	<stop  offset="1" style="stop-color:#FEBA1C"/>
</linearGradient>
<path class="st67" d="M143.4,344.2h-23.4l0-17.2c19.1-16.7,31.1-41.2,31.1-68.4v-29.9c6.1-30.6,3.3-53.3-8.3-67.5
	c-7.3-8.9-16.4-12.3-22.8-13.6v-34.5c0-4.3-3.5-7.8-7.8-7.8c-3,0-6,0-9.1,0c-3.2,0-6.5,0-9.8,0c-37.6,0-79.8,2.4-104.8,30.8
	c-18,20.4-24.3,50.6-19.1,92.2v30.3c0,27.3,12.1,51.8,31.2,68.4v17.2h-23.4c-21.5,0-38.9,17.5-38.9,38.9v83.1c0,4.3,3.5,7.8,7.8,7.8
	h228.5c4.3,0,7.8-3.5,7.8-7.8v-83.1c0,0,0,0,0,0C182.4,361.6,164.9,344.2,143.4,344.2z M104.5,347.8l-23.9,15.9l-12.4-6.2V349
	c13.1-1.1,25.4-5,36.4-11.1L104.5,347.8z M0.2,146.3c20.8-23.5,59-25.5,93.1-25.5c3.3,0,6.5,0,9.7,0c0.5,0,0.9,0,1.4,0v33.8
	c0,2.1,0.9,4.2,2.4,5.7c1.6,1.5,3.6,2.2,5.8,2.1c0.7,0,11-0.2,18.2,8.6c5.3,6.5,8,16.4,7.9,29.3l-3.4-6.8c-1.7-3.4-5.7-5.1-9.3-3.9
	c-0.5,0.1-46.6,14.8-73.2,14.8c-25.5,0-48.6-13.8-48.9-14c-3.4-2.1-7.9-1.2-10.3,2l-10.3,13.7C-17.2,179.8-11.6,159.7,0.2,146.3z
	 M-14.9,258.5v-28.7l17.1-22.7c9.6,4.8,29.1,12.9,50.7,12.9c23.1,0,57.4-9.4,71.6-13.5l11.2,22.5v29.6c0,41.5-33.8,75.3-75.3,75.3
	C18.8,333.8-14.9,300-14.9,258.5z M52.6,349v8l-16.8,6.7l-19.5-15.6v-10.3C27.1,344,39.5,347.9,52.6,349z M166.8,458.4h-36.3v-23.4
	c0-4.3-3.5-7.8-7.8-7.8s-7.8,3.5-7.8,7.8v23.4H5.8v-23.4c0-4.3-3.5-7.8-7.8-7.8s-7.8,3.5-7.8,7.8v23.4h-36.3v-75.3
	c0-12.9,10.5-23.4,23.4-23.4H5.7l23.8,19.1c0.1,0.1,0.2,0.1,0.2,0.1c0.2,0.2,0.4,0.3,0.7,0.4c0.1,0.1,0.3,0.2,0.4,0.2
	c0.2,0.1,0.4,0.2,0.7,0.3c0.2,0.1,0.3,0.1,0.5,0.2c0.3,0.1,0.5,0.1,0.8,0.2c0.1,0,0.3,0.1,0.4,0.1c0.4,0.1,0.8,0.1,1.2,0.1
	c0.3,0,0.5,0,0.8,0c0,0,0.1,0,0.1,0c0.2,0,0.4-0.1,0.6-0.1c0.1,0,0.2,0,0.3-0.1c0.2,0,0.3-0.1,0.5-0.1c0.1,0,0.2-0.1,0.3-0.1
	c0.1,0,0.1,0,0.2-0.1l22.7-9.1l17.5,8.7c0,0,0,0,0,0l0.1,0.1c0.1,0.1,0.2,0.1,0.3,0.1c0.2,0.1,0.3,0.1,0.5,0.2
	c0.2,0.1,0.4,0.1,0.6,0.2c0.1,0,0.2,0.1,0.3,0.1c0.3,0.1,0.6,0.1,0.8,0.2c0,0,0,0,0.1,0c0.3,0,0.6,0.1,0.9,0.1c0.4,0,0.7,0,1.1-0.1
	c0.2,0,0.3-0.1,0.5-0.1c0.2,0,0.4-0.1,0.6-0.1c0.2,0,0.3-0.1,0.5-0.2c0.2-0.1,0.4-0.1,0.6-0.2c0.1-0.1,0.3-0.1,0.4-0.2
	c0.2-0.1,0.4-0.2,0.6-0.3c0,0,0.1,0,0.1-0.1l29.2-19.5h28.8c12.9,0,23.4,10.5,23.4,23.4c0,0,0,0,0,0L166.8,458.4L166.8,458.4z"/>
<linearGradient id="SVGID_67_" gradientUnits="userSpaceOnUse" x1="197.954" y1="279.254" x2="442.012" y2="279.254">
	<stop  offset="0" style="stop-color:#E5700F"/>
	<stop  offset="1" style="stop-color:#FEBA1C"/>
</linearGradient>
<path class="st68" d="M442,206.5C442,206.5,442,206.5,442,206.5c0-67.3-54.8-122-122-122c-67.3,0-122,54.7-122,122v187v72.7
	c0,4.3,3.5,7.8,7.8,7.8h228.5c4.3,0,7.8-3.5,7.8-7.8v-72.7c0,0,0,0,0,0L442,206.5L442,206.5z M320,100.1
	c58.7,0,106.5,47.8,106.5,106.4c0,0,0,0,0,0v155.8c-6.5-4.9-14.6-7.8-23.4-7.8h-30.9c-0.1,0-0.2,0-0.3,0s-0.2,0-0.3,0h-12.7l0-14
	c30.7-14.6,51.9-45.9,51.9-82.1V217c0-4.3-3.5-7.8-7.8-7.8h-13v-13c0-4.3-3.5-7.8-7.8-7.8s-7.8,3.5-7.8,7.8v13h-15.6v-13
	c0-4.3-3.5-7.8-7.8-7.8s-7.8,3.5-7.8,7.8v13h-15.6v-13c0-4.3-3.5-7.8-7.8-7.8s-7.8,3.5-7.8,7.8v13h-15.6v-13c0-4.3-3.5-7.8-7.8-7.8
	s-7.8,3.5-7.8,7.8v13h-15.6v-13c0-4.3-3.5-7.8-7.8-7.8s-7.8,3.5-7.8,7.8v13h-13c-4.3,0-7.8,3.5-7.8,7.8v41.6
	c0,36.2,21.3,67.5,51.9,82.1v14h-12.7c-0.1,0-0.2,0-0.3,0c-0.1,0-0.2,0-0.3,0h-30.9c-8.8,0-16.9,2.9-23.4,7.8V206.5
	C213.5,147.8,261.3,100.1,320,100.1z M244.7,224.7h150.6v33.8c0,41.5-33.8,75.3-75.3,75.3s-75.3-33.8-75.3-75.3L244.7,224.7
	L244.7,224.7z M288.8,370.1c4.3,0,7.8-3.5,7.8-7.8v-16c7.5,2,15.3,3,23.4,3c8.1,0,15.9-1.1,23.4-3.1l0,16v0c0,0,0,0,0,0
	c0,0.1,0,0.3,0,0.4c0,0.1,0,0.3,0,0.4c0,0.1,0,0.2,0.1,0.4c0,0.1,0,0.3,0.1,0.4c0,0.1,0.1,0.2,0.1,0.4c0,0.1,0.1,0.3,0.1,0.4
	c0,0.1,0.1,0.3,0.1,0.4c0,0.1,0.1,0.2,0.1,0.3c0.1,0.2,0.2,0.4,0.3,0.5c0,0,0,0.1,0.1,0.1c1.1,2,3,3.4,5.3,3.9c0,0,0,0,0,0
	c0.2,0,0.4,0.1,0.6,0.1c0.1,0,0.1,0,0.2,0c0.2,0,0.3,0,0.5,0c0.1,0,0.2,0,0.3,0c0,0,0,0,0,0h12.3c-3.7,20.6-21.8,36.3-43.4,36.3
	s-39.7-15.7-43.4-36.3L288.8,370.1L288.8,370.1z M426.4,458.4h-36.3v-23.4c0-4.3-3.5-7.8-7.8-7.8s-7.8,3.5-7.8,7.8v23.4H265.5v-23.4
	c0-4.3-3.5-7.8-7.8-7.8s-7.8,3.5-7.8,7.8v23.4h-36.3v-64.9c0-12.9,10.5-23.4,23.4-23.4h23.9c3.8,29.3,28.9,51.9,59.2,51.9
	s55.4-22.7,59.2-51.9h23.9c12.9,0,23.4,10.5,23.4,23.3c0,0,0,0,0,0L426.4,458.4L426.4,458.4z"/>
<g class="st0">
	<linearGradient id="SVGID_68_" gradientUnits="userSpaceOnUse" x1="188.1266" y1="31.6868" x2="279.9148" y2="31.6868">
		<stop  offset="0" style="stop-color:#E5700F"/>
		<stop  offset="1" style="stop-color:#FEBA1C"/>
	</linearGradient>
	<path class="st69" d="M265.6-23.5c-9.2-9.2-21.5-14.3-34.6-14.3c-13.1,0-25.3,5.1-34.6,14.3c-0.5,0.5-0.9,1.1-1.1,1.8
		c-0.3,1.2-0.1,2.5,0.7,3.4l8.3,11.5l-13.9,18c-1.3,1.7-1,4.1,0.6,5.5L207,29.8l-13.7,17.9c-1.1,1.4-1.1,3.3,0,4.8l11.8,15.8
		L190,77.6c-1,0.6-1.7,1.7-1.9,2.9c-0.1,1.2,0.3,2.4,1.1,3.3l16.3,16.3c0.7,0.7,1.8,1.2,2.8,1.2c0.1,0,0.2,0,0.2,0
		c1-0.1,1.9-0.5,2.6-1.2l54.4-54.4c9.2-9.2,14.3-21.5,14.3-34.6C279.9-2,274.8-14.3,265.6-23.5L265.6-23.5z M260,40.1l-51.6,51.6
		l-10-10l14.5-9c0.9-0.6,1.6-1.5,1.8-2.6c0.2-1.1-0.1-2.2-0.7-3.1l-12.6-16.9l14.2-18.6c1.3-1.7,1-4.1-0.6-5.5L198.9,13l13.4-17.3
		c1.1-1.4,1.1-3.3,0.1-4.7l-8-11.2c7.4-6.3,16.7-9.8,26.6-9.8c11,0,21.3,4.3,29,12c7.8,7.8,12,18.1,12,29S267.7,32.4,260,40.1
		L260,40.1z M260,40.1"/>
	<g class="st9">
		<linearGradient id="SVGID_69_" gradientUnits="userSpaceOnUse" x1="90.164" y1="36.3005" x2="188.2624" y2="36.3005">
			<stop  offset="0" style="stop-color:#E5700F"/>
			<stop  offset="1" style="stop-color:#FEBA1C"/>
		</linearGradient>
		<path class="st70" d="M170.2,81.7l14.5-9c0.9-0.6,1.6-1.5,1.8-2.6c0.2-1.1,0-2.2-0.7-3.1l-12.6-16.9l14.2-18.6
			c1.3-1.7,1-4.1-0.6-5.5L170.7,13l13.4-17.3c1.1-1.4,1.1-3.3,0.1-4.7L177-19.1c-3.5-4.9-7.8-8.9-12.8-11.9
			c-19.3-11.4-43.8-8.4-59.6,7.5C95.3-14.3,90.2-2,90.2,11.1c0,13.1,5.1,25.4,14.3,34.6l63.6,63.6c0.8,0.8,1.8,1.2,2.8,1.2
			s2-0.4,2.8-1.2l9.2-9.2c0.4-0.3,0.6-0.7,0.9-1.2c0.7-1.5,0.4-3.3-0.8-4.5L170.2,81.7z M170.9,101l-60.8-60.8
			c-7.8-7.8-12-18.1-12-29s4.3-21.3,12-29c7.9-7.9,18.4-12,29-12c7.2,0,14.4,1.9,20.9,5.8c4,2.4,7.6,5.7,10.5,9.7l5.5,7.7l-13.9,18
			c-1.3,1.7-1,4.1,0.6,5.5l16.1,13.1l-13.7,17.9c-1.1,1.4-1.1,3.3,0,4.8l11.8,15.8l-15.1,9.3c-1,0.6-1.7,1.7-1.9,2.9
			c-0.1,1.2,0.3,2.4,1.1,3.3l13.5,13.5L170.9,101z M170.9,101"/>
	</g>
</g>
<linearGradient id="SVGID_70_" gradientUnits="userSpaceOnUse" x1="45.714" y1="156.1413" x2="94.99" y2="156.1413">
	<stop  offset="0" style="stop-color:#E5700F"/>
	<stop  offset="1" style="stop-color:#FEBA1C"/>
</linearGradient>
<path class="st71" d="M70.4,167.9c8.7,0,17.1-4.1,23-11.3c2.6-3.2,2.1-7.9-1.1-10.5s-7.9-2.1-10.5,1.1c-3,3.7-7,5.8-11.3,5.8
	s-8.3-2.1-11.3-5.8c-2.6-3.2-7.3-3.7-10.5-1.1c-3.2,2.6-3.7,7.3-1.1,10.5C53.2,163.8,61.6,167.9,70.4,167.9z"/>
<linearGradient id="SVGID_71_" gradientUnits="userSpaceOnUse" x1="28.576" y1="113.2964" x2="43.576" y2="113.2964">
	<stop  offset="0" style="stop-color:#E5700F"/>
	<stop  offset="1" style="stop-color:#FEBA1C"/>
</linearGradient>
<path class="st72" d="M36.1,125.1c4.1,0,7.5-3.4,7.5-7.5V109c0-4.1-3.4-7.5-7.5-7.5s-7.5,3.4-7.5,7.5v8.6
	C28.6,121.7,31.9,125.1,36.1,125.1z"/>
<linearGradient id="SVGID_72_" gradientUnits="userSpaceOnUse" x1="97.128" y1="113.2964" x2="112.128" y2="113.2964">
	<stop  offset="0" style="stop-color:#E5700F"/>
	<stop  offset="1" style="stop-color:#FEBA1C"/>
</linearGradient>
<path class="st73" d="M104.6,125.1c4.1,0,7.5-3.4,7.5-7.5V109c0-4.1-3.4-7.5-7.5-7.5s-7.5,3.4-7.5,7.5v8.6
	C97.1,121.7,100.5,125.1,104.6,125.1z"/>
<linearGradient id="SVGID_73_" gradientUnits="userSpaceOnUse" x1="294.2146" y1="198.9853" x2="343.4894" y2="198.9853">
	<stop  offset="0" style="stop-color:#E5700F"/>
	<stop  offset="1" style="stop-color:#FEBA1C"/>
</linearGradient>
<path class="st74" d="M318.9,210.8c8.7,0,17.1-4.1,23-11.3c2.6-3.2,2.1-7.9-1.1-10.5c-3.2-2.6-7.9-2.1-10.5,1.1
	c-3,3.7-7,5.8-11.3,5.8c-4.3,0-8.3-2.1-11.3-5.8c-2.6-3.2-7.3-3.7-10.5-1.1c-3.2,2.6-3.7,7.3-1.1,10.5
	C301.7,206.6,310.1,210.8,318.9,210.8z"/>
<linearGradient id="SVGID_74_" gradientUnits="userSpaceOnUse" x1="277.076" y1="156.1414" x2="292.076" y2="156.1414">
	<stop  offset="0" style="stop-color:#E5700F"/>
	<stop  offset="1" style="stop-color:#FEBA1C"/>
</linearGradient>
<path class="st75" d="M284.6,167.9c4.1,0,7.5-3.4,7.5-7.5v-8.6c0-4.1-3.4-7.5-7.5-7.5c-4.1,0-7.5,3.4-7.5,7.5v8.6
	C277.1,164.6,280.4,167.9,284.6,167.9z"/>
<linearGradient id="SVGID_75_" gradientUnits="userSpaceOnUse" x1="345.628" y1="156.1414" x2="360.628" y2="156.1414">
	<stop  offset="0" style="stop-color:#E5700F"/>
	<stop  offset="1" style="stop-color:#FEBA1C"/>
</linearGradient>
<path class="st76" d="M353.1,167.9c4.1,0,7.5-3.4,7.5-7.5v-8.6c0-4.1-3.4-7.5-7.5-7.5c-4.1,0-7.5,3.4-7.5,7.5v8.6
	C345.6,164.6,349,167.9,353.1,167.9z"/>
<linearGradient id="SVGID_76_" gradientUnits="userSpaceOnUse" x1="-65.683" y1="216.1244" x2="446.3141" y2="216.1244">
	<stop  offset="0" style="stop-color:#E5700F"/>
	<stop  offset="1" style="stop-color:#FEBA1C"/>
</linearGradient>
<path class="st77" d="M425.4,292.7l-58.8-23.5c-0.3-0.1-0.6-0.3-0.9-0.4c40.6-9.2,59.8-24.7,60.7-25.4c2-1.7,3-4.3,2.7-6.9
	c-0.1-0.6-8.5-60.1-8.5-118.9c0-56.1-45.6-101.8-101.8-101.8c-56.1,0-101.8,45.6-101.8,101.8c0,15.4-0.7,34.2-1.8,52l-16.4,8.2
	l-48.1-24c-0.1-0.1-0.3-0.1-0.4-0.2c2.3-6.7,3.8-13.7,4.3-21c10.1-3.1,17.4-12.5,17.4-23.5c0-7.4-3.3-14.1-8.6-18.7V40.5
	c0-13.8-7-26.7-18.4-34.4c-3.9-14.4-16.8-24.5-32-24.5H44.6C7.4-18.5-22.8,11.8-22.8,49v41.3c-5.2,4.5-8.6,11.2-8.6,18.7
	c0,11.1,7.3,20.4,17.4,23.5c1.9,25.2,14.9,47.3,34,61.5v20.7l-62,18.6c-14.2,4.2-23.7,17-23.7,31.8v83.7c0,4.1,3.4,7.5,7.5,7.5h1.1
	v86.8c0,4.1,3.4,7.5,7.5,7.5s7.5-3.4,7.5-7.5v-86.8h27.8v86.8c0,4.1,3.4,7.5,7.5,7.5s7.5-3.4,7.5-7.5V313.9c0-6.6-1.9-12.9-5.6-18.4
	l-12.8-19.2c-2.3-3.4-7-4.4-10.4-2.1c-3.4,2.3-4.4,7-2.1,10.4l12.8,19.2c2,3,3.1,6.5,3.1,10.1v27.6h-35.3h-1.1v-76.2
	c0-8.1,5.2-15.1,13-17.4l25.7-7.7c9,37.5,43,64.9,82.3,64.9c14.1,0,27.8-3.5,40.1-10.1c4.5,6.1,11.7,10.1,19.9,10.1h1.1v1.1
	c0,25.1,13.8,47.1,34.3,58.7V377c0,0.5-0.3,0.9-0.7,1l-28,9.3c-13.6,4.5-22.7,17.2-22.7,31.5v24.3c0,4.1,3.4,7.5,7.5,7.5
	s7.5-3.4,7.5-7.5v-24.3c0-7.8,5-14.8,12.4-17.3l8.2-2.7c10.9,16.2,29.2,26.1,48.9,26.1c19.8,0,38.1-9.9,48.9-26.1l8.2,2.7
	c7.4,2.5,12.4,9.4,12.4,17.3v24.3c0,4.1,3.4,7.5,7.5,7.5c4.1,0,7.5-3.4,7.5-7.5v-24.3c0-14.3-9.1-27-22.7-31.5l-28-9.3
	c-0.4-0.1-0.7-0.6-0.7-1v-12.2c15.3-8.7,26.9-23.2,31.8-40.5c14.2,14.8,34,23.5,55,23.5c33.2,0,62.4-21.5,72.4-52.7l28.6,11.5
	c7,2.8,11.4,9.4,11.4,16.9v35.1h-1.1h-26.8v-9.6c0-4.1-3.4-7.5-7.5-7.5c-4.1,0-7.5,3.4-7.5,7.5v94.3c0,4.1,3.4,7.5,7.5,7.5
	c4.1,0,7.5-3.4,7.5-7.5v-69.6h19.3v69.6c0,4.1,3.4,7.5,7.5,7.5c4.1,0,7.5-3.4,7.5-7.5v-69.6h1.1c2,0,3.9-0.8,5.3-2.2
	c1.4-1.4,2.2-3.3,2.2-5.3v-42.6C446.3,309.8,438.1,297.7,425.4,292.7z M232.1,117.6c0-47.8,38.9-86.8,86.8-86.8
	c47.8,0,86.8,38.9,86.8,86.8c0,50.4,6.1,101.3,8,116.5c-6.7,4.4-23.9,14.1-53,20.4v-11.9c4-2.3,7.8-4.8,11.4-7.7
	c14.8-11.9,25.2-28.6,29.4-47c1.4-6.1,2.1-12.5,2.1-18.8c0-42.4-30.7-48.5-60.3-54.4c-18.9-3.7-38.4-7.6-53.9-20
	c-2.3-1.8-5.3-2.2-7.9-0.9s-4.3,3.9-4.3,6.8c0,0.2-0.3,19.9-28.6,27c-4,1-6.5,5.1-5.5,9.1c1,4,5.1,6.5,9.1,5.5
	c23.7-5.9,33.3-19.2,37.2-29.2c16.3,9.6,34.5,13.3,50.9,16.5c31.7,6.3,48.2,10.9,48.2,39.6c0,5.2-0.6,10.4-1.7,15.5
	c-3.4,15.1-12,28.9-24.2,38.7c-12.5,10.1-27.6,15.4-43.7,15.4c-14.7,0-28.7-4.5-40.5-13c-4.3-11.9-11.3-22.7-20.5-31.6v-33.5
	c0-2.6-1.3-5-3.6-6.4c-2.2-1.4-5-1.5-7.3-0.3l-16.2,8.1C231.6,146.2,232.1,131.3,232.1,117.6z M242.8,172.6v27.1l-27.1-13.6
	L242.8,172.6z M155,172.6l27.1,13.6L155,199.7V172.6z M140,194c-8.4,8.2-14.9,17.9-19.3,28.5c0-0.7,0.1-1.4,0.1-2.1v-26.3
	c7.5-5.5,14-12.3,19.3-19.9V194z M0.7,126.1c0-4.1-3.4-7.5-7.5-7.5c-5.3,0-9.6-4.3-9.6-9.6s4.3-9.6,9.6-9.6h17.1
	c3.2,0,6.1-2.1,7.1-5.1l6.9-20.7c17.2-0.4,70.7-2.8,100.8-17.9c3.7-1.9,5.2-6.4,3.4-10.1c-1.9-3.7-6.4-5.2-10.1-3.4
	C86.1,58.5,19.6,58.7,18.9,58.7c-3.2,0-6.1,2.1-7.1,5.1L5,84.4H-6.8c-0.4,0-0.7,0-1.1,0V49c0-28.9,23.5-52.5,52.5-52.5h68.6
	c9,0,16.5,6.5,17.9,15.3c0.4,2.3,1.7,4.2,3.7,5.4c8.5,4.8,13.7,13.7,13.7,23.2v43.9c-0.4,0-0.7,0-1.1,0h-8.6c-4.1,0-7.5,3.4-7.5,7.5
	s3.4,7.5,7.5,7.5h8.6c5.3,0,9.6,4.3,9.6,9.6s-4.3,9.6-9.6,9.6c-4.1,0-7.5,3.4-7.5,7.5c0,38.4-31.2,69.6-69.6,69.6
	S0.7,164.5,0.7,126.1z M70.4,210.8c12.6,0,24.6-2.8,35.3-7.7v17.4c0,19.5-15.9,35.3-35.3,35.3c-19.5,0-35.3-15.8-35.3-35.2
	c0,0,0-0.1,0-0.1V203C45.8,208,57.7,210.8,70.4,210.8z M2.4,235.8l18.5-5.6c4.6,23.1,25,40.6,49.4,40.6c19.4,0,36.2-11,44.6-27.1
	c-0.5,3.6-0.7,7.3-0.7,11v7.1c-5.4,4.6-8.6,11.4-8.6,18.6C95,286.7,82.9,290,70.4,290C37.7,290,9.5,267.1,2.4,235.8z M228.1,392.3
	l4.8,1.6c-8.3,10.1-20.7,16.1-34,16.1c-13.3,0-25.7-6-34-16.1l4.8-1.6c6.6-2.2,11-8.3,11-15.2v-6c5.8,1.6,11.9,2.5,18.2,2.5
	s12.4-0.9,18.2-2.5v6C217.1,384,221.5,390.1,228.1,392.3z M198.9,358.6c-28.9,0-52.5-23.5-52.5-52.5v-8.6c0-4.1-3.4-7.5-7.5-7.5
	h-8.6c-5.3,0-9.6-4.3-9.6-9.6c0-3.4,1.8-6.5,4.8-8.3c0.7-0.4,1.3-0.9,1.8-1.5c18.5-0.5,78.6-4,118.1-26.6c3.6-2.1,4.8-6.6,2.8-10.2
	s-6.6-4.8-10.2-2.8c-34.6,19.8-89,23.7-108.7,24.5v-0.9c0-13.9,4.2-27.5,11.9-38.8c0.6,0.9,1.4,1.8,2.4,2.4c1.2,0.7,2.6,1.1,3.9,1.1
	c1.1,0,2.3-0.3,3.4-0.8l48.1-24l48.1,24c1.1,0.5,2.2,0.8,3.4,0.8c1.4,0,2.7-0.4,3.9-1.1c1-0.6,1.8-1.4,2.4-2.4
	c7.7,11.4,11.9,24.9,11.9,38.8v10.9c0,2.7,1.4,5.1,3.7,6.5c3,1.8,4.8,4.9,4.8,8.3c0,5.3-4.3,9.6-9.6,9.6h-8.6
	c-4.1,0-7.5,3.4-7.5,7.5v7.5c0,0.1,0,0.1,0,0.2v0.9C251.4,335,227.8,358.6,198.9,358.6z M318.9,332.9c-20.8,0-40-10.6-51.2-27.8
	c13.5-0.1,24.5-11.1,24.5-24.6c0-7.2-3.2-13.9-8.6-18.6v-7.1c0-3-0.2-6-0.5-9c11.1,5.2,23.3,7.9,35.8,7.9c9.1,0,18.2-1.5,26.8-4.4
	v11c0,10.1,6.1,19.1,15.5,22.9l16.2,6.5C369.5,315.2,345.9,332.9,318.9,332.9z"/>
<linearGradient id="SVGID_77_" gradientUnits="userSpaceOnUse" x1="174.249" y1="327.5203" x2="223.5243" y2="327.5203">
	<stop  offset="0" style="stop-color:#E5700F"/>
	<stop  offset="1" style="stop-color:#FEBA1C"/>
</linearGradient>
<path class="st78" d="M220.7,317.4c-3.2-2.6-7.9-2.1-10.5,1.1c-3,3.7-7,5.8-11.3,5.8s-8.3-2.1-11.3-5.8c-2.6-3.2-7.3-3.7-10.5-1.1
	c-3.2,2.6-3.7,7.3-1.1,10.5c5.8,7.2,14.2,11.3,23,11.3s17.1-4.1,23-11.3C224.5,324.7,224,320,220.7,317.4z"/>
<linearGradient id="SVGID_78_" gradientUnits="userSpaceOnUse" x1="165.817" y1="288.994" x2="180.817" y2="288.994">
	<stop  offset="0" style="stop-color:#E5700F"/>
	<stop  offset="1" style="stop-color:#FEBA1C"/>
</linearGradient>
<circle class="st79" cx="173.3" cy="289" r="7.5"/>
<linearGradient id="SVGID_79_" gradientUnits="userSpaceOnUse" x1="216.817" y1="288.994" x2="231.817" y2="288.994">
	<stop  offset="0" style="stop-color:#E5700F"/>
	<stop  offset="1" style="stop-color:#FEBA1C"/>
</linearGradient>
<circle class="st80" cx="224.3" cy="289" r="7.5"/>
<linearGradient id="SVGID_80_" gradientUnits="userSpaceOnUse" x1="252.6393" y1="68.9101" x2="287.9011" y2="68.9101">
	<stop  offset="0" style="stop-color:#E5700F"/>
	<stop  offset="1" style="stop-color:#FEBA1C"/>
</linearGradient>
<path class="st81" d="M269.8,54.2c-3.9-3.9-10.3-3.9-14.2,0c-3.9,3.9-3.9,10.3,0,14.2l15.2,15.2c2,2,4.5,2.9,7.1,2.9
	c2.6,0,5.1-1,7.1-2.9c3.9-3.9,3.9-10.3,0-14.2L269.8,54.2z"/>
<linearGradient id="SVGID_81_" gradientUnits="userSpaceOnUse" x1="269.8763" y1="29.5243" x2="305.0128" y2="29.5243">
	<stop  offset="0" style="stop-color:#E5700F"/>
	<stop  offset="1" style="stop-color:#FEBA1C"/>
</linearGradient>
<path class="st82" d="M272.8,29.1l15.1,15.1c2,2,4.5,2.9,7.1,2.9c2.6,0,5.1-1,7.1-2.9c3.9-3.9,3.9-10.3,0-14.2L287,14.9
	c-3.9-3.9-10.3-3.9-14.2,0C268.9,18.8,268.9,25.2,272.8,29.1z"/>
<linearGradient id="SVGID_82_" gradientUnits="userSpaceOnUse" x1="-65.6811" y1="216.001" x2="446.3166" y2="216.001">
	<stop  offset="0" style="stop-color:#E5700F"/>
	<stop  offset="1" style="stop-color:#FEBA1C"/>
</linearGradient>
<path class="st83" d="M440.2,144.7c-5.5-7.1-13.9-11.2-22.9-11.2c-3.4,0-6.7,0.6-9.9,1.7l-87.2-87.2c-3.9-3.9-10.3-3.9-14.2,0
	c-3.9,3.9-3.9,10.3,0,14.2l84.3,84.3c-5.4,3.9-11,7.7-16.8,11.4l-69.7-69.7c-3.9-3.9-10.3-3.9-14.2,0c-3.9,3.9-3.9,10.3,0,14.2
	l66.2,66.2c-8.4,4.6-16.6,8.7-24.1,11.8l-81.9-81.9c-3.9-3.9-10.3-3.9-14.2,0c-3.9,3.9-3.9,10.3,0,14.2l74.2,74.2
	c-1.1,0.1-2.1,0.2-3.1,0.2c-8,0-20.4,0-34.2,0l-28-28c-3.9-3.9-10.3-3.9-14.2,0c-3.9,3.9-3.9,10.3,0,14.2L244,187
	c-8.7,0-17.1,0-24.6,0c0-28.1,0-68.9,0-87.2c0-19.9,24.5-63.7,47.3-92.9c4.8-6.1,6.9-13.7,5.9-21.4c-0.9-7.7-4.8-14.6-10.9-19.3
	c-5.1-4-11.4-6.1-17.8-6.1c-9,0-17.4,4.1-22.9,11.2c-9.9,12.7-59.6,78.8-59.6,128.6c0,18.2,0,59.1,0,87.2c-28.1,0-69,0-87.2,0
	c-49.8,0-115.9,49.6-128.6,59.6c-6.1,4.8-10,11.6-10.9,19.3c-0.9,7.7,1.2,15.3,5.9,21.4c5.5,7.1,13.9,11.2,22.9,11.2
	c3.4,0,6.7-0.6,9.8-1.7l87.2,87.2c2,2,4.5,2.9,7.1,2.9c2.6,0,5.1-1,7.1-2.9c3.9-3.9,3.9-10.3,0-14.2l-84.3-84.3
	c5.4-3.9,11-7.7,16.8-11.4l69.7,69.7c2,2,4.5,2.9,7.1,2.9s5.1-1,7.1-2.9c3.9-3.9,3.9-10.3,0-14.2l-66.2-66.2
	c8.4-4.6,16.6-8.7,24.1-11.8l81.9,81.9c2,2,4.5,2.9,7.1,2.9c2.6,0,5.1-1,7.1-2.9c3.9-3.9,3.9-10.3,0-14.2L71,245.2
	c1.1-0.1,2.1-0.2,3.1-0.2c8,0,20.4,0,34.2,0l28,28c2,2,4.5,2.9,7.1,2.9c2.6,0,5.1-1,7.1-2.9c3.9-3.9,3.9-10.3,0-14.2L136.7,245
	c8.7,0,17.1,0,24.6,0c0,28.1,0,68.9,0,87.1c0,31.6-34.2,77.9-46.2,91.7c-10.5,12-9.3,30.4,2.7,40.9c5.3,4.6,12.1,7.2,19.1,7.2
	c8.4,0,16.3-3.6,21.8-9.9c0.6-0.7,15-17.2,29.5-40.5c20.6-33.2,31.1-63.2,31.1-89.4c0-18.2,0-59.1,0-87.2c28.1,0,69,0,87.2,0
	c49.8,0,115.9-49.6,128.6-59.6c6.1-4.8,10-11.6,11-19.3C447,158.5,444.9,150.9,440.2,144.7z M426.2,163.7c-0.3,2.4-1.5,4.5-3.4,6
	c-26.3,20.5-80.4,55.3-116.3,55.3c-20.6,0-69.9,0-97.2,0c0,0,0,0,0,0c-2.7,0-5.2,1.1-7.1,2.9c-1.9,1.9-2.9,4.4-2.9,7.1
	c0,27.3,0,76.7,0,97.2c0,22.4-9.4,48.9-28.1,78.8c-13.7,21.9-27.4,37.7-27.6,37.9c-1.7,1.9-4.2,3-6.7,3c-1.5,0-3.8-0.4-5.9-2.2
	c-3.7-3.2-4.1-8.9-0.8-12.6c0.5-0.6,51.2-59.1,51.2-104.9c0-20.5,0-69.9,0-97.2c0-5.5-4.5-10-10-10c-27.3,0-76.6,0-97.2,0
	c-32.2,0-86.9,37.2-105.3,51.5c-2,1.6-4.1,1.9-5.5,1.9c-2.8,0-5.4-1.3-7.1-3.4c-1.5-1.9-2.1-4.2-1.8-6.6c0.3-2.4,1.5-4.5,3.4-6
	c26.3-20.5,80.4-55.3,116.3-55.3c20.6,0,69.9,0,97.2,0c0,0,0,0,0,0c2.7,0,5.2-1.1,7.1-2.9c1.9-1.9,2.9-4.4,2.9-7.1
	c0-27.3,0-76.7,0-97.2c0-35.8,34.8-90,55.3-116.3c1.7-2.2,4.3-3.4,7.1-3.4c1.4,0,3.5,0.3,5.5,1.9c1.9,1.5,3.1,3.6,3.4,6
	c0.3,2.4-0.4,4.7-1.8,6.6c-14.3,18.4-51.5,73.2-51.5,105.3c0,20.5,0,69.9,0,97.2c0,5.5,4.5,10,10,10h1.5c27.6,0,75.5,0,95.7,0
	c32.2,0,86.9-37.2,105.3-51.5c2-1.6,4.1-1.9,5.5-1.9c2.8,0,5.4,1.3,7.1,3.4C425.8,159,426.5,161.3,426.2,163.7z"/>
<linearGradient id="SVGID_83_" gradientUnits="userSpaceOnUse" x1="92.7309" y1="363.0905" x2="127.9937" y2="363.0905">
	<stop  offset="0" style="stop-color:#E5700F"/>
	<stop  offset="1" style="stop-color:#FEBA1C"/>
</linearGradient>
<path class="st84" d="M110.9,377.8c2,2,4.5,2.9,7.1,2.9c2.6,0,5.1-1,7.1-2.9c3.9-3.9,3.9-10.3,0-14.2l-15.2-15.2
	c-3.9-3.9-10.3-3.9-14.2,0c-3.9,3.9-3.9,10.3,0,14.2L110.9,377.8z"/>
<linearGradient id="SVGID_84_" gradientUnits="userSpaceOnUse" x1="75.6203" y1="402.4764" x2="110.7574" y2="402.4764">
	<stop  offset="0" style="stop-color:#E5700F"/>
	<stop  offset="1" style="stop-color:#FEBA1C"/>
</linearGradient>
<path class="st85" d="M107.8,402.9l-15.1-15.1c-3.9-3.9-10.3-3.9-14.2,0c-3.9,3.9-3.9,10.3,0,14.2l15.1,15.1c2,2,4.5,2.9,7.1,2.9
	s5.1-1,7.1-2.9C111.7,413.2,111.7,406.8,107.8,402.9z"/>
<linearGradient id="SVGID_85_" gradientUnits="userSpaceOnUse" x1="205.1158" y1="279.705" x2="403.417" y2="279.705">
	<stop  offset="0" style="stop-color:#E5700F"/>
	<stop  offset="1" style="stop-color:#FEBA1C"/>
</linearGradient>
<path class="st86" d="M360.3,282.4V105.3c0-5.5-4.5-9.3-10-9.3h-38.7c-5.5,0-10.3,3.8-10.3,9.3v159.8c-6.4,0.2-12.8,1-19,2.5V157.5
	c0-5.5-4.7-9.5-10.2-9.5h-38.7c-5.5,0-10.1,3.9-10.1,9.5v149.3c-11.9,16.7-18.3,36.8-18.2,57.4c0,54.8,44.4,99.2,99.1,99.2
	c54.8,0,99.2-44.4,99.2-99.1C403.4,331.5,387.3,300.9,360.3,282.4z M321.3,116h19v155.8c-6.1-2.4-12.5-4.2-19-5.2V116z M243.3,168
	h19v106.5c-6.7,3.1-13.1,6.9-19,11.4V168z M304.3,443.3c-43.7,0-79.1-35.5-79.1-79.1c0-32,19.3-60.9,48.9-73.1
	c1.2-0.2,2.3-0.7,3.3-1.3c8.6-3.2,17.8-4.8,27-4.8c2.1,0,4.1,0.1,6.2,0.3h0.1c12,0.9,23.7,4.6,34,10.8c37.6,22.3,50,70.8,27.7,108.4
	C358.1,428.6,332.2,443.3,304.3,443.3z"/>
<linearGradient id="SVGID_86_" gradientUnits="userSpaceOnUse" x1="66.317" y1="316.505" x2="125.317" y2="316.505">
	<stop  offset="0" style="stop-color:#E5700F"/>
	<stop  offset="1" style="stop-color:#FEBA1C"/>
</linearGradient>
<path class="st87" d="M125.3,238c0-5.5-4.5-10-10-10h-39c-5.5,0-10,4.5-10,10v157c0,5.5,4.5,10,10,10h39c5.5,0,10-4.5,10-10V238z
	 M105.3,386h-19V248h19V386z"/>
<linearGradient id="SVGID_87_" gradientUnits="userSpaceOnUse" x1="145.317" y1="305.505" x2="204.317" y2="305.505">
	<stop  offset="0" style="stop-color:#E5700F"/>
	<stop  offset="1" style="stop-color:#FEBA1C"/>
</linearGradient>
<path class="st88" d="M204.3,215c0-5.5-4.5-10-10-10h-39c-5.5,0-10,4.5-10,10v181c0,5.5,4.5,10,10,10h39c5.5,0,10-4.5,10-10V215z
	 M184.3,386h-19V225h19V386z"/>
<linearGradient id="SVGID_88_" gradientUnits="userSpaceOnUse" x1="-12.683" y1="359.505" x2="46.317" y2="359.505">
	<stop  offset="0" style="stop-color:#E5700F"/>
	<stop  offset="1" style="stop-color:#FEBA1C"/>
</linearGradient>
<path class="st89" d="M46.3,324c0-5.5-4.5-10-10-10h-39c-5.5,0-10,4.5-10,10v71c0,5.5,4.5,10,10,10h39c5.5,0,10-4.5,10-10V324z
	 M26.3,386h-19v-52h19V386z"/>
<linearGradient id="SVGID_89_" gradientUnits="userSpaceOnUse" x1="-20.808" y1="118.805" x2="368.817" y2="118.805">
	<stop  offset="0" style="stop-color:#E5700F"/>
	<stop  offset="1" style="stop-color:#FEBA1C"/>
</linearGradient>
<path class="st90" d="M-3.7,265.6l185-185l37.9,38.2c1.8,2,4.4,3.1,7.1,3.2l0,0c2.7-0.1,5.2-1.3,7.1-3.2L348.8,3.3l-0.1,44.5
	c0,5.6,4.4,10.1,10,10.3l0,0c5.6-0.1,10-4.7,10-10.3l0.1-68.6c0-5.5-4.5-10.1-10-10.1l0,0l-68.4,0.1c-5.5-0.1-10,4.4-10.1,9.9
	s4.4,10,9.9,10.1c0.1,0,0.1,0,0.2,0l0,0l44.3-0.1L226.2,97.2l-37.9-37.6c-1.9-1.8-4.5-2.7-7.1-2.6l0,0c-2.6-0.1-5.2,0.8-7.1,2.6
	l-192,192c-3.9,3.9-3.9,10.2,0,14c1.9,1.9,4.4,2.9,7.1,2.9C-8.1,268.5-5.6,267.5-3.7,265.6z"/>
<linearGradient id="SVGID_90_" gradientUnits="userSpaceOnUse" x1="261.6524" y1="365.155" x2="350.317" y2="365.155">
	<stop  offset="0" style="stop-color:#E5700F"/>
	<stop  offset="1" style="stop-color:#FEBA1C"/>
</linearGradient>
<path class="st91" d="M318.7,375.3c17.7,0,32.1-14.6,31.6-32.4c-0.4-17.3-15-30.9-32.2-30.9h-32.7c-1.9,0-3.4,1.5-3.4,3.4v4.5v39.6
	h-16.9c-1.9,0-3.4,1.5-3.4,3.4v9c0,1.9,1.5,3.4,3.4,3.4h16.9v9.2h-16.9c-1.9,0-3.4,1.5-3.4,3.4v9c0,1.9,1.5,3.4,3.4,3.4h16.9v14.7
	c0,1.9,1.5,3.5,3.5,3.5h8.9c1.9,0,3.5-1.5,3.5-3.5v-14.7h27.5c1.9,0,3.4-1.5,3.4-3.4v-9c0-1.9-1.5-3.4-3.4-3.4h-27.5v-9.2
	L318.7,375.3L318.7,375.3z M334.5,343.6c0,8.7-7.1,15.9-15.9,15.9h-20.9v-31.7h20.9C327.4,327.7,334.5,334.9,334.5,343.6z"/>
<linearGradient id="SVGID_91_" gradientUnits="userSpaceOnUse" x1="-50.8" y1="328.8469" x2="426.6268" y2="328.8469">
	<stop  offset="0" style="stop-color:#E5700F"/>
	<stop  offset="1" style="stop-color:#FEBA1C"/>
</linearGradient>
<path class="st92" d="M418.5,251c-0.2-0.3-0.4-0.6-0.7-0.9c-6.2-7.7-15.3-12.5-25.2-13.5c-9.7-1-19.4,1.9-27,8
	c-19.8,16.1-49.9,40.4-67.9,54.9C284.4,310.3,268,316.4,251,317l-51.1,1.7c-2.1,0.1-4-1-5-2.7l-5.7-9.7c-0.9-1.6-1.1-3.5-0.3-5.2
	c0.7-1.7,2.3-2.9,4.1-3.2l52.8-10c18.7-3.4,31.6-21,29.5-40.1c-2.1-18.3-17.6-32.2-36-32.1c-0.5,0-1.1,0-1.8,0l-70.6-2.9
	c-28.3-1-52.4,4.4-80.6,18l-37,18c-5.1-10.8-16-17.8-27.9-17.7h-40.9c-17,0-31.3,13.7-31.3,30.7v152.1c0,17,14.3,31.1,31.3,31.1
	h40.9c17,0,30.8-14.1,30.8-31.1v-10.3l39.3-7.2c12.7-1.9,20.7-2.6,34.2-2.1l107.4,5c2.2,0.1,4.4,0.1,6.6,0.1
	c36.4,0,71.6-12.7,99.6-36l74.4-61.7l0.2-0.1c14.9-12.8,17-35.1,4.8-50.5L418.5,251z M32,414.1c0,6-4.9,10.9-10.9,10.9h-41.3
	c-6,0-10.9-4.9-10.9-10.9V261.9c0-6,4.9-10.9,10.9-10.9h41.3c6,0,10.9,4.9,10.9,10.9V414.1z M400.7,286.5l-74.3,61.6
	c-25.9,21.5-58.9,32.7-92.6,31.2l-107.4-5c-15.1-0.6-24.3,0.2-38.1,2.3c-0.1,0-0.3,0-0.4,0.1L52,383.3V269.5l42.8-20.7
	c25.1-12.1,46.4-16.9,71.1-16.1l71.1,2.9c0.4,0,0.9,0,1.3,0c0.1,0,0.5,0,0.8,0c9.1,0.1,16.4,7.5,16.3,16.6
	c-0.1,7.8-5.7,14.5-13.4,16l-52.8,10c-13.9,2.6-23.1,16-20.5,29.9c0.5,2.9,1.6,5.7,3.1,8.3l5.7,9.8c4.8,8.1,13.6,12.9,23,12.5
	l51.1-1.7c21.4-0.7,42-8.4,58.6-21.8c18-14.5,48.2-38.9,68-55c3.5-2.8,7.9-4.1,12.3-3.6c4.4,0.4,8.4,2.5,11.3,5.8l0,0
	c0.2,0.3,0.4,0.6,0.7,0.9C408.5,270.3,407.6,280.6,400.7,286.5z"/>
<linearGradient id="SVGID_92_" gradientUnits="userSpaceOnUse" x1="44.5" y1="94.0113" x2="394.1693" y2="94.0113">
	<stop  offset="0" style="stop-color:#E5700F"/>
	<stop  offset="1" style="stop-color:#FEBA1C"/>
</linearGradient>
<path class="st93" d="M54.5,66H122v25H54.5c-5.5,0-10,4.5-10,10s4.5,10,10,10H122v26H54.5c-5.5,0-10,4.5-10,10s4.5,10,10,10H122v24
	H54.5c-5.5,0-10,4.5-10,10s4.5,10,10,10h272.8c1.9,0.1,3.8-0.4,5.5-1.4l56.8-37c4.6-3,5.9-9.1,2.9-13.7l0,0c-3-4.7-9.2-6.1-13.8-3.1
	L324.3,181H255v-24h72.3c2.1-0.1,4.2-0.8,5.9-2.1l56.8-41.1c4.5-3.2,5.5-9.4,2.3-13.9s-9.4-5.5-13.9-2.3c-0.1,0-0.1,0.1-0.2,0.1
	L324,137h-69v-26h72.3c2.2,0.1,4.4-0.6,6.2-2l56.8-44.8c4.4-3.4,5.1-9.8,1.7-14.1c-3.4-4.3-9.7-5.1-14.1-1.7L323.8,91H255V66h72.3
	c2.5,0.1,4.9-0.8,6.8-2.4l56.8-52.5c4-3.7,4.3-9.9,0.6-13.9c-1.9-2.1-4.6-3.3-7.4-3.2h-68.4l-0.1-0.4c-1.5-3.9-5.2-6.5-9.3-6.6h-113
	c-2.6,0.1-5,1.1-6.8,2.9L182.3-6h-71c-2.5,0-4.9,0.9-6.8,2.6L47.7,49.2c-3,2.7-4,7-2.5,10.7C46.7,63.7,50.4,66.1,54.5,66z M358.6,14
	l-35.2,32h-55.2l35-32H358.6z M197.3,7h83.6l-42.6,39.7c-2.1,1.9-3.3,4.6-3.3,7.5V181h-93V58.5L197.3,7z M115.3,14h45.6l-35,32H80
	L115.3,14z"/>
<g class="st0">
	<rect x="4.1" y="68.4" class="st94" width="367.9" height="301"/>
	<g class="st9">
		<linearGradient id="SVGID_93_" gradientUnits="userSpaceOnUse" x1="185.9945" y1="209.1435" x2="371.58" y2="209.1435">
			<stop  offset="0" style="stop-color:#E5700F"/>
			<stop  offset="1" style="stop-color:#FEBA1C"/>
		</linearGradient>
		<path class="st95" d="M342.6,97.5c-18.7-18.7-43.6-29-70-29c-26.4,0-51.3,10.3-69.9,28.9c-1,1-1.8,2.2-2.1,3.7
			c-0.7,2.4-0.1,5,1.4,6.9l16.7,23.3l-28.2,36.4c-2.7,3.4-2.1,8.4,1.3,11.1l32.5,26.5l-27.6,36.2c-2.2,2.8-2.2,6.8-0.1,9.6l23.8,32
			L189.8,302c-2.1,1.3-3.5,3.4-3.7,5.9c-0.3,2.4,0.6,4.9,2.3,6.6l33,33c1.5,1.5,3.5,2.3,5.7,2.3c0.2,0,0.3,0,0.5,0
			c1.9-0.1,3.8-1,5.2-2.3l110-110c18.7-18.7,29-43.6,29-70C371.6,141,361.3,116.2,342.6,97.5z M331.3,226.2L227,330.5l-20.2-20.2
			l29.3-18.1c1.9-1.2,3.2-3.1,3.7-5.3c0.4-2.2-0.1-4.5-1.4-6.3l-25.4-34.2l28.7-37.6c2.6-3.4,2-8.3-1.3-11.1l-32.5-26.4l27.1-35
			c2.2-2.8,2.2-6.7,0.2-9.6l-16.2-22.6c15-12.8,33.8-19.7,53.7-19.7c22.2,0,43,8.6,58.7,24.3c15.7,15.7,24.3,36.5,24.3,58.7
			C355.6,189.7,346.9,210.5,331.3,226.2z"/>
		<linearGradient id="SVGID_94_" gradientUnits="userSpaceOnUse" x1="289.1951" y1="159.956" x2="347.788" y2="159.956">
			<stop  offset="0" style="stop-color:#E5700F"/>
			<stop  offset="1" style="stop-color:#FEBA1C"/>
		</linearGradient>
		<path class="st96" d="M325.8,114.3c-7.4-7.4-16-13.1-25.6-16.8c-4.1-1.6-8.8,0.4-10.4,4.5c-1.6,4.1,0.4,8.8,4.5,10.4
			c7.6,3,14.3,7.4,20.2,13.3c11.2,11.2,17.3,26,17.3,41.9c0,15.8-6.2,30.7-17.3,41.9c-3.1,3.1-3.1,8.2,0,11.3
			c1.6,1.6,3.6,2.3,5.7,2.3s4.1-0.8,5.7-2.3c14.2-14.2,22-33.1,22-53.2S340,128.5,325.8,114.3z"/>
		<linearGradient id="SVGID_95_" gradientUnits="userSpaceOnUse" x1="248.2403" y1="101.2845" x2="280.592" y2="101.2845">
			<stop  offset="0" style="stop-color:#E5700F"/>
			<stop  offset="1" style="stop-color:#FEBA1C"/>
		</linearGradient>
		<path class="st97" d="M272.6,92.3c-6.2,0-12.3,0.8-18.3,2.2c-4.3,1.1-6.9,5.4-5.8,9.7c0.9,3.6,4.2,6.1,7.8,6.1
			c0.6,0,1.3-0.1,1.9-0.2c4.7-1.2,9.5-1.8,14.4-1.8c4.4,0,8-3.6,8-8C280.6,95.9,277,92.3,272.6,92.3z"/>
		<linearGradient id="SVGID_96_" gradientUnits="userSpaceOnUse" x1="4.1" y1="218.4718" x2="202.4441" y2="218.4718">
			<stop  offset="0" style="stop-color:#E5700F"/>
			<stop  offset="1" style="stop-color:#FEBA1C"/>
		</linearGradient>
		<path class="st98" d="M166,310.3l29.3-18.1c1.9-1.2,3.2-3.1,3.7-5.3c0.4-2.2-0.1-4.5-1.4-6.3l-25.4-34.2l28.7-37.6
			c2.6-3.4,2-8.3-1.3-11.1L167,171.4l27-35c2.2-2.8,2.2-6.7,0.2-9.6l-14.6-20.4c-7.1-10-15.9-18-26-24
			C114.7,59.2,65.2,65.4,33.1,97.5c-18.7,18.7-29,43.6-29,70c0,26.4,10.3,51.3,29,70l128.7,128.7c1.6,1.6,3.6,2.3,5.7,2.3
			s4.1-0.8,5.7-2.3l18.6-18.6c0.7-0.7,1.3-1.5,1.7-2.4c1.4-3,0.8-6.6-1.6-9L166,310.3z M167.4,349.2l-123-123
			c-15.7-15.7-24.3-36.5-24.3-58.7c0-22.2,8.6-43,24.3-58.7c16-16,37.3-24.4,58.7-24.4c14.5,0,29.2,3.8,42.3,11.7
			c8.2,4.9,15.3,11.5,21.1,19.6l11.2,15.6l-28.2,36.4c-2.7,3.4-2.1,8.4,1.3,11.1l32.5,26.5l-27.6,36.2c-2.2,2.8-2.2,6.8-0.1,9.6
			l23.8,32L149,302c-2.1,1.3-3.5,3.4-3.7,5.9c-0.3,2.4,0.6,4.9,2.3,6.6l27.3,27.3L167.4,349.2z"/>
		<linearGradient id="SVGID_97_" gradientUnits="userSpaceOnUse" x1="110.0331" y1="116.456" x2="166.0915" y2="116.456">
			<stop  offset="0" style="stop-color:#E5700F"/>
			<stop  offset="1" style="stop-color:#FEBA1C"/>
		</linearGradient>
		<path class="st99" d="M151.6,135.6c1.6,2.2,4,3.3,6.5,3.3c1.6,0,3.2-0.5,4.7-1.5c3.6-2.6,4.4-7.6,1.8-11.2l-4.3-6
			c-5.2-7.3-11.5-13.1-18.8-17.5c-6.7-4-14-6.9-21.7-8.6c-4.3-1-8.6,1.7-9.6,6c-1,4.3,1.7,8.6,6,9.6c6,1.4,11.8,3.7,17,6.8
			c5.3,3.2,10,7.6,14,13L151.6,135.6z"/>
		<linearGradient id="SVGID_98_" gradientUnits="userSpaceOnUse" x1="69.3562" y1="103.0802" x2="102.7935" y2="103.0802">
			<stop  offset="0" style="stop-color:#E5700F"/>
			<stop  offset="1" style="stop-color:#FEBA1C"/>
		</linearGradient>
		<path class="st100" d="M93.8,92.9c-6.7,0.8-13.3,2.5-19.5,5.1c-4.1,1.7-6,6.4-4.3,10.5c1.3,3.1,4.3,4.9,7.4,4.9
			c1,0,2.1-0.2,3.1-0.6c4.9-2,10.1-3.4,15.3-4c4.4-0.5,7.5-4.5,7-8.9C102.2,95.4,98.2,92.3,93.8,92.9z"/>
	</g>
</g>
<g class="st0">
	<linearGradient id="SVGID_99_" gradientUnits="userSpaceOnUse" x1="13.211" y1="182" x2="269.91" y2="182">
		<stop  offset="0" style="stop-color:#E5700F"/>
		<stop  offset="1" style="stop-color:#FEBA1C"/>
	</linearGradient>
	<path class="st101" d="M263.9,240.5c-3.3,0-6,2.7-6,6V356H81.2v-50c0-3.3-2.7-6-6-6h-50V8h232.7v109.5c0,3.3,2.7,6,6,6
		c3.3,0,6-2.7,6-6V2c0-3.3-2.7-6-6-6H19.2c-3.3,0-6,2.7-6,6v304c0,0.2,0,0.4,0,0.6c0,0.1,0,0.3,0.1,0.4c0,0.1,0,0.1,0,0.2
		c0,0.2,0.1,0.3,0.1,0.5c0,0,0,0.1,0,0.1c0,0.2,0.1,0.3,0.2,0.5c0,0,0,0,0,0.1c0.1,0.2,0.1,0.3,0.2,0.4c0,0,0,0.1,0,0.1
		c0.1,0.1,0.2,0.3,0.2,0.4c0,0,0,0.1,0.1,0.1c0.1,0.1,0.2,0.2,0.3,0.4c0,0,0.1,0.1,0.1,0.1c0.1,0.2,0.3,0.3,0.4,0.4l56,56
		c0.1,0.1,0.3,0.3,0.4,0.4c0,0,0.1,0.1,0.1,0.1c0.1,0.1,0.2,0.2,0.4,0.3c0,0,0.1,0,0.1,0.1c0.1,0.1,0.3,0.2,0.4,0.2c0,0,0.1,0,0.1,0
		c0.1,0.1,0.3,0.1,0.4,0.2c0,0,0,0,0.1,0c0.2,0.1,0.3,0.1,0.5,0.2c0,0,0,0,0.1,0c0.2,0,0.3,0.1,0.5,0.1c0.1,0,0.1,0,0.2,0
		c0.1,0,0.3,0.1,0.4,0.1c0.2,0,0.4,0,0.6,0h188.7c3.3,0,6-2.7,6-6V246.5C269.9,243.2,267.2,240.5,263.9,240.5L263.9,240.5z
		 M69.2,347.5L33.7,312h35.5V347.5z M69.2,347.5"/>
	<linearGradient id="SVGID_100_" gradientUnits="userSpaceOnUse" x1="166.387" y1="314" x2="229.91" y2="314">
		<stop  offset="0" style="stop-color:#E5700F"/>
		<stop  offset="1" style="stop-color:#FEBA1C"/>
	</linearGradient>
	<path class="st102" d="M223.9,320c3.3,0,6-2.7,6-6s-2.7-6-6-6h-51.5c-3.3,0-6,2.7-6,6s2.7,6,6,6H223.9z M223.9,320"/>
	<linearGradient id="SVGID_101_" gradientUnits="userSpaceOnUse" x1="53.211" y1="58" x2="229.91" y2="58">
		<stop  offset="0" style="stop-color:#E5700F"/>
		<stop  offset="1" style="stop-color:#FEBA1C"/>
	</linearGradient>
	<path class="st103" d="M223.9,52H59.2c-3.3,0-6,2.7-6,6s2.7,6,6,6h164.7c3.3,0,6-2.7,6-6S227.2,52,223.9,52L223.9,52z M223.9,52"/>
	<linearGradient id="SVGID_102_" gradientUnits="userSpaceOnUse" x1="53.211" y1="90" x2="229.91" y2="90">
		<stop  offset="0" style="stop-color:#E5700F"/>
		<stop  offset="1" style="stop-color:#FEBA1C"/>
	</linearGradient>
	<path class="st104" d="M223.9,84H59.2c-3.3,0-6,2.7-6,6s2.7,6,6,6h164.7c3.3,0,6-2.7,6-6S227.2,84,223.9,84L223.9,84z M223.9,84"/>
	<linearGradient id="SVGID_103_" gradientUnits="userSpaceOnUse" x1="53.211" y1="122" x2="229.91" y2="122">
		<stop  offset="0" style="stop-color:#E5700F"/>
		<stop  offset="1" style="stop-color:#FEBA1C"/>
	</linearGradient>
	<path class="st105" d="M223.9,116H59.2c-3.3,0-6,2.7-6,6c0,3.3,2.7,6,6,6h164.7c3.3,0,6-2.7,6-6C229.9,118.7,227.2,116,223.9,116
		L223.9,116z M223.9,116"/>
	<linearGradient id="SVGID_104_" gradientUnits="userSpaceOnUse" x1="53.211" y1="154" x2="229.91" y2="154">
		<stop  offset="0" style="stop-color:#E5700F"/>
		<stop  offset="1" style="stop-color:#FEBA1C"/>
	</linearGradient>
	<path class="st106" d="M229.9,154c0-3.3-2.7-6-6-6H59.2c-3.3,0-6,2.7-6,6s2.7,6,6,6h164.7C227.2,160,229.9,157.3,229.9,154
		L229.9,154z M229.9,154"/>
	<linearGradient id="SVGID_105_" gradientUnits="userSpaceOnUse" x1="53.211" y1="186" x2="201.422" y2="186">
		<stop  offset="0" style="stop-color:#E5700F"/>
		<stop  offset="1" style="stop-color:#FEBA1C"/>
	</linearGradient>
	<path class="st107" d="M201.4,186c0-3.3-2.7-6-6-6H59.2c-3.3,0-6,2.7-6,6s2.7,6,6,6h136.2C198.7,192,201.4,189.3,201.4,186
		L201.4,186z M201.4,186"/>
	<g class="st9">
		<defs>
			<rect id="SVGID_106_" x="13.2" y="-4" width="372" height="372"/>
		</defs>
		<clipPath id="SVGID_107_">
			<use xlink:href="#SVGID_106_"  style="overflow:visible;"/>
		</clipPath>
		<linearGradient id="SVGID_108_" gradientUnits="userSpaceOnUse" x1="53.211" y1="218" x2="147.559" y2="218">
			<stop  offset="0" style="stop-color:#E5700F"/>
			<stop  offset="1" style="stop-color:#FEBA1C"/>
		</linearGradient>
		<path class="st108" d="M59.2,212c-3.3,0-6,2.7-6,6c0,3.3,2.7,6,6,6h82.3c3.3,0,6-2.7,6-6c0-3.3-2.7-6-6-6H59.2z M59.2,212"/>
		<linearGradient id="SVGID_109_" gradientUnits="userSpaceOnUse" x1="142.609" y1="182" x2="385.2085" y2="182">
			<stop  offset="0" style="stop-color:#E5700F"/>
			<stop  offset="1" style="stop-color:#FEBA1C"/>
		</linearGradient>
		<path class="st109" d="M377.1,68.8c-5.2-5.2-12.1-8.1-19.5-8.1s-14.3,2.9-19.5,8.1l-35.6,35.6h0L181.2,225.7
			c-0.2,0.2-0.3,0.3-0.5,0.5c0,0-0.1,0.1-0.1,0.1c-0.1,0.1-0.2,0.3-0.3,0.4c0,0,0,0.1-0.1,0.1l-35.3,60c-1.5,1.8-2.3,4-2.3,6.4
			c0,2.7,1,5.2,2.9,7.1c1.9,1.9,4.4,2.9,7.1,2.9c2.4,0,4.6-0.8,6.4-2.3l60-35.3c0,0,0.1,0,0.1-0.1c0.2-0.1,0.3-0.2,0.4-0.3
			c0,0,0.1-0.1,0.1-0.1c0.2-0.1,0.4-0.3,0.5-0.5l121.3-121.3c0,0,0,0,0,0l0,0l35.6-35.6C387.9,97,387.9,79.5,377.1,68.8L377.1,68.8z
			 M337.3,130.7l-22.1-22.1l8.5-8.5l22.1,22.1L337.3,130.7z M216,252l-22.1-22.1l112.8-112.8l22.1,22.1L216,252z M181.3,273.9
			l-9.3-9.3l14.7-24.9l19.6,19.6L181.3,273.9z M158.6,287.3l7.1-12l4.9,4.9L158.6,287.3z M368.7,99.3l-14.4,14.4l-22.1-22.1
			l14.4-14.4c2.9-2.9,6.9-4.6,11-4.6c4.2,0,8.1,1.6,11,4.6c2.9,2.9,4.6,6.9,4.6,11C373.2,92.5,371.6,96.4,368.7,99.3L368.7,99.3z
			 M368.7,99.3"/>
	</g>
</g>
<g>
	<linearGradient id="SVGID_110_" gradientUnits="userSpaceOnUse" x1="169.8969" y1="261.0861" x2="265.4669" y2="261.0861">
		<stop  offset="0" style="stop-color:#E5700F"/>
		<stop  offset="1" style="stop-color:#FEBA1C"/>
	</linearGradient>
	<path class="st110" d="M210.9,208.9c-24.1,0-41,17.2-41,41.8v7c0,33.8,18.8,55.7,47.8,55.7c29,0,47.8-21.9,47.8-55.7v-7
		c0-24.6-16.8-41.8-41-41.8H210.9z M251.8,250.6v7c0,12.6-3.3,41.8-34.1,41.8c-30.8,0-34.1-29.2-34.1-41.8v-7
		c0-16.9,10.7-27.8,27.3-27.8h13.7C241.1,222.8,251.8,233.7,251.8,250.6L251.8,250.6z M251.8,250.6"/>
	<linearGradient id="SVGID_111_" gradientUnits="userSpaceOnUse" x1="197.3739" y1="257.6027" x2="211.0609" y2="257.6027">
		<stop  offset="0" style="stop-color:#E5700F"/>
		<stop  offset="1" style="stop-color:#FEBA1C"/>
	</linearGradient>
	<path class="st111" d="M204.2,250.6L204.2,250.6c-3.8,0-6.9,3.1-6.9,7c0,3.8,3.1,7,6.9,7c3.8,0,6.8-3.1,6.8-7
		C211.1,253.8,208,250.6,204.2,250.6L204.2,250.6z M204.2,250.6"/>
	<linearGradient id="SVGID_112_" gradientUnits="userSpaceOnUse" x1="231.3375" y1="87.0491" x2="367.8698" y2="87.0491">
		<stop  offset="0" style="stop-color:#E5700F"/>
		<stop  offset="1" style="stop-color:#FEBA1C"/>
	</linearGradient>
	<path class="st112" d="M237.6,160.1c3.8,0.3,7-2.6,7.3-6.4l6.8-90.4c1.5-16.6,23.4-35.5,41-35.5h13.7c18,0,39.8,18.8,41,35.3
		l6.8,90.5c0.3,3.6,3.3,6.4,6.8,6.4c0.2,0,0.4,0,0.5,0c3.8-0.3,6.6-3.6,6.3-7.5L361,62.2C359.2,36.7,329,14,306.4,14h-13.7
		c-24.8,0-52.4,24.3-54.6,48.2l-6.8,90.5C231.1,156.5,233.9,159.8,237.6,160.1L237.6,160.1z M237.6,160.1"/>
	<linearGradient id="SVGID_113_" gradientUnits="userSpaceOnUse" x1="258.6429" y1="111.4153" x2="340.561" y2="111.4153">
		<stop  offset="0" style="stop-color:#E5700F"/>
		<stop  offset="1" style="stop-color:#FEBA1C"/>
	</linearGradient>
	<path class="st113" d="M299.2,60.5c-0.9-2.8-3.5-4.8-6.5-4.8c-2.9,0-5.6,1.9-6.5,4.8c-5.1,15.7-20.2,16.1-20.8,16.1
		c-3.8,0-6.8,3.1-6.8,7v27.8c0,23.3,15.6,55.7,41,55.7c25.4,0,41-32.4,41-55.7V83.6c0-3.8-3.1-7-6.8-7
		C333.4,76.6,304.4,76.2,299.2,60.5L299.2,60.5z M326.9,111.4c0,18.9-12.2,41.8-27.3,41.8c-15.1,0-27.3-22.8-27.3-41.8V89.7
		c6.7-1.5,14.9-5.4,21-13.3c9.6,9.8,24.8,12.8,33.6,13.8V111.4z M326.9,111.4"/>
	<linearGradient id="SVGID_114_" gradientUnits="userSpaceOnUse" x1="128.9359" y1="62.685" x2="149.4169" y2="62.685">
		<stop  offset="0" style="stop-color:#E5700F"/>
		<stop  offset="1" style="stop-color:#FEBA1C"/>
	</linearGradient>
	<path class="st114" d="M135.8,69.6h6.8c3.8,0,6.8-3.1,6.8-7c0-3.8-3.1-7-6.8-7h-6.8c-3.8,0-6.8,3.1-6.8,7
		C128.9,66.5,132,69.6,135.8,69.6L135.8,69.6z M135.8,69.6"/>
	<g>
		<defs>
			<rect id="SVGID_115_" x="-0.8" y="0.1" width="409.9" height="362.9"/>
		</defs>
		<clipPath id="SVGID_116_">
			<use xlink:href="#SVGID_115_"  style="overflow:visible;"/>
		</clipPath>
		<linearGradient id="SVGID_117_" gradientUnits="userSpaceOnUse" x1="224.6779" y1="257.6068" x2="238.366" y2="257.6068">
			<stop  offset="0" style="stop-color:#E5700F"/>
			<stop  offset="1" style="stop-color:#FEBA1C"/>
		</linearGradient>
		<path class="st115" d="M231.5,264.6c3.8,0,6.8-3.1,6.8-7c0-3.8-3.1-7-6.8-7h-0.1c-3.8,0-6.8,3.1-6.8,7
			C224.7,261.4,227.8,264.6,231.5,264.6L231.5,264.6z M231.5,264.6"/>
		<linearGradient id="SVGID_118_" gradientUnits="userSpaceOnUse" x1="60.6699" y1="69.6462" x2="183.549" y2="69.6462">
			<stop  offset="0" style="stop-color:#E5700F"/>
			<stop  offset="1" style="stop-color:#FEBA1C"/>
		</linearGradient>
		<path class="st116" d="M67.8,81.9c1.3,13.4,7,25.2,7.3,25.7c6.2,12.6,15.5,31.7,47.1,31.7c31.5,0,40.9-19.1,47.1-31.7
			c0.3-0.6,6-12.3,7.3-25.7c4.2-2.4,7.1-7,7.1-12.2V55.7c0-5.1-2.7-9.6-6.8-12.1v-1.9c0-23-18.4-41.8-41-41.8h-27.3
			c-22.6,0-41,18.7-41,41.8v1.9c-4.1,2.4-6.8,6.9-6.8,12.1v13.9C60.7,74.9,63.5,79.5,67.8,81.9L67.8,81.9z M74.3,55.7
			c3.8,0,6.8-3.1,6.8-7v-7c0-15.4,12.2-27.8,27.3-27.8h27.3c15.1,0,27.3,12.5,27.3,27.8v7c0,3.8,3.1,7,6.8,7v13.9
			c-3.8,0-6.8,3.1-6.8,7c0,12-6,24.6-6.1,24.7c-7.1,14.5-13.4,24-34.9,24c-21.5,0-27.8-9.5-34.9-24c-0.1-0.1-6.1-12.7-6.1-24.7
			c0-3.8-3.1-7-6.8-7V55.7z M74.3,55.7"/>
	</g>
	<linearGradient id="SVGID_119_" gradientUnits="userSpaceOnUse" x1="149.4169" y1="341.1418" x2="285.9479" y2="341.1418">
		<stop  offset="0" style="stop-color:#E5700F"/>
		<stop  offset="1" style="stop-color:#FEBA1C"/>
	</linearGradient>
	<path class="st117" d="M238.2,320.3c-1.4,0-2.7,0.4-3.8,1.2l-16.7,11.3L201,321.4c-1.1-0.8-2.4-1.2-3.8-1.2
		c-39.5,0-47.8,18.9-47.8,34.8c0,3.8,3.1,7,6.8,7c3.8,0,6.8-3.1,6.8-7c0-5.6,0-20.3,32.1-20.9l18.7,12.7c2.3,1.6,5.3,1.6,7.6,0
		l18.7-12.7c32.1,0.6,32.1,15.3,32.1,20.9c0,3.8,3.1,7,6.8,7c3.8,0,6.8-3.1,6.8-7C285.9,339.2,277.7,320.3,238.2,320.3L238.2,320.3z
		 M238.2,320.3"/>
	<linearGradient id="SVGID_120_" gradientUnits="userSpaceOnUse" x1="354.2169" y1="299.3743" x2="368.291" y2="299.3743">
		<stop  offset="0" style="stop-color:#E5700F"/>
		<stop  offset="1" style="stop-color:#FEBA1C"/>
	</linearGradient>
	<path class="st118" d="M361.5,236.7L361.5,236.7c-3.8,0-6.8,3.1-6.9,6.9L354.2,355c0,3.8,3,7,6.8,7h0c3.8,0,6.8-3.1,6.8-6.9
		l0.4-111.4C368.3,239.9,365.3,236.7,361.5,236.7L361.5,236.7z M361.5,236.7"/>
	<linearGradient id="SVGID_121_" gradientUnits="userSpaceOnUse" x1="94.8029" y1="62.685" x2="115.284" y2="62.685">
		<stop  offset="0" style="stop-color:#E5700F"/>
		<stop  offset="1" style="stop-color:#FEBA1C"/>
	</linearGradient>
	<path class="st119" d="M101.6,69.6h6.8c3.8,0,6.8-3.1,6.8-7c0-3.8-3.1-7-6.8-7h-6.8c-3.8,0-6.8,3.1-6.8,7
		C94.8,66.5,97.9,69.6,101.6,69.6L101.6,69.6z M101.6,69.6"/>
	<linearGradient id="SVGID_122_" gradientUnits="userSpaceOnUse" x1="142.5844" y1="177.5923" x2="241.5197" y2="177.5923">
		<stop  offset="0" style="stop-color:#E5700F"/>
		<stop  offset="1" style="stop-color:#FEBA1C"/>
	</linearGradient>
	<path class="st120" d="M156.1,196.3l5.7-29.1c34.5,0.8,59.3,9.5,66.9,23.8c1.8,3.4,5.9,4.6,9.3,2.8c3.3-1.8,4.5-6.1,2.7-9.4
		c-10.7-20.1-40.5-31.1-84-31.1c-3.4-0.1-6.5,2.2-7.1,5.6l-6.8,34.7c-0.7,3.8,1.7,7.4,5.4,8.2c0.5,0.1,0.9,0.1,1.4,0.1
		C152.6,201.9,155.5,199.6,156.1,196.3L156.1,196.3z M156.1,196.3"/>
	<linearGradient id="SVGID_123_" gradientUnits="userSpaceOnUse" x1="258.6429" y1="257.6465" x2="408.8309" y2="257.6465">
		<stop  offset="0" style="stop-color:#E5700F"/>
		<stop  offset="1" style="stop-color:#FEBA1C"/>
	</linearGradient>
	<path class="st121" d="M392.1,188c-13.4-13.6-33.5-20.8-58.1-20.8c-3.9,0.1-7,3-7,6.9c0,1.4-0.5,34.7-27.3,34.7
		c-26.8,0-27.3-33.3-27.3-34.7c0-3.8-3.1-6.9-6.8-6.9c-3.8,0-6.8,3.1-6.8,7c0,15.6,7.4,43.9,34.1,48.1v35.4c0,3.8,3.1,7,6.8,7
		c3.8,0,6.8-3.1,6.8-7v-35.4c23-3.6,31.7-25.1,33.7-40.9c18.1,1,32.7,6.7,42.3,16.6c8.2,8.4,12.7,19.7,12.7,31.9v111.4
		c0,3.8,3.1,7,6.8,7c3.8,0,6.8-3.1,6.8-7V229.8C408.8,213.8,402.9,199,392.1,188L392.1,188z M392.1,188"/>
	<linearGradient id="SVGID_124_" gradientUnits="userSpaceOnUse" x1="108.4559" y1="194.9524" x2="135.7599" y2="194.9524">
		<stop  offset="0" style="stop-color:#E5700F"/>
		<stop  offset="1" style="stop-color:#FEBA1C"/>
	</linearGradient>
	<path class="st122" d="M122.1,153.2c-7.5,0-13.7,6.2-13.7,13.9c0,5.1,2.8,9.6,6.8,12v50.7c0,3.8,3.1,7,6.8,7c3.8,0,6.8-3.1,6.8-7
		v-50.7c4.1-2.4,6.8-6.9,6.8-12C135.8,159.4,129.6,153.2,122.1,153.2L122.1,153.2z M122.1,153.2"/>
	<linearGradient id="SVGID_125_" gradientUnits="userSpaceOnUse" x1="40.1899" y1="299.3723" x2="53.8419" y2="299.3723">
		<stop  offset="0" style="stop-color:#E5700F"/>
		<stop  offset="1" style="stop-color:#FEBA1C"/>
	</linearGradient>
	<path class="st123" d="M47,236.7c-3.8,0-6.8,3.1-6.8,7v111.4c0,3.8,3.1,7,6.8,7c3.8,0,6.8-3.1,6.8-7V243.7
		C53.8,239.8,50.8,236.7,47,236.7L47,236.7z M47,236.7"/>
	<linearGradient id="SVGID_126_" gradientUnits="userSpaceOnUse" x1="-0.771" y1="250.6878" x2="128.9354" y2="250.6878">
		<stop  offset="0" style="stop-color:#E5700F"/>
		<stop  offset="1" style="stop-color:#FEBA1C"/>
	</linearGradient>
	<path class="st124" d="M94.7,158.8c-0.7-3.4-3.9-5.5-7.1-5.5c-35.9,0-63.3,7.8-77.3,22.1c-7.3,7.4-11,16.4-11,26.6v139.2
		c0,3.8,3.1,7,6.8,7c3.8,0,6.8-3.1,6.8-7V201.9c0-6.5,2.3-11.9,7-16.7c10.6-10.8,33.3-17.3,62.6-17.9l33,161.4
		c0.8,3.8,4.4,6.2,8.1,5.4c3.7-0.8,6.1-4.5,5.3-8.2L94.7,158.8z M94.7,158.8"/>
</g>
</svg>
