<?xml version="1.0" encoding="utf-8"?>
<!-- Generator: Adobe Illustrator 19.0.1, SVG Export Plug-In . SVG Version: 6.00 Build 0)  -->
<svg version="1.1" id="Слой_1" xmlns="http://www.w3.org/2000/svg" xmlns:xlink="http://www.w3.org/1999/xlink" x="0px" y="0px"
	 viewBox="0 0 508.7 517.9" style="enable-background:new 0 0 508.7 517.9;" xml:space="preserve">
<style type="text/css">
	.st0{display:none;}
	.st1{display:inline;fill:url(#SVGID_1_);}
	.st2{display:inline;fill:url(#SVGID_2_);}
	.st3{display:inline;fill:url(#SVGID_3_);}
	.st4{display:inline;fill:url(#SVGID_4_);}
	.st5{display:inline;fill:url(#SVGID_5_);}
	.st6{display:inline;fill:url(#SVGID_6_);}
	.st7{display:inline;fill:url(#SVGID_7_);}
	.st8{display:inline;fill:url(#SVGID_8_);}
	.st9{display:inline;}
	.st10{fill:url(#SVGID_9_);}
	.st11{fill:url(#SVGID_10_);}
	.st12{fill:url(#SVGID_11_);}
	.st13{fill:url(#SVGID_12_);}
	.st14{fill:url(#SVGID_13_);}
	.st15{fill:url(#SVGID_14_);}
	.st16{fill:url(#SVGID_15_);}
	.st17{fill:url(#SVGID_16_);}
	.st18{fill:url(#SVGID_17_);}
	.st19{fill:url(#SVGID_18_);}
	.st20{fill:url(#SVGID_19_);}
	.st21{fill:url(#SVGID_20_);}
	.st22{fill:url(#SVGID_21_);}
	.st23{fill:url(#SVGID_22_);}
	.st24{fill:url(#SVGID_23_);}
	.st25{fill:url(#SVGID_24_);}
	.st26{fill:url(#SVGID_25_);}
	.st27{fill:url(#SVGID_26_);}
	.st28{fill:url(#SVGID_27_);}
	.st29{fill:url(#SVGID_28_);}
	.st30{fill:url(#SVGID_29_);}
	.st31{display:inline;fill:url(#SVGID_30_);}
	.st32{display:inline;fill:url(#SVGID_31_);}
	.st33{display:inline;fill:url(#SVGID_32_);}
	.st34{display:inline;fill:url(#SVGID_33_);}
	.st35{display:inline;fill:url(#SVGID_34_);}
	.st36{display:inline;fill:url(#SVGID_35_);}
	.st37{display:inline;fill:url(#SVGID_36_);}
	.st38{display:inline;fill:url(#SVGID_37_);}
	.st39{display:inline;fill:url(#SVGID_38_);}
	.st40{display:inline;fill:url(#SVGID_39_);}
	.st41{display:inline;fill:url(#SVGID_40_);}
	.st42{display:inline;fill:url(#SVGID_41_);}
	.st43{fill:url(#SVGID_42_);}
	.st44{fill:url(#SVGID_43_);}
	.st45{fill:url(#SVGID_44_);}
	.st46{fill:url(#SVGID_45_);}
	.st47{display:none;fill:url(#SVGID_46_);}
	.st48{display:none;fill:url(#SVGID_47_);}
	.st49{display:none;fill:url(#SVGID_48_);}
	.st50{display:none;fill:url(#SVGID_49_);}
	.st51{display:none;fill:url(#SVGID_50_);}
	.st52{display:none;fill:url(#SVGID_51_);}
	.st53{display:none;fill:url(#SVGID_52_);}
	.st54{display:none;fill:url(#SVGID_53_);}
	.st55{display:none;fill:url(#SVGID_54_);}
	.st56{display:none;fill:url(#SVGID_55_);}
	.st57{display:inline;fill:url(#SVGID_56_);}
	.st58{fill:url(#SVGID_57_);}
	.st59{display:none;fill:url(#SVGID_58_);}
	.st60{display:none;fill:url(#SVGID_59_);}
	.st61{display:none;fill:url(#SVGID_60_);}
	.st62{display:none;fill:url(#SVGID_61_);}
	.st63{display:none;fill:url(#SVGID_62_);}
	.st64{display:none;fill:url(#SVGID_63_);}
	.st65{display:none;fill:url(#SVGID_64_);}
	.st66{display:none;fill:url(#SVGID_65_);}
	.st67{fill:url(#SVGID_66_);}
	.st68{fill:url(#SVGID_67_);}
	.st69{fill:url(#SVGID_68_);}
	.st70{fill:url(#SVGID_69_);}
</style>
<g class="st0">
	<linearGradient id="SVGID_1_" gradientUnits="userSpaceOnUse" x1="203.3889" y1="212.2934" x2="203.3889" y2="192.2967">
		<stop  offset="0" style="stop-color:#E5700F"/>
		<stop  offset="1" style="stop-color:#FEBA1C"/>
	</linearGradient>
	<path class="st1" d="M196.3,195.2c-3.9,3.9-3.9,10.2,0,14.1c3.9,3.9,10.2,3.9,14.1,0c3.9-3.9,3.9-10.2,0-14.1
		C206.6,191.3,200.2,191.3,196.3,195.2z"/>
	<linearGradient id="SVGID_2_" gradientUnits="userSpaceOnUse" x1="232.6778" y1="532.8591" x2="232.6778" y2="412.8635">
		<stop  offset="0" style="stop-color:#E5700F"/>
		<stop  offset="1" style="stop-color:#FEBA1C"/>
	</linearGradient>
	<path class="st2" d="M345.9,468.6c4.4-6,6.8-13.2,6.8-20.7c0-19.3-15.7-35-35-35h-170c-9.4,0-18.1,3.6-24.7,10.2
		c-6.6,6.6-10.2,15.4-10.2,24.8c0,7.7,2.5,14.9,6.8,20.7c-15.9,8.4-26.8,25.1-26.8,44.3v10c0,5.5,4.5,10,10,10h260
		c5.5,0,10-4.5,10-10v-10C372.7,493.7,361.8,477,345.9,468.6z M137.1,437.3c2.8-2.8,6.6-4.4,10.6-4.4h170c8.3,0,15,6.7,15,15
		c0,4-1.6,7.8-4.4,10.6c-2.8,2.8-6.6,4.4-10.6,4.4h-170c-8.3,0-15-6.7-15-15C132.7,443.9,134.2,440.1,137.1,437.3z M112.7,512.9
		c0-16.5,13.5-30,30-30h5h170h5c16.5,0,30,13.5,30,30H112.7z"/>
	<linearGradient id="SVGID_3_" gradientUnits="userSpaceOnUse" x1="348.6934" y1="532.8741" x2="348.6934" y2="20.8781">
		<stop  offset="0" style="stop-color:#E5700F"/>
		<stop  offset="1" style="stop-color:#FEBA1C"/>
	</linearGradient>
	<path class="st3" d="M595.4,441c-3.4-5.3-7.4-9.9-12-13.8l-46.7-40.8c-0.4-0.5-0.8-1.1-1.3-1.6c-0.8-0.8-1.7-1.4-2.7-1.9
		l-28.3-24.6L373.6,244.2c5.4-5.6,8.3-12.9,8.3-20.7c0-8-3.1-15.6-8.8-21.2c-2.5-2.5-5.3-4.4-8.3-5.8l12.1-12.1
		c3.4,0.9,6.9,1.4,10.3,1.4c10.2,0,20.5-3.9,28.3-11.7c7.6-7.6,11.7-17.6,11.7-28.3c0-10.7-4.2-20.7-11.7-28.3l-84.8-84.8
		c-7.6-7.6-17.6-11.7-28.3-11.7c-10.7,0-20.7,4.2-28.3,11.7c-10.4,10.4-13.9,25.3-10.3,38.6L143,191.9c-3.3-0.9-6.8-1.4-10.4-1.4
		c-10.7,0-20.7,4.2-28.3,11.7c-15.6,15.6-15.6,41,0,56.6l84.8,84.8c7.8,7.8,18,11.7,28.3,11.7c10.2,0,20.5-3.9,28.3-11.7
		c10.4-10.4,13.9-25.3,10.3-38.6l12.1-12.1c1.5,3,3.4,5.8,5.9,8.3c5.7,5.7,13.2,8.8,21.2,8.8c7.8,0,15.1-2.9,20.7-8.3l139.3,160.1
		c0.4,0.6,0.8,1.2,1.4,1.7c0.2,0.2,0.4,0.3,0.6,0.5l41.5,47.7c1,1.2,2.1,2.4,3.3,3.6c11.4,11.4,26.5,17.6,42.3,17.6
		c2.8,0,5.6-0.2,8.4-0.6c18.8-2.6,35.1-13.9,44.6-30.9C607.8,482.7,607,459,595.4,441z M288.2,46.7c3.8-3.8,8.8-5.9,14.1-5.9
		c5.3,0,10.4,2.1,14.1,5.9l84.8,84.8c3.8,3.8,5.9,8.8,5.9,14.1c0,5.3-2.1,10.4-5.9,14.1c-7.8,7.8-20.5,7.8-28.3,0L288.2,75
		c0,0,0,0,0,0C280.4,67.2,280.4,54.5,288.2,46.7z M231.7,329.6c-7.8,7.8-20.5,7.8-28.3,0l-84.8-84.8c-7.8-7.8-7.8-20.5,0-28.3
		c3.8-3.8,8.8-5.9,14.1-5.9c5.3,0,10.4,2.1,14.1,5.8l84.9,84.9C239.5,309.1,239.5,321.8,231.7,329.6z M273.8,259.2l-28,28L161,202.3
		L274.1,89.2L359,174l-28,28c-0.1,0.1-0.2,0.2-0.3,0.3l-56.5,56.5C274,258.9,273.9,259.1,273.8,259.2z M309.5,280
		C309.5,280.1,309.4,280.1,309.5,280l-7.1,7.1c-1.9,1.9-4.4,2.9-7.1,2.9c-2.7,0-5.2-1-7.1-2.9c-1.9-1.9-2.9-4.4-2.9-7.1
		c0-2.6,1-5.1,2.8-6.9l56.8-56.8c3.9-3.8,10.2-3.7,14,0.1c1.9,1.9,2.9,4.4,2.9,7.1c0,2.7-1,5.2-2.9,7.1l-7,7c0,0-0.1,0.1-0.1,0.1
		L309.5,280z M330.2,287.6l29.2-29.2l123.7,107.9L438,411.5L330.2,287.6z M451.2,426.6l47.1-47.1l15.1,13.2l-49,49L451.2,426.6z
		 M579.9,491.6c-6.5,11.5-17.4,19.1-29.9,20.9c-12.5,1.7-24.9-2.4-33.8-11.3c-0.8-0.8-1.5-1.6-2.2-2.4c0,0-0.1-0.1-0.1-0.1
		l-36.4-41.8l51-51l41.8,36.4c0,0,0.1,0.1,0.1,0.1c3.1,2.7,5.9,5.8,8.3,9.5C586.1,463.5,586.7,479.5,579.9,491.6z"/>
	<linearGradient id="SVGID_4_" gradientUnits="userSpaceOnUse" x1="252.8815" y1="184.011" x2="252.8815" y2="121.5835">
		<stop  offset="0" style="stop-color:#E5700F"/>
		<stop  offset="1" style="stop-color:#FEBA1C"/>
	</linearGradient>
	<path class="st4" d="M267,124.5l-42.4,42.4c-3.9,3.9-3.9,10.2,0,14.1c2,2,4.5,2.9,7.1,2.9c2.6,0,5.1-1,7.1-2.9l42.4-42.4
		c3.9-3.9,3.9-10.2,0-14.1C277.3,120.6,270.9,120.6,267,124.5z"/>
</g>
<g class="st0">
	<linearGradient id="SVGID_5_" gradientUnits="userSpaceOnUse" x1="-520.6127" y1="202.2951" x2="-500.6085" y2="202.2951">
		<stop  offset="0" style="stop-color:#E5700F"/>
		<stop  offset="1" style="stop-color:#FEBA1C"/>
	</linearGradient>
	<path class="st5" d="M-517.7,195.2c-3.9,3.9-3.9,10.2,0,14.1c3.9,3.9,10.2,3.9,14.1,0c3.9-3.9,3.9-10.2,0-14.1
		C-507.4,191.3-513.8,191.3-517.7,195.2z"/>
	<linearGradient id="SVGID_6_" gradientUnits="userSpaceOnUse" x1="-621.3165" y1="472.8613" x2="-341.3269" y2="472.8613">
		<stop  offset="0" style="stop-color:#E5700F"/>
		<stop  offset="1" style="stop-color:#FEBA1C"/>
	</linearGradient>
	<path class="st6" d="M-368.1,468.6c4.4-6,6.8-13.2,6.8-20.7c0-19.3-15.7-35-35-35h-170c-9.4,0-18.1,3.6-24.7,10.2
		c-6.6,6.6-10.2,15.4-10.2,24.8c0,7.7,2.5,14.9,6.8,20.7c-15.9,8.4-26.8,25.1-26.8,44.3v10c0,5.5,4.5,10,10,10h260
		c5.5,0,10-4.5,10-10v-10C-341.3,493.7-352.2,477-368.1,468.6z M-576.9,437.3c2.8-2.8,6.6-4.4,10.6-4.4h170c8.3,0,15,6.7,15,15
		c0,4-1.6,7.8-4.4,10.6c-2.8,2.8-6.6,4.4-10.6,4.4h-170c-8.3,0-15-6.7-15-15C-581.3,443.9-579.8,440.1-576.9,437.3z M-601.3,512.9
		c0-16.5,13.5-30,30-30h5h170h5c16.5,0,30,13.5,30,30H-601.3z"/>
	<linearGradient id="SVGID_7_" gradientUnits="userSpaceOnUse" x1="-621.2952" y1="276.8761" x2="-109.317" y2="276.8761">
		<stop  offset="0" style="stop-color:#E5700F"/>
		<stop  offset="1" style="stop-color:#FEBA1C"/>
	</linearGradient>
	<path class="st7" d="M-118.6,441c-3.4-5.3-7.4-9.9-12-13.8l-46.7-40.8c-0.4-0.5-0.8-1.1-1.3-1.6c-0.8-0.8-1.7-1.4-2.7-1.9
		l-28.3-24.6l-130.8-114.1c5.4-5.6,8.3-12.9,8.3-20.7c0-8-3.1-15.6-8.8-21.2c-2.5-2.5-5.3-4.4-8.3-5.8l12.1-12.1
		c3.4,0.9,6.9,1.4,10.3,1.4c10.2,0,20.5-3.9,28.3-11.7c7.6-7.6,11.7-17.6,11.7-28.3s-4.2-20.7-11.7-28.3l-84.8-84.8
		c-7.6-7.6-17.6-11.7-28.3-11.7c-10.7,0-20.7,4.2-28.3,11.7c-10.4,10.4-13.9,25.3-10.3,38.6L-571,191.9c-3.3-0.9-6.8-1.4-10.4-1.4
		c-10.7,0-20.7,4.2-28.3,11.7c-15.6,15.6-15.6,41,0,56.6l84.8,84.8c7.8,7.8,18,11.7,28.3,11.7c10.2,0,20.5-3.9,28.3-11.7
		c10.4-10.4,13.9-25.3,10.3-38.6l12.1-12.1c1.5,3,3.4,5.8,5.9,8.3c5.7,5.7,13.2,8.8,21.2,8.8c7.8,0,15.1-2.9,20.7-8.3l139.3,160.1
		c0.4,0.6,0.8,1.2,1.4,1.7c0.2,0.2,0.4,0.3,0.6,0.5l41.5,47.7c1,1.2,2.1,2.4,3.3,3.6c11.4,11.4,26.5,17.6,42.3,17.6
		c2.8,0,5.6-0.2,8.4-0.6c18.8-2.6,35.1-13.9,44.6-30.9C-106.2,482.7-107,459-118.6,441z M-262.8,426.6l47.1-47.1l15.1,13.2l-49,49
		L-262.8,426.6z M-383.8,287.6l29.2-29.2l123.7,107.9l-45.2,45.2L-383.8,287.6z M-425.8,46.7c3.8-3.8,8.8-5.9,14.1-5.9
		c5.3,0,10.4,2.1,14.1,5.9l84.8,84.8c3.8,3.8,5.9,8.8,5.9,14.1c0,5.3-2.1,10.4-5.9,14.1c-7.8,7.8-20.5,7.8-28.3,0L-425.8,75
		c0,0,0,0,0,0C-433.6,67.2-433.6,54.5-425.8,46.7z M-482.3,329.6c-7.8,7.8-20.5,7.8-28.3,0l-84.8-84.8c-7.8-7.8-7.8-20.5,0-28.3
		c3.8-3.8,8.8-5.9,14.1-5.9c5.3,0,10.4,2.1,14.1,5.8l84.9,84.9C-474.5,309.1-474.5,321.8-482.3,329.6z M-553,202.3l113.1-113.1
		L-355,174l-28,28c-0.1,0.1-0.2,0.2-0.3,0.3l-56.5,56.5c-0.1,0.1-0.2,0.2-0.3,0.4l-28,28L-553,202.3z M-418.7,290.1
		c-2.7,0-5.2-1-7.1-2.9c-1.9-1.9-2.9-4.4-2.9-7.1c0-2.6,1-5.1,2.8-6.9l56.8-56.8c3.9-3.8,10.2-3.7,14,0.1c1.9,1.9,2.9,4.4,2.9,7.1
		c0,2.7-1,5.2-2.9,7.1l-7,7c0,0-0.1,0.1-0.1,0.1l-42.3,42.3c0,0,0,0-0.1,0.1l-7,7C-413.5,289-416,290.1-418.7,290.1z M-134.1,491.6
		c-6.5,11.5-17.4,19.1-29.9,20.9c-12.5,1.7-24.9-2.4-33.8-11.3c-0.8-0.8-1.5-1.6-2.2-2.4c0,0-0.1-0.1-0.1-0.1l-36.4-41.8l51-51
		l41.8,36.4c0,0,0.1,0.1,0.1,0.1c3.1,2.7,5.9,5.8,8.3,9.5C-127.9,463.5-127.3,479.5-134.1,491.6z"/>
	<linearGradient id="SVGID_8_" gradientUnits="userSpaceOnUse" x1="-492.332" y1="152.7973" x2="-429.904" y2="152.7973">
		<stop  offset="0" style="stop-color:#E5700F"/>
		<stop  offset="1" style="stop-color:#FEBA1C"/>
	</linearGradient>
	<path class="st8" d="M-432.8,124.5c-3.9-3.9-10.2-3.9-14.1,0l-42.4,42.4c-3.9,3.9-3.9,10.2,0,14.1c2,2,4.5,2.9,7.1,2.9
		c2.6,0,5.1-1,7.1-2.9l42.4-42.4C-428.9,134.7-428.9,128.4-432.8,124.5z"/>
</g>
<g class="st0">
	<g class="st9">
		<linearGradient id="SVGID_9_" gradientUnits="userSpaceOnUse" x1="160.2561" y1="276.8761" x2="529.3654" y2="276.8761">
			<stop  offset="0" style="stop-color:#E5700F"/>
			<stop  offset="1" style="stop-color:#FEBA1C"/>
		</linearGradient>
		<path class="st10" d="M507,387.7c-6.7-33.8-38.5-39.6-38.6-39.6v0c-0.3-0.1,2.9,0.7-77.3-19.2v-2.7h59.1
			c12.2,0,22.1-9.9,22.1-22.1V191.4c1-4.2,1-8.5,0-12.7v-41.1c0-4.1-3.4-7.5-7.5-7.5c-4.1,0-7.5,3.4-7.5,7.5v21.5
			c-4-2.4-8.5-4.1-13.4-4.9c-1.8-7.8-8.3-14-16.5-15.1c-8.6-1.1-15.1-6.1-19.3-14.9c-2-4.1-5.9-6.8-10.4-7.2
			c-4.5-0.4-8.8,1.5-11.5,5.2c-12.9,17.5-48.7,56.9-110.6,56.9c-4.7,0-7.9-0.2-9-0.3c-11.4-0.7-21,8.4-21,19.8v17.2
			c0,27.5,11.4,54.3,31.4,73.3c6.6,6.3,13.9,11.6,21.7,15.8v6.2h-58.8c-3.9,0-7.1-3.2-7.1-7.1V135.5c0-54.6,44.6-99.7,98.4-99.7
			c0.2,0,0.3,0,0.5,0c19.3,0.1,41.5,5.6,56.7,13.9c9.6,5.3,15.6,1.1,25,1.1c23.2,0,41.7,23.8,44,45.3c0,0.3,0,1.6,0.1,6.4
			c0,7.2,8.2,7.8,7.5,7.5c4.1,0,7.5-3.4,7.5-7.5c0-1.3,0-6.6-0.1-7.8c-3-29.8-28.5-58.9-58.9-58.9c-11.9,0-13.7,3-17.8,0.8
			c-17.2-9.5-42.3-15.7-63.9-15.8c-62.3-0.4-114,51.5-114,114.7v168.6c0,12.2,9.9,22.1,22.1,22.1h58.8v2.7l-77,19.1
			c-0.1,0-0.2,0.1-0.3,0.1l-5.6,1.7c-0.2,0-0.3,0.1-0.5,0.2c-10,3.7-27.6,13.6-32.4,37.8c-22.8,114.7-21.9,109.8-21.9,110.2
			c-2.8,19.5,7,35,30.4,35h81.1c4.1,0,7.5-3.4,7.5-7.5c0-4.1-3.4-7.5-7.5-7.5H244v-70.8c0-4.1-3.4-7.5-7.5-7.5s-7.5,3.4-7.5,7.5
			v70.8h-37.9c-10,0-15.8-3.2-15.8-13.7c0-5.1-0.2-0.1,22.1-113.6c3.4-16.8,15.6-23.9,22.7-26.6l5.2-1.5l44.2-11
			c49.2,58,46.3,54.9,49.1,57.7c16.4,16,39.9,14.9,55.3-3.2l46.3-54.4l44.1,10.9c1.3,0.6,23.2,4.4,27.9,28.1
			c22.1,112.5,22.1,108.5,22.1,113.6c-0.1,10.3-5.6,13.7-15.8,13.7h-37.6v-70.8c0-4.1-3.4-7.5-7.5-7.5c-4.1,0-7.5,3.4-7.5,7.5v70.7
			H307.2c-4.1,0-7.5,3.4-7.5,7.5c0,4.1,3.4,7.5,7.5,7.5h191.3c18.5,0,30.7-10.2,30.8-28.6C529.4,495.7,528.9,499.8,507,387.7z
			 M444.4,169.7c6.3,1.9,11.1,6,12.9,11.1v8.6c-1.8,5.1-6.6,9.2-12.9,11.1V169.7z M444.4,217.2v-1.4c4.7-0.9,9-2.5,12.9-4.8v93.1
			c0,3.9-3.2,7.1-7.1,7.1h-59.1v-5.8C422.9,288.8,444.4,255.5,444.4,217.2z M287.2,278.3c-17-16.2-26.7-39-26.7-62.4
			c0.4-16.3-1.1-18.3,1.5-20.8c0.9-0.9,2.2-1.4,3.6-1.3c53.8,3.2,100-20.4,130.6-60c8.2,14.5,20.3,19,29.3,20.1
			c2.2,0.3,3.9,2.2,3.9,4.4c0,20.8,0,38.2,0,58.8C429.4,291.9,340,328.7,287.2,278.3z M362.5,396.3c-10.5,12.3-25.1,12.2-35.5-0.1
			l-15.7-18.5h66.9L362.5,396.3z M391.1,362.7h-92.4l-12.9-15.2l22.1-5.5c3.3-0.8,5.7-3.9,5.7-7.4l0-23.2
			c20.6,6.9,42.4,6.8,62.6,0.2c0.1,24-0.3,23.4,0.4,25.5c0.8,2.3,2.8,4.2,5.3,4.8l22.2,5.5L391.1,362.7z"/>
	</g>
</g>
<g class="st0">
	<g class="st9">
		<g>
			<linearGradient id="SVGID_10_" gradientUnits="userSpaceOnUse" x1="162.683" y1="276.8761" x2="528.683" y2="276.8761">
				<stop  offset="0" style="stop-color:#E5700F"/>
				<stop  offset="1" style="stop-color:#FEBA1C"/>
			</linearGradient>
			<path class="st11" d="M521,23.4H170.4c-4.2,0-7.7,3.5-7.7,7.7v491.6c0,4.3,3.5,7.7,7.7,7.7H437c2.1,0,4-0.8,5.4-2.3l84-84
				c1.4-1.4,2.3-3.4,2.3-5.5V31.1C528.7,26.9,525.2,23.4,521,23.4z M444.7,504.1v-57.8h57.8L444.7,504.1z M513.3,431l-76.4-0.1
				c-2.1,0-4,0.8-5.5,2.3c-1.4,1.4-2.3,3.4-2.3,5.5l0.1,76.4H178.1V38.8h335.2V431z"/>
		</g>
	</g>
</g>
<g class="st0">
	<g class="st9">
		<g>
			<linearGradient id="SVGID_11_" gradientUnits="userSpaceOnUse" x1="220.683" y1="435.3761" x2="308.683" y2="435.3761">
				<stop  offset="0" style="stop-color:#E5700F"/>
				<stop  offset="1" style="stop-color:#FEBA1C"/>
			</linearGradient>
			<path class="st12" d="M295.8,404.3c-8.3-8.3-19.4-12.9-31.1-12.9c-24.3,0-44,19.7-44,44s19.7,44,44,44s44-19.7,44-44
				C308.7,423.7,304.2,412.6,295.8,404.3z M264.7,464c-15.8,0-28.6-12.8-28.6-28.6s12.8-28.6,28.6-28.6c15.8,0,28.6,12.8,28.6,28.6
				S280.5,464,264.7,464z"/>
		</g>
	</g>
</g>
<g class="st0">
	<g class="st9">
		<g>
			<linearGradient id="SVGID_12_" gradientUnits="userSpaceOnUse" x1="333.883" y1="436.976" x2="405.383" y2="436.976">
				<stop  offset="0" style="stop-color:#E5700F"/>
				<stop  offset="1" style="stop-color:#FEBA1C"/>
			</linearGradient>
			<path class="st13" d="M405.4,437c0,4.2-3.5,7.7-7.7,7.7h-56.1c-4.3,0-7.7-3.5-7.7-7.7c0-4.3,3.5-7.7,7.7-7.7h56.1
				C402,429.3,405.4,432.8,405.4,437z"/>
		</g>
	</g>
</g>
<g class="st0">
	<g class="st9">
		<g>
			<linearGradient id="SVGID_13_" gradientUnits="userSpaceOnUse" x1="223.783" y1="92.2761" x2="268.683" y2="92.2761">
				<stop  offset="0" style="stop-color:#E5700F"/>
				<stop  offset="1" style="stop-color:#FEBA1C"/>
			</linearGradient>
			<path class="st14" d="M268.7,92.3c0,4.3-3.5,7.7-7.7,7.7h-29.5c-4.3,0-7.7-3.5-7.7-7.7s3.5-7.7,7.7-7.7h29.6
				C265.3,84.6,268.7,88.1,268.7,92.3z"/>
		</g>
	</g>
</g>
<g class="st0">
	<g class="st9">
		<g>
			<linearGradient id="SVGID_14_" gradientUnits="userSpaceOnUse" x1="367.583" y1="92.2761" x2="471.683" y2="92.2761">
				<stop  offset="0" style="stop-color:#E5700F"/>
				<stop  offset="1" style="stop-color:#FEBA1C"/>
			</linearGradient>
			<path class="st15" d="M471.7,92.3c0,4.3-3.5,7.7-7.7,7.7h-88.7c-4.3,0-7.7-3.5-7.7-7.7s3.5-7.7,7.7-7.7H464
				C468.3,84.6,471.7,88.1,471.7,92.3z"/>
		</g>
	</g>
</g>
<g class="st0">
	<g class="st9">
		<g>
			<linearGradient id="SVGID_15_" gradientUnits="userSpaceOnUse" x1="305.283" y1="136.175" x2="471.683" y2="136.175">
				<stop  offset="0" style="stop-color:#E5700F"/>
				<stop  offset="1" style="stop-color:#FEBA1C"/>
			</linearGradient>
			<path class="st16" d="M471.7,136.2c0,4.3-3.5,7.7-7.7,7.7H313c-4.2,0-7.7-3.5-7.7-7.7c0-4.2,3.5-7.7,7.7-7.7h151
				C468.3,128.4,471.7,131.9,471.7,136.2z"/>
		</g>
	</g>
</g>
<g class="st0">
	<g class="st9">
		<g>
			<linearGradient id="SVGID_16_" gradientUnits="userSpaceOnUse" x1="219.183" y1="216.6761" x2="472.183" y2="216.6761">
				<stop  offset="0" style="stop-color:#E5700F"/>
				<stop  offset="1" style="stop-color:#FEBA1C"/>
			</linearGradient>
			<path class="st17" d="M472.2,216.7c0,4.3-3.5,7.7-7.7,7.7H226.9c-4.3,0-7.7-3.5-7.7-7.7s3.5-7.7,7.7-7.7h237.6
				C468.8,209,472.2,212.5,472.2,216.7z"/>
		</g>
	</g>
</g>
<g class="st0">
	<g class="st9">
		<g>
			<linearGradient id="SVGID_17_" gradientUnits="userSpaceOnUse" x1="219.183" y1="251.3761" x2="472.183" y2="251.3761">
				<stop  offset="0" style="stop-color:#E5700F"/>
				<stop  offset="1" style="stop-color:#FEBA1C"/>
			</linearGradient>
			<path class="st18" d="M472.2,251.4c0,4.3-3.5,7.7-7.7,7.7H226.9c-4.3,0-7.7-3.5-7.7-7.7s3.5-7.7,7.7-7.7h237.6
				c2.1,0,4,0.8,5.4,2.3C471.4,247.4,472.2,249.4,472.2,251.4z"/>
		</g>
	</g>
</g>
<g class="st0">
	<g class="st9">
		<g>
			<linearGradient id="SVGID_18_" gradientUnits="userSpaceOnUse" x1="219.183" y1="289.0761" x2="472.183" y2="289.0761">
				<stop  offset="0" style="stop-color:#E5700F"/>
				<stop  offset="1" style="stop-color:#FEBA1C"/>
			</linearGradient>
			<path class="st19" d="M472.2,289.1c0,4.2-3.5,7.7-7.7,7.7H226.9c-4.3,0-7.7-3.5-7.7-7.7c0-4.3,3.5-7.7,7.7-7.7h237.6
				c2.1,0,4,0.8,5.4,2.3C471.4,285.2,472.2,287.1,472.2,289.1z"/>
		</g>
	</g>
</g>
<g class="st0">
	<g class="st9">
		<g>
			<linearGradient id="SVGID_19_" gradientUnits="userSpaceOnUse" x1="451.183" y1="323.7761" x2="472.183" y2="323.7761">
				<stop  offset="0" style="stop-color:#E5700F"/>
				<stop  offset="1" style="stop-color:#FEBA1C"/>
			</linearGradient>
			<path class="st20" d="M472.2,323.8c0,4.2-3.5,7.7-7.7,7.7h-5.6c-4.2,0-7.7-3.5-7.7-7.7c0-4.3,3.5-7.7,7.7-7.7h5.6
				C468.8,316.1,472.2,319.6,472.2,323.8z"/>
		</g>
	</g>
</g>
<g class="st0">
	<g class="st9">
		<g>
			<linearGradient id="SVGID_20_" gradientUnits="userSpaceOnUse" x1="219.183" y1="323.7761" x2="430.883" y2="323.7761">
				<stop  offset="0" style="stop-color:#E5700F"/>
				<stop  offset="1" style="stop-color:#FEBA1C"/>
			</linearGradient>
			<path class="st21" d="M430.9,323.8c0,4.2-3.5,7.7-7.7,7.7H226.9c-4.3,0-7.7-3.5-7.7-7.7c0-4.3,3.5-7.7,7.7-7.7h196.3
				C427.5,316.1,430.9,319.6,430.9,323.8z"/>
		</g>
	</g>
</g>
<g class="st0">
	<g class="st9">
		<linearGradient id="SVGID_21_" gradientUnits="userSpaceOnUse" x1="178.083" y1="269.8781" x2="530.083" y2="269.8781">
			<stop  offset="0" style="stop-color:#E5700F"/>
			<stop  offset="1" style="stop-color:#FEBA1C"/>
		</linearGradient>
		<path class="st22" d="M530,141.4c0-0.6-0.2-1.3-0.4-1.9c-0.1-0.3-0.1-0.5-0.2-0.8c-0.3-0.8-0.8-1.6-1.4-2.3l-96-104
			c-0.7-0.7-1.5-1.3-2.4-1.7c-0.2-0.1-0.5-0.2-0.7-0.3c-0.7-0.3-1.5-0.4-2.3-0.5c-0.2,0-0.3-0.1-0.5-0.1h-240c-4.4,0-8,3.6-8,8v464
			c0,4.4,3.6,8,8,8h336c4.4,0,8-3.6,8-8v-360C530.1,141.7,530,141.6,530,141.4z M434.1,58.3l69.7,75.5h-69.7V58.3z M514.1,493.9
			h-320v-448h224v96c0,4.4,3.6,8,8,8h88V493.9z"/>
	</g>
</g>
<g class="st0">
	<g class="st9">
		<linearGradient id="SVGID_22_" gradientUnits="userSpaceOnUse" x1="290.083" y1="197.8781" x2="482.083" y2="197.8781">
			<stop  offset="0" style="stop-color:#E5700F"/>
			<stop  offset="1" style="stop-color:#FEBA1C"/>
		</linearGradient>
		<path class="st23" d="M474.1,189.9h-176c-4.4,0-8,3.6-8,8s3.6,8,8,8h176c4.4,0,8-3.6,8-8S478.5,189.9,474.1,189.9z"/>
	</g>
</g>
<g class="st0">
	<g class="st9">
		<linearGradient id="SVGID_23_" gradientUnits="userSpaceOnUse" x1="290.083" y1="341.8781" x2="482.083" y2="341.8781">
			<stop  offset="0" style="stop-color:#E5700F"/>
			<stop  offset="1" style="stop-color:#FEBA1C"/>
		</linearGradient>
		<path class="st24" d="M474.1,333.9h-176c-4.4,0-8,3.6-8,8s3.6,8,8,8h176c4.4,0,8-3.6,8-8S478.5,333.9,474.1,333.9z"/>
	</g>
</g>
<g class="st0">
	<g class="st9">
		<linearGradient id="SVGID_24_" gradientUnits="userSpaceOnUse" x1="290.083" y1="413.8781" x2="482.083" y2="413.8781">
			<stop  offset="0" style="stop-color:#E5700F"/>
			<stop  offset="1" style="stop-color:#FEBA1C"/>
		</linearGradient>
		<path class="st25" d="M474.1,405.9h-176c-4.4,0-8,3.6-8,8s3.6,8,8,8h176c4.4,0,8-3.6,8-8S478.5,405.9,474.1,405.9z"/>
	</g>
</g>
<g class="st0">
	<g class="st9">
		<linearGradient id="SVGID_25_" gradientUnits="userSpaceOnUse" x1="224.2455" y1="185.144" x2="308.1173" y2="185.144">
			<stop  offset="0" style="stop-color:#E5700F"/>
			<stop  offset="1" style="stop-color:#FEBA1C"/>
		</linearGradient>
		<path class="st26" d="M305.9,156.9c-3.1-3.2-8.1-3.3-11.3-0.2c-0.1,0.1-0.1,0.1-0.2,0.2l-39.6,39.6l-17-17
			c-3.2-3.1-8.2-3-11.3,0.2c-3,3.1-3,8,0,11.1l22.6,22.6c3.1,3.1,8.2,3.1,11.3,0l45.2-45.3C308.9,165.2,308.9,160.1,305.9,156.9z"/>
	</g>
</g>
<g class="st0">
	<g class="st9">
		<linearGradient id="SVGID_26_" gradientUnits="userSpaceOnUse" x1="290.083" y1="269.8781" x2="482.083" y2="269.8781">
			<stop  offset="0" style="stop-color:#E5700F"/>
			<stop  offset="1" style="stop-color:#FEBA1C"/>
		</linearGradient>
		<path class="st27" d="M474.1,261.9h-176c-4.4,0-8,3.6-8,8s3.6,8,8,8h176c4.4,0,8-3.6,8-8S478.5,261.9,474.1,261.9z"/>
	</g>
</g>
<g class="st0">
	<g class="st9">
		<linearGradient id="SVGID_27_" gradientUnits="userSpaceOnUse" x1="224.2455" y1="257.144" x2="308.1173" y2="257.144">
			<stop  offset="0" style="stop-color:#E5700F"/>
			<stop  offset="1" style="stop-color:#FEBA1C"/>
		</linearGradient>
		<path class="st28" d="M305.9,228.9c-3.1-3.2-8.1-3.3-11.3-0.2c-0.1,0.1-0.1,0.1-0.2,0.2l-39.6,39.6l-17-17
			c-3.2-3.1-8.2-3-11.3,0.2c-3,3.1-3,8,0,11.1l22.6,22.6c3.1,3.1,8.2,3.1,11.3,0l45.2-45.3C308.9,237.2,308.9,232.1,305.9,228.9z"/>
	</g>
</g>
<g class="st0">
	<g class="st9">
		<linearGradient id="SVGID_28_" gradientUnits="userSpaceOnUse" x1="224.2455" y1="329.2424" x2="307.9208" y2="329.2424">
			<stop  offset="0" style="stop-color:#E5700F"/>
			<stop  offset="1" style="stop-color:#FEBA1C"/>
		</linearGradient>
		<path class="st29" d="M305.5,300.9c-3.1-3-8-3-11.1,0l-39.6,39.6l-17-17c-3.2-3.1-8.2-3-11.3,0.2c-3,3.1-3,8,0,11.1l22.6,22.6
			c3.1,3.1,8.2,3.1,11.3,0l45.2-45.3C308.7,309,308.7,304,305.5,300.9z"/>
	</g>
</g>
<g class="st0">
	<g class="st9">
		<linearGradient id="SVGID_29_" gradientUnits="userSpaceOnUse" x1="224.2455" y1="401.1941" x2="307.2152" y2="401.1941">
			<stop  offset="0" style="stop-color:#E5700F"/>
			<stop  offset="1" style="stop-color:#FEBA1C"/>
		</linearGradient>
		<path class="st30" d="M305.7,372.9c-3.1-3.1-8.2-3.1-11.3,0l-39.6,39.6l-17-17c-3.2-3.1-8.2-3-11.3,0.2c-3,3.1-3,8,0,11.1
			l22.6,22.6c3.1,3.1,8.2,3.1,11.3,0l45.2-45.3C308.1,381.3,307.3,376.5,305.7,372.9z"/>
	</g>
</g>
<g class="st0">
	<linearGradient id="SVGID_30_" gradientUnits="userSpaceOnUse" x1="160.683" y1="276.8761" x2="533.683" y2="276.8761">
		<stop  offset="0" style="stop-color:#E5700F"/>
		<stop  offset="1" style="stop-color:#FEBA1C"/>
	</linearGradient>
	<path class="st31" d="M528.1,22.8c4.7,2.3,5.6,6.9,5.6,12.5c0,65.8,0,131.6,0,197.4c0,94.7,0,189.5,0,284.2c0,2.3-0.1,4.6-0.4,6.9
		c-0.5,4.2-2.8,6.3-6.1,6.9c-1.5,0.3-3,0.2-4.5,0.2c-105,0-210,0-315.1,0c-9.1,0-10.9-2.3-11-13.4c0-33.6,0-67.1,0-100.7
		c0-3.4-0.8-5.8-2.8-8.2c-8.5-10-16.8-20.3-25.1-30.5c-4.9-6-4.9-10,0-16c1.7-2.1,3.6-3.9,6.3-6.7c-3.8-4.2-7.1-7.6-10.2-11.3
		c-5.7-6.7-5.6-10.8-0.1-17.5c7-8.5,14-17.1,21-25.6c4.3-5.2,4.6-5.4,10.6-5.3c0.1-1.4,0.2-2.8,0.2-4.3c0-85.2,0-170.3,0-255.5
		c0-5.6,0.4-10.7,5.3-13.1C310.7,22.8,419.4,22.8,528.1,22.8z M519.1,40.4c-102.9,0-205.4,0-308,0c-0.1,1.5-0.2,2.7-0.2,3.8
		c0,88.5,0,176.9,0.1,265.4c0,2.3,1.1,5.1,2.4,6.7c15.7,19.3,31.5,38.4,47.2,57.6c15.2,18.5,30.4,36.9,45.5,55.4
		c5,6.2,5,10.3-0.1,16.4c-1.9,2.3-4.1,4.3-7,7.3c3.7,4,6.7,7,9.5,10.4c3.6,4.3,3.8,9.6,0.8,13.2c-3.1,3.7-7,3.4-10.8-1.1
		c-2.8-3.3-5.5-6.8-8.9-11.1c-1.9,2.8-3.3,5.2-5,7.3c-5.8,7.2-8.8,7.2-14.6,0.2c-18.5-22.4-36.9-44.9-55.3-67.3
		c-1-1.2-2.1-2.4-3.6-4c0,38,0,75.3,0,112.8c102.7,0,205.2,0,308,0C519.1,355.6,519.1,198.2,519.1,40.4z M227,394.3
		c4.9-6,9.9-12.2,14.4-17.8c-10.5-12.8-21.2-26-31.3-38.4c-4.9,5.9-10,12-14.6,17.6C205.9,368.4,216.6,381.5,227,394.3z M256,429.5
		c7.2,8.9,14.3,17.7,20.9,25.9c5-6.1,10.1-12.3,15-18.3c-6.9-8.3-14.2-17-21.3-25.5C265.9,417.4,260.9,423.4,256,429.5z M253,389.1
		c-5.3,6.5-10.2,12.6-15.3,18.8c2.4,2.8,5,5.8,7.3,8.4c5-6.1,10-12.2,15.1-18.4C257.9,395.2,255.4,392.2,253,389.1z M178.9,334.7
		c1.8,2.8,3.6,5.5,4.7,7.3c5.2-6.3,10.3-12.4,15-18.1c-1.6-2.1-3.5-4.5-5.4-6.9C188.4,323.1,183.4,329.1,178.9,334.7z M196,386
		c0.3-0.1,0.5-0.2,0.8-0.3c-0.4-1.4-0.5-3.2-1.3-4.2c-3.2-4.2-6.6-8.3-10.1-12.3c-0.5-0.6-1.9-0.1-2.9-0.1
		C187.4,375.2,191.7,380.6,196,386z"/>
	<linearGradient id="SVGID_31_" gradientUnits="userSpaceOnUse" x1="388.5464" y1="412.0734" x2="506.3334" y2="412.0734">
		<stop  offset="0" style="stop-color:#E5700F"/>
		<stop  offset="1" style="stop-color:#FEBA1C"/>
	</linearGradient>
	<path class="st32" d="M472.6,444.8c-3,3.9-5.7,8.9-9.1,11.8c-8.7,7.4-19.9-3.3-21.6-19.9c-0.9-8.8,0.7-16.6,3.1-24.3
		c2.1-7,4.4-13.8,6.2-21c1.3-5-0.3-9-3.7-9c-2.2,0-4.7,0.5-6.5,2.1c-5.5,5-11.1,10-16.1,16.1c-8.8,10.7-16.4,23.4-22.8,37.9
		c-1.3,2.9-2.3,6.3-3.4,9.4c-1.6,4.4-4.1,6-6.7,4.2c-2.7-1.8-4.2-6.4-2.9-11c1.8-6.1,3.9-12.1,6.4-17.4c9.4-19.4,20.5-36,33.5-49
		c5.1-5.1,10.5-8.9,16.6-9.8c9.5-1.4,20.6,11.6,15.7,32.7c-1.8,7.7-4.4,14.9-6.6,22.3c-0.8,2.8-1.5,5.8-2,8.8
		c-0.8,4.7,0.7,10,3.3,12.2c2.2,1.9,4,0.2,5.1-2.5c2.6-6.4,5.1-13,7.3-19.9c1.5-4.6,2.1-10.1,6.2-10.1c4-0.1,5.1,5.3,6.4,9.9
		c0.8,2.9,1.4,5.9,2.3,9.9c1.2-4.8,2.3-8.8,3.3-12.8c2.3-9.2,6-10.8,10.6-4.2c4.4,6.3,8.1,13.5,9.1,23.4c0.9,9-1.2,16.2-5,22.3
		c-2,3.1-5,2.9-7,0.1c-2.1-3-2.5-7.7-0.6-11.6c2.1-4.4,3-8.6,0.8-12.9c-3,6.5-5.9,13.2-9.1,19.5c-1.3,2.5-3.1,4.8-4.9,5.6
		c-1.8,0.9-4.2,0.7-6-0.6c-2.1-1.5-2.5-5.3-1.9-9.1C472.5,446.8,472.6,445.6,472.6,444.8z"/>
	<linearGradient id="SVGID_32_" gradientUnits="userSpaceOnUse" x1="312.7833" y1="182.7681" x2="493.7371" y2="182.7681">
		<stop  offset="0" style="stop-color:#E5700F"/>
		<stop  offset="1" style="stop-color:#FEBA1C"/>
	</linearGradient>
	<path class="st33" d="M403.4,191.3c-27.5,0-54.9,0-82.4,0c-1.1,0-2.3,0.1-3.4-0.1c-3-0.5-4.9-4-4.9-8.6c0-4.3,1.9-7.7,4.8-8.3
		c1-0.2,2-0.1,3.1-0.1c55.1,0,110.2,0,165.3,0c5.3,0,7.7,2.6,7.8,8.5c0,5.9-2.4,8.6-7.7,8.6C458.5,191.3,431,191.3,403.4,191.3z"/>
	<linearGradient id="SVGID_33_" gradientUnits="userSpaceOnUse" x1="312.7982" y1="102.1458" x2="493.7173" y2="102.1458">
		<stop  offset="0" style="stop-color:#E5700F"/>
		<stop  offset="1" style="stop-color:#FEBA1C"/>
	</linearGradient>
	<path class="st34" d="M403.2,93.5c27.4,0,54.7,0,82.1,0c1.3,0,2.7,0,4,0.3c2.7,0.6,4.2,3.3,4.4,7.6c0.2,4.6-1.2,7.6-3.9,8.9
		c-1,0.4-2,0.5-3,0.5c-54.9,0-109.8,0-164.7,0c-1.6,0-3.3,0.1-4.9-0.4c-2.8-0.8-4.6-4.4-4.3-8.8c0.2-4.5,1.8-7.3,4.6-7.8
		c1.2-0.2,2.5-0.2,3.7-0.2C348.5,93.5,375.9,93.5,403.2,93.5z"/>
	<linearGradient id="SVGID_34_" gradientUnits="userSpaceOnUse" x1="312.775" y1="303.7972" x2="450.5704" y2="303.7972">
		<stop  offset="0" style="stop-color:#E5700F"/>
		<stop  offset="1" style="stop-color:#FEBA1C"/>
	</linearGradient>
	<path class="st35" d="M381.5,312.4c-20.3,0-40.6,0-60.9,0c-1,0-2.1,0.1-3.1-0.1c-2.8-0.5-4.7-3.8-4.8-8.1c-0.1-4.4,1.7-8,4.5-8.7
		c1.1-0.3,2.2-0.2,3.4-0.2c40.7,0,81.3,0,122,0c1.2,0,2.5-0.1,3.7,0.3c2.5,0.7,4.3,4.4,4.2,8.5c-0.1,4.1-1.9,7.5-4.5,8.1
		c-1.1,0.2-2.2,0.2-3.4,0.2C422.3,312.4,401.9,312.4,381.5,312.4z"/>
	<linearGradient id="SVGID_35_" gradientUnits="userSpaceOnUse" x1="312.7812" y1="223.1364" x2="438.3907" y2="223.1364">
		<stop  offset="0" style="stop-color:#E5700F"/>
		<stop  offset="1" style="stop-color:#FEBA1C"/>
	</linearGradient>
	<path class="st36" d="M375.5,231.8c-18.4,0-36.8,0-55.3,0c-1.4,0-2.9-0.1-4.2-0.9c-2.4-1.4-3.5-4.5-3.2-8.6c0.3-3.9,1.6-6.4,4-7.2
		c1.3-0.4,2.6-0.5,4-0.5c36.4,0,72.9,0,109.3,0c1.4,0,2.9,0,4.3,0.5c2.5,0.8,3.9,3.5,4.1,7.6c0.2,4.1-1,7.1-3.4,8.4
		c-1.3,0.7-2.8,0.8-4.2,0.8C412.3,231.8,393.9,231.8,375.5,231.8z"/>
	<linearGradient id="SVGID_36_" gradientUnits="userSpaceOnUse" x1="387.9731" y1="263.4845" x2="493.703" y2="263.4845">
		<stop  offset="0" style="stop-color:#E5700F"/>
		<stop  offset="1" style="stop-color:#FEBA1C"/>
	</linearGradient>
	<path class="st37" d="M440.7,272.2c-14.9,0-29.9,0-44.8,0c-5.2,0-7.8-2.8-7.9-8.5c-0.1-5.8,2.6-8.9,8-8.9c30.1,0,60.2,0,90.3,0
		c1.3,0,2.7,0.1,3.9,0.8c2.5,1.2,3.6,4.1,3.5,8.2c-0.1,4.1-1.4,6.9-3.9,7.8c-1.2,0.4-2.4,0.5-3.7,0.5
		C471,272.2,455.8,272.1,440.7,272.2C440.7,272.2,440.7,272.2,440.7,272.2z"/>
	<linearGradient id="SVGID_37_" gradientUnits="userSpaceOnUse" x1="312.8293" y1="142.4376" x2="413.5868" y2="142.4376">
		<stop  offset="0" style="stop-color:#E5700F"/>
		<stop  offset="1" style="stop-color:#FEBA1C"/>
	</linearGradient>
	<path class="st38" d="M362.9,151.1c-14.2,0-28.5,0-42.7,0c-1.3,0-2.7-0.1-3.9-0.8c-2.3-1.2-3.8-4.1-3.4-7.8
		c0.4-2.8,1.7-5.8,3.1-7.7c0.9-1.2,2.7-1,4.1-1c28.5,0,57,0,85.4,0c5.3,0,8.1,3.1,8,8.9c-0.1,5.7-2.7,8.5-7.9,8.5
		C391.4,151.1,377.2,151.1,362.9,151.1z"/>
	<linearGradient id="SVGID_38_" gradientUnits="userSpaceOnUse" x1="419.3253" y1="142.4174" x2="493.7109" y2="142.4174">
		<stop  offset="0" style="stop-color:#E5700F"/>
		<stop  offset="1" style="stop-color:#FEBA1C"/>
	</linearGradient>
	<path class="st39" d="M456.7,133.7c10.1,0,20.3,0,30.4,0c4.2,0,6.6,3.1,6.6,8.4c0,4.3-1.2,7.3-3.9,8.3c-1.3,0.5-2.6,0.6-4,0.6
		c-19.5,0-39.1,0-58.6,0c-5.2,0-7.8-2.8-7.9-8.5c-0.1-5.9,2.6-9,7.9-9C437.1,133.7,446.9,133.7,456.7,133.7
		C456.7,133.7,456.7,133.7,456.7,133.7z"/>
	<linearGradient id="SVGID_39_" gradientUnits="userSpaceOnUse" x1="312.8137" y1="263.4647" x2="382.8883" y2="263.4647">
		<stop  offset="0" style="stop-color:#E5700F"/>
		<stop  offset="1" style="stop-color:#FEBA1C"/>
	</linearGradient>
	<path class="st40" d="M347.6,272.1c-9,0-18,0-27,0c-1.2,0-2.5-0.1-3.7-0.5c-2.5-0.8-3.9-3.5-4.1-7.6c-0.2-4.3,1.1-7.3,3.7-8.5
		c1.2-0.5,2.4-0.7,3.6-0.7c18.4,0,36.8,0,55.3,0c1,0,2.1,0,3,0.4c2.8,1,4.7,4.6,4.4,8.7c-0.3,4.4-1.8,7.5-4.6,7.9
		c-2.7,0.4-5.5,0.3-8.3,0.4C362.5,272.2,355,272.1,347.6,272.1z"/>
	<linearGradient id="SVGID_40_" gradientUnits="userSpaceOnUse" x1="402.0961" y1="440.7835" x2="438.9725" y2="440.7835">
		<stop  offset="0" style="stop-color:#E5700F"/>
		<stop  offset="1" style="stop-color:#FEBA1C"/>
	</linearGradient>
	<path class="st41" d="M439,418.9c-0.5,1.1-1.3,4.6-2.6,5.4c-8.7,5.2-13.8,16.7-18.9,28.1c-2.1,4.6-3.5,10-5.1,15.1
		c-1.3,4.3-3.7,6.6-6.5,5.3c-2.6-1.2-4.6-5.6-3.6-10c1.2-5.7,2.6-11.7,4.8-16.4c4.5-9.7,9.3-19.2,14.7-27.8
		c2.8-4.4,6.8-7.3,10.5-9.6C435.7,406.8,439,411.3,439,418.9z"/>
	<linearGradient id="SVGID_41_" gradientUnits="userSpaceOnUse" x1="444.3702" y1="223.1514" x2="493.745" y2="223.1514">
		<stop  offset="0" style="stop-color:#E5700F"/>
		<stop  offset="1" style="stop-color:#FEBA1C"/>
	</linearGradient>
	<path class="st42" d="M469,231.8c-5.8,0-11.7,0.1-17.5,0c-1.3,0-2.7-0.2-3.9-0.9c-2.3-1.5-3.5-4.6-3.2-8.7c0.3-3.8,1.6-6.4,4-7.2
		c1-0.4,2-0.4,3-0.4c11.7,0,23.3-0.1,35,0c1.5,0,3.1,0.2,4.5,1.2c2.5,1.8,3.2,5.5,2.6,9.6c-0.7,4.5-2.8,6.4-5.5,6.4
		C481.7,231.9,475.3,231.8,469,231.8z"/>
</g>
<g class="st0">
	<g class="st9">
		<g>
			<linearGradient id="SVGID_42_" gradientUnits="userSpaceOnUse" x1="25.683" y1="283.7875" x2="537.6835" y2="283.7875">
				<stop  offset="0" style="stop-color:#E5700F"/>
				<stop  offset="1" style="stop-color:#FEBA1C"/>
			</linearGradient>
			<path class="st43" d="M528.3,160.4c-14.6-7.6-46.5-7.5-59.1,8.2c-4.8,6-9.3,11.8-14,17.8c-12.2,15.8-26.1,33.7-51.5,62.8
				c-5.7,6.5-13.1,11.9-21.7,16.4c0.3-1.3,0.5-2.6,0.6-3.9c0.9-10.6-4-20.8-12.6-26.7c-10.2-7-24-7.2-37.8-0.4
				c-17.7,8.6-37.4,8.5-56.5,8.4c-2.3,0-4.6,0-6.8,0c-8.1,0-16.4-3.5-26.1-7.6c-13.1-5.5-28-11.8-47.4-11.8
				c-21.9,0-43.2,12.9-56.6,22.9v-4.1c0-4.5-3.6-8.1-8.1-8.1h-97c-4.5,0-8.1,3.6-8.1,8.1V404c0,4.5,3.6,8.1,8.1,8.1h97
				c4.5,0,8.1-3.6,8.1-8.1v-15.5c35,4.9,66.5,6.8,94.8,6.8c56.8,0,101-7.8,135.9-15.8c33.6-7.7,96.3-73.4,131.4-138
				c6.6-12.1,13.6-23.7,19.7-33.9c8.5-14.1,14.7-24.2,16.5-30.4C537.9,174.8,539.4,166.2,528.3,160.4z M122.7,395.9H41.8V250.4h80.8
				C122.7,250.4,122.7,395.9,122.7,395.9z M506.9,199.3c-6.2,10.3-13.3,22-20.1,34.5c-35.2,64.8-94.9,124-120.8,130
				c-51.3,11.7-123.3,23.1-227.2,8.4V267.4c7.7-6.9,32.7-27.7,56.6-27.7c16.2,0,28.9,5.4,41.2,10.5c10.8,4.6,21.1,8.9,32.4,8.9
				c2.2,0,4.5,0,6.7,0c19.9,0.1,42.6,0.3,63.7-10c8.4-4.1,16.2-4.4,21.6-0.7c3.9,2.7,6.1,7.2,5.6,12.1c-0.5,6.5-5.6,12.5-13.8,16.4
				c-41.8,11.4-94.4,11.4-125,11.4c-4.5,0-8.1,3.6-8.1,8.1s3.6,8.1,8.1,8.1c30.2,0,65.3-0.4,99.2-5.7c42.9-6.7,72.1-19.3,89-38.7
				c25.8-29.4,39.8-47.6,52.1-63.5c4.7-6,9.1-11.7,13.8-17.6c3.2-4,11-6.7,20.5-7c8.7-0.3,15.7,1.5,18.5,3
				C518.7,179.8,512.9,189.3,506.9,199.3z"/>
			<linearGradient id="SVGID_43_" gradientUnits="userSpaceOnUse" x1="312.467" y1="137.803" x2="339.406" y2="137.803">
				<stop  offset="0" style="stop-color:#E5700F"/>
				<stop  offset="1" style="stop-color:#FEBA1C"/>
			</linearGradient>
			<path class="st44" d="M325.9,151.3c7.4,0,13.5-6,13.5-13.5c0-7.4-6-13.5-13.5-13.5c-7.4,0-13.5,6-13.5,13.5
				C312.5,145.2,318.5,151.3,325.9,151.3z"/>
			<linearGradient id="SVGID_44_" gradientUnits="userSpaceOnUse" x1="211.188" y1="170.7011" x2="382.4818" y2="170.7011">
				<stop  offset="0" style="stop-color:#E5700F"/>
				<stop  offset="1" style="stop-color:#FEBA1C"/>
			</linearGradient>
			<path class="st45" d="M219.3,260.2h30.5c4.5,0,8.1-3.6,8.1-8.1v-7.2h7.2c2.1,0,8.1-3,8.1-8.1v-7.2h7.2c4.5,0,8.1-3.6,8.1-8.1
				v-7.2h7.2c2.1,0,4.2-0.9,5.7-2.4l18.1-18.1c2.2,0.3,4.4,0.4,6.7,0.4c0,0,0,0,0,0c15.1,0,29.3-5.9,40-16.6
				c22.1-22.1,22.1-57.9,0-80c-10.7-10.7-24.9-16.6-40-16.6c-15.1,0-29.3,5.9-40,16.6c-15.5,15.5-20.5,38.6-13.3,59l-59.1,59.1
				c-1.5,1.5-2.4,3.6-2.4,5.7v30.5C211.2,256.6,214.8,260.2,219.3,260.2z M227.3,225l60.5-60.5c2.4-2.4,3.1-6.1,1.6-9.2
				c-7.4-15.4-4.2-33.9,7.9-46c7.6-7.6,17.8-11.8,28.6-11.8c10.8,0,20.9,4.2,28.6,11.8c15.8,15.8,15.8,41.4,0,57.1
				c-7.6,7.6-17.8,11.8-28.6,11.8c0,0,0,0,0,0c-2.6,0-5.3-0.3-7.9-0.8c-2.6-0.5-5.4,0.3-7.3,2.2l-18.6,18.6h-11.9
				c-4.5,0-8.1,3.6-8.1,8.1v7.2H265c-4.5,0-8.1,3.6-8.1,8.1v7.2h-7.2h0c-4.2,0-8.1,3.5-8.1,8.1v7.2h-14.3L227.3,225L227.3,225z"/>
			<linearGradient id="SVGID_45_" gradientUnits="userSpaceOnUse" x1="38.784" y1="385.631" x2="65.723" y2="385.631">
				<stop  offset="0" style="stop-color:#E5700F"/>
				<stop  offset="1" style="stop-color:#FEBA1C"/>
			</linearGradient>
			<path class="st46" d="M52.3,399.1c7.4,0,13.5-6,13.5-13.5c0-7.4-6-13.5-13.5-13.5c-7.4,0-13.5,6-13.5,13.5
				C38.8,393.1,44.8,399.1,52.3,399.1z"/>
		</g>
	</g>
</g>
<linearGradient id="SVGID_46_" gradientUnits="userSpaceOnUse" x1="168.3669" y1="271.5915" x2="234.7818" y2="271.5915">
	<stop  offset="0" style="stop-color:#E5700F"/>
	<stop  offset="1" style="stop-color:#FEBA1C"/>
</linearGradient>
<path class="st47" d="M233.1,262.5c-2.6-3.2-7.4-3.7-10.6-1c-5.3,4.4-12.9,6.9-20.9,6.9c-8,0-15.6-2.5-20.9-6.9
	c-3.2-2.6-7.9-2.2-10.6,1c-2.6,3.2-2.2,7.9,1,10.6c8.1,6.6,18.9,10.3,30.5,10.3c11.6,0,22.4-3.6,30.5-10.3
	C235.2,270.5,235.7,265.7,233.1,262.5z"/>
<linearGradient id="SVGID_47_" gradientUnits="userSpaceOnUse" x1="151.23" y1="220.1776" x2="166.23" y2="220.1776">
	<stop  offset="0" style="stop-color:#E5700F"/>
	<stop  offset="1" style="stop-color:#FEBA1C"/>
</linearGradient>
<path class="st48" d="M158.7,208.4c-4.1,0-7.5,3.4-7.5,7.5v8.6c0,4.1,3.4,7.5,7.5,7.5s7.5-3.4,7.5-7.5v-8.6
	C166.2,211.8,162.9,208.4,158.7,208.4z"/>
<linearGradient id="SVGID_48_" gradientUnits="userSpaceOnUse" x1="236.919" y1="220.1776" x2="251.919" y2="220.1776">
	<stop  offset="0" style="stop-color:#E5700F"/>
	<stop  offset="1" style="stop-color:#FEBA1C"/>
</linearGradient>
<path class="st49" d="M244.4,232c4.1,0,7.5-3.4,7.5-7.5v-8.6c0-4.1-3.4-7.5-7.5-7.5s-7.5,3.4-7.5,7.5v8.6
	C236.9,228.6,240.3,232,244.4,232z"/>
<linearGradient id="SVGID_49_" gradientUnits="userSpaceOnUse" x1="48.402" y1="275.876" x2="320.471" y2="275.876">
	<stop  offset="0" style="stop-color:#E5700F"/>
	<stop  offset="1" style="stop-color:#FEBA1C"/>
</linearGradient>
<path class="st50" d="M141.5,370l6.4-3.2c11.3-5.7,18.4-17,18.4-29.7v-8.7c11.3,4.2,23.3,6.3,35.5,6.3c7,0,14.1-0.7,21.2-2.1
	c22.6-4.6,43.1-17.3,57.8-35.6c14.6-18.3,22.6-41.1,22.6-64.2c-0.1-44.4-33.8-52.2-72.8-61.3c-19-4.4-40.5-9.4-62-19.2
	c-7.1-3.2-15.5-1-19.9,5.4c-14.6,21-30,33.6-41.3,33.6c-3.4,0-6.7,0.7-9.6,2v-20.2c0-57.3,46.6-103.9,103.9-103.9
	s103.9,46.6,103.9,103.9v17.1c0,4.1,3.4,7.5,7.5,7.5c4.1,0,7.5-3.4,7.5-7.5v-17.1c0-44.2-24.3-82.9-60.2-103.4
	c0.1-1.3,0.2-2.5,0.2-3.8c0-25.4-26.4-46.1-58.9-46.1c-32.5,0-58.9,20.7-58.9,46.1c0,1.3,0.1,2.5,0.2,3.8
	C106.9,90.2,82.7,128.8,82.7,173v42.8c0,11,7.3,20.4,17.3,23.5c1.8,28.3,15.1,54.4,37.2,72.5c4.4,3.6,9.1,6.8,14,9.6v15.7
	c0,6.9-3.9,13.2-10.1,16.3l-74.4,37.2c-11.3,5.7-18.4,17-18.4,29.7v35.5c0,6.2,3.5,11.5,8.6,14.2v54.4c0,4.1,3.4,7.5,7.5,7.5
	s7.5-3.4,7.5-7.5v-52.5h27.8v52.5c0,4.1,3.4,7.5,7.5,7.5s7.5-3.4,7.5-7.5v-77.1c0-4.1-3.4-7.5-7.5-7.5s-7.5,3.4-7.5,7.5v9.6H64.5
	c-0.6,0-1.1-0.5-1.1-1.1v-35.5c0-6.9,3.9-13.2,10.1-16.3l54.6-27.3c11.2,20,33.1,40.8,34.1,41.7c1.4,1.4,3.3,2,5.1,2
	c2,0,4-0.8,5.5-2.4c2.8-3,2.7-7.8-0.3-10.6C172.2,407.3,151.6,387.8,141.5,370z M201.6,34.9c22.5,0,41.2,12.1,43.6,27.6
	c-13.5-5.3-28.2-8.3-43.6-8.3c-15.4,0-30.1,2.9-43.6,8.3C160.4,47,179,34.9,201.6,34.9z M146.7,300.3
	c-20.3-16.6-31.9-41.1-31.9-67.2c0-4.1-3.4-7.5-7.5-7.5c-5.3,0-9.6-4.3-9.6-9.6s4.3-9.6,9.6-9.6c22.5,0,43.3-25.1,53.6-40.1
	c0.2-0.3,0.5-0.4,0.8-0.4c0.2,0,0.4,0.1,0.6,0.1l0,0c22.8,10.3,45.1,15.5,64.7,20.1c41.3,9.6,61.1,15.6,61.2,46.8
	c0.1,19.7-6.8,39.2-19.3,54.8c-12.5,15.6-30,26.4-49.1,30.3C193.7,323.3,167,316.8,146.7,300.3z"/>
<linearGradient id="SVGID_50_" gradientUnits="userSpaceOnUse" x1="185.5452" y1="400.1467" x2="448.9652" y2="400.1467">
	<stop  offset="0" style="stop-color:#E5700F"/>
	<stop  offset="1" style="stop-color:#FEBA1C"/>
</linearGradient>
<path class="st51" d="M424.2,293.2c-33-33-86.7-33-119.7,0l-94.3,94.3c-33,33-33,86.7,0,119.7c16.5,16.5,38.2,24.7,59.8,24.7
	c21.2,0,42.3-7.9,58.7-23.6l12,20c2.1,3.6,6.7,4.7,10.3,2.6c3.6-2.1,4.7-6.7,2.6-10.3l-23.2-38.7c-2.9-4.8-8.2-7.8-13.8-7.8h-12.3
	c-7.5,0-14.8-3.2-19.8-8.8c-5.1-5.6-7.6-13-6.8-20.7c1.3-13.5,13.6-24.1,28.1-24.1h15.8c13,0,24.9,7.1,31.1,18.6l47.9,88.9
	c1.4,2.5,3.9,3.9,6.6,3.9c1.2,0,2.4-0.3,3.5-0.9c3.6-2,5-6.5,3-10.2l-34.2-63.4l44.5-44.5C457.2,379.8,457.2,326.2,424.2,293.2z
	 M262.8,443.2c-1.1,11.8,2.8,23.5,10.7,32.2c7.9,8.7,19.2,13.7,30.9,13.7h12.3c0.4,0,0.7,0.2,0.9,0.5l3.3,5.4l-1.5,1.5
	c-27.1,27.1-71.3,27.1-98.5,0c-27.1-27.1-27.1-71.3,0-98.5l22.3-22.3c7.6,7.5,22.5,21.7,40.5,35.7
	C272.2,418.2,264.1,429.7,262.8,443.2z M372.2,443.6L366,432c-8.8-16.3-25.8-26.5-44.3-26.5h-15.8c-1.7,0-3.3,0.1-5,0.3
	c-20.6-15.1-38.6-32.2-47.1-40.6l61.4-61.4c27.1-27.1,71.3-27.1,98.5,0c13.1,13.1,20.4,30.6,20.4,49.2s-7.2,36.1-20.4,49.2
	L372.2,443.6z"/>
<linearGradient id="SVGID_51_" gradientUnits="userSpaceOnUse" x1="314.0642" y1="352.9958" x2="414.7057" y2="352.9958">
	<stop  offset="0" style="stop-color:#E5700F"/>
	<stop  offset="1" style="stop-color:#FEBA1C"/>
</linearGradient>
<path class="st52" d="M400,317.4c-19.6-19.6-51.6-19.6-71.2,0c-19.6,19.6-19.6,51.6,0,71.2c9.8,9.8,22.7,14.7,35.6,14.7
	c12.9,0,25.8-4.9,35.6-14.7C419.6,369,419.6,337,400,317.4z M389.4,378c-13.8,13.8-36.2,13.8-50,0s-13.8-36.2,0-50
	c6.9-6.9,15.9-10.3,25-10.3s18.1,3.4,25,10.3C403.2,341.8,403.2,364.2,389.4,378z"/>
<linearGradient id="SVGID_52_" gradientUnits="userSpaceOnUse" x1="344.703" y1="340.876" x2="359.703" y2="340.876">
	<stop  offset="0" style="stop-color:#E5700F"/>
	<stop  offset="1" style="stop-color:#FEBA1C"/>
</linearGradient>
<circle class="st53" cx="352.2" cy="340.9" r="7.5"/>
<linearGradient id="SVGID_53_" gradientUnits="userSpaceOnUse" x1="368.953" y1="365.0461" x2="383.953" y2="365.0461">
	<stop  offset="0" style="stop-color:#E5700F"/>
	<stop  offset="1" style="stop-color:#FEBA1C"/>
</linearGradient>
<circle class="st54" cx="376.5" cy="365" r="7.5"/>
<linearGradient id="SVGID_54_" gradientUnits="userSpaceOnUse" x1="1" y1="350.5001" x2="245.057" y2="350.5001">
	<stop  offset="0" style="stop-color:#E5700F"/>
	<stop  offset="1" style="stop-color:#FEBA1C"/>
</linearGradient>
<path class="st55" d="M206.1,405.1h-23.4l0-17.2c19.1-16.7,31.1-41.2,31.1-68.4v-29.9c6.1-30.6,3.3-53.3-8.3-67.5
	c-7.3-8.9-16.4-12.3-22.8-13.6V174c0-4.3-3.5-7.8-7.8-7.8c-3,0-6,0-9.1,0c-3.2,0-6.5,0-9.8,0c-37.6,0-79.8,2.4-104.8,30.8
	c-18,20.4-24.3,50.6-19.1,92.2v30.3c0,27.3,12.1,51.8,31.2,68.4v17.2H39.9C18.5,405.1,1,422.5,1,444v83.1c0,4.3,3.5,7.8,7.8,7.8
	h228.5c4.3,0,7.8-3.5,7.8-7.8V444c0,0,0,0,0,0C245.1,422.5,227.6,405.1,206.1,405.1z M167.2,408.7l-23.9,15.9l-12.4-6.2v-8.5
	c13.1-1.1,25.4-5,36.4-11.1L167.2,408.7z M62.9,207.2c20.8-23.5,59-25.5,93.1-25.5c3.3,0,6.5,0,9.7,0c0.5,0,0.9,0,1.4,0v33.8
	c0,2.1,0.9,4.2,2.4,5.7c1.6,1.5,3.6,2.2,5.8,2.1c0.7,0,11-0.2,18.2,8.6c5.3,6.5,8,16.4,7.9,29.3l-3.4-6.8c-1.7-3.4-5.7-5.1-9.3-3.9
	c-0.5,0.1-46.6,14.8-73.2,14.8c-25.5,0-48.6-13.8-48.9-14c-3.4-2.1-7.9-1.2-10.3,2L46.1,267C45.4,240.7,51.1,220.6,62.9,207.2z
	 M47.7,319.4v-28.7L64.8,268c9.6,4.8,29.1,12.9,50.7,12.9c23.1,0,57.4-9.4,71.6-13.5l11.2,22.5v29.6c0,41.5-33.8,75.3-75.3,75.3
	C81.5,394.7,47.7,360.9,47.7,319.4z M115.2,409.9v8l-16.8,6.7l-19.5-15.6v-10.3C89.8,404.9,102.1,408.8,115.2,409.9z M229.5,519.3
	h-36.3v-23.4c0-4.3-3.5-7.8-7.8-7.8s-7.8,3.5-7.8,7.8v23.4H68.5v-23.4c0-4.3-3.5-7.8-7.8-7.8s-7.8,3.5-7.8,7.8v23.4H16.6V444
	c0-12.9,10.5-23.4,23.4-23.4h28.4l23.8,19.1c0.1,0.1,0.2,0.1,0.2,0.1c0.2,0.2,0.4,0.3,0.7,0.4c0.1,0.1,0.3,0.2,0.4,0.2
	c0.2,0.1,0.4,0.2,0.7,0.3c0.2,0.1,0.3,0.1,0.5,0.2c0.3,0.1,0.5,0.1,0.8,0.2c0.1,0,0.3,0.1,0.4,0.1c0.4,0.1,0.8,0.1,1.2,0.1
	c0.3,0,0.5,0,0.8,0c0,0,0.1,0,0.1,0c0.2,0,0.4-0.1,0.6-0.1c0.1,0,0.2,0,0.3-0.1c0.2,0,0.3-0.1,0.5-0.1c0.1,0,0.2-0.1,0.3-0.1
	c0.1,0,0.1,0,0.2-0.1l22.7-9.1l17.5,8.7c0,0,0,0,0,0l0.1,0.1c0.1,0.1,0.2,0.1,0.3,0.1c0.2,0.1,0.3,0.1,0.5,0.2
	c0.2,0.1,0.4,0.1,0.6,0.2c0.1,0,0.2,0.1,0.3,0.1c0.3,0.1,0.6,0.1,0.8,0.2c0,0,0,0,0.1,0c0.3,0,0.6,0.1,0.9,0.1c0.4,0,0.7,0,1.1-0.1
	c0.2,0,0.3-0.1,0.5-0.1c0.2,0,0.4-0.1,0.6-0.1c0.2,0,0.3-0.1,0.5-0.2c0.2-0.1,0.4-0.1,0.6-0.2c0.1-0.1,0.3-0.1,0.4-0.2
	c0.2-0.1,0.4-0.2,0.6-0.3c0,0,0.1,0,0.1-0.1l29.2-19.5h28.8c12.9,0,23.4,10.5,23.4,23.4c0,0,0,0,0,0L229.5,519.3L229.5,519.3z"/>
<linearGradient id="SVGID_55_" gradientUnits="userSpaceOnUse" x1="260.637" y1="340.13" x2="504.695" y2="340.13">
	<stop  offset="0" style="stop-color:#E5700F"/>
	<stop  offset="1" style="stop-color:#FEBA1C"/>
</linearGradient>
<path class="st56" d="M504.7,267.4C504.7,267.4,504.7,267.4,504.7,267.4c0-67.3-54.8-122-122-122c-67.3,0-122,54.7-122,122v187v72.7
	c0,4.3,3.5,7.8,7.8,7.8h228.5c4.3,0,7.8-3.5,7.8-7.8v-72.7c0,0,0,0,0,0V267.4L504.7,267.4z M382.7,161
	c58.7,0,106.5,47.8,106.5,106.4c0,0,0,0,0,0v155.8c-6.5-4.9-14.6-7.8-23.4-7.8h-30.9c-0.1,0-0.2,0-0.3,0s-0.2,0-0.3,0h-12.7l0-14
	c30.7-14.6,51.9-45.9,51.9-82.1v-41.6c0-4.3-3.5-7.8-7.8-7.8h-13v-13c0-4.3-3.5-7.8-7.8-7.8s-7.8,3.5-7.8,7.8v13h-15.6v-13
	c0-4.3-3.5-7.8-7.8-7.8s-7.8,3.5-7.8,7.8v13h-15.6v-13c0-4.3-3.5-7.8-7.8-7.8s-7.8,3.5-7.8,7.8v13h-15.6v-13c0-4.3-3.5-7.8-7.8-7.8
	s-7.8,3.5-7.8,7.8v13h-15.6v-13c0-4.3-3.5-7.8-7.8-7.8s-7.8,3.5-7.8,7.8v13h-13c-4.3,0-7.8,3.5-7.8,7.8v41.6
	c0,36.2,21.3,67.5,51.9,82.1v14H331c-0.1,0-0.2,0-0.3,0c-0.1,0-0.2,0-0.3,0h-30.9c-8.8,0-16.9,2.9-23.4,7.8V267.4
	C276.2,208.7,324,161,382.7,161z M307.4,285.6H458v33.8c0,41.5-33.8,75.3-75.3,75.3c-41.5,0-75.3-33.8-75.3-75.3L307.4,285.6
	L307.4,285.6z M351.5,431c4.3,0,7.8-3.5,7.8-7.8v-16c7.5,2,15.3,3,23.4,3c8.1,0,15.9-1.1,23.4-3.1l0,16v0c0,0,0,0,0,0
	c0,0.1,0,0.3,0,0.4c0,0.1,0,0.3,0,0.4c0,0.1,0,0.2,0.1,0.4c0,0.1,0,0.3,0.1,0.4c0,0.1,0.1,0.2,0.1,0.4c0,0.1,0.1,0.3,0.1,0.4
	c0,0.1,0.1,0.3,0.1,0.4c0,0.1,0.1,0.2,0.1,0.3c0.1,0.2,0.2,0.4,0.3,0.5c0,0,0,0.1,0.1,0.1c1.1,2,3,3.4,5.3,3.9c0,0,0,0,0,0
	c0.2,0,0.4,0.1,0.6,0.1c0.1,0,0.1,0,0.2,0c0.2,0,0.3,0,0.5,0c0.1,0,0.2,0,0.3,0c0,0,0,0,0,0h12.3c-3.7,20.6-21.8,36.3-43.4,36.3
	c-21.7,0-39.7-15.7-43.4-36.3L351.5,431L351.5,431z M489.1,519.3h-36.3v-23.4c0-4.3-3.5-7.8-7.8-7.8s-7.8,3.5-7.8,7.8v23.4H328.1
	v-23.4c0-4.3-3.5-7.8-7.8-7.8s-7.8,3.5-7.8,7.8v23.4h-36.3v-64.9c0-12.9,10.5-23.4,23.4-23.4h23.9c3.8,29.3,28.9,51.9,59.2,51.9
	c30.3,0,55.4-22.7,59.2-51.9h23.9c12.9,0,23.4,10.5,23.4,23.3c0,0,0,0,0,0L489.1,519.3L489.1,519.3z"/>
<g class="st0">
	<linearGradient id="SVGID_56_" gradientUnits="userSpaceOnUse" x1="250.8096" y1="92.5629" x2="342.5977" y2="92.5629">
		<stop  offset="0" style="stop-color:#E5700F"/>
		<stop  offset="1" style="stop-color:#FEBA1C"/>
	</linearGradient>
	<path class="st57" d="M328.3,37.3C319,28.1,306.7,23,293.6,23c-13.1,0-25.3,5.1-34.6,14.3c-0.5,0.5-0.9,1.1-1.1,1.8
		c-0.3,1.2-0.1,2.5,0.7,3.4l8.3,11.5l-13.9,18c-1.3,1.7-1,4.1,0.6,5.5l16.1,13.1L256,108.6c-1.1,1.4-1.1,3.3,0,4.8l11.8,15.8
		l-15.1,9.3c-1,0.6-1.7,1.7-1.9,2.9c-0.1,1.2,0.3,2.4,1.1,3.3l16.3,16.3c0.7,0.7,1.8,1.2,2.8,1.2c0.1,0,0.2,0,0.2,0
		c1-0.1,1.9-0.5,2.6-1.2l54.4-54.4c9.2-9.2,14.3-21.5,14.3-34.6C342.6,58.9,337.5,46.6,328.3,37.3L328.3,37.3z M322.7,101
		l-51.6,51.6l-10-10l14.5-9c0.9-0.6,1.6-1.5,1.8-2.6c0.2-1.1-0.1-2.2-0.7-3.1L264.1,111l14.2-18.6c1.3-1.7,1-4.1-0.6-5.5l-16.1-13.1
		L275,56.6c1.1-1.4,1.1-3.3,0.1-4.7l-8-11.2c7.4-6.3,16.7-9.8,26.6-9.8c11,0,21.3,4.3,29,12c7.8,7.8,12,18.1,12,29
		S330.4,93.2,322.7,101L322.7,101z M322.7,101"/>
	<g class="st9">
		<linearGradient id="SVGID_57_" gradientUnits="userSpaceOnUse" x1="152.847" y1="97.1766" x2="250.9454" y2="97.1766">
			<stop  offset="0" style="stop-color:#E5700F"/>
			<stop  offset="1" style="stop-color:#FEBA1C"/>
		</linearGradient>
		<path class="st58" d="M232.9,142.6l14.5-9c0.9-0.6,1.6-1.5,1.8-2.6c0.2-1.1,0-2.2-0.7-3.1L235.9,111l14.2-18.6
			c1.3-1.7,1-4.1-0.6-5.5l-16.1-13.1l13.4-17.3c1.1-1.4,1.1-3.3,0.1-4.7l-7.2-10.1c-3.5-4.9-7.8-8.9-12.8-11.9
			c-19.3-11.4-43.8-8.4-59.6,7.5c-9.2,9.2-14.3,21.5-14.3,34.6c0,13.1,5.1,25.4,14.3,34.6l63.6,63.6c0.8,0.8,1.8,1.2,2.8,1.2
			s2-0.4,2.8-1.2l9.2-9.2c0.4-0.3,0.6-0.7,0.9-1.2c0.7-1.5,0.4-3.3-0.8-4.5L232.9,142.6z M233.6,161.8L172.8,101
			c-7.8-7.8-12-18.1-12-29s4.3-21.3,12-29c7.9-7.9,18.4-12,29-12c7.2,0,14.4,1.9,20.9,5.8c4,2.4,7.6,5.7,10.5,9.7l5.5,7.7l-13.9,18
			c-1.3,1.7-1,4.1,0.6,5.5l16.1,13.1l-13.7,17.9c-1.1,1.4-1.1,3.3,0,4.8l11.8,15.8l-15.1,9.3c-1,0.6-1.7,1.7-1.9,2.9
			c-0.1,1.2,0.3,2.4,1.1,3.3l13.5,13.5L233.6,161.8z M233.6,161.8"/>
	</g>
</g>
<linearGradient id="SVGID_58_" gradientUnits="userSpaceOnUse" x1="167.5309" y1="272.5915" x2="233.9458" y2="272.5915">
	<stop  offset="0" style="stop-color:#E5700F"/>
	<stop  offset="1" style="stop-color:#FEBA1C"/>
</linearGradient>
<path class="st59" d="M232.2,263.5c-2.6-3.2-7.4-3.7-10.6-1c-5.3,4.4-12.9,6.9-20.9,6.9c-8,0-15.6-2.5-20.9-6.9
	c-3.2-2.6-7.9-2.2-10.6,1c-2.6,3.2-2.2,7.9,1,10.6c8.1,6.6,18.9,10.3,30.5,10.3c11.6,0,22.4-3.6,30.5-10.3
	C234.4,271.5,234.9,266.7,232.2,263.5z"/>
<linearGradient id="SVGID_59_" gradientUnits="userSpaceOnUse" x1="150.394" y1="221.1776" x2="165.394" y2="221.1776">
	<stop  offset="0" style="stop-color:#E5700F"/>
	<stop  offset="1" style="stop-color:#FEBA1C"/>
</linearGradient>
<path class="st60" d="M157.9,209.4c-4.1,0-7.5,3.4-7.5,7.5v8.6c0,4.1,3.4,7.5,7.5,7.5s7.5-3.4,7.5-7.5v-8.6
	C165.4,212.8,162,209.4,157.9,209.4z"/>
<linearGradient id="SVGID_60_" gradientUnits="userSpaceOnUse" x1="236.083" y1="221.1776" x2="251.083" y2="221.1776">
	<stop  offset="0" style="stop-color:#E5700F"/>
	<stop  offset="1" style="stop-color:#FEBA1C"/>
</linearGradient>
<path class="st61" d="M243.6,233c4.1,0,7.5-3.4,7.5-7.5v-8.6c0-4.1-3.4-7.5-7.5-7.5s-7.5,3.4-7.5,7.5v8.6
	C236.1,229.6,239.4,233,243.6,233z"/>
<linearGradient id="SVGID_61_" gradientUnits="userSpaceOnUse" x1="47.566" y1="276.876" x2="319.635" y2="276.876">
	<stop  offset="0" style="stop-color:#E5700F"/>
	<stop  offset="1" style="stop-color:#FEBA1C"/>
</linearGradient>
<path class="st62" d="M140.6,371l6.4-3.2c11.3-5.7,18.4-17,18.4-29.7v-8.7c11.3,4.2,23.3,6.3,35.5,6.3c7,0,14.1-0.7,21.2-2.1
	c22.6-4.6,43.1-17.3,57.8-35.6c14.6-18.3,22.6-41.1,22.6-64.2c-0.1-44.4-33.8-52.2-72.8-61.3c-19-4.4-40.5-9.4-62-19.2
	c-7.1-3.2-15.5-1-19.9,5.4c-14.6,21-30,33.6-41.3,33.6c-3.4,0-6.7,0.7-9.6,2v-20.2c0-57.3,46.6-103.9,103.9-103.9
	s103.9,46.6,103.9,103.9v17.1c0,4.1,3.4,7.5,7.5,7.5c4.1,0,7.5-3.4,7.5-7.5v-17.1c0-44.2-24.3-82.9-60.2-103.4
	c0.1-1.3,0.2-2.5,0.2-3.8c0-25.4-26.4-46.1-58.9-46.1c-32.5,0-58.9,20.7-58.9,46.1c0,1.3,0.1,2.5,0.2,3.8
	C106.1,91.2,81.8,129.8,81.8,174v42.8c0,11,7.3,20.4,17.3,23.5c1.8,28.3,15.1,54.4,37.2,72.5c4.4,3.6,9.1,6.8,14,9.6v15.7
	c0,6.9-3.9,13.2-10.1,16.3l-74.4,37.2c-11.3,5.7-18.4,17-18.4,29.7v35.5c0,6.2,3.5,11.5,8.6,14.2v54.4c0,4.1,3.4,7.5,7.5,7.5
	s7.5-3.4,7.5-7.5v-52.5H99v52.5c0,4.1,3.4,7.5,7.5,7.5s7.5-3.4,7.5-7.5v-77.1c0-4.1-3.4-7.5-7.5-7.5s-7.5,3.4-7.5,7.5v9.6H63.6
	c-0.6,0-1.1-0.5-1.1-1.1v-35.5c0-6.9,3.9-13.2,10.1-16.3l54.6-27.3c11.2,20,33.1,40.8,34.1,41.7c1.4,1.4,3.3,2,5.1,2
	c2,0,4-0.8,5.5-2.4c2.8-3,2.7-7.8-0.3-10.6C171.4,408.3,150.8,388.8,140.6,371z M200.7,35.9c22.5,0,41.2,12.1,43.6,27.6
	c-13.5-5.3-28.2-8.3-43.6-8.3c-15.4,0-30.1,2.9-43.6,8.3C159.6,48,178.2,35.9,200.7,35.9z M145.9,301.3
	C125.6,284.7,114,260.2,114,234c0-4.1-3.4-7.5-7.5-7.5c-5.3,0-9.6-4.3-9.6-9.6s4.3-9.6,9.6-9.6c22.5,0,43.3-25.1,53.6-40.1
	c0.2-0.3,0.5-0.4,0.8-0.4c0.2,0,0.4,0.1,0.6,0.1l0,0c22.8,10.3,45.1,15.5,64.7,20.1c41.3,9.6,61.1,15.6,61.2,46.8
	c0.1,19.7-6.8,39.2-19.3,54.8c-12.5,15.6-30,26.4-49.1,30.3C192.9,324.3,166.2,317.8,145.9,301.3z"/>
<linearGradient id="SVGID_62_" gradientUnits="userSpaceOnUse" x1="184.7092" y1="401.1467" x2="448.1292" y2="401.1467">
	<stop  offset="0" style="stop-color:#E5700F"/>
	<stop  offset="1" style="stop-color:#FEBA1C"/>
</linearGradient>
<path class="st63" d="M423.4,294.2c-33-33-86.7-33-119.7,0l-94.3,94.3c-33,33-33,86.7,0,119.7c16.5,16.5,38.2,24.7,59.8,24.7
	c21.2,0,42.3-7.9,58.7-23.6l12,20c2.1,3.6,6.7,4.7,10.3,2.6c3.6-2.1,4.7-6.7,2.6-10.3l-23.2-38.7c-2.9-4.8-8.2-7.8-13.8-7.8h-12.3
	c-7.5,0-14.8-3.2-19.8-8.8c-5.1-5.6-7.6-13-6.8-20.7c1.3-13.5,13.6-24.1,28.1-24.1h15.8c13,0,24.9,7.1,31.1,18.6l47.9,88.9
	c1.4,2.5,3.9,3.9,6.6,3.9c1.2,0,2.4-0.3,3.5-0.9c3.6-2,5-6.5,3-10.2l-34.2-63.4l44.5-44.5C456.4,380.8,456.4,327.2,423.4,294.2z
	 M262,444.2c-1.1,11.8,2.8,23.5,10.7,32.2c7.9,8.7,19.2,13.7,30.9,13.7h12.3c0.4,0,0.7,0.2,0.9,0.5l3.3,5.4l-1.5,1.5
	c-27.1,27.1-71.3,27.1-98.5,0c-27.1-27.1-27.1-71.3,0-98.5l22.3-22.3c7.6,7.5,22.5,21.7,40.5,35.7
	C271.4,419.2,263.3,430.7,262,444.2z M371.4,444.6l-6.3-11.6c-8.8-16.3-25.8-26.5-44.3-26.5H305c-1.7,0-3.3,0.1-5,0.3
	c-20.6-15.1-38.6-32.2-47.1-40.6l61.4-61.4c27.1-27.1,71.3-27.1,98.5,0c13.1,13.1,20.4,30.6,20.4,49.2s-7.2,36.1-20.4,49.2
	L371.4,444.6z"/>
<linearGradient id="SVGID_63_" gradientUnits="userSpaceOnUse" x1="313.2282" y1="353.9958" x2="413.8698" y2="353.9958">
	<stop  offset="0" style="stop-color:#E5700F"/>
	<stop  offset="1" style="stop-color:#FEBA1C"/>
</linearGradient>
<path class="st64" d="M399.1,318.4c-19.6-19.6-51.6-19.6-71.2,0c-19.6,19.6-19.6,51.6,0,71.2c9.8,9.8,22.7,14.7,35.6,14.7
	c12.9,0,25.8-4.9,35.6-14.7C418.8,370,418.8,338,399.1,318.4z M388.5,379c-13.8,13.8-36.2,13.8-50,0s-13.8-36.2,0-50
	c6.9-6.9,15.9-10.3,25-10.3s18.1,3.4,25,10.3C402.3,342.8,402.3,365.2,388.5,379z"/>
<linearGradient id="SVGID_64_" gradientUnits="userSpaceOnUse" x1="343.867" y1="341.876" x2="358.867" y2="341.876">
	<stop  offset="0" style="stop-color:#E5700F"/>
	<stop  offset="1" style="stop-color:#FEBA1C"/>
</linearGradient>
<circle class="st65" cx="351.4" cy="341.9" r="7.5"/>
<linearGradient id="SVGID_65_" gradientUnits="userSpaceOnUse" x1="368.117" y1="366.0461" x2="383.117" y2="366.0461">
	<stop  offset="0" style="stop-color:#E5700F"/>
	<stop  offset="1" style="stop-color:#FEBA1C"/>
</linearGradient>
<circle class="st66" cx="375.6" cy="366" r="7.5"/>
<linearGradient id="SVGID_66_" gradientUnits="userSpaceOnUse" x1="0" y1="327.5001" x2="244.057" y2="327.5001">
	<stop  offset="0" style="stop-color:#E5700F"/>
	<stop  offset="1" style="stop-color:#FEBA1C"/>
</linearGradient>
<path class="st67" d="M205.1,382.1h-23.4l0-17.2c19.1-16.7,31.1-41.2,31.1-68.4v-29.9c6.1-30.6,3.3-53.3-8.3-67.5
	c-7.3-8.9-16.4-12.3-22.8-13.6V151c0-4.3-3.5-7.8-7.8-7.8c-3,0-6,0-9.1,0c-3.2,0-6.5,0-9.8,0c-37.6,0-79.8,2.4-104.8,30.8
	c-18,20.4-24.3,50.6-19.1,92.2v30.3c0,27.3,12.1,51.8,31.2,68.4v17.2H38.9C17.5,382.1,0,399.5,0,421v83.1c0,4.3,3.5,7.8,7.8,7.8
	h228.5c4.3,0,7.8-3.5,7.8-7.8V421c0,0,0,0,0,0C244.1,399.5,226.6,382.1,205.1,382.1z M166.2,385.7l-23.9,15.9l-12.4-6.2v-8.5
	c13.1-1.1,25.4-5,36.4-11.1L166.2,385.7z M61.9,184.2c20.8-23.5,59-25.5,93.1-25.5c3.3,0,6.5,0,9.7,0c0.5,0,0.9,0,1.4,0v33.8
	c0,2.1,0.9,4.2,2.4,5.7c1.6,1.5,3.6,2.2,5.8,2.1c0.7,0,11-0.2,18.2,8.6c5.3,6.5,8,16.4,7.9,29.3l-3.4-6.8c-1.7-3.4-5.7-5.1-9.3-3.9
	c-0.5,0.1-46.6,14.8-73.2,14.8c-25.5,0-48.6-13.8-48.9-14c-3.4-2.1-7.9-1.2-10.3,2L45.1,244C44.4,217.7,50.1,197.6,61.9,184.2z
	 M46.7,296.4v-28.7L63.8,245c9.6,4.8,29.1,12.9,50.7,12.9c23.1,0,57.4-9.4,71.6-13.5l11.2,22.5v29.6c0,41.5-33.8,75.3-75.3,75.3
	C80.5,371.7,46.7,337.9,46.7,296.4z M114.2,386.9v8l-16.8,6.7l-19.5-15.6v-10.3C88.8,381.9,101.1,385.8,114.2,386.9z M228.5,496.3
	h-36.3v-23.4c0-4.3-3.5-7.8-7.8-7.8s-7.8,3.5-7.8,7.8v23.4H67.5v-23.4c0-4.3-3.5-7.8-7.8-7.8s-7.8,3.5-7.8,7.8v23.4H15.6V421
	c0-12.9,10.5-23.4,23.4-23.4h28.4l23.8,19.1c0.1,0.1,0.2,0.1,0.2,0.1c0.2,0.2,0.4,0.3,0.7,0.4c0.1,0.1,0.3,0.2,0.4,0.2
	c0.2,0.1,0.4,0.2,0.7,0.3c0.2,0.1,0.3,0.1,0.5,0.2c0.3,0.1,0.5,0.1,0.8,0.2c0.1,0,0.3,0.1,0.4,0.1c0.4,0.1,0.8,0.1,1.2,0.1
	c0.3,0,0.5,0,0.8,0c0,0,0.1,0,0.1,0c0.2,0,0.4-0.1,0.6-0.1c0.1,0,0.2,0,0.3-0.1c0.2,0,0.3-0.1,0.5-0.1c0.1,0,0.2-0.1,0.3-0.1
	c0.1,0,0.1,0,0.2-0.1l22.7-9.1l17.5,8.7c0,0,0,0,0,0l0.1,0.1c0.1,0.1,0.2,0.1,0.3,0.1c0.2,0.1,0.3,0.1,0.5,0.2
	c0.2,0.1,0.4,0.1,0.6,0.2c0.1,0,0.2,0.1,0.3,0.1c0.3,0.1,0.6,0.1,0.8,0.2c0,0,0,0,0.1,0c0.3,0,0.6,0.1,0.9,0.1c0.4,0,0.7,0,1.1-0.1
	c0.2,0,0.3-0.1,0.5-0.1c0.2,0,0.4-0.1,0.6-0.1c0.2,0,0.3-0.1,0.5-0.2c0.2-0.1,0.4-0.1,0.6-0.2c0.1-0.1,0.3-0.1,0.4-0.2
	c0.2-0.1,0.4-0.2,0.6-0.3c0,0,0.1,0,0.1-0.1l29.2-19.5h28.8c12.9,0,23.4,10.5,23.4,23.4c0,0,0,0,0,0L228.5,496.3L228.5,496.3z"/>
<linearGradient id="SVGID_67_" gradientUnits="userSpaceOnUse" x1="259.637" y1="317.13" x2="503.695" y2="317.13">
	<stop  offset="0" style="stop-color:#E5700F"/>
	<stop  offset="1" style="stop-color:#FEBA1C"/>
</linearGradient>
<path class="st68" d="M503.7,244.4C503.7,244.4,503.7,244.4,503.7,244.4c0-67.3-54.8-122-122-122c-67.3,0-122,54.7-122,122v187v72.7
	c0,4.3,3.5,7.8,7.8,7.8h228.5c4.3,0,7.8-3.5,7.8-7.8v-72.7c0,0,0,0,0,0V244.4L503.7,244.4z M381.7,138
	c58.7,0,106.5,47.8,106.5,106.4c0,0,0,0,0,0v155.8c-6.5-4.9-14.6-7.8-23.4-7.8h-30.9c-0.1,0-0.2,0-0.3,0s-0.2,0-0.3,0h-12.7l0-14
	c30.7-14.6,51.9-45.9,51.9-82.1v-41.6c0-4.3-3.5-7.8-7.8-7.8h-13v-13c0-4.3-3.5-7.8-7.8-7.8s-7.8,3.5-7.8,7.8v13h-15.6v-13
	c0-4.3-3.5-7.8-7.8-7.8s-7.8,3.5-7.8,7.8v13h-15.6v-13c0-4.3-3.5-7.8-7.8-7.8s-7.8,3.5-7.8,7.8v13h-15.6v-13c0-4.3-3.5-7.8-7.8-7.8
	s-7.8,3.5-7.8,7.8v13h-15.6v-13c0-4.3-3.5-7.8-7.8-7.8s-7.8,3.5-7.8,7.8v13h-13c-4.3,0-7.8,3.5-7.8,7.8v41.6
	c0,36.2,21.3,67.5,51.9,82.1v14H330c-0.1,0-0.2,0-0.3,0c-0.1,0-0.2,0-0.3,0h-30.9c-8.8,0-16.9,2.9-23.4,7.8V244.4
	C275.2,185.7,323,138,381.7,138z M306.4,262.6H457v33.8c0,41.5-33.8,75.3-75.3,75.3c-41.5,0-75.3-33.8-75.3-75.3L306.4,262.6
	L306.4,262.6z M350.5,408c4.3,0,7.8-3.5,7.8-7.8v-16c7.5,2,15.3,3,23.4,3c8.1,0,15.9-1.1,23.4-3.1l0,16v0c0,0,0,0,0,0
	c0,0.1,0,0.3,0,0.4c0,0.1,0,0.3,0,0.4c0,0.1,0,0.2,0.1,0.4c0,0.1,0,0.3,0.1,0.4c0,0.1,0.1,0.2,0.1,0.4c0,0.1,0.1,0.3,0.1,0.4
	c0,0.1,0.1,0.3,0.1,0.4c0,0.1,0.1,0.2,0.1,0.3c0.1,0.2,0.2,0.4,0.3,0.5c0,0,0,0.1,0.1,0.1c1.1,2,3,3.4,5.3,3.9c0,0,0,0,0,0
	c0.2,0,0.4,0.1,0.6,0.1c0.1,0,0.1,0,0.2,0c0.2,0,0.3,0,0.5,0c0.1,0,0.2,0,0.3,0c0,0,0,0,0,0h12.3c-3.7,20.6-21.8,36.3-43.4,36.3
	c-21.7,0-39.7-15.7-43.4-36.3L350.5,408L350.5,408z M488.1,496.3h-36.3v-23.4c0-4.3-3.5-7.8-7.8-7.8s-7.8,3.5-7.8,7.8v23.4H327.1
	v-23.4c0-4.3-3.5-7.8-7.8-7.8s-7.8,3.5-7.8,7.8v23.4h-36.3v-64.9c0-12.9,10.5-23.4,23.4-23.4h23.9c3.8,29.3,28.9,51.9,59.2,51.9
	c30.3,0,55.4-22.7,59.2-51.9h23.9c12.9,0,23.4,10.5,23.4,23.3c0,0,0,0,0,0L488.1,496.3L488.1,496.3z"/>
<g>
	<linearGradient id="SVGID_68_" gradientUnits="userSpaceOnUse" x1="249.8096" y1="69.5629" x2="341.5977" y2="69.5629">
		<stop  offset="0" style="stop-color:#E5700F"/>
		<stop  offset="1" style="stop-color:#FEBA1C"/>
	</linearGradient>
	<path class="st69" d="M327.3,14.3C318,5.1,305.7,0,292.6,0c-13.1,0-25.3,5.1-34.6,14.3c-0.5,0.5-0.9,1.1-1.1,1.8
		c-0.3,1.2-0.1,2.5,0.7,3.4l8.3,11.5l-13.9,18c-1.3,1.7-1,4.1,0.6,5.5l16.1,13.1L255,85.6c-1.1,1.4-1.1,3.3,0,4.8l11.8,15.8
		l-15.1,9.3c-1,0.6-1.7,1.7-1.9,2.9c-0.1,1.2,0.3,2.4,1.1,3.3l16.3,16.3c0.7,0.7,1.8,1.2,2.8,1.2c0.1,0,0.2,0,0.2,0
		c1-0.1,1.9-0.5,2.6-1.2l54.4-54.4c9.2-9.2,14.3-21.5,14.3-34.6C341.6,35.9,336.5,23.6,327.3,14.3L327.3,14.3z M321.7,78l-51.6,51.6
		l-10-10l14.5-9c0.9-0.6,1.6-1.5,1.8-2.6c0.2-1.1-0.1-2.2-0.7-3.1L263.1,88l14.2-18.6c1.3-1.7,1-4.1-0.6-5.5l-16.1-13.1L274,33.6
		c1.1-1.4,1.1-3.3,0.1-4.7l-8-11.2c7.4-6.3,16.7-9.8,26.6-9.8c11,0,21.3,4.3,29,12c7.8,7.8,12,18.1,12,29S329.4,70.2,321.7,78
		L321.7,78z M321.7,78"/>
	<g>
		<linearGradient id="SVGID_69_" gradientUnits="userSpaceOnUse" x1="151.847" y1="74.1766" x2="249.9454" y2="74.1766">
			<stop  offset="0" style="stop-color:#E5700F"/>
			<stop  offset="1" style="stop-color:#FEBA1C"/>
		</linearGradient>
		<path class="st70" d="M231.9,119.6l14.5-9c0.9-0.6,1.6-1.5,1.8-2.6c0.2-1.1,0-2.2-0.7-3.1L234.9,88l14.2-18.6
			c1.3-1.7,1-4.1-0.6-5.5l-16.1-13.1l13.4-17.3c1.1-1.4,1.1-3.3,0.1-4.7l-7.2-10.1c-3.5-4.9-7.8-8.9-12.8-11.9
			c-19.3-11.4-43.8-8.4-59.6,7.5c-9.2,9.2-14.3,21.5-14.3,34.6c0,13.1,5.1,25.4,14.3,34.6l63.6,63.6c0.8,0.8,1.8,1.2,2.8,1.2
			s2-0.4,2.8-1.2l9.2-9.2c0.4-0.3,0.6-0.7,0.9-1.2c0.7-1.5,0.4-3.3-0.8-4.5L231.9,119.6z M232.6,138.8L171.8,78
			c-7.8-7.8-12-18.1-12-29s4.3-21.3,12-29c7.9-7.9,18.4-12,29-12c7.2,0,14.4,1.9,20.9,5.8c4,2.4,7.6,5.7,10.5,9.7l5.5,7.7l-13.9,18
			c-1.3,1.7-1,4.1,0.6,5.5l16.1,13.1l-13.7,17.9c-1.1,1.4-1.1,3.3,0,4.8l11.8,15.8l-15.1,9.3c-1,0.6-1.7,1.7-1.9,2.9
			c-0.1,1.2,0.3,2.4,1.1,3.3l13.5,13.5L232.6,138.8z M232.6,138.8"/>
	</g>
</g>
</svg>
