<?xml version="1.0" encoding="utf-8"?>
<!-- Generator: Adobe Illustrator 19.0.1, SVG Export Plug-In . SVG Version: 6.00 Build 0)  -->
<svg version="1.1" id="Слой_1" xmlns="http://www.w3.org/2000/svg" xmlns:xlink="http://www.w3.org/1999/xlink" x="0px" y="0px"
	 viewBox="0 0 372.1 305.9" style="enable-background:new 0 0 372.1 305.9;" xml:space="preserve">
<style type="text/css">
	.st0{display:none;}
	.st1{display:inline;fill:url(#SVGID_1_);}
	.st2{display:inline;fill:url(#SVGID_2_);}
	.st3{display:inline;fill:url(#SVGID_3_);}
	.st4{display:inline;fill:url(#SVGID_4_);}
	.st5{display:inline;fill:url(#SVGID_5_);}
	.st6{display:inline;fill:url(#SVGID_6_);}
	.st7{display:inline;fill:url(#SVGID_7_);}
	.st8{display:inline;fill:url(#SVGID_8_);}
	.st9{display:inline;}
	.st10{fill:url(#SVGID_9_);}
	.st11{fill:url(#SVGID_10_);}
	.st12{fill:url(#SVGID_11_);}
	.st13{fill:url(#SVGID_12_);}
	.st14{fill:url(#SVGID_13_);}
	.st15{fill:url(#SVGID_14_);}
	.st16{fill:url(#SVGID_15_);}
	.st17{fill:url(#SVGID_16_);}
	.st18{fill:url(#SVGID_17_);}
	.st19{fill:url(#SVGID_18_);}
	.st20{fill:url(#SVGID_19_);}
	.st21{fill:url(#SVGID_20_);}
	.st22{fill:url(#SVGID_21_);}
	.st23{fill:url(#SVGID_22_);}
	.st24{fill:url(#SVGID_23_);}
	.st25{fill:url(#SVGID_24_);}
	.st26{fill:url(#SVGID_25_);}
	.st27{fill:url(#SVGID_26_);}
	.st28{fill:url(#SVGID_27_);}
	.st29{fill:url(#SVGID_28_);}
	.st30{fill:url(#SVGID_29_);}
	.st31{display:inline;fill:url(#SVGID_30_);}
	.st32{display:inline;fill:url(#SVGID_31_);}
	.st33{display:inline;fill:url(#SVGID_32_);}
	.st34{display:inline;fill:url(#SVGID_33_);}
	.st35{display:inline;fill:url(#SVGID_34_);}
	.st36{display:inline;fill:url(#SVGID_35_);}
	.st37{display:inline;fill:url(#SVGID_36_);}
	.st38{display:inline;fill:url(#SVGID_37_);}
	.st39{display:inline;fill:url(#SVGID_38_);}
	.st40{display:inline;fill:url(#SVGID_39_);}
	.st41{display:inline;fill:url(#SVGID_40_);}
	.st42{display:inline;fill:url(#SVGID_41_);}
	.st43{fill:url(#SVGID_42_);}
	.st44{fill:url(#SVGID_43_);}
	.st45{fill:url(#SVGID_44_);}
	.st46{fill:url(#SVGID_45_);}
	.st47{display:none;fill:url(#SVGID_46_);}
	.st48{display:none;fill:url(#SVGID_47_);}
	.st49{display:none;fill:url(#SVGID_48_);}
	.st50{display:none;fill:url(#SVGID_49_);}
	.st51{display:none;fill:url(#SVGID_50_);}
	.st52{display:none;fill:url(#SVGID_51_);}
	.st53{display:none;fill:url(#SVGID_52_);}
	.st54{display:none;fill:url(#SVGID_53_);}
	.st55{display:none;fill:url(#SVGID_54_);}
	.st56{display:none;fill:url(#SVGID_55_);}
	.st57{display:inline;fill:url(#SVGID_56_);}
	.st58{fill:url(#SVGID_57_);}
	.st59{display:none;fill:url(#SVGID_58_);}
	.st60{display:none;fill:url(#SVGID_59_);}
	.st61{display:none;fill:url(#SVGID_60_);}
	.st62{display:none;fill:url(#SVGID_61_);}
	.st63{display:none;fill:url(#SVGID_62_);}
	.st64{display:none;fill:url(#SVGID_63_);}
	.st65{display:none;fill:url(#SVGID_64_);}
	.st66{display:none;fill:url(#SVGID_65_);}
	.st67{display:none;fill:url(#SVGID_66_);}
	.st68{display:none;fill:url(#SVGID_67_);}
	.st69{display:inline;fill:url(#SVGID_68_);}
	.st70{fill:url(#SVGID_69_);}
	.st71{display:none;fill:url(#SVGID_70_);}
	.st72{display:none;fill:url(#SVGID_71_);}
	.st73{display:none;fill:url(#SVGID_72_);}
	.st74{display:none;fill:url(#SVGID_73_);}
	.st75{display:none;fill:url(#SVGID_74_);}
	.st76{display:none;fill:url(#SVGID_75_);}
	.st77{display:none;fill:url(#SVGID_76_);}
	.st78{display:none;fill:url(#SVGID_77_);}
	.st79{display:none;fill:url(#SVGID_78_);}
	.st80{display:none;fill:url(#SVGID_79_);}
	.st81{display:none;fill:url(#SVGID_80_);}
	.st82{display:none;fill:url(#SVGID_81_);}
	.st83{display:none;fill:url(#SVGID_82_);}
	.st84{display:none;fill:url(#SVGID_83_);}
	.st85{display:none;fill:url(#SVGID_84_);}
	.st86{display:none;fill:url(#SVGID_85_);}
	.st87{display:none;fill:url(#SVGID_86_);}
	.st88{display:none;fill:url(#SVGID_87_);}
	.st89{display:none;fill:url(#SVGID_88_);}
	.st90{display:none;fill:url(#SVGID_89_);}
	.st91{display:none;fill:url(#SVGID_90_);}
	.st92{display:none;fill:url(#SVGID_91_);}
	.st93{display:none;fill:url(#SVGID_92_);}
	.st94{fill:none;}
	.st95{fill:url(#SVGID_93_);}
	.st96{fill:url(#SVGID_94_);}
	.st97{fill:url(#SVGID_95_);}
	.st98{fill:url(#SVGID_96_);}
	.st99{fill:url(#SVGID_97_);}
	.st100{fill:url(#SVGID_98_);}
</style>
<g class="st0">
	<linearGradient id="SVGID_1_" gradientUnits="userSpaceOnUse" x1="139.7059" y1="108.4174" x2="139.7059" y2="88.4206">
		<stop  offset="0" style="stop-color:#E5700F"/>
		<stop  offset="1" style="stop-color:#FEBA1C"/>
	</linearGradient>
	<path class="st1" d="M132.6,91.3c-3.9,3.9-3.9,10.2,0,14.1c3.9,3.9,10.2,3.9,14.1,0c3.9-3.9,3.9-10.2,0-14.1
		C142.9,87.4,136.5,87.4,132.6,91.3z"/>
	<linearGradient id="SVGID_2_" gradientUnits="userSpaceOnUse" x1="168.9948" y1="428.983" x2="168.9948" y2="308.9874">
		<stop  offset="0" style="stop-color:#E5700F"/>
		<stop  offset="1" style="stop-color:#FEBA1C"/>
	</linearGradient>
	<path class="st2" d="M282.2,364.7c4.4-6,6.8-13.2,6.8-20.7c0-19.3-15.7-35-35-35H84c-9.4,0-18.1,3.6-24.7,10.2
		C52.6,325.8,49,334.6,49,344c0,7.7,2.5,14.9,6.8,20.7C39.9,373.1,29,389.8,29,409v10c0,5.5,4.5,10,10,10h260c5.5,0,10-4.5,10-10
		v-10C309,389.8,298.1,373.1,282.2,364.7z M73.4,333.4c2.8-2.8,6.6-4.4,10.6-4.4h170c8.3,0,15,6.7,15,15c0,4-1.6,7.8-4.4,10.6
		c-2.8,2.8-6.6,4.4-10.6,4.4H84c-8.3,0-15-6.7-15-15C69,340,70.6,336.2,73.4,333.4z M49,409c0-16.5,13.5-30,30-30h5h170h5
		c16.5,0,30,13.5,30,30H49z"/>
	<linearGradient id="SVGID_3_" gradientUnits="userSpaceOnUse" x1="285.0104" y1="428.998" x2="285.0104" y2="-82.998">
		<stop  offset="0" style="stop-color:#E5700F"/>
		<stop  offset="1" style="stop-color:#FEBA1C"/>
	</linearGradient>
	<path class="st3" d="M531.7,337.1c-3.4-5.3-7.4-9.9-12-13.8l-46.7-40.8c-0.4-0.5-0.8-1.1-1.3-1.6c-0.8-0.8-1.7-1.4-2.7-1.9
		l-28.3-24.6L309.9,140.3c5.4-5.6,8.3-12.9,8.3-20.7c0-8-3.1-15.6-8.8-21.2c-2.5-2.5-5.3-4.4-8.3-5.8l12.1-12.1
		c3.4,0.9,6.9,1.4,10.3,1.4c10.2,0,20.5-3.9,28.3-11.7c7.6-7.6,11.7-17.6,11.7-28.3c0-10.7-4.2-20.7-11.7-28.3L267-71.3
		c-7.6-7.6-17.6-11.7-28.3-11.7c-10.7,0-20.7,4.2-28.3,11.7C200-60.8,196.5-46,200.1-32.7L79.4,88.1c-3.3-0.9-6.8-1.4-10.4-1.4
		c-10.7,0-20.7,4.2-28.3,11.7c-15.6,15.6-15.6,41,0,56.6l84.8,84.8c7.8,7.8,18,11.7,28.3,11.7c10.2,0,20.5-3.9,28.3-11.7
		c10.4-10.4,13.9-25.3,10.3-38.6l12.1-12.1c1.5,3,3.4,5.8,5.9,8.3c5.7,5.7,13.2,8.8,21.2,8.8c7.8,0,15.1-2.9,20.7-8.3L391.6,358
		c0.4,0.6,0.8,1.2,1.4,1.7c0.2,0.2,0.4,0.3,0.6,0.5l41.5,47.7c1,1.2,2.1,2.4,3.3,3.6c11.4,11.4,26.5,17.6,42.3,17.6
		c2.8,0,5.6-0.2,8.4-0.6c18.8-2.6,35.1-13.9,44.6-30.9C544.1,378.8,543.3,355.1,531.7,337.1z M224.6-57.1c3.8-3.8,8.8-5.9,14.1-5.9
		c5.3,0,10.4,2.1,14.1,5.9l84.8,84.8c3.8,3.8,5.9,8.8,5.9,14.1c0,5.3-2.1,10.4-5.9,14.1c-7.8,7.8-20.5,7.8-28.3,0l-84.9-84.9
		c0,0,0,0,0,0C216.8-36.7,216.8-49.3,224.6-57.1z M168,225.7c-7.8,7.8-20.5,7.8-28.3,0l-84.8-84.8c-7.8-7.8-7.8-20.5,0-28.3
		c3.8-3.8,8.8-5.9,14.1-5.9c5.3,0,10.4,2.1,14.1,5.8l84.9,84.9C175.8,205.2,175.8,217.9,168,225.7z M210.1,155.3l-28,28L97.3,98.4
		L210.4-14.7l84.9,84.9l-28,28c-0.1,0.1-0.2,0.2-0.3,0.3L210.4,155C210.3,155.1,210.2,155.2,210.1,155.3z M245.8,176.2
		C245.8,176.2,245.8,176.2,245.8,176.2l-7.1,7.1c-1.9,1.9-4.4,2.9-7.1,2.9c-2.7,0-5.2-1-7.1-2.9c-1.9-1.9-2.9-4.4-2.9-7.1
		c0-2.6,1-5.1,2.8-6.9l56.8-56.8c3.9-3.8,10.2-3.7,14,0.1c1.9,1.9,2.9,4.4,2.9,7.1c0,2.7-1,5.2-2.9,7.1l-7,7c0,0-0.1,0.1-0.1,0.1
		L245.8,176.2z M266.5,183.7l29.2-29.2l123.7,107.9l-45.2,45.2L266.5,183.7z M387.5,322.7l47.1-47.1l15.1,13.2l-49,49L387.5,322.7z
		 M516.2,387.7c-6.5,11.5-17.4,19.1-29.9,20.9c-12.5,1.7-24.9-2.4-33.8-11.3c-0.8-0.8-1.5-1.6-2.2-2.4c0,0-0.1-0.1-0.1-0.1
		L413.8,353l51-51l41.8,36.4c0,0,0.1,0.1,0.1,0.1c3.1,2.7,5.9,5.8,8.3,9.5C522.5,359.7,523,375.6,516.2,387.7z"/>
	<linearGradient id="SVGID_4_" gradientUnits="userSpaceOnUse" x1="189.1985" y1="80.1349" x2="189.1985" y2="17.7075">
		<stop  offset="0" style="stop-color:#E5700F"/>
		<stop  offset="1" style="stop-color:#FEBA1C"/>
	</linearGradient>
	<path class="st4" d="M203.3,20.6l-42.4,42.4c-3.9,3.9-3.9,10.2,0,14.1c2,2,4.5,2.9,7.1,2.9c2.6,0,5.1-1,7.1-2.9l42.4-42.4
		c3.9-3.9,3.9-10.2,0-14.1C213.6,16.7,207.2,16.7,203.3,20.6z"/>
</g>
<g class="st0">
	<linearGradient id="SVGID_5_" gradientUnits="userSpaceOnUse" x1="-584.2957" y1="98.419" x2="-564.2914" y2="98.419">
		<stop  offset="0" style="stop-color:#E5700F"/>
		<stop  offset="1" style="stop-color:#FEBA1C"/>
	</linearGradient>
	<path class="st5" d="M-581.4,91.3c-3.9,3.9-3.9,10.2,0,14.1c3.9,3.9,10.2,3.9,14.1,0c3.9-3.9,3.9-10.2,0-14.1
		C-571.1,87.4-577.5,87.4-581.4,91.3z"/>
	<linearGradient id="SVGID_6_" gradientUnits="userSpaceOnUse" x1="-684.9995" y1="368.9852" x2="-405.0099" y2="368.9852">
		<stop  offset="0" style="stop-color:#E5700F"/>
		<stop  offset="1" style="stop-color:#FEBA1C"/>
	</linearGradient>
	<path class="st6" d="M-431.8,364.7c4.4-6,6.8-13.2,6.8-20.7c0-19.3-15.7-35-35-35h-170c-9.4,0-18.1,3.6-24.7,10.2
		c-6.6,6.6-10.2,15.4-10.2,24.8c0,7.7,2.5,14.9,6.8,20.7c-15.9,8.4-26.8,25.1-26.8,44.3v10c0,5.5,4.5,10,10,10h260
		c5.5,0,10-4.5,10-10v-10C-405,389.8-415.9,373.1-431.8,364.7z M-640.6,333.4c2.8-2.8,6.6-4.4,10.6-4.4h170c8.3,0,15,6.7,15,15
		c0,4-1.6,7.8-4.4,10.6c-2.8,2.8-6.6,4.4-10.6,4.4h-170c-8.3,0-15-6.7-15-15C-645,340-643.4,336.2-640.6,333.4z M-665,409
		c0-16.5,13.5-30,30-30h5h170h5c16.5,0,30,13.5,30,30H-665z"/>
	<linearGradient id="SVGID_7_" gradientUnits="userSpaceOnUse" x1="-684.9782" y1="173" x2="-173" y2="173">
		<stop  offset="0" style="stop-color:#E5700F"/>
		<stop  offset="1" style="stop-color:#FEBA1C"/>
	</linearGradient>
	<path class="st7" d="M-182.3,337.1c-3.4-5.3-7.4-9.9-12-13.8l-46.7-40.8c-0.4-0.5-0.8-1.1-1.3-1.6c-0.8-0.8-1.7-1.4-2.7-1.9
		l-28.3-24.6l-130.8-114.1c5.4-5.6,8.3-12.9,8.3-20.7c0-8-3.1-15.6-8.8-21.2c-2.5-2.5-5.3-4.4-8.3-5.8l12.1-12.1
		c3.4,0.9,6.9,1.4,10.3,1.4c10.2,0,20.5-3.9,28.3-11.7c7.6-7.6,11.7-17.6,11.7-28.3s-4.2-20.7-11.7-28.3L-447-71.3
		c-7.6-7.6-17.6-11.7-28.3-11.7c-10.7,0-20.7,4.2-28.3,11.7C-514-60.8-517.5-46-513.9-32.7L-634.6,88.1c-3.3-0.9-6.8-1.4-10.4-1.4
		c-10.7,0-20.7,4.2-28.3,11.7c-15.6,15.6-15.6,41,0,56.6l84.8,84.8c7.8,7.8,18,11.7,28.3,11.7c10.2,0,20.5-3.9,28.3-11.7
		c10.4-10.4,13.9-25.3,10.3-38.6l12.1-12.1c1.5,3,3.4,5.8,5.9,8.3c5.7,5.7,13.2,8.8,21.2,8.8c7.8,0,15.1-2.9,20.7-8.3L-322.4,358
		c0.4,0.6,0.8,1.2,1.4,1.7c0.2,0.2,0.4,0.3,0.6,0.5l41.5,47.7c1,1.2,2.1,2.4,3.3,3.6c11.4,11.4,26.5,17.6,42.3,17.6
		c2.8,0,5.6-0.2,8.4-0.6c18.8-2.6,35.1-13.9,44.6-30.9C-169.9,378.8-170.7,355.1-182.3,337.1z M-326.5,322.7l47.1-47.1l15.1,13.2
		l-49,49L-326.5,322.7z M-447.5,183.7l29.2-29.2l123.7,107.9l-45.2,45.2L-447.5,183.7z M-489.4-57.1c3.8-3.8,8.8-5.9,14.1-5.9
		c5.3,0,10.4,2.1,14.1,5.9l84.8,84.8c3.8,3.8,5.9,8.8,5.9,14.1c0,5.3-2.1,10.4-5.9,14.1c-7.8,7.8-20.5,7.8-28.3,0l-84.9-84.9
		c0,0,0,0,0,0C-497.2-36.7-497.2-49.3-489.4-57.1z M-546,225.7c-7.8,7.8-20.5,7.8-28.3,0l-84.8-84.8c-7.8-7.8-7.8-20.5,0-28.3
		c3.8-3.8,8.8-5.9,14.1-5.9c5.3,0,10.4,2.1,14.1,5.8l84.9,84.9C-538.2,205.2-538.2,217.9-546,225.7z M-616.7,98.4l113.1-113.1
		l84.9,84.9l-28,28c-0.1,0.1-0.2,0.2-0.3,0.3l-56.5,56.5c-0.1,0.1-0.2,0.2-0.3,0.4l-28,28L-616.7,98.4z M-482.4,186.2
		c-2.7,0-5.2-1-7.1-2.9c-1.9-1.9-2.9-4.4-2.9-7.1c0-2.6,1-5.1,2.8-6.9l56.8-56.8c3.9-3.8,10.2-3.7,14,0.1c1.9,1.9,2.9,4.4,2.9,7.1
		c0,2.7-1,5.2-2.9,7.1l-7,7c0,0-0.1,0.1-0.1,0.1l-42.3,42.3c0,0,0,0-0.1,0.1l-7,7C-477.2,185.2-479.7,186.2-482.4,186.2z
		 M-197.8,387.7c-6.5,11.5-17.4,19.1-29.9,20.9c-12.5,1.7-24.9-2.4-33.8-11.3c-0.8-0.8-1.5-1.6-2.2-2.4c0,0-0.1-0.1-0.1-0.1
		l-36.4-41.8l51-51l41.8,36.4c0,0,0.1,0.1,0.1,0.1c3.1,2.7,5.9,5.8,8.3,9.5C-191.5,359.7-191,375.6-197.8,387.7z"/>
	<linearGradient id="SVGID_8_" gradientUnits="userSpaceOnUse" x1="-556.015" y1="48.9212" x2="-493.5869" y2="48.9212">
		<stop  offset="0" style="stop-color:#E5700F"/>
		<stop  offset="1" style="stop-color:#FEBA1C"/>
	</linearGradient>
	<path class="st8" d="M-496.5,20.6c-3.9-3.9-10.2-3.9-14.1,0l-42.4,42.4c-3.9,3.9-3.9,10.2,0,14.1c2,2,4.5,2.9,7.1,2.9
		s5.1-1,7.1-2.9l42.4-42.4C-492.6,30.9-492.6,24.5-496.5,20.6z"/>
</g>
<g class="st0">
	<g class="st9">
		<linearGradient id="SVGID_9_" gradientUnits="userSpaceOnUse" x1="96.5731" y1="173" x2="465.6824" y2="173">
			<stop  offset="0" style="stop-color:#E5700F"/>
			<stop  offset="1" style="stop-color:#FEBA1C"/>
		</linearGradient>
		<path class="st10" d="M443.3,283.8c-6.7-33.8-38.5-39.6-38.6-39.6v0c-0.3-0.1,2.9,0.7-77.3-19.2v-2.7h59.1
			c12.2,0,22.1-9.9,22.1-22.1V87.6c1-4.2,1-8.5,0-12.7V33.7c0-4.1-3.4-7.5-7.5-7.5c-4.1,0-7.5,3.4-7.5,7.5v21.5
			c-4-2.4-8.5-4.1-13.4-4.9c-1.8-7.8-8.3-14-16.5-15.1c-8.6-1.1-15.1-6.1-19.3-14.9c-2-4.1-5.9-6.8-10.4-7.2
			c-4.5-0.4-8.8,1.5-11.5,5.2c-12.9,17.5-48.7,56.9-110.6,56.9c-4.7,0-7.9-0.2-9-0.3c-11.4-0.7-21,8.4-21,19.8V112
			c0,27.5,11.4,54.3,31.4,73.3c6.6,6.3,13.9,11.6,21.7,15.8v6.2H176c-3.9,0-7.1-3.2-7.1-7.1V31.7C169-23,213.5-68,267.3-68
			c0.2,0,0.3,0,0.5,0c19.3,0.1,41.5,5.6,56.7,13.9c9.6,5.3,15.6,1.1,25,1.1c23.2,0,41.7,23.8,44,45.3c0,0.3,0,1.6,0.1,6.4
			c0,7.2,8.2,7.8,7.5,7.5c4.1,0,7.5-3.4,7.5-7.5c0-1.3,0-6.6-0.1-7.8c-3-29.8-28.5-58.9-58.9-58.9c-11.9,0-13.7,3-17.8,0.8
			c-17.2-9.5-42.3-15.7-63.9-15.8c-62.3-0.4-114,51.5-114,114.7v168.6c0,12.2,9.9,22.1,22.1,22.1h58.8v2.7l-77,19.1
			c-0.1,0-0.2,0.1-0.3,0.1l-5.6,1.7c-0.2,0-0.3,0.1-0.5,0.2c-10,3.7-27.6,13.6-32.4,37.8C96.1,398.5,97.1,393.6,97,394
			c-2.8,19.5,7,35,30.4,35h81.1c4.1,0,7.5-3.4,7.5-7.5c0-4.1-3.4-7.5-7.5-7.5h-28.2v-70.8c0-4.1-3.4-7.5-7.5-7.5s-7.5,3.4-7.5,7.5
			V414h-37.9c-10,0-15.8-3.2-15.8-13.7c0-5.1-0.2-0.1,22.1-113.6c3.4-16.8,15.6-23.9,22.7-26.6l5.2-1.5l44.2-11
			c49.2,58,46.3,54.9,49.1,57.7c16.4,16,39.9,14.9,55.3-3.2l46.3-54.4l44.1,10.9c1.3,0.6,23.2,4.4,27.9,28.1
			c22.1,112.5,22.1,108.5,22.1,113.6c-0.1,10.3-5.6,13.7-15.8,13.7h-37.6v-70.8c0-4.1-3.4-7.5-7.5-7.5s-7.5,3.4-7.5,7.5V414H243.6
			c-4.1,0-7.5,3.4-7.5,7.5c0,4.1,3.4,7.5,7.5,7.5h191.3c18.5,0,30.7-10.2,30.8-28.6C465.7,391.9,465.2,396,443.3,283.8z M380.7,65.8
			c6.3,1.9,11.1,6,12.9,11.1v8.6c-1.8,5.1-6.6,9.2-12.9,11.1V65.8z M380.7,113.3V112c4.7-0.9,9-2.5,12.9-4.8v93.1
			c0,3.9-3.2,7.1-7.1,7.1h-59.1v-5.8C359.2,184.9,380.7,151.6,380.7,113.3z M223.5,174.5c-17-16.2-26.7-38.9-26.7-62.4
			c0.4-16.3-1.1-18.3,1.5-20.8c0.9-0.9,2.2-1.4,3.6-1.3c53.8,3.2,100-20.4,130.6-60c8.2,14.5,20.3,19,29.3,20.1
			c2.2,0.3,3.9,2.2,3.9,4.4c0,20.8,0,38.2,0,58.8C365.7,188,276.3,224.9,223.5,174.5z M298.8,292.4c-10.5,12.3-25.1,12.2-35.5-0.1
			l-15.7-18.5h66.9L298.8,292.4z M327.4,258.9H235l-12.9-15.2l22.1-5.5c3.3-0.8,5.7-3.9,5.7-7.4l0-23.2c20.6,6.9,42.4,6.8,62.6,0.2
			c0.1,24-0.3,23.4,0.4,25.5c0.8,2.3,2.8,4.2,5.3,4.8l22.2,5.5L327.4,258.9z"/>
	</g>
</g>
<g class="st0">
	<g class="st9">
		<g>
			<linearGradient id="SVGID_10_" gradientUnits="userSpaceOnUse" x1="99" y1="173" x2="465" y2="173">
				<stop  offset="0" style="stop-color:#E5700F"/>
				<stop  offset="1" style="stop-color:#FEBA1C"/>
			</linearGradient>
			<path class="st11" d="M457.3-80.5H106.7c-4.2,0-7.7,3.5-7.7,7.7v491.6c0,4.3,3.5,7.7,7.7,7.7h266.6c2.1,0,4-0.8,5.4-2.3l84-84
				c1.4-1.4,2.3-3.4,2.3-5.5V-72.8C465-77,461.5-80.5,457.3-80.5z M381,400.2v-57.8h57.8L381,400.2z M449.6,327.1l-76.4-0.1
				c-2.1,0-4,0.8-5.5,2.3c-1.4,1.4-2.3,3.4-2.3,5.5l0.1,76.4H114.4V-65.1h335.2V327.1z"/>
		</g>
	</g>
</g>
<g class="st0">
	<g class="st9">
		<g>
			<linearGradient id="SVGID_11_" gradientUnits="userSpaceOnUse" x1="157" y1="331.5001" x2="245" y2="331.5001">
				<stop  offset="0" style="stop-color:#E5700F"/>
				<stop  offset="1" style="stop-color:#FEBA1C"/>
			</linearGradient>
			<path class="st12" d="M232.1,300.4c-8.3-8.3-19.4-12.9-31.1-12.9c-24.3,0-44,19.7-44,44s19.7,44,44,44s44-19.7,44-44
				C245,319.8,240.5,308.7,232.1,300.4z M201,360.1c-15.8,0-28.6-12.8-28.6-28.6s12.8-28.6,28.6-28.6s28.6,12.8,28.6,28.6
				S216.8,360.1,201,360.1z"/>
		</g>
	</g>
</g>
<g class="st0">
	<g class="st9">
		<g>
			<linearGradient id="SVGID_12_" gradientUnits="userSpaceOnUse" x1="270.2" y1="333.1" x2="341.7" y2="333.1">
				<stop  offset="0" style="stop-color:#E5700F"/>
				<stop  offset="1" style="stop-color:#FEBA1C"/>
			</linearGradient>
			<path class="st13" d="M341.7,333.1c0,4.2-3.5,7.7-7.7,7.7h-56.1c-4.3,0-7.7-3.5-7.7-7.7c0-4.3,3.5-7.7,7.7-7.7H334
				C338.3,325.4,341.7,328.9,341.7,333.1z"/>
		</g>
	</g>
</g>
<g class="st0">
	<g class="st9">
		<g>
			<linearGradient id="SVGID_13_" gradientUnits="userSpaceOnUse" x1="160.1" y1="-11.6" x2="205" y2="-11.6">
				<stop  offset="0" style="stop-color:#E5700F"/>
				<stop  offset="1" style="stop-color:#FEBA1C"/>
			</linearGradient>
			<path class="st14" d="M205-11.6c0,4.3-3.5,7.7-7.7,7.7h-29.5c-4.3,0-7.7-3.5-7.7-7.7s3.5-7.7,7.7-7.7h29.6
				C201.6-19.3,205-15.8,205-11.6z"/>
		</g>
	</g>
</g>
<g class="st0">
	<g class="st9">
		<g>
			<linearGradient id="SVGID_14_" gradientUnits="userSpaceOnUse" x1="303.9" y1="-11.6" x2="408" y2="-11.6">
				<stop  offset="0" style="stop-color:#E5700F"/>
				<stop  offset="1" style="stop-color:#FEBA1C"/>
			</linearGradient>
			<path class="st15" d="M408-11.6c0,4.3-3.5,7.7-7.7,7.7h-88.7c-4.3,0-7.7-3.5-7.7-7.7s3.5-7.7,7.7-7.7h88.7
				C404.6-19.3,408-15.8,408-11.6z"/>
		</g>
	</g>
</g>
<g class="st0">
	<g class="st9">
		<g>
			<linearGradient id="SVGID_15_" gradientUnits="userSpaceOnUse" x1="241.6" y1="32.299" x2="408" y2="32.299">
				<stop  offset="0" style="stop-color:#E5700F"/>
				<stop  offset="1" style="stop-color:#FEBA1C"/>
			</linearGradient>
			<path class="st16" d="M408,32.3c0,4.3-3.5,7.7-7.7,7.7h-151c-4.2,0-7.7-3.5-7.7-7.7c0-4.2,3.5-7.7,7.7-7.7h151
				C404.6,24.5,408,28,408,32.3z"/>
		</g>
	</g>
</g>
<g class="st0">
	<g class="st9">
		<g>
			<linearGradient id="SVGID_16_" gradientUnits="userSpaceOnUse" x1="155.5" y1="112.8" x2="408.5" y2="112.8">
				<stop  offset="0" style="stop-color:#E5700F"/>
				<stop  offset="1" style="stop-color:#FEBA1C"/>
			</linearGradient>
			<path class="st17" d="M408.5,112.8c0,4.3-3.5,7.7-7.7,7.7H163.2c-4.3,0-7.7-3.5-7.7-7.7s3.5-7.7,7.7-7.7h237.6
				C405.1,105.1,408.5,108.6,408.5,112.8z"/>
		</g>
	</g>
</g>
<g class="st0">
	<g class="st9">
		<g>
			<linearGradient id="SVGID_17_" gradientUnits="userSpaceOnUse" x1="155.5" y1="147.5" x2="408.5" y2="147.5">
				<stop  offset="0" style="stop-color:#E5700F"/>
				<stop  offset="1" style="stop-color:#FEBA1C"/>
			</linearGradient>
			<path class="st18" d="M408.5,147.5c0,4.3-3.5,7.7-7.7,7.7H163.2c-4.3,0-7.7-3.5-7.7-7.7s3.5-7.7,7.7-7.7h237.6
				c2.1,0,4,0.8,5.4,2.3C407.7,143.5,408.5,145.5,408.5,147.5z"/>
		</g>
	</g>
</g>
<g class="st0">
	<g class="st9">
		<g>
			<linearGradient id="SVGID_18_" gradientUnits="userSpaceOnUse" x1="155.5" y1="185.2" x2="408.5" y2="185.2">
				<stop  offset="0" style="stop-color:#E5700F"/>
				<stop  offset="1" style="stop-color:#FEBA1C"/>
			</linearGradient>
			<path class="st19" d="M408.5,185.2c0,4.2-3.5,7.7-7.7,7.7H163.2c-4.3,0-7.7-3.5-7.7-7.7c0-4.3,3.5-7.7,7.7-7.7h237.6
				c2.1,0,4,0.8,5.4,2.3C407.7,181.3,408.5,183.2,408.5,185.2z"/>
		</g>
	</g>
</g>
<g class="st0">
	<g class="st9">
		<g>
			<linearGradient id="SVGID_19_" gradientUnits="userSpaceOnUse" x1="387.5" y1="219.9" x2="408.5" y2="219.9">
				<stop  offset="0" style="stop-color:#E5700F"/>
				<stop  offset="1" style="stop-color:#FEBA1C"/>
			</linearGradient>
			<path class="st20" d="M408.5,219.9c0,4.2-3.5,7.7-7.7,7.7h-5.6c-4.2,0-7.7-3.5-7.7-7.7c0-4.3,3.5-7.7,7.7-7.7h5.6
				C405.1,212.2,408.5,215.7,408.5,219.9z"/>
		</g>
	</g>
</g>
<g class="st0">
	<g class="st9">
		<g>
			<linearGradient id="SVGID_20_" gradientUnits="userSpaceOnUse" x1="155.5" y1="219.9" x2="367.2" y2="219.9">
				<stop  offset="0" style="stop-color:#E5700F"/>
				<stop  offset="1" style="stop-color:#FEBA1C"/>
			</linearGradient>
			<path class="st21" d="M367.2,219.9c0,4.2-3.5,7.7-7.7,7.7H163.2c-4.3,0-7.7-3.5-7.7-7.7c0-4.3,3.5-7.7,7.7-7.7h196.3
				C363.8,212.2,367.2,215.7,367.2,219.9z"/>
		</g>
	</g>
</g>
<g class="st0">
	<g class="st9">
		<linearGradient id="SVGID_21_" gradientUnits="userSpaceOnUse" x1="114.4" y1="166.002" x2="466.4" y2="166.002">
			<stop  offset="0" style="stop-color:#E5700F"/>
			<stop  offset="1" style="stop-color:#FEBA1C"/>
		</linearGradient>
		<path class="st22" d="M466.3,37.5c0-0.6-0.2-1.3-0.4-1.9c-0.1-0.3-0.1-0.5-0.2-0.8c-0.3-0.8-0.8-1.6-1.4-2.3l-96-104
			c-0.7-0.7-1.5-1.3-2.4-1.7c-0.2-0.1-0.5-0.2-0.7-0.3c-0.7-0.3-1.5-0.4-2.3-0.5c-0.2,0-0.3-0.1-0.5-0.1h-240c-4.4,0-8,3.6-8,8v464
			c0,4.4,3.6,8,8,8h336c4.4,0,8-3.6,8-8V38C466.4,37.8,466.3,37.7,466.3,37.5z M370.4-45.5L440.1,30h-69.7V-45.5z M450.4,390h-320
			V-58h224v96c0,4.4,3.6,8,8,8h88V390z"/>
	</g>
</g>
<g class="st0">
	<g class="st9">
		<linearGradient id="SVGID_22_" gradientUnits="userSpaceOnUse" x1="226.4" y1="94.002" x2="418.4" y2="94.002">
			<stop  offset="0" style="stop-color:#E5700F"/>
			<stop  offset="1" style="stop-color:#FEBA1C"/>
		</linearGradient>
		<path class="st23" d="M410.4,86h-176c-4.4,0-8,3.6-8,8s3.6,8,8,8h176c4.4,0,8-3.6,8-8S414.8,86,410.4,86z"/>
	</g>
</g>
<g class="st0">
	<g class="st9">
		<linearGradient id="SVGID_23_" gradientUnits="userSpaceOnUse" x1="226.4" y1="238.002" x2="418.4" y2="238.002">
			<stop  offset="0" style="stop-color:#E5700F"/>
			<stop  offset="1" style="stop-color:#FEBA1C"/>
		</linearGradient>
		<path class="st24" d="M410.4,230h-176c-4.4,0-8,3.6-8,8s3.6,8,8,8h176c4.4,0,8-3.6,8-8S414.8,230,410.4,230z"/>
	</g>
</g>
<g class="st0">
	<g class="st9">
		<linearGradient id="SVGID_24_" gradientUnits="userSpaceOnUse" x1="226.4" y1="310.002" x2="418.4" y2="310.002">
			<stop  offset="0" style="stop-color:#E5700F"/>
			<stop  offset="1" style="stop-color:#FEBA1C"/>
		</linearGradient>
		<path class="st25" d="M410.4,302h-176c-4.4,0-8,3.6-8,8s3.6,8,8,8h176c4.4,0,8-3.6,8-8S414.8,302,410.4,302z"/>
	</g>
</g>
<g class="st0">
	<g class="st9">
		<linearGradient id="SVGID_25_" gradientUnits="userSpaceOnUse" x1="160.5625" y1="81.268" x2="244.4343" y2="81.268">
			<stop  offset="0" style="stop-color:#E5700F"/>
			<stop  offset="1" style="stop-color:#FEBA1C"/>
		</linearGradient>
		<path class="st26" d="M242.2,53c-3.1-3.2-8.1-3.3-11.3-0.2c-0.1,0.1-0.1,0.1-0.2,0.2l-39.6,39.6l-17-17c-3.2-3.1-8.2-3-11.3,0.2
			c-3,3.1-3,8,0,11.1l22.6,22.6c3.1,3.1,8.2,3.1,11.3,0L242,64.3C245.2,61.3,245.3,56.2,242.2,53z"/>
	</g>
</g>
<g class="st0">
	<g class="st9">
		<linearGradient id="SVGID_26_" gradientUnits="userSpaceOnUse" x1="226.4" y1="166.002" x2="418.4" y2="166.002">
			<stop  offset="0" style="stop-color:#E5700F"/>
			<stop  offset="1" style="stop-color:#FEBA1C"/>
		</linearGradient>
		<path class="st27" d="M410.4,158h-176c-4.4,0-8,3.6-8,8s3.6,8,8,8h176c4.4,0,8-3.6,8-8S414.8,158,410.4,158z"/>
	</g>
</g>
<g class="st0">
	<g class="st9">
		<linearGradient id="SVGID_27_" gradientUnits="userSpaceOnUse" x1="160.5625" y1="153.2679" x2="244.4343" y2="153.2679">
			<stop  offset="0" style="stop-color:#E5700F"/>
			<stop  offset="1" style="stop-color:#FEBA1C"/>
		</linearGradient>
		<path class="st28" d="M242.2,125c-3.1-3.2-8.1-3.3-11.3-0.2c-0.1,0.1-0.1,0.1-0.2,0.2l-39.6,39.6l-17-17c-3.2-3.1-8.2-3-11.3,0.2
			c-3,3.1-3,8,0,11.1l22.6,22.6c3.1,3.1,8.2,3.1,11.3,0l45.2-45.3C245.2,133.3,245.3,128.2,242.2,125z"/>
	</g>
</g>
<g class="st0">
	<g class="st9">
		<linearGradient id="SVGID_28_" gradientUnits="userSpaceOnUse" x1="160.5625" y1="225.3664" x2="244.2378" y2="225.3664">
			<stop  offset="0" style="stop-color:#E5700F"/>
			<stop  offset="1" style="stop-color:#FEBA1C"/>
		</linearGradient>
		<path class="st29" d="M241.8,197c-3.1-3-8-3-11.1,0l-39.6,39.6l-17-17c-3.2-3.1-8.2-3-11.3,0.2c-3,3.1-3,8,0,11.1l22.6,22.6
			c3.1,3.1,8.2,3.1,11.3,0l45.2-45.3C245.1,205.2,245,200.1,241.8,197z"/>
	</g>
</g>
<g class="st0">
	<g class="st9">
		<linearGradient id="SVGID_29_" gradientUnits="userSpaceOnUse" x1="160.5625" y1="297.318" x2="243.5322" y2="297.318">
			<stop  offset="0" style="stop-color:#E5700F"/>
			<stop  offset="1" style="stop-color:#FEBA1C"/>
		</linearGradient>
		<path class="st30" d="M242,269c-3.1-3.1-8.2-3.1-11.3,0l-39.6,39.6l-17-17c-3.2-3.1-8.2-3-11.3,0.2c-3,3.1-3,8,0,11.1l22.6,22.6
			c3.1,3.1,8.2,3.1,11.3,0l45.2-45.3C244.4,277.4,243.7,272.6,242,269z"/>
	</g>
</g>
<g class="st0">
	<linearGradient id="SVGID_30_" gradientUnits="userSpaceOnUse" x1="97" y1="173" x2="470" y2="173">
		<stop  offset="0" style="stop-color:#E5700F"/>
		<stop  offset="1" style="stop-color:#FEBA1C"/>
	</linearGradient>
	<path class="st31" d="M464.4-81c4.7,2.3,5.6,6.9,5.6,12.5c0,65.8,0,131.6,0,197.4c0,94.7,0,189.5,0,284.2c0,2.3-0.1,4.6-0.4,6.9
		c-0.5,4.2-2.8,6.3-6.1,6.9c-1.5,0.3-3,0.2-4.5,0.2c-105,0-210,0-315.1,0c-9.1,0-10.9-2.3-11-13.4c0-33.6,0-67.1,0-100.7
		c0-3.4-0.8-5.8-2.8-8.2c-8.5-10-16.8-20.3-25.1-30.5c-4.9-6-4.9-10,0-16c1.7-2.1,3.6-3.9,6.3-6.7c-3.8-4.2-7.1-7.6-10.2-11.3
		c-5.7-6.7-5.6-10.8-0.1-17.5c7-8.5,14-17.1,21-25.6c4.3-5.2,4.6-5.4,10.6-5.3c0.1-1.4,0.2-2.8,0.2-4.3c0-85.2,0-170.3,0-255.5
		c0-5.6,0.4-10.7,5.3-13.1C247-81,355.7-81,464.4-81z M455.4-63.5c-102.9,0-205.4,0-308,0c-0.1,1.5-0.2,2.7-0.2,3.8
		c0,88.5,0,176.9,0.1,265.4c0,2.3,1.1,5.1,2.4,6.7c15.7,19.3,31.5,38.4,47.2,57.6c15.2,18.5,30.4,36.9,45.5,55.4
		c5,6.2,5,10.3-0.1,16.4c-1.9,2.3-4.1,4.3-7,7.3c3.7,4,6.7,7,9.5,10.4c3.6,4.3,3.8,9.6,0.8,13.2c-3.1,3.7-7,3.4-10.8-1.1
		c-2.8-3.3-5.5-6.8-8.9-11.1c-1.9,2.8-3.3,5.2-5,7.3c-5.8,7.2-8.8,7.2-14.6,0.2c-18.5-22.4-36.9-44.9-55.3-67.3
		c-1-1.2-2.1-2.4-3.6-4c0,38,0,75.2,0,112.8c102.7,0,205.2,0,308,0C455.4,251.8,455.4,94.3,455.4-63.5z M163.3,290.4
		c4.9-6,9.9-12.2,14.4-17.8c-10.5-12.8-21.2-26-31.3-38.4c-4.9,5.9-10,12-14.6,17.6C142.2,264.6,152.9,277.7,163.3,290.4z
		 M192.3,325.6c7.2,8.9,14.3,17.7,20.9,25.9c5-6.1,10.1-12.3,15-18.3c-6.9-8.3-14.2-17-21.3-25.5
		C202.2,313.5,197.2,319.6,192.3,325.6z M189.3,285.3c-5.3,6.5-10.2,12.6-15.3,18.8c2.4,2.8,5,5.8,7.3,8.4c5-6.1,10-12.2,15.1-18.4
		C194.2,291.3,191.8,288.3,189.3,285.3z M115.2,230.8c1.8,2.8,3.6,5.5,4.7,7.3c5.2-6.3,10.3-12.4,15-18.1c-1.6-2.1-3.5-4.5-5.4-6.9
		C124.7,219.2,119.8,225.2,115.2,230.8z M132.4,282.2c0.3-0.1,0.5-0.2,0.8-0.3c-0.4-1.4-0.5-3.2-1.3-4.2c-3.2-4.2-6.6-8.3-10.1-12.3
		c-0.5-0.6-1.9-0.1-2.9-0.1C123.7,271.4,128.1,276.8,132.4,282.2z"/>
	<linearGradient id="SVGID_31_" gradientUnits="userSpaceOnUse" x1="324.8634" y1="308.1973" x2="442.6504" y2="308.1973">
		<stop  offset="0" style="stop-color:#E5700F"/>
		<stop  offset="1" style="stop-color:#FEBA1C"/>
	</linearGradient>
	<path class="st32" d="M408.9,340.9c-3,3.9-5.7,8.9-9.1,11.8c-8.7,7.4-19.9-3.3-21.6-19.9c-0.9-8.8,0.7-16.6,3.1-24.3
		c2.1-7,4.4-13.8,6.2-21c1.3-5-0.3-9-3.7-9c-2.2,0-4.7,0.5-6.5,2.1c-5.5,5-11.1,10-16.1,16.1c-8.8,10.7-16.4,23.4-22.8,37.9
		c-1.3,2.9-2.3,6.3-3.4,9.4c-1.6,4.4-4.1,6-6.7,4.2c-2.7-1.8-4.2-6.4-2.9-11c1.8-6.1,3.9-12.1,6.4-17.4c9.4-19.4,20.5-36,33.5-49
		c5.1-5.1,10.5-8.9,16.6-9.8c9.5-1.4,20.6,11.6,15.7,32.7c-1.8,7.7-4.4,14.9-6.6,22.3c-0.8,2.8-1.5,5.8-2,8.8
		c-0.8,4.7,0.7,10,3.3,12.2c2.2,1.9,4,0.2,5.1-2.5c2.6-6.4,5.1-13,7.3-19.9c1.5-4.6,2.1-10.1,6.2-10.1c4-0.1,5.1,5.3,6.4,9.9
		c0.8,2.9,1.4,5.9,2.3,9.9c1.2-4.8,2.3-8.8,3.3-12.8c2.3-9.2,6-10.8,10.6-4.2c4.4,6.3,8.1,13.5,9.1,23.4c0.9,9-1.2,16.2-5,22.3
		c-2,3.1-5,2.9-7,0.1c-2.1-3-2.5-7.7-0.6-11.6c2.1-4.4,3-8.6,0.8-12.9c-3,6.5-5.9,13.2-9.1,19.5c-1.3,2.5-3.1,4.8-4.9,5.6
		c-1.8,0.9-4.2,0.7-6-0.6c-2.1-1.5-2.5-5.3-1.9-9.1C408.8,343,408.9,341.7,408.9,340.9z"/>
	<linearGradient id="SVGID_32_" gradientUnits="userSpaceOnUse" x1="249.1003" y1="78.892" x2="430.0541" y2="78.892">
		<stop  offset="0" style="stop-color:#E5700F"/>
		<stop  offset="1" style="stop-color:#FEBA1C"/>
	</linearGradient>
	<path class="st33" d="M339.7,87.4c-27.5,0-54.9,0-82.4,0c-1.1,0-2.3,0.1-3.4-0.1c-3-0.5-4.9-4-4.9-8.6c0-4.3,1.9-7.7,4.8-8.3
		c1-0.2,2-0.1,3.1-0.1c55.1,0,110.2,0,165.3,0c5.3,0,7.7,2.6,7.8,8.5c0,5.9-2.4,8.6-7.7,8.6C394.8,87.4,367.3,87.4,339.7,87.4z"/>
	<linearGradient id="SVGID_33_" gradientUnits="userSpaceOnUse" x1="249.1152" y1="-1.7303" x2="430.0343" y2="-1.7303">
		<stop  offset="0" style="stop-color:#E5700F"/>
		<stop  offset="1" style="stop-color:#FEBA1C"/>
	</linearGradient>
	<path class="st34" d="M339.5-10.4c27.4,0,54.7,0,82.1,0c1.3,0,2.7,0,4,0.3c2.7,0.6,4.2,3.3,4.4,7.6c0.2,4.6-1.2,7.6-3.9,8.9
		c-1,0.4-2,0.5-3,0.5c-54.9,0-109.8,0-164.7,0c-1.6,0-3.3,0.1-4.9-0.4c-2.8-0.8-4.6-4.4-4.3-8.8c0.2-4.5,1.8-7.3,4.6-7.8
		c1.2-0.2,2.5-0.2,3.7-0.2C284.8-10.4,312.2-10.4,339.5-10.4z"/>
	<linearGradient id="SVGID_34_" gradientUnits="userSpaceOnUse" x1="249.092" y1="199.9211" x2="386.8875" y2="199.9211">
		<stop  offset="0" style="stop-color:#E5700F"/>
		<stop  offset="1" style="stop-color:#FEBA1C"/>
	</linearGradient>
	<path class="st35" d="M317.8,208.5c-20.3,0-40.6,0-60.9,0c-1,0-2.1,0.1-3.1-0.1c-2.8-0.5-4.7-3.8-4.8-8.1c-0.1-4.4,1.7-8,4.5-8.7
		c1.1-0.3,2.2-0.2,3.4-0.2c40.7,0,81.3,0,122,0c1.2,0,2.5-0.1,3.7,0.3c2.5,0.7,4.3,4.4,4.2,8.5c-0.1,4.1-1.9,7.5-4.5,8.1
		c-1.1,0.2-2.2,0.2-3.4,0.2C358.6,208.5,338.2,208.5,317.8,208.5z"/>
	<linearGradient id="SVGID_35_" gradientUnits="userSpaceOnUse" x1="249.0981" y1="119.2603" x2="374.7076" y2="119.2603">
		<stop  offset="0" style="stop-color:#E5700F"/>
		<stop  offset="1" style="stop-color:#FEBA1C"/>
	</linearGradient>
	<path class="st36" d="M311.8,127.9c-18.4,0-36.8,0-55.3,0c-1.4,0-2.9-0.1-4.2-0.9c-2.4-1.4-3.5-4.5-3.2-8.6c0.3-3.9,1.6-6.4,4-7.2
		c1.3-0.4,2.6-0.5,4-0.5c36.4,0,72.9,0,109.3,0c1.4,0,2.9,0,4.3,0.5c2.5,0.8,3.9,3.5,4.1,7.6c0.2,4.1-1,7.1-3.4,8.4
		c-1.3,0.7-2.8,0.8-4.2,0.8C348.7,127.9,330.2,127.9,311.8,127.9z"/>
	<linearGradient id="SVGID_36_" gradientUnits="userSpaceOnUse" x1="324.2901" y1="159.6085" x2="430.02" y2="159.6085">
		<stop  offset="0" style="stop-color:#E5700F"/>
		<stop  offset="1" style="stop-color:#FEBA1C"/>
	</linearGradient>
	<path class="st37" d="M377,168.3c-14.9,0-29.9,0-44.8,0c-5.2,0-7.8-2.8-7.9-8.5c-0.1-5.8,2.6-8.9,8-8.9c30.1,0,60.2,0,90.3,0
		c1.3,0,2.7,0.1,3.9,0.8c2.5,1.2,3.6,4.1,3.5,8.2c-0.1,4.1-1.4,6.9-3.9,7.8c-1.2,0.4-2.4,0.5-3.7,0.5
		C407.3,168.3,392.2,168.3,377,168.3C377,168.3,377,168.3,377,168.3z"/>
	<linearGradient id="SVGID_37_" gradientUnits="userSpaceOnUse" x1="249.1463" y1="38.5616" x2="349.9038" y2="38.5616">
		<stop  offset="0" style="stop-color:#E5700F"/>
		<stop  offset="1" style="stop-color:#FEBA1C"/>
	</linearGradient>
	<path class="st38" d="M299.3,47.3c-14.2,0-28.5,0-42.7,0c-1.3,0-2.7-0.1-3.9-0.8c-2.3-1.2-3.8-4.1-3.4-7.8c0.4-2.8,1.7-5.8,3.1-7.7
		c0.9-1.2,2.7-1,4.1-1c28.5,0,57,0,85.4,0c5.3,0,8.1,3.1,8,8.9c-0.1,5.7-2.7,8.5-7.9,8.5C327.7,47.3,313.5,47.3,299.3,47.3z"/>
	<linearGradient id="SVGID_38_" gradientUnits="userSpaceOnUse" x1="355.6423" y1="38.5413" x2="430.0279" y2="38.5413">
		<stop  offset="0" style="stop-color:#E5700F"/>
		<stop  offset="1" style="stop-color:#FEBA1C"/>
	</linearGradient>
	<path class="st39" d="M393,29.9c10.1,0,20.3,0,30.4,0c4.2,0,6.6,3.1,6.6,8.4c0,4.3-1.2,7.3-3.9,8.3c-1.3,0.5-2.6,0.6-4,0.6
		c-19.5,0-39.1,0-58.6,0c-5.2,0-7.8-2.8-7.9-8.5c-0.1-5.9,2.6-9,7.9-9C373.4,29.8,383.2,29.8,393,29.9C393,29.8,393,29.9,393,29.9z"
		/>
	<linearGradient id="SVGID_39_" gradientUnits="userSpaceOnUse" x1="249.1307" y1="159.5886" x2="319.2053" y2="159.5886">
		<stop  offset="0" style="stop-color:#E5700F"/>
		<stop  offset="1" style="stop-color:#FEBA1C"/>
	</linearGradient>
	<path class="st40" d="M283.9,168.3c-9,0-18,0-27,0c-1.2,0-2.5-0.1-3.7-0.5c-2.5-0.8-3.9-3.5-4.1-7.6c-0.2-4.3,1.1-7.3,3.7-8.5
		c1.2-0.5,2.4-0.7,3.6-0.7c18.4,0,36.8,0,55.3,0c1,0,2.1,0,3,0.4c2.8,1,4.7,4.6,4.4,8.7c-0.3,4.4-1.8,7.5-4.6,7.9
		c-2.7,0.4-5.5,0.3-8.3,0.4C298.8,168.3,291.3,168.3,283.9,168.3z"/>
	<linearGradient id="SVGID_40_" gradientUnits="userSpaceOnUse" x1="338.4131" y1="336.9075" x2="375.2895" y2="336.9075">
		<stop  offset="0" style="stop-color:#E5700F"/>
		<stop  offset="1" style="stop-color:#FEBA1C"/>
	</linearGradient>
	<path class="st41" d="M375.3,315c-0.5,1.1-1.3,4.6-2.6,5.4c-8.7,5.2-13.8,16.7-18.9,28.1c-2.1,4.6-3.5,10-5.1,15.1
		c-1.3,4.3-3.7,6.6-6.5,5.3c-2.6-1.2-4.6-5.6-3.6-10c1.2-5.7,2.6-11.7,4.8-16.4c4.5-9.7,9.3-19.2,14.7-27.8
		c2.8-4.4,6.8-7.3,10.5-9.6C372.1,303,375.3,307.5,375.3,315z"/>
	<linearGradient id="SVGID_41_" gradientUnits="userSpaceOnUse" x1="380.6872" y1="119.2753" x2="430.062" y2="119.2753">
		<stop  offset="0" style="stop-color:#E5700F"/>
		<stop  offset="1" style="stop-color:#FEBA1C"/>
	</linearGradient>
	<path class="st42" d="M405.3,127.9c-5.8,0-11.7,0.1-17.5,0c-1.3,0-2.7-0.2-3.9-0.9c-2.3-1.5-3.5-4.6-3.2-8.7c0.3-3.8,1.6-6.4,4-7.2
		c1-0.4,2-0.4,3-0.4c11.7,0,23.3-0.1,35,0c1.5,0,3.1,0.2,4.5,1.2c2.5,1.8,3.2,5.5,2.6,9.6c-0.7,4.5-2.8,6.4-5.5,6.4
		C418,128,411.7,127.9,405.3,127.9z"/>
</g>
<g class="st0">
	<g class="st9">
		<g>
			<linearGradient id="SVGID_42_" gradientUnits="userSpaceOnUse" x1="-38" y1="179.9114" x2="474.0005" y2="179.9114">
				<stop  offset="0" style="stop-color:#E5700F"/>
				<stop  offset="1" style="stop-color:#FEBA1C"/>
			</linearGradient>
			<path class="st43" d="M464.6,56.5c-14.6-7.6-46.5-7.5-59.1,8.2c-4.8,6-9.3,11.8-14,17.8c-12.2,15.8-26.1,33.7-51.5,62.8
				c-5.7,6.5-13.1,11.9-21.7,16.4c0.3-1.3,0.5-2.6,0.6-3.9c0.9-10.6-4-20.8-12.6-26.7c-10.2-7-24-7.2-37.8-0.4
				c-17.7,8.6-37.4,8.5-56.5,8.4c-2.3,0-4.6,0-6.8,0c-8.1,0-16.4-3.5-26.1-7.6c-13.1-5.5-28-11.8-47.4-11.8
				c-21.9,0-43.2,12.9-56.6,22.9v-4.1c0-4.5-3.6-8.1-8.1-8.1h-97c-4.5,0-8.1,3.6-8.1,8.1v161.6c0,4.5,3.6,8.1,8.1,8.1h97
				c4.5,0,8.1-3.6,8.1-8.1v-15.5c35,4.9,66.5,6.8,94.8,6.8c56.8,0,101-7.8,135.9-15.8c33.6-7.7,96.3-73.4,131.4-138
				c6.6-12.1,13.6-23.7,19.7-33.9c8.5-14.1,14.7-24.2,16.5-30.4C474.2,70.9,475.8,62.3,464.6,56.5z M59,292h-80.8V146.6H59
				C59,146.6,59,292,59,292z M443.2,95.5c-6.2,10.3-13.3,22-20.1,34.5c-35.2,64.8-94.9,124-120.8,130C251,271.6,179,283,75.1,268.3
				V163.5c7.7-6.9,32.7-27.7,56.6-27.7c16.2,0,28.9,5.4,41.2,10.5c10.8,4.6,21.1,8.9,32.4,8.9c2.2,0,4.5,0,6.7,0
				c19.9,0.1,42.6,0.3,63.7-10c8.4-4.1,16.2-4.4,21.6-0.7c3.9,2.7,6.1,7.2,5.6,12.1c-0.5,6.5-5.6,12.5-13.8,16.4
				c-41.8,11.4-94.4,11.4-125,11.4c-4.5,0-8.1,3.6-8.1,8.1s3.6,8.1,8.1,8.1c30.2,0,65.3-0.4,99.2-5.7c42.9-6.7,72.1-19.3,89-38.7
				c25.8-29.4,39.8-47.6,52.1-63.5c4.7-6,9.1-11.7,13.8-17.6c3.2-4,11-6.7,20.5-7c8.7-0.3,15.7,1.5,18.5,3
				C455,75.9,449.2,85.5,443.2,95.5z"/>
			<linearGradient id="SVGID_43_" gradientUnits="userSpaceOnUse" x1="248.784" y1="33.927" x2="275.723" y2="33.927">
				<stop  offset="0" style="stop-color:#E5700F"/>
				<stop  offset="1" style="stop-color:#FEBA1C"/>
			</linearGradient>
			<path class="st44" d="M262.3,47.4c7.4,0,13.5-6,13.5-13.5c0-7.4-6-13.5-13.5-13.5c-7.4,0-13.5,6-13.5,13.5
				C248.8,41.4,254.8,47.4,262.3,47.4z"/>
			<linearGradient id="SVGID_44_" gradientUnits="userSpaceOnUse" x1="147.505" y1="66.825" x2="318.7988" y2="66.825">
				<stop  offset="0" style="stop-color:#E5700F"/>
				<stop  offset="1" style="stop-color:#FEBA1C"/>
			</linearGradient>
			<path class="st45" d="M155.6,156.3h30.5c4.5,0,8.1-3.6,8.1-8.1v-7.2h7.2c2.1,0,8.1-3,8.1-8.1v-7.2h7.2c4.5,0,8.1-3.6,8.1-8.1
				v-7.2h7.2c2.1,0,4.2-0.9,5.7-2.4l18.1-18.1c2.2,0.3,4.4,0.4,6.7,0.4c0,0,0,0,0,0c15.1,0,29.3-5.9,40-16.6
				c22.1-22.1,22.1-57.9,0-80c-10.7-10.7-24.9-16.6-40-16.6c-15.1,0-29.3,5.9-40,16.6c-15.5,15.5-20.5,38.6-13.3,59L149.9,112
				c-1.5,1.5-2.4,3.6-2.4,5.7v30.5C147.5,152.7,151.1,156.3,155.6,156.3z M163.7,121.1l60.5-60.5c2.4-2.4,3.1-6.1,1.6-9.2
				c-7.4-15.4-4.2-33.9,7.9-46c7.6-7.6,17.8-11.8,28.6-11.8s20.9,4.2,28.6,11.8c15.8,15.8,15.8,41.4,0,57.1
				c-7.6,7.6-17.8,11.8-28.6,11.8c0,0,0,0,0,0c-2.6,0-5.3-0.3-7.9-0.8c-2.6-0.5-5.4,0.3-7.3,2.2l-18.6,18.6h-11.9
				c-4.5,0-8.1,3.6-8.1,8.1v7.2h-7.2c-4.5,0-8.1,3.6-8.1,8.1v7.2h-7.2h0c-4.2,0-8.1,3.5-8.1,8.1v7.2h-14.3L163.7,121.1L163.7,121.1z
				"/>
			<linearGradient id="SVGID_45_" gradientUnits="userSpaceOnUse" x1="-24.899" y1="281.755" x2="2.04" y2="281.755">
				<stop  offset="0" style="stop-color:#E5700F"/>
				<stop  offset="1" style="stop-color:#FEBA1C"/>
			</linearGradient>
			<path class="st46" d="M-11.4,295.2c7.4,0,13.5-6,13.5-13.5c0-7.4-6-13.5-13.5-13.5c-7.4,0-13.5,6-13.5,13.5
				C-24.9,289.2-18.9,295.2-11.4,295.2z"/>
		</g>
	</g>
</g>
<linearGradient id="SVGID_46_" gradientUnits="userSpaceOnUse" x1="104.6839" y1="167.7155" x2="171.0988" y2="167.7155">
	<stop  offset="0" style="stop-color:#E5700F"/>
	<stop  offset="1" style="stop-color:#FEBA1C"/>
</linearGradient>
<path class="st47" d="M169.4,158.7c-2.6-3.2-7.4-3.7-10.6-1c-5.3,4.4-12.9,6.9-20.9,6.9c-8,0-15.6-2.5-20.9-6.9
	c-3.2-2.6-7.9-2.2-10.6,1c-2.6,3.2-2.2,7.9,1,10.6c8.1,6.6,18.9,10.3,30.5,10.3c11.6,0,22.4-3.6,30.5-10.3
	C171.6,166.6,172,161.9,169.4,158.7z"/>
<linearGradient id="SVGID_47_" gradientUnits="userSpaceOnUse" x1="87.547" y1="116.3015" x2="102.547" y2="116.3015">
	<stop  offset="0" style="stop-color:#E5700F"/>
	<stop  offset="1" style="stop-color:#FEBA1C"/>
</linearGradient>
<path class="st48" d="M95,104.5c-4.1,0-7.5,3.4-7.5,7.5v8.6c0,4.1,3.4,7.5,7.5,7.5s7.5-3.4,7.5-7.5V112
	C102.5,107.9,99.2,104.5,95,104.5z"/>
<linearGradient id="SVGID_48_" gradientUnits="userSpaceOnUse" x1="173.236" y1="116.3015" x2="188.236" y2="116.3015">
	<stop  offset="0" style="stop-color:#E5700F"/>
	<stop  offset="1" style="stop-color:#FEBA1C"/>
</linearGradient>
<path class="st49" d="M180.7,128.1c4.1,0,7.5-3.4,7.5-7.5V112c0-4.1-3.4-7.5-7.5-7.5s-7.5,3.4-7.5,7.5v8.6
	C173.2,124.7,176.6,128.1,180.7,128.1z"/>
<linearGradient id="SVGID_49_" gradientUnits="userSpaceOnUse" x1="-15.281" y1="172" x2="256.788" y2="172">
	<stop  offset="0" style="stop-color:#E5700F"/>
	<stop  offset="1" style="stop-color:#FEBA1C"/>
</linearGradient>
<path class="st50" d="M77.8,266.1l6.4-3.2c11.3-5.7,18.4-17,18.4-29.7v-8.7c11.3,4.2,23.3,6.3,35.5,6.3c7,0,14.1-0.7,21.2-2.1
	c22.6-4.6,43.1-17.3,57.8-35.6c14.6-18.3,22.6-41.1,22.6-64.2c-0.1-44.4-33.8-52.2-72.8-61.3c-19-4.4-40.5-9.4-62-19.2
	c-7.1-3.2-15.5-1-19.9,5.4c-14.6,21-30,33.6-41.3,33.6c-3.4,0-6.7,0.7-9.6,2V69.2C34,11.9,80.6-34.7,137.9-34.7
	S241.8,11.9,241.8,69.2v17.1c0,4.1,3.4,7.5,7.5,7.5c4.1,0,7.5-3.4,7.5-7.5V69.2c0-44.2-24.3-82.9-60.2-103.4
	c0.1-1.3,0.2-2.5,0.2-3.8c0-25.4-26.4-46.1-58.9-46.1C105.4-84,79-63.3,79-37.9c0,1.3,0.1,2.5,0.2,3.8C43.3-13.7,19,25,19,69.2V112
	c0,11,7.3,20.4,17.3,23.5c1.8,28.3,15.1,54.4,37.2,72.5c4.4,3.6,9.1,6.8,14,9.6v15.7c0,6.9-3.9,13.2-10.1,16.3L3.1,286.7
	c-11.3,5.7-18.4,17-18.4,29.7v35.5c0,6.2,3.5,11.5,8.6,14.2v54.4c0,4.1,3.4,7.5,7.5,7.5s7.5-3.4,7.5-7.5V368h27.8v52.5
	c0,4.1,3.4,7.5,7.5,7.5s7.5-3.4,7.5-7.5v-77.1c0-4.1-3.4-7.5-7.5-7.5s-7.5,3.4-7.5,7.5v9.6H0.8c-0.6,0-1.1-0.5-1.1-1.1v-35.5
	c0-6.9,3.9-13.2,10.1-16.3l54.6-27.3c11.2,20,33.1,40.8,34.1,41.7c1.4,1.4,3.3,2,5.1,2c2,0,4-0.8,5.5-2.4c2.8-3,2.7-7.8-0.3-10.6
	C108.5,303.4,87.9,283.9,77.8,266.1z M137.9-69c22.5,0,41.2,12.1,43.6,27.6c-13.5-5.3-28.2-8.3-43.6-8.3c-15.4,0-30.1,2.9-43.6,8.3
	C96.7-56.9,115.3-69,137.9-69z M83.1,196.4c-20.3-16.6-31.9-41.1-31.9-67.2c0-4.1-3.4-7.5-7.5-7.5c-5.3,0-9.6-4.3-9.6-9.6
	s4.3-9.6,9.6-9.6c22.5,0,43.3-25.1,53.6-40.1c0.2-0.3,0.5-0.4,0.8-0.4c0.2,0,0.4,0.1,0.6,0.1l0,0c22.8,10.3,45.1,15.5,64.7,20.1
	c41.3,9.6,61.1,15.6,61.2,46.8c0.1,19.7-6.8,39.2-19.3,54.8c-12.5,15.6-30,26.4-49.1,30.3C130,219.4,103.3,213,83.1,196.4z"/>
<linearGradient id="SVGID_50_" gradientUnits="userSpaceOnUse" x1="121.8622" y1="296.2706" x2="385.2823" y2="296.2706">
	<stop  offset="0" style="stop-color:#E5700F"/>
	<stop  offset="1" style="stop-color:#FEBA1C"/>
</linearGradient>
<path class="st51" d="M360.5,189.3c-33-33-86.7-33-119.7,0l-94.3,94.3c-33,33-33,86.7,0,119.7c16.5,16.5,38.2,24.7,59.8,24.7
	c21.2,0,42.3-7.9,58.7-23.6l12,20c2.1,3.6,6.7,4.7,10.3,2.6s4.7-6.7,2.6-10.3L266.8,378c-2.9-4.8-8.2-7.8-13.8-7.8h-12.3
	c-7.5,0-14.8-3.2-19.8-8.8c-5.1-5.6-7.6-13-6.8-20.7c1.3-13.5,13.6-24.1,28.1-24.1H258c13,0,24.9,7.1,31.1,18.6l47.9,88.9
	c1.4,2.5,3.9,3.9,6.6,3.9c1.2,0,2.4-0.3,3.5-0.9c3.6-2,5-6.5,3-10.2L316,353.5l44.5-44.5C393.5,276,393.5,222.3,360.5,189.3z
	 M199.1,339.3c-1.1,11.8,2.8,23.5,10.7,32.2c7.9,8.7,19.2,13.7,30.9,13.7H253c0.4,0,0.7,0.2,0.9,0.5l3.3,5.4l-1.5,1.5
	c-27.1,27.1-71.3,27.1-98.5,0c-27.1-27.1-27.1-71.3,0-98.5l22.3-22.3c7.6,7.5,22.5,21.7,40.5,35.7
	C208.5,314.3,200.4,325.9,199.1,339.3z M308.6,339.7l-6.3-11.6c-8.8-16.3-25.8-26.5-44.3-26.5h-15.8c-1.7,0-3.3,0.1-5,0.3
	c-20.6-15.1-38.6-32.2-47.1-40.6l61.4-61.4c27.1-27.1,71.3-27.1,98.5,0c13.1,13.1,20.4,30.6,20.4,49.2s-7.2,36.1-20.4,49.2
	L308.6,339.7z"/>
<linearGradient id="SVGID_51_" gradientUnits="userSpaceOnUse" x1="250.3813" y1="249.1197" x2="351.0227" y2="249.1197">
	<stop  offset="0" style="stop-color:#E5700F"/>
	<stop  offset="1" style="stop-color:#FEBA1C"/>
</linearGradient>
<path class="st52" d="M336.3,213.5c-19.6-19.6-51.6-19.6-71.2,0c-19.6,19.6-19.6,51.6,0,71.2c9.8,9.8,22.7,14.7,35.6,14.7
	s25.8-4.9,35.6-14.7C355.9,265.1,355.9,233.2,336.3,213.5z M325.7,274.1c-13.8,13.8-36.2,13.8-50,0c-13.8-13.8-13.8-36.2,0-50
	c6.9-6.9,15.9-10.3,25-10.3s18.1,3.4,25,10.3C339.5,237.9,339.5,260.3,325.7,274.1z"/>
<linearGradient id="SVGID_52_" gradientUnits="userSpaceOnUse" x1="281.02" y1="237" x2="296.02" y2="237">
	<stop  offset="0" style="stop-color:#E5700F"/>
	<stop  offset="1" style="stop-color:#FEBA1C"/>
</linearGradient>
<circle class="st53" cx="288.5" cy="237" r="7.5"/>
<linearGradient id="SVGID_53_" gradientUnits="userSpaceOnUse" x1="305.27" y1="261.17" x2="320.27" y2="261.17">
	<stop  offset="0" style="stop-color:#E5700F"/>
	<stop  offset="1" style="stop-color:#FEBA1C"/>
</linearGradient>
<circle class="st54" cx="312.8" cy="261.2" r="7.5"/>
<linearGradient id="SVGID_54_" gradientUnits="userSpaceOnUse" x1="-62.683" y1="246.624" x2="181.374" y2="246.624">
	<stop  offset="0" style="stop-color:#E5700F"/>
	<stop  offset="1" style="stop-color:#FEBA1C"/>
</linearGradient>
<path class="st55" d="M142.4,301.2h-23.4l0-17.2c19.1-16.7,31.1-41.2,31.1-68.4v-29.9c6.1-30.6,3.3-53.3-8.3-67.5
	c-7.3-8.9-16.4-12.3-22.8-13.6V70.1c0-4.3-3.5-7.8-7.8-7.8c-3,0-6,0-9.1,0c-3.2,0-6.5,0-9.8,0c-37.6,0-79.8,2.4-104.8,30.8
	c-18,20.4-24.3,50.6-19.1,92.2v30.3c0,27.3,12.1,51.8,31.2,68.4v17.2h-23.4c-21.5,0-38.9,17.5-38.9,38.9v83.1c0,4.3,3.5,7.8,7.8,7.8
	h228.5c4.3,0,7.8-3.5,7.8-7.8v-83.1c0,0,0,0,0,0C181.4,318.6,163.9,301.2,142.4,301.2z M103.5,304.8l-23.9,15.9l-12.4-6.2V306
	c13.1-1.1,25.4-5,36.4-11.1L103.5,304.8z M-0.8,103.3c20.8-23.5,59-25.5,93.1-25.5c3.3,0,6.5,0,9.7,0c0.5,0,0.9,0,1.4,0v33.8
	c0,2.1,0.9,4.2,2.4,5.7c1.6,1.5,3.6,2.2,5.8,2.1c0.7,0,11-0.2,18.2,8.6c5.3,6.5,8,16.4,7.9,29.3l-3.4-6.8c-1.7-3.4-5.7-5.1-9.3-3.9
	c-0.5,0.1-46.6,14.8-73.2,14.8c-25.5,0-48.6-13.8-48.9-14c-3.4-2.1-7.9-1.2-10.3,2l-10.3,13.7C-18.2,136.8-12.6,116.7-0.8,103.3z
	 M-15.9,215.5v-28.7l17.1-22.7c9.6,4.8,29.1,12.9,50.7,12.9c23.1,0,57.4-9.4,71.6-13.5l11.2,22.5v29.6c0,41.5-33.8,75.3-75.3,75.3
	C17.8,290.8-15.9,257-15.9,215.5z M51.6,306v8l-16.8,6.7l-19.5-15.6v-10.3C26.1,301,38.5,304.9,51.6,306z M165.8,415.4h-36.3v-23.4
	c0-4.3-3.5-7.8-7.8-7.8s-7.8,3.5-7.8,7.8v23.4H4.8v-23.4c0-4.3-3.5-7.8-7.8-7.8s-7.8,3.5-7.8,7.8v23.4h-36.3v-75.3
	c0-12.9,10.5-23.4,23.4-23.4H4.7l23.8,19.1c0.1,0.1,0.2,0.1,0.2,0.1c0.2,0.2,0.4,0.3,0.7,0.4c0.1,0.1,0.3,0.2,0.4,0.2
	c0.2,0.1,0.4,0.2,0.7,0.3c0.2,0.1,0.3,0.1,0.5,0.2c0.3,0.1,0.5,0.1,0.8,0.2c0.1,0,0.3,0.1,0.4,0.1c0.4,0.1,0.8,0.1,1.2,0.1
	c0.3,0,0.5,0,0.8,0c0,0,0.1,0,0.1,0c0.2,0,0.4-0.1,0.6-0.1c0.1,0,0.2,0,0.3-0.1c0.2,0,0.3-0.1,0.5-0.1c0.1,0,0.2-0.1,0.3-0.1
	c0.1,0,0.1,0,0.2-0.1l22.7-9.1l17.5,8.7c0,0,0,0,0,0l0.1,0.1c0.1,0.1,0.2,0.1,0.3,0.1c0.2,0.1,0.3,0.1,0.5,0.2
	c0.2,0.1,0.4,0.1,0.6,0.2c0.1,0,0.2,0.1,0.3,0.1c0.3,0.1,0.6,0.1,0.8,0.2c0,0,0,0,0.1,0c0.3,0,0.6,0.1,0.9,0.1c0.4,0,0.7,0,1.1-0.1
	c0.2,0,0.3-0.1,0.5-0.1c0.2,0,0.4-0.1,0.6-0.1c0.2,0,0.3-0.1,0.5-0.2c0.2-0.1,0.4-0.1,0.6-0.2c0.1-0.1,0.3-0.1,0.4-0.2
	c0.2-0.1,0.4-0.2,0.6-0.3c0,0,0.1,0,0.1-0.1l29.2-19.5h28.8c12.9,0,23.4,10.5,23.4,23.4c0,0,0,0,0,0L165.8,415.4L165.8,415.4z"/>
<linearGradient id="SVGID_55_" gradientUnits="userSpaceOnUse" x1="196.954" y1="236.254" x2="441.012" y2="236.254">
	<stop  offset="0" style="stop-color:#E5700F"/>
	<stop  offset="1" style="stop-color:#FEBA1C"/>
</linearGradient>
<path class="st56" d="M441,163.5C441,163.5,441,163.5,441,163.5c0-67.3-54.8-122-122-122c-67.3,0-122,54.7-122,122v187v72.7
	c0,4.3,3.5,7.8,7.8,7.8h228.5c4.3,0,7.8-3.5,7.8-7.8v-72.7c0,0,0,0,0,0L441,163.5L441,163.5z M319,57.1
	c58.7,0,106.5,47.8,106.5,106.4c0,0,0,0,0,0v155.8c-6.5-4.9-14.6-7.8-23.4-7.8h-30.9c-0.1,0-0.2,0-0.3,0s-0.2,0-0.3,0h-12.7l0-14
	c30.7-14.6,51.9-45.9,51.9-82.1V174c0-4.3-3.5-7.8-7.8-7.8h-13v-13c0-4.3-3.5-7.8-7.8-7.8s-7.8,3.5-7.8,7.8v13h-15.6v-13
	c0-4.3-3.5-7.8-7.8-7.8s-7.8,3.5-7.8,7.8v13h-15.6v-13c0-4.3-3.5-7.8-7.8-7.8s-7.8,3.5-7.8,7.8v13h-15.6v-13c0-4.3-3.5-7.8-7.8-7.8
	s-7.8,3.5-7.8,7.8v13h-15.6v-13c0-4.3-3.5-7.8-7.8-7.8s-7.8,3.5-7.8,7.8v13h-13c-4.3,0-7.8,3.5-7.8,7.8v41.6
	c0,36.2,21.3,67.5,51.9,82.1v14h-12.7c-0.1,0-0.2,0-0.3,0c-0.1,0-0.2,0-0.3,0h-30.9c-8.8,0-16.9,2.9-23.4,7.8V163.5
	C212.5,104.8,260.3,57.1,319,57.1z M243.7,181.7h150.6v33.8c0,41.5-33.8,75.3-75.3,75.3s-75.3-33.8-75.3-75.3L243.7,181.7
	L243.7,181.7z M287.8,327.1c4.3,0,7.8-3.5,7.8-7.8v-16c7.5,2,15.3,3,23.4,3c8.1,0,15.9-1.1,23.4-3.1l0,16v0c0,0,0,0,0,0
	c0,0.1,0,0.3,0,0.4c0,0.1,0,0.3,0,0.4c0,0.1,0,0.2,0.1,0.4c0,0.1,0,0.3,0.1,0.4c0,0.1,0.1,0.2,0.1,0.4c0,0.1,0.1,0.3,0.1,0.4
	c0,0.1,0.1,0.3,0.1,0.4c0,0.1,0.1,0.2,0.1,0.3c0.1,0.2,0.2,0.4,0.3,0.5c0,0,0,0.1,0.1,0.1c1.1,2,3,3.4,5.3,3.9c0,0,0,0,0,0
	c0.2,0,0.4,0.1,0.6,0.1c0.1,0,0.1,0,0.2,0c0.2,0,0.3,0,0.5,0c0.1,0,0.2,0,0.3,0c0,0,0,0,0,0h12.3c-3.7,20.6-21.8,36.3-43.4,36.3
	s-39.7-15.7-43.4-36.3L287.8,327.1L287.8,327.1z M425.4,415.4h-36.3v-23.4c0-4.3-3.5-7.8-7.8-7.8s-7.8,3.5-7.8,7.8v23.4H264.5v-23.4
	c0-4.3-3.5-7.8-7.8-7.8s-7.8,3.5-7.8,7.8v23.4h-36.3v-64.9c0-12.9,10.5-23.4,23.4-23.4h23.9c3.8,29.3,28.9,51.9,59.2,51.9
	s55.4-22.7,59.2-51.9h23.9c12.9,0,23.4,10.5,23.4,23.3c0,0,0,0,0,0L425.4,415.4L425.4,415.4z"/>
<g class="st0">
	<linearGradient id="SVGID_56_" gradientUnits="userSpaceOnUse" x1="187.1266" y1="-11.3132" x2="278.9148" y2="-11.3132">
		<stop  offset="0" style="stop-color:#E5700F"/>
		<stop  offset="1" style="stop-color:#FEBA1C"/>
	</linearGradient>
	<path class="st57" d="M264.6-66.5c-9.2-9.2-21.5-14.3-34.6-14.3c-13.1,0-25.3,5.1-34.6,14.3c-0.5,0.5-0.9,1.1-1.1,1.8
		c-0.3,1.2-0.1,2.5,0.7,3.4l8.3,11.5l-13.9,18c-1.3,1.7-1,4.1,0.6,5.5L206-13.2L192.4,4.7c-1.1,1.4-1.1,3.3,0,4.8l11.8,15.8
		L189,34.6c-1,0.6-1.7,1.7-1.9,2.9c-0.1,1.2,0.3,2.4,1.1,3.3l16.3,16.3c0.7,0.7,1.8,1.2,2.8,1.2c0.1,0,0.2,0,0.2,0
		c1-0.1,1.9-0.5,2.6-1.2l54.4-54.4c9.2-9.2,14.3-21.5,14.3-34.6C278.9-45,273.8-57.3,264.6-66.5L264.6-66.5z M259-2.9l-51.6,51.6
		l-10-10l14.5-9c0.9-0.6,1.6-1.5,1.8-2.6c0.2-1.1-0.1-2.2-0.7-3.1L200.4,7.1l14.2-18.6c1.3-1.7,1-4.1-0.6-5.5L197.9-30l13.4-17.3
		c1.1-1.4,1.1-3.3,0.1-4.7l-8-11.2c7.4-6.3,16.7-9.8,26.6-9.8c11,0,21.3,4.3,29,12c7.8,7.8,12,18.1,12,29S266.7-10.6,259-2.9
		L259-2.9z M259-2.9"/>
	<g class="st9">
		<linearGradient id="SVGID_57_" gradientUnits="userSpaceOnUse" x1="89.164" y1="-6.6995" x2="187.2624" y2="-6.6995">
			<stop  offset="0" style="stop-color:#E5700F"/>
			<stop  offset="1" style="stop-color:#FEBA1C"/>
		</linearGradient>
		<path class="st58" d="M169.2,38.7l14.5-9c0.9-0.6,1.6-1.5,1.8-2.6c0.2-1.1,0-2.2-0.7-3.1L172.3,7.1l14.2-18.6
			c1.3-1.7,1-4.1-0.6-5.5L169.7-30l13.4-17.3c1.1-1.4,1.1-3.3,0.1-4.7L176-62.1c-3.5-4.9-7.8-8.9-12.8-11.9
			c-19.3-11.4-43.8-8.4-59.6,7.5C94.3-57.3,89.2-45,89.2-31.9c0,13.1,5.1,25.4,14.3,34.6l63.6,63.6c0.8,0.8,1.8,1.2,2.8,1.2
			s2-0.4,2.8-1.2l9.2-9.2c0.4-0.3,0.6-0.7,0.9-1.2c0.7-1.5,0.4-3.3-0.8-4.5L169.2,38.7z M169.9,58L109.1-2.9c-7.8-7.8-12-18.1-12-29
			s4.3-21.3,12-29c7.9-7.9,18.4-12,29-12c7.2,0,14.4,1.9,20.9,5.8c4,2.4,7.6,5.7,10.5,9.7l5.5,7.7l-13.9,18c-1.3,1.7-1,4.1,0.6,5.5
			l16.1,13.1L164.2,4.7c-1.1,1.4-1.1,3.3,0,4.8l11.8,15.8l-15.1,9.3c-1,0.6-1.7,1.7-1.9,2.9c-0.1,1.2,0.3,2.4,1.1,3.3l13.5,13.5
			L169.9,58z M169.9,58"/>
	</g>
</g>
<linearGradient id="SVGID_58_" gradientUnits="userSpaceOnUse" x1="103.8479" y1="168.7155" x2="170.2628" y2="168.7155">
	<stop  offset="0" style="stop-color:#E5700F"/>
	<stop  offset="1" style="stop-color:#FEBA1C"/>
</linearGradient>
<path class="st59" d="M168.6,159.7c-2.6-3.2-7.4-3.7-10.6-1c-5.3,4.4-12.9,6.9-20.9,6.9c-8,0-15.6-2.5-20.9-6.9
	c-3.2-2.6-7.9-2.2-10.6,1c-2.6,3.2-2.2,7.9,1,10.6c8.1,6.6,18.9,10.3,30.5,10.3c11.6,0,22.4-3.6,30.5-10.3
	C170.7,167.6,171.2,162.9,168.6,159.7z"/>
<linearGradient id="SVGID_59_" gradientUnits="userSpaceOnUse" x1="86.711" y1="117.3015" x2="101.711" y2="117.3015">
	<stop  offset="0" style="stop-color:#E5700F"/>
	<stop  offset="1" style="stop-color:#FEBA1C"/>
</linearGradient>
<path class="st60" d="M94.2,105.5c-4.1,0-7.5,3.4-7.5,7.5v8.6c0,4.1,3.4,7.5,7.5,7.5s7.5-3.4,7.5-7.5V113
	C101.7,108.9,98.4,105.5,94.2,105.5z"/>
<linearGradient id="SVGID_60_" gradientUnits="userSpaceOnUse" x1="172.4" y1="117.3015" x2="187.4" y2="117.3015">
	<stop  offset="0" style="stop-color:#E5700F"/>
	<stop  offset="1" style="stop-color:#FEBA1C"/>
</linearGradient>
<path class="st61" d="M179.9,129.1c4.1,0,7.5-3.4,7.5-7.5V113c0-4.1-3.4-7.5-7.5-7.5s-7.5,3.4-7.5,7.5v8.6
	C172.4,125.7,175.8,129.1,179.9,129.1z"/>
<linearGradient id="SVGID_61_" gradientUnits="userSpaceOnUse" x1="-16.117" y1="173" x2="255.952" y2="173">
	<stop  offset="0" style="stop-color:#E5700F"/>
	<stop  offset="1" style="stop-color:#FEBA1C"/>
</linearGradient>
<path class="st62" d="M76.9,267.1l6.4-3.2c11.3-5.7,18.4-17,18.4-29.7v-8.7c11.3,4.2,23.3,6.3,35.5,6.3c7,0,14.1-0.7,21.2-2.1
	c22.6-4.6,43.1-17.3,57.8-35.6c14.6-18.3,22.6-41.1,22.6-64.2C238.7,85.5,205,77.7,166,68.6c-19-4.4-40.5-9.4-62-19.2
	c-7.1-3.2-15.5-1-19.9,5.4c-14.6,21-30,33.6-41.3,33.6c-3.4,0-6.7,0.7-9.6,2V70.2c0-57.3,46.6-103.9,103.9-103.9S241,12.9,241,70.2
	v17.1c0,4.1,3.4,7.5,7.5,7.5c4.1,0,7.5-3.4,7.5-7.5V70.2c0-44.2-24.3-82.9-60.2-103.4c0.1-1.3,0.2-2.5,0.2-3.8
	c0-25.4-26.4-46.1-58.9-46.1c-32.5,0-58.9,20.7-58.9,46.1c0,1.3,0.1,2.5,0.2,3.8C42.4-12.7,18.2,26,18.2,70.2V113
	c0,11,7.3,20.4,17.3,23.5c1.8,28.3,15.1,54.4,37.2,72.5c4.4,3.6,9.1,6.8,14,9.6v15.7c0,6.9-3.9,13.2-10.1,16.3L2.2,287.7
	c-11.3,5.7-18.4,17-18.4,29.7v35.5c0,6.2,3.5,11.5,8.6,14.2v54.4c0,4.1,3.4,7.5,7.5,7.5s7.5-3.4,7.5-7.5V369h27.8v52.5
	c0,4.1,3.4,7.5,7.5,7.5s7.5-3.4,7.5-7.5v-77.1c0-4.1-3.4-7.5-7.5-7.5s-7.5,3.4-7.5,7.5v9.6H0c-0.6,0-1.1-0.5-1.1-1.1v-35.5
	c0-6.9,3.9-13.2,10.1-16.3l54.6-27.3c11.2,20,33.1,40.8,34.1,41.7c1.4,1.4,3.3,2,5.1,2c2,0,4-0.8,5.5-2.4c2.8-3,2.7-7.8-0.3-10.6
	C107.7,304.4,87.1,284.9,76.9,267.1z M137.1-68c22.5,0,41.2,12.1,43.6,27.6c-13.5-5.3-28.2-8.3-43.6-8.3c-15.4,0-30.1,2.9-43.6,8.3
	C95.9-55.9,114.5-68,137.1-68z M82.2,197.4c-20.3-16.6-31.9-41.1-31.9-67.2c0-4.1-3.4-7.5-7.5-7.5c-5.3,0-9.6-4.3-9.6-9.6
	s4.3-9.6,9.6-9.6c22.5,0,43.3-25.1,53.6-40.1c0.2-0.3,0.5-0.4,0.8-0.4c0.2,0,0.4,0.1,0.6,0.1l0,0c22.8,10.3,45.1,15.5,64.7,20.1
	c41.3,9.6,61.1,15.6,61.2,46.8c0.1,19.7-6.8,39.2-19.3,54.8c-12.5,15.6-30,26.4-49.1,30.3C129.2,220.4,102.5,214,82.2,197.4z"/>
<linearGradient id="SVGID_62_" gradientUnits="userSpaceOnUse" x1="121.0262" y1="297.2706" x2="384.4463" y2="297.2706">
	<stop  offset="0" style="stop-color:#E5700F"/>
	<stop  offset="1" style="stop-color:#FEBA1C"/>
</linearGradient>
<path class="st63" d="M359.7,190.3c-33-33-86.7-33-119.7,0l-94.3,94.3c-33,33-33,86.7,0,119.7c16.5,16.5,38.2,24.7,59.8,24.7
	c21.2,0,42.3-7.9,58.7-23.6l12,20c2.1,3.6,6.7,4.7,10.3,2.6s4.7-6.7,2.6-10.3L265.9,379c-2.9-4.8-8.2-7.8-13.8-7.8h-12.3
	c-7.5,0-14.8-3.2-19.8-8.8c-5.1-5.6-7.6-13-6.8-20.7c1.3-13.5,13.6-24.1,28.1-24.1h15.8c13,0,24.9,7.1,31.1,18.6l47.9,88.9
	c1.4,2.5,3.9,3.9,6.6,3.9c1.2,0,2.4-0.3,3.5-0.9c3.6-2,5-6.5,3-10.2l-34.2-63.4l44.5-44.5C392.7,277,392.7,223.3,359.7,190.3z
	 M198.3,340.3c-1.1,11.8,2.8,23.5,10.7,32.2c7.9,8.7,19.2,13.7,30.9,13.7h12.3c0.4,0,0.7,0.2,0.9,0.5l3.3,5.4l-1.5,1.5
	c-27.1,27.1-71.3,27.1-98.5,0c-27.1-27.1-27.1-71.3,0-98.5l22.3-22.3c7.6,7.5,22.5,21.7,40.5,35.7
	C207.7,315.3,199.6,326.9,198.3,340.3z M307.7,340.7l-6.3-11.6c-8.8-16.3-25.8-26.5-44.3-26.5h-15.8c-1.7,0-3.3,0.1-5,0.3
	c-20.6-15.1-38.6-32.2-47.1-40.6l61.4-61.4c27.1-27.1,71.3-27.1,98.5,0c13.1,13.1,20.4,30.6,20.4,49.2s-7.2,36.1-20.4,49.2
	L307.7,340.7z"/>
<linearGradient id="SVGID_63_" gradientUnits="userSpaceOnUse" x1="249.5453" y1="250.1197" x2="350.1867" y2="250.1197">
	<stop  offset="0" style="stop-color:#E5700F"/>
	<stop  offset="1" style="stop-color:#FEBA1C"/>
</linearGradient>
<path class="st64" d="M335.5,214.5c-19.6-19.6-51.6-19.6-71.2,0c-19.6,19.6-19.6,51.6,0,71.2c9.8,9.8,22.7,14.7,35.6,14.7
	s25.8-4.9,35.6-14.7C355.1,266.1,355.1,234.2,335.5,214.5z M324.9,275.1c-13.8,13.8-36.2,13.8-50,0c-13.8-13.8-13.8-36.2,0-50
	c6.9-6.9,15.9-10.3,25-10.3s18.1,3.4,25,10.3C338.6,238.9,338.6,261.3,324.9,275.1z"/>
<linearGradient id="SVGID_64_" gradientUnits="userSpaceOnUse" x1="280.184" y1="238" x2="295.184" y2="238">
	<stop  offset="0" style="stop-color:#E5700F"/>
	<stop  offset="1" style="stop-color:#FEBA1C"/>
</linearGradient>
<circle class="st65" cx="287.7" cy="238" r="7.5"/>
<linearGradient id="SVGID_65_" gradientUnits="userSpaceOnUse" x1="304.434" y1="262.17" x2="319.434" y2="262.17">
	<stop  offset="0" style="stop-color:#E5700F"/>
	<stop  offset="1" style="stop-color:#FEBA1C"/>
</linearGradient>
<circle class="st66" cx="311.9" cy="262.2" r="7.5"/>
<linearGradient id="SVGID_66_" gradientUnits="userSpaceOnUse" x1="-63.683" y1="223.624" x2="180.374" y2="223.624">
	<stop  offset="0" style="stop-color:#E5700F"/>
	<stop  offset="1" style="stop-color:#FEBA1C"/>
</linearGradient>
<path class="st67" d="M141.4,278.2h-23.4l0-17.2c19.1-16.7,31.1-41.2,31.1-68.4v-29.9c6.1-30.6,3.3-53.3-8.3-67.5
	c-7.3-8.9-16.4-12.3-22.8-13.6V47.1c0-4.3-3.5-7.8-7.8-7.8c-3,0-6,0-9.1,0c-3.2,0-6.5,0-9.8,0c-37.6,0-79.8,2.4-104.8,30.8
	c-18,20.4-24.3,50.6-19.1,92.2v30.3c0,27.3,12.1,51.8,31.2,68.4v17.2h-23.4c-21.5,0-38.9,17.5-38.9,38.9v83.1c0,4.3,3.5,7.8,7.8,7.8
	h228.5c4.3,0,7.8-3.5,7.8-7.8v-83.1c0,0,0,0,0,0C180.4,295.6,162.9,278.2,141.4,278.2z M102.5,281.8l-23.9,15.9l-12.4-6.2V283
	c13.1-1.1,25.4-5,36.4-11.1L102.5,281.8z M-1.8,80.3c20.8-23.5,59-25.5,93.1-25.5c3.3,0,6.5,0,9.7,0c0.5,0,0.9,0,1.4,0v33.8
	c0,2.1,0.9,4.2,2.4,5.7c1.6,1.5,3.6,2.2,5.8,2.1c0.7,0,11-0.2,18.2,8.6c5.3,6.5,8,16.4,7.9,29.3l-3.4-6.8c-1.7-3.4-5.7-5.1-9.3-3.9
	c-0.5,0.1-46.6,14.8-73.2,14.8c-25.5,0-48.6-13.8-48.9-14c-3.4-2.1-7.9-1.2-10.3,2l-10.3,13.7C-19.2,113.8-13.6,93.7-1.8,80.3z
	 M-16.9,192.5v-28.7l17.1-22.7c9.6,4.8,29.1,12.9,50.7,12.9c23.1,0,57.4-9.4,71.6-13.5l11.2,22.5v29.6c0,41.5-33.8,75.3-75.3,75.3
	C16.8,267.8-16.9,234-16.9,192.5z M50.6,283v8l-16.8,6.7l-19.5-15.6v-10.3C25.1,278,37.5,281.9,50.6,283z M164.8,392.4h-36.3v-23.4
	c0-4.3-3.5-7.8-7.8-7.8s-7.8,3.5-7.8,7.8v23.4H3.8v-23.4c0-4.3-3.5-7.8-7.8-7.8s-7.8,3.5-7.8,7.8v23.4h-36.3v-75.3
	c0-12.9,10.5-23.4,23.4-23.4H3.7l23.8,19.1c0.1,0.1,0.2,0.1,0.2,0.1c0.2,0.2,0.4,0.3,0.7,0.4c0.1,0.1,0.3,0.2,0.4,0.2
	c0.2,0.1,0.4,0.2,0.7,0.3c0.2,0.1,0.3,0.1,0.5,0.2c0.3,0.1,0.5,0.1,0.8,0.2c0.1,0,0.3,0.1,0.4,0.1c0.4,0.1,0.8,0.1,1.2,0.1
	c0.3,0,0.5,0,0.8,0c0,0,0.1,0,0.1,0c0.2,0,0.4-0.1,0.6-0.1c0.1,0,0.2,0,0.3-0.1c0.2,0,0.3-0.1,0.5-0.1c0.1,0,0.2-0.1,0.3-0.1
	c0.1,0,0.1,0,0.2-0.1l22.7-9.1l17.5,8.7c0,0,0,0,0,0l0.1,0.1c0.1,0.1,0.2,0.1,0.3,0.1c0.2,0.1,0.3,0.1,0.5,0.2
	c0.2,0.1,0.4,0.1,0.6,0.2c0.1,0,0.2,0.1,0.3,0.1c0.3,0.1,0.6,0.1,0.8,0.2c0,0,0,0,0.1,0c0.3,0,0.6,0.1,0.9,0.1c0.4,0,0.7,0,1.1-0.1
	c0.2,0,0.3-0.1,0.5-0.1c0.2,0,0.4-0.1,0.6-0.1c0.2,0,0.3-0.1,0.5-0.2c0.2-0.1,0.4-0.1,0.6-0.2c0.1-0.1,0.3-0.1,0.4-0.2
	c0.2-0.1,0.4-0.2,0.6-0.3c0,0,0.1,0,0.1-0.1l29.2-19.5h28.8c12.9,0,23.4,10.5,23.4,23.4c0,0,0,0,0,0L164.8,392.4L164.8,392.4z"/>
<linearGradient id="SVGID_67_" gradientUnits="userSpaceOnUse" x1="195.954" y1="213.254" x2="440.012" y2="213.254">
	<stop  offset="0" style="stop-color:#E5700F"/>
	<stop  offset="1" style="stop-color:#FEBA1C"/>
</linearGradient>
<path class="st68" d="M440,140.5C440,140.5,440,140.5,440,140.5c0-67.3-54.8-122-122-122c-67.3,0-122,54.7-122,122v187v72.7
	c0,4.3,3.5,7.8,7.8,7.8h228.5c4.3,0,7.8-3.5,7.8-7.8v-72.7c0,0,0,0,0,0L440,140.5L440,140.5z M318,34.1
	c58.7,0,106.5,47.8,106.5,106.4c0,0,0,0,0,0v155.8c-6.5-4.9-14.6-7.8-23.4-7.8h-30.9c-0.1,0-0.2,0-0.3,0s-0.2,0-0.3,0h-12.7l0-14
	c30.7-14.6,51.9-45.9,51.9-82.1V151c0-4.3-3.5-7.8-7.8-7.8h-13v-13c0-4.3-3.5-7.8-7.8-7.8s-7.8,3.5-7.8,7.8v13h-15.6v-13
	c0-4.3-3.5-7.8-7.8-7.8s-7.8,3.5-7.8,7.8v13h-15.6v-13c0-4.3-3.5-7.8-7.8-7.8s-7.8,3.5-7.8,7.8v13h-15.6v-13c0-4.3-3.5-7.8-7.8-7.8
	s-7.8,3.5-7.8,7.8v13h-15.6v-13c0-4.3-3.5-7.8-7.8-7.8s-7.8,3.5-7.8,7.8v13h-13c-4.3,0-7.8,3.5-7.8,7.8v41.6
	c0,36.2,21.3,67.5,51.9,82.1v14h-12.7c-0.1,0-0.2,0-0.3,0c-0.1,0-0.2,0-0.3,0h-30.9c-8.8,0-16.9,2.9-23.4,7.8V140.5
	C211.5,81.8,259.3,34.1,318,34.1z M242.7,158.7h150.6v33.8c0,41.5-33.8,75.3-75.3,75.3s-75.3-33.8-75.3-75.3L242.7,158.7
	L242.7,158.7z M286.8,304.1c4.3,0,7.8-3.5,7.8-7.8v-16c7.5,2,15.3,3,23.4,3c8.1,0,15.9-1.1,23.4-3.1l0,16v0c0,0,0,0,0,0
	c0,0.1,0,0.3,0,0.4c0,0.1,0,0.3,0,0.4c0,0.1,0,0.2,0.1,0.4c0,0.1,0,0.3,0.1,0.4c0,0.1,0.1,0.2,0.1,0.4c0,0.1,0.1,0.3,0.1,0.4
	c0,0.1,0.1,0.3,0.1,0.4c0,0.1,0.1,0.2,0.1,0.3c0.1,0.2,0.2,0.4,0.3,0.5c0,0,0,0.1,0.1,0.1c1.1,2,3,3.4,5.3,3.9c0,0,0,0,0,0
	c0.2,0,0.4,0.1,0.6,0.1c0.1,0,0.1,0,0.2,0c0.2,0,0.3,0,0.5,0c0.1,0,0.2,0,0.3,0c0,0,0,0,0,0h12.3c-3.7,20.6-21.8,36.3-43.4,36.3
	s-39.7-15.7-43.4-36.3L286.8,304.1L286.8,304.1z M424.4,392.4h-36.3v-23.4c0-4.3-3.5-7.8-7.8-7.8s-7.8,3.5-7.8,7.8v23.4H263.5v-23.4
	c0-4.3-3.5-7.8-7.8-7.8s-7.8,3.5-7.8,7.8v23.4h-36.3v-64.9c0-12.9,10.5-23.4,23.4-23.4h23.9c3.8,29.3,28.9,51.9,59.2,51.9
	s55.4-22.7,59.2-51.9h23.9c12.9,0,23.4,10.5,23.4,23.3c0,0,0,0,0,0L424.4,392.4L424.4,392.4z"/>
<g class="st0">
	<linearGradient id="SVGID_68_" gradientUnits="userSpaceOnUse" x1="186.1266" y1="-34.3132" x2="277.9148" y2="-34.3132">
		<stop  offset="0" style="stop-color:#E5700F"/>
		<stop  offset="1" style="stop-color:#FEBA1C"/>
	</linearGradient>
	<path class="st69" d="M263.6-89.5c-9.2-9.2-21.5-14.3-34.6-14.3c-13.1,0-25.3,5.1-34.6,14.3c-0.5,0.5-0.9,1.1-1.1,1.8
		c-0.3,1.2-0.1,2.5,0.7,3.4l8.3,11.5l-13.9,18c-1.3,1.7-1,4.1,0.6,5.5L205-36.2l-13.7,17.9c-1.1,1.4-1.1,3.3,0,4.8l11.8,15.8
		L188,11.6c-1,0.6-1.7,1.7-1.9,2.9c-0.1,1.2,0.3,2.4,1.1,3.3l16.3,16.3c0.7,0.7,1.8,1.2,2.8,1.2c0.1,0,0.2,0,0.2,0
		c1-0.1,1.9-0.5,2.6-1.2l54.4-54.4c9.2-9.2,14.3-21.5,14.3-34.6C277.9-68,272.8-80.3,263.6-89.5L263.6-89.5z M258-25.9l-51.6,51.6
		l-10-10l14.5-9c0.9-0.6,1.6-1.5,1.8-2.6c0.2-1.1-0.1-2.2-0.7-3.1l-12.6-16.9l14.2-18.6c1.3-1.7,1-4.1-0.6-5.5L196.9-53l13.4-17.3
		c1.1-1.4,1.1-3.3,0.1-4.7l-8-11.2c7.4-6.3,16.7-9.8,26.6-9.8c11,0,21.3,4.3,29,12c7.8,7.8,12,18.1,12,29S265.7-33.6,258-25.9
		L258-25.9z M258-25.9"/>
	<g class="st9">
		<linearGradient id="SVGID_69_" gradientUnits="userSpaceOnUse" x1="88.164" y1="-29.6995" x2="186.2624" y2="-29.6995">
			<stop  offset="0" style="stop-color:#E5700F"/>
			<stop  offset="1" style="stop-color:#FEBA1C"/>
		</linearGradient>
		<path class="st70" d="M168.2,15.7l14.5-9c0.9-0.6,1.6-1.5,1.8-2.6c0.2-1.1,0-2.2-0.7-3.1l-12.6-16.9l14.2-18.6
			c1.3-1.7,1-4.1-0.6-5.5L168.7-53l13.4-17.3c1.1-1.4,1.1-3.3,0.1-4.7L175-85.1c-3.5-4.9-7.8-8.9-12.8-11.9
			c-19.3-11.4-43.8-8.4-59.6,7.5C93.3-80.3,88.2-68,88.2-54.9c0,13.1,5.1,25.4,14.3,34.6l63.6,63.6c0.8,0.8,1.8,1.2,2.8,1.2
			s2-0.4,2.8-1.2l9.2-9.2c0.4-0.3,0.6-0.7,0.9-1.2c0.7-1.5,0.4-3.3-0.8-4.5L168.2,15.7z M168.9,35l-60.8-60.8
			c-7.8-7.8-12-18.1-12-29s4.3-21.3,12-29c7.9-7.9,18.4-12,29-12c7.2,0,14.4,1.9,20.9,5.8c4,2.4,7.6,5.7,10.5,9.7l5.5,7.7l-13.9,18
			c-1.3,1.7-1,4.1,0.6,5.5l16.1,13.1l-13.7,17.9c-1.1,1.4-1.1,3.3,0,4.8l11.8,15.8l-15.1,9.3c-1,0.6-1.7,1.7-1.9,2.9
			c-0.1,1.2,0.3,2.4,1.1,3.3l13.5,13.5L168.9,35z M168.9,35"/>
	</g>
</g>
<linearGradient id="SVGID_70_" gradientUnits="userSpaceOnUse" x1="43.714" y1="90.1413" x2="92.99" y2="90.1413">
	<stop  offset="0" style="stop-color:#E5700F"/>
	<stop  offset="1" style="stop-color:#FEBA1C"/>
</linearGradient>
<path class="st71" d="M68.4,101.9c8.7,0,17.1-4.1,23-11.3c2.6-3.2,2.1-7.9-1.1-10.5s-7.9-2.1-10.5,1.1c-3,3.7-7,5.8-11.3,5.8
	s-8.3-2.1-11.3-5.8c-2.6-3.2-7.3-3.7-10.5-1.1c-3.2,2.6-3.7,7.3-1.1,10.5C51.2,97.8,59.6,101.9,68.4,101.9z"/>
<linearGradient id="SVGID_71_" gradientUnits="userSpaceOnUse" x1="26.576" y1="47.2965" x2="41.576" y2="47.2965">
	<stop  offset="0" style="stop-color:#E5700F"/>
	<stop  offset="1" style="stop-color:#FEBA1C"/>
</linearGradient>
<path class="st72" d="M34.1,59.1c4.1,0,7.5-3.4,7.5-7.5V43c0-4.1-3.4-7.5-7.5-7.5s-7.5,3.4-7.5,7.5v8.6
	C26.6,55.7,29.9,59.1,34.1,59.1z"/>
<linearGradient id="SVGID_72_" gradientUnits="userSpaceOnUse" x1="95.128" y1="47.2965" x2="110.128" y2="47.2965">
	<stop  offset="0" style="stop-color:#E5700F"/>
	<stop  offset="1" style="stop-color:#FEBA1C"/>
</linearGradient>
<path class="st73" d="M102.6,59.1c4.1,0,7.5-3.4,7.5-7.5V43c0-4.1-3.4-7.5-7.5-7.5s-7.5,3.4-7.5,7.5v8.6
	C95.1,55.7,98.5,59.1,102.6,59.1z"/>
<linearGradient id="SVGID_73_" gradientUnits="userSpaceOnUse" x1="292.2146" y1="132.9853" x2="341.4894" y2="132.9853">
	<stop  offset="0" style="stop-color:#E5700F"/>
	<stop  offset="1" style="stop-color:#FEBA1C"/>
</linearGradient>
<path class="st74" d="M316.9,144.8c8.7,0,17.1-4.1,23-11.3c2.6-3.2,2.1-7.9-1.1-10.5c-3.2-2.6-7.9-2.1-10.5,1.1
	c-3,3.7-7,5.8-11.3,5.8c-4.3,0-8.3-2.1-11.3-5.8c-2.6-3.2-7.3-3.7-10.5-1.1c-3.2,2.6-3.7,7.3-1.1,10.5
	C299.7,140.6,308.1,144.8,316.9,144.8z"/>
<linearGradient id="SVGID_74_" gradientUnits="userSpaceOnUse" x1="275.076" y1="90.1414" x2="290.076" y2="90.1414">
	<stop  offset="0" style="stop-color:#E5700F"/>
	<stop  offset="1" style="stop-color:#FEBA1C"/>
</linearGradient>
<path class="st75" d="M282.6,101.9c4.1,0,7.5-3.4,7.5-7.5v-8.6c0-4.1-3.4-7.5-7.5-7.5c-4.1,0-7.5,3.4-7.5,7.5v8.6
	C275.1,98.6,278.4,101.9,282.6,101.9z"/>
<linearGradient id="SVGID_75_" gradientUnits="userSpaceOnUse" x1="343.628" y1="90.1414" x2="358.628" y2="90.1414">
	<stop  offset="0" style="stop-color:#E5700F"/>
	<stop  offset="1" style="stop-color:#FEBA1C"/>
</linearGradient>
<path class="st76" d="M351.1,101.9c4.1,0,7.5-3.4,7.5-7.5v-8.6c0-4.1-3.4-7.5-7.5-7.5c-4.1,0-7.5,3.4-7.5,7.5v8.6
	C343.6,98.6,347,101.9,351.1,101.9z"/>
<linearGradient id="SVGID_76_" gradientUnits="userSpaceOnUse" x1="-67.683" y1="150.1244" x2="444.3141" y2="150.1244">
	<stop  offset="0" style="stop-color:#E5700F"/>
	<stop  offset="1" style="stop-color:#FEBA1C"/>
</linearGradient>
<path class="st77" d="M423.4,226.7l-58.8-23.5c-0.3-0.1-0.6-0.3-0.9-0.4c40.6-9.2,59.8-24.7,60.7-25.4c2-1.7,3-4.3,2.7-6.9
	c-0.1-0.6-8.5-60.1-8.5-118.9c0-56.1-45.6-101.8-101.8-101.8c-56.1,0-101.8,45.6-101.8,101.8c0,15.4-0.7,34.2-1.8,52l-16.4,8.2
	l-48.1-24c-0.1-0.1-0.3-0.1-0.4-0.2c2.3-6.7,3.8-13.7,4.3-21c10.1-3.1,17.4-12.5,17.4-23.5c0-7.4-3.3-14.1-8.6-18.7v-49.9
	c0-13.8-7-26.7-18.4-34.4c-3.9-14.4-16.8-24.5-32-24.5H42.6C5.4-84.5-24.8-54.2-24.8-17v41.3c-5.2,4.5-8.6,11.2-8.6,18.7
	c0,11.1,7.3,20.4,17.4,23.5c1.9,25.2,14.9,47.3,34,61.5v20.7l-62,18.6c-14.2,4.2-23.7,17-23.7,31.8v83.7c0,4.1,3.4,7.5,7.5,7.5h1.1
	v86.8c0,4.1,3.4,7.5,7.5,7.5s7.5-3.4,7.5-7.5v-86.8h27.8v86.8c0,4.1,3.4,7.5,7.5,7.5s7.5-3.4,7.5-7.5V247.9c0-6.6-1.9-12.9-5.6-18.4
	l-12.8-19.2c-2.3-3.4-7-4.4-10.4-2.1c-3.4,2.3-4.4,7-2.1,10.4l12.8,19.2c2,3,3.1,6.5,3.1,10.1v27.6h-35.3h-1.1v-76.2
	c0-8.1,5.2-15.1,13-17.4l25.7-7.7c9,37.5,43,64.9,82.3,64.9c14.1,0,27.8-3.5,40.1-10.1c4.5,6.1,11.7,10.1,19.9,10.1h1.1v1.1
	c0,25.1,13.8,47.1,34.3,58.7V311c0,0.5-0.3,0.9-0.7,1l-28,9.3c-13.6,4.5-22.7,17.2-22.7,31.5v24.3c0,4.1,3.4,7.5,7.5,7.5
	s7.5-3.4,7.5-7.5v-24.3c0-7.8,5-14.8,12.4-17.3l8.2-2.7c10.9,16.2,29.2,26.1,48.9,26.1c19.8,0,38.1-9.9,48.9-26.1l8.2,2.7
	c7.4,2.5,12.4,9.4,12.4,17.3v24.3c0,4.1,3.4,7.5,7.5,7.5c4.1,0,7.5-3.4,7.5-7.5v-24.3c0-14.3-9.1-27-22.7-31.5l-28-9.3
	c-0.4-0.1-0.7-0.6-0.7-1v-12.2c15.3-8.7,26.9-23.2,31.8-40.5c14.2,14.8,34,23.5,55,23.5c33.2,0,62.4-21.5,72.4-52.7l28.6,11.5
	c7,2.8,11.4,9.4,11.4,16.9v35.1h-1.1h-26.8v-9.6c0-4.1-3.4-7.5-7.5-7.5c-4.1,0-7.5,3.4-7.5,7.5v94.3c0,4.1,3.4,7.5,7.5,7.5
	c4.1,0,7.5-3.4,7.5-7.5v-69.6h19.3v69.6c0,4.1,3.4,7.5,7.5,7.5c4.1,0,7.5-3.4,7.5-7.5v-69.6h1.1c2,0,3.9-0.8,5.3-2.2
	c1.4-1.4,2.2-3.3,2.2-5.3v-42.6C444.3,243.8,436.1,231.7,423.4,226.7z M230.1,51.6c0-47.8,38.9-86.8,86.8-86.8
	c47.8,0,86.8,38.9,86.8,86.8c0,50.4,6.1,101.3,8,116.5c-6.7,4.4-23.9,14.1-53,20.4v-11.9c4-2.3,7.8-4.8,11.4-7.7
	c14.8-11.9,25.2-28.6,29.4-47c1.4-6.1,2.1-12.5,2.1-18.8c0-42.4-30.7-48.5-60.3-54.4c-18.9-3.7-38.4-7.6-53.9-20
	c-2.3-1.8-5.3-2.2-7.9-0.9s-4.3,3.9-4.3,6.8c0,0.2-0.3,19.9-28.6,27c-4,1-6.5,5.1-5.5,9.1c1,4,5.1,6.5,9.1,5.5
	c23.7-5.9,33.3-19.2,37.2-29.2c16.3,9.6,34.5,13.3,50.9,16.5c31.7,6.3,48.2,10.9,48.2,39.6c0,5.2-0.6,10.4-1.7,15.5
	c-3.4,15.1-12,28.9-24.2,38.7c-12.5,10.1-27.6,15.4-43.7,15.4c-14.7,0-28.7-4.5-40.5-13c-4.3-11.9-11.3-22.7-20.5-31.6V94.4
	c0-2.6-1.3-5-3.6-6.4s-5-1.5-7.3-0.3l-16.2,8.1C229.6,80.2,230.1,65.3,230.1,51.6z M240.8,106.6v27.1l-27.1-13.6L240.8,106.6z
	 M153,106.6l27.1,13.6L153,133.7V106.6z M138,128c-8.4,8.2-14.9,17.9-19.3,28.5c0-0.7,0.1-1.4,0.1-2.1v-26.3
	c7.5-5.5,14-12.3,19.3-19.9V128z M-1.3,60.1c0-4.1-3.4-7.5-7.5-7.5c-5.3,0-9.6-4.3-9.6-9.6s4.3-9.6,9.6-9.6H8.4
	c3.2,0,6.1-2.1,7.1-5.1l6.9-20.7C39.6,7.2,93,4.8,123.1-10.3c3.7-1.9,5.2-6.4,3.4-10.1c-1.9-3.7-6.4-5.2-10.1-3.4
	C84.1-7.5,17.6-7.3,16.9-7.3c-3.2,0-6.1,2.1-7.1,5.1L3,18.4H-8.8c-0.4,0-0.7,0-1.1,0V-17c0-28.9,23.5-52.5,52.5-52.5h68.6
	c9,0,16.5,6.5,17.9,15.3c0.4,2.3,1.7,4.2,3.7,5.4c8.5,4.8,13.7,13.7,13.7,23.2v43.9c-0.4,0-0.7,0-1.1,0h-8.6c-4.1,0-7.5,3.4-7.5,7.5
	s3.4,7.5,7.5,7.5h8.6c5.3,0,9.6,4.3,9.6,9.6s-4.3,9.6-9.6,9.6c-4.1,0-7.5,3.4-7.5,7.5c0,38.4-31.2,69.6-69.6,69.6
	S-1.3,98.5-1.3,60.1z M68.4,144.8c12.6,0,24.6-2.8,35.3-7.7v17.4c0,19.5-15.9,35.3-35.3,35.3c-19.5,0-35.3-15.8-35.3-35.2
	c0,0,0-0.1,0-0.1V137C43.8,142,55.7,144.8,68.4,144.8z M0.4,169.8l18.5-5.6c4.6,23.1,25,40.6,49.4,40.6c19.4,0,36.2-11,44.6-27.1
	c-0.5,3.6-0.7,7.3-0.7,11v7.1c-5.4,4.6-8.6,11.4-8.6,18.6C93,220.7,80.9,224,68.4,224C35.7,224,7.5,201.1,0.4,169.8z M226.1,326.3
	l4.8,1.6c-8.3,10.1-20.7,16.1-34,16.1c-13.3,0-25.7-6-34-16.1l4.8-1.6c6.6-2.2,11-8.3,11-15.2v-6c5.8,1.6,11.9,2.5,18.2,2.5
	s12.4-0.9,18.2-2.5v6C215.1,318,219.5,324.1,226.1,326.3z M196.9,292.6c-28.9,0-52.5-23.5-52.5-52.5v-8.6c0-4.1-3.4-7.5-7.5-7.5
	h-8.6c-5.3,0-9.6-4.3-9.6-9.6c0-3.4,1.8-6.5,4.8-8.3c0.7-0.4,1.3-0.9,1.8-1.5c18.5-0.5,78.6-4,118.1-26.6c3.6-2.1,4.8-6.6,2.8-10.2
	s-6.6-4.8-10.2-2.8c-34.6,19.8-89,23.7-108.7,24.5v-0.9c0-13.9,4.2-27.5,11.9-38.8c0.6,0.9,1.4,1.8,2.4,2.4c1.2,0.7,2.6,1.1,3.9,1.1
	c1.1,0,2.3-0.3,3.4-0.8l48.1-24l48.1,24c1.1,0.5,2.2,0.8,3.4,0.8c1.4,0,2.7-0.4,3.9-1.1c1-0.6,1.8-1.4,2.4-2.4
	c7.7,11.4,11.9,24.9,11.9,38.8v10.9c0,2.7,1.4,5.1,3.7,6.5c3,1.8,4.8,4.9,4.8,8.3c0,5.3-4.3,9.6-9.6,9.6h-8.6
	c-4.1,0-7.5,3.4-7.5,7.5v7.5c0,0.1,0,0.1,0,0.2v0.9C249.4,269,225.8,292.6,196.9,292.6z M316.9,266.9c-20.8,0-40-10.6-51.2-27.8
	c13.5-0.1,24.5-11.1,24.5-24.6c0-7.2-3.2-13.9-8.6-18.6v-7.1c0-3-0.2-6-0.5-9c11.1,5.2,23.3,7.9,35.8,7.9c9.1,0,18.2-1.5,26.8-4.4
	v11c0,10.1,6.1,19.1,15.5,22.9l16.2,6.5C367.5,249.2,343.9,266.9,316.9,266.9z"/>
<linearGradient id="SVGID_77_" gradientUnits="userSpaceOnUse" x1="172.249" y1="261.5203" x2="221.5243" y2="261.5203">
	<stop  offset="0" style="stop-color:#E5700F"/>
	<stop  offset="1" style="stop-color:#FEBA1C"/>
</linearGradient>
<path class="st78" d="M218.7,251.4c-3.2-2.6-7.9-2.1-10.5,1.1c-3,3.7-7,5.8-11.3,5.8s-8.3-2.1-11.3-5.8c-2.6-3.2-7.3-3.7-10.5-1.1
	c-3.2,2.6-3.7,7.3-1.1,10.5c5.8,7.2,14.2,11.3,23,11.3s17.1-4.1,23-11.3C222.5,258.7,222,254,218.7,251.4z"/>
<linearGradient id="SVGID_78_" gradientUnits="userSpaceOnUse" x1="163.817" y1="222.9939" x2="178.817" y2="222.9939">
	<stop  offset="0" style="stop-color:#E5700F"/>
	<stop  offset="1" style="stop-color:#FEBA1C"/>
</linearGradient>
<circle class="st79" cx="171.3" cy="223" r="7.5"/>
<linearGradient id="SVGID_79_" gradientUnits="userSpaceOnUse" x1="214.817" y1="222.9939" x2="229.817" y2="222.9939">
	<stop  offset="0" style="stop-color:#E5700F"/>
	<stop  offset="1" style="stop-color:#FEBA1C"/>
</linearGradient>
<circle class="st80" cx="222.3" cy="223" r="7.5"/>
<linearGradient id="SVGID_80_" gradientUnits="userSpaceOnUse" x1="250.6393" y1="2.9101" x2="285.9011" y2="2.9101">
	<stop  offset="0" style="stop-color:#E5700F"/>
	<stop  offset="1" style="stop-color:#FEBA1C"/>
</linearGradient>
<path class="st81" d="M267.8-11.8c-3.9-3.9-10.3-3.9-14.2,0c-3.9,3.9-3.9,10.3,0,14.2l15.2,15.2c2,2,4.5,2.9,7.1,2.9
	c2.6,0,5.1-1,7.1-2.9c3.9-3.9,3.9-10.3,0-14.2L267.8-11.8z"/>
<linearGradient id="SVGID_81_" gradientUnits="userSpaceOnUse" x1="267.8763" y1="-36.4757" x2="303.0128" y2="-36.4757">
	<stop  offset="0" style="stop-color:#E5700F"/>
	<stop  offset="1" style="stop-color:#FEBA1C"/>
</linearGradient>
<path class="st82" d="M270.8-36.9l15.1,15.1c2,2,4.5,2.9,7.1,2.9c2.6,0,5.1-1,7.1-2.9c3.9-3.9,3.9-10.3,0-14.2L285-51.1
	c-3.9-3.9-10.3-3.9-14.2,0C266.9-47.2,266.9-40.8,270.8-36.9z"/>
<linearGradient id="SVGID_82_" gradientUnits="userSpaceOnUse" x1="-67.6811" y1="150.001" x2="444.3166" y2="150.001">
	<stop  offset="0" style="stop-color:#E5700F"/>
	<stop  offset="1" style="stop-color:#FEBA1C"/>
</linearGradient>
<path class="st83" d="M438.2,78.7c-5.5-7.1-13.9-11.2-22.9-11.2c-3.4,0-6.7,0.6-9.9,1.7l-87.2-87.2c-3.9-3.9-10.3-3.9-14.2,0
	c-3.9,3.9-3.9,10.3,0,14.2l84.3,84.3c-5.4,3.9-11,7.7-16.8,11.4l-69.7-69.7c-3.9-3.9-10.3-3.9-14.2,0c-3.9,3.9-3.9,10.3,0,14.2
	l66.2,66.2c-8.4,4.6-16.6,8.7-24.1,11.8l-81.9-81.9c-3.9-3.9-10.3-3.9-14.2,0c-3.9,3.9-3.9,10.3,0,14.2l74.2,74.2
	c-1.1,0.1-2.1,0.2-3.1,0.2c-8,0-20.4,0-34.2,0l-28-28c-3.9-3.9-10.3-3.9-14.2,0c-3.9,3.9-3.9,10.3,0,14.2L242,121
	c-8.7,0-17.1,0-24.6,0c0-28.1,0-68.9,0-87.2c0-19.9,24.5-63.7,47.3-92.9c4.8-6.1,6.9-13.7,5.9-21.4c-0.9-7.7-4.8-14.6-10.9-19.3
	c-5.1-4-11.4-6.1-17.8-6.1c-9,0-17.4,4.1-22.9,11.2c-9.9,12.7-59.6,78.8-59.6,128.6c0,18.2,0,59.1,0,87.2c-28.1,0-69,0-87.2,0
	c-49.8,0-115.9,49.6-128.6,59.6c-6.1,4.8-10,11.6-10.9,19.3c-0.9,7.7,1.2,15.3,5.9,21.4c5.5,7.1,13.9,11.2,22.9,11.2
	c3.4,0,6.7-0.6,9.8-1.7l87.2,87.2c2,2,4.5,2.9,7.1,2.9c2.6,0,5.1-1,7.1-2.9c3.9-3.9,3.9-10.3,0-14.2l-84.3-84.3
	c5.4-3.9,11-7.7,16.8-11.4l69.7,69.7c2,2,4.5,2.9,7.1,2.9s5.1-1,7.1-2.9c3.9-3.9,3.9-10.3,0-14.2l-66.2-66.2
	c8.4-4.6,16.6-8.7,24.1-11.8l81.9,81.9c2,2,4.5,2.9,7.1,2.9c2.6,0,5.1-1,7.1-2.9c3.9-3.9,3.9-10.3,0-14.2L69,179.2
	c1.1-0.1,2.1-0.2,3.1-0.2c8,0,20.4,0,34.2,0l28,28c2,2,4.5,2.9,7.1,2.9c2.6,0,5.1-1,7.1-2.9c3.9-3.9,3.9-10.3,0-14.2L134.7,179
	c8.7,0,17.1,0,24.6,0c0,28.1,0,68.9,0,87.1c0,31.6-34.2,77.9-46.2,91.7c-10.5,12-9.3,30.4,2.7,40.9c5.3,4.6,12.1,7.2,19.1,7.2
	c8.4,0,16.3-3.6,21.8-9.9c0.6-0.7,15-17.2,29.5-40.5c20.6-33.2,31.1-63.2,31.1-89.4c0-18.2,0-59.1,0-87.2c28.1,0,69,0,87.2,0
	c49.8,0,115.9-49.6,128.6-59.6c6.1-4.8,10-11.6,11-19.3C445,92.5,442.9,84.9,438.2,78.7z M424.2,97.7c-0.3,2.4-1.5,4.5-3.4,6
	c-26.3,20.5-80.4,55.3-116.3,55.3c-20.6,0-69.9,0-97.2,0c0,0,0,0,0,0c-2.7,0-5.2,1.1-7.1,2.9c-1.9,1.9-2.9,4.4-2.9,7.1
	c0,27.3,0,76.7,0,97.2c0,22.4-9.4,48.9-28.1,78.8c-13.7,21.9-27.4,37.7-27.6,37.9c-1.7,1.9-4.2,3-6.7,3c-1.5,0-3.8-0.4-5.9-2.2
	c-3.7-3.2-4.1-8.9-0.8-12.6c0.5-0.6,51.2-59.1,51.2-104.9c0-20.5,0-69.9,0-97.2c0-5.5-4.5-10-10-10c-27.3,0-76.6,0-97.2,0
	c-32.2,0-86.9,37.2-105.3,51.5c-2,1.6-4.1,1.9-5.5,1.9c-2.8,0-5.4-1.3-7.1-3.4c-1.5-1.9-2.1-4.2-1.8-6.6c0.3-2.4,1.5-4.5,3.4-6
	c26.3-20.5,80.4-55.3,116.3-55.3c20.6,0,69.9,0,97.2,0c0,0,0,0,0,0c2.7,0,5.2-1.1,7.1-2.9c1.9-1.9,2.9-4.4,2.9-7.1
	c0-27.3,0-76.7,0-97.2c0-35.8,34.8-90,55.3-116.3c1.7-2.2,4.3-3.4,7.1-3.4c1.4,0,3.5,0.3,5.5,1.9c1.9,1.5,3.1,3.6,3.4,6
	c0.3,2.4-0.4,4.7-1.8,6.6c-14.3,18.4-51.5,73.2-51.5,105.3c0,20.5,0,69.9,0,97.2c0,5.5,4.5,10,10,10h1.5c27.6,0,75.5,0,95.7,0
	c32.2,0,86.9-37.2,105.3-51.5c2-1.6,4.1-1.9,5.5-1.9c2.8,0,5.4,1.3,7.1,3.4C423.8,93,424.5,95.3,424.2,97.7z"/>
<linearGradient id="SVGID_83_" gradientUnits="userSpaceOnUse" x1="90.7309" y1="297.0905" x2="125.9937" y2="297.0905">
	<stop  offset="0" style="stop-color:#E5700F"/>
	<stop  offset="1" style="stop-color:#FEBA1C"/>
</linearGradient>
<path class="st84" d="M108.9,311.8c2,2,4.5,2.9,7.1,2.9c2.6,0,5.1-1,7.1-2.9c3.9-3.9,3.9-10.3,0-14.2l-15.2-15.2
	c-3.9-3.9-10.3-3.9-14.2,0c-3.9,3.9-3.9,10.3,0,14.2L108.9,311.8z"/>
<linearGradient id="SVGID_84_" gradientUnits="userSpaceOnUse" x1="73.6203" y1="336.4764" x2="108.7574" y2="336.4764">
	<stop  offset="0" style="stop-color:#E5700F"/>
	<stop  offset="1" style="stop-color:#FEBA1C"/>
</linearGradient>
<path class="st85" d="M105.8,336.9l-15.1-15.1c-3.9-3.9-10.3-3.9-14.2,0c-3.9,3.9-3.9,10.3,0,14.2l15.1,15.1c2,2,4.5,2.9,7.1,2.9
	s5.1-1,7.1-2.9C109.7,347.2,109.7,340.8,105.8,336.9z"/>
<linearGradient id="SVGID_85_" gradientUnits="userSpaceOnUse" x1="203.1158" y1="213.705" x2="401.417" y2="213.705">
	<stop  offset="0" style="stop-color:#E5700F"/>
	<stop  offset="1" style="stop-color:#FEBA1C"/>
</linearGradient>
<path class="st86" d="M358.3,216.4V39.3c0-5.5-4.5-9.3-10-9.3h-38.7c-5.5,0-10.3,3.8-10.3,9.3v159.8c-6.4,0.2-12.8,1-19,2.5V91.5
	c0-5.5-4.7-9.5-10.2-9.5h-38.7c-5.5,0-10.1,3.9-10.1,9.5v149.3c-11.9,16.7-18.3,36.8-18.2,57.4c0,54.8,44.4,99.2,99.1,99.2
	c54.8,0,99.2-44.4,99.2-99.1C401.4,265.5,385.3,234.9,358.3,216.4z M319.3,50h19v155.8c-6.1-2.4-12.5-4.2-19-5.2V50z M241.3,102h19
	v106.5c-6.7,3.1-13.1,6.9-19,11.4V102z M302.3,377.3c-43.7,0-79.1-35.5-79.1-79.1c0-32,19.3-60.9,48.9-73.1c1.2-0.2,2.3-0.7,3.3-1.3
	c8.6-3.2,17.8-4.8,27-4.8c2.1,0,4.1,0.1,6.2,0.3h0.1c12,0.9,23.7,4.6,34,10.8c37.6,22.3,50,70.8,27.7,108.4
	C356.1,362.6,330.2,377.3,302.3,377.3z"/>
<linearGradient id="SVGID_86_" gradientUnits="userSpaceOnUse" x1="64.317" y1="250.505" x2="123.317" y2="250.505">
	<stop  offset="0" style="stop-color:#E5700F"/>
	<stop  offset="1" style="stop-color:#FEBA1C"/>
</linearGradient>
<path class="st87" d="M123.3,172c0-5.5-4.5-10-10-10h-39c-5.5,0-10,4.5-10,10v157c0,5.5,4.5,10,10,10h39c5.5,0,10-4.5,10-10V172z
	 M103.3,320h-19V182h19V320z"/>
<linearGradient id="SVGID_87_" gradientUnits="userSpaceOnUse" x1="143.317" y1="239.505" x2="202.317" y2="239.505">
	<stop  offset="0" style="stop-color:#E5700F"/>
	<stop  offset="1" style="stop-color:#FEBA1C"/>
</linearGradient>
<path class="st88" d="M202.3,149c0-5.5-4.5-10-10-10h-39c-5.5,0-10,4.5-10,10v181c0,5.5,4.5,10,10,10h39c5.5,0,10-4.5,10-10V149z
	 M182.3,320h-19V159h19V320z"/>
<linearGradient id="SVGID_88_" gradientUnits="userSpaceOnUse" x1="-14.683" y1="293.505" x2="44.317" y2="293.505">
	<stop  offset="0" style="stop-color:#E5700F"/>
	<stop  offset="1" style="stop-color:#FEBA1C"/>
</linearGradient>
<path class="st89" d="M44.3,258c0-5.5-4.5-10-10-10h-39c-5.5,0-10,4.5-10,10v71c0,5.5,4.5,10,10,10h39c5.5,0,10-4.5,10-10V258z
	 M24.3,320h-19v-52h19V320z"/>
<linearGradient id="SVGID_89_" gradientUnits="userSpaceOnUse" x1="-22.808" y1="52.805" x2="366.817" y2="52.805">
	<stop  offset="0" style="stop-color:#E5700F"/>
	<stop  offset="1" style="stop-color:#FEBA1C"/>
</linearGradient>
<path class="st90" d="M-5.7,199.6l185-185l37.9,38.2c1.8,2,4.4,3.1,7.1,3.2l0,0c2.7-0.1,5.2-1.3,7.1-3.2L346.8-62.7l-0.1,44.5
	c0,5.6,4.4,10.1,10,10.3l0,0c5.6-0.1,10-4.7,10-10.3l0.1-68.6c0-5.5-4.5-10.1-10-10.1l0,0l-68.4,0.1c-5.5-0.1-10,4.4-10.1,9.9
	s4.4,10,9.9,10.1c0.1,0,0.1,0,0.2,0l0,0l44.3-0.1L224.2,31.2L186.3-6.4c-1.9-1.8-4.5-2.7-7.1-2.6l0,0c-2.6-0.1-5.2,0.8-7.1,2.6
	l-192,192c-3.9,3.9-3.9,10.2,0,14c1.9,1.9,4.4,2.9,7.1,2.9C-10.1,202.5-7.6,201.5-5.7,199.6z"/>
<linearGradient id="SVGID_90_" gradientUnits="userSpaceOnUse" x1="259.6524" y1="299.155" x2="348.317" y2="299.155">
	<stop  offset="0" style="stop-color:#E5700F"/>
	<stop  offset="1" style="stop-color:#FEBA1C"/>
</linearGradient>
<path class="st91" d="M316.7,309.3c17.7,0,32.1-14.6,31.6-32.4c-0.4-17.3-15-30.9-32.2-30.9h-32.7c-1.9,0-3.4,1.5-3.4,3.4v4.5v39.6
	h-16.9c-1.9,0-3.4,1.5-3.4,3.4v9c0,1.9,1.5,3.4,3.4,3.4h16.9v9.2h-16.9c-1.9,0-3.4,1.5-3.4,3.4v9c0,1.9,1.5,3.4,3.4,3.4h16.9v14.7
	c0,1.9,1.5,3.5,3.5,3.5h8.9c1.9,0,3.5-1.5,3.5-3.5v-14.7h27.5c1.9,0,3.4-1.5,3.4-3.4v-9c0-1.9-1.5-3.4-3.4-3.4h-27.5v-9.2
	L316.7,309.3L316.7,309.3z M332.5,277.6c0,8.7-7.1,15.9-15.9,15.9h-20.9v-31.7h20.9C325.4,261.7,332.5,268.9,332.5,277.6z"/>
<linearGradient id="SVGID_91_" gradientUnits="userSpaceOnUse" x1="-52.8" y1="262.8469" x2="424.6268" y2="262.8469">
	<stop  offset="0" style="stop-color:#E5700F"/>
	<stop  offset="1" style="stop-color:#FEBA1C"/>
</linearGradient>
<path class="st92" d="M416.5,185c-0.2-0.3-0.4-0.6-0.7-0.9c-6.2-7.7-15.3-12.5-25.2-13.5c-9.7-1-19.4,1.9-27,8
	c-19.8,16.1-49.9,40.4-67.9,54.9C282.4,244.3,266,250.4,249,251l-51.1,1.7c-2.1,0.1-4-1-5-2.7l-5.7-9.7c-0.9-1.6-1.1-3.5-0.3-5.2
	c0.7-1.7,2.3-2.9,4.1-3.2l52.8-10c18.7-3.4,31.6-21,29.5-40.1c-2.1-18.3-17.6-32.2-36-32.1c-0.5,0-1.1,0-1.8,0l-70.6-2.9
	c-28.3-1-52.4,4.4-80.6,18l-37,18c-5.1-10.8-16-17.8-27.9-17.7h-40.9c-17,0-31.3,13.7-31.3,30.7v152.1c0,17,14.3,31.1,31.3,31.1
	h40.9c17,0,30.8-14.1,30.8-31.1v-10.3l39.3-7.2c12.7-1.9,20.7-2.6,34.2-2.1l107.4,5c2.2,0.1,4.4,0.1,6.6,0.1
	c36.4,0,71.6-12.7,99.6-36l74.4-61.7l0.2-0.1c14.9-12.8,17-35.1,4.8-50.5L416.5,185z M30,348.1c0,6-4.9,10.9-10.9,10.9h-41.3
	c-6,0-10.9-4.9-10.9-10.9V195.9c0-6,4.9-10.9,10.9-10.9h41.3c6,0,10.9,4.9,10.9,10.9V348.1z M398.7,220.5l-74.3,61.6
	c-25.9,21.5-58.9,32.7-92.6,31.2l-107.4-5c-15.1-0.6-24.3,0.2-38.1,2.3c-0.1,0-0.3,0-0.4,0.1L50,317.3V203.5l42.8-20.7
	c25.1-12.1,46.4-16.9,71.1-16.1l71.1,2.9c0.4,0,0.9,0,1.3,0c0.1,0,0.5,0,0.8,0c9.1,0.1,16.4,7.5,16.3,16.6
	c-0.1,7.8-5.7,14.5-13.4,16l-52.8,10c-13.9,2.6-23.1,16-20.5,29.9c0.5,2.9,1.6,5.7,3.1,8.3l5.7,9.8c4.8,8.1,13.6,12.9,23,12.5
	l51.1-1.7c21.4-0.7,42-8.4,58.6-21.8c18-14.5,48.2-38.9,68-55c3.5-2.8,7.9-4.1,12.3-3.6c4.4,0.4,8.4,2.5,11.3,5.8l0,0
	c0.2,0.3,0.4,0.6,0.7,0.9C406.5,204.3,405.6,214.6,398.7,220.5z"/>
<linearGradient id="SVGID_92_" gradientUnits="userSpaceOnUse" x1="42.5" y1="28.0113" x2="392.1693" y2="28.0113">
	<stop  offset="0" style="stop-color:#E5700F"/>
	<stop  offset="1" style="stop-color:#FEBA1C"/>
</linearGradient>
<path class="st93" d="M52.5,0H120v25H52.5c-5.5,0-10,4.5-10,10s4.5,10,10,10H120v26H52.5c-5.5,0-10,4.5-10,10s4.5,10,10,10H120v24
	H52.5c-5.5,0-10,4.5-10,10s4.5,10,10,10h272.8c1.9,0.1,3.8-0.4,5.5-1.4l56.8-37c4.6-3,5.9-9.1,2.9-13.7l0,0c-3-4.7-9.2-6.1-13.8-3.1
	L322.3,115H253V91h72.3c2.1-0.1,4.2-0.8,5.9-2.1L388,47.8c4.5-3.2,5.5-9.4,2.3-13.9s-9.4-5.5-13.9-2.3c-0.1,0-0.1,0.1-0.2,0.1
	L322,71h-69V45h72.3c2.2,0.1,4.4-0.6,6.2-2l56.8-44.8c4.4-3.4,5.1-9.8,1.7-14.1c-3.4-4.3-9.7-5.1-14.1-1.7L321.8,25H253V0h72.3
	c2.5,0.1,4.9-0.8,6.8-2.4l56.8-52.5c4-3.7,4.3-9.9,0.6-13.9c-1.9-2.1-4.6-3.3-7.4-3.2h-68.4l-0.1-0.4c-1.5-3.9-5.2-6.5-9.3-6.6h-113
	c-2.6,0.1-5,1.1-6.8,2.9l-4.2,4.1h-71c-2.5,0-4.9,0.9-6.8,2.6L45.7-16.8c-3,2.7-4,7-2.5,10.7C44.7-2.3,48.4,0.1,52.5,0z M356.6-52
	l-35.2,32h-55.2l35-32H356.6z M195.3-59h83.6l-42.6,39.7c-2.1,1.9-3.3,4.6-3.3,7.5V115h-93V-7.5L195.3-59z M113.3-52h45.6l-35,32H78
	L113.3-52z"/>
<g>
	<rect x="2.1" y="2.4" class="st94" width="367.9" height="301"/>
	<g>
		<linearGradient id="SVGID_93_" gradientUnits="userSpaceOnUse" x1="183.9945" y1="143.1435" x2="369.58" y2="143.1435">
			<stop  offset="0" style="stop-color:#E5700F"/>
			<stop  offset="1" style="stop-color:#FEBA1C"/>
		</linearGradient>
		<path class="st95" d="M340.6,31.5c-18.7-18.7-43.6-29-70-29c-26.4,0-51.3,10.3-69.9,28.9c-1,1-1.8,2.2-2.1,3.7
			c-0.7,2.4-0.1,5,1.4,6.9l16.7,23.3l-28.2,36.4c-2.7,3.4-2.1,8.4,1.3,11.1l32.5,26.5l-27.6,36.2c-2.2,2.8-2.2,6.8-0.1,9.6l23.8,32
			L187.8,236c-2.1,1.3-3.5,3.4-3.7,5.9c-0.3,2.4,0.6,4.9,2.3,6.6l33,33c1.5,1.5,3.5,2.3,5.7,2.3c0.2,0,0.3,0,0.5,0
			c1.9-0.1,3.8-1,5.2-2.3l110-110c18.7-18.7,29-43.6,29-70C369.6,75,359.3,50.2,340.6,31.5z M329.3,160.2L225,264.5l-20.2-20.2
			l29.3-18.1c1.9-1.2,3.2-3.1,3.7-5.3c0.4-2.2-0.1-4.5-1.4-6.3l-25.4-34.2l28.7-37.6c2.6-3.4,2-8.3-1.3-11.1l-32.5-26.4l27.1-35
			c2.2-2.8,2.2-6.7,0.2-9.6l-16.2-22.6c15-12.8,33.8-19.7,53.7-19.7c22.2,0,43,8.6,58.7,24.3c15.7,15.7,24.3,36.5,24.3,58.7
			C353.6,123.7,344.9,144.5,329.3,160.2z"/>
		<linearGradient id="SVGID_94_" gradientUnits="userSpaceOnUse" x1="287.1951" y1="93.956" x2="345.788" y2="93.956">
			<stop  offset="0" style="stop-color:#E5700F"/>
			<stop  offset="1" style="stop-color:#FEBA1C"/>
		</linearGradient>
		<path class="st96" d="M323.8,48.3c-7.4-7.4-16-13.1-25.6-16.8c-4.1-1.6-8.8,0.4-10.4,4.5c-1.6,4.1,0.4,8.8,4.5,10.4
			c7.6,3,14.3,7.4,20.2,13.3c11.2,11.2,17.3,26,17.3,41.9c0,15.8-6.2,30.7-17.3,41.9c-3.1,3.1-3.1,8.2,0,11.3
			c1.6,1.6,3.6,2.3,5.7,2.3s4.1-0.8,5.7-2.3c14.2-14.2,22-33.1,22-53.2S338,62.5,323.8,48.3z"/>
		<linearGradient id="SVGID_95_" gradientUnits="userSpaceOnUse" x1="246.2403" y1="35.2845" x2="278.592" y2="35.2845">
			<stop  offset="0" style="stop-color:#E5700F"/>
			<stop  offset="1" style="stop-color:#FEBA1C"/>
		</linearGradient>
		<path class="st97" d="M270.6,26.3c-6.2,0-12.3,0.8-18.3,2.2c-4.3,1.1-6.9,5.4-5.8,9.7c0.9,3.6,4.2,6.1,7.8,6.1
			c0.6,0,1.3-0.1,1.9-0.2c4.7-1.2,9.5-1.8,14.4-1.8c4.4,0,8-3.6,8-8C278.6,29.9,275,26.3,270.6,26.3z"/>
		<linearGradient id="SVGID_96_" gradientUnits="userSpaceOnUse" x1="2.1" y1="152.4718" x2="200.4441" y2="152.4718">
			<stop  offset="0" style="stop-color:#E5700F"/>
			<stop  offset="1" style="stop-color:#FEBA1C"/>
		</linearGradient>
		<path class="st98" d="M164,244.3l29.3-18.1c1.9-1.2,3.2-3.1,3.7-5.3c0.4-2.2-0.1-4.5-1.4-6.3l-25.4-34.2l28.7-37.6
			c2.6-3.4,2-8.3-1.3-11.1L165,105.4l27-35c2.2-2.8,2.2-6.7,0.2-9.6l-14.6-20.4c-7.1-10-15.9-18-26-24C112.7-6.8,63.2-0.6,31.1,31.5
			c-18.7,18.7-29,43.6-29,70c0,26.4,10.3,51.3,29,70l128.7,128.7c1.6,1.6,3.6,2.3,5.7,2.3s4.1-0.8,5.7-2.3l18.6-18.6
			c0.7-0.7,1.3-1.5,1.7-2.4c1.4-3,0.8-6.6-1.6-9L164,244.3z M165.4,283.2l-123-123c-15.7-15.7-24.3-36.5-24.3-58.7
			c0-22.2,8.6-43,24.3-58.7c16-16,37.3-24.4,58.7-24.4c14.5,0,29.2,3.8,42.3,11.7c8.2,4.9,15.3,11.5,21.1,19.6l11.2,15.6l-28.2,36.4
			c-2.7,3.4-2.1,8.4,1.3,11.1l32.5,26.5l-27.6,36.2c-2.2,2.8-2.2,6.8-0.1,9.6l23.8,32L147,236c-2.1,1.3-3.5,3.4-3.7,5.9
			c-0.3,2.4,0.6,4.9,2.3,6.6l27.3,27.3L165.4,283.2z"/>
		<linearGradient id="SVGID_97_" gradientUnits="userSpaceOnUse" x1="108.0331" y1="50.456" x2="164.0915" y2="50.456">
			<stop  offset="0" style="stop-color:#E5700F"/>
			<stop  offset="1" style="stop-color:#FEBA1C"/>
		</linearGradient>
		<path class="st99" d="M149.6,69.6c1.6,2.2,4,3.3,6.5,3.3c1.6,0,3.2-0.5,4.7-1.5c3.6-2.6,4.4-7.6,1.8-11.2l-4.3-6
			c-5.2-7.3-11.5-13.1-18.8-17.5c-6.7-4-14-6.9-21.7-8.6c-4.3-1-8.6,1.7-9.6,6c-1,4.3,1.7,8.6,6,9.6c6,1.4,11.8,3.7,17,6.8
			c5.3,3.2,10,7.6,14,13L149.6,69.6z"/>
		<linearGradient id="SVGID_98_" gradientUnits="userSpaceOnUse" x1="67.3562" y1="37.0802" x2="100.7935" y2="37.0802">
			<stop  offset="0" style="stop-color:#E5700F"/>
			<stop  offset="1" style="stop-color:#FEBA1C"/>
		</linearGradient>
		<path class="st100" d="M91.8,26.9c-6.7,0.8-13.3,2.5-19.5,5.1c-4.1,1.7-6,6.4-4.3,10.5c1.3,3.1,4.3,4.9,7.4,4.9
			c1,0,2.1-0.2,3.1-0.6c4.9-2,10.1-3.4,15.3-4c4.4-0.5,7.5-4.5,7-8.9C100.2,29.4,96.2,26.3,91.8,26.9z"/>
	</g>
</g>
</svg>
