<?xml version="1.0" encoding="utf-8"?>
<!-- Generator: Adobe Illustrator 19.0.1, SVG Export Plug-In . SVG Version: 6.00 Build 0)  -->
<svg version="1.1" id="Слой_1" xmlns="http://www.w3.org/2000/svg" xmlns:xlink="http://www.w3.org/1999/xlink" x="0px" y="0px"
	 viewBox="0 0 508.7 487" style="enable-background:new 0 0 508.7 487;" xml:space="preserve">
<style type="text/css">
	.st0{display:none;}
	.st1{display:inline;fill:url(#SVGID_1_);}
	.st2{display:inline;fill:url(#SVGID_2_);}
	.st3{display:inline;fill:url(#SVGID_3_);}
	.st4{display:inline;fill:url(#SVGID_4_);}
	.st5{display:inline;fill:url(#SVGID_5_);}
	.st6{display:inline;fill:url(#SVGID_6_);}
	.st7{display:inline;fill:url(#SVGID_7_);}
	.st8{display:inline;fill:url(#SVGID_8_);}
	.st9{display:inline;}
	.st10{fill:url(#SVGID_9_);}
	.st11{fill:url(#SVGID_10_);}
	.st12{fill:url(#SVGID_11_);}
	.st13{fill:url(#SVGID_12_);}
	.st14{fill:url(#SVGID_13_);}
	.st15{fill:url(#SVGID_14_);}
	.st16{fill:url(#SVGID_15_);}
	.st17{fill:url(#SVGID_16_);}
	.st18{fill:url(#SVGID_17_);}
	.st19{fill:url(#SVGID_18_);}
	.st20{fill:url(#SVGID_19_);}
	.st21{fill:url(#SVGID_20_);}
	.st22{fill:url(#SVGID_21_);}
	.st23{fill:url(#SVGID_22_);}
	.st24{fill:url(#SVGID_23_);}
	.st25{fill:url(#SVGID_24_);}
	.st26{fill:url(#SVGID_25_);}
	.st27{fill:url(#SVGID_26_);}
	.st28{fill:url(#SVGID_27_);}
	.st29{fill:url(#SVGID_28_);}
	.st30{fill:url(#SVGID_29_);}
	.st31{display:inline;fill:url(#SVGID_30_);}
	.st32{display:inline;fill:url(#SVGID_31_);}
	.st33{display:inline;fill:url(#SVGID_32_);}
	.st34{display:inline;fill:url(#SVGID_33_);}
	.st35{display:inline;fill:url(#SVGID_34_);}
	.st36{display:inline;fill:url(#SVGID_35_);}
	.st37{display:inline;fill:url(#SVGID_36_);}
	.st38{display:inline;fill:url(#SVGID_37_);}
	.st39{display:inline;fill:url(#SVGID_38_);}
	.st40{display:inline;fill:url(#SVGID_39_);}
	.st41{display:inline;fill:url(#SVGID_40_);}
	.st42{display:inline;fill:url(#SVGID_41_);}
	.st43{fill:url(#SVGID_42_);}
	.st44{fill:url(#SVGID_43_);}
	.st45{fill:url(#SVGID_44_);}
	.st46{fill:url(#SVGID_45_);}
	.st47{display:none;fill:url(#SVGID_46_);}
	.st48{display:none;fill:url(#SVGID_47_);}
	.st49{display:none;fill:url(#SVGID_48_);}
	.st50{display:none;fill:url(#SVGID_49_);}
	.st51{display:none;fill:url(#SVGID_50_);}
	.st52{display:none;fill:url(#SVGID_51_);}
	.st53{display:none;fill:url(#SVGID_52_);}
	.st54{display:none;fill:url(#SVGID_53_);}
	.st55{display:none;fill:url(#SVGID_54_);}
	.st56{display:none;fill:url(#SVGID_55_);}
	.st57{display:inline;fill:url(#SVGID_56_);}
	.st58{fill:url(#SVGID_57_);}
	.st59{display:none;fill:url(#SVGID_58_);}
	.st60{display:none;fill:url(#SVGID_59_);}
	.st61{display:none;fill:url(#SVGID_60_);}
	.st62{display:none;fill:url(#SVGID_61_);}
	.st63{display:none;fill:url(#SVGID_62_);}
	.st64{display:none;fill:url(#SVGID_63_);}
	.st65{display:none;fill:url(#SVGID_64_);}
	.st66{display:none;fill:url(#SVGID_65_);}
	.st67{display:none;fill:url(#SVGID_66_);}
	.st68{display:none;fill:url(#SVGID_67_);}
	.st69{display:inline;fill:url(#SVGID_68_);}
	.st70{fill:url(#SVGID_69_);}
	.st71{fill:url(#SVGID_70_);}
	.st72{fill:url(#SVGID_71_);}
	.st73{fill:url(#SVGID_72_);}
	.st74{fill:url(#SVGID_73_);}
	.st75{fill:url(#SVGID_74_);}
	.st76{fill:url(#SVGID_75_);}
	.st77{fill:url(#SVGID_76_);}
	.st78{fill:url(#SVGID_77_);}
	.st79{fill:url(#SVGID_78_);}
	.st80{fill:url(#SVGID_79_);}
</style>
<g class="st0">
	<linearGradient id="SVGID_1_" gradientUnits="userSpaceOnUse" x1="203.3889" y1="201.4174" x2="203.3889" y2="181.4206">
		<stop  offset="0" style="stop-color:#E5700F"/>
		<stop  offset="1" style="stop-color:#FEBA1C"/>
	</linearGradient>
	<path class="st1" d="M196.3,184.3c-3.9,3.9-3.9,10.2,0,14.1c3.9,3.9,10.2,3.9,14.1,0c3.9-3.9,3.9-10.2,0-14.1
		C206.6,180.4,200.2,180.4,196.3,184.3z"/>
	<linearGradient id="SVGID_2_" gradientUnits="userSpaceOnUse" x1="232.6778" y1="521.983" x2="232.6778" y2="401.9874">
		<stop  offset="0" style="stop-color:#E5700F"/>
		<stop  offset="1" style="stop-color:#FEBA1C"/>
	</linearGradient>
	<path class="st2" d="M345.9,457.7c4.4-6,6.8-13.2,6.8-20.7c0-19.3-15.7-35-35-35h-170c-9.4,0-18.1,3.6-24.7,10.2
		c-6.6,6.6-10.2,15.4-10.2,24.8c0,7.7,2.5,14.9,6.8,20.7c-15.9,8.4-26.8,25.1-26.8,44.3v10c0,5.5,4.5,10,10,10h260
		c5.5,0,10-4.5,10-10v-10C372.7,482.8,361.8,466.1,345.9,457.7z M137.1,426.4c2.8-2.8,6.6-4.4,10.6-4.4h170c8.3,0,15,6.7,15,15
		c0,4-1.6,7.8-4.4,10.6c-2.8,2.8-6.6,4.4-10.6,4.4h-170c-8.3,0-15-6.7-15-15C132.7,433,134.2,429.2,137.1,426.4z M112.7,502
		c0-16.5,13.5-30,30-30h5h170h5c16.5,0,30,13.5,30,30H112.7z"/>
	<linearGradient id="SVGID_3_" gradientUnits="userSpaceOnUse" x1="348.6934" y1="521.998" x2="348.6934" y2="10.002">
		<stop  offset="0" style="stop-color:#E5700F"/>
		<stop  offset="1" style="stop-color:#FEBA1C"/>
	</linearGradient>
	<path class="st3" d="M595.4,430.1c-3.4-5.3-7.4-9.9-12-13.8l-46.7-40.8c-0.4-0.5-0.8-1.1-1.3-1.6c-0.8-0.8-1.7-1.4-2.7-1.9
		l-28.3-24.6L373.6,233.3c5.4-5.6,8.3-12.9,8.3-20.7c0-8-3.1-15.6-8.8-21.2c-2.5-2.5-5.3-4.4-8.3-5.8l12.1-12.1
		c3.4,0.9,6.9,1.4,10.3,1.4c10.2,0,20.5-3.9,28.3-11.7c7.6-7.6,11.7-17.6,11.7-28.3c0-10.7-4.2-20.7-11.7-28.3l-84.8-84.8
		c-7.6-7.6-17.6-11.7-28.3-11.7c-10.7,0-20.7,4.2-28.3,11.7c-10.4,10.4-13.9,25.3-10.3,38.6L143,181.1c-3.3-0.9-6.8-1.4-10.4-1.4
		c-10.7,0-20.7,4.2-28.3,11.7c-15.6,15.6-15.6,41,0,56.6l84.8,84.8c7.8,7.8,18,11.7,28.3,11.7c10.2,0,20.5-3.9,28.3-11.7
		c10.4-10.4,13.9-25.3,10.3-38.6l12.1-12.1c1.5,3,3.4,5.8,5.9,8.3c5.7,5.7,13.2,8.8,21.2,8.8c7.8,0,15.1-2.9,20.7-8.3L455.3,451
		c0.4,0.6,0.8,1.2,1.4,1.7c0.2,0.2,0.4,0.3,0.6,0.5l41.5,47.7c1,1.2,2.1,2.4,3.3,3.6c11.4,11.4,26.5,17.6,42.3,17.6
		c2.8,0,5.6-0.2,8.4-0.6c18.8-2.6,35.1-13.9,44.6-30.9C607.8,471.8,607,448.1,595.4,430.1z M288.2,35.9c3.8-3.8,8.8-5.9,14.1-5.9
		c5.3,0,10.4,2.1,14.1,5.9l84.8,84.8c3.8,3.8,5.9,8.8,5.9,14.1c0,5.3-2.1,10.4-5.9,14.1c-7.8,7.8-20.5,7.8-28.3,0l-84.9-84.9
		c0,0,0,0,0,0C280.4,56.3,280.4,43.7,288.2,35.9z M231.7,318.7c-7.8,7.8-20.5,7.8-28.3,0l-84.8-84.8c-7.8-7.8-7.8-20.5,0-28.3
		c3.8-3.8,8.8-5.9,14.1-5.9c5.3,0,10.4,2.1,14.1,5.8l84.9,84.9C239.5,298.2,239.5,310.9,231.7,318.7z M273.8,248.3l-28,28L161,191.4
		L274.1,78.3l84.9,84.9l-28,28c-0.1,0.1-0.2,0.2-0.3,0.3L274.1,248C274,248.1,273.9,248.2,273.8,248.3z M309.5,269.2
		C309.5,269.2,309.4,269.2,309.5,269.2l-7.1,7.1c-1.9,1.9-4.4,2.9-7.1,2.9c-2.7,0-5.2-1-7.1-2.9c-1.9-1.9-2.9-4.4-2.9-7.1
		c0-2.6,1-5.1,2.8-6.9l56.8-56.8c3.9-3.8,10.2-3.7,14,0.1c1.9,1.9,2.9,4.4,2.9,7.1c0,2.7-1,5.2-2.9,7.1l-7,7c0,0-0.1,0.1-0.1,0.1
		L309.5,269.2z M330.2,276.7l29.2-29.2l123.7,107.9L438,400.6L330.2,276.7z M451.2,415.7l47.1-47.1l15.1,13.2l-49,49L451.2,415.7z
		 M579.9,480.7c-6.5,11.5-17.4,19.1-29.9,20.9c-12.5,1.7-24.9-2.4-33.8-11.3c-0.8-0.8-1.5-1.6-2.2-2.4c0,0-0.1-0.1-0.1-0.1
		L477.5,446l51-51l41.8,36.4c0,0,0.1,0.1,0.1,0.1c3.1,2.7,5.9,5.8,8.3,9.5C586.1,452.7,586.7,468.6,579.9,480.7z"/>
	<linearGradient id="SVGID_4_" gradientUnits="userSpaceOnUse" x1="252.8815" y1="173.1349" x2="252.8815" y2="110.7075">
		<stop  offset="0" style="stop-color:#E5700F"/>
		<stop  offset="1" style="stop-color:#FEBA1C"/>
	</linearGradient>
	<path class="st4" d="M267,113.6l-42.4,42.4c-3.9,3.9-3.9,10.2,0,14.1c2,2,4.5,2.9,7.1,2.9c2.6,0,5.1-1,7.1-2.9l42.4-42.4
		c3.9-3.9,3.9-10.2,0-14.1C277.3,109.7,270.9,109.7,267,113.6z"/>
</g>
<g class="st0">
	<linearGradient id="SVGID_5_" gradientUnits="userSpaceOnUse" x1="-520.6127" y1="191.419" x2="-500.6085" y2="191.419">
		<stop  offset="0" style="stop-color:#E5700F"/>
		<stop  offset="1" style="stop-color:#FEBA1C"/>
	</linearGradient>
	<path class="st5" d="M-517.7,184.3c-3.9,3.9-3.9,10.2,0,14.1c3.9,3.9,10.2,3.9,14.1,0c3.9-3.9,3.9-10.2,0-14.1
		C-507.4,180.4-513.8,180.4-517.7,184.3z"/>
	<linearGradient id="SVGID_6_" gradientUnits="userSpaceOnUse" x1="-621.3165" y1="461.9852" x2="-341.3269" y2="461.9852">
		<stop  offset="0" style="stop-color:#E5700F"/>
		<stop  offset="1" style="stop-color:#FEBA1C"/>
	</linearGradient>
	<path class="st6" d="M-368.1,457.7c4.4-6,6.8-13.2,6.8-20.7c0-19.3-15.7-35-35-35h-170c-9.4,0-18.1,3.6-24.7,10.2
		c-6.6,6.6-10.2,15.4-10.2,24.8c0,7.7,2.5,14.9,6.8,20.7c-15.9,8.4-26.8,25.1-26.8,44.3v10c0,5.5,4.5,10,10,10h260
		c5.5,0,10-4.5,10-10v-10C-341.3,482.8-352.2,466.1-368.1,457.7z M-576.9,426.4c2.8-2.8,6.6-4.4,10.6-4.4h170c8.3,0,15,6.7,15,15
		c0,4-1.6,7.8-4.4,10.6c-2.8,2.8-6.6,4.4-10.6,4.4h-170c-8.3,0-15-6.7-15-15C-581.3,433-579.8,429.2-576.9,426.4z M-601.3,502
		c0-16.5,13.5-30,30-30h5h170h5c16.5,0,30,13.5,30,30H-601.3z"/>
	<linearGradient id="SVGID_7_" gradientUnits="userSpaceOnUse" x1="-621.2952" y1="266" x2="-109.317" y2="266">
		<stop  offset="0" style="stop-color:#E5700F"/>
		<stop  offset="1" style="stop-color:#FEBA1C"/>
	</linearGradient>
	<path class="st7" d="M-118.6,430.1c-3.4-5.3-7.4-9.9-12-13.8l-46.7-40.8c-0.4-0.5-0.8-1.1-1.3-1.6c-0.8-0.8-1.7-1.4-2.7-1.9
		l-28.3-24.6l-130.8-114.1c5.4-5.6,8.3-12.9,8.3-20.7c0-8-3.1-15.6-8.8-21.2c-2.5-2.5-5.3-4.4-8.3-5.8l12.1-12.1
		c3.4,0.9,6.9,1.4,10.3,1.4c10.2,0,20.5-3.9,28.3-11.7c7.6-7.6,11.7-17.6,11.7-28.3s-4.2-20.7-11.7-28.3l-84.8-84.8
		c-7.6-7.6-17.6-11.7-28.3-11.7c-10.7,0-20.7,4.2-28.3,11.7c-10.4,10.4-13.9,25.3-10.3,38.6L-571,181.1c-3.3-0.9-6.8-1.4-10.4-1.4
		c-10.7,0-20.7,4.2-28.3,11.7c-15.6,15.6-15.6,41,0,56.6l84.8,84.8c7.8,7.8,18,11.7,28.3,11.7c10.2,0,20.5-3.9,28.3-11.7
		c10.4-10.4,13.9-25.3,10.3-38.6l12.1-12.1c1.5,3,3.4,5.8,5.9,8.3c5.7,5.7,13.2,8.8,21.2,8.8c7.8,0,15.1-2.9,20.7-8.3L-258.7,451
		c0.4,0.6,0.8,1.2,1.4,1.7c0.2,0.2,0.4,0.3,0.6,0.5l41.5,47.7c1,1.2,2.1,2.4,3.3,3.6c11.4,11.4,26.5,17.6,42.3,17.6
		c2.8,0,5.6-0.2,8.4-0.6c18.8-2.6,35.1-13.9,44.6-30.9C-106.2,471.8-107,448.1-118.6,430.1z M-262.8,415.7l47.1-47.1l15.1,13.2
		l-49,49L-262.8,415.7z M-383.8,276.7l29.2-29.2l123.7,107.9l-45.2,45.2L-383.8,276.7z M-425.8,35.9c3.8-3.8,8.8-5.9,14.1-5.9
		c5.3,0,10.4,2.1,14.1,5.9l84.8,84.8c3.8,3.8,5.9,8.8,5.9,14.1c0,5.3-2.1,10.4-5.9,14.1c-7.8,7.8-20.5,7.8-28.3,0l-84.9-84.9
		c0,0,0,0,0,0C-433.6,56.3-433.6,43.7-425.8,35.9z M-482.3,318.7c-7.8,7.8-20.5,7.8-28.3,0l-84.8-84.8c-7.8-7.8-7.8-20.5,0-28.3
		c3.8-3.8,8.8-5.9,14.1-5.9c5.3,0,10.4,2.1,14.1,5.8l84.9,84.9C-474.5,298.2-474.5,310.9-482.3,318.7z M-553,191.4l113.1-113.1
		l84.9,84.9l-28,28c-0.1,0.1-0.2,0.2-0.3,0.3l-56.5,56.5c-0.1,0.1-0.2,0.2-0.3,0.4l-28,28L-553,191.4z M-418.7,279.2
		c-2.7,0-5.2-1-7.1-2.9c-1.9-1.9-2.9-4.4-2.9-7.1c0-2.6,1-5.1,2.8-6.9l56.8-56.8c3.9-3.8,10.2-3.7,14,0.1c1.9,1.9,2.9,4.4,2.9,7.1
		c0,2.7-1,5.2-2.9,7.1l-7,7c0,0-0.1,0.1-0.1,0.1l-42.3,42.3c0,0,0,0-0.1,0.1l-7,7C-413.5,278.2-416,279.2-418.7,279.2z
		 M-134.1,480.7c-6.5,11.5-17.4,19.1-29.9,20.9c-12.5,1.7-24.9-2.4-33.8-11.3c-0.8-0.8-1.5-1.6-2.2-2.4c0,0-0.1-0.1-0.1-0.1
		l-36.4-41.8l51-51l41.8,36.4c0,0,0.1,0.1,0.1,0.1c3.1,2.7,5.9,5.8,8.3,9.5C-127.9,452.7-127.3,468.6-134.1,480.7z"/>
	<linearGradient id="SVGID_8_" gradientUnits="userSpaceOnUse" x1="-492.332" y1="141.9212" x2="-429.904" y2="141.9212">
		<stop  offset="0" style="stop-color:#E5700F"/>
		<stop  offset="1" style="stop-color:#FEBA1C"/>
	</linearGradient>
	<path class="st8" d="M-432.8,113.6c-3.9-3.9-10.2-3.9-14.1,0l-42.4,42.4c-3.9,3.9-3.9,10.2,0,14.1c2,2,4.5,2.9,7.1,2.9
		c2.6,0,5.1-1,7.1-2.9l42.4-42.4C-428.9,123.9-428.9,117.5-432.8,113.6z"/>
</g>
<g class="st0">
	<g class="st9">
		<linearGradient id="SVGID_9_" gradientUnits="userSpaceOnUse" x1="160.2561" y1="266" x2="529.3654" y2="266">
			<stop  offset="0" style="stop-color:#E5700F"/>
			<stop  offset="1" style="stop-color:#FEBA1C"/>
		</linearGradient>
		<path class="st10" d="M507,376.8c-6.7-33.8-38.5-39.6-38.6-39.6v0c-0.3-0.1,2.9,0.7-77.3-19.2v-2.7h59.1
			c12.2,0,22.1-9.9,22.1-22.1V180.6c1-4.2,1-8.5,0-12.7v-41.1c0-4.1-3.4-7.5-7.5-7.5c-4.1,0-7.5,3.4-7.5,7.5v21.5
			c-4-2.4-8.5-4.1-13.4-4.9c-1.8-7.8-8.3-14-16.5-15.1c-8.6-1.1-15.1-6.1-19.3-14.9c-2-4.1-5.9-6.8-10.4-7.2
			c-4.5-0.4-8.8,1.5-11.5,5.2c-12.9,17.5-48.7,56.9-110.6,56.9c-4.7,0-7.9-0.2-9-0.3c-11.4-0.7-21,8.4-21,19.8V205
			c0,27.5,11.4,54.3,31.4,73.3c6.6,6.3,13.9,11.6,21.7,15.8v6.2h-58.8c-3.9,0-7.1-3.2-7.1-7.1V124.7C232.6,70,277.2,25,331,25
			c0.2,0,0.3,0,0.5,0c19.3,0.1,41.5,5.6,56.7,13.9c9.6,5.3,15.6,1.1,25,1.1c23.2,0,41.7,23.8,44,45.3c0,0.3,0,1.6,0.1,6.4
			c0,7.2,8.2,7.8,7.5,7.5c4.1,0,7.5-3.4,7.5-7.5c0-1.3,0-6.6-0.1-7.8c-3-29.8-28.5-58.9-58.9-58.9c-11.9,0-13.7,3-17.8,0.8
			c-17.2-9.5-42.3-15.7-63.9-15.8c-62.3-0.4-114,51.5-114,114.7v168.6c0,12.2,9.9,22.1,22.1,22.1h58.8v2.7l-77,19.1
			c-0.1,0-0.2,0.1-0.3,0.1l-5.6,1.7c-0.2,0-0.3,0.1-0.5,0.2c-10,3.7-27.6,13.6-32.4,37.8c-22.8,114.7-21.9,109.8-21.9,110.2
			c-2.8,19.5,7,35,30.4,35h81.1c4.1,0,7.5-3.4,7.5-7.5c0-4.1-3.4-7.5-7.5-7.5H244v-70.8c0-4.1-3.4-7.5-7.5-7.5s-7.5,3.4-7.5,7.5V507
			h-37.9c-10,0-15.8-3.2-15.8-13.7c0-5.1-0.2-0.1,22.1-113.6c3.4-16.8,15.6-23.9,22.7-26.6l5.2-1.5l44.2-11
			c49.2,58,46.3,54.9,49.1,57.7c16.4,16,39.9,14.9,55.3-3.2l46.3-54.4l44.1,10.9c1.3,0.6,23.2,4.4,27.9,28.1
			c22.1,112.5,22.1,108.5,22.1,113.6c-0.1,10.3-5.6,13.7-15.8,13.7h-37.6v-70.8c0-4.1-3.4-7.5-7.5-7.5c-4.1,0-7.5,3.4-7.5,7.5V507
			H307.2c-4.1,0-7.5,3.4-7.5,7.5c0,4.1,3.4,7.5,7.5,7.5h191.3c18.5,0,30.7-10.2,30.8-28.6C529.4,484.9,528.9,489,507,376.8z
			 M444.4,158.8c6.3,1.9,11.1,6,12.9,11.1v8.6c-1.8,5.1-6.6,9.2-12.9,11.1V158.8z M444.4,206.3V205c4.7-0.9,9-2.5,12.9-4.8v93.1
			c0,3.9-3.2,7.1-7.1,7.1h-59.1v-5.8C422.9,277.9,444.4,244.6,444.4,206.3z M287.2,267.5c-17-16.2-26.7-38.9-26.7-62.4
			c0.4-16.3-1.1-18.3,1.5-20.8c0.9-0.9,2.2-1.4,3.6-1.3c53.8,3.2,100-20.4,130.6-60c8.2,14.5,20.3,19,29.3,20.1
			c2.2,0.3,3.9,2.2,3.9,4.4c0,20.8,0,38.2,0,58.8C429.4,281,340,317.9,287.2,267.5z M362.5,385.4c-10.5,12.3-25.1,12.2-35.5-0.1
			l-15.7-18.5h66.9L362.5,385.4z M391.1,351.9h-92.4l-12.9-15.2l22.1-5.5c3.3-0.8,5.7-3.9,5.7-7.4l0-23.2
			c20.6,6.9,42.4,6.8,62.6,0.2c0.1,24-0.3,23.4,0.4,25.5c0.8,2.3,2.8,4.2,5.3,4.8l22.2,5.5L391.1,351.9z"/>
	</g>
</g>
<g class="st0">
	<g class="st9">
		<g>
			<linearGradient id="SVGID_10_" gradientUnits="userSpaceOnUse" x1="162.683" y1="266" x2="528.683" y2="266">
				<stop  offset="0" style="stop-color:#E5700F"/>
				<stop  offset="1" style="stop-color:#FEBA1C"/>
			</linearGradient>
			<path class="st11" d="M521,12.5H170.4c-4.2,0-7.7,3.5-7.7,7.7v491.6c0,4.3,3.5,7.7,7.7,7.7H437c2.1,0,4-0.8,5.4-2.3l84-84
				c1.4-1.4,2.3-3.4,2.3-5.5V20.2C528.7,16,525.2,12.5,521,12.5z M444.7,493.2v-57.8h57.8L444.7,493.2z M513.3,420.1l-76.4-0.1
				c-2.1,0-4,0.8-5.5,2.3c-1.4,1.4-2.3,3.4-2.3,5.5l0.1,76.4H178.1V27.9h335.2V420.1z"/>
		</g>
	</g>
</g>
<g class="st0">
	<g class="st9">
		<g>
			<linearGradient id="SVGID_11_" gradientUnits="userSpaceOnUse" x1="220.683" y1="424.5001" x2="308.683" y2="424.5001">
				<stop  offset="0" style="stop-color:#E5700F"/>
				<stop  offset="1" style="stop-color:#FEBA1C"/>
			</linearGradient>
			<path class="st12" d="M295.8,393.4c-8.3-8.3-19.4-12.9-31.1-12.9c-24.3,0-44,19.7-44,44s19.7,44,44,44s44-19.7,44-44
				C308.7,412.8,304.2,401.7,295.8,393.4z M264.7,453.1c-15.8,0-28.6-12.8-28.6-28.6s12.8-28.6,28.6-28.6
				c15.8,0,28.6,12.8,28.6,28.6S280.5,453.1,264.7,453.1z"/>
		</g>
	</g>
</g>
<g class="st0">
	<g class="st9">
		<g>
			<linearGradient id="SVGID_12_" gradientUnits="userSpaceOnUse" x1="333.883" y1="426.1" x2="405.383" y2="426.1">
				<stop  offset="0" style="stop-color:#E5700F"/>
				<stop  offset="1" style="stop-color:#FEBA1C"/>
			</linearGradient>
			<path class="st13" d="M405.4,426.1c0,4.2-3.5,7.7-7.7,7.7h-56.1c-4.3,0-7.7-3.5-7.7-7.7c0-4.3,3.5-7.7,7.7-7.7h56.1
				C402,418.4,405.4,421.9,405.4,426.1z"/>
		</g>
	</g>
</g>
<g class="st0">
	<g class="st9">
		<g>
			<linearGradient id="SVGID_13_" gradientUnits="userSpaceOnUse" x1="223.783" y1="81.4" x2="268.683" y2="81.4">
				<stop  offset="0" style="stop-color:#E5700F"/>
				<stop  offset="1" style="stop-color:#FEBA1C"/>
			</linearGradient>
			<path class="st14" d="M268.7,81.4c0,4.3-3.5,7.7-7.7,7.7h-29.5c-4.3,0-7.7-3.5-7.7-7.7s3.5-7.7,7.7-7.7h29.6
				C265.3,73.7,268.7,77.2,268.7,81.4z"/>
		</g>
	</g>
</g>
<g class="st0">
	<g class="st9">
		<g>
			<linearGradient id="SVGID_14_" gradientUnits="userSpaceOnUse" x1="367.583" y1="81.4" x2="471.683" y2="81.4">
				<stop  offset="0" style="stop-color:#E5700F"/>
				<stop  offset="1" style="stop-color:#FEBA1C"/>
			</linearGradient>
			<path class="st15" d="M471.7,81.4c0,4.3-3.5,7.7-7.7,7.7h-88.7c-4.3,0-7.7-3.5-7.7-7.7s3.5-7.7,7.7-7.7H464
				C468.3,73.7,471.7,77.2,471.7,81.4z"/>
		</g>
	</g>
</g>
<g class="st0">
	<g class="st9">
		<g>
			<linearGradient id="SVGID_15_" gradientUnits="userSpaceOnUse" x1="305.283" y1="125.299" x2="471.683" y2="125.299">
				<stop  offset="0" style="stop-color:#E5700F"/>
				<stop  offset="1" style="stop-color:#FEBA1C"/>
			</linearGradient>
			<path class="st16" d="M471.7,125.3c0,4.3-3.5,7.7-7.7,7.7H313c-4.2,0-7.7-3.5-7.7-7.7c0-4.2,3.5-7.7,7.7-7.7h151
				C468.3,117.5,471.7,121,471.7,125.3z"/>
		</g>
	</g>
</g>
<g class="st0">
	<g class="st9">
		<g>
			<linearGradient id="SVGID_16_" gradientUnits="userSpaceOnUse" x1="219.183" y1="205.8" x2="472.183" y2="205.8">
				<stop  offset="0" style="stop-color:#E5700F"/>
				<stop  offset="1" style="stop-color:#FEBA1C"/>
			</linearGradient>
			<path class="st17" d="M472.2,205.8c0,4.3-3.5,7.7-7.7,7.7H226.9c-4.3,0-7.7-3.5-7.7-7.7s3.5-7.7,7.7-7.7h237.6
				C468.8,198.1,472.2,201.6,472.2,205.8z"/>
		</g>
	</g>
</g>
<g class="st0">
	<g class="st9">
		<g>
			<linearGradient id="SVGID_17_" gradientUnits="userSpaceOnUse" x1="219.183" y1="240.5" x2="472.183" y2="240.5">
				<stop  offset="0" style="stop-color:#E5700F"/>
				<stop  offset="1" style="stop-color:#FEBA1C"/>
			</linearGradient>
			<path class="st18" d="M472.2,240.5c0,4.3-3.5,7.7-7.7,7.7H226.9c-4.3,0-7.7-3.5-7.7-7.7s3.5-7.7,7.7-7.7h237.6
				c2.1,0,4,0.8,5.4,2.3C471.4,236.5,472.2,238.5,472.2,240.5z"/>
		</g>
	</g>
</g>
<g class="st0">
	<g class="st9">
		<g>
			<linearGradient id="SVGID_18_" gradientUnits="userSpaceOnUse" x1="219.183" y1="278.2" x2="472.183" y2="278.2">
				<stop  offset="0" style="stop-color:#E5700F"/>
				<stop  offset="1" style="stop-color:#FEBA1C"/>
			</linearGradient>
			<path class="st19" d="M472.2,278.2c0,4.2-3.5,7.7-7.7,7.7H226.9c-4.3,0-7.7-3.5-7.7-7.7c0-4.3,3.5-7.7,7.7-7.7h237.6
				c2.1,0,4,0.8,5.4,2.3C471.4,274.3,472.2,276.2,472.2,278.2z"/>
		</g>
	</g>
</g>
<g class="st0">
	<g class="st9">
		<g>
			<linearGradient id="SVGID_19_" gradientUnits="userSpaceOnUse" x1="451.183" y1="312.9" x2="472.183" y2="312.9">
				<stop  offset="0" style="stop-color:#E5700F"/>
				<stop  offset="1" style="stop-color:#FEBA1C"/>
			</linearGradient>
			<path class="st20" d="M472.2,312.9c0,4.2-3.5,7.7-7.7,7.7h-5.6c-4.2,0-7.7-3.5-7.7-7.7c0-4.3,3.5-7.7,7.7-7.7h5.6
				C468.8,305.2,472.2,308.7,472.2,312.9z"/>
		</g>
	</g>
</g>
<g class="st0">
	<g class="st9">
		<g>
			<linearGradient id="SVGID_20_" gradientUnits="userSpaceOnUse" x1="219.183" y1="312.9" x2="430.883" y2="312.9">
				<stop  offset="0" style="stop-color:#E5700F"/>
				<stop  offset="1" style="stop-color:#FEBA1C"/>
			</linearGradient>
			<path class="st21" d="M430.9,312.9c0,4.2-3.5,7.7-7.7,7.7H226.9c-4.3,0-7.7-3.5-7.7-7.7c0-4.3,3.5-7.7,7.7-7.7h196.3
				C427.5,305.2,430.9,308.7,430.9,312.9z"/>
		</g>
	</g>
</g>
<g class="st0">
	<g class="st9">
		<linearGradient id="SVGID_21_" gradientUnits="userSpaceOnUse" x1="178.083" y1="259.002" x2="530.083" y2="259.002">
			<stop  offset="0" style="stop-color:#E5700F"/>
			<stop  offset="1" style="stop-color:#FEBA1C"/>
		</linearGradient>
		<path class="st22" d="M530,130.5c0-0.6-0.2-1.3-0.4-1.9c-0.1-0.3-0.1-0.5-0.2-0.8c-0.3-0.8-0.8-1.6-1.4-2.3l-96-104
			c-0.7-0.7-1.5-1.3-2.4-1.7c-0.2-0.1-0.5-0.2-0.7-0.3c-0.7-0.3-1.5-0.4-2.3-0.5c-0.2,0-0.3-0.1-0.5-0.1h-240c-4.4,0-8,3.6-8,8v464
			c0,4.4,3.6,8,8,8h336c4.4,0,8-3.6,8-8V131C530.1,130.8,530,130.7,530,130.5z M434.1,47.5l69.7,75.5h-69.7V47.5z M514.1,483h-320
			V35h224v96c0,4.4,3.6,8,8,8h88V483z"/>
	</g>
</g>
<g class="st0">
	<g class="st9">
		<linearGradient id="SVGID_22_" gradientUnits="userSpaceOnUse" x1="290.083" y1="187.002" x2="482.083" y2="187.002">
			<stop  offset="0" style="stop-color:#E5700F"/>
			<stop  offset="1" style="stop-color:#FEBA1C"/>
		</linearGradient>
		<path class="st23" d="M474.1,179h-176c-4.4,0-8,3.6-8,8s3.6,8,8,8h176c4.4,0,8-3.6,8-8S478.5,179,474.1,179z"/>
	</g>
</g>
<g class="st0">
	<g class="st9">
		<linearGradient id="SVGID_23_" gradientUnits="userSpaceOnUse" x1="290.083" y1="331.002" x2="482.083" y2="331.002">
			<stop  offset="0" style="stop-color:#E5700F"/>
			<stop  offset="1" style="stop-color:#FEBA1C"/>
		</linearGradient>
		<path class="st24" d="M474.1,323h-176c-4.4,0-8,3.6-8,8s3.6,8,8,8h176c4.4,0,8-3.6,8-8S478.5,323,474.1,323z"/>
	</g>
</g>
<g class="st0">
	<g class="st9">
		<linearGradient id="SVGID_24_" gradientUnits="userSpaceOnUse" x1="290.083" y1="403.002" x2="482.083" y2="403.002">
			<stop  offset="0" style="stop-color:#E5700F"/>
			<stop  offset="1" style="stop-color:#FEBA1C"/>
		</linearGradient>
		<path class="st25" d="M474.1,395h-176c-4.4,0-8,3.6-8,8s3.6,8,8,8h176c4.4,0,8-3.6,8-8S478.5,395,474.1,395z"/>
	</g>
</g>
<g class="st0">
	<g class="st9">
		<linearGradient id="SVGID_25_" gradientUnits="userSpaceOnUse" x1="224.2455" y1="174.268" x2="308.1173" y2="174.268">
			<stop  offset="0" style="stop-color:#E5700F"/>
			<stop  offset="1" style="stop-color:#FEBA1C"/>
		</linearGradient>
		<path class="st26" d="M305.9,146c-3.1-3.2-8.1-3.3-11.3-0.2c-0.1,0.1-0.1,0.1-0.2,0.2l-39.6,39.6l-17-17c-3.2-3.1-8.2-3-11.3,0.2
			c-3,3.1-3,8,0,11.1l22.6,22.6c3.1,3.1,8.2,3.1,11.3,0l45.2-45.3C308.9,154.3,308.9,149.2,305.9,146z"/>
	</g>
</g>
<g class="st0">
	<g class="st9">
		<linearGradient id="SVGID_26_" gradientUnits="userSpaceOnUse" x1="290.083" y1="259.002" x2="482.083" y2="259.002">
			<stop  offset="0" style="stop-color:#E5700F"/>
			<stop  offset="1" style="stop-color:#FEBA1C"/>
		</linearGradient>
		<path class="st27" d="M474.1,251h-176c-4.4,0-8,3.6-8,8c0,4.4,3.6,8,8,8h176c4.4,0,8-3.6,8-8C482.1,254.6,478.5,251,474.1,251z"/>
	</g>
</g>
<g class="st0">
	<g class="st9">
		<linearGradient id="SVGID_27_" gradientUnits="userSpaceOnUse" x1="224.2455" y1="246.2679" x2="308.1173" y2="246.2679">
			<stop  offset="0" style="stop-color:#E5700F"/>
			<stop  offset="1" style="stop-color:#FEBA1C"/>
		</linearGradient>
		<path class="st28" d="M305.9,218c-3.1-3.2-8.1-3.3-11.3-0.2c-0.1,0.1-0.1,0.1-0.2,0.2l-39.6,39.6l-17-17c-3.2-3.1-8.2-3-11.3,0.2
			c-3,3.1-3,8,0,11.1l22.6,22.6c3.1,3.1,8.2,3.1,11.3,0l45.2-45.3C308.9,226.3,308.9,221.2,305.9,218z"/>
	</g>
</g>
<g class="st0">
	<g class="st9">
		<linearGradient id="SVGID_28_" gradientUnits="userSpaceOnUse" x1="224.2455" y1="318.3664" x2="307.9208" y2="318.3664">
			<stop  offset="0" style="stop-color:#E5700F"/>
			<stop  offset="1" style="stop-color:#FEBA1C"/>
		</linearGradient>
		<path class="st29" d="M305.5,290c-3.1-3-8-3-11.1,0l-39.6,39.6l-17-17c-3.2-3.1-8.2-3-11.3,0.2c-3,3.1-3,8,0,11.1l22.6,22.6
			c3.1,3.1,8.2,3.1,11.3,0l45.2-45.3C308.7,298.2,308.7,293.1,305.5,290z"/>
	</g>
</g>
<g class="st0">
	<g class="st9">
		<linearGradient id="SVGID_29_" gradientUnits="userSpaceOnUse" x1="224.2455" y1="390.318" x2="307.2152" y2="390.318">
			<stop  offset="0" style="stop-color:#E5700F"/>
			<stop  offset="1" style="stop-color:#FEBA1C"/>
		</linearGradient>
		<path class="st30" d="M305.7,362c-3.1-3.1-8.2-3.1-11.3,0l-39.6,39.6l-17-17c-3.2-3.1-8.2-3-11.3,0.2c-3,3.1-3,8,0,11.1l22.6,22.6
			c3.1,3.1,8.2,3.1,11.3,0l45.2-45.3C308.1,370.4,307.3,365.6,305.7,362z"/>
	</g>
</g>
<g class="st0">
	<linearGradient id="SVGID_30_" gradientUnits="userSpaceOnUse" x1="160.683" y1="266" x2="533.683" y2="266">
		<stop  offset="0" style="stop-color:#E5700F"/>
		<stop  offset="1" style="stop-color:#FEBA1C"/>
	</linearGradient>
	<path class="st31" d="M528.1,12c4.7,2.3,5.6,6.9,5.6,12.5c0,65.8,0,131.6,0,197.4c0,94.7,0,189.5,0,284.2c0,2.3-0.1,4.6-0.4,6.9
		c-0.5,4.2-2.8,6.3-6.1,6.9c-1.5,0.3-3,0.2-4.5,0.2c-105,0-210,0-315.1,0c-9.1,0-10.9-2.3-11-13.4c0-33.6,0-67.1,0-100.7
		c0-3.4-0.8-5.8-2.8-8.2c-8.5-10-16.8-20.3-25.1-30.5c-4.9-6-4.9-10,0-16c1.7-2.1,3.6-3.9,6.3-6.7c-3.8-4.2-7.1-7.6-10.2-11.3
		c-5.7-6.7-5.6-10.8-0.1-17.5c7-8.5,14-17.1,21-25.6c4.3-5.2,4.6-5.4,10.6-5.3c0.1-1.4,0.2-2.8,0.2-4.3c0-85.2,0-170.3,0-255.5
		c0-5.6,0.4-10.7,5.3-13.1C310.7,12,419.4,12,528.1,12z M519.1,29.5c-102.9,0-205.4,0-308,0c-0.1,1.5-0.2,2.7-0.2,3.8
		c0,88.5,0,176.9,0.1,265.4c0,2.3,1.1,5.1,2.4,6.7c15.7,19.3,31.5,38.4,47.2,57.6c15.2,18.5,30.4,36.9,45.5,55.4
		c5,6.2,5,10.3-0.1,16.4c-1.9,2.3-4.1,4.3-7,7.3c3.7,4,6.7,7,9.5,10.4c3.6,4.3,3.8,9.6,0.8,13.2c-3.1,3.7-7,3.4-10.8-1.1
		c-2.8-3.3-5.5-6.8-8.9-11.1c-1.9,2.8-3.3,5.2-5,7.3c-5.8,7.2-8.8,7.2-14.6,0.2c-18.5-22.4-36.9-44.9-55.3-67.3
		c-1-1.2-2.1-2.4-3.6-4c0,38,0,75.2,0,112.8c102.7,0,205.2,0,308,0C519.1,344.8,519.1,187.3,519.1,29.5z M227,383.4
		c4.9-6,9.9-12.2,14.4-17.8c-10.5-12.8-21.2-26-31.3-38.4c-4.9,5.9-10,12-14.6,17.6C205.9,357.6,216.6,370.7,227,383.4z M256,418.6
		c7.2,8.9,14.3,17.7,20.9,25.9c5-6.1,10.1-12.3,15-18.3c-6.9-8.3-14.2-17-21.3-25.5C265.9,406.5,260.9,412.6,256,418.6z M253,378.3
		c-5.3,6.5-10.2,12.6-15.3,18.8c2.4,2.8,5,5.8,7.3,8.4c5-6.1,10-12.2,15.1-18.4C257.9,384.3,255.4,381.3,253,378.3z M178.9,323.8
		c1.8,2.8,3.6,5.5,4.7,7.3c5.2-6.3,10.3-12.4,15-18.1c-1.6-2.1-3.5-4.5-5.4-6.9C188.4,312.2,183.4,318.2,178.9,323.8z M196,375.2
		c0.3-0.1,0.5-0.2,0.8-0.3c-0.4-1.4-0.5-3.2-1.3-4.2c-3.2-4.2-6.6-8.3-10.1-12.3c-0.5-0.6-1.9-0.1-2.9-0.1
		C187.4,364.4,191.7,369.8,196,375.2z"/>
	<linearGradient id="SVGID_31_" gradientUnits="userSpaceOnUse" x1="388.5464" y1="401.1973" x2="506.3334" y2="401.1973">
		<stop  offset="0" style="stop-color:#E5700F"/>
		<stop  offset="1" style="stop-color:#FEBA1C"/>
	</linearGradient>
	<path class="st32" d="M472.6,433.9c-3,3.9-5.7,8.9-9.1,11.8c-8.7,7.4-19.9-3.3-21.6-19.9c-0.9-8.8,0.7-16.6,3.1-24.3
		c2.1-7,4.4-13.8,6.2-21c1.3-5-0.3-9-3.7-9c-2.2,0-4.7,0.5-6.5,2.1c-5.5,5-11.1,10-16.1,16.1c-8.8,10.7-16.4,23.4-22.8,37.9
		c-1.3,2.9-2.3,6.3-3.4,9.4c-1.6,4.4-4.1,6-6.7,4.2c-2.7-1.8-4.2-6.4-2.9-11c1.8-6.1,3.9-12.1,6.4-17.4c9.4-19.4,20.5-36,33.5-49
		c5.1-5.1,10.5-8.9,16.6-9.8c9.5-1.4,20.6,11.6,15.7,32.7c-1.8,7.7-4.4,14.9-6.6,22.3c-0.8,2.8-1.5,5.8-2,8.8
		c-0.8,4.7,0.7,10,3.3,12.2c2.2,1.9,4,0.2,5.1-2.5c2.6-6.4,5.1-13,7.3-19.9c1.5-4.6,2.1-10.1,6.2-10.1c4-0.1,5.1,5.3,6.4,9.9
		c0.8,2.9,1.4,5.9,2.3,9.9c1.2-4.8,2.3-8.8,3.3-12.8c2.3-9.2,6-10.8,10.6-4.2c4.4,6.3,8.1,13.5,9.1,23.4c0.9,9-1.2,16.2-5,22.3
		c-2,3.1-5,2.9-7,0.1c-2.1-3-2.5-7.7-0.6-11.6c2.1-4.4,3-8.6,0.8-12.9c-3,6.5-5.9,13.2-9.1,19.5c-1.3,2.5-3.1,4.8-4.9,5.6
		c-1.8,0.9-4.2,0.7-6-0.6c-2.1-1.5-2.5-5.3-1.9-9.1C472.5,436,472.6,434.7,472.6,433.9z"/>
	<linearGradient id="SVGID_32_" gradientUnits="userSpaceOnUse" x1="312.7833" y1="171.892" x2="493.7371" y2="171.892">
		<stop  offset="0" style="stop-color:#E5700F"/>
		<stop  offset="1" style="stop-color:#FEBA1C"/>
	</linearGradient>
	<path class="st33" d="M403.4,180.4c-27.5,0-54.9,0-82.4,0c-1.1,0-2.3,0.1-3.4-0.1c-3-0.5-4.9-4-4.9-8.6c0-4.3,1.9-7.7,4.8-8.3
		c1-0.2,2-0.1,3.1-0.1c55.1,0,110.2,0,165.3,0c5.3,0,7.7,2.6,7.8,8.5c0,5.9-2.4,8.6-7.7,8.6C458.5,180.4,431,180.4,403.4,180.4z"/>
	<linearGradient id="SVGID_33_" gradientUnits="userSpaceOnUse" x1="312.7982" y1="91.2697" x2="493.7173" y2="91.2697">
		<stop  offset="0" style="stop-color:#E5700F"/>
		<stop  offset="1" style="stop-color:#FEBA1C"/>
	</linearGradient>
	<path class="st34" d="M403.2,82.6c27.4,0,54.7,0,82.1,0c1.3,0,2.7,0,4,0.3c2.7,0.6,4.2,3.3,4.4,7.6c0.2,4.6-1.2,7.6-3.9,8.9
		c-1,0.4-2,0.5-3,0.5c-54.9,0-109.8,0-164.7,0c-1.6,0-3.3,0.1-4.9-0.4c-2.8-0.8-4.6-4.4-4.3-8.8c0.2-4.5,1.8-7.3,4.6-7.8
		c1.2-0.2,2.5-0.2,3.7-0.2C348.5,82.6,375.9,82.6,403.2,82.6z"/>
	<linearGradient id="SVGID_34_" gradientUnits="userSpaceOnUse" x1="312.775" y1="292.9211" x2="450.5704" y2="292.9211">
		<stop  offset="0" style="stop-color:#E5700F"/>
		<stop  offset="1" style="stop-color:#FEBA1C"/>
	</linearGradient>
	<path class="st35" d="M381.5,301.5c-20.3,0-40.6,0-60.9,0c-1,0-2.1,0.1-3.1-0.1c-2.8-0.5-4.7-3.8-4.8-8.1c-0.1-4.4,1.7-8,4.5-8.7
		c1.1-0.3,2.2-0.2,3.4-0.2c40.7,0,81.3,0,122,0c1.2,0,2.5-0.1,3.7,0.3c2.5,0.7,4.3,4.4,4.2,8.5c-0.1,4.1-1.9,7.5-4.5,8.1
		c-1.1,0.2-2.2,0.2-3.4,0.2C422.3,301.5,401.9,301.5,381.5,301.5z"/>
	<linearGradient id="SVGID_35_" gradientUnits="userSpaceOnUse" x1="312.7812" y1="212.2603" x2="438.3907" y2="212.2603">
		<stop  offset="0" style="stop-color:#E5700F"/>
		<stop  offset="1" style="stop-color:#FEBA1C"/>
	</linearGradient>
	<path class="st36" d="M375.5,220.9c-18.4,0-36.8,0-55.3,0c-1.4,0-2.9-0.1-4.2-0.9c-2.4-1.4-3.5-4.5-3.2-8.6c0.3-3.9,1.6-6.4,4-7.2
		c1.3-0.4,2.6-0.5,4-0.5c36.4,0,72.9,0,109.3,0c1.4,0,2.9,0,4.3,0.5c2.5,0.8,3.9,3.5,4.1,7.6c0.2,4.1-1,7.1-3.4,8.4
		c-1.3,0.7-2.8,0.8-4.2,0.8C412.3,220.9,393.9,220.9,375.5,220.9z"/>
	<linearGradient id="SVGID_36_" gradientUnits="userSpaceOnUse" x1="387.9731" y1="252.6085" x2="493.703" y2="252.6085">
		<stop  offset="0" style="stop-color:#E5700F"/>
		<stop  offset="1" style="stop-color:#FEBA1C"/>
	</linearGradient>
	<path class="st37" d="M440.7,261.3c-14.9,0-29.9,0-44.8,0c-5.2,0-7.8-2.8-7.9-8.5c-0.1-5.8,2.6-8.9,8-8.9c30.1,0,60.2,0,90.3,0
		c1.3,0,2.7,0.1,3.9,0.8c2.5,1.2,3.6,4.1,3.5,8.2c-0.1,4.1-1.4,6.9-3.9,7.8c-1.2,0.4-2.4,0.5-3.7,0.5
		C471,261.3,455.8,261.3,440.7,261.3C440.7,261.3,440.7,261.3,440.7,261.3z"/>
	<linearGradient id="SVGID_37_" gradientUnits="userSpaceOnUse" x1="312.8293" y1="131.5616" x2="413.5868" y2="131.5616">
		<stop  offset="0" style="stop-color:#E5700F"/>
		<stop  offset="1" style="stop-color:#FEBA1C"/>
	</linearGradient>
	<path class="st38" d="M362.9,140.3c-14.2,0-28.5,0-42.7,0c-1.3,0-2.7-0.1-3.9-0.8c-2.3-1.2-3.8-4.1-3.4-7.8
		c0.4-2.8,1.7-5.8,3.1-7.7c0.9-1.2,2.7-1,4.1-1c28.5,0,57,0,85.4,0c5.3,0,8.1,3.1,8,8.9c-0.1,5.7-2.7,8.5-7.9,8.5
		C391.4,140.3,377.2,140.3,362.9,140.3z"/>
	<linearGradient id="SVGID_38_" gradientUnits="userSpaceOnUse" x1="419.3253" y1="131.5413" x2="493.7109" y2="131.5413">
		<stop  offset="0" style="stop-color:#E5700F"/>
		<stop  offset="1" style="stop-color:#FEBA1C"/>
	</linearGradient>
	<path class="st39" d="M456.7,122.9c10.1,0,20.3,0,30.4,0c4.2,0,6.6,3.1,6.6,8.4c0,4.3-1.2,7.3-3.9,8.3c-1.3,0.5-2.6,0.6-4,0.6
		c-19.5,0-39.1,0-58.6,0c-5.2,0-7.8-2.8-7.9-8.5c-0.1-5.9,2.6-9,7.9-9C437.1,122.8,446.9,122.8,456.7,122.9
		C456.7,122.8,456.7,122.9,456.7,122.9z"/>
	<linearGradient id="SVGID_39_" gradientUnits="userSpaceOnUse" x1="312.8137" y1="252.5886" x2="382.8883" y2="252.5886">
		<stop  offset="0" style="stop-color:#E5700F"/>
		<stop  offset="1" style="stop-color:#FEBA1C"/>
	</linearGradient>
	<path class="st40" d="M347.6,261.3c-9,0-18,0-27,0c-1.2,0-2.5-0.1-3.7-0.5c-2.5-0.8-3.9-3.5-4.1-7.6c-0.2-4.3,1.1-7.3,3.7-8.5
		c1.2-0.5,2.4-0.7,3.6-0.7c18.4,0,36.8,0,55.3,0c1,0,2.1,0,3,0.4c2.8,1,4.7,4.6,4.4,8.7c-0.3,4.4-1.8,7.5-4.6,7.9
		c-2.7,0.4-5.5,0.3-8.3,0.4C362.5,261.3,355,261.3,347.6,261.3z"/>
	<linearGradient id="SVGID_40_" gradientUnits="userSpaceOnUse" x1="402.0961" y1="429.9075" x2="438.9725" y2="429.9075">
		<stop  offset="0" style="stop-color:#E5700F"/>
		<stop  offset="1" style="stop-color:#FEBA1C"/>
	</linearGradient>
	<path class="st41" d="M439,408c-0.5,1.1-1.3,4.6-2.6,5.4c-8.7,5.2-13.8,16.7-18.9,28.1c-2.1,4.6-3.5,10-5.1,15.1
		c-1.3,4.3-3.7,6.6-6.5,5.3c-2.6-1.2-4.6-5.6-3.6-10c1.2-5.7,2.6-11.7,4.8-16.4c4.5-9.7,9.3-19.2,14.7-27.8
		c2.8-4.4,6.8-7.3,10.5-9.6C435.7,396,439,400.5,439,408z"/>
	<linearGradient id="SVGID_41_" gradientUnits="userSpaceOnUse" x1="444.3702" y1="212.2753" x2="493.745" y2="212.2753">
		<stop  offset="0" style="stop-color:#E5700F"/>
		<stop  offset="1" style="stop-color:#FEBA1C"/>
	</linearGradient>
	<path class="st42" d="M469,220.9c-5.8,0-11.7,0.1-17.5,0c-1.3,0-2.7-0.2-3.9-0.9c-2.3-1.5-3.5-4.6-3.2-8.7c0.3-3.8,1.6-6.4,4-7.2
		c1-0.4,2-0.4,3-0.4c11.7,0,23.3-0.1,35,0c1.5,0,3.1,0.2,4.5,1.2c2.5,1.8,3.2,5.5,2.6,9.6c-0.7,4.5-2.8,6.4-5.5,6.4
		C481.7,221,475.3,220.9,469,220.9z"/>
</g>
<g class="st0">
	<g class="st9">
		<g>
			<linearGradient id="SVGID_42_" gradientUnits="userSpaceOnUse" x1="25.683" y1="272.9114" x2="537.6835" y2="272.9114">
				<stop  offset="0" style="stop-color:#E5700F"/>
				<stop  offset="1" style="stop-color:#FEBA1C"/>
			</linearGradient>
			<path class="st43" d="M528.3,149.5c-14.6-7.6-46.5-7.5-59.1,8.2c-4.8,6-9.3,11.8-14,17.8c-12.2,15.8-26.1,33.7-51.5,62.8
				c-5.7,6.5-13.1,11.9-21.7,16.4c0.3-1.3,0.5-2.6,0.6-3.9c0.9-10.6-4-20.8-12.6-26.7c-10.2-7-24-7.2-37.8-0.4
				c-17.7,8.6-37.4,8.5-56.5,8.4c-2.3,0-4.6,0-6.8,0c-8.1,0-16.4-3.5-26.1-7.6c-13.1-5.5-28-11.8-47.4-11.8
				c-21.9,0-43.2,12.9-56.6,22.9v-4.1c0-4.5-3.6-8.1-8.1-8.1h-97c-4.5,0-8.1,3.6-8.1,8.1v161.6c0,4.5,3.6,8.1,8.1,8.1h97
				c4.5,0,8.1-3.6,8.1-8.1v-15.5c35,4.9,66.5,6.8,94.8,6.8c56.8,0,101-7.8,135.9-15.8c33.6-7.7,96.3-73.4,131.4-138
				c6.6-12.1,13.6-23.7,19.7-33.9c8.5-14.1,14.7-24.2,16.5-30.4C537.9,163.9,539.4,155.3,528.3,149.5z M122.7,385H41.8V239.6h80.8
				C122.7,239.6,122.7,385,122.7,385z M506.9,188.5c-6.2,10.3-13.3,22-20.1,34.5c-35.2,64.8-94.9,124-120.8,130
				c-51.3,11.7-123.3,23.1-227.2,8.4V256.5c7.7-6.9,32.7-27.7,56.6-27.7c16.2,0,28.9,5.4,41.2,10.5c10.8,4.6,21.1,8.9,32.4,8.9
				c2.2,0,4.5,0,6.7,0c19.9,0.1,42.6,0.3,63.7-10c8.4-4.1,16.2-4.4,21.6-0.7c3.9,2.7,6.1,7.2,5.6,12.1c-0.5,6.5-5.6,12.5-13.8,16.4
				c-41.8,11.4-94.4,11.4-125,11.4c-4.5,0-8.1,3.6-8.1,8.1s3.6,8.1,8.1,8.1c30.2,0,65.3-0.4,99.2-5.7c42.9-6.7,72.1-19.3,89-38.7
				c25.8-29.4,39.8-47.6,52.1-63.5c4.7-6,9.1-11.7,13.8-17.6c3.2-4,11-6.7,20.5-7c8.7-0.3,15.7,1.5,18.5,3
				C518.7,168.9,512.9,178.5,506.9,188.5z"/>
			<linearGradient id="SVGID_43_" gradientUnits="userSpaceOnUse" x1="312.467" y1="126.927" x2="339.406" y2="126.927">
				<stop  offset="0" style="stop-color:#E5700F"/>
				<stop  offset="1" style="stop-color:#FEBA1C"/>
			</linearGradient>
			<path class="st44" d="M325.9,140.4c7.4,0,13.5-6,13.5-13.5c0-7.4-6-13.5-13.5-13.5c-7.4,0-13.5,6-13.5,13.5
				C312.5,134.4,318.5,140.4,325.9,140.4z"/>
			<linearGradient id="SVGID_44_" gradientUnits="userSpaceOnUse" x1="211.188" y1="159.825" x2="382.4818" y2="159.825">
				<stop  offset="0" style="stop-color:#E5700F"/>
				<stop  offset="1" style="stop-color:#FEBA1C"/>
			</linearGradient>
			<path class="st45" d="M219.3,249.3h30.5c4.5,0,8.1-3.6,8.1-8.1v-7.2h7.2c2.1,0,8.1-3,8.1-8.1v-7.2h7.2c4.5,0,8.1-3.6,8.1-8.1
				v-7.2h7.2c2.1,0,4.2-0.9,5.7-2.4l18.1-18.1c2.2,0.3,4.4,0.4,6.7,0.4c0,0,0,0,0,0c15.1,0,29.3-5.9,40-16.6
				c22.1-22.1,22.1-57.9,0-80c-10.7-10.7-24.9-16.6-40-16.6c-15.1,0-29.3,5.9-40,16.6c-15.5,15.5-20.5,38.6-13.3,59L213.6,205
				c-1.5,1.5-2.4,3.6-2.4,5.7v30.5C211.2,245.7,214.8,249.3,219.3,249.3z M227.3,214.1l60.5-60.5c2.4-2.4,3.1-6.1,1.6-9.2
				c-7.4-15.4-4.2-33.9,7.9-46c7.6-7.6,17.8-11.8,28.6-11.8c10.8,0,20.9,4.2,28.6,11.8c15.8,15.8,15.8,41.4,0,57.1
				c-7.6,7.6-17.8,11.8-28.6,11.8c0,0,0,0,0,0c-2.6,0-5.3-0.3-7.9-0.8c-2.6-0.5-5.4,0.3-7.3,2.2l-18.6,18.6h-11.9
				c-4.5,0-8.1,3.6-8.1,8.1v7.2H265c-4.5,0-8.1,3.6-8.1,8.1v7.2h-7.2h0c-4.2,0-8.1,3.5-8.1,8.1v7.2h-14.3L227.3,214.1L227.3,214.1z"
				/>
			<linearGradient id="SVGID_45_" gradientUnits="userSpaceOnUse" x1="38.784" y1="374.755" x2="65.723" y2="374.755">
				<stop  offset="0" style="stop-color:#E5700F"/>
				<stop  offset="1" style="stop-color:#FEBA1C"/>
			</linearGradient>
			<path class="st46" d="M52.3,388.2c7.4,0,13.5-6,13.5-13.5c0-7.4-6-13.5-13.5-13.5c-7.4,0-13.5,6-13.5,13.5
				C38.8,382.2,44.8,388.2,52.3,388.2z"/>
		</g>
	</g>
</g>
<linearGradient id="SVGID_46_" gradientUnits="userSpaceOnUse" x1="168.3669" y1="260.7155" x2="234.7818" y2="260.7155">
	<stop  offset="0" style="stop-color:#E5700F"/>
	<stop  offset="1" style="stop-color:#FEBA1C"/>
</linearGradient>
<path class="st47" d="M233.1,251.7c-2.6-3.2-7.4-3.7-10.6-1c-5.3,4.4-12.9,6.9-20.9,6.9c-8,0-15.6-2.5-20.9-6.9
	c-3.2-2.6-7.9-2.2-10.6,1c-2.6,3.2-2.2,7.9,1,10.6c8.1,6.6,18.9,10.3,30.5,10.3c11.6,0,22.4-3.6,30.5-10.3
	C235.2,259.6,235.7,254.9,233.1,251.7z"/>
<linearGradient id="SVGID_47_" gradientUnits="userSpaceOnUse" x1="151.23" y1="209.3015" x2="166.23" y2="209.3015">
	<stop  offset="0" style="stop-color:#E5700F"/>
	<stop  offset="1" style="stop-color:#FEBA1C"/>
</linearGradient>
<path class="st48" d="M158.7,197.5c-4.1,0-7.5,3.4-7.5,7.5v8.6c0,4.1,3.4,7.5,7.5,7.5s7.5-3.4,7.5-7.5V205
	C166.2,200.9,162.9,197.5,158.7,197.5z"/>
<linearGradient id="SVGID_48_" gradientUnits="userSpaceOnUse" x1="236.919" y1="209.3015" x2="251.919" y2="209.3015">
	<stop  offset="0" style="stop-color:#E5700F"/>
	<stop  offset="1" style="stop-color:#FEBA1C"/>
</linearGradient>
<path class="st49" d="M244.4,221.1c4.1,0,7.5-3.4,7.5-7.5V205c0-4.1-3.4-7.5-7.5-7.5s-7.5,3.4-7.5,7.5v8.6
	C236.9,217.7,240.3,221.1,244.4,221.1z"/>
<linearGradient id="SVGID_49_" gradientUnits="userSpaceOnUse" x1="48.402" y1="265" x2="320.471" y2="265">
	<stop  offset="0" style="stop-color:#E5700F"/>
	<stop  offset="1" style="stop-color:#FEBA1C"/>
</linearGradient>
<path class="st50" d="M141.5,359.1l6.4-3.2c11.3-5.7,18.4-17,18.4-29.7v-8.7c11.3,4.2,23.3,6.3,35.5,6.3c7,0,14.1-0.7,21.2-2.1
	c22.6-4.6,43.1-17.3,57.8-35.6c14.6-18.3,22.6-41.1,22.6-64.2c-0.1-44.4-33.8-52.2-72.8-61.3c-19-4.4-40.5-9.4-62-19.2
	c-7.1-3.2-15.5-1-19.9,5.4c-14.6,21-30,33.6-41.3,33.6c-3.4,0-6.7,0.7-9.6,2v-20.2c0-57.3,46.6-103.9,103.9-103.9
	s103.9,46.6,103.9,103.9v17.1c0,4.1,3.4,7.5,7.5,7.5c4.1,0,7.5-3.4,7.5-7.5v-17.1c0-44.2-24.3-82.9-60.2-103.4
	c0.1-1.3,0.2-2.5,0.2-3.8c0-25.4-26.4-46.1-58.9-46.1c-32.5,0-58.9,20.7-58.9,46.1c0,1.3,0.1,2.5,0.2,3.8
	C106.9,79.3,82.7,118,82.7,162.2V205c0,11,7.3,20.4,17.3,23.5c1.8,28.3,15.1,54.4,37.2,72.5c4.4,3.6,9.1,6.8,14,9.6v15.7
	c0,6.9-3.9,13.2-10.1,16.3l-74.4,37.2c-11.3,5.7-18.4,17-18.4,29.7v35.5c0,6.2,3.5,11.5,8.6,14.2v54.4c0,4.1,3.4,7.5,7.5,7.5
	s7.5-3.4,7.5-7.5V461h27.8v52.5c0,4.1,3.4,7.5,7.5,7.5s7.5-3.4,7.5-7.5v-77.1c0-4.1-3.4-7.5-7.5-7.5s-7.5,3.4-7.5,7.5v9.6H64.5
	c-0.6,0-1.1-0.5-1.1-1.1v-35.5c0-6.9,3.9-13.2,10.1-16.3l54.6-27.3c11.2,20,33.1,40.8,34.1,41.7c1.4,1.4,3.3,2,5.1,2
	c2,0,4-0.8,5.5-2.4c2.8-3,2.7-7.8-0.3-10.6C172.2,396.4,151.6,376.9,141.5,359.1z M201.6,24c22.5,0,41.2,12.1,43.6,27.6
	c-13.5-5.3-28.2-8.3-43.6-8.3c-15.4,0-30.1,2.9-43.6,8.3C160.4,36.1,179,24,201.6,24z M146.7,289.4c-20.3-16.6-31.9-41.1-31.9-67.2
	c0-4.1-3.4-7.5-7.5-7.5c-5.3,0-9.6-4.3-9.6-9.6s4.3-9.6,9.6-9.6c22.5,0,43.3-25.1,53.6-40.1c0.2-0.3,0.5-0.4,0.8-0.4
	c0.2,0,0.4,0.1,0.6,0.1l0,0c22.8,10.3,45.1,15.5,64.7,20.1c41.3,9.6,61.1,15.6,61.2,46.8c0.1,19.7-6.8,39.2-19.3,54.8
	c-12.5,15.6-30,26.4-49.1,30.3C193.7,312.4,167,306,146.7,289.4z"/>
<linearGradient id="SVGID_50_" gradientUnits="userSpaceOnUse" x1="185.5452" y1="389.2706" x2="448.9652" y2="389.2706">
	<stop  offset="0" style="stop-color:#E5700F"/>
	<stop  offset="1" style="stop-color:#FEBA1C"/>
</linearGradient>
<path class="st51" d="M424.2,282.3c-33-33-86.7-33-119.7,0l-94.3,94.3c-33,33-33,86.7,0,119.7c16.5,16.5,38.2,24.7,59.8,24.7
	c21.2,0,42.3-7.9,58.7-23.6l12,20c2.1,3.6,6.7,4.7,10.3,2.6c3.6-2.1,4.7-6.7,2.6-10.3L330.5,471c-2.9-4.8-8.2-7.8-13.8-7.8h-12.3
	c-7.5,0-14.8-3.2-19.8-8.8c-5.1-5.6-7.6-13-6.8-20.7c1.3-13.5,13.6-24.1,28.1-24.1h15.8c13,0,24.9,7.1,31.1,18.6l47.9,88.9
	c1.4,2.5,3.9,3.9,6.6,3.9c1.2,0,2.4-0.3,3.5-0.9c3.6-2,5-6.5,3-10.2l-34.2-63.4l44.5-44.5C457.2,369,457.2,315.3,424.2,282.3z
	 M262.8,432.3c-1.1,11.8,2.8,23.5,10.7,32.2c7.9,8.7,19.2,13.7,30.9,13.7h12.3c0.4,0,0.7,0.2,0.9,0.5l3.3,5.4l-1.5,1.5
	c-27.1,27.1-71.3,27.1-98.5,0c-27.1-27.1-27.1-71.3,0-98.5l22.3-22.3c7.6,7.5,22.5,21.7,40.5,35.7
	C272.2,407.3,264.1,418.9,262.8,432.3z M372.2,432.7l-6.3-11.6c-8.8-16.3-25.8-26.5-44.3-26.5h-15.8c-1.7,0-3.3,0.1-5,0.3
	c-20.6-15.1-38.6-32.2-47.1-40.6l61.4-61.4c27.1-27.1,71.3-27.1,98.5,0c13.1,13.1,20.4,30.6,20.4,49.2s-7.2,36.1-20.4,49.2
	L372.2,432.7z"/>
<linearGradient id="SVGID_51_" gradientUnits="userSpaceOnUse" x1="314.0642" y1="342.1198" x2="414.7057" y2="342.1198">
	<stop  offset="0" style="stop-color:#E5700F"/>
	<stop  offset="1" style="stop-color:#FEBA1C"/>
</linearGradient>
<path class="st52" d="M400,306.5c-19.6-19.6-51.6-19.6-71.2,0c-19.6,19.6-19.6,51.6,0,71.2c9.8,9.8,22.7,14.7,35.6,14.7
	c12.9,0,25.8-4.9,35.6-14.7C419.6,358.1,419.6,326.2,400,306.5z M389.4,367.1c-13.8,13.8-36.2,13.8-50,0s-13.8-36.2,0-50
	c6.9-6.9,15.9-10.3,25-10.3s18.1,3.4,25,10.3C403.2,330.9,403.2,353.3,389.4,367.1z"/>
<linearGradient id="SVGID_52_" gradientUnits="userSpaceOnUse" x1="344.703" y1="330" x2="359.703" y2="330">
	<stop  offset="0" style="stop-color:#E5700F"/>
	<stop  offset="1" style="stop-color:#FEBA1C"/>
</linearGradient>
<circle class="st53" cx="352.2" cy="330" r="7.5"/>
<linearGradient id="SVGID_53_" gradientUnits="userSpaceOnUse" x1="368.953" y1="354.17" x2="383.953" y2="354.17">
	<stop  offset="0" style="stop-color:#E5700F"/>
	<stop  offset="1" style="stop-color:#FEBA1C"/>
</linearGradient>
<circle class="st54" cx="376.5" cy="354.2" r="7.5"/>
<linearGradient id="SVGID_54_" gradientUnits="userSpaceOnUse" x1="1" y1="339.624" x2="245.057" y2="339.624">
	<stop  offset="0" style="stop-color:#E5700F"/>
	<stop  offset="1" style="stop-color:#FEBA1C"/>
</linearGradient>
<path class="st55" d="M206.1,394.2h-23.4l0-17.2c19.1-16.7,31.1-41.2,31.1-68.4v-29.9c6.1-30.6,3.3-53.3-8.3-67.5
	c-7.3-8.9-16.4-12.3-22.8-13.6v-34.5c0-4.3-3.5-7.8-7.8-7.8c-3,0-6,0-9.1,0c-3.2,0-6.5,0-9.8,0c-37.6,0-79.8,2.4-104.8,30.8
	c-18,20.4-24.3,50.6-19.1,92.2v30.3c0,27.3,12.1,51.8,31.2,68.4v17.2H39.9C18.5,394.2,1,411.7,1,433.1v83.1c0,4.3,3.5,7.8,7.8,7.8
	h228.5c4.3,0,7.8-3.5,7.8-7.8v-83.1c0,0,0,0,0,0C245.1,411.6,227.6,394.2,206.1,394.2z M167.2,397.8l-23.9,15.9l-12.4-6.2V399
	c13.1-1.1,25.4-5,36.4-11.1L167.2,397.8z M62.9,196.3c20.8-23.5,59-25.5,93.1-25.5c3.3,0,6.5,0,9.7,0c0.5,0,0.9,0,1.4,0v33.8
	c0,2.1,0.9,4.2,2.4,5.7c1.6,1.5,3.6,2.2,5.8,2.1c0.7,0,11-0.2,18.2,8.6c5.3,6.5,8,16.4,7.9,29.3l-3.4-6.8c-1.7-3.4-5.7-5.1-9.3-3.9
	c-0.5,0.1-46.6,14.8-73.2,14.8c-25.5,0-48.6-13.8-48.9-14c-3.4-2.1-7.9-1.2-10.3,2l-10.3,13.7C45.4,229.8,51.1,209.7,62.9,196.3z
	 M47.7,308.5v-28.7l17.1-22.7c9.6,4.8,29.1,12.9,50.7,12.9c23.1,0,57.4-9.4,71.6-13.5l11.2,22.5v29.6c0,41.5-33.8,75.3-75.3,75.3
	C81.5,383.8,47.7,350,47.7,308.5z M115.2,399v8l-16.8,6.7l-19.5-15.6v-10.3C89.8,394,102.1,397.9,115.2,399z M229.5,508.4h-36.3
	v-23.4c0-4.3-3.5-7.8-7.8-7.8s-7.8,3.5-7.8,7.8v23.4H68.5v-23.4c0-4.3-3.5-7.8-7.8-7.8s-7.8,3.5-7.8,7.8v23.4H16.6v-75.3
	c0-12.9,10.5-23.4,23.4-23.4h28.4l23.8,19.1c0.1,0.1,0.2,0.1,0.2,0.1c0.2,0.2,0.4,0.3,0.7,0.4c0.1,0.1,0.3,0.2,0.4,0.2
	c0.2,0.1,0.4,0.2,0.7,0.3c0.2,0.1,0.3,0.1,0.5,0.2c0.3,0.1,0.5,0.1,0.8,0.2c0.1,0,0.3,0.1,0.4,0.1c0.4,0.1,0.8,0.1,1.2,0.1
	c0.3,0,0.5,0,0.8,0c0,0,0.1,0,0.1,0c0.2,0,0.4-0.1,0.6-0.1c0.1,0,0.2,0,0.3-0.1c0.2,0,0.3-0.1,0.5-0.1c0.1,0,0.2-0.1,0.3-0.1
	c0.1,0,0.1,0,0.2-0.1l22.7-9.1l17.5,8.7c0,0,0,0,0,0l0.1,0.1c0.1,0.1,0.2,0.1,0.3,0.1c0.2,0.1,0.3,0.1,0.5,0.2
	c0.2,0.1,0.4,0.1,0.6,0.2c0.1,0,0.2,0.1,0.3,0.1c0.3,0.1,0.6,0.1,0.8,0.2c0,0,0,0,0.1,0c0.3,0,0.6,0.1,0.9,0.1c0.4,0,0.7,0,1.1-0.1
	c0.2,0,0.3-0.1,0.5-0.1c0.2,0,0.4-0.1,0.6-0.1c0.2,0,0.3-0.1,0.5-0.2c0.2-0.1,0.4-0.1,0.6-0.2c0.1-0.1,0.3-0.1,0.4-0.2
	c0.2-0.1,0.4-0.2,0.6-0.3c0,0,0.1,0,0.1-0.1l29.2-19.5h28.8c12.9,0,23.4,10.5,23.4,23.4c0,0,0,0,0,0L229.5,508.4L229.5,508.4z"/>
<linearGradient id="SVGID_55_" gradientUnits="userSpaceOnUse" x1="260.637" y1="329.254" x2="504.695" y2="329.254">
	<stop  offset="0" style="stop-color:#E5700F"/>
	<stop  offset="1" style="stop-color:#FEBA1C"/>
</linearGradient>
<path class="st56" d="M504.7,256.5C504.7,256.5,504.7,256.5,504.7,256.5c0-67.3-54.8-122-122-122c-67.3,0-122,54.7-122,122v187v72.7
	c0,4.3,3.5,7.8,7.8,7.8h228.5c4.3,0,7.8-3.5,7.8-7.8v-72.7c0,0,0,0,0,0V256.5L504.7,256.5z M382.7,150.1
	c58.7,0,106.5,47.8,106.5,106.5c0,0,0,0,0,0v155.8c-6.5-4.9-14.6-7.8-23.4-7.8h-30.9c-0.1,0-0.2,0-0.3,0s-0.2,0-0.3,0h-12.7l0-14
	c30.7-14.6,51.9-45.9,51.9-82.1V267c0-4.3-3.5-7.8-7.8-7.8h-13v-13c0-4.3-3.5-7.8-7.8-7.8s-7.8,3.5-7.8,7.8v13h-15.6v-13
	c0-4.3-3.5-7.8-7.8-7.8s-7.8,3.5-7.8,7.8v13h-15.6v-13c0-4.3-3.5-7.8-7.8-7.8s-7.8,3.5-7.8,7.8v13h-15.6v-13c0-4.3-3.5-7.8-7.8-7.8
	s-7.8,3.5-7.8,7.8v13h-15.6v-13c0-4.3-3.5-7.8-7.8-7.8s-7.8,3.5-7.8,7.8v13h-13c-4.3,0-7.8,3.5-7.8,7.8v41.6
	c0,36.2,21.3,67.5,51.9,82.1v14H331c-0.1,0-0.2,0-0.3,0c-0.1,0-0.2,0-0.3,0h-30.9c-8.8,0-16.9,2.9-23.4,7.8V256.5
	C276.2,197.8,324,150.1,382.7,150.1z M307.4,274.7H458v33.8c0,41.5-33.8,75.3-75.3,75.3c-41.5,0-75.3-33.8-75.3-75.3L307.4,274.7
	L307.4,274.7z M351.5,420.1c4.3,0,7.8-3.5,7.8-7.8v-16c7.5,2,15.3,3,23.4,3c8.1,0,15.9-1.1,23.4-3.1l0,16v0c0,0,0,0,0,0
	c0,0.1,0,0.3,0,0.4c0,0.1,0,0.3,0,0.4c0,0.1,0,0.2,0.1,0.4c0,0.1,0,0.3,0.1,0.4c0,0.1,0.1,0.2,0.1,0.4c0,0.1,0.1,0.3,0.1,0.4
	c0,0.1,0.1,0.3,0.1,0.4c0,0.1,0.1,0.2,0.1,0.3c0.1,0.2,0.2,0.4,0.3,0.5c0,0,0,0.1,0.1,0.1c1.1,2,3,3.4,5.3,3.9c0,0,0,0,0,0
	c0.2,0,0.4,0.1,0.6,0.1c0.1,0,0.1,0,0.2,0c0.2,0,0.3,0,0.5,0c0.1,0,0.2,0,0.3,0c0,0,0,0,0,0h12.3c-3.7,20.6-21.8,36.3-43.4,36.3
	c-21.7,0-39.7-15.7-43.4-36.3L351.5,420.1L351.5,420.1z M489.1,508.4h-36.3v-23.4c0-4.3-3.5-7.8-7.8-7.8s-7.8,3.5-7.8,7.8v23.4
	H328.1v-23.4c0-4.3-3.5-7.8-7.8-7.8s-7.8,3.5-7.8,7.8v23.4h-36.3v-64.9c0-12.9,10.5-23.4,23.4-23.4h23.9
	c3.8,29.3,28.9,51.9,59.2,51.9c30.3,0,55.4-22.7,59.2-51.9h23.9c12.9,0,23.4,10.5,23.4,23.3c0,0,0,0,0,0L489.1,508.4L489.1,508.4z"
	/>
<g class="st0">
	<linearGradient id="SVGID_56_" gradientUnits="userSpaceOnUse" x1="250.8096" y1="81.6869" x2="342.5977" y2="81.6869">
		<stop  offset="0" style="stop-color:#E5700F"/>
		<stop  offset="1" style="stop-color:#FEBA1C"/>
	</linearGradient>
	<path class="st57" d="M328.3,26.5c-9.2-9.2-21.5-14.3-34.6-14.3c-13.1,0-25.3,5.1-34.6,14.3c-0.5,0.5-0.9,1.1-1.1,1.8
		c-0.3,1.2-0.1,2.5,0.7,3.4l8.3,11.5l-13.9,18c-1.3,1.7-1,4.1,0.6,5.5l16.1,13.1L256,97.7c-1.1,1.4-1.1,3.3,0,4.8l11.8,15.8
		l-15.1,9.3c-1,0.6-1.7,1.7-1.9,2.9c-0.1,1.2,0.3,2.4,1.1,3.3l16.3,16.3c0.7,0.7,1.8,1.2,2.8,1.2c0.1,0,0.2,0,0.2,0
		c1-0.1,1.9-0.5,2.6-1.2l54.4-54.4c9.2-9.2,14.3-21.5,14.3-34.6C342.6,48,337.5,35.7,328.3,26.5L328.3,26.5z M322.7,90.1l-51.6,51.6
		l-10-10l14.5-9c0.9-0.6,1.6-1.5,1.8-2.6c0.2-1.1-0.1-2.2-0.7-3.1l-12.6-16.9l14.2-18.6c1.3-1.7,1-4.1-0.6-5.5L261.6,63L275,45.7
		c1.1-1.4,1.1-3.3,0.1-4.7l-8-11.2c7.4-6.3,16.7-9.8,26.6-9.8c11,0,21.3,4.3,29,12c7.8,7.8,12,18.1,12,29S330.4,82.4,322.7,90.1
		L322.7,90.1z M322.7,90.1"/>
	<g class="st9">
		<linearGradient id="SVGID_57_" gradientUnits="userSpaceOnUse" x1="152.847" y1="86.3005" x2="250.9454" y2="86.3005">
			<stop  offset="0" style="stop-color:#E5700F"/>
			<stop  offset="1" style="stop-color:#FEBA1C"/>
		</linearGradient>
		<path class="st58" d="M232.9,131.7l14.5-9c0.9-0.6,1.6-1.5,1.8-2.6c0.2-1.1,0-2.2-0.7-3.1l-12.6-16.9l14.2-18.6
			c1.3-1.7,1-4.1-0.6-5.5L233.4,63l13.4-17.3c1.1-1.4,1.1-3.3,0.1-4.7l-7.2-10.1c-3.5-4.9-7.8-8.9-12.8-11.9
			c-19.3-11.4-43.8-8.4-59.6,7.5c-9.2,9.2-14.3,21.5-14.3,34.6c0,13.1,5.1,25.4,14.3,34.6l63.6,63.6c0.8,0.8,1.8,1.2,2.8,1.2
			s2-0.4,2.8-1.2l9.2-9.2c0.4-0.3,0.6-0.7,0.9-1.2c0.7-1.5,0.4-3.3-0.8-4.5L232.9,131.7z M233.6,151l-60.8-60.8
			c-7.8-7.8-12-18.1-12-29s4.3-21.3,12-29c7.9-7.9,18.4-12,29-12c7.2,0,14.4,1.9,20.9,5.8c4,2.4,7.6,5.7,10.5,9.7l5.5,7.7l-13.9,18
			c-1.3,1.7-1,4.1,0.6,5.5l16.1,13.1l-13.7,17.9c-1.1,1.4-1.1,3.3,0,4.8l11.8,15.8l-15.1,9.3c-1,0.6-1.7,1.7-1.9,2.9
			c-0.1,1.2,0.3,2.4,1.1,3.3l13.5,13.5L233.6,151z M233.6,151"/>
	</g>
</g>
<linearGradient id="SVGID_58_" gradientUnits="userSpaceOnUse" x1="167.5309" y1="261.7155" x2="233.9458" y2="261.7155">
	<stop  offset="0" style="stop-color:#E5700F"/>
	<stop  offset="1" style="stop-color:#FEBA1C"/>
</linearGradient>
<path class="st59" d="M232.2,252.7c-2.6-3.2-7.4-3.7-10.6-1c-5.3,4.4-12.9,6.9-20.9,6.9c-8,0-15.6-2.5-20.9-6.9
	c-3.2-2.6-7.9-2.2-10.6,1c-2.6,3.2-2.2,7.9,1,10.6c8.1,6.6,18.9,10.3,30.5,10.3c11.6,0,22.4-3.6,30.5-10.3
	C234.4,260.6,234.9,255.9,232.2,252.7z"/>
<linearGradient id="SVGID_59_" gradientUnits="userSpaceOnUse" x1="150.394" y1="210.3015" x2="165.394" y2="210.3015">
	<stop  offset="0" style="stop-color:#E5700F"/>
	<stop  offset="1" style="stop-color:#FEBA1C"/>
</linearGradient>
<path class="st60" d="M157.9,198.5c-4.1,0-7.5,3.4-7.5,7.5v8.6c0,4.1,3.4,7.5,7.5,7.5s7.5-3.4,7.5-7.5V206
	C165.4,201.9,162,198.5,157.9,198.5z"/>
<linearGradient id="SVGID_60_" gradientUnits="userSpaceOnUse" x1="236.083" y1="210.3015" x2="251.083" y2="210.3015">
	<stop  offset="0" style="stop-color:#E5700F"/>
	<stop  offset="1" style="stop-color:#FEBA1C"/>
</linearGradient>
<path class="st61" d="M243.6,222.1c4.1,0,7.5-3.4,7.5-7.5V206c0-4.1-3.4-7.5-7.5-7.5s-7.5,3.4-7.5,7.5v8.6
	C236.1,218.7,239.4,222.1,243.6,222.1z"/>
<linearGradient id="SVGID_61_" gradientUnits="userSpaceOnUse" x1="47.566" y1="266" x2="319.635" y2="266">
	<stop  offset="0" style="stop-color:#E5700F"/>
	<stop  offset="1" style="stop-color:#FEBA1C"/>
</linearGradient>
<path class="st62" d="M140.6,360.1l6.4-3.2c11.3-5.7,18.4-17,18.4-29.7v-8.7c11.3,4.2,23.3,6.3,35.5,6.3c7,0,14.1-0.7,21.2-2.1
	c22.6-4.6,43.1-17.3,57.8-35.6c14.6-18.3,22.6-41.1,22.6-64.2c-0.1-44.4-33.8-52.2-72.8-61.3c-19-4.4-40.5-9.4-62-19.2
	c-7.1-3.2-15.5-1-19.9,5.4c-14.6,21-30,33.6-41.3,33.6c-3.4,0-6.7,0.7-9.6,2v-20.2c0-57.3,46.6-103.9,103.9-103.9
	s103.9,46.6,103.9,103.9v17.1c0,4.1,3.4,7.5,7.5,7.5c4.1,0,7.5-3.4,7.5-7.5v-17.1c0-44.2-24.3-82.9-60.2-103.4
	c0.1-1.3,0.2-2.5,0.2-3.8c0-25.4-26.4-46.1-58.9-46.1c-32.5,0-58.9,20.7-58.9,46.1c0,1.3,0.1,2.5,0.2,3.8
	C106.1,80.3,81.8,119,81.8,163.2V206c0,11,7.3,20.4,17.3,23.5c1.8,28.3,15.1,54.4,37.2,72.5c4.4,3.6,9.1,6.8,14,9.6v15.7
	c0,6.9-3.9,13.2-10.1,16.3l-74.4,37.2c-11.3,5.7-18.4,17-18.4,29.7v35.5c0,6.2,3.5,11.5,8.6,14.2v54.4c0,4.1,3.4,7.5,7.5,7.5
	s7.5-3.4,7.5-7.5V462H99v52.5c0,4.1,3.4,7.5,7.5,7.5s7.5-3.4,7.5-7.5v-77.1c0-4.1-3.4-7.5-7.5-7.5s-7.5,3.4-7.5,7.5v9.6H63.6
	c-0.6,0-1.1-0.5-1.1-1.1v-35.5c0-6.9,3.9-13.2,10.1-16.3l54.6-27.3c11.2,20,33.1,40.8,34.1,41.7c1.4,1.4,3.3,2,5.1,2
	c2,0,4-0.8,5.5-2.4c2.8-3,2.7-7.8-0.3-10.6C171.4,397.4,150.8,377.9,140.6,360.1z M200.7,25c22.5,0,41.2,12.1,43.6,27.6
	c-13.5-5.3-28.2-8.3-43.6-8.3c-15.4,0-30.1,2.9-43.6,8.3C159.6,37.1,178.2,25,200.7,25z M145.9,290.4
	c-20.3-16.6-31.9-41.1-31.9-67.2c0-4.1-3.4-7.5-7.5-7.5c-5.3,0-9.6-4.3-9.6-9.6s4.3-9.6,9.6-9.6c22.5,0,43.3-25.1,53.6-40.1
	c0.2-0.3,0.5-0.4,0.8-0.4c0.2,0,0.4,0.1,0.6,0.1l0,0c22.8,10.3,45.1,15.5,64.7,20.1c41.3,9.6,61.1,15.6,61.2,46.8
	c0.1,19.7-6.8,39.2-19.3,54.8c-12.5,15.6-30,26.4-49.1,30.3C192.9,313.4,166.2,307,145.9,290.4z"/>
<linearGradient id="SVGID_62_" gradientUnits="userSpaceOnUse" x1="184.7092" y1="390.2706" x2="448.1292" y2="390.2706">
	<stop  offset="0" style="stop-color:#E5700F"/>
	<stop  offset="1" style="stop-color:#FEBA1C"/>
</linearGradient>
<path class="st63" d="M423.4,283.3c-33-33-86.7-33-119.7,0l-94.3,94.3c-33,33-33,86.7,0,119.7c16.5,16.5,38.2,24.7,59.8,24.7
	c21.2,0,42.3-7.9,58.7-23.6l12,20c2.1,3.6,6.7,4.7,10.3,2.6c3.6-2.1,4.7-6.7,2.6-10.3L329.6,472c-2.9-4.8-8.2-7.8-13.8-7.8h-12.3
	c-7.5,0-14.8-3.2-19.8-8.8c-5.1-5.6-7.6-13-6.8-20.7c1.3-13.5,13.6-24.1,28.1-24.1h15.8c13,0,24.9,7.1,31.1,18.6l47.9,88.9
	c1.4,2.5,3.9,3.9,6.6,3.9c1.2,0,2.4-0.3,3.5-0.9c3.6-2,5-6.5,3-10.2l-34.2-63.4l44.5-44.5C456.4,370,456.4,316.3,423.4,283.3z
	 M262,433.3c-1.1,11.8,2.8,23.5,10.7,32.2c7.9,8.7,19.2,13.7,30.9,13.7h12.3c0.4,0,0.7,0.2,0.9,0.5l3.3,5.4l-1.5,1.5
	c-27.1,27.1-71.3,27.1-98.5,0c-27.1-27.1-27.1-71.3,0-98.5l22.3-22.3c7.6,7.5,22.5,21.7,40.5,35.7
	C271.4,408.3,263.3,419.9,262,433.3z M371.4,433.7l-6.3-11.6c-8.8-16.3-25.8-26.5-44.3-26.5H305c-1.7,0-3.3,0.1-5,0.3
	c-20.6-15.1-38.6-32.2-47.1-40.6l61.4-61.4c27.1-27.1,71.3-27.1,98.5,0c13.1,13.1,20.4,30.6,20.4,49.2s-7.2,36.1-20.4,49.2
	L371.4,433.7z"/>
<linearGradient id="SVGID_63_" gradientUnits="userSpaceOnUse" x1="313.2282" y1="343.1198" x2="413.8698" y2="343.1198">
	<stop  offset="0" style="stop-color:#E5700F"/>
	<stop  offset="1" style="stop-color:#FEBA1C"/>
</linearGradient>
<path class="st64" d="M399.1,307.5c-19.6-19.6-51.6-19.6-71.2,0c-19.6,19.6-19.6,51.6,0,71.2c9.8,9.8,22.7,14.7,35.6,14.7
	c12.9,0,25.8-4.9,35.6-14.7C418.8,359.1,418.8,327.2,399.1,307.5z M388.5,368.1c-13.8,13.8-36.2,13.8-50,0s-13.8-36.2,0-50
	c6.9-6.9,15.9-10.3,25-10.3s18.1,3.4,25,10.3C402.3,331.9,402.3,354.3,388.5,368.1z"/>
<linearGradient id="SVGID_64_" gradientUnits="userSpaceOnUse" x1="343.867" y1="331" x2="358.867" y2="331">
	<stop  offset="0" style="stop-color:#E5700F"/>
	<stop  offset="1" style="stop-color:#FEBA1C"/>
</linearGradient>
<circle class="st65" cx="351.4" cy="331" r="7.5"/>
<linearGradient id="SVGID_65_" gradientUnits="userSpaceOnUse" x1="368.117" y1="355.17" x2="383.117" y2="355.17">
	<stop  offset="0" style="stop-color:#E5700F"/>
	<stop  offset="1" style="stop-color:#FEBA1C"/>
</linearGradient>
<circle class="st66" cx="375.6" cy="355.2" r="7.5"/>
<linearGradient id="SVGID_66_" gradientUnits="userSpaceOnUse" x1="0" y1="316.624" x2="244.057" y2="316.624">
	<stop  offset="0" style="stop-color:#E5700F"/>
	<stop  offset="1" style="stop-color:#FEBA1C"/>
</linearGradient>
<path class="st67" d="M205.1,371.2h-23.4l0-17.2c19.1-16.7,31.1-41.2,31.1-68.4v-29.9c6.1-30.6,3.3-53.3-8.3-67.5
	c-7.3-8.9-16.4-12.3-22.8-13.6v-34.5c0-4.3-3.5-7.8-7.8-7.8c-3,0-6,0-9.1,0c-3.2,0-6.5,0-9.8,0c-37.6,0-79.8,2.4-104.8,30.8
	c-18,20.4-24.3,50.6-19.1,92.2v30.3c0,27.3,12.1,51.8,31.2,68.4v17.2H38.9C17.5,371.2,0,388.7,0,410.1v83.1c0,4.3,3.5,7.8,7.8,7.8
	h228.5c4.3,0,7.8-3.5,7.8-7.8v-83.1c0,0,0,0,0,0C244.1,388.6,226.6,371.2,205.1,371.2z M166.2,374.8l-23.9,15.9l-12.4-6.2V376
	c13.1-1.1,25.4-5,36.4-11.1L166.2,374.8z M61.9,173.3c20.8-23.5,59-25.5,93.1-25.5c3.3,0,6.5,0,9.7,0c0.5,0,0.9,0,1.4,0v33.8
	c0,2.1,0.9,4.2,2.4,5.7c1.6,1.5,3.6,2.2,5.8,2.1c0.7,0,11-0.2,18.2,8.6c5.3,6.5,8,16.4,7.9,29.3l-3.4-6.8c-1.7-3.4-5.7-5.1-9.3-3.9
	c-0.5,0.1-46.6,14.8-73.2,14.8c-25.5,0-48.6-13.8-48.9-14c-3.4-2.1-7.9-1.2-10.3,2l-10.3,13.7C44.4,206.8,50.1,186.7,61.9,173.3z
	 M46.7,285.5v-28.7l17.1-22.7c9.6,4.8,29.1,12.9,50.7,12.9c23.1,0,57.4-9.4,71.6-13.5l11.2,22.5v29.6c0,41.5-33.8,75.3-75.3,75.3
	C80.5,360.8,46.7,327,46.7,285.5z M114.2,376v8l-16.8,6.7l-19.5-15.6v-10.3C88.8,371,101.1,374.9,114.2,376z M228.5,485.4h-36.3
	v-23.4c0-4.3-3.5-7.8-7.8-7.8s-7.8,3.5-7.8,7.8v23.4H67.5v-23.4c0-4.3-3.5-7.8-7.8-7.8s-7.8,3.5-7.8,7.8v23.4H15.6v-75.3
	c0-12.9,10.5-23.4,23.4-23.4h28.4l23.8,19.1c0.1,0.1,0.2,0.1,0.2,0.1c0.2,0.2,0.4,0.3,0.7,0.4c0.1,0.1,0.3,0.2,0.4,0.2
	c0.2,0.1,0.4,0.2,0.7,0.3c0.2,0.1,0.3,0.1,0.5,0.2c0.3,0.1,0.5,0.1,0.8,0.2c0.1,0,0.3,0.1,0.4,0.1c0.4,0.1,0.8,0.1,1.2,0.1
	c0.3,0,0.5,0,0.8,0c0,0,0.1,0,0.1,0c0.2,0,0.4-0.1,0.6-0.1c0.1,0,0.2,0,0.3-0.1c0.2,0,0.3-0.1,0.5-0.1c0.1,0,0.2-0.1,0.3-0.1
	c0.1,0,0.1,0,0.2-0.1l22.7-9.1l17.5,8.7c0,0,0,0,0,0l0.1,0.1c0.1,0.1,0.2,0.1,0.3,0.1c0.2,0.1,0.3,0.1,0.5,0.2
	c0.2,0.1,0.4,0.1,0.6,0.2c0.1,0,0.2,0.1,0.3,0.1c0.3,0.1,0.6,0.1,0.8,0.2c0,0,0,0,0.1,0c0.3,0,0.6,0.1,0.9,0.1c0.4,0,0.7,0,1.1-0.1
	c0.2,0,0.3-0.1,0.5-0.1c0.2,0,0.4-0.1,0.6-0.1c0.2,0,0.3-0.1,0.5-0.2c0.2-0.1,0.4-0.1,0.6-0.2c0.1-0.1,0.3-0.1,0.4-0.2
	c0.2-0.1,0.4-0.2,0.6-0.3c0,0,0.1,0,0.1-0.1l29.2-19.5h28.8c12.9,0,23.4,10.5,23.4,23.4c0,0,0,0,0,0L228.5,485.4L228.5,485.4z"/>
<linearGradient id="SVGID_67_" gradientUnits="userSpaceOnUse" x1="259.637" y1="306.254" x2="503.695" y2="306.254">
	<stop  offset="0" style="stop-color:#E5700F"/>
	<stop  offset="1" style="stop-color:#FEBA1C"/>
</linearGradient>
<path class="st68" d="M503.7,233.5C503.7,233.5,503.7,233.5,503.7,233.5c0-67.3-54.8-122-122-122c-67.3,0-122,54.7-122,122v187v72.7
	c0,4.3,3.5,7.8,7.8,7.8h228.5c4.3,0,7.8-3.5,7.8-7.8v-72.7c0,0,0,0,0,0V233.5L503.7,233.5z M381.7,127.1
	c58.7,0,106.5,47.8,106.5,106.4c0,0,0,0,0,0v155.8c-6.5-4.9-14.6-7.8-23.4-7.8h-30.9c-0.1,0-0.2,0-0.3,0s-0.2,0-0.3,0h-12.7l0-14
	c30.7-14.6,51.9-45.9,51.9-82.1V244c0-4.3-3.5-7.8-7.8-7.8h-13v-13c0-4.3-3.5-7.8-7.8-7.8s-7.8,3.5-7.8,7.8v13h-15.6v-13
	c0-4.3-3.5-7.8-7.8-7.8s-7.8,3.5-7.8,7.8v13h-15.6v-13c0-4.3-3.5-7.8-7.8-7.8s-7.8,3.5-7.8,7.8v13h-15.6v-13c0-4.3-3.5-7.8-7.8-7.8
	s-7.8,3.5-7.8,7.8v13h-15.6v-13c0-4.3-3.5-7.8-7.8-7.8s-7.8,3.5-7.8,7.8v13h-13c-4.3,0-7.8,3.5-7.8,7.8v41.6
	c0,36.2,21.3,67.5,51.9,82.1v14H330c-0.1,0-0.2,0-0.3,0c-0.1,0-0.2,0-0.3,0h-30.9c-8.8,0-16.9,2.9-23.4,7.8V233.5
	C275.2,174.8,323,127.1,381.7,127.1z M306.4,251.7H457v33.8c0,41.5-33.8,75.3-75.3,75.3c-41.5,0-75.3-33.8-75.3-75.3L306.4,251.7
	L306.4,251.7z M350.5,397.1c4.3,0,7.8-3.5,7.8-7.8v-16c7.5,2,15.3,3,23.4,3c8.1,0,15.9-1.1,23.4-3.1l0,16v0c0,0,0,0,0,0
	c0,0.1,0,0.3,0,0.4c0,0.1,0,0.3,0,0.4c0,0.1,0,0.2,0.1,0.4c0,0.1,0,0.3,0.1,0.4c0,0.1,0.1,0.2,0.1,0.4c0,0.1,0.1,0.3,0.1,0.4
	c0,0.1,0.1,0.3,0.1,0.4c0,0.1,0.1,0.2,0.1,0.3c0.1,0.2,0.2,0.4,0.3,0.5c0,0,0,0.1,0.1,0.1c1.1,2,3,3.4,5.3,3.9c0,0,0,0,0,0
	c0.2,0,0.4,0.1,0.6,0.1c0.1,0,0.1,0,0.2,0c0.2,0,0.3,0,0.5,0c0.1,0,0.2,0,0.3,0c0,0,0,0,0,0h12.3c-3.7,20.6-21.8,36.3-43.4,36.3
	c-21.7,0-39.7-15.7-43.4-36.3L350.5,397.1L350.5,397.1z M488.1,485.4h-36.3v-23.4c0-4.3-3.5-7.8-7.8-7.8s-7.8,3.5-7.8,7.8v23.4
	H327.1v-23.4c0-4.3-3.5-7.8-7.8-7.8s-7.8,3.5-7.8,7.8v23.4h-36.3v-64.9c0-12.9,10.5-23.4,23.4-23.4h23.9
	c3.8,29.3,28.9,51.9,59.2,51.9c30.3,0,55.4-22.7,59.2-51.9h23.9c12.9,0,23.4,10.5,23.4,23.3c0,0,0,0,0,0L488.1,485.4L488.1,485.4z"
	/>
<g class="st0">
	<linearGradient id="SVGID_68_" gradientUnits="userSpaceOnUse" x1="249.8096" y1="58.6868" x2="341.5977" y2="58.6868">
		<stop  offset="0" style="stop-color:#E5700F"/>
		<stop  offset="1" style="stop-color:#FEBA1C"/>
	</linearGradient>
	<path class="st69" d="M327.3,3.5c-9.2-9.2-21.5-14.3-34.6-14.3c-13.1,0-25.3,5.1-34.6,14.3c-0.5,0.5-0.9,1.1-1.1,1.8
		c-0.3,1.2-0.1,2.5,0.7,3.4l8.3,11.5l-13.9,18c-1.3,1.7-1,4.1,0.6,5.5l16.1,13.1L255,74.7c-1.1,1.4-1.1,3.3,0,4.8l11.8,15.8
		l-15.1,9.3c-1,0.6-1.7,1.7-1.9,2.9c-0.1,1.2,0.3,2.4,1.1,3.3l16.3,16.3c0.7,0.7,1.8,1.2,2.8,1.2c0.1,0,0.2,0,0.2,0
		c1-0.1,1.9-0.5,2.6-1.2l54.4-54.4c9.2-9.2,14.3-21.5,14.3-34.6C341.6,25,336.5,12.7,327.3,3.5L327.3,3.5z M321.7,67.1l-51.6,51.6
		l-10-10l14.5-9c0.9-0.6,1.6-1.5,1.8-2.6c0.2-1.1-0.1-2.2-0.7-3.1l-12.6-16.9l14.2-18.6c1.3-1.7,1-4.1-0.6-5.5L260.6,40L274,22.7
		c1.1-1.4,1.1-3.3,0.1-4.7l-8-11.2c7.4-6.3,16.7-9.8,26.6-9.8c11,0,21.3,4.3,29,12c7.8,7.8,12,18.1,12,29S329.4,59.4,321.7,67.1
		L321.7,67.1z M321.7,67.1"/>
	<g class="st9">
		<linearGradient id="SVGID_69_" gradientUnits="userSpaceOnUse" x1="151.847" y1="63.3005" x2="249.9454" y2="63.3005">
			<stop  offset="0" style="stop-color:#E5700F"/>
			<stop  offset="1" style="stop-color:#FEBA1C"/>
		</linearGradient>
		<path class="st70" d="M231.9,108.7l14.5-9c0.9-0.6,1.6-1.5,1.8-2.6c0.2-1.1,0-2.2-0.7-3.1l-12.6-16.9l14.2-18.6
			c1.3-1.7,1-4.1-0.6-5.5L232.4,40l13.4-17.3c1.1-1.4,1.1-3.3,0.1-4.7l-7.2-10.1c-3.5-4.9-7.8-8.9-12.8-11.9
			c-19.3-11.4-43.8-8.4-59.6,7.5c-9.2,9.2-14.3,21.5-14.3,34.6c0,13.1,5.1,25.4,14.3,34.6l63.6,63.6c0.8,0.8,1.8,1.2,2.8,1.2
			s2-0.4,2.8-1.2l9.2-9.2c0.4-0.3,0.6-0.7,0.9-1.2c0.7-1.5,0.4-3.3-0.8-4.5L231.9,108.7z M232.6,128l-60.8-60.8
			c-7.8-7.8-12-18.1-12-29s4.3-21.3,12-29c7.9-7.9,18.4-12,29-12c7.2,0,14.4,1.9,20.9,5.8c4,2.4,7.6,5.7,10.5,9.7l5.5,7.7l-13.9,18
			c-1.3,1.7-1,4.1,0.6,5.5l16.1,13.1l-13.7,17.9c-1.1,1.4-1.1,3.3,0,4.8l11.8,15.8l-15.1,9.3c-1,0.6-1.7,1.7-1.9,2.9
			c-0.1,1.2,0.3,2.4,1.1,3.3l13.5,13.5L232.6,128z M232.6,128"/>
	</g>
</g>
<linearGradient id="SVGID_70_" gradientUnits="userSpaceOnUse" x1="107.397" y1="183.1413" x2="156.673" y2="183.1413">
	<stop  offset="0" style="stop-color:#E5700F"/>
	<stop  offset="1" style="stop-color:#FEBA1C"/>
</linearGradient>
<path class="st71" d="M132,194.9c8.7,0,17.1-4.1,23-11.3c2.6-3.2,2.1-7.9-1.1-10.5s-7.9-2.1-10.5,1.1c-3,3.7-7,5.8-11.3,5.8
	s-8.3-2.1-11.3-5.8c-2.6-3.2-7.3-3.7-10.5-1.1c-3.2,2.6-3.7,7.3-1.1,10.5C114.9,190.8,123.3,194.9,132,194.9z"/>
<linearGradient id="SVGID_71_" gradientUnits="userSpaceOnUse" x1="90.259" y1="140.2964" x2="105.259" y2="140.2964">
	<stop  offset="0" style="stop-color:#E5700F"/>
	<stop  offset="1" style="stop-color:#FEBA1C"/>
</linearGradient>
<path class="st72" d="M97.8,152.1c4.1,0,7.5-3.4,7.5-7.5V136c0-4.1-3.4-7.5-7.5-7.5s-7.5,3.4-7.5,7.5v8.6
	C90.3,148.7,93.6,152.1,97.8,152.1z"/>
<linearGradient id="SVGID_72_" gradientUnits="userSpaceOnUse" x1="158.811" y1="140.2964" x2="173.811" y2="140.2964">
	<stop  offset="0" style="stop-color:#E5700F"/>
	<stop  offset="1" style="stop-color:#FEBA1C"/>
</linearGradient>
<path class="st73" d="M166.3,152.1c4.1,0,7.5-3.4,7.5-7.5V136c0-4.1-3.4-7.5-7.5-7.5s-7.5,3.4-7.5,7.5v8.6
	C158.8,148.7,162.2,152.1,166.3,152.1z"/>
<linearGradient id="SVGID_73_" gradientUnits="userSpaceOnUse" x1="355.8976" y1="225.9853" x2="405.1724" y2="225.9853">
	<stop  offset="0" style="stop-color:#E5700F"/>
	<stop  offset="1" style="stop-color:#FEBA1C"/>
</linearGradient>
<path class="st74" d="M380.5,237.8c8.7,0,17.1-4.1,23-11.3c2.6-3.2,2.1-7.9-1.1-10.5s-7.9-2.1-10.5,1.1c-3,3.7-7,5.8-11.3,5.8
	c-4.3,0-8.3-2.1-11.3-5.8c-2.6-3.2-7.3-3.7-10.5-1.1c-3.2,2.6-3.7,7.3-1.1,10.5C363.4,233.6,371.8,237.8,380.5,237.8z"/>
<linearGradient id="SVGID_74_" gradientUnits="userSpaceOnUse" x1="338.759" y1="183.1414" x2="353.759" y2="183.1414">
	<stop  offset="0" style="stop-color:#E5700F"/>
	<stop  offset="1" style="stop-color:#FEBA1C"/>
</linearGradient>
<path class="st75" d="M346.3,194.9c4.1,0,7.5-3.4,7.5-7.5v-8.6c0-4.1-3.4-7.5-7.5-7.5s-7.5,3.4-7.5,7.5v8.6
	C338.8,191.6,342.1,194.9,346.3,194.9z"/>
<linearGradient id="SVGID_75_" gradientUnits="userSpaceOnUse" x1="407.311" y1="183.1414" x2="422.311" y2="183.1414">
	<stop  offset="0" style="stop-color:#E5700F"/>
	<stop  offset="1" style="stop-color:#FEBA1C"/>
</linearGradient>
<path class="st76" d="M414.8,194.9c4.1,0,7.5-3.4,7.5-7.5v-8.6c0-4.1-3.4-7.5-7.5-7.5s-7.5,3.4-7.5,7.5v8.6
	C407.3,191.6,410.7,194.9,414.8,194.9z"/>
<linearGradient id="SVGID_76_" gradientUnits="userSpaceOnUse" x1="-4" y1="243.1244" x2="507.9971" y2="243.1244">
	<stop  offset="0" style="stop-color:#E5700F"/>
	<stop  offset="1" style="stop-color:#FEBA1C"/>
</linearGradient>
<path class="st77" d="M487.1,319.7l-58.8-23.5c-0.3-0.1-0.6-0.3-0.9-0.4c40.6-9.2,59.8-24.7,60.7-25.4c2-1.7,3-4.3,2.7-6.9
	c-0.1-0.6-8.5-60.1-8.5-118.9c0-56.1-45.6-101.8-101.8-101.8S278.8,88.5,278.8,144.6c0,15.4-0.7,34.2-1.8,52l-16.4,8.2l-48.1-24
	c-0.1-0.1-0.3-0.1-0.4-0.2c2.3-6.7,3.8-13.7,4.3-21c10.1-3.1,17.4-12.5,17.4-23.5c0-7.4-3.3-14.1-8.6-18.7V67.5
	c0-13.8-7-26.7-18.4-34.4C203,18.6,190,8.5,174.9,8.5h-68.6C69.1,8.5,38.8,38.8,38.8,76v41.3c-5.2,4.5-8.6,11.2-8.6,18.7
	c0,11.1,7.3,20.4,17.4,23.5c1.9,25.2,14.9,47.3,34,61.5v20.7l-62,18.6C5.5,264.7-4,277.5-4,292.2v83.7c0,4.1,3.4,7.5,7.5,7.5h1.1
	v86.8c0,4.1,3.4,7.5,7.5,7.5s7.5-3.4,7.5-7.5v-86.8h27.8v86.8c0,4.1,3.4,7.5,7.5,7.5s7.5-3.4,7.5-7.5V340.9c0-6.6-1.9-12.9-5.6-18.4
	L44,303.2c-2.3-3.4-7-4.4-10.4-2.1c-3.4,2.3-4.4,7-2.1,10.4l12.8,19.2c2,3,3.1,6.5,3.1,10.1v27.6H12.1H11v-76.2
	c0-8.1,5.2-15.1,13-17.4l25.7-7.7c9,37.5,43,64.9,82.3,64.9c14.1,0,27.8-3.5,40.1-10.1c4.5,6.1,11.7,10.1,19.9,10.1h1.1v1.1
	c0,25.1,13.8,47.1,34.3,58.7V404c0,0.5-0.3,0.9-0.7,1l-28,9.3c-13.6,4.5-22.7,17.2-22.7,31.5v24.3c0,4.1,3.4,7.5,7.5,7.5
	s7.5-3.4,7.5-7.5v-24.3c0-7.8,5-14.8,12.4-17.3l8.2-2.7c10.9,16.2,29.2,26.1,48.9,26.1c19.8,0,38.1-9.9,48.9-26.1l8.2,2.7
	c7.4,2.5,12.4,9.4,12.4,17.3v24.3c0,4.1,3.4,7.5,7.5,7.5s7.5-3.4,7.5-7.5v-24.3c0-14.3-9.1-27-22.7-31.5l-28-9.3
	c-0.4-0.1-0.7-0.6-0.7-1v-12.2c15.3-8.7,26.9-23.2,31.8-40.5c14.2,14.8,34,23.5,55,23.5c33.2,0,62.4-21.5,72.4-52.7l28.6,11.5
	c7,2.8,11.4,9.4,11.4,16.9v35.1h-1.1h-26.8v-9.6c0-4.1-3.4-7.5-7.5-7.5s-7.5,3.4-7.5,7.5v94.3c0,4.1,3.4,7.5,7.5,7.5
	s7.5-3.4,7.5-7.5v-69.6h19.3v69.6c0,4.1,3.4,7.5,7.5,7.5s7.5-3.4,7.5-7.5v-69.6h1.1c2,0,3.9-0.8,5.3-2.2c1.4-1.4,2.2-3.3,2.2-5.3
	v-42.6C508,336.8,499.8,324.7,487.1,319.7z M293.8,144.6c0-47.8,38.9-86.8,86.8-86.8s86.8,38.9,86.8,86.8c0,50.4,6.1,101.3,8,116.5
	c-6.7,4.4-23.9,14.1-53,20.4v-11.9c4-2.3,7.8-4.8,11.4-7.7c14.8-11.9,25.2-28.6,29.4-47c1.4-6.1,2.1-12.5,2.1-18.8
	c0-42.4-30.7-48.5-60.3-54.4c-18.9-3.7-38.4-7.6-53.9-20c-2.3-1.8-5.3-2.2-7.9-0.9s-4.3,3.9-4.3,6.8c0,0.2-0.3,19.9-28.6,27
	c-4,1-6.5,5.1-5.5,9.1c1,4,5.1,6.5,9.1,5.5c23.7-5.9,33.3-19.2,37.2-29.2c16.3,9.6,34.5,13.3,50.9,16.5
	c31.7,6.3,48.2,10.9,48.2,39.6c0,5.2-0.6,10.4-1.7,15.5c-3.4,15.1-12,28.9-24.2,38.7c-12.5,10.1-27.6,15.4-43.7,15.4
	c-14.7,0-28.7-4.5-40.5-13c-4.3-11.9-11.3-22.7-20.5-31.6v-33.5c0-2.6-1.3-5-3.6-6.4s-5-1.5-7.3-0.3l-16.2,8.1
	C293.3,173.2,293.8,158.3,293.8,144.6z M304.5,199.6v27.1l-27.1-13.6L304.5,199.6z M216.7,199.6l27.1,13.6l-27.1,13.6V199.6z
	 M201.7,221c-8.4,8.2-14.9,17.9-19.3,28.5c0-0.7,0.1-1.4,0.1-2.1v-26.3c7.5-5.5,14-12.3,19.3-19.9V221z M62.4,153.1
	c0-4.1-3.4-7.5-7.5-7.5c-5.3,0-9.6-4.3-9.6-9.6s4.3-9.6,9.6-9.6h17.1c3.2,0,6.1-2.1,7.1-5.1l6.9-20.7c17.2-0.4,70.7-2.8,100.8-17.9
	c3.7-1.9,5.2-6.4,3.4-10.1c-1.9-3.7-6.4-5.2-10.1-3.4c-32.3,16.1-98.8,16.3-99.5,16.3c-3.2,0-6.1,2.1-7.1,5.1l-6.9,20.6H54.9
	c-0.4,0-0.7,0-1.1,0V76c0-28.9,23.5-52.5,52.5-52.5h68.6c9,0,16.5,6.5,17.9,15.3c0.4,2.3,1.7,4.2,3.7,5.4
	c8.5,4.8,13.7,13.7,13.7,23.2v43.9c-0.4,0-0.7,0-1.1,0h-8.6c-4.1,0-7.5,3.4-7.5,7.5s3.4,7.5,7.5,7.5h8.6c5.3,0,9.6,4.3,9.6,9.6
	s-4.3,9.6-9.6,9.6c-4.1,0-7.5,3.4-7.5,7.5c0,38.4-31.2,69.6-69.6,69.6S62.4,191.5,62.4,153.1z M132,237.8c12.6,0,24.6-2.8,35.3-7.7
	v17.4c0,19.5-15.9,35.3-35.3,35.3c-19.5,0-35.3-15.8-35.3-35.2c0,0,0-0.1,0-0.1V230C107.5,235,119.4,237.8,132,237.8z M64.1,262.8
	l18.5-5.6c4.6,23.1,25,40.6,49.4,40.6c19.4,0,36.2-11,44.6-27.1c-0.5,3.6-0.7,7.3-0.7,11v7.1c-5.4,4.6-8.6,11.4-8.6,18.6
	c-10.7,6.3-22.8,9.6-35.3,9.6C99.4,317,71.2,294.1,64.1,262.8z M289.8,419.3l4.8,1.6c-8.3,10.1-20.7,16.1-34,16.1
	c-13.3,0-25.7-6-34-16.1l4.8-1.6c6.6-2.2,11-8.3,11-15.2v-6c5.8,1.6,11.9,2.5,18.2,2.5s12.4-0.9,18.2-2.5v6
	C278.8,411,283.2,417.1,289.8,419.3z M260.6,385.6c-28.9,0-52.5-23.5-52.5-52.5v-8.6c0-4.1-3.4-7.5-7.5-7.5H192
	c-5.3,0-9.6-4.3-9.6-9.6c0-3.4,1.8-6.5,4.8-8.3c0.7-0.4,1.3-0.9,1.8-1.5c18.5-0.5,78.6-4,118.1-26.6c3.6-2.1,4.8-6.6,2.8-10.2
	s-6.6-4.8-10.2-2.8c-34.6,19.8-89,23.7-108.7,24.5v-0.9c0-13.9,4.2-27.5,11.9-38.8c0.6,0.9,1.4,1.8,2.4,2.4c1.2,0.7,2.6,1.1,3.9,1.1
	c1.1,0,2.3-0.3,3.4-0.8l48.1-24l48.1,24c1.1,0.5,2.2,0.8,3.4,0.8c1.4,0,2.7-0.4,3.9-1.1c1-0.6,1.8-1.4,2.4-2.4
	c7.7,11.4,11.9,24.9,11.9,38.8v10.9c0,2.7,1.4,5.1,3.7,6.5c3,1.8,4.8,4.9,4.8,8.3c0,5.3-4.3,9.6-9.6,9.6h-8.6
	c-4.1,0-7.5,3.4-7.5,7.5v7.5c0,0.1,0,0.1,0,0.2v0.9C313.1,362,289.5,385.6,260.6,385.6z M380.5,359.9c-20.8,0-40-10.6-51.2-27.8
	c13.5-0.1,24.5-11.1,24.5-24.6c0-7.2-3.2-13.9-8.6-18.6v-7.1c0-3-0.2-6-0.5-9c11.1,5.2,23.3,7.9,35.8,7.9c9.1,0,18.2-1.5,26.8-4.4
	v11c0,10.1,6.1,19.1,15.5,22.9l16.2,6.5C431.2,342.2,407.5,359.9,380.5,359.9z"/>
<linearGradient id="SVGID_77_" gradientUnits="userSpaceOnUse" x1="235.932" y1="354.5203" x2="285.2073" y2="354.5203">
	<stop  offset="0" style="stop-color:#E5700F"/>
	<stop  offset="1" style="stop-color:#FEBA1C"/>
</linearGradient>
<path class="st78" d="M282.4,344.4c-3.2-2.6-7.9-2.1-10.5,1.1c-3,3.7-7,5.8-11.3,5.8s-8.3-2.1-11.3-5.8c-2.6-3.2-7.3-3.7-10.5-1.1
	c-3.2,2.6-3.7,7.3-1.1,10.5c5.8,7.2,14.2,11.3,23,11.3s17.1-4.1,23-11.3C286.1,351.7,285.6,347,282.4,344.4z"/>
<linearGradient id="SVGID_78_" gradientUnits="userSpaceOnUse" x1="227.5" y1="315.994" x2="242.5" y2="315.994">
	<stop  offset="0" style="stop-color:#E5700F"/>
	<stop  offset="1" style="stop-color:#FEBA1C"/>
</linearGradient>
<circle class="st79" cx="235" cy="316" r="7.5"/>
<linearGradient id="SVGID_79_" gradientUnits="userSpaceOnUse" x1="278.5" y1="315.994" x2="293.5" y2="315.994">
	<stop  offset="0" style="stop-color:#E5700F"/>
	<stop  offset="1" style="stop-color:#FEBA1C"/>
</linearGradient>
<circle class="st80" cx="286" cy="316" r="7.5"/>
</svg>
