<?xml version="1.0" encoding="utf-8"?>
<!-- Generator: Adobe Illustrator 19.0.1, SVG Export Plug-In . SVG Version: 6.00 Build 0)  -->
<svg version="1.1" id="Слой_1" xmlns="http://www.w3.org/2000/svg" xmlns:xlink="http://www.w3.org/1999/xlink" x="0px" y="0px"
	 viewBox="0 0 477.4 474" style="enable-background:new 0 0 477.4 474;" xml:space="preserve">
<style type="text/css">
	.st0{display:none;}
	.st1{display:inline;fill:url(#SVGID_1_);}
	.st2{display:inline;fill:url(#SVGID_2_);}
	.st3{display:inline;fill:url(#SVGID_3_);}
	.st4{display:inline;fill:url(#SVGID_4_);}
	.st5{display:inline;fill:url(#SVGID_5_);}
	.st6{display:inline;fill:url(#SVGID_6_);}
	.st7{display:inline;fill:url(#SVGID_7_);}
	.st8{display:inline;fill:url(#SVGID_8_);}
	.st9{display:inline;}
	.st10{fill:url(#SVGID_9_);}
	.st11{fill:url(#SVGID_10_);}
	.st12{fill:url(#SVGID_11_);}
	.st13{fill:url(#SVGID_12_);}
	.st14{fill:url(#SVGID_13_);}
	.st15{fill:url(#SVGID_14_);}
	.st16{fill:url(#SVGID_15_);}
	.st17{fill:url(#SVGID_16_);}
	.st18{fill:url(#SVGID_17_);}
	.st19{fill:url(#SVGID_18_);}
	.st20{fill:url(#SVGID_19_);}
	.st21{fill:url(#SVGID_20_);}
	.st22{fill:url(#SVGID_21_);}
	.st23{fill:url(#SVGID_22_);}
	.st24{fill:url(#SVGID_23_);}
	.st25{fill:url(#SVGID_24_);}
	.st26{fill:url(#SVGID_25_);}
	.st27{fill:url(#SVGID_26_);}
	.st28{fill:url(#SVGID_27_);}
	.st29{fill:url(#SVGID_28_);}
	.st30{fill:url(#SVGID_29_);}
	.st31{display:inline;fill:url(#SVGID_30_);}
	.st32{display:inline;fill:url(#SVGID_31_);}
	.st33{display:inline;fill:url(#SVGID_32_);}
	.st34{display:inline;fill:url(#SVGID_33_);}
	.st35{display:inline;fill:url(#SVGID_34_);}
	.st36{display:inline;fill:url(#SVGID_35_);}
	.st37{display:inline;fill:url(#SVGID_36_);}
	.st38{display:inline;fill:url(#SVGID_37_);}
	.st39{display:inline;fill:url(#SVGID_38_);}
	.st40{display:inline;fill:url(#SVGID_39_);}
	.st41{display:inline;fill:url(#SVGID_40_);}
	.st42{display:inline;fill:url(#SVGID_41_);}
	.st43{fill:url(#SVGID_42_);}
	.st44{fill:url(#SVGID_43_);}
	.st45{fill:url(#SVGID_44_);}
	.st46{fill:url(#SVGID_45_);}
	.st47{display:none;fill:url(#SVGID_46_);}
	.st48{display:none;fill:url(#SVGID_47_);}
	.st49{display:none;fill:url(#SVGID_48_);}
	.st50{display:none;fill:url(#SVGID_49_);}
	.st51{display:none;fill:url(#SVGID_50_);}
	.st52{display:none;fill:url(#SVGID_51_);}
	.st53{display:none;fill:url(#SVGID_52_);}
	.st54{display:none;fill:url(#SVGID_53_);}
	.st55{display:none;fill:url(#SVGID_54_);}
	.st56{display:none;fill:url(#SVGID_55_);}
	.st57{display:inline;fill:url(#SVGID_56_);}
	.st58{fill:url(#SVGID_57_);}
	.st59{display:none;fill:url(#SVGID_58_);}
	.st60{display:none;fill:url(#SVGID_59_);}
	.st61{display:none;fill:url(#SVGID_60_);}
	.st62{display:none;fill:url(#SVGID_61_);}
	.st63{display:none;fill:url(#SVGID_62_);}
	.st64{display:none;fill:url(#SVGID_63_);}
	.st65{display:none;fill:url(#SVGID_64_);}
	.st66{display:none;fill:url(#SVGID_65_);}
	.st67{display:none;fill:url(#SVGID_66_);}
	.st68{display:none;fill:url(#SVGID_67_);}
	.st69{display:inline;fill:url(#SVGID_68_);}
	.st70{fill:url(#SVGID_69_);}
	.st71{display:none;fill:url(#SVGID_70_);}
	.st72{display:none;fill:url(#SVGID_71_);}
	.st73{display:none;fill:url(#SVGID_72_);}
	.st74{display:none;fill:url(#SVGID_73_);}
	.st75{display:none;fill:url(#SVGID_74_);}
	.st76{display:none;fill:url(#SVGID_75_);}
	.st77{display:none;fill:url(#SVGID_76_);}
	.st78{display:none;fill:url(#SVGID_77_);}
	.st79{display:none;fill:url(#SVGID_78_);}
	.st80{display:none;fill:url(#SVGID_79_);}
	.st81{display:none;fill:url(#SVGID_80_);}
	.st82{display:none;fill:url(#SVGID_81_);}
	.st83{display:none;fill:url(#SVGID_82_);}
	.st84{display:none;fill:url(#SVGID_83_);}
	.st85{display:none;fill:url(#SVGID_84_);}
	.st86{display:none;fill:url(#SVGID_85_);}
	.st87{display:none;fill:url(#SVGID_86_);}
	.st88{display:none;fill:url(#SVGID_87_);}
	.st89{display:none;fill:url(#SVGID_88_);}
	.st90{display:none;fill:url(#SVGID_89_);}
	.st91{display:none;fill:url(#SVGID_90_);}
	.st92{fill:url(#SVGID_91_);}
	.st93{fill:url(#SVGID_92_);}
</style>
<g class="st0">
	<linearGradient id="SVGID_1_" gradientUnits="userSpaceOnUse" x1="192.5059" y1="198.4174" x2="192.5059" y2="178.4206">
		<stop  offset="0" style="stop-color:#E5700F"/>
		<stop  offset="1" style="stop-color:#FEBA1C"/>
	</linearGradient>
	<path class="st1" d="M185.4,181.3c-3.9,3.9-3.9,10.2,0,14.1c3.9,3.9,10.2,3.9,14.1,0c3.9-3.9,3.9-10.2,0-14.1
		C195.7,177.4,189.3,177.4,185.4,181.3z"/>
	<linearGradient id="SVGID_2_" gradientUnits="userSpaceOnUse" x1="221.7948" y1="518.983" x2="221.7948" y2="398.9874">
		<stop  offset="0" style="stop-color:#E5700F"/>
		<stop  offset="1" style="stop-color:#FEBA1C"/>
	</linearGradient>
	<path class="st2" d="M335,454.7c4.4-6,6.8-13.2,6.8-20.7c0-19.3-15.7-35-35-35h-170c-9.4,0-18.1,3.6-24.7,10.2
		c-6.6,6.6-10.2,15.4-10.2,24.8c0,7.7,2.5,14.9,6.8,20.7c-15.9,8.4-26.8,25.1-26.8,44.3v10c0,5.5,4.5,10,10,10h260
		c5.5,0,10-4.5,10-10v-10C361.8,479.8,350.9,463.1,335,454.7z M126.2,423.4c2.8-2.8,6.6-4.4,10.6-4.4h170c8.3,0,15,6.7,15,15
		c0,4-1.6,7.8-4.4,10.6c-2.8,2.8-6.6,4.4-10.6,4.4h-170c-8.3,0-15-6.7-15-15C121.8,430,123.4,426.2,126.2,423.4z M101.8,499
		c0-16.5,13.5-30,30-30h5h170h5c16.5,0,30,13.5,30,30H101.8z"/>
	<linearGradient id="SVGID_3_" gradientUnits="userSpaceOnUse" x1="337.8104" y1="518.998" x2="337.8104" y2="7.002">
		<stop  offset="0" style="stop-color:#E5700F"/>
		<stop  offset="1" style="stop-color:#FEBA1C"/>
	</linearGradient>
	<path class="st3" d="M584.5,427.1c-3.4-5.3-7.4-9.9-12-13.8l-46.7-40.8c-0.4-0.5-0.8-1.1-1.3-1.6c-0.8-0.8-1.7-1.4-2.7-1.9
		l-28.3-24.6L362.7,230.3c5.4-5.6,8.3-12.9,8.3-20.7c0-8-3.1-15.6-8.8-21.2c-2.5-2.5-5.3-4.4-8.3-5.8l12.1-12.1
		c3.4,0.9,6.9,1.4,10.3,1.4c10.2,0,20.5-3.9,28.3-11.7c7.6-7.6,11.7-17.6,11.7-28.3c0-10.7-4.2-20.7-11.7-28.3l-84.8-84.8
		C312.2,11.2,302.2,7,291.5,7c-10.7,0-20.7,4.2-28.3,11.7c-10.4,10.4-13.9,25.3-10.3,38.6L132.2,178.1c-3.3-0.9-6.8-1.4-10.4-1.4
		c-10.7,0-20.7,4.2-28.3,11.7c-15.6,15.6-15.6,41,0,56.6l84.8,84.8c7.8,7.8,18,11.7,28.3,11.7c10.2,0,20.5-3.9,28.3-11.7
		c10.4-10.4,13.9-25.3,10.3-38.6l12.1-12.1c1.5,3,3.4,5.8,5.9,8.3c5.7,5.7,13.2,8.8,21.2,8.8c7.8,0,15.1-2.9,20.7-8.3L444.4,448
		c0.4,0.6,0.8,1.2,1.4,1.7c0.2,0.2,0.4,0.3,0.6,0.5l41.5,47.7c1,1.2,2.1,2.4,3.3,3.6c11.4,11.4,26.5,17.6,42.3,17.6
		c2.8,0,5.6-0.2,8.4-0.6c18.8-2.6,35.1-13.9,44.6-30.9C596.9,468.8,596.1,445.1,584.5,427.1z M277.4,32.9c3.8-3.8,8.8-5.9,14.1-5.9
		c5.3,0,10.4,2.1,14.1,5.9l84.8,84.8c3.8,3.8,5.9,8.8,5.9,14.1c0,5.3-2.1,10.4-5.9,14.1c-7.8,7.8-20.5,7.8-28.3,0l-84.9-84.9
		c0,0,0,0,0,0C269.6,53.3,269.6,40.7,277.4,32.9z M220.8,315.7c-7.8,7.8-20.5,7.8-28.3,0l-84.8-84.8c-7.8-7.8-7.8-20.5,0-28.3
		c3.8-3.8,8.8-5.9,14.1-5.9c5.3,0,10.4,2.1,14.1,5.8l84.9,84.9C228.6,295.2,228.6,307.9,220.8,315.7z M262.9,245.3l-28,28
		l-84.9-84.9L263.2,75.3l84.9,84.9l-28,28c-0.1,0.1-0.2,0.2-0.3,0.3L263.2,245C263.1,245.1,263,245.2,262.9,245.3z M298.6,266.2
		C298.6,266.2,298.6,266.2,298.6,266.2l-7.1,7.1c-1.9,1.9-4.4,2.9-7.1,2.9c-2.7,0-5.2-1-7.1-2.9c-1.9-1.9-2.9-4.4-2.9-7.1
		c0-2.6,1-5.1,2.8-6.9l56.8-56.8c3.9-3.8,10.2-3.7,14,0.1c1.9,1.9,2.9,4.4,2.9,7.1c0,2.7-1,5.2-2.9,7.1l-7,7c0,0-0.1,0.1-0.1,0.1
		L298.6,266.2z M319.3,273.7l29.2-29.2l123.7,107.9l-45.2,45.2L319.3,273.7z M440.3,412.7l47.1-47.1l15.1,13.2l-49,49L440.3,412.7z
		 M569,477.7c-6.5,11.5-17.4,19.1-29.9,20.9c-12.5,1.7-24.9-2.4-33.8-11.3c-0.8-0.8-1.5-1.6-2.2-2.4c0,0-0.1-0.1-0.1-0.1L466.6,443
		l51-51l41.8,36.4c0,0,0.1,0.1,0.1,0.1c3.1,2.7,5.9,5.8,8.3,9.5C575.3,449.7,575.8,465.6,569,477.7z"/>
	<linearGradient id="SVGID_4_" gradientUnits="userSpaceOnUse" x1="241.9985" y1="170.1349" x2="241.9985" y2="107.7075">
		<stop  offset="0" style="stop-color:#E5700F"/>
		<stop  offset="1" style="stop-color:#FEBA1C"/>
	</linearGradient>
	<path class="st4" d="M256.1,110.6l-42.4,42.4c-3.9,3.9-3.9,10.2,0,14.1c2,2,4.5,2.9,7.1,2.9c2.6,0,5.1-1,7.1-2.9l42.4-42.4
		c3.9-3.9,3.9-10.2,0-14.1C266.4,106.7,260,106.7,256.1,110.6z"/>
</g>
<g class="st0">
	<linearGradient id="SVGID_5_" gradientUnits="userSpaceOnUse" x1="-531.4957" y1="188.419" x2="-511.4915" y2="188.419">
		<stop  offset="0" style="stop-color:#E5700F"/>
		<stop  offset="1" style="stop-color:#FEBA1C"/>
	</linearGradient>
	<path class="st5" d="M-528.6,181.3c-3.9,3.9-3.9,10.2,0,14.1c3.9,3.9,10.2,3.9,14.1,0c3.9-3.9,3.9-10.2,0-14.1
		C-518.3,177.4-524.7,177.4-528.6,181.3z"/>
	<linearGradient id="SVGID_6_" gradientUnits="userSpaceOnUse" x1="-632.1995" y1="458.9852" x2="-352.2099" y2="458.9852">
		<stop  offset="0" style="stop-color:#E5700F"/>
		<stop  offset="1" style="stop-color:#FEBA1C"/>
	</linearGradient>
	<path class="st6" d="M-379,454.7c4.4-6,6.8-13.2,6.8-20.7c0-19.3-15.7-35-35-35h-170c-9.4,0-18.1,3.6-24.7,10.2
		c-6.6,6.6-10.2,15.4-10.2,24.8c0,7.7,2.5,14.9,6.8,20.7c-15.9,8.4-26.8,25.1-26.8,44.3v10c0,5.5,4.5,10,10,10h260
		c5.5,0,10-4.5,10-10v-10C-352.2,479.8-363.1,463.1-379,454.7z M-587.8,423.4c2.8-2.8,6.6-4.4,10.6-4.4h170c8.3,0,15,6.7,15,15
		c0,4-1.6,7.8-4.4,10.6c-2.8,2.8-6.6,4.4-10.6,4.4h-170c-8.3,0-15-6.7-15-15C-592.2,430-590.6,426.2-587.8,423.4z M-612.2,499
		c0-16.5,13.5-30,30-30h5h170h5c16.5,0,30,13.5,30,30H-612.2z"/>
	<linearGradient id="SVGID_7_" gradientUnits="userSpaceOnUse" x1="-632.1782" y1="263" x2="-120.2" y2="263">
		<stop  offset="0" style="stop-color:#E5700F"/>
		<stop  offset="1" style="stop-color:#FEBA1C"/>
	</linearGradient>
	<path class="st7" d="M-129.5,427.1c-3.4-5.3-7.4-9.9-12-13.8l-46.7-40.8c-0.4-0.5-0.8-1.1-1.3-1.6c-0.8-0.8-1.7-1.4-2.7-1.9
		l-28.3-24.6l-130.8-114.1c5.4-5.6,8.3-12.9,8.3-20.7c0-8-3.1-15.6-8.8-21.2c-2.5-2.5-5.3-4.4-8.3-5.8l12.1-12.1
		c3.4,0.9,6.9,1.4,10.3,1.4c10.2,0,20.5-3.9,28.3-11.7c7.6-7.6,11.7-17.6,11.7-28.3s-4.2-20.7-11.7-28.3l-84.8-84.8
		C-401.8,11.2-411.8,7-422.5,7c-10.7,0-20.7,4.2-28.3,11.7c-10.4,10.4-13.9,25.3-10.3,38.6l-120.7,120.7c-3.3-0.9-6.8-1.4-10.4-1.4
		c-10.7,0-20.7,4.2-28.3,11.7c-15.6,15.6-15.6,41,0,56.6l84.8,84.8c7.8,7.8,18,11.7,28.3,11.7c10.2,0,20.5-3.9,28.3-11.7
		c10.4-10.4,13.9-25.3,10.3-38.6l12.1-12.1c1.5,3,3.4,5.8,5.9,8.3c5.7,5.7,13.2,8.8,21.2,8.8c7.8,0,15.1-2.9,20.7-8.3L-269.6,448
		c0.4,0.6,0.8,1.2,1.4,1.7c0.2,0.2,0.4,0.3,0.6,0.5l41.5,47.7c1,1.2,2.1,2.4,3.3,3.6c11.4,11.4,26.5,17.6,42.3,17.6
		c2.8,0,5.6-0.2,8.4-0.6c18.8-2.6,35.1-13.9,44.6-30.9C-117.1,468.8-117.9,445.1-129.5,427.1z M-273.7,412.7l47.1-47.1l15.1,13.2
		l-49,49L-273.7,412.7z M-394.7,273.7l29.2-29.2l123.7,107.9l-45.2,45.2L-394.7,273.7z M-436.6,32.9c3.8-3.8,8.8-5.9,14.1-5.9
		c5.3,0,10.4,2.1,14.1,5.9l84.8,84.8c3.8,3.8,5.9,8.8,5.9,14.1c0,5.3-2.1,10.4-5.9,14.1c-7.8,7.8-20.5,7.8-28.3,0l-84.9-84.9
		c0,0,0,0,0,0C-444.4,53.3-444.4,40.7-436.6,32.9z M-493.2,315.7c-7.8,7.8-20.5,7.8-28.3,0l-84.8-84.8c-7.8-7.8-7.8-20.5,0-28.3
		c3.8-3.8,8.8-5.9,14.1-5.9c5.3,0,10.4,2.1,14.1,5.8l84.9,84.9C-485.4,295.2-485.4,307.9-493.2,315.7z M-563.9,188.4l113.1-113.1
		l84.9,84.9l-28,28c-0.1,0.1-0.2,0.2-0.3,0.3l-56.5,56.5c-0.1,0.1-0.2,0.2-0.3,0.4l-28,28L-563.9,188.4z M-429.6,276.2
		c-2.7,0-5.2-1-7.1-2.9c-1.9-1.9-2.9-4.4-2.9-7.1c0-2.6,1-5.1,2.8-6.9l56.8-56.8c3.9-3.8,10.2-3.7,14,0.1c1.9,1.9,2.9,4.4,2.9,7.1
		c0,2.7-1,5.2-2.9,7.1l-7,7c0,0-0.1,0.1-0.1,0.1l-42.3,42.3c0,0,0,0-0.1,0.1l-7,7C-424.4,275.2-426.9,276.2-429.6,276.2z
		 M-145,477.7c-6.5,11.5-17.4,19.1-29.9,20.9c-12.5,1.7-24.9-2.4-33.8-11.3c-0.8-0.8-1.5-1.6-2.2-2.4c0,0-0.1-0.1-0.1-0.1
		l-36.4-41.8l51-51l41.8,36.4c0,0,0.1,0.1,0.1,0.1c3.1,2.7,5.9,5.8,8.3,9.5C-138.7,449.7-138.2,465.6-145,477.7z"/>
	<linearGradient id="SVGID_8_" gradientUnits="userSpaceOnUse" x1="-503.215" y1="138.9212" x2="-440.787" y2="138.9212">
		<stop  offset="0" style="stop-color:#E5700F"/>
		<stop  offset="1" style="stop-color:#FEBA1C"/>
	</linearGradient>
	<path class="st8" d="M-443.7,110.6c-3.9-3.9-10.2-3.9-14.1,0l-42.4,42.4c-3.9,3.9-3.9,10.2,0,14.1c2,2,4.5,2.9,7.1,2.9
		c2.6,0,5.1-1,7.1-2.9l42.4-42.4C-439.8,120.9-439.8,114.5-443.7,110.6z"/>
</g>
<g class="st0">
	<g class="st9">
		<linearGradient id="SVGID_9_" gradientUnits="userSpaceOnUse" x1="149.3731" y1="263" x2="518.4824" y2="263">
			<stop  offset="0" style="stop-color:#E5700F"/>
			<stop  offset="1" style="stop-color:#FEBA1C"/>
		</linearGradient>
		<path class="st10" d="M496.1,373.8c-6.7-33.8-38.5-39.6-38.6-39.6v0c-0.3-0.1,2.9,0.7-77.3-19.2v-2.7h59.1
			c12.2,0,22.1-9.9,22.1-22.1V177.6c1-4.2,1-8.5,0-12.7v-41.1c0-4.1-3.4-7.5-7.5-7.5c-4.1,0-7.5,3.4-7.5,7.5v21.5
			c-4-2.4-8.5-4.1-13.4-4.9c-1.8-7.8-8.3-14-16.5-15.1c-8.6-1.1-15.1-6.1-19.3-14.9c-2-4.1-5.9-6.8-10.4-7.2
			c-4.5-0.4-8.8,1.5-11.5,5.2c-12.9,17.5-48.7,56.9-110.6,56.9c-4.7,0-7.9-0.2-9-0.3c-11.4-0.7-21,8.4-21,19.8V202
			c0,27.5,11.4,54.3,31.4,73.3c6.6,6.3,13.9,11.6,21.7,15.8v6.2h-58.8c-3.9,0-7.1-3.2-7.1-7.1V121.7c0-54.6,44.6-99.7,98.4-99.7
			c0.2,0,0.3,0,0.5,0c19.3,0.1,41.5,5.6,56.7,13.9c9.6,5.3,15.6,1.1,25,1.1c23.2,0,41.7,23.8,44,45.3c0,0.3,0,1.6,0.1,6.4
			c0,7.2,8.2,7.8,7.5,7.5c4.1,0,7.5-3.4,7.5-7.5c0-1.3,0-6.6-0.1-7.8c-3-29.8-28.5-58.9-58.9-58.9c-11.9,0-13.7,3-17.8,0.8
			C367.4,13.3,342.3,7.1,320.7,7c-62.3-0.4-114,51.5-114,114.7v168.6c0,12.2,9.9,22.1,22.1,22.1h58.8v2.7l-77,19.1
			c-0.1,0-0.2,0.1-0.3,0.1l-5.6,1.7c-0.2,0-0.3,0.1-0.5,0.2c-10,3.7-27.6,13.6-32.4,37.8c-22.8,114.7-21.9,109.8-21.9,110.2
			c-2.8,19.5,7,35,30.4,35h81.1c4.1,0,7.5-3.4,7.5-7.5c0-4.1-3.4-7.5-7.5-7.5h-28.2v-70.8c0-4.1-3.4-7.5-7.5-7.5s-7.5,3.4-7.5,7.5
			V504h-37.9c-10,0-15.8-3.2-15.8-13.7c0-5.1-0.2-0.1,22.1-113.6c3.4-16.8,15.6-23.9,22.7-26.6l5.2-1.5l44.2-11
			c49.2,58,46.3,54.9,49.1,57.7c16.4,16,39.9,14.9,55.3-3.2l46.3-54.4l44.1,10.9c1.3,0.6,23.2,4.4,27.9,28.1
			c22.1,112.5,22.1,108.5,22.1,113.6c-0.1,10.3-5.6,13.7-15.8,13.7H450v-70.8c0-4.1-3.4-7.5-7.5-7.5c-4.1,0-7.5,3.4-7.5,7.5V504
			H296.4c-4.1,0-7.5,3.4-7.5,7.5c0,4.1,3.4,7.5,7.5,7.5h191.3c18.5,0,30.7-10.2,30.8-28.6C518.5,481.9,518,486,496.1,373.8z
			 M433.5,155.8c6.3,1.9,11.1,6,12.9,11.1v8.6c-1.8,5.1-6.6,9.2-12.9,11.1V155.8z M433.5,203.3V202c4.7-0.9,9-2.5,12.9-4.8v93.1
			c0,3.9-3.2,7.1-7.1,7.1h-59.1v-5.8C412,274.9,433.5,241.6,433.5,203.3z M276.3,264.5c-17-16.2-26.7-38.9-26.7-62.4
			c0.4-16.3-1.1-18.3,1.5-20.8c0.9-0.9,2.2-1.4,3.6-1.3c53.8,3.2,100-20.4,130.6-60c8.2,14.5,20.3,19,29.3,20.1
			c2.2,0.3,3.9,2.2,3.9,4.4c0,20.8,0,38.2,0,58.8C418.5,278,329.1,314.9,276.3,264.5z M351.6,382.4c-10.5,12.3-25.1,12.2-35.5-0.1
			l-15.7-18.5h66.9L351.6,382.4z M380.2,348.9h-92.4l-12.9-15.2l22.1-5.5c3.3-0.8,5.7-3.9,5.7-7.4l0-23.2
			c20.6,6.9,42.4,6.8,62.6,0.2c0.1,24-0.3,23.4,0.4,25.5c0.8,2.3,2.8,4.2,5.3,4.8l22.2,5.5L380.2,348.9z"/>
	</g>
</g>
<g class="st0">
	<g class="st9">
		<g>
			<linearGradient id="SVGID_10_" gradientUnits="userSpaceOnUse" x1="151.8" y1="263" x2="517.8" y2="263">
				<stop  offset="0" style="stop-color:#E5700F"/>
				<stop  offset="1" style="stop-color:#FEBA1C"/>
			</linearGradient>
			<path class="st11" d="M510.1,9.5H159.5c-4.2,0-7.7,3.5-7.7,7.7v491.6c0,4.3,3.5,7.7,7.7,7.7h266.6c2.1,0,4-0.8,5.4-2.3l84-84
				c1.4-1.4,2.3-3.4,2.3-5.5V17.2C517.8,13,514.3,9.5,510.1,9.5z M433.8,490.2v-57.8h57.8L433.8,490.2z M502.4,417.1L426,417
				c-2.1,0-4,0.8-5.5,2.3c-1.4,1.4-2.3,3.4-2.3,5.5l0.1,76.4H167.2V24.9h335.2V417.1z"/>
		</g>
	</g>
</g>
<g class="st0">
	<g class="st9">
		<g>
			<linearGradient id="SVGID_11_" gradientUnits="userSpaceOnUse" x1="209.8" y1="421.5001" x2="297.8" y2="421.5001">
				<stop  offset="0" style="stop-color:#E5700F"/>
				<stop  offset="1" style="stop-color:#FEBA1C"/>
			</linearGradient>
			<path class="st12" d="M284.9,390.4c-8.3-8.3-19.4-12.9-31.1-12.9c-24.3,0-44,19.7-44,44s19.7,44,44,44s44-19.7,44-44
				C297.8,409.8,293.3,398.7,284.9,390.4z M253.8,450.1c-15.8,0-28.6-12.8-28.6-28.6s12.8-28.6,28.6-28.6s28.6,12.8,28.6,28.6
				S269.6,450.1,253.8,450.1z"/>
		</g>
	</g>
</g>
<g class="st0">
	<g class="st9">
		<g>
			<linearGradient id="SVGID_12_" gradientUnits="userSpaceOnUse" x1="323" y1="423.1" x2="394.5" y2="423.1">
				<stop  offset="0" style="stop-color:#E5700F"/>
				<stop  offset="1" style="stop-color:#FEBA1C"/>
			</linearGradient>
			<path class="st13" d="M394.5,423.1c0,4.2-3.5,7.7-7.7,7.7h-56.1c-4.3,0-7.7-3.5-7.7-7.7c0-4.3,3.5-7.7,7.7-7.7h56.1
				C391.1,415.4,394.5,418.9,394.5,423.1z"/>
		</g>
	</g>
</g>
<g class="st0">
	<g class="st9">
		<g>
			<linearGradient id="SVGID_13_" gradientUnits="userSpaceOnUse" x1="212.9" y1="78.4" x2="257.8" y2="78.4">
				<stop  offset="0" style="stop-color:#E5700F"/>
				<stop  offset="1" style="stop-color:#FEBA1C"/>
			</linearGradient>
			<path class="st14" d="M257.8,78.4c0,4.3-3.5,7.7-7.7,7.7h-29.5c-4.3,0-7.7-3.5-7.7-7.7s3.5-7.7,7.7-7.7h29.6
				C254.4,70.7,257.8,74.2,257.8,78.4z"/>
		</g>
	</g>
</g>
<g class="st0">
	<g class="st9">
		<g>
			<linearGradient id="SVGID_14_" gradientUnits="userSpaceOnUse" x1="356.7" y1="78.4" x2="460.8" y2="78.4">
				<stop  offset="0" style="stop-color:#E5700F"/>
				<stop  offset="1" style="stop-color:#FEBA1C"/>
			</linearGradient>
			<path class="st15" d="M460.8,78.4c0,4.3-3.5,7.7-7.7,7.7h-88.7c-4.3,0-7.7-3.5-7.7-7.7s3.5-7.7,7.7-7.7h88.7
				C457.4,70.7,460.8,74.2,460.8,78.4z"/>
		</g>
	</g>
</g>
<g class="st0">
	<g class="st9">
		<g>
			<linearGradient id="SVGID_15_" gradientUnits="userSpaceOnUse" x1="294.4" y1="122.299" x2="460.8" y2="122.299">
				<stop  offset="0" style="stop-color:#E5700F"/>
				<stop  offset="1" style="stop-color:#FEBA1C"/>
			</linearGradient>
			<path class="st16" d="M460.8,122.3c0,4.3-3.5,7.7-7.7,7.7h-151c-4.2,0-7.7-3.5-7.7-7.7c0-4.2,3.5-7.7,7.7-7.7h151
				C457.4,114.5,460.8,118,460.8,122.3z"/>
		</g>
	</g>
</g>
<g class="st0">
	<g class="st9">
		<g>
			<linearGradient id="SVGID_16_" gradientUnits="userSpaceOnUse" x1="208.3" y1="202.8" x2="461.3" y2="202.8">
				<stop  offset="0" style="stop-color:#E5700F"/>
				<stop  offset="1" style="stop-color:#FEBA1C"/>
			</linearGradient>
			<path class="st17" d="M461.3,202.8c0,4.3-3.5,7.7-7.7,7.7H216c-4.3,0-7.7-3.5-7.7-7.7s3.5-7.7,7.7-7.7h237.6
				C457.9,195.1,461.3,198.6,461.3,202.8z"/>
		</g>
	</g>
</g>
<g class="st0">
	<g class="st9">
		<g>
			<linearGradient id="SVGID_17_" gradientUnits="userSpaceOnUse" x1="208.3" y1="237.5" x2="461.3" y2="237.5">
				<stop  offset="0" style="stop-color:#E5700F"/>
				<stop  offset="1" style="stop-color:#FEBA1C"/>
			</linearGradient>
			<path class="st18" d="M461.3,237.5c0,4.3-3.5,7.7-7.7,7.7H216c-4.3,0-7.7-3.5-7.7-7.7s3.5-7.7,7.7-7.7h237.6c2.1,0,4,0.8,5.4,2.3
				C460.5,233.5,461.3,235.5,461.3,237.5z"/>
		</g>
	</g>
</g>
<g class="st0">
	<g class="st9">
		<g>
			<linearGradient id="SVGID_18_" gradientUnits="userSpaceOnUse" x1="208.3" y1="275.2" x2="461.3" y2="275.2">
				<stop  offset="0" style="stop-color:#E5700F"/>
				<stop  offset="1" style="stop-color:#FEBA1C"/>
			</linearGradient>
			<path class="st19" d="M461.3,275.2c0,4.2-3.5,7.7-7.7,7.7H216c-4.3,0-7.7-3.5-7.7-7.7c0-4.3,3.5-7.7,7.7-7.7h237.6
				c2.1,0,4,0.8,5.4,2.3C460.5,271.3,461.3,273.2,461.3,275.2z"/>
		</g>
	</g>
</g>
<g class="st0">
	<g class="st9">
		<g>
			<linearGradient id="SVGID_19_" gradientUnits="userSpaceOnUse" x1="440.3" y1="309.9" x2="461.3" y2="309.9">
				<stop  offset="0" style="stop-color:#E5700F"/>
				<stop  offset="1" style="stop-color:#FEBA1C"/>
			</linearGradient>
			<path class="st20" d="M461.3,309.9c0,4.2-3.5,7.7-7.7,7.7H448c-4.2,0-7.7-3.5-7.7-7.7c0-4.3,3.5-7.7,7.7-7.7h5.6
				C457.9,302.2,461.3,305.7,461.3,309.9z"/>
		</g>
	</g>
</g>
<g class="st0">
	<g class="st9">
		<g>
			<linearGradient id="SVGID_20_" gradientUnits="userSpaceOnUse" x1="208.3" y1="309.9" x2="420" y2="309.9">
				<stop  offset="0" style="stop-color:#E5700F"/>
				<stop  offset="1" style="stop-color:#FEBA1C"/>
			</linearGradient>
			<path class="st21" d="M420,309.9c0,4.2-3.5,7.7-7.7,7.7H216c-4.3,0-7.7-3.5-7.7-7.7c0-4.3,3.5-7.7,7.7-7.7h196.3
				C416.6,302.2,420,305.7,420,309.9z"/>
		</g>
	</g>
</g>
<g class="st0">
	<g class="st9">
		<linearGradient id="SVGID_21_" gradientUnits="userSpaceOnUse" x1="167.2" y1="256.002" x2="519.2" y2="256.002">
			<stop  offset="0" style="stop-color:#E5700F"/>
			<stop  offset="1" style="stop-color:#FEBA1C"/>
		</linearGradient>
		<path class="st22" d="M519.1,127.5c0-0.6-0.2-1.3-0.4-1.9c-0.1-0.3-0.1-0.5-0.2-0.8c-0.3-0.8-0.8-1.6-1.4-2.3l-96-104
			c-0.7-0.7-1.5-1.3-2.4-1.7c-0.2-0.1-0.5-0.2-0.7-0.3c-0.7-0.3-1.5-0.4-2.3-0.5c-0.2,0-0.3-0.1-0.5-0.1h-240c-4.4,0-8,3.6-8,8v464
			c0,4.4,3.6,8,8,8h336c4.4,0,8-3.6,8-8V128C519.2,127.8,519.1,127.7,519.1,127.5z M423.2,44.5l69.7,75.5h-69.7V44.5z M503.2,480
			h-320V32h224v96c0,4.4,3.6,8,8,8h88V480z"/>
	</g>
</g>
<g class="st0">
	<g class="st9">
		<linearGradient id="SVGID_22_" gradientUnits="userSpaceOnUse" x1="279.2" y1="184.002" x2="471.2" y2="184.002">
			<stop  offset="0" style="stop-color:#E5700F"/>
			<stop  offset="1" style="stop-color:#FEBA1C"/>
		</linearGradient>
		<path class="st23" d="M463.2,176h-176c-4.4,0-8,3.6-8,8s3.6,8,8,8h176c4.4,0,8-3.6,8-8S467.6,176,463.2,176z"/>
	</g>
</g>
<g class="st0">
	<g class="st9">
		<linearGradient id="SVGID_23_" gradientUnits="userSpaceOnUse" x1="279.2" y1="328.002" x2="471.2" y2="328.002">
			<stop  offset="0" style="stop-color:#E5700F"/>
			<stop  offset="1" style="stop-color:#FEBA1C"/>
		</linearGradient>
		<path class="st24" d="M463.2,320h-176c-4.4,0-8,3.6-8,8s3.6,8,8,8h176c4.4,0,8-3.6,8-8S467.6,320,463.2,320z"/>
	</g>
</g>
<g class="st0">
	<g class="st9">
		<linearGradient id="SVGID_24_" gradientUnits="userSpaceOnUse" x1="279.2" y1="400.002" x2="471.2" y2="400.002">
			<stop  offset="0" style="stop-color:#E5700F"/>
			<stop  offset="1" style="stop-color:#FEBA1C"/>
		</linearGradient>
		<path class="st25" d="M463.2,392h-176c-4.4,0-8,3.6-8,8s3.6,8,8,8h176c4.4,0,8-3.6,8-8S467.6,392,463.2,392z"/>
	</g>
</g>
<g class="st0">
	<g class="st9">
		<linearGradient id="SVGID_25_" gradientUnits="userSpaceOnUse" x1="213.3625" y1="171.268" x2="297.2343" y2="171.268">
			<stop  offset="0" style="stop-color:#E5700F"/>
			<stop  offset="1" style="stop-color:#FEBA1C"/>
		</linearGradient>
		<path class="st26" d="M295,143c-3.1-3.2-8.1-3.3-11.3-0.2c-0.1,0.1-0.1,0.1-0.2,0.2l-39.6,39.6l-17-17c-3.2-3.1-8.2-3-11.3,0.2
			c-3,3.1-3,8,0,11.1l22.6,22.6c3.1,3.1,8.2,3.1,11.3,0l45.2-45.3C298,151.3,298.1,146.2,295,143z"/>
	</g>
</g>
<g class="st0">
	<g class="st9">
		<linearGradient id="SVGID_26_" gradientUnits="userSpaceOnUse" x1="279.2" y1="256.002" x2="471.2" y2="256.002">
			<stop  offset="0" style="stop-color:#E5700F"/>
			<stop  offset="1" style="stop-color:#FEBA1C"/>
		</linearGradient>
		<path class="st27" d="M463.2,248h-176c-4.4,0-8,3.6-8,8c0,4.4,3.6,8,8,8h176c4.4,0,8-3.6,8-8C471.2,251.6,467.6,248,463.2,248z"/>
	</g>
</g>
<g class="st0">
	<g class="st9">
		<linearGradient id="SVGID_27_" gradientUnits="userSpaceOnUse" x1="213.3625" y1="243.2679" x2="297.2343" y2="243.2679">
			<stop  offset="0" style="stop-color:#E5700F"/>
			<stop  offset="1" style="stop-color:#FEBA1C"/>
		</linearGradient>
		<path class="st28" d="M295,215c-3.1-3.2-8.1-3.3-11.3-0.2c-0.1,0.1-0.1,0.1-0.2,0.2l-39.6,39.6l-17-17c-3.2-3.1-8.2-3-11.3,0.2
			c-3,3.1-3,8,0,11.1l22.6,22.6c3.1,3.1,8.2,3.1,11.3,0l45.2-45.3C298,223.3,298.1,218.2,295,215z"/>
	</g>
</g>
<g class="st0">
	<g class="st9">
		<linearGradient id="SVGID_28_" gradientUnits="userSpaceOnUse" x1="213.3625" y1="315.3664" x2="297.0378" y2="315.3664">
			<stop  offset="0" style="stop-color:#E5700F"/>
			<stop  offset="1" style="stop-color:#FEBA1C"/>
		</linearGradient>
		<path class="st29" d="M294.6,287c-3.1-3-8-3-11.1,0l-39.6,39.6l-17-17c-3.2-3.1-8.2-3-11.3,0.2c-3,3.1-3,8,0,11.1l22.6,22.6
			c3.1,3.1,8.2,3.1,11.3,0l45.2-45.3C297.9,295.2,297.8,290.1,294.6,287z"/>
	</g>
</g>
<g class="st0">
	<g class="st9">
		<linearGradient id="SVGID_29_" gradientUnits="userSpaceOnUse" x1="213.3625" y1="387.318" x2="296.3322" y2="387.318">
			<stop  offset="0" style="stop-color:#E5700F"/>
			<stop  offset="1" style="stop-color:#FEBA1C"/>
		</linearGradient>
		<path class="st30" d="M294.8,359c-3.1-3.1-8.2-3.1-11.3,0l-39.6,39.6l-17-17c-3.2-3.1-8.2-3-11.3,0.2c-3,3.1-3,8,0,11.1l22.6,22.6
			c3.1,3.1,8.2,3.1,11.3,0l45.2-45.3C297.2,367.4,296.5,362.6,294.8,359z"/>
	</g>
</g>
<g class="st0">
	<linearGradient id="SVGID_30_" gradientUnits="userSpaceOnUse" x1="149.8" y1="263" x2="522.8" y2="263">
		<stop  offset="0" style="stop-color:#E5700F"/>
		<stop  offset="1" style="stop-color:#FEBA1C"/>
	</linearGradient>
	<path class="st31" d="M517.2,9c4.7,2.3,5.6,6.9,5.6,12.5c0,65.8,0,131.6,0,197.4c0,94.7,0,189.5,0,284.2c0,2.3-0.1,4.6-0.4,6.9
		c-0.5,4.2-2.8,6.3-6.1,6.9c-1.5,0.3-3,0.2-4.5,0.2c-105,0-210,0-315.1,0c-9.1,0-10.9-2.3-11-13.4c0-33.6,0-67.1,0-100.7
		c0-3.4-0.8-5.8-2.8-8.2c-8.5-10-16.8-20.3-25.1-30.5c-4.9-6-4.9-10,0-16c1.7-2.1,3.6-3.9,6.3-6.7c-3.8-4.2-7.1-7.6-10.2-11.3
		c-5.7-6.7-5.6-10.8-0.1-17.5c7-8.5,14-17.1,21-25.6c4.3-5.2,4.6-5.4,10.6-5.3c0.1-1.4,0.2-2.8,0.2-4.3c0-85.2,0-170.3,0-255.5
		c0-5.6,0.4-10.7,5.3-13.1C299.8,9,408.5,9,517.2,9z M508.2,26.5c-102.9,0-205.4,0-308,0c-0.1,1.5-0.2,2.7-0.2,3.8
		c0,88.5,0,176.9,0.1,265.4c0,2.3,1.1,5.1,2.4,6.7c15.7,19.3,31.5,38.4,47.2,57.6c15.2,18.5,30.4,36.9,45.5,55.4
		c5,6.2,5,10.3-0.1,16.4c-1.9,2.3-4.1,4.3-7,7.3c3.7,4,6.7,7,9.5,10.4c3.6,4.3,3.8,9.6,0.8,13.2c-3.1,3.7-7,3.4-10.8-1.1
		c-2.8-3.3-5.5-6.8-8.9-11.1c-1.9,2.8-3.3,5.2-5,7.3c-5.8,7.2-8.8,7.2-14.6,0.2c-18.5-22.4-36.9-44.9-55.3-67.3
		c-1-1.2-2.1-2.4-3.6-4c0,38,0,75.2,0,112.8c102.7,0,205.2,0,308,0C508.2,341.8,508.2,184.3,508.2,26.5z M216.1,380.4
		c4.9-6,9.9-12.2,14.4-17.8c-10.5-12.8-21.2-26-31.3-38.4c-4.9,5.9-10,12-14.6,17.6C195,354.6,205.7,367.7,216.1,380.4z
		 M245.1,415.6c7.2,8.9,14.3,17.7,20.9,25.9c5-6.1,10.1-12.3,15-18.3c-6.9-8.3-14.2-17-21.3-25.5C255,403.5,250,409.6,245.1,415.6z
		 M242.1,375.3c-5.3,6.5-10.2,12.6-15.3,18.8c2.4,2.8,5,5.8,7.3,8.4c5-6.1,10-12.2,15.1-18.4C247,381.3,244.6,378.3,242.1,375.3z
		 M168,320.8c1.8,2.8,3.6,5.5,4.7,7.3c5.2-6.3,10.3-12.4,15-18.1c-1.6-2.1-3.5-4.5-5.4-6.9C177.5,309.2,172.6,315.2,168,320.8z
		 M185.2,372.2c0.3-0.1,0.5-0.2,0.8-0.3c-0.4-1.4-0.5-3.2-1.3-4.2c-3.2-4.2-6.6-8.3-10.1-12.3c-0.5-0.6-1.9-0.1-2.9-0.1
		C176.5,361.4,180.9,366.8,185.2,372.2z"/>
	<linearGradient id="SVGID_31_" gradientUnits="userSpaceOnUse" x1="377.6634" y1="398.1973" x2="495.4504" y2="398.1973">
		<stop  offset="0" style="stop-color:#E5700F"/>
		<stop  offset="1" style="stop-color:#FEBA1C"/>
	</linearGradient>
	<path class="st32" d="M461.7,430.9c-3,3.9-5.7,8.9-9.1,11.8c-8.7,7.4-19.9-3.3-21.6-19.9c-0.9-8.8,0.7-16.6,3.1-24.3
		c2.1-7,4.4-13.8,6.2-21c1.3-5-0.3-9-3.7-9c-2.2,0-4.7,0.5-6.5,2.1c-5.5,5-11.1,10-16.1,16.1c-8.8,10.7-16.4,23.4-22.8,37.9
		c-1.3,2.9-2.3,6.3-3.4,9.4c-1.6,4.4-4.1,6-6.7,4.2c-2.7-1.8-4.2-6.4-2.9-11c1.8-6.1,3.9-12.1,6.4-17.4c9.4-19.4,20.5-36,33.5-49
		c5.1-5.1,10.5-8.9,16.6-9.8c9.5-1.4,20.6,11.6,15.7,32.7c-1.8,7.7-4.4,14.9-6.6,22.3c-0.8,2.8-1.5,5.8-2,8.8
		c-0.8,4.7,0.7,10,3.3,12.2c2.2,1.9,4,0.2,5.1-2.5c2.6-6.4,5.1-13,7.3-19.9c1.5-4.6,2.1-10.1,6.2-10.1c4-0.1,5.1,5.3,6.4,9.9
		c0.8,2.9,1.4,5.9,2.3,9.9c1.2-4.8,2.3-8.8,3.3-12.8c2.3-9.2,6-10.8,10.6-4.2c4.4,6.3,8.1,13.5,9.1,23.4c0.9,9-1.2,16.2-5,22.3
		c-2,3.1-5,2.9-7,0.1c-2.1-3-2.5-7.7-0.6-11.6c2.1-4.4,3-8.6,0.8-12.9c-3,6.5-5.9,13.2-9.1,19.5c-1.3,2.5-3.1,4.8-4.9,5.6
		c-1.8,0.9-4.2,0.7-6-0.6c-2.1-1.5-2.5-5.3-1.9-9.1C461.6,433,461.7,431.7,461.7,430.9z"/>
	<linearGradient id="SVGID_32_" gradientUnits="userSpaceOnUse" x1="301.9003" y1="168.892" x2="482.8541" y2="168.892">
		<stop  offset="0" style="stop-color:#E5700F"/>
		<stop  offset="1" style="stop-color:#FEBA1C"/>
	</linearGradient>
	<path class="st33" d="M392.5,177.4c-27.5,0-54.9,0-82.4,0c-1.1,0-2.3,0.1-3.4-0.1c-3-0.5-4.9-4-4.9-8.6c0-4.3,1.9-7.7,4.8-8.3
		c1-0.2,2-0.1,3.1-0.1c55.1,0,110.2,0,165.3,0c5.3,0,7.7,2.6,7.8,8.5c0,5.9-2.4,8.6-7.7,8.6C447.6,177.4,420.1,177.4,392.5,177.4z"
		/>
	<linearGradient id="SVGID_33_" gradientUnits="userSpaceOnUse" x1="301.9152" y1="88.2697" x2="482.8343" y2="88.2697">
		<stop  offset="0" style="stop-color:#E5700F"/>
		<stop  offset="1" style="stop-color:#FEBA1C"/>
	</linearGradient>
	<path class="st34" d="M392.3,79.6c27.4,0,54.7,0,82.1,0c1.3,0,2.7,0,4,0.3c2.7,0.6,4.2,3.3,4.4,7.6c0.2,4.6-1.2,7.6-3.9,8.9
		c-1,0.4-2,0.5-3,0.5c-54.9,0-109.8,0-164.7,0c-1.6,0-3.3,0.1-4.9-0.4c-2.8-0.8-4.6-4.4-4.3-8.8c0.2-4.5,1.8-7.3,4.6-7.8
		c1.2-0.2,2.5-0.2,3.7-0.2C337.6,79.6,365,79.6,392.3,79.6z"/>
	<linearGradient id="SVGID_34_" gradientUnits="userSpaceOnUse" x1="301.892" y1="289.9211" x2="439.6874" y2="289.9211">
		<stop  offset="0" style="stop-color:#E5700F"/>
		<stop  offset="1" style="stop-color:#FEBA1C"/>
	</linearGradient>
	<path class="st35" d="M370.6,298.5c-20.3,0-40.6,0-60.9,0c-1,0-2.1,0.1-3.1-0.1c-2.8-0.5-4.7-3.8-4.8-8.1c-0.1-4.4,1.7-8,4.5-8.7
		c1.1-0.3,2.2-0.2,3.4-0.2c40.7,0,81.3,0,122,0c1.2,0,2.5-0.1,3.7,0.3c2.5,0.7,4.3,4.4,4.2,8.5c-0.1,4.1-1.9,7.5-4.5,8.1
		c-1.1,0.2-2.2,0.2-3.4,0.2C411.4,298.5,391,298.5,370.6,298.5z"/>
	<linearGradient id="SVGID_35_" gradientUnits="userSpaceOnUse" x1="301.8982" y1="209.2603" x2="427.5077" y2="209.2603">
		<stop  offset="0" style="stop-color:#E5700F"/>
		<stop  offset="1" style="stop-color:#FEBA1C"/>
	</linearGradient>
	<path class="st36" d="M364.6,217.9c-18.4,0-36.8,0-55.3,0c-1.4,0-2.9-0.1-4.2-0.9c-2.4-1.4-3.5-4.5-3.2-8.6c0.3-3.9,1.6-6.4,4-7.2
		c1.3-0.4,2.6-0.5,4-0.5c36.4,0,72.9,0,109.3,0c1.4,0,2.9,0,4.3,0.5c2.5,0.8,3.9,3.5,4.1,7.6c0.2,4.1-1,7.1-3.4,8.4
		c-1.3,0.7-2.8,0.8-4.2,0.8C401.5,217.9,383,217.9,364.6,217.9z"/>
	<linearGradient id="SVGID_36_" gradientUnits="userSpaceOnUse" x1="377.0901" y1="249.6085" x2="482.82" y2="249.6085">
		<stop  offset="0" style="stop-color:#E5700F"/>
		<stop  offset="1" style="stop-color:#FEBA1C"/>
	</linearGradient>
	<path class="st37" d="M429.8,258.3c-14.9,0-29.9,0-44.8,0c-5.2,0-7.8-2.8-7.9-8.5c-0.1-5.8,2.6-8.9,8-8.9c30.1,0,60.2,0,90.3,0
		c1.3,0,2.7,0.1,3.9,0.8c2.5,1.2,3.6,4.1,3.5,8.2c-0.1,4.1-1.4,6.9-3.9,7.8c-1.2,0.4-2.4,0.5-3.7,0.5
		C460.1,258.3,445,258.3,429.8,258.3C429.8,258.3,429.8,258.3,429.8,258.3z"/>
	<linearGradient id="SVGID_37_" gradientUnits="userSpaceOnUse" x1="301.9463" y1="128.5616" x2="402.7038" y2="128.5616">
		<stop  offset="0" style="stop-color:#E5700F"/>
		<stop  offset="1" style="stop-color:#FEBA1C"/>
	</linearGradient>
	<path class="st38" d="M352.1,137.3c-14.2,0-28.5,0-42.7,0c-1.3,0-2.7-0.1-3.9-0.8c-2.3-1.2-3.8-4.1-3.4-7.8
		c0.4-2.8,1.7-5.8,3.1-7.7c0.9-1.2,2.7-1,4.1-1c28.5,0,57,0,85.4,0c5.3,0,8.1,3.1,8,8.9c-0.1,5.7-2.7,8.5-7.9,8.5
		C380.5,137.3,366.3,137.3,352.1,137.3z"/>
	<linearGradient id="SVGID_38_" gradientUnits="userSpaceOnUse" x1="408.4424" y1="128.5413" x2="482.8279" y2="128.5413">
		<stop  offset="0" style="stop-color:#E5700F"/>
		<stop  offset="1" style="stop-color:#FEBA1C"/>
	</linearGradient>
	<path class="st39" d="M445.8,119.9c10.1,0,20.3,0,30.4,0c4.2,0,6.6,3.1,6.6,8.4c0,4.3-1.2,7.3-3.9,8.3c-1.3,0.5-2.6,0.6-4,0.6
		c-19.5,0-39.1,0-58.6,0c-5.2,0-7.8-2.8-7.9-8.5c-0.1-5.9,2.6-9,7.9-9C426.2,119.8,436,119.8,445.8,119.9
		C445.8,119.8,445.8,119.9,445.8,119.9z"/>
	<linearGradient id="SVGID_39_" gradientUnits="userSpaceOnUse" x1="301.9307" y1="249.5886" x2="372.0053" y2="249.5886">
		<stop  offset="0" style="stop-color:#E5700F"/>
		<stop  offset="1" style="stop-color:#FEBA1C"/>
	</linearGradient>
	<path class="st40" d="M336.7,258.3c-9,0-18,0-27,0c-1.2,0-2.5-0.1-3.7-0.5c-2.5-0.8-3.9-3.5-4.1-7.6c-0.2-4.3,1.1-7.3,3.7-8.5
		c1.2-0.5,2.4-0.7,3.6-0.7c18.4,0,36.8,0,55.3,0c1,0,2.1,0,3,0.4c2.8,1,4.7,4.6,4.4,8.7c-0.3,4.4-1.8,7.5-4.6,7.9
		c-2.7,0.4-5.5,0.3-8.3,0.4C351.6,258.3,344.1,258.3,336.7,258.3z"/>
	<linearGradient id="SVGID_40_" gradientUnits="userSpaceOnUse" x1="391.2131" y1="426.9075" x2="428.0895" y2="426.9075">
		<stop  offset="0" style="stop-color:#E5700F"/>
		<stop  offset="1" style="stop-color:#FEBA1C"/>
	</linearGradient>
	<path class="st41" d="M428.1,405c-0.5,1.1-1.3,4.6-2.6,5.4c-8.7,5.2-13.8,16.7-18.9,28.1c-2.1,4.6-3.5,10-5.1,15.1
		c-1.3,4.3-3.7,6.6-6.5,5.3c-2.6-1.2-4.6-5.6-3.6-10c1.2-5.7,2.6-11.7,4.8-16.4c4.5-9.7,9.3-19.2,14.7-27.8
		c2.8-4.4,6.8-7.3,10.5-9.6C424.9,393,428.1,397.5,428.1,405z"/>
	<linearGradient id="SVGID_41_" gradientUnits="userSpaceOnUse" x1="433.4872" y1="209.2753" x2="482.862" y2="209.2753">
		<stop  offset="0" style="stop-color:#E5700F"/>
		<stop  offset="1" style="stop-color:#FEBA1C"/>
	</linearGradient>
	<path class="st42" d="M458.1,217.9c-5.8,0-11.7,0.1-17.5,0c-1.3,0-2.7-0.2-3.9-0.9c-2.3-1.5-3.5-4.6-3.2-8.7c0.3-3.8,1.6-6.4,4-7.2
		c1-0.4,2-0.4,3-0.4c11.7,0,23.3-0.1,35,0c1.5,0,3.1,0.2,4.5,1.2c2.5,1.8,3.2,5.5,2.6,9.6c-0.7,4.5-2.8,6.4-5.5,6.4
		C470.8,218,464.5,217.9,458.1,217.9z"/>
</g>
<g class="st0">
	<g class="st9">
		<g>
			<linearGradient id="SVGID_42_" gradientUnits="userSpaceOnUse" x1="14.8" y1="269.9114" x2="526.8005" y2="269.9114">
				<stop  offset="0" style="stop-color:#E5700F"/>
				<stop  offset="1" style="stop-color:#FEBA1C"/>
			</linearGradient>
			<path class="st43" d="M517.4,146.5c-14.6-7.6-46.5-7.5-59.1,8.2c-4.8,6-9.3,11.8-14,17.8c-12.2,15.8-26.1,33.7-51.5,62.8
				c-5.7,6.5-13.1,11.9-21.7,16.4c0.3-1.3,0.5-2.6,0.6-3.9c0.9-10.6-4-20.8-12.6-26.7c-10.2-7-24-7.2-37.8-0.4
				c-17.7,8.6-37.4,8.5-56.5,8.4c-2.3,0-4.6,0-6.8,0c-8.1,0-16.4-3.5-26.1-7.6c-13.1-5.5-28-11.8-47.4-11.8
				c-21.9,0-43.2,12.9-56.6,22.9v-4.1c0-4.5-3.6-8.1-8.1-8.1h-97c-4.5,0-8.1,3.6-8.1,8.1v161.6c0,4.5,3.6,8.1,8.1,8.1h97
				c4.5,0,8.1-3.6,8.1-8.1v-15.5c35,4.9,66.5,6.8,94.8,6.8c56.8,0,101-7.8,135.9-15.8c33.6-7.7,96.3-73.4,131.4-138
				c6.6-12.1,13.6-23.7,19.7-33.9c8.5-14.1,14.7-24.2,16.5-30.4C527,160.9,528.6,152.3,517.4,146.5z M111.8,382H31V236.6h80.8
				C111.8,236.6,111.8,382,111.8,382z M496,185.5c-6.2,10.3-13.3,22-20.1,34.5c-35.2,64.8-94.9,124-120.8,130
				c-51.3,11.7-123.3,23.1-227.2,8.4V253.5c7.7-6.9,32.7-27.7,56.6-27.7c16.2,0,28.9,5.4,41.2,10.5c10.8,4.6,21.1,8.9,32.4,8.9
				c2.2,0,4.5,0,6.7,0c19.9,0.1,42.6,0.3,63.7-10c8.4-4.1,16.2-4.4,21.6-0.7c3.9,2.7,6.1,7.2,5.6,12.1c-0.5,6.5-5.6,12.5-13.8,16.4
				c-41.8,11.4-94.4,11.4-125,11.4c-4.5,0-8.1,3.6-8.1,8.1s3.6,8.1,8.1,8.1c30.2,0,65.3-0.4,99.2-5.7c42.9-6.7,72.1-19.3,89-38.7
				c25.8-29.4,39.8-47.6,52.1-63.5c4.7-6,9.1-11.7,13.8-17.6c3.2-4,11-6.7,20.5-7c8.7-0.3,15.7,1.5,18.5,3
				C507.8,165.9,502,175.5,496,185.5z"/>
			<linearGradient id="SVGID_43_" gradientUnits="userSpaceOnUse" x1="301.584" y1="123.927" x2="328.523" y2="123.927">
				<stop  offset="0" style="stop-color:#E5700F"/>
				<stop  offset="1" style="stop-color:#FEBA1C"/>
			</linearGradient>
			<path class="st44" d="M315.1,137.4c7.4,0,13.5-6,13.5-13.5c0-7.4-6-13.5-13.5-13.5c-7.4,0-13.5,6-13.5,13.5
				C301.6,131.4,307.6,137.4,315.1,137.4z"/>
			<linearGradient id="SVGID_44_" gradientUnits="userSpaceOnUse" x1="200.305" y1="156.825" x2="371.5988" y2="156.825">
				<stop  offset="0" style="stop-color:#E5700F"/>
				<stop  offset="1" style="stop-color:#FEBA1C"/>
			</linearGradient>
			<path class="st45" d="M208.4,246.3h30.5c4.5,0,8.1-3.6,8.1-8.1v-7.2h7.2c2.1,0,8.1-3,8.1-8.1v-7.2h7.2c4.5,0,8.1-3.6,8.1-8.1
				v-7.2h7.2c2.1,0,4.2-0.9,5.7-2.4l18.1-18.1c2.2,0.3,4.4,0.4,6.7,0.4c0,0,0,0,0,0c15.1,0,29.3-5.9,40-16.6
				c22.1-22.1,22.1-57.9,0-80c-10.7-10.7-24.9-16.6-40-16.6c-15.1,0-29.3,5.9-40,16.6c-15.5,15.5-20.5,38.6-13.3,59L202.7,202
				c-1.5,1.5-2.4,3.6-2.4,5.7v30.5C200.3,242.7,203.9,246.3,208.4,246.3z M216.5,211.1l60.5-60.5c2.4-2.4,3.1-6.1,1.6-9.2
				c-7.4-15.4-4.2-33.9,7.9-46c7.6-7.6,17.8-11.8,28.6-11.8c10.8,0,20.9,4.2,28.6,11.8c15.8,15.8,15.8,41.4,0,57.1
				c-7.6,7.6-17.8,11.8-28.6,11.8c0,0,0,0,0,0c-2.6,0-5.3-0.3-7.9-0.8c-2.6-0.5-5.4,0.3-7.3,2.2l-18.6,18.6h-11.9
				c-4.5,0-8.1,3.6-8.1,8.1v7.2h-7.2c-4.5,0-8.1,3.6-8.1,8.1v7.2h-7.2h0c-4.2,0-8.1,3.5-8.1,8.1v7.2h-14.3L216.5,211.1L216.5,211.1z
				"/>
			<linearGradient id="SVGID_45_" gradientUnits="userSpaceOnUse" x1="27.901" y1="371.755" x2="54.84" y2="371.755">
				<stop  offset="0" style="stop-color:#E5700F"/>
				<stop  offset="1" style="stop-color:#FEBA1C"/>
			</linearGradient>
			<path class="st46" d="M41.4,385.2c7.4,0,13.5-6,13.5-13.5c0-7.4-6-13.5-13.5-13.5c-7.4,0-13.5,6-13.5,13.5
				C27.9,379.2,33.9,385.2,41.4,385.2z"/>
		</g>
	</g>
</g>
<linearGradient id="SVGID_46_" gradientUnits="userSpaceOnUse" x1="157.4839" y1="257.7155" x2="223.8988" y2="257.7155">
	<stop  offset="0" style="stop-color:#E5700F"/>
	<stop  offset="1" style="stop-color:#FEBA1C"/>
</linearGradient>
<path class="st47" d="M222.2,248.7c-2.6-3.2-7.4-3.7-10.6-1c-5.3,4.4-12.9,6.9-20.9,6.9c-8,0-15.6-2.5-20.9-6.9
	c-3.2-2.6-7.9-2.2-10.6,1c-2.6,3.2-2.2,7.9,1,10.6c8.1,6.6,18.9,10.3,30.5,10.3c11.6,0,22.4-3.6,30.5-10.3
	C224.4,256.6,224.8,251.9,222.2,248.7z"/>
<linearGradient id="SVGID_47_" gradientUnits="userSpaceOnUse" x1="140.347" y1="206.3015" x2="155.347" y2="206.3015">
	<stop  offset="0" style="stop-color:#E5700F"/>
	<stop  offset="1" style="stop-color:#FEBA1C"/>
</linearGradient>
<path class="st48" d="M147.8,194.5c-4.1,0-7.5,3.4-7.5,7.5v8.6c0,4.1,3.4,7.5,7.5,7.5s7.5-3.4,7.5-7.5V202
	C155.3,197.9,152,194.5,147.8,194.5z"/>
<linearGradient id="SVGID_48_" gradientUnits="userSpaceOnUse" x1="226.036" y1="206.3015" x2="241.036" y2="206.3015">
	<stop  offset="0" style="stop-color:#E5700F"/>
	<stop  offset="1" style="stop-color:#FEBA1C"/>
</linearGradient>
<path class="st49" d="M233.5,218.1c4.1,0,7.5-3.4,7.5-7.5V202c0-4.1-3.4-7.5-7.5-7.5s-7.5,3.4-7.5,7.5v8.6
	C226,214.7,229.4,218.1,233.5,218.1z"/>
<linearGradient id="SVGID_49_" gradientUnits="userSpaceOnUse" x1="37.519" y1="262" x2="309.588" y2="262">
	<stop  offset="0" style="stop-color:#E5700F"/>
	<stop  offset="1" style="stop-color:#FEBA1C"/>
</linearGradient>
<path class="st50" d="M130.6,356.1l6.4-3.2c11.3-5.7,18.4-17,18.4-29.7v-8.7c11.3,4.2,23.3,6.3,35.5,6.3c7,0,14.1-0.7,21.2-2.1
	c22.6-4.6,43.1-17.3,57.8-35.6c14.6-18.3,22.6-41.1,22.6-64.2c-0.1-44.4-33.8-52.2-72.8-61.3c-19-4.4-40.5-9.4-62-19.2
	c-7.1-3.2-15.5-1-19.9,5.4c-14.6,21-30,33.6-41.3,33.6c-3.4,0-6.7,0.7-9.6,2v-20.2c0-57.3,46.6-103.9,103.9-103.9
	s103.9,46.6,103.9,103.9v17.1c0,4.1,3.4,7.5,7.5,7.5c4.1,0,7.5-3.4,7.5-7.5v-17.1c0-44.2-24.3-82.9-60.2-103.4
	c0.1-1.3,0.2-2.5,0.2-3.8c0-25.4-26.4-46.1-58.9-46.1c-32.5,0-58.9,20.7-58.9,46.1c0,1.3,0.1,2.5,0.2,3.8
	C96.1,76.3,71.8,115,71.8,159.2V202c0,11,7.3,20.4,17.3,23.5c1.8,28.3,15.1,54.4,37.2,72.5c4.4,3.6,9.1,6.8,14,9.6v15.7
	c0,6.9-3.9,13.2-10.1,16.3l-74.4,37.2c-11.3,5.7-18.4,17-18.4,29.7v35.5c0,6.2,3.5,11.5,8.6,14.2v54.4c0,4.1,3.4,7.5,7.5,7.5
	s7.5-3.4,7.5-7.5V458h27.8v52.5c0,4.1,3.4,7.5,7.5,7.5s7.5-3.4,7.5-7.5v-77.1c0-4.1-3.4-7.5-7.5-7.5s-7.5,3.4-7.5,7.5v9.6H53.6
	c-0.6,0-1.1-0.5-1.1-1.1v-35.5c0-6.9,3.9-13.2,10.1-16.3l54.6-27.3c11.2,20,33.1,40.8,34.1,41.7c1.4,1.4,3.3,2,5.1,2
	c2,0,4-0.8,5.5-2.4c2.8-3,2.7-7.8-0.3-10.6C161.3,393.4,140.7,373.9,130.6,356.1z M190.7,21c22.5,0,41.2,12.1,43.6,27.6
	c-13.5-5.3-28.2-8.3-43.6-8.3c-15.4,0-30.1,2.9-43.6,8.3C149.5,33.1,168.1,21,190.7,21z M135.9,286.4
	c-20.3-16.6-31.9-41.1-31.9-67.2c0-4.1-3.4-7.5-7.5-7.5c-5.3,0-9.6-4.3-9.6-9.6s4.3-9.6,9.6-9.6c22.5,0,43.3-25.1,53.6-40.1
	c0.2-0.3,0.5-0.4,0.8-0.4c0.2,0,0.4,0.1,0.6,0.1l0,0c22.8,10.3,45.1,15.5,64.7,20.1c41.3,9.6,61.1,15.6,61.2,46.8
	c0.1,19.7-6.8,39.2-19.3,54.8c-12.5,15.6-30,26.4-49.1,30.3C182.8,309.4,156.1,303,135.9,286.4z"/>
<linearGradient id="SVGID_50_" gradientUnits="userSpaceOnUse" x1="174.6622" y1="386.2706" x2="438.0822" y2="386.2706">
	<stop  offset="0" style="stop-color:#E5700F"/>
	<stop  offset="1" style="stop-color:#FEBA1C"/>
</linearGradient>
<path class="st51" d="M413.3,279.3c-33-33-86.7-33-119.7,0l-94.3,94.3c-33,33-33,86.7,0,119.7c16.5,16.5,38.2,24.7,59.8,24.7
	c21.2,0,42.3-7.9,58.7-23.6l12,20c2.1,3.6,6.7,4.7,10.3,2.6c3.6-2.1,4.7-6.7,2.6-10.3L319.6,468c-2.9-4.8-8.2-7.8-13.8-7.8h-12.3
	c-7.5,0-14.8-3.2-19.8-8.8c-5.1-5.6-7.6-13-6.8-20.7c1.3-13.5,13.6-24.1,28.1-24.1h15.8c13,0,24.9,7.1,31.1,18.6l47.9,88.9
	c1.4,2.5,3.9,3.9,6.6,3.9c1.2,0,2.4-0.3,3.5-0.9c3.6-2,5-6.5,3-10.2l-34.2-63.4l44.5-44.5C446.3,366,446.3,312.3,413.3,279.3z
	 M251.9,429.3c-1.1,11.8,2.8,23.5,10.7,32.2c7.9,8.7,19.2,13.7,30.9,13.7h12.3c0.4,0,0.7,0.2,0.9,0.5l3.3,5.4l-1.5,1.5
	c-27.1,27.1-71.3,27.1-98.5,0c-27.1-27.1-27.1-71.3,0-98.5l22.3-22.3c7.6,7.5,22.5,21.7,40.5,35.7
	C261.3,404.3,253.2,415.9,251.9,429.3z M361.4,429.7l-6.3-11.6c-8.8-16.3-25.8-26.5-44.3-26.5H295c-1.7,0-3.3,0.1-5,0.3
	c-20.6-15.1-38.6-32.2-47.1-40.6l61.4-61.4c27.1-27.1,71.3-27.1,98.5,0c13.1,13.1,20.4,30.6,20.4,49.2s-7.2,36.1-20.4,49.2
	L361.4,429.7z"/>
<linearGradient id="SVGID_51_" gradientUnits="userSpaceOnUse" x1="303.1812" y1="339.1198" x2="403.8228" y2="339.1198">
	<stop  offset="0" style="stop-color:#E5700F"/>
	<stop  offset="1" style="stop-color:#FEBA1C"/>
</linearGradient>
<path class="st52" d="M389.1,303.5c-19.6-19.6-51.6-19.6-71.2,0c-19.6,19.6-19.6,51.6,0,71.2c9.8,9.8,22.7,14.7,35.6,14.7
	c12.9,0,25.8-4.9,35.6-14.7C408.7,355.1,408.7,323.2,389.1,303.5z M378.5,364.1c-13.8,13.8-36.2,13.8-50,0s-13.8-36.2,0-50
	c6.9-6.9,15.9-10.3,25-10.3s18.1,3.4,25,10.3C392.3,327.9,392.3,350.3,378.5,364.1z"/>
<linearGradient id="SVGID_52_" gradientUnits="userSpaceOnUse" x1="333.82" y1="327" x2="348.82" y2="327">
	<stop  offset="0" style="stop-color:#E5700F"/>
	<stop  offset="1" style="stop-color:#FEBA1C"/>
</linearGradient>
<circle class="st53" cx="341.3" cy="327" r="7.5"/>
<linearGradient id="SVGID_53_" gradientUnits="userSpaceOnUse" x1="358.07" y1="351.17" x2="373.07" y2="351.17">
	<stop  offset="0" style="stop-color:#E5700F"/>
	<stop  offset="1" style="stop-color:#FEBA1C"/>
</linearGradient>
<circle class="st54" cx="365.6" cy="351.2" r="7.5"/>
<linearGradient id="SVGID_54_" gradientUnits="userSpaceOnUse" x1="-9.883" y1="336.624" x2="234.174" y2="336.624">
	<stop  offset="0" style="stop-color:#E5700F"/>
	<stop  offset="1" style="stop-color:#FEBA1C"/>
</linearGradient>
<path class="st55" d="M195.2,391.2h-23.4l0-17.2c19.1-16.7,31.1-41.2,31.1-68.4v-29.9c6.1-30.6,3.3-53.3-8.3-67.5
	c-7.3-8.9-16.4-12.3-22.8-13.6v-34.5c0-4.3-3.5-7.8-7.8-7.8c-3,0-6,0-9.1,0c-3.2,0-6.5,0-9.8,0c-37.6,0-79.8,2.4-104.8,30.8
	c-18,20.4-24.3,50.6-19.1,92.2v30.3c0,27.3,12.1,51.8,31.2,68.4v17.2H29.1c-21.5,0-38.9,17.5-38.9,38.9v83.1c0,4.3,3.5,7.8,7.8,7.8
	h228.5c4.3,0,7.8-3.5,7.8-7.8v-83.1c0,0,0,0,0,0C234.2,408.6,216.7,391.2,195.2,391.2z M156.3,394.8l-23.9,15.9l-12.4-6.2V396
	c13.1-1.1,25.4-5,36.4-11.1L156.3,394.8z M52,193.3c20.8-23.5,59-25.5,93.1-25.5c3.3,0,6.5,0,9.7,0c0.5,0,0.9,0,1.4,0v33.8
	c0,2.1,0.9,4.2,2.4,5.7c1.6,1.5,3.6,2.2,5.8,2.1c0.7,0,11-0.2,18.2,8.6c5.3,6.5,8,16.4,7.9,29.3l-3.4-6.8c-1.7-3.4-5.7-5.1-9.3-3.9
	c-0.5,0.1-46.6,14.8-73.2,14.8c-25.5,0-48.6-13.8-48.9-14c-3.4-2.1-7.9-1.2-10.3,2l-10.3,13.7C34.6,226.8,40.2,206.7,52,193.3z
	 M36.9,305.5v-28.7l17.1-22.7c9.6,4.8,29.1,12.9,50.7,12.9c23.1,0,57.4-9.4,71.6-13.5l11.2,22.5v29.6c0,41.5-33.8,75.3-75.3,75.3
	C70.6,380.8,36.9,347,36.9,305.5z M104.4,396v8l-16.8,6.7L68,395.2v-10.3C78.9,391,91.3,394.9,104.4,396z M218.6,505.4h-36.3v-23.4
	c0-4.3-3.5-7.8-7.8-7.8s-7.8,3.5-7.8,7.8v23.4H57.6v-23.4c0-4.3-3.5-7.8-7.8-7.8s-7.8,3.5-7.8,7.8v23.4H5.7v-75.3
	c0-12.9,10.5-23.4,23.4-23.4h28.4l23.8,19.1c0.1,0.1,0.2,0.1,0.2,0.1c0.2,0.2,0.4,0.3,0.7,0.4c0.1,0.1,0.3,0.2,0.4,0.2
	c0.2,0.1,0.4,0.2,0.7,0.3c0.2,0.1,0.3,0.1,0.5,0.2c0.3,0.1,0.5,0.1,0.8,0.2c0.1,0,0.3,0.1,0.4,0.1c0.4,0.1,0.8,0.1,1.2,0.1
	c0.3,0,0.5,0,0.8,0c0,0,0.1,0,0.1,0c0.2,0,0.4-0.1,0.6-0.1c0.1,0,0.2,0,0.3-0.1c0.2,0,0.3-0.1,0.5-0.1c0.1,0,0.2-0.1,0.3-0.1
	c0.1,0,0.1,0,0.2-0.1l22.7-9.1l17.5,8.7c0,0,0,0,0,0l0.1,0.1c0.1,0.1,0.2,0.1,0.3,0.1c0.2,0.1,0.3,0.1,0.5,0.2
	c0.2,0.1,0.4,0.1,0.6,0.2c0.1,0,0.2,0.1,0.3,0.1c0.3,0.1,0.6,0.1,0.8,0.2c0,0,0,0,0.1,0c0.3,0,0.6,0.1,0.9,0.1c0.4,0,0.7,0,1.1-0.1
	c0.2,0,0.3-0.1,0.5-0.1c0.2,0,0.4-0.1,0.6-0.1c0.2,0,0.3-0.1,0.5-0.2c0.2-0.1,0.4-0.1,0.6-0.2c0.1-0.1,0.3-0.1,0.4-0.2
	c0.2-0.1,0.4-0.2,0.6-0.3c0,0,0.1,0,0.1-0.1l29.2-19.5h28.8c12.9,0,23.4,10.5,23.4,23.4c0,0,0,0,0,0L218.6,505.4L218.6,505.4z"/>
<linearGradient id="SVGID_55_" gradientUnits="userSpaceOnUse" x1="249.754" y1="326.254" x2="493.812" y2="326.254">
	<stop  offset="0" style="stop-color:#E5700F"/>
	<stop  offset="1" style="stop-color:#FEBA1C"/>
</linearGradient>
<path class="st56" d="M493.8,253.5C493.8,253.5,493.8,253.5,493.8,253.5c0-67.3-54.8-122-122-122c-67.3,0-122,54.7-122,122v187v72.7
	c0,4.3,3.5,7.8,7.8,7.8H486c4.3,0,7.8-3.5,7.8-7.8v-72.7c0,0,0,0,0,0V253.5L493.8,253.5z M371.8,147.1
	c58.7,0,106.5,47.8,106.5,106.4c0,0,0,0,0,0v155.8c-6.5-4.9-14.6-7.8-23.4-7.8H424c-0.1,0-0.2,0-0.3,0s-0.2,0-0.3,0h-12.7l0-14
	c30.7-14.6,51.9-45.9,51.9-82.1V264c0-4.3-3.5-7.8-7.8-7.8h-13v-13c0-4.3-3.5-7.8-7.8-7.8s-7.8,3.5-7.8,7.8v13h-15.6v-13
	c0-4.3-3.5-7.8-7.8-7.8s-7.8,3.5-7.8,7.8v13h-15.6v-13c0-4.3-3.5-7.8-7.8-7.8s-7.8,3.5-7.8,7.8v13h-15.6v-13c0-4.3-3.5-7.8-7.8-7.8
	s-7.8,3.5-7.8,7.8v13h-15.6v-13c0-4.3-3.5-7.8-7.8-7.8s-7.8,3.5-7.8,7.8v13h-13c-4.3,0-7.8,3.5-7.8,7.8v41.6
	c0,36.2,21.3,67.5,51.9,82.1v14h-12.7c-0.1,0-0.2,0-0.3,0c-0.1,0-0.2,0-0.3,0h-30.9c-8.8,0-16.9,2.9-23.4,7.8V253.5
	C265.3,194.8,313.1,147.1,371.8,147.1z M296.5,271.7h150.6v33.8c0,41.5-33.8,75.3-75.3,75.3c-41.5,0-75.3-33.8-75.3-75.3
	L296.5,271.7L296.5,271.7z M340.6,417.1c4.3,0,7.8-3.5,7.8-7.8v-16c7.5,2,15.3,3,23.4,3c8.1,0,15.9-1.1,23.4-3.1l0,16v0c0,0,0,0,0,0
	c0,0.1,0,0.3,0,0.4c0,0.1,0,0.3,0,0.4c0,0.1,0,0.2,0.1,0.4c0,0.1,0,0.3,0.1,0.4c0,0.1,0.1,0.2,0.1,0.4c0,0.1,0.1,0.3,0.1,0.4
	c0,0.1,0.1,0.3,0.1,0.4c0,0.1,0.1,0.2,0.1,0.3c0.1,0.2,0.2,0.4,0.3,0.5c0,0,0,0.1,0.1,0.1c1.1,2,3,3.4,5.3,3.9c0,0,0,0,0,0
	c0.2,0,0.4,0.1,0.6,0.1c0.1,0,0.1,0,0.2,0c0.2,0,0.3,0,0.5,0c0.1,0,0.2,0,0.3,0c0,0,0,0,0,0h12.3c-3.7,20.6-21.8,36.3-43.4,36.3
	c-21.7,0-39.7-15.7-43.4-36.3L340.6,417.1L340.6,417.1z M478.2,505.4h-36.3v-23.4c0-4.3-3.5-7.8-7.8-7.8s-7.8,3.5-7.8,7.8v23.4
	H317.3v-23.4c0-4.3-3.5-7.8-7.8-7.8s-7.8,3.5-7.8,7.8v23.4h-36.3v-64.9c0-12.9,10.5-23.4,23.4-23.4h23.9
	c3.8,29.3,28.9,51.9,59.2,51.9c30.3,0,55.4-22.7,59.2-51.9h23.9c12.9,0,23.4,10.5,23.4,23.3c0,0,0,0,0,0L478.2,505.4L478.2,505.4z"
	/>
<g class="st0">
	<linearGradient id="SVGID_56_" gradientUnits="userSpaceOnUse" x1="239.9267" y1="78.6869" x2="331.7148" y2="78.6869">
		<stop  offset="0" style="stop-color:#E5700F"/>
		<stop  offset="1" style="stop-color:#FEBA1C"/>
	</linearGradient>
	<path class="st57" d="M317.4,23.5c-9.2-9.2-21.5-14.3-34.6-14.3c-13.1,0-25.3,5.1-34.6,14.3c-0.5,0.5-0.9,1.1-1.1,1.8
		c-0.3,1.2-0.1,2.5,0.7,3.4l8.3,11.5l-13.9,18c-1.3,1.7-1,4.1,0.6,5.5l16.1,13.1l-13.7,17.9c-1.1,1.4-1.1,3.3,0,4.8l11.8,15.8
		l-15.1,9.3c-1,0.6-1.7,1.7-1.9,2.9c-0.1,1.2,0.3,2.4,1.1,3.3l16.3,16.3c0.7,0.7,1.8,1.2,2.8,1.2c0.1,0,0.2,0,0.2,0
		c1-0.1,1.9-0.5,2.6-1.2l54.4-54.4c9.2-9.2,14.3-21.5,14.3-34.6C331.7,45,326.6,32.7,317.4,23.5L317.4,23.5z M311.8,87.1l-51.6,51.6
		l-10-10l14.5-9c0.9-0.6,1.6-1.5,1.8-2.6c0.2-1.1-0.1-2.2-0.7-3.1l-12.6-16.9l14.2-18.6c1.3-1.7,1-4.1-0.6-5.5L250.7,60l13.4-17.3
		c1.1-1.4,1.1-3.3,0.1-4.7l-8-11.2c7.4-6.3,16.7-9.8,26.6-9.8c11,0,21.3,4.3,29,12c7.8,7.8,12,18.1,12,29S319.5,79.4,311.8,87.1
		L311.8,87.1z M311.8,87.1"/>
	<g class="st9">
		<linearGradient id="SVGID_57_" gradientUnits="userSpaceOnUse" x1="141.964" y1="83.3005" x2="240.0624" y2="83.3005">
			<stop  offset="0" style="stop-color:#E5700F"/>
			<stop  offset="1" style="stop-color:#FEBA1C"/>
		</linearGradient>
		<path class="st58" d="M222,128.7l14.5-9c0.9-0.6,1.6-1.5,1.8-2.6c0.2-1.1,0-2.2-0.7-3.1l-12.6-16.9l14.2-18.6
			c1.3-1.7,1-4.1-0.6-5.5L222.5,60l13.4-17.3c1.1-1.4,1.1-3.3,0.1-4.7l-7.2-10.1c-3.5-4.9-7.8-8.9-12.8-11.9
			c-19.3-11.4-43.8-8.4-59.6,7.5C147.1,32.7,142,45,142,58.1c0,13.1,5.1,25.4,14.3,34.6l63.6,63.6c0.8,0.8,1.8,1.2,2.8,1.2
			s2-0.4,2.8-1.2l9.2-9.2c0.4-0.3,0.6-0.7,0.9-1.2c0.7-1.5,0.4-3.3-0.8-4.5L222,128.7z M222.7,148l-60.8-60.8
			c-7.8-7.8-12-18.1-12-29s4.3-21.3,12-29c7.9-7.9,18.4-12,29-12c7.2,0,14.4,1.9,20.9,5.8c4,2.4,7.6,5.7,10.5,9.7l5.5,7.7l-13.9,18
			c-1.3,1.7-1,4.1,0.6,5.5l16.1,13.1L217,94.7c-1.1,1.4-1.1,3.3,0,4.8l11.8,15.8l-15.1,9.3c-1,0.6-1.7,1.7-1.9,2.9
			c-0.1,1.2,0.3,2.4,1.1,3.3l13.5,13.5L222.7,148z M222.7,148"/>
	</g>
</g>
<linearGradient id="SVGID_58_" gradientUnits="userSpaceOnUse" x1="156.6479" y1="258.7155" x2="223.0628" y2="258.7155">
	<stop  offset="0" style="stop-color:#E5700F"/>
	<stop  offset="1" style="stop-color:#FEBA1C"/>
</linearGradient>
<path class="st59" d="M221.4,249.7c-2.6-3.2-7.4-3.7-10.6-1c-5.3,4.4-12.9,6.9-20.9,6.9c-8,0-15.6-2.5-20.9-6.9
	c-3.2-2.6-7.9-2.2-10.6,1c-2.6,3.2-2.2,7.9,1,10.6c8.1,6.6,18.9,10.3,30.5,10.3c11.6,0,22.4-3.6,30.5-10.3
	C223.5,257.6,224,252.9,221.4,249.7z"/>
<linearGradient id="SVGID_59_" gradientUnits="userSpaceOnUse" x1="139.511" y1="207.3015" x2="154.511" y2="207.3015">
	<stop  offset="0" style="stop-color:#E5700F"/>
	<stop  offset="1" style="stop-color:#FEBA1C"/>
</linearGradient>
<path class="st60" d="M147,195.5c-4.1,0-7.5,3.4-7.5,7.5v8.6c0,4.1,3.4,7.5,7.5,7.5s7.5-3.4,7.5-7.5V203
	C154.5,198.9,151.2,195.5,147,195.5z"/>
<linearGradient id="SVGID_60_" gradientUnits="userSpaceOnUse" x1="225.2" y1="207.3015" x2="240.2" y2="207.3015">
	<stop  offset="0" style="stop-color:#E5700F"/>
	<stop  offset="1" style="stop-color:#FEBA1C"/>
</linearGradient>
<path class="st61" d="M232.7,219.1c4.1,0,7.5-3.4,7.5-7.5V203c0-4.1-3.4-7.5-7.5-7.5s-7.5,3.4-7.5,7.5v8.6
	C225.2,215.7,228.6,219.1,232.7,219.1z"/>
<linearGradient id="SVGID_61_" gradientUnits="userSpaceOnUse" x1="36.683" y1="263" x2="308.752" y2="263">
	<stop  offset="0" style="stop-color:#E5700F"/>
	<stop  offset="1" style="stop-color:#FEBA1C"/>
</linearGradient>
<path class="st62" d="M129.7,357.1l6.4-3.2c11.3-5.7,18.4-17,18.4-29.7v-8.7c11.3,4.2,23.3,6.3,35.5,6.3c7,0,14.1-0.7,21.2-2.1
	c22.6-4.6,43.1-17.3,57.8-35.6c14.6-18.3,22.6-41.1,22.6-64.2c-0.1-44.4-33.8-52.2-72.8-61.3c-19-4.4-40.5-9.4-62-19.2
	c-7.1-3.2-15.5-1-19.9,5.4c-14.6,21-30,33.6-41.3,33.6c-3.4,0-6.7,0.7-9.6,2v-20.2c0-57.3,46.6-103.9,103.9-103.9
	s103.9,46.6,103.9,103.9v17.1c0,4.1,3.4,7.5,7.5,7.5c4.1,0,7.5-3.4,7.5-7.5v-17.1c0-44.2-24.3-82.9-60.2-103.4
	c0.1-1.3,0.2-2.5,0.2-3.8c0-25.4-26.4-46.1-58.9-46.1c-32.5,0-58.9,20.7-58.9,46.1c0,1.3,0.1,2.5,0.2,3.8C95.2,77.3,71,116,71,160.2
	V203c0,11,7.3,20.4,17.3,23.5c1.8,28.3,15.1,54.4,37.2,72.5c4.4,3.6,9.1,6.8,14,9.6v15.7c0,6.9-3.9,13.2-10.1,16.3L55,377.7
	c-11.3,5.7-18.4,17-18.4,29.7v35.5c0,6.2,3.5,11.5,8.6,14.2v54.4c0,4.1,3.4,7.5,7.5,7.5s7.5-3.4,7.5-7.5V459h27.8v52.5
	c0,4.1,3.4,7.5,7.5,7.5s7.5-3.4,7.5-7.5v-77.1c0-4.1-3.4-7.5-7.5-7.5s-7.5,3.4-7.5,7.5v9.6H52.8c-0.6,0-1.1-0.5-1.1-1.1v-35.5
	c0-6.9,3.9-13.2,10.1-16.3l54.6-27.3c11.2,20,33.1,40.8,34.1,41.7c1.4,1.4,3.3,2,5.1,2c2,0,4-0.8,5.5-2.4c2.8-3,2.7-7.8-0.3-10.6
	C160.5,394.4,139.9,374.9,129.7,357.1z M189.9,22c22.5,0,41.2,12.1,43.6,27.6c-13.5-5.3-28.2-8.3-43.6-8.3
	c-15.4,0-30.1,2.9-43.6,8.3C148.7,34.1,167.3,22,189.9,22z M135,287.4c-20.3-16.6-31.9-41.1-31.9-67.2c0-4.1-3.4-7.5-7.5-7.5
	c-5.3,0-9.6-4.3-9.6-9.6s4.3-9.6,9.6-9.6c22.5,0,43.3-25.1,53.6-40.1c0.2-0.3,0.5-0.4,0.8-0.4c0.2,0,0.4,0.1,0.6,0.1l0,0
	c22.8,10.3,45.1,15.5,64.7,20.1c41.3,9.6,61.1,15.6,61.2,46.8c0.1,19.7-6.8,39.2-19.3,54.8c-12.5,15.6-30,26.4-49.1,30.3
	C182,310.4,155.3,304,135,287.4z"/>
<linearGradient id="SVGID_62_" gradientUnits="userSpaceOnUse" x1="173.8262" y1="387.2706" x2="437.2462" y2="387.2706">
	<stop  offset="0" style="stop-color:#E5700F"/>
	<stop  offset="1" style="stop-color:#FEBA1C"/>
</linearGradient>
<path class="st63" d="M412.5,280.3c-33-33-86.7-33-119.7,0l-94.3,94.3c-33,33-33,86.7,0,119.7c16.5,16.5,38.2,24.7,59.8,24.7
	c21.2,0,42.3-7.9,58.7-23.6l12,20c2.1,3.6,6.7,4.7,10.3,2.6c3.6-2.1,4.7-6.7,2.6-10.3L318.7,469c-2.9-4.8-8.2-7.8-13.8-7.8h-12.3
	c-7.5,0-14.8-3.2-19.8-8.8c-5.1-5.6-7.6-13-6.8-20.7c1.3-13.5,13.6-24.1,28.1-24.1h15.8c13,0,24.9,7.1,31.1,18.6l47.9,88.9
	c1.4,2.5,3.9,3.9,6.6,3.9c1.2,0,2.4-0.3,3.5-0.9c3.6-2,5-6.5,3-10.2L368,444.5l44.5-44.5C445.5,367,445.5,313.3,412.5,280.3z
	 M251.1,430.3c-1.1,11.8,2.8,23.5,10.7,32.2c7.9,8.7,19.2,13.7,30.9,13.7H305c0.4,0,0.7,0.2,0.9,0.5l3.3,5.4l-1.5,1.5
	c-27.1,27.1-71.3,27.1-98.5,0c-27.1-27.1-27.1-71.3,0-98.5l22.3-22.3c7.6,7.5,22.5,21.7,40.5,35.7
	C260.5,405.3,252.4,416.9,251.1,430.3z M360.5,430.7l-6.3-11.6c-8.8-16.3-25.8-26.5-44.3-26.5h-15.8c-1.7,0-3.3,0.1-5,0.3
	c-20.6-15.1-38.6-32.2-47.1-40.6l61.4-61.4c27.1-27.1,71.3-27.1,98.5,0c13.1,13.1,20.4,30.6,20.4,49.2s-7.2,36.1-20.4,49.2
	L360.5,430.7z"/>
<linearGradient id="SVGID_63_" gradientUnits="userSpaceOnUse" x1="302.3452" y1="340.1198" x2="402.9868" y2="340.1198">
	<stop  offset="0" style="stop-color:#E5700F"/>
	<stop  offset="1" style="stop-color:#FEBA1C"/>
</linearGradient>
<path class="st64" d="M388.3,304.5c-19.6-19.6-51.6-19.6-71.2,0c-19.6,19.6-19.6,51.6,0,71.2c9.8,9.8,22.7,14.7,35.6,14.7
	c12.9,0,25.8-4.9,35.6-14.7C407.9,356.1,407.9,324.2,388.3,304.5z M377.7,365.1c-13.8,13.8-36.2,13.8-50,0s-13.8-36.2,0-50
	c6.9-6.9,15.9-10.3,25-10.3s18.1,3.4,25,10.3C391.4,328.9,391.4,351.3,377.7,365.1z"/>
<linearGradient id="SVGID_64_" gradientUnits="userSpaceOnUse" x1="332.984" y1="328" x2="347.984" y2="328">
	<stop  offset="0" style="stop-color:#E5700F"/>
	<stop  offset="1" style="stop-color:#FEBA1C"/>
</linearGradient>
<circle class="st65" cx="340.5" cy="328" r="7.5"/>
<linearGradient id="SVGID_65_" gradientUnits="userSpaceOnUse" x1="357.234" y1="352.17" x2="372.234" y2="352.17">
	<stop  offset="0" style="stop-color:#E5700F"/>
	<stop  offset="1" style="stop-color:#FEBA1C"/>
</linearGradient>
<circle class="st66" cx="364.7" cy="352.2" r="7.5"/>
<linearGradient id="SVGID_66_" gradientUnits="userSpaceOnUse" x1="-10.883" y1="313.624" x2="233.174" y2="313.624">
	<stop  offset="0" style="stop-color:#E5700F"/>
	<stop  offset="1" style="stop-color:#FEBA1C"/>
</linearGradient>
<path class="st67" d="M194.2,368.2h-23.4l0-17.2c19.1-16.7,31.1-41.2,31.1-68.4v-29.9c6.1-30.6,3.3-53.3-8.3-67.5
	c-7.3-8.9-16.4-12.3-22.8-13.6v-34.5c0-4.3-3.5-7.8-7.8-7.8c-3,0-6,0-9.1,0c-3.2,0-6.5,0-9.8,0c-37.6,0-79.8,2.4-104.8,30.8
	c-18,20.4-24.3,50.6-19.1,92.2v30.3c0,27.3,12.1,51.8,31.2,68.4v17.2H28.1c-21.5,0-38.9,17.5-38.9,38.9v83.1c0,4.3,3.5,7.8,7.8,7.8
	h228.5c4.3,0,7.8-3.5,7.8-7.8v-83.1c0,0,0,0,0,0C233.2,385.6,215.7,368.2,194.2,368.2z M155.3,371.8l-23.9,15.9l-12.4-6.2V373
	c13.1-1.1,25.4-5,36.4-11.1L155.3,371.8z M51,170.3c20.8-23.5,59-25.5,93.1-25.5c3.3,0,6.5,0,9.7,0c0.5,0,0.9,0,1.4,0v33.8
	c0,2.1,0.9,4.2,2.4,5.7c1.6,1.5,3.6,2.2,5.8,2.1c0.7,0,11-0.2,18.2,8.6c5.3,6.5,8,16.4,7.9,29.3l-3.4-6.8c-1.7-3.4-5.7-5.1-9.3-3.9
	c-0.5,0.1-46.6,14.8-73.2,14.8c-25.5,0-48.6-13.8-48.9-14c-3.4-2.1-7.9-1.2-10.3,2l-10.3,13.7C33.6,203.8,39.2,183.7,51,170.3z
	 M35.9,282.5v-28.7l17.1-22.7c9.6,4.8,29.1,12.9,50.7,12.9c23.1,0,57.4-9.4,71.6-13.5l11.2,22.5v29.6c0,41.5-33.8,75.3-75.3,75.3
	C69.6,357.8,35.9,324,35.9,282.5z M103.4,373v8l-16.8,6.7L67,372.2v-10.3C77.9,368,90.3,371.9,103.4,373z M217.6,482.4h-36.3v-23.4
	c0-4.3-3.5-7.8-7.8-7.8s-7.8,3.5-7.8,7.8v23.4H56.6v-23.4c0-4.3-3.5-7.8-7.8-7.8s-7.8,3.5-7.8,7.8v23.4H4.7v-75.3
	c0-12.9,10.5-23.4,23.4-23.4h28.4l23.8,19.1c0.1,0.1,0.2,0.1,0.2,0.1c0.2,0.2,0.4,0.3,0.7,0.4c0.1,0.1,0.3,0.2,0.4,0.2
	c0.2,0.1,0.4,0.2,0.7,0.3c0.2,0.1,0.3,0.1,0.5,0.2c0.3,0.1,0.5,0.1,0.8,0.2c0.1,0,0.3,0.1,0.4,0.1c0.4,0.1,0.8,0.1,1.2,0.1
	c0.3,0,0.5,0,0.8,0c0,0,0.1,0,0.1,0c0.2,0,0.4-0.1,0.6-0.1c0.1,0,0.2,0,0.3-0.1c0.2,0,0.3-0.1,0.5-0.1c0.1,0,0.2-0.1,0.3-0.1
	c0.1,0,0.1,0,0.2-0.1l22.7-9.1l17.5,8.7c0,0,0,0,0,0l0.1,0.1c0.1,0.1,0.2,0.1,0.3,0.1c0.2,0.1,0.3,0.1,0.5,0.2
	c0.2,0.1,0.4,0.1,0.6,0.2c0.1,0,0.2,0.1,0.3,0.1c0.3,0.1,0.6,0.1,0.8,0.2c0,0,0,0,0.1,0c0.3,0,0.6,0.1,0.9,0.1c0.4,0,0.7,0,1.1-0.1
	c0.2,0,0.3-0.1,0.5-0.1c0.2,0,0.4-0.1,0.6-0.1c0.2,0,0.3-0.1,0.5-0.2c0.2-0.1,0.4-0.1,0.6-0.2c0.1-0.1,0.3-0.1,0.4-0.2
	c0.2-0.1,0.4-0.2,0.6-0.3c0,0,0.1,0,0.1-0.1l29.2-19.5h28.8c12.9,0,23.4,10.5,23.4,23.4c0,0,0,0,0,0L217.6,482.4L217.6,482.4z"/>
<linearGradient id="SVGID_67_" gradientUnits="userSpaceOnUse" x1="248.754" y1="303.254" x2="492.812" y2="303.254">
	<stop  offset="0" style="stop-color:#E5700F"/>
	<stop  offset="1" style="stop-color:#FEBA1C"/>
</linearGradient>
<path class="st68" d="M492.8,230.5C492.8,230.5,492.8,230.5,492.8,230.5c0-67.3-54.8-122-122-122c-67.3,0-122,54.7-122,122v187v72.7
	c0,4.3,3.5,7.8,7.8,7.8H485c4.3,0,7.8-3.5,7.8-7.8v-72.7c0,0,0,0,0,0V230.5L492.8,230.5z M370.8,124.1
	c58.7,0,106.5,47.8,106.5,106.4c0,0,0,0,0,0v155.8c-6.5-4.9-14.6-7.8-23.4-7.8H423c-0.1,0-0.2,0-0.3,0s-0.2,0-0.3,0h-12.7l0-14
	c30.7-14.6,51.9-45.9,51.9-82.1V241c0-4.3-3.5-7.8-7.8-7.8h-13v-13c0-4.3-3.5-7.8-7.8-7.8s-7.8,3.5-7.8,7.8v13h-15.6v-13
	c0-4.3-3.5-7.8-7.8-7.8s-7.8,3.5-7.8,7.8v13h-15.6v-13c0-4.3-3.5-7.8-7.8-7.8s-7.8,3.5-7.8,7.8v13h-15.6v-13c0-4.3-3.5-7.8-7.8-7.8
	s-7.8,3.5-7.8,7.8v13h-15.6v-13c0-4.3-3.5-7.8-7.8-7.8s-7.8,3.5-7.8,7.8v13h-13c-4.3,0-7.8,3.5-7.8,7.8v41.6
	c0,36.2,21.3,67.5,51.9,82.1v14h-12.7c-0.1,0-0.2,0-0.3,0c-0.1,0-0.2,0-0.3,0h-30.9c-8.8,0-16.9,2.9-23.4,7.8V230.5
	C264.3,171.8,312.1,124.1,370.8,124.1z M295.5,248.7h150.6v33.8c0,41.5-33.8,75.3-75.3,75.3c-41.5,0-75.3-33.8-75.3-75.3
	L295.5,248.7L295.5,248.7z M339.6,394.1c4.3,0,7.8-3.5,7.8-7.8v-16c7.5,2,15.3,3,23.4,3c8.1,0,15.9-1.1,23.4-3.1l0,16v0c0,0,0,0,0,0
	c0,0.1,0,0.3,0,0.4c0,0.1,0,0.3,0,0.4c0,0.1,0,0.2,0.1,0.4c0,0.1,0,0.3,0.1,0.4c0,0.1,0.1,0.2,0.1,0.4c0,0.1,0.1,0.3,0.1,0.4
	c0,0.1,0.1,0.3,0.1,0.4c0,0.1,0.1,0.2,0.1,0.3c0.1,0.2,0.2,0.4,0.3,0.5c0,0,0,0.1,0.1,0.1c1.1,2,3,3.4,5.3,3.9c0,0,0,0,0,0
	c0.2,0,0.4,0.1,0.6,0.1c0.1,0,0.1,0,0.2,0c0.2,0,0.3,0,0.5,0c0.1,0,0.2,0,0.3,0c0,0,0,0,0,0h12.3c-3.7,20.6-21.8,36.3-43.4,36.3
	c-21.7,0-39.7-15.7-43.4-36.3L339.6,394.1L339.6,394.1z M477.2,482.4h-36.3v-23.4c0-4.3-3.5-7.8-7.8-7.8s-7.8,3.5-7.8,7.8v23.4
	H316.3v-23.4c0-4.3-3.5-7.8-7.8-7.8s-7.8,3.5-7.8,7.8v23.4h-36.3v-64.9c0-12.9,10.5-23.4,23.4-23.4h23.9
	c3.8,29.3,28.9,51.9,59.2,51.9c30.3,0,55.4-22.7,59.2-51.9h23.9c12.9,0,23.4,10.5,23.4,23.3c0,0,0,0,0,0L477.2,482.4L477.2,482.4z"
	/>
<g class="st0">
	<linearGradient id="SVGID_68_" gradientUnits="userSpaceOnUse" x1="238.9267" y1="55.6868" x2="330.7148" y2="55.6868">
		<stop  offset="0" style="stop-color:#E5700F"/>
		<stop  offset="1" style="stop-color:#FEBA1C"/>
	</linearGradient>
	<path class="st69" d="M316.4,0.5c-9.2-9.2-21.5-14.3-34.6-14.3c-13.1,0-25.3,5.1-34.6,14.3c-0.5,0.5-0.9,1.1-1.1,1.8
		c-0.3,1.2-0.1,2.5,0.7,3.4l8.3,11.5l-13.9,18c-1.3,1.7-1,4.1,0.6,5.5l16.1,13.1l-13.7,17.9c-1.1,1.4-1.1,3.3,0,4.8l11.8,15.8
		l-15.1,9.3c-1,0.6-1.7,1.7-1.9,2.9c-0.1,1.2,0.3,2.4,1.1,3.3l16.3,16.3c0.7,0.7,1.8,1.2,2.8,1.2c0.1,0,0.2,0,0.2,0
		c1-0.1,1.9-0.5,2.6-1.2l54.4-54.4c9.2-9.2,14.3-21.5,14.3-34.6C330.7,22,325.6,9.7,316.4,0.5L316.4,0.5z M310.8,64.1l-51.6,51.6
		l-10-10l14.5-9c0.9-0.6,1.6-1.5,1.8-2.6c0.2-1.1-0.1-2.2-0.7-3.1l-12.6-16.9l14.2-18.6c1.3-1.7,1-4.1-0.6-5.5L249.7,37l13.4-17.3
		c1.1-1.4,1.1-3.3,0.1-4.7l-8-11.2c7.4-6.3,16.7-9.8,26.6-9.8c11,0,21.3,4.3,29,12c7.8,7.8,12,18.1,12,29S318.5,56.4,310.8,64.1
		L310.8,64.1z M310.8,64.1"/>
	<g class="st9">
		<linearGradient id="SVGID_69_" gradientUnits="userSpaceOnUse" x1="140.964" y1="60.3005" x2="239.0624" y2="60.3005">
			<stop  offset="0" style="stop-color:#E5700F"/>
			<stop  offset="1" style="stop-color:#FEBA1C"/>
		</linearGradient>
		<path class="st70" d="M221,105.7l14.5-9c0.9-0.6,1.6-1.5,1.8-2.6c0.2-1.1,0-2.2-0.7-3.1l-12.6-16.9l14.2-18.6
			c1.3-1.7,1-4.1-0.6-5.5L221.5,37l13.4-17.3c1.1-1.4,1.1-3.3,0.1-4.7l-7.2-10.1c-3.5-4.9-7.8-8.9-12.8-11.9
			c-19.3-11.4-43.8-8.4-59.6,7.5C146.1,9.7,141,22,141,35.1c0,13.1,5.1,25.4,14.3,34.6l63.6,63.6c0.8,0.8,1.8,1.2,2.8,1.2
			s2-0.4,2.8-1.2l9.2-9.2c0.4-0.3,0.6-0.7,0.9-1.2c0.7-1.5,0.4-3.3-0.8-4.5L221,105.7z M221.7,125l-60.8-60.8
			c-7.8-7.8-12-18.1-12-29s4.3-21.3,12-29c7.9-7.9,18.4-12,29-12c7.2,0,14.4,1.9,20.9,5.8c4,2.4,7.6,5.7,10.5,9.7l5.5,7.7l-13.9,18
			c-1.3,1.7-1,4.1,0.6,5.5l16.1,13.1L216,71.7c-1.1,1.4-1.1,3.3,0,4.8l11.8,15.8l-15.1,9.3c-1,0.6-1.7,1.7-1.9,2.9
			c-0.1,1.2,0.3,2.4,1.1,3.3l13.5,13.5L221.7,125z M221.7,125"/>
	</g>
</g>
<linearGradient id="SVGID_70_" gradientUnits="userSpaceOnUse" x1="96.514" y1="180.1413" x2="145.79" y2="180.1413">
	<stop  offset="0" style="stop-color:#E5700F"/>
	<stop  offset="1" style="stop-color:#FEBA1C"/>
</linearGradient>
<path class="st71" d="M121.2,191.9c8.7,0,17.1-4.1,23-11.3c2.6-3.2,2.1-7.9-1.1-10.5s-7.9-2.1-10.5,1.1c-3,3.7-7,5.8-11.3,5.8
	s-8.3-2.1-11.3-5.8c-2.6-3.2-7.3-3.7-10.5-1.1c-3.2,2.6-3.7,7.3-1.1,10.5C104,187.8,112.4,191.9,121.2,191.9z"/>
<linearGradient id="SVGID_71_" gradientUnits="userSpaceOnUse" x1="79.376" y1="137.2964" x2="94.376" y2="137.2964">
	<stop  offset="0" style="stop-color:#E5700F"/>
	<stop  offset="1" style="stop-color:#FEBA1C"/>
</linearGradient>
<path class="st72" d="M86.9,149.1c4.1,0,7.5-3.4,7.5-7.5V133c0-4.1-3.4-7.5-7.5-7.5s-7.5,3.4-7.5,7.5v8.6
	C79.4,145.7,82.7,149.1,86.9,149.1z"/>
<linearGradient id="SVGID_72_" gradientUnits="userSpaceOnUse" x1="147.928" y1="137.2964" x2="162.928" y2="137.2964">
	<stop  offset="0" style="stop-color:#E5700F"/>
	<stop  offset="1" style="stop-color:#FEBA1C"/>
</linearGradient>
<path class="st73" d="M155.4,149.1c4.1,0,7.5-3.4,7.5-7.5V133c0-4.1-3.4-7.5-7.5-7.5s-7.5,3.4-7.5,7.5v8.6
	C147.9,145.7,151.3,149.1,155.4,149.1z"/>
<linearGradient id="SVGID_73_" gradientUnits="userSpaceOnUse" x1="345.0146" y1="222.9853" x2="394.2894" y2="222.9853">
	<stop  offset="0" style="stop-color:#E5700F"/>
	<stop  offset="1" style="stop-color:#FEBA1C"/>
</linearGradient>
<path class="st74" d="M369.7,234.8c8.7,0,17.1-4.1,23-11.3c2.6-3.2,2.1-7.9-1.1-10.5s-7.9-2.1-10.5,1.1c-3,3.7-7,5.8-11.3,5.8
	c-4.3,0-8.3-2.1-11.3-5.8c-2.6-3.2-7.3-3.7-10.5-1.1c-3.2,2.6-3.7,7.3-1.1,10.5C352.5,230.6,360.9,234.8,369.7,234.8z"/>
<linearGradient id="SVGID_74_" gradientUnits="userSpaceOnUse" x1="327.876" y1="180.1414" x2="342.876" y2="180.1414">
	<stop  offset="0" style="stop-color:#E5700F"/>
	<stop  offset="1" style="stop-color:#FEBA1C"/>
</linearGradient>
<path class="st75" d="M335.4,191.9c4.1,0,7.5-3.4,7.5-7.5v-8.6c0-4.1-3.4-7.5-7.5-7.5s-7.5,3.4-7.5,7.5v8.6
	C327.9,188.6,331.2,191.9,335.4,191.9z"/>
<linearGradient id="SVGID_75_" gradientUnits="userSpaceOnUse" x1="396.428" y1="180.1414" x2="411.428" y2="180.1414">
	<stop  offset="0" style="stop-color:#E5700F"/>
	<stop  offset="1" style="stop-color:#FEBA1C"/>
</linearGradient>
<path class="st76" d="M403.9,191.9c4.1,0,7.5-3.4,7.5-7.5v-8.6c0-4.1-3.4-7.5-7.5-7.5s-7.5,3.4-7.5,7.5v8.6
	C396.4,188.6,399.8,191.9,403.9,191.9z"/>
<linearGradient id="SVGID_76_" gradientUnits="userSpaceOnUse" x1="-14.883" y1="240.1244" x2="497.1141" y2="240.1244">
	<stop  offset="0" style="stop-color:#E5700F"/>
	<stop  offset="1" style="stop-color:#FEBA1C"/>
</linearGradient>
<path class="st77" d="M476.2,316.7l-58.8-23.5c-0.3-0.1-0.6-0.3-0.9-0.4c40.6-9.2,59.8-24.7,60.7-25.4c2-1.7,3-4.3,2.7-6.9
	c-0.1-0.6-8.5-60.1-8.5-118.9c0-56.1-45.6-101.8-101.8-101.8S267.9,85.5,267.9,141.6c0,15.4-0.7,34.2-1.8,52l-16.4,8.2l-48.1-24
	c-0.1-0.1-0.3-0.1-0.4-0.2c2.3-6.7,3.8-13.7,4.3-21c10.1-3.1,17.4-12.5,17.4-23.5c0-7.4-3.3-14.1-8.6-18.7V64.5
	c0-13.8-7-26.7-18.4-34.4c-3.9-14.4-16.8-24.5-32-24.5H95.4C58.2,5.5,28,35.8,28,73v41.3c-5.2,4.5-8.6,11.2-8.6,18.7
	c0,11.1,7.3,20.4,17.4,23.5c1.9,25.2,14.9,47.3,34,61.5v20.7l-62,18.6c-14.2,4.2-23.7,17-23.7,31.8v83.7c0,4.1,3.4,7.5,7.5,7.5h1.1
	v86.8c0,4.1,3.4,7.5,7.5,7.5s7.5-3.4,7.5-7.5v-86.8h27.8v86.8c0,4.1,3.4,7.5,7.5,7.5s7.5-3.4,7.5-7.5V337.9c0-6.6-1.9-12.9-5.6-18.4
	l-12.8-19.2c-2.3-3.4-7-4.4-10.4-2.1c-3.4,2.3-4.4,7-2.1,10.4l12.8,19.2c2,3,3.1,6.5,3.1,10.1v27.6H1.2H0.1v-76.2
	c0-8.1,5.2-15.1,13-17.4l25.7-7.7c9,37.5,43,64.9,82.3,64.9c14.1,0,27.8-3.5,40.1-10.1c4.5,6.1,11.7,10.1,19.9,10.1h1.1v1.1
	c0,25.1,13.8,47.1,34.3,58.7V401c0,0.5-0.3,0.9-0.7,1l-28,9.3c-13.6,4.5-22.7,17.2-22.7,31.5v24.3c0,4.1,3.4,7.5,7.5,7.5
	s7.5-3.4,7.5-7.5v-24.3c0-7.8,5-14.8,12.4-17.3l8.2-2.7c10.9,16.2,29.2,26.1,48.9,26.1c19.8,0,38.1-9.9,48.9-26.1l8.2,2.7
	c7.4,2.5,12.4,9.4,12.4,17.3v24.3c0,4.1,3.4,7.5,7.5,7.5s7.5-3.4,7.5-7.5v-24.3c0-14.3-9.1-27-22.7-31.5l-28-9.3
	c-0.4-0.1-0.7-0.6-0.7-1v-12.2c15.3-8.7,26.9-23.2,31.8-40.5c14.2,14.8,34,23.5,55,23.5c33.2,0,62.4-21.5,72.4-52.7l28.6,11.5
	c7,2.8,11.4,9.4,11.4,16.9v35.1H481h-26.8v-9.6c0-4.1-3.4-7.5-7.5-7.5s-7.5,3.4-7.5,7.5v94.3c0,4.1,3.4,7.5,7.5,7.5s7.5-3.4,7.5-7.5
	v-69.6h19.3v69.6c0,4.1,3.4,7.5,7.5,7.5s7.5-3.4,7.5-7.5v-69.6h1.1c2,0,3.9-0.8,5.3-2.2c1.4-1.4,2.2-3.3,2.2-5.3v-42.6
	C497.1,333.8,488.9,321.7,476.2,316.7z M282.9,141.6c0-47.8,38.9-86.8,86.8-86.8s86.8,38.9,86.8,86.8c0,50.4,6.1,101.3,8,116.5
	c-6.7,4.4-23.9,14.1-53,20.4v-11.9c4-2.3,7.8-4.8,11.4-7.7c14.8-11.9,25.2-28.6,29.4-47c1.4-6.1,2.1-12.5,2.1-18.8
	c0-42.4-30.7-48.5-60.3-54.4c-18.9-3.7-38.4-7.6-53.9-20c-2.3-1.8-5.3-2.2-7.9-0.9s-4.3,3.9-4.3,6.8c0,0.2-0.3,19.9-28.6,27
	c-4,1-6.5,5.1-5.5,9.1c1,4,5.1,6.5,9.1,5.5c23.7-5.9,33.3-19.2,37.2-29.2c16.3,9.6,34.5,13.3,50.9,16.5
	c31.7,6.3,48.2,10.9,48.2,39.6c0,5.2-0.6,10.4-1.7,15.5c-3.4,15.1-12,28.9-24.2,38.7c-12.5,10.1-27.6,15.4-43.7,15.4
	c-14.7,0-28.7-4.5-40.5-13c-4.3-11.9-11.3-22.7-20.5-31.6v-33.5c0-2.6-1.3-5-3.6-6.4s-5-1.5-7.3-0.3l-16.2,8.1
	C282.4,170.2,282.9,155.3,282.9,141.6z M293.6,196.6v27.1l-27.1-13.6L293.6,196.6z M205.8,196.6l27.1,13.6l-27.1,13.6V196.6z
	 M190.8,218c-8.4,8.2-14.9,17.9-19.3,28.5c0-0.7,0.1-1.4,0.1-2.1v-26.3c7.5-5.5,14-12.3,19.3-19.9V218z M51.5,150.1
	c0-4.1-3.4-7.5-7.5-7.5c-5.3,0-9.6-4.3-9.6-9.6s4.3-9.6,9.6-9.6h17.1c3.2,0,6.1-2.1,7.1-5.1l6.9-20.7c17.2-0.4,70.7-2.8,100.8-17.9
	c3.7-1.9,5.2-6.4,3.4-10.1c-1.9-3.7-6.4-5.2-10.1-3.4c-32.3,16.1-98.8,16.3-99.5,16.3c-3.2,0-6.1,2.1-7.1,5.1l-6.9,20.6H44
	c-0.4,0-0.7,0-1.1,0V73c0-28.9,23.5-52.5,52.5-52.5H164c9,0,16.5,6.5,17.9,15.3c0.4,2.3,1.7,4.2,3.7,5.4
	c8.5,4.8,13.7,13.7,13.7,23.2v43.9c-0.4,0-0.7,0-1.1,0h-8.6c-4.1,0-7.5,3.4-7.5,7.5s3.4,7.5,7.5,7.5h8.6c5.3,0,9.6,4.3,9.6,9.6
	s-4.3,9.6-9.6,9.6c-4.1,0-7.5,3.4-7.5,7.5c0,38.4-31.2,69.6-69.6,69.6S51.5,188.5,51.5,150.1z M121.2,234.8
	c12.6,0,24.6-2.8,35.3-7.7v17.4c0,19.5-15.9,35.3-35.3,35.3c-19.5,0-35.3-15.8-35.3-35.2c0,0,0-0.1,0-0.1V227
	C96.6,232,108.5,234.8,121.2,234.8z M53.2,259.8l18.5-5.6c4.6,23.1,25,40.6,49.4,40.6c19.4,0,36.2-11,44.6-27.1
	c-0.5,3.6-0.7,7.3-0.7,11v7.1c-5.4,4.6-8.6,11.4-8.6,18.6c-10.7,6.3-22.8,9.6-35.3,9.6C88.5,314,60.3,291.1,53.2,259.8z
	 M278.9,416.3l4.8,1.6c-8.3,10.1-20.7,16.1-34,16.1c-13.3,0-25.7-6-34-16.1l4.8-1.6c6.6-2.2,11-8.3,11-15.2v-6
	c5.8,1.6,11.9,2.5,18.2,2.5s12.4-0.9,18.2-2.5v6C267.9,408,272.3,414.1,278.9,416.3z M249.7,382.6c-28.9,0-52.5-23.5-52.5-52.5v-8.6
	c0-4.1-3.4-7.5-7.5-7.5h-8.6c-5.3,0-9.6-4.3-9.6-9.6c0-3.4,1.8-6.5,4.8-8.3c0.7-0.4,1.3-0.9,1.8-1.5c18.5-0.5,78.6-4,118.1-26.6
	c3.6-2.1,4.8-6.6,2.8-10.2c-2.1-3.6-6.6-4.8-10.2-2.8c-34.6,19.8-89,23.7-108.7,24.5v-0.9c0-13.9,4.2-27.5,11.9-38.8
	c0.6,0.9,1.4,1.8,2.4,2.4c1.2,0.7,2.6,1.1,3.9,1.1c1.1,0,2.3-0.3,3.4-0.8l48.1-24l48.1,24c1.1,0.5,2.2,0.8,3.4,0.8
	c1.4,0,2.7-0.4,3.9-1.1c1-0.6,1.8-1.4,2.4-2.4c7.7,11.4,11.9,24.9,11.9,38.8v10.9c0,2.7,1.4,5.1,3.7,6.5c3,1.8,4.8,4.9,4.8,8.3
	c0,5.3-4.3,9.6-9.6,9.6h-8.6c-4.1,0-7.5,3.4-7.5,7.5v7.5c0,0.1,0,0.1,0,0.2v0.9C302.2,359,278.6,382.6,249.7,382.6z M369.7,356.9
	c-20.8,0-40-10.6-51.2-27.8c13.5-0.1,24.5-11.1,24.5-24.6c0-7.2-3.2-13.9-8.6-18.6v-7.1c0-3-0.2-6-0.5-9c11.1,5.2,23.3,7.9,35.8,7.9
	c9.1,0,18.2-1.5,26.8-4.4v11c0,10.1,6.1,19.1,15.5,22.9l16.2,6.5C420.3,339.2,396.7,356.9,369.7,356.9z"/>
<linearGradient id="SVGID_77_" gradientUnits="userSpaceOnUse" x1="225.049" y1="351.5203" x2="274.3243" y2="351.5203">
	<stop  offset="0" style="stop-color:#E5700F"/>
	<stop  offset="1" style="stop-color:#FEBA1C"/>
</linearGradient>
<path class="st78" d="M271.5,341.4c-3.2-2.6-7.9-2.1-10.5,1.1c-3,3.7-7,5.8-11.3,5.8s-8.3-2.1-11.3-5.8c-2.6-3.2-7.3-3.7-10.5-1.1
	c-3.2,2.6-3.7,7.3-1.1,10.5c5.8,7.2,14.2,11.3,23,11.3s17.1-4.1,23-11.3C275.3,348.7,274.8,344,271.5,341.4z"/>
<linearGradient id="SVGID_78_" gradientUnits="userSpaceOnUse" x1="216.617" y1="312.994" x2="231.617" y2="312.994">
	<stop  offset="0" style="stop-color:#E5700F"/>
	<stop  offset="1" style="stop-color:#FEBA1C"/>
</linearGradient>
<circle class="st79" cx="224.1" cy="313" r="7.5"/>
<linearGradient id="SVGID_79_" gradientUnits="userSpaceOnUse" x1="267.617" y1="312.994" x2="282.617" y2="312.994">
	<stop  offset="0" style="stop-color:#E5700F"/>
	<stop  offset="1" style="stop-color:#FEBA1C"/>
</linearGradient>
<circle class="st80" cx="275.1" cy="313" r="7.5"/>
<linearGradient id="SVGID_80_" gradientUnits="userSpaceOnUse" x1="303.4394" y1="92.9101" x2="338.7011" y2="92.9101">
	<stop  offset="0" style="stop-color:#E5700F"/>
	<stop  offset="1" style="stop-color:#FEBA1C"/>
</linearGradient>
<path class="st81" d="M320.6,78.2c-3.9-3.9-10.3-3.9-14.2,0c-3.9,3.9-3.9,10.3,0,14.2l15.2,15.2c2,2,4.5,2.9,7.1,2.9s5.1-1,7.1-2.9
	c3.9-3.9,3.9-10.3,0-14.2L320.6,78.2z"/>
<linearGradient id="SVGID_81_" gradientUnits="userSpaceOnUse" x1="320.6763" y1="53.5243" x2="355.8127" y2="53.5243">
	<stop  offset="0" style="stop-color:#E5700F"/>
	<stop  offset="1" style="stop-color:#FEBA1C"/>
</linearGradient>
<path class="st82" d="M323.6,53.1l15.1,15.1c2,2,4.5,2.9,7.1,2.9c2.6,0,5.1-1,7.1-2.9c3.9-3.9,3.9-10.3,0-14.2l-15.1-15.1
	c-3.9-3.9-10.3-3.9-14.2,0C319.7,42.8,319.7,49.2,323.6,53.1z"/>
<linearGradient id="SVGID_82_" gradientUnits="userSpaceOnUse" x1="-14.8811" y1="240.001" x2="497.1166" y2="240.001">
	<stop  offset="0" style="stop-color:#E5700F"/>
	<stop  offset="1" style="stop-color:#FEBA1C"/>
</linearGradient>
<path class="st83" d="M491,168.7c-5.5-7.1-13.9-11.2-22.9-11.2c-3.4,0-6.7,0.6-9.9,1.7L371,72.1c-3.9-3.9-10.3-3.9-14.2,0
	c-3.9,3.9-3.9,10.3,0,14.2l84.3,84.3c-5.4,3.9-11,7.7-16.8,11.4l-69.7-69.7c-3.9-3.9-10.3-3.9-14.2,0c-3.9,3.9-3.9,10.3,0,14.2
	l66.2,66.2c-8.4,4.6-16.6,8.7-24.1,11.8l-81.9-81.9c-3.9-3.9-10.3-3.9-14.2,0c-3.9,3.9-3.9,10.3,0,14.2l74.2,74.2
	c-1.1,0.1-2.1,0.2-3.1,0.2c-8,0-20.4,0-34.2,0l-28-28c-3.9-3.9-10.3-3.9-14.2,0c-3.9,3.9-3.9,10.3,0,14.2l13.8,13.8
	c-8.7,0-17.1,0-24.6,0c0-28.1,0-68.9,0-87.2c0-19.9,24.5-63.7,47.3-92.9c4.8-6.1,6.9-13.7,5.9-21.4c-0.9-7.7-4.8-14.6-10.9-19.3
	c-5.1-4-11.4-6.1-17.8-6.1c-9,0-17.4,4.1-22.9,11.2c-9.9,12.7-59.6,78.8-59.6,128.6c0,18.2,0,59.1,0,87.2c-28.1,0-69,0-87.2,0
	C75.1,211,9,260.6-3.7,270.5c-6.1,4.8-10,11.6-10.9,19.3c-0.9,7.7,1.2,15.3,5.9,21.4c5.5,7.1,13.9,11.2,22.9,11.2
	c3.4,0,6.7-0.6,9.8-1.7l87.2,87.2c2,2,4.5,2.9,7.1,2.9c2.6,0,5.1-1,7.1-2.9c3.9-3.9,3.9-10.3,0-14.2l-84.3-84.3
	c5.4-3.9,11-7.7,16.8-11.4l69.7,69.7c2,2,4.5,2.9,7.1,2.9s5.1-1,7.1-2.9c3.9-3.9,3.9-10.3,0-14.2l-66.2-66.2
	c8.4-4.6,16.6-8.7,24.1-11.8l81.9,81.9c2,2,4.5,2.9,7.1,2.9c2.6,0,5.1-1,7.1-2.9c3.9-3.9,3.9-10.3,0-14.2l-74.2-74.2
	c1.1-0.1,2.1-0.2,3.1-0.2c8,0,20.4,0,34.2,0l28,28c2,2,4.5,2.9,7.1,2.9c2.6,0,5.1-1,7.1-2.9c3.9-3.9,3.9-10.3,0-14.2L187.5,269
	c8.7,0,17.1,0,24.6,0c0,28.1,0,68.9,0,87.1c0,31.6-34.2,77.9-46.2,91.7c-10.5,12-9.3,30.4,2.7,40.9c5.3,4.6,12.1,7.2,19.1,7.2
	c8.4,0,16.3-3.6,21.8-9.9c0.6-0.7,15-17.2,29.5-40.5c20.6-33.2,31.1-63.2,31.1-89.4c0-18.2,0-59.1,0-87.2c28.1,0,69,0,87.2,0
	c49.8,0,115.9-49.6,128.6-59.6c6.1-4.8,10-11.6,11-19.3C497.8,182.5,495.7,174.9,491,168.7z M477,187.7c-0.3,2.4-1.5,4.5-3.4,6
	c-26.3,20.5-80.4,55.3-116.3,55.3c-20.6,0-69.9,0-97.2,0c0,0,0,0,0,0c-2.7,0-5.2,1.1-7.1,2.9c-1.9,1.9-2.9,4.4-2.9,7.1
	c0,27.3,0,76.7,0,97.2c0,22.4-9.4,48.9-28.1,78.8c-13.7,21.9-27.4,37.7-27.6,37.9c-1.7,1.9-4.2,3-6.7,3c-1.5,0-3.8-0.4-5.9-2.2
	c-3.7-3.2-4.1-8.9-0.8-12.6c0.5-0.6,51.2-59.1,51.2-104.9c0-20.5,0-69.9,0-97.2c0-5.5-4.5-10-10-10c-27.3,0-76.6,0-97.2,0
	c-32.2,0-86.9,37.2-105.3,51.5c-2,1.6-4.1,1.9-5.5,1.9c-2.8,0-5.4-1.3-7.1-3.4c-1.5-1.9-2.1-4.2-1.8-6.6c0.3-2.4,1.5-4.5,3.4-6
	c26.3-20.5,80.4-55.3,116.3-55.3c20.6,0,69.9,0,97.2,0c0,0,0,0,0,0c2.7,0,5.2-1.1,7.1-2.9c1.9-1.9,2.9-4.4,2.9-7.1
	c0-27.3,0-76.7,0-97.2c0-35.8,34.8-90,55.3-116.3c1.7-2.2,4.3-3.4,7.1-3.4c1.4,0,3.5,0.3,5.5,1.9c1.9,1.5,3.1,3.6,3.4,6
	c0.3,2.4-0.4,4.7-1.8,6.6c-14.3,18.4-51.5,73.2-51.5,105.3c0,20.5,0,69.9,0,97.2c0,5.5,4.5,10,10,10h1.5c27.6,0,75.5,0,95.7,0
	c32.2,0,86.9-37.2,105.3-51.5c2-1.6,4.1-1.9,5.5-1.9c2.8,0,5.4,1.3,7.1,3.4C476.6,183,477.3,185.3,477,187.7z"/>
<linearGradient id="SVGID_83_" gradientUnits="userSpaceOnUse" x1="143.5309" y1="387.0905" x2="178.7937" y2="387.0905">
	<stop  offset="0" style="stop-color:#E5700F"/>
	<stop  offset="1" style="stop-color:#FEBA1C"/>
</linearGradient>
<path class="st84" d="M161.7,401.8c2,2,4.5,2.9,7.1,2.9s5.1-1,7.1-2.9c3.9-3.9,3.9-10.3,0-14.2l-15.2-15.2c-3.9-3.9-10.3-3.9-14.2,0
	c-3.9,3.9-3.9,10.3,0,14.2L161.7,401.8z"/>
<linearGradient id="SVGID_84_" gradientUnits="userSpaceOnUse" x1="126.4203" y1="426.4764" x2="161.5574" y2="426.4764">
	<stop  offset="0" style="stop-color:#E5700F"/>
	<stop  offset="1" style="stop-color:#FEBA1C"/>
</linearGradient>
<path class="st85" d="M158.6,426.9l-15.1-15.1c-3.9-3.9-10.3-3.9-14.2,0c-3.9,3.9-3.9,10.3,0,14.2l15.1,15.1c2,2,4.5,2.9,7.1,2.9
	c2.6,0,5.1-1,7.1-2.9C162.5,437.2,162.5,430.8,158.6,426.9z"/>
<linearGradient id="SVGID_85_" gradientUnits="userSpaceOnUse" x1="255.9158" y1="303.705" x2="454.217" y2="303.705">
	<stop  offset="0" style="stop-color:#E5700F"/>
	<stop  offset="1" style="stop-color:#FEBA1C"/>
</linearGradient>
<path class="st86" d="M411.1,306.4V129.3c0-5.5-4.5-9.3-10-9.3h-38.7c-5.5,0-10.3,3.8-10.3,9.3v159.8c-6.4,0.2-12.8,1-19,2.5V181.5
	c0-5.5-4.7-9.5-10.2-9.5h-38.7c-5.5,0-10.1,3.9-10.1,9.5v149.3c-11.9,16.7-18.3,36.8-18.2,57.4c0,54.8,44.4,99.2,99.1,99.2
	c54.8,0,99.2-44.4,99.2-99.1C454.2,355.5,438.1,324.9,411.1,306.4z M372.1,140h19v155.8c-6.1-2.4-12.5-4.2-19-5.2V140z M294.1,192
	h19v106.5c-6.7,3.1-13.1,6.9-19,11.4V192z M355.1,467.3c-43.7,0-79.1-35.5-79.1-79.1c0-32,19.3-60.9,48.9-73.1
	c1.2-0.2,2.3-0.7,3.3-1.3c8.6-3.2,17.8-4.8,27-4.8c2.1,0,4.1,0.1,6.2,0.3h0.1c12,0.9,23.7,4.6,34,10.8c37.6,22.3,50,70.8,27.7,108.4
	C408.9,452.6,383,467.3,355.1,467.3z"/>
<linearGradient id="SVGID_86_" gradientUnits="userSpaceOnUse" x1="117.117" y1="340.505" x2="176.117" y2="340.505">
	<stop  offset="0" style="stop-color:#E5700F"/>
	<stop  offset="1" style="stop-color:#FEBA1C"/>
</linearGradient>
<path class="st87" d="M176.1,262c0-5.5-4.5-10-10-10h-39c-5.5,0-10,4.5-10,10v157c0,5.5,4.5,10,10,10h39c5.5,0,10-4.5,10-10V262z
	 M156.1,410h-19V272h19V410z"/>
<linearGradient id="SVGID_87_" gradientUnits="userSpaceOnUse" x1="196.117" y1="329.505" x2="255.117" y2="329.505">
	<stop  offset="0" style="stop-color:#E5700F"/>
	<stop  offset="1" style="stop-color:#FEBA1C"/>
</linearGradient>
<path class="st88" d="M255.1,239c0-5.5-4.5-10-10-10h-39c-5.5,0-10,4.5-10,10v181c0,5.5,4.5,10,10,10h39c5.5,0,10-4.5,10-10V239z
	 M235.1,410h-19V249h19V410z"/>
<linearGradient id="SVGID_88_" gradientUnits="userSpaceOnUse" x1="38.117" y1="383.505" x2="97.117" y2="383.505">
	<stop  offset="0" style="stop-color:#E5700F"/>
	<stop  offset="1" style="stop-color:#FEBA1C"/>
</linearGradient>
<path class="st89" d="M97.1,348c0-5.5-4.5-10-10-10h-39c-5.5,0-10,4.5-10,10v71c0,5.5,4.5,10,10,10h39c5.5,0,10-4.5,10-10V348z
	 M77.1,410h-19v-52h19V410z"/>
<linearGradient id="SVGID_89_" gradientUnits="userSpaceOnUse" x1="29.992" y1="142.805" x2="419.617" y2="142.805">
	<stop  offset="0" style="stop-color:#E5700F"/>
	<stop  offset="1" style="stop-color:#FEBA1C"/>
</linearGradient>
<path class="st90" d="M47.1,289.6l185-185l37.9,38.2c1.8,2,4.4,3.1,7.1,3.2l0,0c2.7-0.1,5.2-1.3,7.1-3.2L399.6,27.3l-0.1,44.5
	c0,5.6,4.4,10.1,10,10.3l0,0c5.6-0.1,10-4.7,10-10.3l0.1-68.6c0-5.5-4.5-10.1-10-10.1l0,0l-68.4,0.1c-5.5-0.1-10,4.4-10.1,9.9
	s4.4,10,9.9,10.1c0.1,0,0.1,0,0.2,0l0,0l44.3-0.1L277,121.2l-37.9-37.6c-1.9-1.8-4.5-2.7-7.1-2.6l0,0c-2.6-0.1-5.2,0.8-7.1,2.6
	l-192,192c-3.9,3.9-3.9,10.2,0,14c1.9,1.9,4.4,2.9,7.1,2.9C42.7,292.5,45.2,291.5,47.1,289.6z"/>
<linearGradient id="SVGID_90_" gradientUnits="userSpaceOnUse" x1="312.4524" y1="389.155" x2="401.117" y2="389.155">
	<stop  offset="0" style="stop-color:#E5700F"/>
	<stop  offset="1" style="stop-color:#FEBA1C"/>
</linearGradient>
<path class="st91" d="M369.5,399.3c17.7,0,32.1-14.6,31.6-32.4c-0.4-17.3-15-30.9-32.2-30.9h-32.7c-1.9,0-3.4,1.5-3.4,3.4v4.5v39.6
	h-16.9c-1.9,0-3.4,1.5-3.4,3.4v9c0,1.9,1.5,3.4,3.4,3.4h16.9v9.2h-16.9c-1.9,0-3.4,1.5-3.4,3.4v9c0,1.9,1.5,3.4,3.4,3.4h16.9v14.7
	c0,1.9,1.5,3.5,3.5,3.5h8.9c1.9,0,3.5-1.5,3.5-3.5v-14.7h27.5c1.9,0,3.4-1.5,3.4-3.4v-9c0-1.9-1.5-3.4-3.4-3.4h-27.5v-9.2
	L369.5,399.3L369.5,399.3z M385.3,367.6c0,8.7-7.1,15.9-15.9,15.9h-20.9v-31.7h20.9C378.2,351.7,385.3,358.9,385.3,367.6z"/>
<linearGradient id="SVGID_91_" gradientUnits="userSpaceOnUse" x1="0" y1="352.8469" x2="477.4268" y2="352.8469">
	<stop  offset="0" style="stop-color:#E5700F"/>
	<stop  offset="1" style="stop-color:#FEBA1C"/>
</linearGradient>
<path class="st92" d="M469.3,275c-0.2-0.3-0.4-0.6-0.7-0.9c-6.2-7.7-15.3-12.5-25.2-13.5c-9.7-1-19.4,1.9-27,8
	c-19.8,16.1-49.9,40.4-67.9,54.9c-13.3,10.8-29.7,16.9-46.7,17.5l-51.1,1.7c-2.1,0.1-4-1-5-2.7l-5.7-9.7c-0.9-1.6-1.1-3.5-0.3-5.2
	c0.7-1.7,2.3-2.9,4.1-3.2l52.8-10c18.7-3.4,31.6-21,29.5-40.1c-2.1-18.3-17.6-32.2-36-32.1c-0.5,0-1.1,0-1.8,0l-70.6-2.9
	c-28.3-1-52.4,4.4-80.6,18l-37,18C95,262,84.1,255,72.2,255.1H31.3c-17,0-31.3,13.7-31.3,30.7v152.1c0,17,14.3,31.1,31.3,31.1h40.9
	c17,0,30.8-14.1,30.8-31.1v-10.3l39.3-7.2c12.7-1.9,20.7-2.6,34.2-2.1l107.4,5c2.2,0.1,4.4,0.1,6.6,0.1c36.4,0,71.6-12.7,99.6-36
	l74.4-61.7l0.2-0.1c14.9-12.8,17-35.1,4.8-50.5L469.3,275z M82.8,438.1c0,6-4.9,10.9-10.9,10.9H30.6c-6,0-10.9-4.9-10.9-10.9V285.9
	c0-6,4.9-10.9,10.9-10.9h41.3c6,0,10.9,4.9,10.9,10.9V438.1z M451.5,310.5l-74.3,61.6c-25.9,21.5-58.9,32.7-92.6,31.2l-107.4-5
	c-15.1-0.6-24.3,0.2-38.1,2.3c-0.1,0-0.3,0-0.4,0.1l-35.9,6.6V293.5l42.8-20.7c25.1-12.1,46.4-16.9,71.1-16.1l71.1,2.9
	c0.4,0,0.9,0,1.3,0c0.1,0,0.5,0,0.8,0c9.1,0.1,16.4,7.5,16.3,16.6c-0.1,7.8-5.7,14.5-13.4,16l-52.8,10c-13.9,2.6-23.1,16-20.5,29.9
	c0.5,2.9,1.6,5.7,3.1,8.3l5.7,9.8c4.8,8.1,13.6,12.9,23,12.5l51.1-1.7c21.4-0.7,42-8.4,58.6-21.8c18-14.5,48.2-38.9,68-55
	c3.5-2.8,7.9-4.1,12.3-3.6c4.4,0.4,8.4,2.5,11.3,5.8l0,0c0.2,0.3,0.4,0.6,0.7,0.9C459.3,294.3,458.4,304.6,451.5,310.5z"/>
<linearGradient id="SVGID_92_" gradientUnits="userSpaceOnUse" x1="95.3" y1="118.0113" x2="444.9692" y2="118.0113">
	<stop  offset="0" style="stop-color:#E5700F"/>
	<stop  offset="1" style="stop-color:#FEBA1C"/>
</linearGradient>
<path class="st93" d="M105.3,90h67.5v25h-67.5c-5.5,0-10,4.5-10,10s4.5,10,10,10h67.5v26h-67.5c-5.5,0-10,4.5-10,10s4.5,10,10,10
	h67.5v24h-67.5c-5.5,0-10,4.5-10,10s4.5,10,10,10h272.8c1.9,0.1,3.8-0.4,5.5-1.4l56.8-37c4.6-3,5.9-9.1,2.9-13.7l0,0
	c-3-4.7-9.2-6.1-13.8-3.1L375.1,205h-69.3v-24h72.3c2.1-0.1,4.2-0.8,5.9-2.1l56.8-41.1c4.5-3.2,5.5-9.4,2.3-13.9
	c-3.2-4.5-9.4-5.5-13.9-2.3c-0.1,0-0.1,0.1-0.2,0.1L374.8,161h-69v-26h72.3c2.2,0.1,4.4-0.6,6.2-2l56.8-44.8
	c4.4-3.4,5.1-9.8,1.7-14.1c-3.4-4.3-9.7-5.1-14.1-1.7L374.6,115h-68.8V90h72.3c2.5,0.1,4.9-0.8,6.8-2.4l56.8-52.5
	c4-3.7,4.3-9.9,0.6-13.9c-1.9-2.1-4.6-3.3-7.4-3.2h-68.4l-0.1-0.4c-1.5-3.9-5.2-6.5-9.3-6.6h-113c-2.6,0.1-5,1.1-6.8,2.9l-4.2,4.1
	h-71c-2.5,0-4.9,0.9-6.8,2.6L98.5,73.2c-3,2.7-4,7-2.5,10.7C97.5,87.7,101.2,90.1,105.3,90z M409.4,38l-35.2,32H319l35-32H409.4z
	 M248.1,31h83.6l-42.6,39.7c-2.1,1.9-3.3,4.6-3.3,7.5V205h-93V82.5L248.1,31z M166.1,38h45.6l-35,32h-45.9L166.1,38z"/>
</svg>
