<?xml version="1.0" encoding="utf-8"?>
<!-- Generator: Adobe Illustrator 19.0.1, SVG Export Plug-In . SVG Version: 6.00 Build 0)  -->
<svg version="1.1" id="Слой_1" xmlns="http://www.w3.org/2000/svg" xmlns:xlink="http://www.w3.org/1999/xlink" x="0px" y="0px"
	 viewBox="0 0 439 512" style="enable-background:new 0 0 439 512;" xml:space="preserve">
<style type="text/css">
	.st0{display:none;}
	.st1{display:inline;fill:url(#SVGID_1_);}
	.st2{display:inline;fill:url(#SVGID_2_);}
	.st3{display:inline;fill:url(#SVGID_3_);}
	.st4{display:inline;fill:url(#SVGID_4_);}
	.st5{display:inline;fill:url(#SVGID_5_);}
	.st6{display:inline;fill:url(#SVGID_6_);}
	.st7{display:inline;fill:url(#SVGID_7_);}
	.st8{display:inline;fill:url(#SVGID_8_);}
	.st9{display:inline;}
	.st10{fill:url(#SVGID_9_);}
	.st11{fill:url(#SVGID_10_);}
	.st12{fill:url(#SVGID_11_);}
	.st13{fill:url(#SVGID_12_);}
	.st14{fill:url(#SVGID_13_);}
	.st15{fill:url(#SVGID_14_);}
	.st16{fill:url(#SVGID_15_);}
	.st17{fill:url(#SVGID_16_);}
	.st18{fill:url(#SVGID_17_);}
	.st19{fill:url(#SVGID_18_);}
	.st20{fill:url(#SVGID_19_);}
	.st21{fill:url(#SVGID_20_);}
	.st22{fill:url(#SVGID_21_);}
	.st23{fill:url(#SVGID_22_);}
	.st24{fill:url(#SVGID_23_);}
	.st25{fill:url(#SVGID_24_);}
	.st26{fill:url(#SVGID_25_);}
	.st27{fill:url(#SVGID_26_);}
	.st28{fill:url(#SVGID_27_);}
	.st29{fill:url(#SVGID_28_);}
	.st30{fill:url(#SVGID_29_);}
	.st31{display:inline;fill:url(#SVGID_30_);}
	.st32{display:inline;fill:url(#SVGID_31_);}
	.st33{display:inline;fill:url(#SVGID_32_);}
	.st34{display:inline;fill:url(#SVGID_33_);}
	.st35{display:inline;fill:url(#SVGID_34_);}
	.st36{display:inline;fill:url(#SVGID_35_);}
	.st37{display:inline;fill:url(#SVGID_36_);}
	.st38{display:inline;fill:url(#SVGID_37_);}
	.st39{display:inline;fill:url(#SVGID_38_);}
	.st40{display:inline;fill:url(#SVGID_39_);}
	.st41{display:inline;fill:url(#SVGID_40_);}
	.st42{display:inline;fill:url(#SVGID_41_);}
	.st43{fill:url(#SVGID_42_);}
	.st44{fill:url(#SVGID_43_);}
	.st45{fill:url(#SVGID_44_);}
	.st46{fill:url(#SVGID_45_);}
	.st47{display:none;fill:url(#SVGID_46_);}
	.st48{display:none;fill:url(#SVGID_47_);}
	.st49{display:none;fill:url(#SVGID_48_);}
	.st50{display:none;fill:url(#SVGID_49_);}
	.st51{display:none;fill:url(#SVGID_50_);}
	.st52{display:none;fill:url(#SVGID_51_);}
	.st53{display:none;fill:url(#SVGID_52_);}
	.st54{display:none;fill:url(#SVGID_53_);}
	.st55{display:none;fill:url(#SVGID_54_);}
	.st56{display:none;fill:url(#SVGID_55_);}
	.st57{display:inline;fill:url(#SVGID_56_);}
	.st58{fill:url(#SVGID_57_);}
	.st59{display:none;fill:url(#SVGID_58_);}
	.st60{display:none;fill:url(#SVGID_59_);}
	.st61{display:none;fill:url(#SVGID_60_);}
	.st62{display:none;fill:url(#SVGID_61_);}
	.st63{display:none;fill:url(#SVGID_62_);}
	.st64{display:none;fill:url(#SVGID_63_);}
	.st65{display:none;fill:url(#SVGID_64_);}
	.st66{display:none;fill:url(#SVGID_65_);}
	.st67{display:none;fill:url(#SVGID_66_);}
	.st68{display:none;fill:url(#SVGID_67_);}
	.st69{display:inline;fill:url(#SVGID_68_);}
	.st70{fill:url(#SVGID_69_);}
	.st71{display:none;fill:url(#SVGID_70_);}
	.st72{display:none;fill:url(#SVGID_71_);}
	.st73{display:none;fill:url(#SVGID_72_);}
	.st74{display:none;fill:url(#SVGID_73_);}
	.st75{display:none;fill:url(#SVGID_74_);}
	.st76{display:none;fill:url(#SVGID_75_);}
	.st77{display:none;fill:url(#SVGID_76_);}
	.st78{display:none;fill:url(#SVGID_77_);}
	.st79{display:none;fill:url(#SVGID_78_);}
	.st80{display:none;fill:url(#SVGID_79_);}
	.st81{display:none;fill:url(#SVGID_80_);}
	.st82{display:none;fill:url(#SVGID_81_);}
	.st83{display:none;fill:url(#SVGID_82_);}
	.st84{display:none;fill:url(#SVGID_83_);}
	.st85{display:none;fill:url(#SVGID_84_);}
	.st86{fill:url(#SVGID_85_);}
	.st87{fill:url(#SVGID_86_);}
	.st88{fill:url(#SVGID_87_);}
	.st89{fill:url(#SVGID_88_);}
	.st90{fill:url(#SVGID_89_);}
	.st91{fill:url(#SVGID_90_);}
</style>
<g class="st0">
	<linearGradient id="SVGID_1_" gradientUnits="userSpaceOnUse" x1="171.7059" y1="214.4124" x2="171.7059" y2="194.4156">
		<stop  offset="0" style="stop-color:#E5700F"/>
		<stop  offset="1" style="stop-color:#FEBA1C"/>
	</linearGradient>
	<path class="st1" d="M164.6,197.3c-3.9,3.9-3.9,10.2,0,14.1c3.9,3.9,10.2,3.9,14.1,0c3.9-3.9,3.9-10.2,0-14.1
		C174.9,193.4,168.5,193.4,164.6,197.3z"/>
	<linearGradient id="SVGID_2_" gradientUnits="userSpaceOnUse" x1="200.9948" y1="534.978" x2="200.9948" y2="414.9824">
		<stop  offset="0" style="stop-color:#E5700F"/>
		<stop  offset="1" style="stop-color:#FEBA1C"/>
	</linearGradient>
	<path class="st2" d="M314.2,470.7c4.4-6,6.8-13.2,6.8-20.7c0-19.3-15.7-35-35-35H116c-9.4,0-18.1,3.6-24.7,10.2
		C84.6,431.8,81,440.6,81,450c0,7.7,2.5,14.9,6.8,20.7C71.9,479.1,61,495.8,61,515v10c0,5.5,4.5,10,10,10h260c5.5,0,10-4.5,10-10
		v-10C341,495.8,330.1,479.1,314.2,470.7z M105.4,439.4c2.8-2.8,6.6-4.4,10.6-4.4h170c8.3,0,15,6.7,15,15c0,4-1.6,7.8-4.4,10.6
		c-2.8,2.8-6.6,4.4-10.6,4.4H116c-8.3,0-15-6.7-15-15C101,446,102.6,442.2,105.4,439.4z M81,515c0-16.5,13.5-30,30-30h5h170h5
		c16.5,0,30,13.5,30,30H81z"/>
	<linearGradient id="SVGID_3_" gradientUnits="userSpaceOnUse" x1="317.0104" y1="534.993" x2="317.0104" y2="22.997">
		<stop  offset="0" style="stop-color:#E5700F"/>
		<stop  offset="1" style="stop-color:#FEBA1C"/>
	</linearGradient>
	<path class="st3" d="M563.7,443.1c-3.4-5.3-7.4-9.9-12-13.8l-46.7-40.8c-0.4-0.5-0.8-1.1-1.3-1.6c-0.8-0.8-1.7-1.4-2.7-1.9
		l-28.3-24.6L341.9,246.3c5.4-5.6,8.3-12.9,8.3-20.7c0-8-3.1-15.6-8.8-21.2c-2.5-2.5-5.3-4.4-8.3-5.8l12.1-12.1
		c3.4,0.9,6.9,1.4,10.3,1.4c10.2,0,20.5-3.9,28.3-11.7c7.6-7.6,11.7-17.6,11.7-28.3c0-10.7-4.2-20.7-11.7-28.3L299,34.7
		c-7.6-7.6-17.6-11.7-28.3-11.7c-10.7,0-20.7,4.2-28.3,11.7C232,45.2,228.5,60,232.1,73.3L111.4,194.1c-3.3-0.9-6.8-1.4-10.4-1.4
		c-10.7,0-20.7,4.2-28.3,11.7c-15.6,15.6-15.6,41,0,56.6l84.8,84.8c7.8,7.8,18,11.7,28.3,11.7c10.2,0,20.5-3.9,28.3-11.7
		c10.4-10.4,13.9-25.3,10.3-38.6l12.1-12.1c1.5,3,3.4,5.8,5.9,8.3c5.7,5.7,13.2,8.8,21.2,8.8c7.8,0,15.1-2.9,20.7-8.3L423.6,464
		c0.4,0.6,0.8,1.2,1.4,1.7c0.2,0.2,0.4,0.3,0.6,0.5l41.5,47.7c1,1.2,2.1,2.4,3.3,3.6c11.4,11.4,26.5,17.6,42.3,17.6
		c2.8,0,5.6-0.2,8.4-0.6c18.8-2.6,35.1-13.9,44.6-30.9C576.1,484.8,575.3,461.1,563.7,443.1z M256.6,48.9c3.8-3.8,8.8-5.9,14.1-5.9
		c5.3,0,10.4,2.1,14.1,5.9l84.8,84.8c3.8,3.8,5.9,8.8,5.9,14.1c0,5.3-2.1,10.4-5.9,14.1c-7.8,7.8-20.5,7.8-28.3,0l-84.9-84.9
		c0,0,0,0,0,0C248.8,69.3,248.8,56.7,256.6,48.9z M200,331.7c-7.8,7.8-20.5,7.8-28.3,0l-84.8-84.8c-7.8-7.8-7.8-20.5,0-28.3
		c3.8-3.8,8.8-5.9,14.1-5.9c5.3,0,10.4,2.1,14.1,5.8l84.9,84.9C207.8,311.2,207.8,323.9,200,331.7z M242.1,261.3l-28,28l-84.9-84.9
		L242.4,91.3l84.9,84.9l-28,28c-0.1,0.1-0.2,0.2-0.3,0.3l-56.5,56.5C242.3,261.1,242.2,261.2,242.1,261.3z M277.8,282.2
		C277.8,282.2,277.8,282.2,277.8,282.2l-7.1,7.1c-1.9,1.9-4.4,2.9-7.1,2.9c-2.7,0-5.2-1-7.1-2.9c-1.9-1.9-2.9-4.4-2.9-7.1
		c0-2.6,1-5.1,2.8-6.9l56.8-56.8c3.9-3.8,10.2-3.7,14,0.1c1.9,1.9,2.9,4.4,2.9,7.1c0,2.7-1,5.2-2.9,7.1l-7,7c0,0-0.1,0.1-0.1,0.1
		L277.8,282.2z M298.5,289.7l29.2-29.2l123.7,107.9l-45.2,45.2L298.5,289.7z M419.5,428.7l47.1-47.1l15.1,13.2l-49,49L419.5,428.7z
		 M548.2,493.7c-6.5,11.5-17.4,19.1-29.9,20.9c-12.5,1.7-24.9-2.4-33.8-11.3c-0.8-0.8-1.5-1.6-2.2-2.4c0,0-0.1-0.1-0.1-0.1
		L445.8,459l51-51l41.8,36.4c0,0,0.1,0.1,0.1,0.1c3.1,2.7,5.9,5.8,8.3,9.5C554.5,465.7,555,481.6,548.2,493.7z"/>
	<linearGradient id="SVGID_4_" gradientUnits="userSpaceOnUse" x1="221.1985" y1="186.1299" x2="221.1985" y2="123.7025">
		<stop  offset="0" style="stop-color:#E5700F"/>
		<stop  offset="1" style="stop-color:#FEBA1C"/>
	</linearGradient>
	<path class="st4" d="M235.3,126.6l-42.4,42.4c-3.9,3.9-3.9,10.2,0,14.1c2,2,4.5,2.9,7.1,2.9c2.6,0,5.1-1,7.1-2.9l42.4-42.4
		c3.9-3.9,3.9-10.2,0-14.1C245.6,122.7,239.2,122.7,235.3,126.6z"/>
</g>
<g class="st0">
	<linearGradient id="SVGID_5_" gradientUnits="userSpaceOnUse" x1="-552.2957" y1="204.414" x2="-532.2914" y2="204.414">
		<stop  offset="0" style="stop-color:#E5700F"/>
		<stop  offset="1" style="stop-color:#FEBA1C"/>
	</linearGradient>
	<path class="st5" d="M-549.4,197.3c-3.9,3.9-3.9,10.2,0,14.1c3.9,3.9,10.2,3.9,14.1,0c3.9-3.9,3.9-10.2,0-14.1
		C-539.1,193.4-545.5,193.4-549.4,197.3z"/>
	<linearGradient id="SVGID_6_" gradientUnits="userSpaceOnUse" x1="-652.9995" y1="474.9802" x2="-373.0099" y2="474.9802">
		<stop  offset="0" style="stop-color:#E5700F"/>
		<stop  offset="1" style="stop-color:#FEBA1C"/>
	</linearGradient>
	<path class="st6" d="M-399.8,470.7c4.4-6,6.8-13.2,6.8-20.7c0-19.3-15.7-35-35-35h-170c-9.4,0-18.1,3.6-24.7,10.2
		c-6.6,6.6-10.2,15.4-10.2,24.8c0,7.7,2.5,14.9,6.8,20.7c-15.9,8.4-26.8,25.1-26.8,44.3v10c0,5.5,4.5,10,10,10h260
		c5.5,0,10-4.5,10-10v-10C-373,495.8-383.9,479.1-399.8,470.7z M-608.6,439.4c2.8-2.8,6.6-4.4,10.6-4.4h170c8.3,0,15,6.7,15,15
		c0,4-1.6,7.8-4.4,10.6c-2.8,2.8-6.6,4.4-10.6,4.4h-170c-8.3,0-15-6.7-15-15C-613,446-611.4,442.2-608.6,439.4z M-633,515
		c0-16.5,13.5-30,30-30h5h170h5c16.5,0,30,13.5,30,30H-633z"/>
	<linearGradient id="SVGID_7_" gradientUnits="userSpaceOnUse" x1="-652.9782" y1="278.995" x2="-141" y2="278.995">
		<stop  offset="0" style="stop-color:#E5700F"/>
		<stop  offset="1" style="stop-color:#FEBA1C"/>
	</linearGradient>
	<path class="st7" d="M-150.3,443.1c-3.4-5.3-7.4-9.9-12-13.8l-46.7-40.8c-0.4-0.5-0.8-1.1-1.3-1.6c-0.8-0.8-1.7-1.4-2.7-1.9
		l-28.3-24.6l-130.8-114.1c5.4-5.6,8.3-12.9,8.3-20.7c0-8-3.1-15.6-8.8-21.2c-2.5-2.5-5.3-4.4-8.3-5.8l12.1-12.1
		c3.4,0.9,6.9,1.4,10.3,1.4c10.2,0,20.5-3.9,28.3-11.7c7.6-7.6,11.7-17.6,11.7-28.3s-4.2-20.7-11.7-28.3L-415,34.7
		c-7.6-7.6-17.6-11.7-28.3-11.7c-10.7,0-20.7,4.2-28.3,11.7C-482,45.2-485.5,60-481.9,73.3l-120.7,120.7c-3.3-0.9-6.8-1.4-10.4-1.4
		c-10.7,0-20.7,4.2-28.3,11.7c-15.6,15.6-15.6,41,0,56.6l84.8,84.8c7.8,7.8,18,11.7,28.3,11.7c10.2,0,20.5-3.9,28.3-11.7
		c10.4-10.4,13.9-25.3,10.3-38.6l12.1-12.1c1.5,3,3.4,5.8,5.9,8.3c5.7,5.7,13.2,8.8,21.2,8.8c7.8,0,15.1-2.9,20.7-8.3L-290.4,464
		c0.4,0.6,0.8,1.2,1.4,1.7c0.2,0.2,0.4,0.3,0.6,0.5l41.5,47.7c1,1.2,2.1,2.4,3.3,3.6c11.4,11.4,26.5,17.6,42.3,17.6
		c2.8,0,5.6-0.2,8.4-0.6c18.8-2.6,35.1-13.9,44.6-30.9C-137.9,484.8-138.7,461.1-150.3,443.1z M-294.5,428.7l47.1-47.1l15.1,13.2
		l-49,49L-294.5,428.7z M-415.5,289.7l29.2-29.2l123.7,107.9l-45.2,45.2L-415.5,289.7z M-457.4,48.9c3.8-3.8,8.8-5.9,14.1-5.9
		c5.3,0,10.4,2.1,14.1,5.9l84.8,84.8c3.8,3.8,5.9,8.8,5.9,14.1c0,5.3-2.1,10.4-5.9,14.1c-7.8,7.8-20.5,7.8-28.3,0l-84.9-84.9
		c0,0,0,0,0,0C-465.2,69.3-465.2,56.7-457.4,48.9z M-514,331.7c-7.8,7.8-20.5,7.8-28.3,0l-84.8-84.8c-7.8-7.8-7.8-20.5,0-28.3
		c3.8-3.8,8.8-5.9,14.1-5.9c5.3,0,10.4,2.1,14.1,5.8l84.9,84.9C-506.2,311.2-506.2,323.9-514,331.7z M-584.7,204.4l113.1-113.1
		l84.9,84.9l-28,28c-0.1,0.1-0.2,0.2-0.3,0.3l-56.5,56.5c-0.1,0.1-0.2,0.2-0.3,0.4l-28,28L-584.7,204.4z M-450.4,292.2
		c-2.7,0-5.2-1-7.1-2.9c-1.9-1.9-2.9-4.4-2.9-7.1c0-2.6,1-5.1,2.8-6.9l56.8-56.8c3.9-3.8,10.2-3.7,14,0.1c1.9,1.9,2.9,4.4,2.9,7.1
		c0,2.7-1,5.2-2.9,7.1l-7,7c0,0-0.1,0.1-0.1,0.1l-42.3,42.3c0,0,0,0-0.1,0.1l-7,7C-445.2,291.2-447.7,292.2-450.4,292.2z
		 M-165.8,493.7c-6.5,11.5-17.4,19.1-29.9,20.9c-12.5,1.7-24.9-2.4-33.8-11.3c-0.8-0.8-1.5-1.6-2.2-2.4c0,0-0.1-0.1-0.1-0.1
		l-36.4-41.8l51-51l41.8,36.4c0,0,0.1,0.1,0.1,0.1c3.1,2.7,5.9,5.8,8.3,9.5C-159.5,465.7-159,481.6-165.8,493.7z"/>
	<linearGradient id="SVGID_8_" gradientUnits="userSpaceOnUse" x1="-524.015" y1="154.9162" x2="-461.5869" y2="154.9162">
		<stop  offset="0" style="stop-color:#E5700F"/>
		<stop  offset="1" style="stop-color:#FEBA1C"/>
	</linearGradient>
	<path class="st8" d="M-464.5,126.6c-3.9-3.9-10.2-3.9-14.1,0l-42.4,42.4c-3.9,3.9-3.9,10.2,0,14.1c2,2,4.5,2.9,7.1,2.9
		s5.1-1,7.1-2.9l42.4-42.4C-460.6,136.9-460.6,130.5-464.5,126.6z"/>
</g>
<g class="st0">
	<g class="st9">
		<linearGradient id="SVGID_9_" gradientUnits="userSpaceOnUse" x1="128.5731" y1="278.995" x2="497.6824" y2="278.995">
			<stop  offset="0" style="stop-color:#E5700F"/>
			<stop  offset="1" style="stop-color:#FEBA1C"/>
		</linearGradient>
		<path class="st10" d="M475.3,389.8c-6.7-33.8-38.5-39.6-38.6-39.6v0c-0.3-0.1,2.9,0.7-77.3-19.2v-2.7h59.1
			c12.2,0,22.1-9.9,22.1-22.1V193.5c1-4.2,1-8.5,0-12.7v-41.1c0-4.1-3.4-7.5-7.5-7.5c-4.1,0-7.5,3.4-7.5,7.5v21.5
			c-4-2.4-8.5-4.1-13.4-4.9c-1.8-7.8-8.3-14-16.5-15.1c-8.6-1.1-15.1-6.1-19.3-14.9c-2-4.1-5.9-6.8-10.4-7.2
			c-4.5-0.4-8.8,1.5-11.5,5.2c-12.9,17.5-48.7,56.9-110.6,56.9c-4.7,0-7.9-0.2-9-0.3c-11.4-0.7-21,8.4-21,19.8V218
			c0,27.5,11.4,54.3,31.4,73.3c6.6,6.3,13.9,11.6,21.7,15.8v6.2H208c-3.9,0-7.1-3.2-7.1-7.1V137.7C201,83,245.5,38,299.3,38
			c0.2,0,0.3,0,0.5,0c19.3,0.1,41.5,5.6,56.7,13.9c9.6,5.3,15.6,1.1,25,1.1c23.2,0,41.7,23.8,44,45.3c0,0.3,0,1.6,0.1,6.4
			c0,7.2,8.2,7.8,7.5,7.5c4.1,0,7.5-3.4,7.5-7.5c0-1.3,0-6.6-0.1-7.8c-3-29.8-28.5-58.9-58.9-58.9c-11.9,0-13.7,3-17.8,0.8
			c-17.2-9.5-42.3-15.7-63.9-15.8c-62.3-0.4-114,51.5-114,114.7v168.6c0,12.2,9.9,22.1,22.1,22.1h58.8v2.7l-77,19.1
			c-0.1,0-0.2,0.1-0.3,0.1l-5.6,1.7c-0.2,0-0.3,0.1-0.5,0.2c-10,3.7-27.6,13.6-32.4,37.8C128.1,504.5,129.1,499.6,129,500
			c-2.8,19.5,7,35,30.4,35h81.1c4.1,0,7.5-3.4,7.5-7.5c0-4.1-3.4-7.5-7.5-7.5h-28.2v-70.7c0-4.1-3.4-7.5-7.5-7.5s-7.5,3.4-7.5,7.5
			V520h-37.9c-10,0-15.8-3.2-15.8-13.7c0-5.1-0.2-0.1,22.1-113.6c3.4-16.8,15.6-23.9,22.7-26.6l5.2-1.5l44.2-11
			c49.2,58,46.3,54.9,49.1,57.7c16.4,16,39.9,14.9,55.3-3.2l46.3-54.4l44.1,10.9c1.3,0.6,23.2,4.4,27.9,28.1
			c22.1,112.5,22.1,108.5,22.1,113.6c-0.1,10.3-5.6,13.7-15.8,13.7h-37.6v-70.8c0-4.1-3.4-7.5-7.5-7.5s-7.5,3.4-7.5,7.5V520H275.6
			c-4.1,0-7.5,3.4-7.5,7.5c0,4.1,3.4,7.5,7.5,7.5h191.3c18.5,0,30.7-10.2,30.8-28.6C497.7,497.9,497.2,502,475.3,389.8z
			 M412.7,171.8c6.3,1.9,11.1,6,12.9,11.1v8.6c-1.8,5.1-6.6,9.2-12.9,11.1V171.8z M412.7,219.3V218c4.7-0.9,9-2.5,12.9-4.8v93.1
			c0,3.9-3.2,7.1-7.1,7.1h-59.1v-5.8C391.2,290.9,412.7,257.6,412.7,219.3z M255.5,280.4c-17-16.2-26.7-38.9-26.7-62.4
			c0.4-16.3-1.1-18.3,1.5-20.8c0.9-0.9,2.2-1.4,3.6-1.3c53.8,3.2,100-20.4,130.6-60c8.2,14.5,20.3,19,29.3,20.1
			c2.2,0.3,3.9,2.2,3.9,4.4c0,20.8,0,38.2,0,58.8C397.7,294,308.3,330.8,255.5,280.4z M330.8,398.4c-10.5,12.3-25.1,12.2-35.5-0.1
			l-15.7-18.5h66.9L330.8,398.4z M359.4,364.9H267l-12.9-15.2l22.1-5.5c3.3-0.8,5.7-3.9,5.7-7.4l0-23.2c20.6,6.9,42.4,6.8,62.6,0.2
			c0.1,24-0.3,23.4,0.4,25.5c0.8,2.3,2.8,4.2,5.3,4.8l22.2,5.5L359.4,364.9z"/>
	</g>
</g>
<g class="st0">
	<g class="st9">
		<g>
			<linearGradient id="SVGID_10_" gradientUnits="userSpaceOnUse" x1="131" y1="278.995" x2="497" y2="278.995">
				<stop  offset="0" style="stop-color:#E5700F"/>
				<stop  offset="1" style="stop-color:#FEBA1C"/>
			</linearGradient>
			<path class="st11" d="M489.3,25.5H138.7c-4.2,0-7.7,3.5-7.7,7.7v491.6c0,4.3,3.5,7.7,7.7,7.7h266.6c2.1,0,4-0.8,5.4-2.3l84-84
				c1.4-1.4,2.3-3.4,2.3-5.5V33.2C497,29,493.5,25.5,489.3,25.5z M413,506.2v-57.8h57.8L413,506.2z M481.6,433.1l-76.4-0.1
				c-2.1,0-4,0.8-5.5,2.3c-1.4,1.4-2.3,3.4-2.3,5.5l0.1,76.4H146.4V40.9h335.2V433.1z"/>
		</g>
	</g>
</g>
<g class="st0">
	<g class="st9">
		<g>
			<linearGradient id="SVGID_11_" gradientUnits="userSpaceOnUse" x1="189" y1="437.495" x2="277" y2="437.495">
				<stop  offset="0" style="stop-color:#E5700F"/>
				<stop  offset="1" style="stop-color:#FEBA1C"/>
			</linearGradient>
			<path class="st12" d="M264.1,406.4c-8.3-8.3-19.4-12.9-31.1-12.9c-24.3,0-44,19.7-44,44s19.7,44,44,44s44-19.7,44-44
				C277,425.8,272.5,414.7,264.1,406.4z M233,466.1c-15.8,0-28.6-12.8-28.6-28.6s12.8-28.6,28.6-28.6s28.6,12.8,28.6,28.6
				S248.8,466.1,233,466.1z"/>
		</g>
	</g>
</g>
<g class="st0">
	<g class="st9">
		<g>
			<linearGradient id="SVGID_12_" gradientUnits="userSpaceOnUse" x1="302.2" y1="439.095" x2="373.7" y2="439.095">
				<stop  offset="0" style="stop-color:#E5700F"/>
				<stop  offset="1" style="stop-color:#FEBA1C"/>
			</linearGradient>
			<path class="st13" d="M373.7,439.1c0,4.2-3.5,7.7-7.7,7.7h-56.1c-4.3,0-7.7-3.5-7.7-7.7c0-4.3,3.5-7.7,7.7-7.7H366
				C370.3,431.4,373.7,434.9,373.7,439.1z"/>
		</g>
	</g>
</g>
<g class="st0">
	<g class="st9">
		<g>
			<linearGradient id="SVGID_13_" gradientUnits="userSpaceOnUse" x1="192.1" y1="94.395" x2="237" y2="94.395">
				<stop  offset="0" style="stop-color:#E5700F"/>
				<stop  offset="1" style="stop-color:#FEBA1C"/>
			</linearGradient>
			<path class="st14" d="M237,94.4c0,4.3-3.5,7.7-7.7,7.7h-29.5c-4.3,0-7.7-3.5-7.7-7.7s3.5-7.7,7.7-7.7h29.6
				C233.6,86.7,237,90.2,237,94.4z"/>
		</g>
	</g>
</g>
<g class="st0">
	<g class="st9">
		<g>
			<linearGradient id="SVGID_14_" gradientUnits="userSpaceOnUse" x1="335.9" y1="94.395" x2="440" y2="94.395">
				<stop  offset="0" style="stop-color:#E5700F"/>
				<stop  offset="1" style="stop-color:#FEBA1C"/>
			</linearGradient>
			<path class="st15" d="M440,94.4c0,4.3-3.5,7.7-7.7,7.7h-88.7c-4.3,0-7.7-3.5-7.7-7.7s3.5-7.7,7.7-7.7h88.7
				C436.6,86.7,440,90.2,440,94.4z"/>
		</g>
	</g>
</g>
<g class="st0">
	<g class="st9">
		<g>
			<linearGradient id="SVGID_15_" gradientUnits="userSpaceOnUse" x1="273.6" y1="138.294" x2="440" y2="138.294">
				<stop  offset="0" style="stop-color:#E5700F"/>
				<stop  offset="1" style="stop-color:#FEBA1C"/>
			</linearGradient>
			<path class="st16" d="M440,138.3c0,4.3-3.5,7.7-7.7,7.7h-151c-4.2,0-7.7-3.5-7.7-7.7c0-4.2,3.5-7.7,7.7-7.7h151
				C436.6,130.5,440,134,440,138.3z"/>
		</g>
	</g>
</g>
<g class="st0">
	<g class="st9">
		<g>
			<linearGradient id="SVGID_16_" gradientUnits="userSpaceOnUse" x1="187.5" y1="218.795" x2="440.5" y2="218.795">
				<stop  offset="0" style="stop-color:#E5700F"/>
				<stop  offset="1" style="stop-color:#FEBA1C"/>
			</linearGradient>
			<path class="st17" d="M440.5,218.8c0,4.3-3.5,7.7-7.7,7.7H195.2c-4.3,0-7.7-3.5-7.7-7.7s3.5-7.7,7.7-7.7h237.6
				C437.1,211.1,440.5,214.6,440.5,218.8z"/>
		</g>
	</g>
</g>
<g class="st0">
	<g class="st9">
		<g>
			<linearGradient id="SVGID_17_" gradientUnits="userSpaceOnUse" x1="187.5" y1="253.495" x2="440.5" y2="253.495">
				<stop  offset="0" style="stop-color:#E5700F"/>
				<stop  offset="1" style="stop-color:#FEBA1C"/>
			</linearGradient>
			<path class="st18" d="M440.5,253.5c0,4.3-3.5,7.7-7.7,7.7H195.2c-4.3,0-7.7-3.5-7.7-7.7c0-4.2,3.5-7.7,7.7-7.7h237.6
				c2.1,0,4,0.8,5.4,2.3C439.7,249.5,440.5,251.5,440.5,253.5z"/>
		</g>
	</g>
</g>
<g class="st0">
	<g class="st9">
		<g>
			<linearGradient id="SVGID_18_" gradientUnits="userSpaceOnUse" x1="187.5" y1="291.195" x2="440.5" y2="291.195">
				<stop  offset="0" style="stop-color:#E5700F"/>
				<stop  offset="1" style="stop-color:#FEBA1C"/>
			</linearGradient>
			<path class="st19" d="M440.5,291.2c0,4.2-3.5,7.7-7.7,7.7H195.2c-4.3,0-7.7-3.5-7.7-7.7c0-4.3,3.5-7.7,7.7-7.7h237.6
				c2.1,0,4,0.8,5.4,2.3C439.7,287.3,440.5,289.2,440.5,291.2z"/>
		</g>
	</g>
</g>
<g class="st0">
	<g class="st9">
		<g>
			<linearGradient id="SVGID_19_" gradientUnits="userSpaceOnUse" x1="419.5" y1="325.895" x2="440.5" y2="325.895">
				<stop  offset="0" style="stop-color:#E5700F"/>
				<stop  offset="1" style="stop-color:#FEBA1C"/>
			</linearGradient>
			<path class="st20" d="M440.5,325.9c0,4.2-3.5,7.7-7.7,7.7h-5.6c-4.2,0-7.7-3.5-7.7-7.7c0-4.3,3.5-7.7,7.7-7.7h5.6
				C437.1,318.2,440.5,321.7,440.5,325.9z"/>
		</g>
	</g>
</g>
<g class="st0">
	<g class="st9">
		<g>
			<linearGradient id="SVGID_20_" gradientUnits="userSpaceOnUse" x1="187.5" y1="325.895" x2="399.2" y2="325.895">
				<stop  offset="0" style="stop-color:#E5700F"/>
				<stop  offset="1" style="stop-color:#FEBA1C"/>
			</linearGradient>
			<path class="st21" d="M399.2,325.9c0,4.2-3.5,7.7-7.7,7.7H195.2c-4.3,0-7.7-3.5-7.7-7.7c0-4.3,3.5-7.7,7.7-7.7h196.3
				C395.8,318.2,399.2,321.7,399.2,325.9z"/>
		</g>
	</g>
</g>
<g class="st0">
	<g class="st9">
		<linearGradient id="SVGID_21_" gradientUnits="userSpaceOnUse" x1="146.4" y1="271.997" x2="498.4" y2="271.997">
			<stop  offset="0" style="stop-color:#E5700F"/>
			<stop  offset="1" style="stop-color:#FEBA1C"/>
		</linearGradient>
		<path class="st22" d="M498.3,143.5c0-0.6-0.2-1.3-0.4-1.9c-0.1-0.3-0.1-0.5-0.2-0.8c-0.3-0.8-0.8-1.6-1.4-2.3l-96-104
			c-0.7-0.7-1.5-1.3-2.4-1.7c-0.2-0.1-0.5-0.2-0.7-0.3c-0.7-0.3-1.5-0.4-2.3-0.5c-0.2,0-0.3-0.1-0.5-0.1h-240c-4.4,0-8,3.6-8,8v464
			c0,4.4,3.6,8,8,8h336c4.4,0,8-3.6,8-8V144C498.4,143.8,498.3,143.7,498.3,143.5z M402.4,60.5l69.7,75.5h-69.7V60.5z M482.4,496
			h-320V48h224v96c0,4.4,3.6,8,8,8h88V496z"/>
	</g>
</g>
<g class="st0">
	<g class="st9">
		<linearGradient id="SVGID_22_" gradientUnits="userSpaceOnUse" x1="258.4" y1="199.997" x2="450.4" y2="199.997">
			<stop  offset="0" style="stop-color:#E5700F"/>
			<stop  offset="1" style="stop-color:#FEBA1C"/>
		</linearGradient>
		<path class="st23" d="M442.4,192h-176c-4.4,0-8,3.6-8,8s3.6,8,8,8h176c4.4,0,8-3.6,8-8S446.8,192,442.4,192z"/>
	</g>
</g>
<g class="st0">
	<g class="st9">
		<linearGradient id="SVGID_23_" gradientUnits="userSpaceOnUse" x1="258.4" y1="343.997" x2="450.4" y2="343.997">
			<stop  offset="0" style="stop-color:#E5700F"/>
			<stop  offset="1" style="stop-color:#FEBA1C"/>
		</linearGradient>
		<path class="st24" d="M442.4,336h-176c-4.4,0-8,3.6-8,8s3.6,8,8,8h176c4.4,0,8-3.6,8-8S446.8,336,442.4,336z"/>
	</g>
</g>
<g class="st0">
	<g class="st9">
		<linearGradient id="SVGID_24_" gradientUnits="userSpaceOnUse" x1="258.4" y1="415.997" x2="450.4" y2="415.997">
			<stop  offset="0" style="stop-color:#E5700F"/>
			<stop  offset="1" style="stop-color:#FEBA1C"/>
		</linearGradient>
		<path class="st25" d="M442.4,408h-176c-4.4,0-8,3.6-8,8s3.6,8,8,8h176c4.4,0,8-3.6,8-8S446.8,408,442.4,408z"/>
	</g>
</g>
<g class="st0">
	<g class="st9">
		<linearGradient id="SVGID_25_" gradientUnits="userSpaceOnUse" x1="192.5625" y1="187.2629" x2="276.4344" y2="187.2629">
			<stop  offset="0" style="stop-color:#E5700F"/>
			<stop  offset="1" style="stop-color:#FEBA1C"/>
		</linearGradient>
		<path class="st26" d="M274.2,159c-3.1-3.2-8.1-3.3-11.3-0.2c-0.1,0.1-0.1,0.1-0.2,0.2l-39.6,39.6l-17-17c-3.2-3.1-8.2-3-11.3,0.2
			c-3,3.1-3,8,0,11.1l22.6,22.6c3.1,3.1,8.2,3.1,11.3,0l45.2-45.3C277.2,167.3,277.3,162.2,274.2,159z"/>
	</g>
</g>
<g class="st0">
	<g class="st9">
		<linearGradient id="SVGID_26_" gradientUnits="userSpaceOnUse" x1="258.4" y1="271.997" x2="450.4" y2="271.997">
			<stop  offset="0" style="stop-color:#E5700F"/>
			<stop  offset="1" style="stop-color:#FEBA1C"/>
		</linearGradient>
		<path class="st27" d="M442.4,264h-176c-4.4,0-8,3.6-8,8s3.6,8,8,8h176c4.4,0,8-3.6,8-8S446.8,264,442.4,264z"/>
	</g>
</g>
<g class="st0">
	<g class="st9">
		<linearGradient id="SVGID_27_" gradientUnits="userSpaceOnUse" x1="192.5625" y1="259.2629" x2="276.4344" y2="259.2629">
			<stop  offset="0" style="stop-color:#E5700F"/>
			<stop  offset="1" style="stop-color:#FEBA1C"/>
		</linearGradient>
		<path class="st28" d="M274.2,231c-3.1-3.2-8.1-3.3-11.3-0.2c-0.1,0.1-0.1,0.1-0.2,0.2l-39.6,39.6l-17-17c-3.2-3.1-8.2-3-11.3,0.2
			c-3,3.1-3,8,0,11.1l22.6,22.6c3.1,3.1,8.2,3.1,11.3,0l45.2-45.3C277.2,239.3,277.3,234.2,274.2,231z"/>
	</g>
</g>
<g class="st0">
	<g class="st9">
		<linearGradient id="SVGID_28_" gradientUnits="userSpaceOnUse" x1="192.5625" y1="331.3614" x2="276.2378" y2="331.3614">
			<stop  offset="0" style="stop-color:#E5700F"/>
			<stop  offset="1" style="stop-color:#FEBA1C"/>
		</linearGradient>
		<path class="st29" d="M273.8,303c-3.1-3-8-3-11.1,0l-39.6,39.6l-17-17c-3.2-3.1-8.2-3-11.3,0.2c-3,3.1-3,8,0,11.1l22.6,22.6
			c3.1,3.1,8.2,3.1,11.3,0l45.2-45.3C277.1,311.2,277,306.1,273.8,303z"/>
	</g>
</g>
<g class="st0">
	<g class="st9">
		<linearGradient id="SVGID_29_" gradientUnits="userSpaceOnUse" x1="192.5625" y1="403.313" x2="275.5322" y2="403.313">
			<stop  offset="0" style="stop-color:#E5700F"/>
			<stop  offset="1" style="stop-color:#FEBA1C"/>
		</linearGradient>
		<path class="st30" d="M274,375c-3.1-3.1-8.2-3.1-11.3,0l-39.6,39.6l-17-17c-3.2-3.1-8.2-3-11.3,0.2c-3,3.1-3,8,0,11.1l22.6,22.6
			c3.1,3.1,8.2,3.1,11.3,0l45.2-45.3C276.4,383.4,275.7,378.6,274,375z"/>
	</g>
</g>
<g class="st0">
	<linearGradient id="SVGID_30_" gradientUnits="userSpaceOnUse" x1="129" y1="278.995" x2="502" y2="278.995">
		<stop  offset="0" style="stop-color:#E5700F"/>
		<stop  offset="1" style="stop-color:#FEBA1C"/>
	</linearGradient>
	<path class="st31" d="M496.4,25c4.7,2.3,5.6,6.9,5.6,12.5c0,65.8,0,131.6,0,197.4c0,94.7,0,189.5,0,284.2c0,2.3-0.1,4.6-0.4,6.9
		c-0.5,4.2-2.8,6.3-6.1,6.9c-1.5,0.3-3,0.2-4.5,0.2c-105,0-210,0-315.1,0c-9.1,0-10.9-2.3-11-13.4c0-33.6,0-67.1,0-100.7
		c0-3.4-0.8-5.8-2.8-8.2c-8.5-10-16.8-20.3-25.1-30.5c-4.9-6-4.9-10,0-16c1.7-2.1,3.6-3.9,6.3-6.7c-3.8-4.2-7.1-7.6-10.2-11.3
		c-5.7-6.7-5.6-10.8-0.1-17.5c7-8.5,14-17.1,21-25.6c4.3-5.2,4.6-5.4,10.6-5.3c0.1-1.4,0.2-2.8,0.2-4.3c0-85.2,0-170.3,0-255.5
		c0-5.6,0.4-10.7,5.3-13.1C279,25,387.7,25,496.4,25z M487.4,42.5c-102.9,0-205.4,0-308,0c-0.1,1.5-0.2,2.7-0.2,3.8
		c0,88.5,0,176.9,0.1,265.4c0,2.3,1.1,5.1,2.4,6.7c15.7,19.3,31.5,38.4,47.2,57.6c15.2,18.5,30.4,36.9,45.5,55.4
		c5,6.2,5,10.3-0.1,16.4c-1.9,2.3-4.1,4.3-7,7.3c3.7,4,6.7,7,9.5,10.4c3.6,4.3,3.8,9.6,0.8,13.2c-3.1,3.7-7,3.4-10.8-1.1
		c-2.8-3.3-5.5-6.8-8.9-11.1c-1.9,2.8-3.3,5.2-5,7.3c-5.8,7.2-8.8,7.2-14.6,0.2c-18.5-22.4-36.9-44.9-55.3-67.3
		c-1-1.2-2.1-2.4-3.6-4c0,38,0,75.3,0,112.8c102.7,0,205.2,0,308,0C487.4,357.8,487.4,200.3,487.4,42.5z M195.3,396.4
		c4.9-6,9.9-12.2,14.4-17.8c-10.5-12.8-21.2-26-31.3-38.4c-4.9,5.9-10,12-14.6,17.6C174.2,370.6,184.9,383.6,195.3,396.4z
		 M224.3,431.6c7.2,8.9,14.3,17.7,20.9,25.9c5-6.1,10.1-12.3,15-18.3c-6.9-8.3-14.2-17-21.3-25.5
		C234.2,419.5,229.2,425.6,224.3,431.6z M221.3,391.2c-5.3,6.5-10.2,12.6-15.3,18.8c2.4,2.8,5,5.8,7.3,8.4c5-6.1,10-12.2,15.1-18.4
		C226.2,397.3,223.8,394.3,221.3,391.2z M147.2,336.8c1.8,2.8,3.6,5.5,4.7,7.3c5.2-6.3,10.3-12.4,15-18.1c-1.6-2.1-3.5-4.5-5.4-6.9
		C156.7,325.2,151.8,331.2,147.2,336.8z M164.4,388.2c0.3-0.1,0.5-0.2,0.8-0.3c-0.4-1.4-0.5-3.2-1.3-4.2c-3.2-4.2-6.6-8.3-10.1-12.3
		c-0.5-0.6-1.9-0.1-2.9-0.1C155.7,377.3,160.1,382.8,164.4,388.2z"/>
	<linearGradient id="SVGID_31_" gradientUnits="userSpaceOnUse" x1="356.8634" y1="414.1923" x2="474.6504" y2="414.1923">
		<stop  offset="0" style="stop-color:#E5700F"/>
		<stop  offset="1" style="stop-color:#FEBA1C"/>
	</linearGradient>
	<path class="st32" d="M440.9,446.9c-3,3.9-5.7,8.9-9.1,11.8c-8.7,7.4-19.9-3.3-21.6-19.9c-0.9-8.8,0.7-16.6,3.1-24.3
		c2.1-7,4.4-13.8,6.2-21c1.3-5-0.3-9-3.7-9c-2.2,0-4.7,0.5-6.5,2.1c-5.5,5-11.1,10-16.1,16.1c-8.8,10.7-16.4,23.4-22.8,37.9
		c-1.3,2.9-2.3,6.3-3.4,9.4c-1.6,4.4-4.1,6-6.7,4.2c-2.7-1.8-4.2-6.4-2.9-11c1.8-6.1,3.9-12.1,6.4-17.4c9.4-19.4,20.5-36,33.5-49
		c5.1-5.1,10.5-8.9,16.6-9.8c9.5-1.4,20.6,11.6,15.7,32.7c-1.8,7.7-4.4,14.9-6.6,22.3c-0.8,2.8-1.5,5.8-2,8.8
		c-0.8,4.7,0.7,10,3.3,12.2c2.2,1.9,4,0.2,5.1-2.5c2.6-6.4,5.1-13,7.3-19.9c1.5-4.6,2.1-10.1,6.2-10.1c4-0.1,5.1,5.3,6.4,9.9
		c0.8,2.9,1.4,5.9,2.3,9.9c1.2-4.8,2.3-8.8,3.3-12.8c2.3-9.2,6-10.8,10.6-4.2c4.4,6.3,8.1,13.5,9.1,23.4c0.9,9-1.2,16.2-5,22.3
		c-2,3.1-5,2.9-7,0.1c-2.1-3-2.5-7.7-0.6-11.6c2.1-4.4,3-8.6,0.8-12.9c-3,6.5-5.9,13.2-9.1,19.5c-1.3,2.5-3.1,4.8-4.9,5.6
		c-1.8,0.9-4.2,0.7-6-0.6c-2.1-1.5-2.5-5.3-1.9-9.1C440.8,448.9,440.9,447.7,440.9,446.9z"/>
	<linearGradient id="SVGID_32_" gradientUnits="userSpaceOnUse" x1="281.1003" y1="184.887" x2="462.0541" y2="184.887">
		<stop  offset="0" style="stop-color:#E5700F"/>
		<stop  offset="1" style="stop-color:#FEBA1C"/>
	</linearGradient>
	<path class="st33" d="M371.7,193.4c-27.5,0-54.9,0-82.4,0c-1.1,0-2.3,0.1-3.4-0.1c-3-0.5-4.9-4-4.9-8.6c0-4.3,1.9-7.7,4.8-8.3
		c1-0.2,2-0.1,3.1-0.1c55.1,0,110.2,0,165.3,0c5.3,0,7.7,2.6,7.8,8.5c0,5.9-2.4,8.6-7.7,8.6C426.8,193.4,399.3,193.4,371.7,193.4z"
		/>
	<linearGradient id="SVGID_33_" gradientUnits="userSpaceOnUse" x1="281.1151" y1="104.2647" x2="462.0343" y2="104.2647">
		<stop  offset="0" style="stop-color:#E5700F"/>
		<stop  offset="1" style="stop-color:#FEBA1C"/>
	</linearGradient>
	<path class="st34" d="M371.5,95.6c27.4,0,54.7,0,82.1,0c1.3,0,2.7,0,4,0.3c2.7,0.6,4.2,3.3,4.4,7.6c0.2,4.6-1.2,7.6-3.9,8.9
		c-1,0.4-2,0.5-3,0.5c-54.9,0-109.8,0-164.7,0c-1.6,0-3.3,0.1-4.9-0.4c-2.8-0.8-4.6-4.4-4.3-8.8c0.2-4.5,1.8-7.3,4.6-7.8
		c1.2-0.2,2.5-0.2,3.7-0.2C316.8,95.6,344.2,95.6,371.5,95.6z"/>
	<linearGradient id="SVGID_34_" gradientUnits="userSpaceOnUse" x1="281.092" y1="305.9161" x2="418.8875" y2="305.9161">
		<stop  offset="0" style="stop-color:#E5700F"/>
		<stop  offset="1" style="stop-color:#FEBA1C"/>
	</linearGradient>
	<path class="st35" d="M349.8,314.5c-20.3,0-40.6,0-60.9,0c-1,0-2.1,0.1-3.1-0.1c-2.8-0.5-4.7-3.8-4.8-8.1c-0.1-4.4,1.7-8,4.5-8.7
		c1.1-0.3,2.2-0.2,3.4-0.2c40.7,0,81.3,0,122,0c1.2,0,2.5-0.1,3.7,0.3c2.5,0.7,4.3,4.4,4.2,8.5c-0.1,4.1-1.9,7.5-4.5,8.1
		c-1.1,0.2-2.2,0.2-3.4,0.2C390.6,314.5,370.2,314.5,349.8,314.5z"/>
	<linearGradient id="SVGID_35_" gradientUnits="userSpaceOnUse" x1="281.0981" y1="225.2553" x2="406.7076" y2="225.2553">
		<stop  offset="0" style="stop-color:#E5700F"/>
		<stop  offset="1" style="stop-color:#FEBA1C"/>
	</linearGradient>
	<path class="st36" d="M343.8,233.9c-18.4,0-36.8,0-55.3,0c-1.4,0-2.9-0.1-4.2-0.9c-2.4-1.4-3.5-4.5-3.2-8.6c0.3-3.9,1.6-6.4,4-7.2
		c1.3-0.4,2.6-0.5,4-0.5c36.4,0,72.9,0,109.3,0c1.4,0,2.9,0,4.3,0.5c2.5,0.8,3.9,3.5,4.1,7.6c0.2,4.1-1,7.1-3.4,8.4
		c-1.3,0.7-2.8,0.8-4.2,0.8C380.7,233.9,362.2,233.9,343.8,233.9z"/>
	<linearGradient id="SVGID_36_" gradientUnits="userSpaceOnUse" x1="356.2901" y1="265.6034" x2="462.02" y2="265.6034">
		<stop  offset="0" style="stop-color:#E5700F"/>
		<stop  offset="1" style="stop-color:#FEBA1C"/>
	</linearGradient>
	<path class="st37" d="M409,274.3c-14.9,0-29.9,0-44.8,0c-5.2,0-7.8-2.8-7.9-8.5c-0.1-5.8,2.6-8.9,8-8.9c30.1,0,60.2,0,90.3,0
		c1.3,0,2.7,0.1,3.9,0.8c2.5,1.2,3.6,4.1,3.5,8.2c-0.1,4.1-1.4,6.9-3.9,7.8c-1.2,0.4-2.4,0.5-3.7,0.5
		C439.3,274.3,424.2,274.3,409,274.3C409,274.3,409,274.3,409,274.3z"/>
	<linearGradient id="SVGID_37_" gradientUnits="userSpaceOnUse" x1="281.1463" y1="144.5566" x2="381.9038" y2="144.5566">
		<stop  offset="0" style="stop-color:#E5700F"/>
		<stop  offset="1" style="stop-color:#FEBA1C"/>
	</linearGradient>
	<path class="st38" d="M331.3,153.3c-14.2,0-28.5,0-42.7,0c-1.3,0-2.7-0.1-3.9-0.8c-2.3-1.2-3.8-4.1-3.4-7.8
		c0.4-2.8,1.7-5.8,3.1-7.7c0.9-1.2,2.7-1,4.1-1c28.5,0,57,0,85.4,0c5.3,0,8.1,3.1,8,8.9c-0.1,5.7-2.7,8.5-7.9,8.5
		C359.7,153.2,345.5,153.3,331.3,153.3z"/>
	<linearGradient id="SVGID_38_" gradientUnits="userSpaceOnUse" x1="387.6423" y1="144.5363" x2="462.0279" y2="144.5363">
		<stop  offset="0" style="stop-color:#E5700F"/>
		<stop  offset="1" style="stop-color:#FEBA1C"/>
	</linearGradient>
	<path class="st39" d="M425,135.9c10.1,0,20.3,0,30.4,0c4.2,0,6.6,3.1,6.6,8.4c0,4.3-1.2,7.3-3.9,8.3c-1.3,0.5-2.6,0.6-4,0.6
		c-19.5,0-39.1,0-58.6,0c-5.2,0-7.8-2.8-7.9-8.5c-0.1-5.9,2.6-9,7.9-9C405.4,135.8,415.2,135.8,425,135.9
		C425,135.8,425,135.8,425,135.9z"/>
	<linearGradient id="SVGID_39_" gradientUnits="userSpaceOnUse" x1="281.1306" y1="265.5836" x2="351.2053" y2="265.5836">
		<stop  offset="0" style="stop-color:#E5700F"/>
		<stop  offset="1" style="stop-color:#FEBA1C"/>
	</linearGradient>
	<path class="st40" d="M315.9,274.3c-9,0-18,0-27,0c-1.2,0-2.5-0.1-3.7-0.5c-2.5-0.8-3.9-3.5-4.1-7.6c-0.2-4.3,1.1-7.3,3.7-8.5
		c1.2-0.5,2.4-0.7,3.6-0.7c18.4,0,36.8,0,55.3,0c1,0,2.1,0,3,0.4c2.8,1,4.7,4.6,4.4,8.7c-0.3,4.4-1.8,7.5-4.6,7.9
		c-2.7,0.4-5.5,0.3-8.3,0.4C330.8,274.3,323.3,274.3,315.9,274.3z"/>
	<linearGradient id="SVGID_40_" gradientUnits="userSpaceOnUse" x1="370.4131" y1="442.9024" x2="407.2895" y2="442.9024">
		<stop  offset="0" style="stop-color:#E5700F"/>
		<stop  offset="1" style="stop-color:#FEBA1C"/>
	</linearGradient>
	<path class="st41" d="M407.3,421c-0.5,1.1-1.3,4.6-2.6,5.4c-8.7,5.2-13.8,16.7-18.9,28.1c-2.1,4.6-3.5,10-5.1,15.1
		c-1.3,4.3-3.7,6.6-6.5,5.3c-2.6-1.2-4.6-5.6-3.6-10c1.2-5.7,2.6-11.7,4.8-16.4c4.5-9.7,9.3-19.2,14.7-27.8
		c2.8-4.4,6.8-7.3,10.5-9.6C404.1,409,407.3,413.5,407.3,421z"/>
	<linearGradient id="SVGID_41_" gradientUnits="userSpaceOnUse" x1="412.6872" y1="225.2703" x2="462.062" y2="225.2703">
		<stop  offset="0" style="stop-color:#E5700F"/>
		<stop  offset="1" style="stop-color:#FEBA1C"/>
	</linearGradient>
	<path class="st42" d="M437.3,233.9c-5.8,0-11.7,0.1-17.5,0c-1.3,0-2.7-0.2-3.9-0.9c-2.3-1.5-3.5-4.6-3.2-8.7c0.3-3.8,1.6-6.4,4-7.2
		c1-0.4,2-0.4,3-0.4c11.7,0,23.3-0.1,35,0c1.5,0,3.1,0.2,4.5,1.2c2.5,1.8,3.2,5.5,2.6,9.6c-0.7,4.5-2.8,6.4-5.5,6.4
		C450,234,443.7,233.9,437.3,233.9z"/>
</g>
<g class="st0">
	<g class="st9">
		<g>
			<linearGradient id="SVGID_42_" gradientUnits="userSpaceOnUse" x1="-6" y1="285.9064" x2="506.0005" y2="285.9064">
				<stop  offset="0" style="stop-color:#E5700F"/>
				<stop  offset="1" style="stop-color:#FEBA1C"/>
			</linearGradient>
			<path class="st43" d="M496.6,162.5c-14.6-7.6-46.5-7.5-59.1,8.2c-4.8,6-9.3,11.8-14,17.8c-12.2,15.8-26.1,33.7-51.5,62.8
				c-5.7,6.5-13.1,11.9-21.7,16.4c0.3-1.3,0.5-2.6,0.6-3.9c0.9-10.6-4-20.8-12.6-26.7c-10.2-7-24-7.2-37.8-0.4
				c-17.7,8.6-37.4,8.5-56.5,8.4c-2.3,0-4.6,0-6.8,0c-8.1,0-16.4-3.5-26.1-7.6c-13.1-5.5-28-11.8-47.4-11.8
				c-21.9,0-43.2,12.9-56.6,22.9v-4.1c0-4.5-3.6-8.1-8.1-8.1h-97c-4.5,0-8.1,3.6-8.1,8.1v161.6c0,4.5,3.6,8.1,8.1,8.1h97
				c4.5,0,8.1-3.6,8.1-8.1v-15.5c35,4.9,66.5,6.8,94.8,6.8c56.8,0,101-7.8,135.9-15.8c33.6-7.7,96.3-73.4,131.4-138
				c6.6-12.1,13.6-23.7,19.7-33.9c8.5-14.1,14.7-24.2,16.5-30.4C506.2,176.9,507.8,168.3,496.6,162.5z M91,398H10.2V252.6H91
				C91,252.6,91,398,91,398z M475.2,201.5c-6.2,10.3-13.3,22-20.1,34.5c-35.2,64.8-94.9,124-120.8,130
				C283,377.6,211,389,107.1,374.3V269.5c7.7-6.9,32.7-27.7,56.6-27.7c16.2,0,28.9,5.4,41.2,10.5c10.8,4.6,21.1,8.9,32.4,8.9
				c2.2,0,4.5,0,6.7,0c19.9,0.1,42.6,0.3,63.7-10c8.4-4.1,16.2-4.4,21.6-0.7c3.9,2.7,6.1,7.2,5.6,12.1c-0.5,6.5-5.6,12.5-13.8,16.4
				c-41.8,11.4-94.4,11.4-125,11.4c-4.5,0-8.1,3.6-8.1,8.1s3.6,8.1,8.1,8.1c30.2,0,65.3-0.4,99.2-5.7c42.9-6.7,72.1-19.3,89-38.7
				c25.8-29.4,39.8-47.6,52.1-63.5c4.7-6,9.1-11.7,13.8-17.6c3.2-4,11-6.7,20.5-7c8.7-0.3,15.7,1.5,18.5,3
				C487,181.9,481.2,191.5,475.2,201.5z"/>
			<linearGradient id="SVGID_43_" gradientUnits="userSpaceOnUse" x1="280.784" y1="139.922" x2="307.723" y2="139.922">
				<stop  offset="0" style="stop-color:#E5700F"/>
				<stop  offset="1" style="stop-color:#FEBA1C"/>
			</linearGradient>
			<path class="st44" d="M294.3,153.4c7.4,0,13.5-6,13.5-13.5c0-7.4-6-13.5-13.5-13.5c-7.4,0-13.5,6-13.5,13.5
				C280.8,147.3,286.8,153.4,294.3,153.4z"/>
			<linearGradient id="SVGID_44_" gradientUnits="userSpaceOnUse" x1="179.505" y1="172.82" x2="350.7988" y2="172.82">
				<stop  offset="0" style="stop-color:#E5700F"/>
				<stop  offset="1" style="stop-color:#FEBA1C"/>
			</linearGradient>
			<path class="st45" d="M187.6,262.3h30.5c4.5,0,8.1-3.6,8.1-8.1v-7.2h7.2c2.1,0,8.1-3,8.1-8.1v-7.2h7.2c4.5,0,8.1-3.6,8.1-8.1
				v-7.2h7.2c2.1,0,4.2-0.9,5.7-2.4l18.1-18.1c2.2,0.3,4.4,0.4,6.7,0.4c0,0,0,0,0,0c15.1,0,29.3-5.9,40-16.6
				c22.1-22.1,22.1-57.9,0-80c-10.7-10.7-24.9-16.6-40-16.6c-15.1,0-29.3,5.9-40,16.6c-15.5,15.5-20.5,38.6-13.3,59L181.9,218
				c-1.5,1.5-2.4,3.6-2.4,5.7v30.5C179.5,258.7,183.1,262.3,187.6,262.3z M195.7,227.1l60.5-60.5c2.4-2.4,3.1-6.1,1.6-9.2
				c-7.4-15.4-4.2-33.9,7.9-46c7.6-7.6,17.8-11.8,28.6-11.8s20.9,4.2,28.6,11.8c15.8,15.8,15.8,41.4,0,57.1
				c-7.6,7.6-17.8,11.8-28.6,11.8c0,0,0,0,0,0c-2.6,0-5.3-0.3-7.9-0.8c-2.6-0.5-5.4,0.3-7.3,2.2l-18.6,18.6h-11.9
				c-4.5,0-8.1,3.6-8.1,8.1v7.2h-7.2c-4.5,0-8.1,3.6-8.1,8.1v7.2h-7.2h0c-4.2,0-8.1,3.5-8.1,8.1v7.2h-14.3L195.7,227.1L195.7,227.1z
				"/>
			<linearGradient id="SVGID_45_" gradientUnits="userSpaceOnUse" x1="7.101" y1="387.75" x2="34.04" y2="387.75">
				<stop  offset="0" style="stop-color:#E5700F"/>
				<stop  offset="1" style="stop-color:#FEBA1C"/>
			</linearGradient>
			<path class="st46" d="M20.6,401.2c7.4,0,13.5-6,13.5-13.5c0-7.4-6-13.5-13.5-13.5c-7.4,0-13.5,6-13.5,13.5
				C7.1,395.2,13.1,401.2,20.6,401.2z"/>
		</g>
	</g>
</g>
<linearGradient id="SVGID_46_" gradientUnits="userSpaceOnUse" x1="136.6839" y1="273.7104" x2="203.0988" y2="273.7104">
	<stop  offset="0" style="stop-color:#E5700F"/>
	<stop  offset="1" style="stop-color:#FEBA1C"/>
</linearGradient>
<path class="st47" d="M201.4,264.7c-2.6-3.2-7.4-3.7-10.6-1c-5.3,4.4-12.9,6.9-20.9,6.9c-8,0-15.6-2.5-20.9-6.9
	c-3.2-2.6-7.9-2.2-10.6,1c-2.6,3.2-2.2,7.9,1,10.6c8.1,6.6,18.9,10.3,30.5,10.3c11.6,0,22.4-3.6,30.5-10.3
	C203.6,272.6,204,267.9,201.4,264.7z"/>
<linearGradient id="SVGID_47_" gradientUnits="userSpaceOnUse" x1="119.547" y1="222.2965" x2="134.547" y2="222.2965">
	<stop  offset="0" style="stop-color:#E5700F"/>
	<stop  offset="1" style="stop-color:#FEBA1C"/>
</linearGradient>
<path class="st48" d="M127,210.5c-4.1,0-7.5,3.4-7.5,7.5v8.6c0,4.1,3.4,7.5,7.5,7.5s7.5-3.4,7.5-7.5V218
	C134.5,213.9,131.2,210.5,127,210.5z"/>
<linearGradient id="SVGID_48_" gradientUnits="userSpaceOnUse" x1="205.236" y1="222.2965" x2="220.236" y2="222.2965">
	<stop  offset="0" style="stop-color:#E5700F"/>
	<stop  offset="1" style="stop-color:#FEBA1C"/>
</linearGradient>
<path class="st49" d="M212.7,234.1c4.1,0,7.5-3.4,7.5-7.5V218c0-4.1-3.4-7.5-7.5-7.5s-7.5,3.4-7.5,7.5v8.6
	C205.2,230.7,208.6,234.1,212.7,234.1z"/>
<linearGradient id="SVGID_49_" gradientUnits="userSpaceOnUse" x1="16.719" y1="277.995" x2="288.788" y2="277.995">
	<stop  offset="0" style="stop-color:#E5700F"/>
	<stop  offset="1" style="stop-color:#FEBA1C"/>
</linearGradient>
<path class="st50" d="M109.8,372.1l6.4-3.2c11.3-5.7,18.4-17,18.4-29.7v-8.7c11.3,4.2,23.3,6.3,35.5,6.3c7,0,14.1-0.7,21.2-2.1
	c22.6-4.6,43.1-17.3,57.8-35.6c14.6-18.3,22.6-41.1,22.6-64.2c-0.1-44.4-33.8-52.2-72.8-61.3c-19-4.4-40.5-9.4-62-19.2
	c-7.1-3.2-15.5-1-19.9,5.4c-14.6,21-30,33.6-41.3,33.6c-3.4,0-6.7,0.7-9.6,2v-20.2c0-57.3,46.6-103.9,103.9-103.9
	s103.9,46.6,103.9,103.9v17.1c0,4.1,3.4,7.5,7.5,7.5c4.1,0,7.5-3.4,7.5-7.5v-17.1c0-44.2-24.3-82.9-60.2-103.4
	c0.1-1.3,0.2-2.5,0.2-3.8c0-25.4-26.4-46.1-58.9-46.1C137.4,22,111,42.7,111,68.1c0,1.3,0.1,2.5,0.2,3.8C75.3,92.3,51,131,51,175.2
	V218c0,11,7.3,20.4,17.3,23.5c1.8,28.3,15.1,54.4,37.2,72.5c4.4,3.6,9.1,6.8,14,9.6v15.7c0,6.9-3.9,13.2-10.1,16.3l-74.4,37.2
	c-11.3,5.7-18.4,17-18.4,29.7v35.5c0,6.2,3.5,11.5,8.6,14.2v54.4c0,4.1,3.4,7.5,7.5,7.5s7.5-3.4,7.5-7.5V474h27.8v52.5
	c0,4.1,3.4,7.5,7.5,7.5s7.5-3.4,7.5-7.5v-77.1c0-4.1-3.4-7.5-7.5-7.5s-7.5,3.4-7.5,7.5v9.6H32.8c-0.6,0-1.1-0.5-1.1-1.1v-35.5
	c0-6.9,3.9-13.2,10.1-16.3l54.6-27.3c11.2,20,33.1,40.8,34.1,41.7c1.4,1.4,3.3,2,5.1,2c2,0,4-0.8,5.5-2.4c2.8-3,2.7-7.8-0.3-10.6
	C140.5,409.4,119.9,389.9,109.8,372.1z M169.9,37c22.5,0,41.2,12.1,43.6,27.6c-13.5-5.3-28.2-8.3-43.6-8.3
	c-15.4,0-30.1,2.9-43.6,8.3C128.7,49.1,147.3,37,169.9,37z M115.1,302.4c-20.3-16.6-31.9-41.1-31.9-67.2c0-4.1-3.4-7.5-7.5-7.5
	c-5.3,0-9.6-4.3-9.6-9.6s4.3-9.6,9.6-9.6c22.5,0,43.3-25.1,53.6-40.1c0.2-0.3,0.5-0.4,0.8-0.4c0.2,0,0.4,0.1,0.6,0.1l0,0
	c22.8,10.3,45.1,15.5,64.7,20.1c41.3,9.6,61.1,15.6,61.2,46.8c0.1,19.7-6.8,39.2-19.3,54.8c-12.5,15.6-30,26.4-49.1,30.3
	C162,325.4,135.3,318.9,115.1,302.4z"/>
<linearGradient id="SVGID_50_" gradientUnits="userSpaceOnUse" x1="153.8622" y1="402.2656" x2="417.2823" y2="402.2656">
	<stop  offset="0" style="stop-color:#E5700F"/>
	<stop  offset="1" style="stop-color:#FEBA1C"/>
</linearGradient>
<path class="st51" d="M392.5,295.3c-33-33-86.7-33-119.7,0l-94.3,94.3c-33,33-33,86.7,0,119.7c16.5,16.5,38.2,24.7,59.8,24.7
	c21.2,0,42.3-7.9,58.7-23.6l12,20c2.1,3.6,6.7,4.7,10.3,2.6c3.6-2.1,4.7-6.7,2.6-10.3L298.8,484c-2.9-4.8-8.2-7.8-13.8-7.8h-12.3
	c-7.5,0-14.8-3.2-19.8-8.8c-5.1-5.6-7.6-13-6.8-20.7c1.3-13.5,13.6-24.1,28.1-24.1H290c13,0,24.9,7.1,31.1,18.6l47.9,88.9
	c1.4,2.5,3.9,3.9,6.6,3.9c1.2,0,2.4-0.3,3.5-0.9c3.6-2,5-6.5,3-10.2L348,459.5l44.5-44.5C425.5,382,425.5,328.3,392.5,295.3z
	 M231.1,445.3c-1.1,11.8,2.8,23.5,10.7,32.2c7.9,8.7,19.2,13.7,30.9,13.7H285c0.4,0,0.7,0.2,0.9,0.5l3.3,5.4l-1.5,1.5
	c-27.1,27.1-71.3,27.1-98.5,0c-27.1-27.1-27.1-71.3,0-98.5l22.3-22.3c7.6,7.5,22.5,21.7,40.5,35.7
	C240.5,420.3,232.4,431.9,231.1,445.3z M340.6,445.7l-6.3-11.6c-8.8-16.3-25.8-26.5-44.3-26.5h-15.8c-1.7,0-3.3,0.1-5,0.3
	c-20.6-15.1-38.6-32.2-47.1-40.6l61.4-61.4c27.1-27.1,71.3-27.1,98.5,0c13.1,13.1,20.4,30.6,20.4,49.2s-7.2,36.1-20.4,49.2
	L340.6,445.7z"/>
<linearGradient id="SVGID_51_" gradientUnits="userSpaceOnUse" x1="282.3813" y1="355.1147" x2="383.0227" y2="355.1147">
	<stop  offset="0" style="stop-color:#E5700F"/>
	<stop  offset="1" style="stop-color:#FEBA1C"/>
</linearGradient>
<path class="st52" d="M368.3,319.5c-19.6-19.6-51.6-19.6-71.2,0c-19.6,19.6-19.6,51.6,0,71.2c9.8,9.8,22.7,14.7,35.6,14.7
	s25.8-4.9,35.6-14.7C387.9,371.1,387.9,339.1,368.3,319.5z M357.7,380.1c-13.8,13.8-36.2,13.8-50,0c-13.8-13.8-13.8-36.2,0-50
	c6.9-6.9,15.9-10.3,25-10.3s18.1,3.4,25,10.3C371.5,343.9,371.5,366.3,357.7,380.1z"/>
<linearGradient id="SVGID_52_" gradientUnits="userSpaceOnUse" x1="313.02" y1="342.995" x2="328.02" y2="342.995">
	<stop  offset="0" style="stop-color:#E5700F"/>
	<stop  offset="1" style="stop-color:#FEBA1C"/>
</linearGradient>
<circle class="st53" cx="320.5" cy="343" r="7.5"/>
<linearGradient id="SVGID_53_" gradientUnits="userSpaceOnUse" x1="337.27" y1="367.165" x2="352.27" y2="367.165">
	<stop  offset="0" style="stop-color:#E5700F"/>
	<stop  offset="1" style="stop-color:#FEBA1C"/>
</linearGradient>
<circle class="st54" cx="344.8" cy="367.2" r="7.5"/>
<linearGradient id="SVGID_54_" gradientUnits="userSpaceOnUse" x1="-30.683" y1="352.619" x2="213.374" y2="352.619">
	<stop  offset="0" style="stop-color:#E5700F"/>
	<stop  offset="1" style="stop-color:#FEBA1C"/>
</linearGradient>
<path class="st55" d="M174.4,407.2h-23.4l0-17.2c19.1-16.7,31.1-41.2,31.1-68.4v-29.9c6.1-30.6,3.3-53.3-8.3-67.5
	c-7.3-8.9-16.4-12.3-22.8-13.6v-34.5c0-4.3-3.5-7.8-7.8-7.8c-3,0-6,0-9.1,0c-3.2,0-6.5,0-9.8,0c-37.6,0-79.8,2.4-104.8,30.8
	c-18,20.4-24.3,50.6-19.1,92.2v30.3c0,27.3,12.1,51.8,31.2,68.4v17.2H8.3c-21.5,0-38.9,17.5-38.9,38.9v83.1c0,4.3,3.5,7.8,7.8,7.8
	h228.5c4.3,0,7.8-3.5,7.8-7.8v-83.1c0,0,0,0,0,0C213.4,424.6,195.9,407.2,174.4,407.2z M135.5,410.8l-23.9,15.9l-12.4-6.2V412
	c13.1-1.1,25.4-5,36.4-11.1L135.5,410.8z M31.2,209.3c20.8-23.5,59-25.5,93.1-25.5c3.3,0,6.5,0,9.7,0c0.5,0,0.9,0,1.4,0v33.8
	c0,2.1,0.9,4.2,2.4,5.7c1.6,1.5,3.6,2.2,5.8,2.1c0.7,0,11-0.2,18.2,8.6c5.3,6.5,8,16.4,7.9,29.3l-3.4-6.8c-1.7-3.4-5.7-5.1-9.3-3.9
	c-0.5,0.1-46.6,14.8-73.2,14.8c-25.5,0-48.6-13.8-48.9-14c-3.4-2.1-7.9-1.2-10.3,2l-10.3,13.7C13.8,242.8,19.4,222.7,31.2,209.3z
	 M16.1,321.5v-28.7l17.1-22.7c9.6,4.8,29.1,12.9,50.7,12.9c23.1,0,57.4-9.4,71.6-13.5l11.2,22.5v29.6c0,41.5-33.8,75.3-75.3,75.3
	C49.8,396.8,16.1,363,16.1,321.5z M83.6,412v8l-16.8,6.7l-19.5-15.6v-10.3C58.1,407,70.5,410.9,83.6,412z M197.8,521.4h-36.3V498
	c0-4.3-3.5-7.8-7.8-7.8s-7.8,3.5-7.8,7.8v23.4H36.8V498c0-4.3-3.5-7.8-7.8-7.8s-7.8,3.5-7.8,7.8v23.4h-36.3v-75.3
	c0-12.9,10.5-23.4,23.4-23.4h28.4l23.8,19.1c0.1,0.1,0.2,0.1,0.2,0.1c0.2,0.2,0.4,0.3,0.7,0.4c0.1,0.1,0.3,0.2,0.4,0.2
	c0.2,0.1,0.4,0.2,0.7,0.3c0.2,0.1,0.3,0.1,0.5,0.2c0.3,0.1,0.5,0.1,0.8,0.2c0.1,0,0.3,0.1,0.4,0.1c0.4,0.1,0.8,0.1,1.2,0.1
	c0.3,0,0.5,0,0.8,0c0,0,0.1,0,0.1,0c0.2,0,0.4-0.1,0.6-0.1c0.1,0,0.2,0,0.3-0.1c0.2,0,0.3-0.1,0.5-0.1c0.1,0,0.2-0.1,0.3-0.1
	c0.1,0,0.1,0,0.2-0.1l22.7-9.1l17.5,8.7c0,0,0,0,0,0l0.1,0.1c0.1,0.1,0.2,0.1,0.3,0.1c0.2,0.1,0.3,0.1,0.5,0.2
	c0.2,0.1,0.4,0.1,0.6,0.2c0.1,0,0.2,0.1,0.3,0.1c0.3,0.1,0.6,0.1,0.8,0.2c0,0,0,0,0.1,0c0.3,0,0.6,0.1,0.9,0.1c0.4,0,0.7,0,1.1-0.1
	c0.2,0,0.3-0.1,0.5-0.1c0.2,0,0.4-0.1,0.6-0.1c0.2,0,0.3-0.1,0.5-0.2c0.2-0.1,0.4-0.1,0.6-0.2c0.1-0.1,0.3-0.1,0.4-0.2
	c0.2-0.1,0.4-0.2,0.6-0.3c0,0,0.1,0,0.1-0.1l29.2-19.5h28.8c12.9,0,23.4,10.5,23.4,23.4c0,0,0,0,0,0L197.8,521.4L197.8,521.4z"/>
<linearGradient id="SVGID_55_" gradientUnits="userSpaceOnUse" x1="228.954" y1="342.249" x2="473.012" y2="342.249">
	<stop  offset="0" style="stop-color:#E5700F"/>
	<stop  offset="1" style="stop-color:#FEBA1C"/>
</linearGradient>
<path class="st56" d="M473,269.5C473,269.5,473,269.5,473,269.5c0-67.3-54.8-122-122-122c-67.3,0-122,54.7-122,122v187v72.7
	c0,4.3,3.5,7.8,7.8,7.8h228.5c4.3,0,7.8-3.5,7.8-7.8v-72.7c0,0,0,0,0,0L473,269.5L473,269.5z M351,163.1
	c58.7,0,106.5,47.8,106.5,106.4c0,0,0,0,0,0v155.8c-6.5-4.9-14.6-7.8-23.4-7.8h-30.9c-0.1,0-0.2,0-0.3,0s-0.2,0-0.3,0h-12.7l0-14
	c30.7-14.6,51.9-45.9,51.9-82.1V280c0-4.3-3.5-7.8-7.8-7.8h-13v-13c0-4.3-3.5-7.8-7.8-7.8s-7.8,3.5-7.8,7.8v13h-15.6v-13
	c0-4.3-3.5-7.8-7.8-7.8s-7.8,3.5-7.8,7.8v13h-15.6v-13c0-4.3-3.5-7.8-7.8-7.8s-7.8,3.5-7.8,7.8v13h-15.6v-13c0-4.3-3.5-7.8-7.8-7.8
	s-7.8,3.5-7.8,7.8v13h-15.6v-13c0-4.3-3.5-7.8-7.8-7.8s-7.8,3.5-7.8,7.8v13h-13c-4.3,0-7.8,3.5-7.8,7.8v41.6
	c0,36.2,21.3,67.5,51.9,82.1v14h-12.7c-0.1,0-0.2,0-0.3,0c-0.1,0-0.2,0-0.3,0h-30.9c-8.8,0-16.9,2.9-23.4,7.8V269.5
	C244.5,210.8,292.3,163.1,351,163.1z M275.7,287.7h150.6v33.8c0,41.5-33.8,75.3-75.3,75.3s-75.3-33.8-75.3-75.3L275.7,287.7
	L275.7,287.7z M319.8,433.1c4.3,0,7.8-3.5,7.8-7.8v-16c7.5,2,15.3,3,23.4,3c8.1,0,15.9-1.1,23.4-3.1l0,16v0c0,0,0,0,0,0
	c0,0.1,0,0.3,0,0.4c0,0.1,0,0.3,0,0.4c0,0.1,0,0.2,0.1,0.4c0,0.1,0,0.3,0.1,0.4c0,0.1,0.1,0.2,0.1,0.4c0,0.1,0.1,0.3,0.1,0.4
	c0,0.1,0.1,0.3,0.1,0.4c0,0.1,0.1,0.2,0.1,0.3c0.1,0.2,0.2,0.4,0.3,0.5c0,0,0,0.1,0.1,0.1c1.1,2,3,3.4,5.3,3.9c0,0,0,0,0,0
	c0.2,0,0.4,0.1,0.6,0.1c0.1,0,0.1,0,0.2,0c0.2,0,0.3,0,0.5,0c0.1,0,0.2,0,0.3,0c0,0,0,0,0,0h12.3c-3.7,20.6-21.8,36.3-43.4,36.3
	s-39.7-15.7-43.4-36.3L319.8,433.1L319.8,433.1z M457.4,521.4h-36.3V498c0-4.3-3.5-7.8-7.8-7.8s-7.8,3.5-7.8,7.8v23.4H296.5V498
	c0-4.3-3.5-7.8-7.8-7.8s-7.8,3.5-7.8,7.8v23.4h-36.3v-64.9c0-12.9,10.5-23.4,23.4-23.4h23.9c3.8,29.3,28.9,51.9,59.2,51.9
	s55.4-22.7,59.2-51.9h23.9c12.9,0,23.4,10.5,23.4,23.3c0,0,0,0,0,0L457.4,521.4L457.4,521.4z"/>
<g class="st0">
	<linearGradient id="SVGID_56_" gradientUnits="userSpaceOnUse" x1="219.1266" y1="94.6818" x2="310.9148" y2="94.6818">
		<stop  offset="0" style="stop-color:#E5700F"/>
		<stop  offset="1" style="stop-color:#FEBA1C"/>
	</linearGradient>
	<path class="st57" d="M296.6,39.5c-9.2-9.2-21.5-14.3-34.6-14.3c-13.1,0-25.3,5.1-34.6,14.3c-0.5,0.5-0.9,1.1-1.1,1.8
		c-0.3,1.2-0.1,2.5,0.7,3.4l8.3,11.5l-13.9,18c-1.3,1.7-1,4.1,0.6,5.5L238,92.8l-13.7,17.9c-1.1,1.4-1.1,3.3,0,4.8l11.8,15.8
		l-15.1,9.3c-1,0.6-1.7,1.7-1.9,2.9c-0.1,1.2,0.3,2.4,1.1,3.3l16.3,16.3c0.7,0.7,1.8,1.2,2.8,1.2c0.1,0,0.2,0,0.2,0
		c1-0.1,1.9-0.5,2.6-1.2l54.4-54.4c9.2-9.2,14.3-21.5,14.3-34.6C310.9,61,305.8,48.7,296.6,39.5L296.6,39.5z M291,103.1l-51.6,51.6
		l-10-10l14.5-9c0.9-0.6,1.6-1.5,1.8-2.6c0.2-1.1-0.1-2.2-0.7-3.1l-12.6-16.9l14.2-18.6c1.3-1.7,1-4.1-0.6-5.5L229.9,76l13.4-17.3
		c1.1-1.4,1.1-3.3,0.1-4.7l-8-11.2c7.4-6.3,16.7-9.8,26.6-9.8c11,0,21.3,4.3,29,12c7.8,7.8,12,18.1,12,29S298.7,95.3,291,103.1
		L291,103.1z M291,103.1"/>
	<g class="st9">
		<linearGradient id="SVGID_57_" gradientUnits="userSpaceOnUse" x1="121.164" y1="99.2955" x2="219.2624" y2="99.2955">
			<stop  offset="0" style="stop-color:#E5700F"/>
			<stop  offset="1" style="stop-color:#FEBA1C"/>
		</linearGradient>
		<path class="st58" d="M201.2,144.7l14.5-9c0.9-0.6,1.6-1.5,1.8-2.6c0.2-1.1,0-2.2-0.7-3.1l-12.6-16.9l14.2-18.6
			c1.3-1.7,1-4.1-0.6-5.5L201.7,76l13.4-17.3c1.1-1.4,1.1-3.3,0.1-4.7L208,43.9c-3.5-4.9-7.8-8.9-12.8-11.9
			c-19.3-11.4-43.8-8.4-59.6,7.5c-9.2,9.2-14.3,21.5-14.3,34.6c0,13.1,5.1,25.4,14.3,34.6l63.6,63.6c0.8,0.8,1.8,1.2,2.8,1.2
			s2-0.4,2.8-1.2l9.2-9.2c0.4-0.3,0.6-0.7,0.9-1.2c0.7-1.5,0.4-3.3-0.8-4.5L201.2,144.7z M201.9,163.9l-60.8-60.8
			c-7.8-7.8-12-18.1-12-29s4.3-21.3,12-29c7.9-7.9,18.4-12,29-12c7.2,0,14.4,1.9,20.9,5.8c4,2.4,7.6,5.7,10.5,9.7l5.5,7.7l-13.9,18
			c-1.3,1.7-1,4.1,0.6,5.5l16.1,13.1l-13.7,17.9c-1.1,1.4-1.1,3.3,0,4.8l11.8,15.8l-15.1,9.3c-1,0.6-1.7,1.7-1.9,2.9
			c-0.1,1.2,0.3,2.4,1.1,3.3l13.5,13.5L201.9,163.9z M201.9,163.9"/>
	</g>
</g>
<linearGradient id="SVGID_58_" gradientUnits="userSpaceOnUse" x1="135.8479" y1="274.7104" x2="202.2628" y2="274.7104">
	<stop  offset="0" style="stop-color:#E5700F"/>
	<stop  offset="1" style="stop-color:#FEBA1C"/>
</linearGradient>
<path class="st59" d="M200.6,265.7c-2.6-3.2-7.4-3.7-10.6-1c-5.3,4.4-12.9,6.9-20.9,6.9c-8,0-15.6-2.5-20.9-6.9
	c-3.2-2.6-7.9-2.2-10.6,1c-2.6,3.2-2.2,7.9,1,10.6c8.1,6.6,18.9,10.3,30.5,10.3c11.6,0,22.4-3.6,30.5-10.3
	C202.7,273.6,203.2,268.9,200.6,265.7z"/>
<linearGradient id="SVGID_59_" gradientUnits="userSpaceOnUse" x1="118.711" y1="223.2965" x2="133.711" y2="223.2965">
	<stop  offset="0" style="stop-color:#E5700F"/>
	<stop  offset="1" style="stop-color:#FEBA1C"/>
</linearGradient>
<path class="st60" d="M126.2,211.5c-4.1,0-7.5,3.4-7.5,7.5v8.6c0,4.1,3.4,7.5,7.5,7.5s7.5-3.4,7.5-7.5V219
	C133.7,214.9,130.4,211.5,126.2,211.5z"/>
<linearGradient id="SVGID_60_" gradientUnits="userSpaceOnUse" x1="204.4" y1="223.2965" x2="219.4" y2="223.2965">
	<stop  offset="0" style="stop-color:#E5700F"/>
	<stop  offset="1" style="stop-color:#FEBA1C"/>
</linearGradient>
<path class="st61" d="M211.9,235.1c4.1,0,7.5-3.4,7.5-7.5V219c0-4.1-3.4-7.5-7.5-7.5s-7.5,3.4-7.5,7.5v8.6
	C204.4,231.7,207.8,235.1,211.9,235.1z"/>
<linearGradient id="SVGID_61_" gradientUnits="userSpaceOnUse" x1="15.883" y1="278.995" x2="287.952" y2="278.995">
	<stop  offset="0" style="stop-color:#E5700F"/>
	<stop  offset="1" style="stop-color:#FEBA1C"/>
</linearGradient>
<path class="st62" d="M108.9,373.1l6.4-3.2c11.3-5.7,18.4-17,18.4-29.7v-8.7c11.3,4.2,23.3,6.3,35.5,6.3c7,0,14.1-0.7,21.2-2.1
	c22.6-4.6,43.1-17.3,57.8-35.6c14.6-18.3,22.6-41.1,22.6-64.2c-0.1-44.4-33.8-52.2-72.8-61.3c-19-4.4-40.5-9.4-62-19.2
	c-7.1-3.2-15.5-1-19.9,5.4c-14.6,21-30,33.6-41.3,33.6c-3.4,0-6.7,0.7-9.6,2v-20.2c0-57.3,46.6-103.9,103.9-103.9
	S273,118.9,273,176.2v17.1c0,4.1,3.4,7.5,7.5,7.5c4.1,0,7.5-3.4,7.5-7.5v-17.1c0-44.2-24.3-82.9-60.2-103.4c0.1-1.3,0.2-2.5,0.2-3.8
	c0-25.4-26.4-46.1-58.9-46.1c-32.5,0-58.9,20.7-58.9,46.1c0,1.3,0.1,2.5,0.2,3.8C74.4,93.3,50.2,132,50.2,176.2V219
	c0,11,7.3,20.4,17.3,23.5c1.8,28.3,15.1,54.4,37.2,72.5c4.4,3.6,9.1,6.8,14,9.6v15.7c0,6.9-3.9,13.2-10.1,16.3l-74.4,37.2
	c-11.3,5.7-18.4,17-18.4,29.7v35.5c0,6.2,3.5,11.5,8.6,14.2v54.4c0,4.1,3.4,7.5,7.5,7.5s7.5-3.4,7.5-7.5V475h27.8v52.5
	c0,4.1,3.4,7.5,7.5,7.5s7.5-3.4,7.5-7.5v-77.1c0-4.1-3.4-7.5-7.5-7.5s-7.5,3.4-7.5,7.5v9.6H32c-0.6,0-1.1-0.5-1.1-1.1v-35.5
	c0-6.9,3.9-13.2,10.1-16.3l54.6-27.3c11.2,20,33.1,40.8,34.1,41.7c1.4,1.4,3.3,2,5.1,2c2,0,4-0.8,5.5-2.4c2.8-3,2.7-7.8-0.3-10.6
	C139.7,410.4,119.1,390.9,108.9,373.1z M169.1,38c22.5,0,41.2,12.1,43.6,27.6c-13.5-5.3-28.2-8.3-43.6-8.3
	c-15.4,0-30.1,2.9-43.6,8.3C127.9,50.1,146.5,38,169.1,38z M114.2,303.4c-20.3-16.6-31.9-41.1-31.9-67.2c0-4.1-3.4-7.5-7.5-7.5
	c-5.3,0-9.6-4.3-9.6-9.6s4.3-9.6,9.6-9.6c22.5,0,43.3-25.1,53.6-40.1c0.2-0.3,0.5-0.4,0.8-0.4c0.2,0,0.4,0.1,0.6,0.1l0,0
	c22.8,10.3,45.1,15.5,64.7,20.1c41.3,9.6,61.1,15.6,61.2,46.8c0.1,19.7-6.8,39.2-19.3,54.8c-12.5,15.6-30,26.4-49.1,30.3
	C161.2,326.4,134.5,319.9,114.2,303.4z"/>
<linearGradient id="SVGID_62_" gradientUnits="userSpaceOnUse" x1="153.0262" y1="403.2656" x2="416.4463" y2="403.2656">
	<stop  offset="0" style="stop-color:#E5700F"/>
	<stop  offset="1" style="stop-color:#FEBA1C"/>
</linearGradient>
<path class="st63" d="M391.7,296.3c-33-33-86.7-33-119.7,0l-94.3,94.3c-33,33-33,86.7,0,119.7c16.5,16.5,38.2,24.7,59.8,24.7
	c21.2,0,42.3-7.9,58.7-23.6l12,20c2.1,3.6,6.7,4.7,10.3,2.6c3.6-2.1,4.7-6.7,2.6-10.3L297.9,485c-2.9-4.8-8.2-7.8-13.8-7.8h-12.3
	c-7.5,0-14.8-3.2-19.8-8.8c-5.1-5.6-7.6-13-6.8-20.7c1.3-13.5,13.6-24.1,28.1-24.1h15.8c13,0,24.9,7.1,31.1,18.6l47.9,88.9
	c1.4,2.5,3.9,3.9,6.6,3.9c1.2,0,2.4-0.3,3.5-0.9c3.6-2,5-6.5,3-10.2l-34.2-63.4l44.5-44.5C424.7,383,424.7,329.3,391.7,296.3z
	 M230.3,446.3c-1.1,11.8,2.8,23.5,10.7,32.2c7.9,8.7,19.2,13.7,30.9,13.7h12.3c0.4,0,0.7,0.2,0.9,0.5l3.3,5.4l-1.5,1.5
	c-27.1,27.1-71.3,27.1-98.5,0c-27.1-27.1-27.1-71.3,0-98.5l22.3-22.3c7.6,7.5,22.5,21.7,40.5,35.7
	C239.7,421.3,231.6,432.9,230.3,446.3z M339.7,446.7l-6.3-11.6c-8.8-16.3-25.8-26.5-44.3-26.5h-15.8c-1.7,0-3.3,0.1-5,0.3
	c-20.6-15.1-38.6-32.2-47.1-40.6l61.4-61.4c27.1-27.1,71.3-27.1,98.5,0c13.1,13.1,20.4,30.6,20.4,49.2s-7.2,36.1-20.4,49.2
	L339.7,446.7z"/>
<linearGradient id="SVGID_63_" gradientUnits="userSpaceOnUse" x1="281.5453" y1="356.1147" x2="382.1867" y2="356.1147">
	<stop  offset="0" style="stop-color:#E5700F"/>
	<stop  offset="1" style="stop-color:#FEBA1C"/>
</linearGradient>
<path class="st64" d="M367.5,320.5c-19.6-19.6-51.6-19.6-71.2,0c-19.6,19.6-19.6,51.6,0,71.2c9.8,9.8,22.7,14.7,35.6,14.7
	s25.8-4.9,35.6-14.7C387.1,372.1,387.1,340.1,367.5,320.5z M356.9,381.1c-13.8,13.8-36.2,13.8-50,0c-13.8-13.8-13.8-36.2,0-50
	c6.9-6.9,15.9-10.3,25-10.3s18.1,3.4,25,10.3C370.6,344.9,370.6,367.3,356.9,381.1z"/>
<linearGradient id="SVGID_64_" gradientUnits="userSpaceOnUse" x1="312.184" y1="343.995" x2="327.184" y2="343.995">
	<stop  offset="0" style="stop-color:#E5700F"/>
	<stop  offset="1" style="stop-color:#FEBA1C"/>
</linearGradient>
<circle class="st65" cx="319.7" cy="344" r="7.5"/>
<linearGradient id="SVGID_65_" gradientUnits="userSpaceOnUse" x1="336.434" y1="368.165" x2="351.434" y2="368.165">
	<stop  offset="0" style="stop-color:#E5700F"/>
	<stop  offset="1" style="stop-color:#FEBA1C"/>
</linearGradient>
<circle class="st66" cx="343.9" cy="368.2" r="7.5"/>
<linearGradient id="SVGID_66_" gradientUnits="userSpaceOnUse" x1="-31.683" y1="329.619" x2="212.374" y2="329.619">
	<stop  offset="0" style="stop-color:#E5700F"/>
	<stop  offset="1" style="stop-color:#FEBA1C"/>
</linearGradient>
<path class="st67" d="M173.4,384.2h-23.4l0-17.2c19.1-16.7,31.1-41.2,31.1-68.4v-29.9c6.1-30.6,3.3-53.3-8.3-67.5
	c-7.3-8.9-16.4-12.3-22.8-13.6v-34.5c0-4.3-3.5-7.8-7.8-7.8c-3,0-6,0-9.1,0c-3.2,0-6.5,0-9.8,0c-37.6,0-79.8,2.4-104.8,30.8
	c-18,20.4-24.3,50.6-19.1,92.2v30.3c0,27.3,12.1,51.8,31.2,68.4v17.2H7.3c-21.5,0-38.9,17.5-38.9,38.9v83.1c0,4.3,3.5,7.8,7.8,7.8
	h228.5c4.3,0,7.8-3.5,7.8-7.8v-83.1c0,0,0,0,0,0C212.4,401.6,194.9,384.2,173.4,384.2z M134.5,387.8l-23.9,15.9l-12.4-6.2V389
	c13.1-1.1,25.4-5,36.4-11.1L134.5,387.8z M30.2,186.3c20.8-23.5,59-25.5,93.1-25.5c3.3,0,6.5,0,9.7,0c0.5,0,0.9,0,1.4,0v33.8
	c0,2.1,0.9,4.2,2.4,5.7c1.6,1.5,3.6,2.2,5.8,2.1c0.7,0,11-0.2,18.2,8.6c5.3,6.5,8,16.4,7.9,29.3l-3.4-6.8c-1.7-3.4-5.7-5.1-9.3-3.9
	c-0.5,0.1-46.6,14.8-73.2,14.8c-25.5,0-48.6-13.8-48.9-14c-3.4-2.1-7.9-1.2-10.3,2l-10.3,13.7C12.8,219.8,18.4,199.7,30.2,186.3z
	 M15.1,298.5v-28.7l17.1-22.7c9.6,4.8,29.1,12.9,50.7,12.9c23.1,0,57.4-9.4,71.6-13.5l11.2,22.5v29.6c0,41.5-33.8,75.3-75.3,75.3
	C48.8,373.8,15.1,340,15.1,298.5z M82.6,389v8l-16.8,6.7l-19.5-15.6v-10.3C57.1,384,69.5,387.9,82.6,389z M196.8,498.4h-36.3V475
	c0-4.3-3.5-7.8-7.8-7.8s-7.8,3.5-7.8,7.8v23.4H35.8V475c0-4.3-3.5-7.8-7.8-7.8s-7.8,3.5-7.8,7.8v23.4h-36.3v-75.3
	c0-12.9,10.5-23.4,23.4-23.4h28.4l23.8,19.1c0.1,0.1,0.2,0.1,0.2,0.1c0.2,0.2,0.4,0.3,0.7,0.4c0.1,0.1,0.3,0.2,0.4,0.2
	c0.2,0.1,0.4,0.2,0.7,0.3c0.2,0.1,0.3,0.1,0.5,0.2c0.3,0.1,0.5,0.1,0.8,0.2c0.1,0,0.3,0.1,0.4,0.1c0.4,0.1,0.8,0.1,1.2,0.1
	c0.3,0,0.5,0,0.8,0c0,0,0.1,0,0.1,0c0.2,0,0.4-0.1,0.6-0.1c0.1,0,0.2,0,0.3-0.1c0.2,0,0.3-0.1,0.5-0.1c0.1,0,0.2-0.1,0.3-0.1
	c0.1,0,0.1,0,0.2-0.1l22.7-9.1l17.5,8.7c0,0,0,0,0,0l0.1,0.1c0.1,0.1,0.2,0.1,0.3,0.1c0.2,0.1,0.3,0.1,0.5,0.2
	c0.2,0.1,0.4,0.1,0.6,0.2c0.1,0,0.2,0.1,0.3,0.1c0.3,0.1,0.6,0.1,0.8,0.2c0,0,0,0,0.1,0c0.3,0,0.6,0.1,0.9,0.1c0.4,0,0.7,0,1.1-0.1
	c0.2,0,0.3-0.1,0.5-0.1c0.2,0,0.4-0.1,0.6-0.1c0.2,0,0.3-0.1,0.5-0.2c0.2-0.1,0.4-0.1,0.6-0.2c0.1-0.1,0.3-0.1,0.4-0.2
	c0.2-0.1,0.4-0.2,0.6-0.3c0,0,0.1,0,0.1-0.1l29.2-19.5h28.8c12.9,0,23.4,10.5,23.4,23.4c0,0,0,0,0,0L196.8,498.4L196.8,498.4z"/>
<linearGradient id="SVGID_67_" gradientUnits="userSpaceOnUse" x1="227.954" y1="319.249" x2="472.012" y2="319.249">
	<stop  offset="0" style="stop-color:#E5700F"/>
	<stop  offset="1" style="stop-color:#FEBA1C"/>
</linearGradient>
<path class="st68" d="M472,246.5C472,246.5,472,246.5,472,246.5c0-67.3-54.8-122-122-122c-67.3,0-122,54.7-122,122v187v72.7
	c0,4.3,3.5,7.8,7.8,7.8h228.5c4.3,0,7.8-3.5,7.8-7.8v-72.7c0,0,0,0,0,0L472,246.5L472,246.5z M350,140.1
	c58.7,0,106.5,47.8,106.5,106.4c0,0,0,0,0,0v155.8c-6.5-4.9-14.6-7.8-23.4-7.8h-30.9c-0.1,0-0.2,0-0.3,0s-0.2,0-0.3,0h-12.7l0-14
	c30.7-14.6,51.9-45.9,51.9-82.1V257c0-4.3-3.5-7.8-7.8-7.8h-13v-13c0-4.3-3.5-7.8-7.8-7.8s-7.8,3.5-7.8,7.8v13h-15.6v-13
	c0-4.3-3.5-7.8-7.8-7.8s-7.8,3.5-7.8,7.8v13h-15.6v-13c0-4.3-3.5-7.8-7.8-7.8s-7.8,3.5-7.8,7.8v13h-15.6v-13c0-4.3-3.5-7.8-7.8-7.8
	s-7.8,3.5-7.8,7.8v13h-15.6v-13c0-4.3-3.5-7.8-7.8-7.8s-7.8,3.5-7.8,7.8v13h-13c-4.3,0-7.8,3.5-7.8,7.8v41.6
	c0,36.2,21.3,67.5,51.9,82.1v14h-12.7c-0.1,0-0.2,0-0.3,0c-0.1,0-0.2,0-0.3,0h-30.9c-8.8,0-16.9,2.9-23.4,7.8V246.5
	C243.5,187.8,291.3,140.1,350,140.1z M274.7,264.7h150.6v33.8c0,41.5-33.8,75.3-75.3,75.3s-75.3-33.8-75.3-75.3L274.7,264.7
	L274.7,264.7z M318.8,410.1c4.3,0,7.8-3.5,7.8-7.8v-16c7.5,2,15.3,3,23.4,3c8.1,0,15.9-1.1,23.4-3.1l0,16v0c0,0,0,0,0,0
	c0,0.1,0,0.3,0,0.4c0,0.1,0,0.3,0,0.4c0,0.1,0,0.2,0.1,0.4c0,0.1,0,0.3,0.1,0.4c0,0.1,0.1,0.2,0.1,0.4c0,0.1,0.1,0.3,0.1,0.4
	c0,0.1,0.1,0.3,0.1,0.4c0,0.1,0.1,0.2,0.1,0.3c0.1,0.2,0.2,0.4,0.3,0.5c0,0,0,0.1,0.1,0.1c1.1,2,3,3.4,5.3,3.9c0,0,0,0,0,0
	c0.2,0,0.4,0.1,0.6,0.1c0.1,0,0.1,0,0.2,0c0.2,0,0.3,0,0.5,0c0.1,0,0.2,0,0.3,0c0,0,0,0,0,0h12.3c-3.7,20.6-21.8,36.3-43.4,36.3
	s-39.7-15.7-43.4-36.3L318.8,410.1L318.8,410.1z M456.4,498.4h-36.3V475c0-4.3-3.5-7.8-7.8-7.8s-7.8,3.5-7.8,7.8v23.4H295.5V475
	c0-4.3-3.5-7.8-7.8-7.8s-7.8,3.5-7.8,7.8v23.4h-36.3v-64.9c0-12.9,10.5-23.4,23.4-23.4h23.9c3.8,29.3,28.9,51.9,59.2,51.9
	s55.4-22.7,59.2-51.9h23.9c12.9,0,23.4,10.5,23.4,23.3c0,0,0,0,0,0L456.4,498.4L456.4,498.4z"/>
<g class="st0">
	<linearGradient id="SVGID_68_" gradientUnits="userSpaceOnUse" x1="218.1266" y1="71.6818" x2="309.9148" y2="71.6818">
		<stop  offset="0" style="stop-color:#E5700F"/>
		<stop  offset="1" style="stop-color:#FEBA1C"/>
	</linearGradient>
	<path class="st69" d="M295.6,16.5C286.3,7.2,274,2.1,261,2.1c-13.1,0-25.3,5.1-34.6,14.3c-0.5,0.5-0.9,1.1-1.1,1.8
		c-0.3,1.2-0.1,2.5,0.7,3.4l8.3,11.5l-13.9,18c-1.3,1.7-1,4.1,0.6,5.5L237,69.8l-13.7,17.9c-1.1,1.4-1.1,3.3,0,4.8l11.8,15.8
		l-15.1,9.3c-1,0.6-1.7,1.7-1.9,2.9c-0.1,1.2,0.3,2.4,1.1,3.3l16.3,16.3c0.7,0.7,1.8,1.2,2.8,1.2c0.1,0,0.2,0,0.2,0
		c1-0.1,1.9-0.5,2.6-1.2l54.4-54.4c9.2-9.2,14.3-21.5,14.3-34.6C309.9,38,304.8,25.7,295.6,16.5L295.6,16.5z M290,80.1l-51.6,51.6
		l-10-10l14.5-9c0.9-0.6,1.6-1.5,1.8-2.6c0.2-1.1-0.1-2.2-0.7-3.1l-12.6-16.9l14.2-18.6c1.3-1.7,1-4.1-0.6-5.5L228.9,53l13.4-17.3
		c1.1-1.4,1.1-3.3,0.1-4.7l-8-11.2c7.4-6.3,16.7-9.8,26.6-9.8c11,0,21.3,4.3,29,12c7.8,7.8,12,18.1,12,29S297.7,72.3,290,80.1
		L290,80.1z M290,80.1"/>
	<g class="st9">
		<linearGradient id="SVGID_69_" gradientUnits="userSpaceOnUse" x1="120.164" y1="76.2955" x2="218.2624" y2="76.2955">
			<stop  offset="0" style="stop-color:#E5700F"/>
			<stop  offset="1" style="stop-color:#FEBA1C"/>
		</linearGradient>
		<path class="st70" d="M200.2,121.7l14.5-9c0.9-0.6,1.6-1.5,1.8-2.6c0.2-1.1,0-2.2-0.7-3.1l-12.6-16.9l14.2-18.6
			c1.3-1.7,1-4.1-0.6-5.5L200.7,53l13.4-17.3c1.1-1.4,1.1-3.3,0.1-4.7L207,20.9c-3.5-4.9-7.8-8.9-12.8-11.9
			c-19.3-11.4-43.8-8.4-59.6,7.5c-9.2,9.2-14.3,21.5-14.3,34.6c0,13.1,5.1,25.4,14.3,34.6l63.6,63.6c0.8,0.8,1.8,1.2,2.8,1.2
			s2-0.4,2.8-1.2l9.2-9.2c0.4-0.3,0.6-0.7,0.9-1.2c0.7-1.5,0.4-3.3-0.8-4.5L200.2,121.7z M200.9,140.9l-60.8-60.8
			c-7.8-7.8-12-18.1-12-29s4.3-21.3,12-29c7.9-7.9,18.4-12,29-12c7.2,0,14.4,1.9,20.9,5.8c4,2.4,7.6,5.7,10.5,9.7l5.5,7.7l-13.9,18
			c-1.3,1.7-1,4.1,0.6,5.5l16.1,13.1l-13.7,17.9c-1.1,1.4-1.1,3.3,0,4.8l11.8,15.8l-15.1,9.3c-1,0.6-1.7,1.7-1.9,2.9
			c-0.1,1.2,0.3,2.4,1.1,3.3l13.5,13.5L200.9,140.9z M200.9,140.9"/>
	</g>
</g>
<linearGradient id="SVGID_70_" gradientUnits="userSpaceOnUse" x1="75.714" y1="196.1363" x2="124.99" y2="196.1363">
	<stop  offset="0" style="stop-color:#E5700F"/>
	<stop  offset="1" style="stop-color:#FEBA1C"/>
</linearGradient>
<path class="st71" d="M100.4,207.9c8.7,0,17.1-4.1,23-11.3c2.6-3.2,2.1-7.9-1.1-10.5s-7.9-2.1-10.5,1.1c-3,3.7-7,5.8-11.3,5.8
	s-8.3-2.1-11.3-5.8c-2.6-3.2-7.3-3.7-10.5-1.1c-3.2,2.6-3.7,7.3-1.1,10.5C83.2,203.8,91.6,207.9,100.4,207.9z"/>
<linearGradient id="SVGID_71_" gradientUnits="userSpaceOnUse" x1="58.576" y1="153.2914" x2="73.576" y2="153.2914">
	<stop  offset="0" style="stop-color:#E5700F"/>
	<stop  offset="1" style="stop-color:#FEBA1C"/>
</linearGradient>
<path class="st72" d="M66.1,165.1c4.1,0,7.5-3.4,7.5-7.5V149c0-4.1-3.4-7.5-7.5-7.5s-7.5,3.4-7.5,7.5v8.6
	C58.6,161.7,61.9,165.1,66.1,165.1z"/>
<linearGradient id="SVGID_72_" gradientUnits="userSpaceOnUse" x1="127.128" y1="153.2914" x2="142.128" y2="153.2914">
	<stop  offset="0" style="stop-color:#E5700F"/>
	<stop  offset="1" style="stop-color:#FEBA1C"/>
</linearGradient>
<path class="st73" d="M134.6,165.1c4.1,0,7.5-3.4,7.5-7.5V149c0-4.1-3.4-7.5-7.5-7.5s-7.5,3.4-7.5,7.5v8.6
	C127.1,161.7,130.5,165.1,134.6,165.1z"/>
<linearGradient id="SVGID_73_" gradientUnits="userSpaceOnUse" x1="324.2146" y1="238.9803" x2="373.4894" y2="238.9803">
	<stop  offset="0" style="stop-color:#E5700F"/>
	<stop  offset="1" style="stop-color:#FEBA1C"/>
</linearGradient>
<path class="st74" d="M348.9,250.8c8.7,0,17.1-4.1,23-11.3c2.6-3.2,2.1-7.9-1.1-10.5c-3.2-2.6-7.9-2.1-10.5,1.1
	c-3,3.7-7,5.8-11.3,5.8c-4.3,0-8.3-2.1-11.3-5.8c-2.6-3.2-7.3-3.7-10.5-1.1c-3.2,2.6-3.7,7.3-1.1,10.5
	C331.7,246.6,340.1,250.8,348.9,250.8z"/>
<linearGradient id="SVGID_74_" gradientUnits="userSpaceOnUse" x1="307.076" y1="196.1364" x2="322.076" y2="196.1364">
	<stop  offset="0" style="stop-color:#E5700F"/>
	<stop  offset="1" style="stop-color:#FEBA1C"/>
</linearGradient>
<path class="st75" d="M314.6,207.9c4.1,0,7.5-3.4,7.5-7.5v-8.6c0-4.1-3.4-7.5-7.5-7.5c-4.1,0-7.5,3.4-7.5,7.5v8.6
	C307.1,204.6,310.4,207.9,314.6,207.9z"/>
<linearGradient id="SVGID_75_" gradientUnits="userSpaceOnUse" x1="375.628" y1="196.1364" x2="390.628" y2="196.1364">
	<stop  offset="0" style="stop-color:#E5700F"/>
	<stop  offset="1" style="stop-color:#FEBA1C"/>
</linearGradient>
<path class="st76" d="M383.1,207.9c4.1,0,7.5-3.4,7.5-7.5v-8.6c0-4.1-3.4-7.5-7.5-7.5c-4.1,0-7.5,3.4-7.5,7.5v8.6
	C375.6,204.6,379,207.9,383.1,207.9z"/>
<linearGradient id="SVGID_76_" gradientUnits="userSpaceOnUse" x1="-35.683" y1="256.1194" x2="476.3141" y2="256.1194">
	<stop  offset="0" style="stop-color:#E5700F"/>
	<stop  offset="1" style="stop-color:#FEBA1C"/>
</linearGradient>
<path class="st77" d="M455.4,332.7l-58.8-23.5c-0.3-0.1-0.6-0.3-0.9-0.4c40.6-9.2,59.8-24.7,60.7-25.4c2-1.7,3-4.3,2.7-6.9
	c-0.1-0.6-8.5-60.1-8.5-118.9c0-56.1-45.6-101.8-101.8-101.8c-56.1,0-101.8,45.6-101.8,101.8c0,15.4-0.7,34.2-1.8,52l-16.4,8.2
	l-48.1-24c-0.1-0.1-0.3-0.1-0.4-0.2c2.3-6.7,3.8-13.7,4.3-21c10.1-3.1,17.4-12.5,17.4-23.5c0-7.4-3.3-14.1-8.6-18.7V80.5
	c0-13.8-7-26.7-18.4-34.4c-3.9-14.4-16.8-24.5-32-24.5H74.6C37.4,21.5,7.2,51.8,7.2,89v41.3c-5.2,4.5-8.6,11.2-8.6,18.7
	c0,11.1,7.3,20.4,17.4,23.5c1.9,25.2,14.9,47.3,34,61.5v20.7l-62,18.6c-14.2,4.2-23.7,17-23.7,31.8v83.7c0,4.1,3.4,7.5,7.5,7.5h1.1
	v86.8c0,4.1,3.4,7.5,7.5,7.5s7.5-3.4,7.5-7.5v-86.8h27.8v86.8c0,4.1,3.4,7.5,7.5,7.5s7.5-3.4,7.5-7.5V353.9c0-6.6-1.9-12.9-5.6-18.4
	l-12.8-19.2c-2.3-3.4-7-4.4-10.4-2.1c-3.4,2.3-4.4,7-2.1,10.4l12.8,19.2c2,3,3.1,6.5,3.1,10.1v27.6h-35.3h-1.1v-76.2
	c0-8.1,5.2-15.1,13-17.4l25.7-7.7c9,37.5,43,64.9,82.3,64.9c14.1,0,27.8-3.5,40.1-10.1c4.5,6.1,11.7,10.1,19.9,10.1h1.1v1.1
	c0,25.1,13.8,47.1,34.3,58.7V417c0,0.5-0.3,0.9-0.7,1l-28,9.3c-13.6,4.5-22.7,17.2-22.7,31.5v24.3c0,4.1,3.4,7.5,7.5,7.5
	s7.5-3.4,7.5-7.5v-24.3c0-7.8,5-14.8,12.4-17.3l8.2-2.7c10.9,16.2,29.2,26.1,48.9,26.1c19.8,0,38.1-9.9,48.9-26.1l8.2,2.7
	c7.4,2.5,12.4,9.4,12.4,17.3v24.3c0,4.1,3.4,7.5,7.5,7.5c4.1,0,7.5-3.4,7.5-7.5v-24.3c0-14.3-9.1-27-22.7-31.5l-28-9.3
	c-0.4-0.1-0.7-0.6-0.7-1v-12.2c15.3-8.7,26.9-23.2,31.8-40.5c14.2,14.8,34,23.5,55,23.5c33.2,0,62.4-21.5,72.4-52.7l28.6,11.5
	c7,2.8,11.4,9.4,11.4,16.9v35.1h-1.1h-26.8v-9.6c0-4.1-3.4-7.5-7.5-7.5c-4.1,0-7.5,3.4-7.5,7.5v94.3c0,4.1,3.4,7.5,7.5,7.5
	c4.1,0,7.5-3.4,7.5-7.5v-69.6h19.3v69.6c0,4.1,3.4,7.5,7.5,7.5c4.1,0,7.5-3.4,7.5-7.5v-69.6h1.1c2,0,3.9-0.8,5.3-2.2
	c1.4-1.4,2.2-3.3,2.2-5.3v-42.6C476.3,349.8,468.1,337.7,455.4,332.7z M262.1,157.6c0-47.8,38.9-86.8,86.8-86.8
	c47.8,0,86.8,38.9,86.8,86.8c0,50.4,6.1,101.3,8,116.5c-6.7,4.4-23.9,14.1-53,20.4v-11.9c4-2.3,7.8-4.8,11.4-7.7
	c14.8-11.9,25.2-28.6,29.4-47c1.4-6.1,2.1-12.5,2.1-18.8c0-42.4-30.7-48.5-60.3-54.4c-18.9-3.7-38.4-7.6-53.9-20
	c-2.3-1.8-5.3-2.2-7.9-0.9s-4.3,3.9-4.3,6.8c0,0.2-0.3,19.9-28.6,27c-4,1-6.5,5.1-5.5,9.1c1,4,5.1,6.5,9.1,5.5
	c23.7-5.9,33.3-19.2,37.2-29.2c16.3,9.6,34.5,13.3,50.9,16.5c31.7,6.3,48.2,10.9,48.2,39.6c0,5.2-0.6,10.4-1.7,15.5
	c-3.4,15.1-12,28.9-24.2,38.7c-12.5,10.1-27.6,15.4-43.7,15.4c-14.7,0-28.7-4.5-40.5-13c-4.3-11.9-11.3-22.7-20.5-31.6v-33.5
	c0-2.6-1.3-5-3.6-6.4s-5-1.5-7.3-0.3l-16.2,8.1C261.6,186.2,262.1,171.3,262.1,157.6z M272.8,212.6v27.1l-27.1-13.6L272.8,212.6z
	 M185,212.6l27.1,13.6L185,239.7V212.6z M170,233.9c-8.4,8.2-14.9,17.9-19.3,28.5c0-0.7,0.1-1.4,0.1-2.1v-26.3
	c7.5-5.5,14-12.3,19.3-19.9V233.9z M30.7,166.1c0-4.1-3.4-7.5-7.5-7.5c-5.3,0-9.6-4.3-9.6-9.6s4.3-9.6,9.6-9.6h17.1
	c3.2,0,6.1-2.1,7.1-5.1l6.9-20.7c17.2-0.4,70.7-2.8,100.8-17.9c3.7-1.9,5.2-6.4,3.4-10.1c-1.9-3.7-6.4-5.2-10.1-3.4
	c-32.3,16.1-98.8,16.3-99.5,16.3c-3.2,0-6.1,2.1-7.1,5.1L35,124.4H23.2c-0.4,0-0.7,0-1.1,0V89c0-28.9,23.5-52.5,52.5-52.5h68.6
	c9,0,16.5,6.5,17.9,15.3c0.4,2.3,1.7,4.2,3.7,5.4c8.5,4.8,13.7,13.7,13.7,23.2v43.9c-0.4,0-0.7,0-1.1,0h-8.6c-4.1,0-7.5,3.4-7.5,7.5
	c0,4.1,3.4,7.5,7.5,7.5h8.6c5.3,0,9.6,4.3,9.6,9.6s-4.3,9.6-9.6,9.6c-4.1,0-7.5,3.4-7.5,7.5c0,38.4-31.2,69.6-69.6,69.6
	S30.7,204.5,30.7,166.1z M100.4,250.8c12.6,0,24.6-2.8,35.3-7.7v17.4c0,19.5-15.9,35.3-35.3,35.3c-19.5,0-35.3-15.8-35.3-35.2
	c0,0,0-0.1,0-0.1V243C75.8,248,87.7,250.8,100.4,250.8z M32.4,275.8l18.5-5.6c4.6,23.1,25,40.6,49.4,40.6c19.4,0,36.2-11,44.6-27.1
	c-0.5,3.6-0.7,7.3-0.7,11v7.1c-5.4,4.6-8.6,11.4-8.6,18.6c-10.7,6.3-22.8,9.6-35.3,9.6C67.7,330,39.5,307.1,32.4,275.8z
	 M258.1,432.3l4.8,1.6c-8.3,10.1-20.7,16.1-34,16.1c-13.3,0-25.7-6-34-16.1l4.8-1.6c6.6-2.2,11-8.3,11-15.2v-6
	c5.8,1.6,11.9,2.5,18.2,2.5s12.4-0.9,18.2-2.5v6C247.1,424,251.5,430.1,258.1,432.3z M228.9,398.6c-28.9,0-52.5-23.5-52.5-52.5v-8.6
	c0-4.1-3.4-7.5-7.5-7.5h-8.6c-5.3,0-9.6-4.3-9.6-9.6c0-3.4,1.8-6.5,4.8-8.3c0.7-0.4,1.3-0.9,1.8-1.5c18.5-0.5,78.6-4,118.1-26.6
	c3.6-2.1,4.8-6.6,2.8-10.2c-2.1-3.6-6.6-4.8-10.2-2.8c-34.6,19.8-89,23.7-108.7,24.5v-0.9c0-13.9,4.2-27.5,11.9-38.8
	c0.6,0.9,1.4,1.8,2.4,2.4c1.2,0.7,2.6,1.1,3.9,1.1c1.1,0,2.3-0.3,3.4-0.8l48.1-24l48.1,24c1.1,0.5,2.2,0.8,3.4,0.8
	c1.4,0,2.7-0.4,3.9-1.1c1-0.6,1.8-1.4,2.4-2.4c7.7,11.4,11.9,24.9,11.9,38.8v10.9c0,2.7,1.4,5.1,3.7,6.5c3,1.8,4.8,4.9,4.8,8.3
	c0,5.3-4.3,9.6-9.6,9.6h-8.6c-4.1,0-7.5,3.4-7.5,7.5v7.5c0,0.1,0,0.1,0,0.2v0.9C281.4,375,257.8,398.6,228.9,398.6z M348.9,372.9
	c-20.8,0-40-10.6-51.2-27.8c13.5-0.1,24.5-11.1,24.5-24.6c0-7.2-3.2-13.9-8.6-18.6v-7.1c0-3-0.2-6-0.5-9c11.1,5.2,23.3,7.9,35.8,7.9
	c9.1,0,18.2-1.5,26.8-4.4v11c0,10.1,6.1,19.1,15.5,22.9l16.2,6.5C399.5,355.2,375.9,372.9,348.9,372.9z"/>
<linearGradient id="SVGID_77_" gradientUnits="userSpaceOnUse" x1="204.249" y1="367.5153" x2="253.5243" y2="367.5153">
	<stop  offset="0" style="stop-color:#E5700F"/>
	<stop  offset="1" style="stop-color:#FEBA1C"/>
</linearGradient>
<path class="st78" d="M250.7,357.4c-3.2-2.6-7.9-2.1-10.5,1.1c-3,3.7-7,5.8-11.3,5.8s-8.3-2.1-11.3-5.8c-2.6-3.2-7.3-3.7-10.5-1.1
	c-3.2,2.6-3.7,7.3-1.1,10.5c5.8,7.2,14.2,11.3,23,11.3s17.1-4.1,23-11.3C254.5,364.7,254,360,250.7,357.4z"/>
<linearGradient id="SVGID_78_" gradientUnits="userSpaceOnUse" x1="195.817" y1="328.9889" x2="210.817" y2="328.9889">
	<stop  offset="0" style="stop-color:#E5700F"/>
	<stop  offset="1" style="stop-color:#FEBA1C"/>
</linearGradient>
<circle class="st79" cx="203.3" cy="329" r="7.5"/>
<linearGradient id="SVGID_79_" gradientUnits="userSpaceOnUse" x1="246.817" y1="328.9889" x2="261.817" y2="328.9889">
	<stop  offset="0" style="stop-color:#E5700F"/>
	<stop  offset="1" style="stop-color:#FEBA1C"/>
</linearGradient>
<circle class="st80" cx="254.3" cy="329" r="7.5"/>
<linearGradient id="SVGID_80_" gradientUnits="userSpaceOnUse" x1="282.6393" y1="108.905" x2="317.9011" y2="108.905">
	<stop  offset="0" style="stop-color:#E5700F"/>
	<stop  offset="1" style="stop-color:#FEBA1C"/>
</linearGradient>
<path class="st81" d="M299.8,94.2c-3.9-3.9-10.3-3.9-14.2,0c-3.9,3.9-3.9,10.3,0,14.2l15.2,15.2c2,2,4.5,2.9,7.1,2.9
	c2.6,0,5.1-1,7.1-2.9c3.9-3.9,3.9-10.3,0-14.2L299.8,94.2z"/>
<linearGradient id="SVGID_81_" gradientUnits="userSpaceOnUse" x1="299.8763" y1="69.5192" x2="335.0128" y2="69.5192">
	<stop  offset="0" style="stop-color:#E5700F"/>
	<stop  offset="1" style="stop-color:#FEBA1C"/>
</linearGradient>
<path class="st82" d="M302.8,69.1l15.1,15.1c2,2,4.5,2.9,7.1,2.9c2.6,0,5.1-1,7.1-2.9c3.9-3.9,3.9-10.3,0-14.2L317,54.9
	c-3.9-3.9-10.3-3.9-14.2,0C298.9,58.8,298.9,65.2,302.8,69.1z"/>
<linearGradient id="SVGID_82_" gradientUnits="userSpaceOnUse" x1="-35.6811" y1="255.996" x2="476.3166" y2="255.996">
	<stop  offset="0" style="stop-color:#E5700F"/>
	<stop  offset="1" style="stop-color:#FEBA1C"/>
</linearGradient>
<path class="st83" d="M470.2,184.7c-5.5-7.1-13.9-11.2-22.9-11.2c-3.4,0-6.7,0.6-9.9,1.7l-87.2-87.2c-3.9-3.9-10.3-3.9-14.2,0
	c-3.9,3.9-3.9,10.3,0,14.2l84.3,84.3c-5.4,3.9-11,7.7-16.8,11.4l-69.7-69.7c-3.9-3.9-10.3-3.9-14.2,0c-3.9,3.9-3.9,10.3,0,14.2
	l66.2,66.2c-8.4,4.6-16.6,8.7-24.1,11.8l-81.9-81.9c-3.9-3.9-10.3-3.9-14.2,0c-3.9,3.9-3.9,10.3,0,14.2l74.2,74.2
	c-1.1,0.1-2.1,0.2-3.1,0.2c-8,0-20.4,0-34.2,0l-28-28c-3.9-3.9-10.3-3.9-14.2,0c-3.9,3.9-3.9,10.3,0,14.2L274,227
	c-8.7,0-17.1,0-24.6,0c0-28.1,0-68.9,0-87.2c0-19.9,24.5-63.7,47.3-92.9c4.8-6.1,6.9-13.7,5.9-21.4c-0.9-7.7-4.8-14.6-10.9-19.3
	c-5.1-4-11.4-6.1-17.8-6.1c-9,0-17.4,4.1-22.9,11.2c-9.9,12.7-59.6,78.8-59.6,128.6c0,18.2,0,59.1,0,87.2c-28.1,0-69,0-87.2,0
	c-49.8,0-115.9,49.6-128.6,59.6c-6.1,4.8-10,11.6-10.9,19.3s1.2,15.3,5.9,21.4c5.5,7.1,13.9,11.2,22.9,11.2c3.4,0,6.7-0.6,9.8-1.7
	l87.2,87.2c2,2,4.5,2.9,7.1,2.9c2.6,0,5.1-1,7.1-2.9c3.9-3.9,3.9-10.3,0-14.2l-84.3-84.3c5.4-3.9,11-7.7,16.8-11.4l69.7,69.7
	c2,2,4.5,2.9,7.1,2.9s5.1-1,7.1-2.9c3.9-3.9,3.9-10.3,0-14.2l-66.2-66.2c8.4-4.6,16.6-8.7,24.1-11.8l81.9,81.9c2,2,4.5,2.9,7.1,2.9
	c2.6,0,5.1-1,7.1-2.9c3.9-3.9,3.9-10.3,0-14.2L101,285.2c1.1-0.1,2.1-0.2,3.1-0.2c8,0,20.4,0,34.2,0l28,28c2,2,4.5,2.9,7.1,2.9
	c2.6,0,5.1-1,7.1-2.9c3.9-3.9,3.9-10.3,0-14.2L166.7,285c8.7,0,17.1,0,24.6,0c0,28.1,0,68.9,0,87.1c0,31.6-34.2,77.9-46.2,91.7
	c-10.5,12-9.3,30.4,2.7,40.9c5.3,4.6,12.1,7.2,19.1,7.2c8.4,0,16.3-3.6,21.8-9.9c0.6-0.7,15-17.2,29.5-40.5
	c20.6-33.2,31.1-63.2,31.1-89.4c0-18.2,0-59.1,0-87.2c28.1,0,69,0,87.2,0c49.8,0,115.9-49.6,128.6-59.6c6.1-4.8,10-11.6,11-19.3
	C477,198.5,474.9,190.8,470.2,184.7z M456.2,203.7c-0.3,2.4-1.5,4.5-3.4,6c-26.3,20.5-80.4,55.3-116.3,55.3c-20.6,0-69.9,0-97.2,0
	c0,0,0,0,0,0c-2.7,0-5.2,1.1-7.1,2.9c-1.9,1.9-2.9,4.4-2.9,7.1c0,27.3,0,76.7,0,97.2c0,22.4-9.4,48.9-28.1,78.8
	c-13.7,21.9-27.4,37.7-27.6,37.9c-1.7,1.9-4.2,3-6.7,3c-1.5,0-3.8-0.4-5.9-2.2c-3.7-3.2-4.1-8.9-0.8-12.6
	c0.5-0.6,51.2-59.1,51.2-104.9c0-20.5,0-69.9,0-97.2c0-5.5-4.5-10-10-10c-27.3,0-76.6,0-97.2,0c-32.2,0-86.9,37.2-105.3,51.5
	c-2,1.6-4.1,1.9-5.5,1.9c-2.8,0-5.4-1.3-7.1-3.4c-1.5-1.9-2.1-4.2-1.8-6.6c0.3-2.4,1.5-4.5,3.4-6C14.2,281.8,68.3,247,104.1,247
	c20.6,0,69.9,0,97.2,0c0,0,0,0,0,0c2.7,0,5.2-1.1,7.1-2.9c1.9-1.9,2.9-4.4,2.9-7.1c0-27.3,0-76.7,0-97.2c0-35.8,34.8-90,55.3-116.3
	c1.7-2.2,4.3-3.4,7.1-3.4c1.4,0,3.5,0.3,5.5,1.9c1.9,1.5,3.1,3.6,3.4,6c0.3,2.4-0.4,4.7-1.8,6.6c-14.3,18.4-51.5,73.2-51.5,105.3
	c0,20.5,0,69.9,0,97.2c0,5.5,4.5,10,10,10h1.5c27.6,0,75.5,0,95.7,0c32.2,0,86.9-37.2,105.3-51.5c2-1.6,4.1-1.9,5.5-1.9
	c2.8,0,5.4,1.3,7.1,3.4C455.8,199,456.5,201.3,456.2,203.7z"/>
<linearGradient id="SVGID_83_" gradientUnits="userSpaceOnUse" x1="122.7309" y1="403.0855" x2="157.9937" y2="403.0855">
	<stop  offset="0" style="stop-color:#E5700F"/>
	<stop  offset="1" style="stop-color:#FEBA1C"/>
</linearGradient>
<path class="st84" d="M140.9,417.8c2,2,4.5,2.9,7.1,2.9s5.1-1,7.1-2.9c3.9-3.9,3.9-10.3,0-14.2l-15.2-15.2c-3.9-3.9-10.3-3.9-14.2,0
	c-3.9,3.9-3.9,10.3,0,14.2L140.9,417.8z"/>
<linearGradient id="SVGID_84_" gradientUnits="userSpaceOnUse" x1="105.6203" y1="442.4714" x2="140.7574" y2="442.4714">
	<stop  offset="0" style="stop-color:#E5700F"/>
	<stop  offset="1" style="stop-color:#FEBA1C"/>
</linearGradient>
<path class="st85" d="M137.8,442.9l-15.1-15.1c-3.9-3.9-10.3-3.9-14.2,0c-3.9,3.9-3.9,10.3,0,14.2l15.1,15.1c2,2,4.5,2.9,7.1,2.9
	c2.6,0,5.1-1,7.1-2.9C141.7,453.2,141.7,446.8,137.8,442.9z"/>
<linearGradient id="SVGID_85_" gradientUnits="userSpaceOnUse" x1="235.1158" y1="319.7" x2="433.417" y2="319.7">
	<stop  offset="0" style="stop-color:#E5700F"/>
	<stop  offset="1" style="stop-color:#FEBA1C"/>
</linearGradient>
<path class="st86" d="M390.3,322.4V145.3c0-5.5-4.5-9.3-10-9.3h-38.7c-5.5,0-10.3,3.8-10.3,9.3v159.8c-6.4,0.2-12.8,1-19,2.5V197.5
	c0-5.5-4.7-9.5-10.2-9.5h-38.7c-5.5,0-10.1,3.9-10.1,9.5v149.3c-11.9,16.7-18.3,36.8-18.2,57.4c0,54.8,44.4,99.2,99.1,99.2
	c54.8,0,99.2-44.4,99.2-99.1C433.4,371.5,417.3,340.9,390.3,322.4z M351.3,156h19v155.8c-6.1-2.4-12.5-4.2-19-5.2V156z M273.3,208
	h19v106.5c-6.7,3.1-13.1,6.9-19,11.4V208z M334.3,483.3c-43.7,0-79.1-35.5-79.1-79.1c0-32,19.3-60.9,48.9-73.1
	c1.2-0.2,2.3-0.7,3.3-1.3c8.6-3.2,17.8-4.8,27-4.8c2.1,0,4.1,0.1,6.2,0.3h0.1c12,0.9,23.7,4.6,34,10.8c37.6,22.3,50,70.8,27.7,108.4
	C388.1,468.6,362.2,483.3,334.3,483.3z"/>
<linearGradient id="SVGID_86_" gradientUnits="userSpaceOnUse" x1="96.317" y1="356.5" x2="155.317" y2="356.5">
	<stop  offset="0" style="stop-color:#E5700F"/>
	<stop  offset="1" style="stop-color:#FEBA1C"/>
</linearGradient>
<path class="st87" d="M155.3,278c0-5.5-4.5-10-10-10h-39c-5.5,0-10,4.5-10,10v157c0,5.5,4.5,10,10,10h39c5.5,0,10-4.5,10-10V278z
	 M135.3,426h-19V288h19V426z"/>
<linearGradient id="SVGID_87_" gradientUnits="userSpaceOnUse" x1="175.317" y1="345.5" x2="234.317" y2="345.5">
	<stop  offset="0" style="stop-color:#E5700F"/>
	<stop  offset="1" style="stop-color:#FEBA1C"/>
</linearGradient>
<path class="st88" d="M234.3,255c0-5.5-4.5-10-10-10h-39c-5.5,0-10,4.5-10,10v181c0,5.5,4.5,10,10,10h39c5.5,0,10-4.5,10-10V255z
	 M214.3,426h-19V265h19V426z"/>
<linearGradient id="SVGID_88_" gradientUnits="userSpaceOnUse" x1="17.317" y1="399.5" x2="76.317" y2="399.5">
	<stop  offset="0" style="stop-color:#E5700F"/>
	<stop  offset="1" style="stop-color:#FEBA1C"/>
</linearGradient>
<path class="st89" d="M76.3,364c0-5.5-4.5-10-10-10h-39c-5.5,0-10,4.5-10,10v71c0,5.5,4.5,10,10,10h39c5.5,0,10-4.5,10-10V364z
	 M56.3,426h-19v-52h19V426z"/>
<linearGradient id="SVGID_89_" gradientUnits="userSpaceOnUse" x1="9.192" y1="158.8" x2="398.817" y2="158.8">
	<stop  offset="0" style="stop-color:#E5700F"/>
	<stop  offset="1" style="stop-color:#FEBA1C"/>
</linearGradient>
<path class="st90" d="M26.3,305.6l185-185l37.9,38.2c1.8,2,4.4,3.1,7.1,3.2l0,0c2.7-0.1,5.2-1.3,7.1-3.2L378.8,43.3l-0.1,44.5
	c0,5.6,4.4,10.1,10,10.3l0,0c5.6-0.1,10-4.7,10-10.3l0.1-68.6c0-5.5-4.5-10.1-10-10.1l0,0l-68.4,0.1c-5.5-0.1-10,4.4-10.1,9.9
	s4.4,10,9.9,10.1c0.1,0,0.1,0,0.2,0l0,0l44.3-0.1L256.2,137.2l-37.9-37.6c-1.9-1.8-4.5-2.7-7.1-2.6l0,0c-2.6-0.1-5.2,0.8-7.1,2.6
	l-192,192c-3.9,3.9-3.9,10.2,0,14c1.9,1.9,4.4,2.9,7.1,2.9C21.9,308.5,24.4,307.5,26.3,305.6z"/>
<linearGradient id="SVGID_90_" gradientUnits="userSpaceOnUse" x1="291.6524" y1="405.15" x2="380.317" y2="405.15">
	<stop  offset="0" style="stop-color:#E5700F"/>
	<stop  offset="1" style="stop-color:#FEBA1C"/>
</linearGradient>
<path class="st91" d="M348.7,415.3c17.7,0,32.1-14.6,31.6-32.4c-0.4-17.3-15-30.9-32.2-30.9h-32.7c-1.9,0-3.4,1.5-3.4,3.4v4.5v39.6
	h-16.9c-1.9,0-3.4,1.5-3.4,3.4v9c0,1.9,1.5,3.4,3.4,3.4h16.9v9.2h-16.9c-1.9,0-3.4,1.5-3.4,3.4v9c0,1.9,1.5,3.4,3.4,3.4h16.9v14.7
	c0,1.9,1.5,3.5,3.5,3.5h8.9c1.9,0,3.5-1.5,3.5-3.5v-14.7h27.5c1.9,0,3.4-1.5,3.4-3.4v-9c0-1.9-1.5-3.4-3.4-3.4h-27.5v-9.2H348.7
	L348.7,415.3z M364.5,383.6c0,8.7-7.1,15.9-15.9,15.9h-20.9v-31.7h20.9C357.4,367.7,364.5,374.9,364.5,383.6z"/>
</svg>
