<?xml version="1.0" encoding="utf-8"?>
<!-- Generator: Adobe Illustrator 19.0.1, SVG Export Plug-In . SVG Version: 6.00 Build 0)  -->
<svg version="1.1" id="Слой_1" xmlns="http://www.w3.org/2000/svg" xmlns:xlink="http://www.w3.org/1999/xlink" x="0px" y="0px"
	 viewBox="0 0 385 379.9" style="enable-background:new 0 0 385 379.9;" xml:space="preserve">
<style type="text/css">
	.st0{display:none;}
	.st1{display:inline;fill:url(#SVGID_1_);}
	.st2{display:inline;fill:url(#SVGID_2_);}
	.st3{display:inline;fill:url(#SVGID_3_);}
	.st4{display:inline;fill:url(#SVGID_4_);}
	.st5{display:inline;fill:url(#SVGID_5_);}
	.st6{display:inline;fill:url(#SVGID_6_);}
	.st7{display:inline;fill:url(#SVGID_7_);}
	.st8{display:inline;fill:url(#SVGID_8_);}
	.st9{display:inline;}
	.st10{fill:url(#SVGID_9_);}
	.st11{fill:url(#SVGID_10_);}
	.st12{fill:url(#SVGID_11_);}
	.st13{fill:url(#SVGID_12_);}
	.st14{fill:url(#SVGID_13_);}
	.st15{fill:url(#SVGID_14_);}
	.st16{fill:url(#SVGID_15_);}
	.st17{fill:url(#SVGID_16_);}
	.st18{fill:url(#SVGID_17_);}
	.st19{fill:url(#SVGID_18_);}
	.st20{fill:url(#SVGID_19_);}
	.st21{fill:url(#SVGID_20_);}
	.st22{fill:url(#SVGID_21_);}
	.st23{fill:url(#SVGID_22_);}
	.st24{fill:url(#SVGID_23_);}
	.st25{fill:url(#SVGID_24_);}
	.st26{fill:url(#SVGID_25_);}
	.st27{fill:url(#SVGID_26_);}
	.st28{fill:url(#SVGID_27_);}
	.st29{fill:url(#SVGID_28_);}
	.st30{fill:url(#SVGID_29_);}
	.st31{display:inline;fill:url(#SVGID_30_);}
	.st32{display:inline;fill:url(#SVGID_31_);}
	.st33{display:inline;fill:url(#SVGID_32_);}
	.st34{display:inline;fill:url(#SVGID_33_);}
	.st35{display:inline;fill:url(#SVGID_34_);}
	.st36{display:inline;fill:url(#SVGID_35_);}
	.st37{display:inline;fill:url(#SVGID_36_);}
	.st38{display:inline;fill:url(#SVGID_37_);}
	.st39{display:inline;fill:url(#SVGID_38_);}
	.st40{display:inline;fill:url(#SVGID_39_);}
	.st41{display:inline;fill:url(#SVGID_40_);}
	.st42{display:inline;fill:url(#SVGID_41_);}
	.st43{fill:url(#SVGID_42_);}
	.st44{fill:url(#SVGID_43_);}
	.st45{fill:url(#SVGID_44_);}
	.st46{fill:url(#SVGID_45_);}
	.st47{display:none;fill:url(#SVGID_46_);}
	.st48{display:none;fill:url(#SVGID_47_);}
	.st49{display:none;fill:url(#SVGID_48_);}
	.st50{display:none;fill:url(#SVGID_49_);}
	.st51{display:none;fill:url(#SVGID_50_);}
	.st52{display:none;fill:url(#SVGID_51_);}
	.st53{display:none;fill:url(#SVGID_52_);}
	.st54{display:none;fill:url(#SVGID_53_);}
	.st55{display:none;fill:url(#SVGID_54_);}
	.st56{display:none;fill:url(#SVGID_55_);}
	.st57{display:inline;fill:url(#SVGID_56_);}
	.st58{fill:url(#SVGID_57_);}
	.st59{display:none;fill:url(#SVGID_58_);}
	.st60{display:none;fill:url(#SVGID_59_);}
	.st61{display:none;fill:url(#SVGID_60_);}
	.st62{display:none;fill:url(#SVGID_61_);}
	.st63{display:none;fill:url(#SVGID_62_);}
	.st64{display:none;fill:url(#SVGID_63_);}
	.st65{display:none;fill:url(#SVGID_64_);}
	.st66{display:none;fill:url(#SVGID_65_);}
	.st67{display:none;fill:url(#SVGID_66_);}
	.st68{display:none;fill:url(#SVGID_67_);}
	.st69{display:inline;fill:url(#SVGID_68_);}
	.st70{fill:url(#SVGID_69_);}
	.st71{display:none;fill:url(#SVGID_70_);}
	.st72{display:none;fill:url(#SVGID_71_);}
	.st73{display:none;fill:url(#SVGID_72_);}
	.st74{display:none;fill:url(#SVGID_73_);}
	.st75{display:none;fill:url(#SVGID_74_);}
	.st76{display:none;fill:url(#SVGID_75_);}
	.st77{display:none;fill:url(#SVGID_76_);}
	.st78{display:none;fill:url(#SVGID_77_);}
	.st79{display:none;fill:url(#SVGID_78_);}
	.st80{display:none;fill:url(#SVGID_79_);}
	.st81{display:none;fill:url(#SVGID_80_);}
	.st82{display:none;fill:url(#SVGID_81_);}
	.st83{display:none;fill:url(#SVGID_82_);}
	.st84{display:none;fill:url(#SVGID_83_);}
	.st85{display:none;fill:url(#SVGID_84_);}
	.st86{display:none;fill:url(#SVGID_85_);}
	.st87{display:none;fill:url(#SVGID_86_);}
	.st88{display:none;fill:url(#SVGID_87_);}
	.st89{display:none;fill:url(#SVGID_88_);}
	.st90{display:none;fill:url(#SVGID_89_);}
	.st91{display:none;fill:url(#SVGID_90_);}
	.st92{display:none;fill:url(#SVGID_91_);}
	.st93{display:none;fill:url(#SVGID_92_);}
	.st94{display:inline;fill:none;}
	.st95{fill:url(#SVGID_93_);}
	.st96{fill:url(#SVGID_94_);}
	.st97{fill:url(#SVGID_95_);}
	.st98{fill:url(#SVGID_96_);}
	.st99{fill:url(#SVGID_97_);}
	.st100{fill:url(#SVGID_98_);}
	.st101{fill:url(#SVGID_99_);}
	.st102{fill:url(#SVGID_100_);}
	.st103{fill:url(#SVGID_101_);}
	.st104{fill:url(#SVGID_102_);}
	.st105{fill:url(#SVGID_103_);}
	.st106{fill:url(#SVGID_104_);}
	.st107{fill:url(#SVGID_105_);}
	.st108{clip-path:url(#SVGID_107_);fill:url(#SVGID_108_);}
	.st109{clip-path:url(#SVGID_107_);fill:url(#SVGID_109_);}
</style>
<g class="st0">
	<linearGradient id="SVGID_1_" gradientUnits="userSpaceOnUse" x1="135.7059" y1="182.4174" x2="135.7059" y2="162.4206">
		<stop  offset="0" style="stop-color:#E5700F"/>
		<stop  offset="1" style="stop-color:#FEBA1C"/>
	</linearGradient>
	<path class="st1" d="M128.6,165.3c-3.9,3.9-3.9,10.2,0,14.1c3.9,3.9,10.2,3.9,14.1,0c3.9-3.9,3.9-10.2,0-14.1
		C138.9,161.4,132.5,161.4,128.6,165.3z"/>
	<linearGradient id="SVGID_2_" gradientUnits="userSpaceOnUse" x1="164.9948" y1="502.983" x2="164.9948" y2="382.9874">
		<stop  offset="0" style="stop-color:#E5700F"/>
		<stop  offset="1" style="stop-color:#FEBA1C"/>
	</linearGradient>
	<path class="st2" d="M278.2,438.7c4.4-6,6.8-13.2,6.8-20.7c0-19.3-15.7-35-35-35H80c-9.4,0-18.1,3.6-24.7,10.2
		C48.6,399.8,45,408.6,45,418c0,7.7,2.5,14.9,6.8,20.7C35.9,447.1,25,463.8,25,483v10c0,5.5,4.5,10,10,10h260c5.5,0,10-4.5,10-10
		v-10C305,463.8,294.1,447.1,278.2,438.7z M69.4,407.4c2.8-2.8,6.6-4.4,10.6-4.4h170c8.3,0,15,6.7,15,15c0,4-1.6,7.8-4.4,10.6
		c-2.8,2.8-6.6,4.4-10.6,4.4H80c-8.3,0-15-6.7-15-15C65,414,66.6,410.2,69.4,407.4z M45,483c0-16.5,13.5-30,30-30h5h170h5
		c16.5,0,30,13.5,30,30H45z"/>
	<linearGradient id="SVGID_3_" gradientUnits="userSpaceOnUse" x1="281.0104" y1="502.998" x2="281.0104" y2="-8.998">
		<stop  offset="0" style="stop-color:#E5700F"/>
		<stop  offset="1" style="stop-color:#FEBA1C"/>
	</linearGradient>
	<path class="st3" d="M527.7,411.1c-3.4-5.3-7.4-9.9-12-13.8l-46.7-40.8c-0.4-0.5-0.8-1.1-1.3-1.6c-0.8-0.8-1.7-1.4-2.7-1.9
		l-28.3-24.6L305.9,214.3c5.4-5.6,8.3-12.9,8.3-20.7c0-8-3.1-15.6-8.8-21.2c-2.5-2.5-5.3-4.4-8.3-5.8l12.1-12.1
		c3.4,0.9,6.9,1.4,10.3,1.4c10.2,0,20.5-3.9,28.3-11.7c7.6-7.6,11.7-17.6,11.7-28.3c0-10.7-4.2-20.7-11.7-28.3L263,2.7
		C255.4-4.8,245.4-9,234.7-9C224-9,214-4.8,206.4,2.7C196,13.2,192.5,28,196.1,41.3L75.4,162.1c-3.3-0.9-6.8-1.4-10.4-1.4
		c-10.7,0-20.7,4.2-28.3,11.7c-15.6,15.6-15.6,41,0,56.6l84.8,84.8c7.8,7.8,18,11.7,28.3,11.7c10.2,0,20.5-3.9,28.3-11.7
		c10.4-10.4,13.9-25.3,10.3-38.6l12.1-12.1c1.5,3,3.4,5.8,5.9,8.3c5.7,5.7,13.2,8.8,21.2,8.8c7.8,0,15.1-2.9,20.7-8.3L387.6,432
		c0.4,0.6,0.8,1.2,1.4,1.7c0.2,0.2,0.4,0.3,0.6,0.5l41.5,47.7c1,1.2,2.1,2.4,3.3,3.6c11.4,11.4,26.5,17.6,42.3,17.6
		c2.8,0,5.6-0.2,8.4-0.6c18.8-2.6,35.1-13.9,44.6-30.9C540.1,452.8,539.3,429.1,527.7,411.1z M220.6,16.9c3.8-3.8,8.8-5.9,14.1-5.9
		c5.3,0,10.4,2.1,14.1,5.9l84.8,84.8c3.8,3.8,5.9,8.8,5.9,14.1c0,5.3-2.1,10.4-5.9,14.1c-7.8,7.8-20.5,7.8-28.3,0l-84.9-84.9
		c0,0,0,0,0,0C212.8,37.3,212.8,24.7,220.6,16.9z M164,299.7c-7.8,7.8-20.5,7.8-28.3,0l-84.8-84.8c-7.8-7.8-7.8-20.5,0-28.3
		c3.8-3.8,8.8-5.9,14.1-5.9c5.3,0,10.4,2.1,14.1,5.8l84.9,84.9C171.8,279.2,171.8,291.9,164,299.7z M206.1,229.3l-28,28l-84.9-84.9
		L206.4,59.3l84.9,84.9l-28,28c-0.1,0.1-0.2,0.2-0.3,0.3L206.4,229C206.3,229.1,206.2,229.2,206.1,229.3z M241.8,250.2
		C241.8,250.2,241.8,250.2,241.8,250.2l-7.1,7.1c-1.9,1.9-4.4,2.9-7.1,2.9c-2.7,0-5.2-1-7.1-2.9c-1.9-1.9-2.9-4.4-2.9-7.1
		c0-2.6,1-5.1,2.8-6.9l56.8-56.8c3.9-3.8,10.2-3.7,14,0.1c1.9,1.9,2.9,4.4,2.9,7.1c0,2.7-1,5.2-2.9,7.1l-7,7c0,0-0.1,0.1-0.1,0.1
		L241.8,250.2z M262.5,257.7l29.2-29.2l123.7,107.9l-45.2,45.2L262.5,257.7z M383.5,396.7l47.1-47.1l15.1,13.2l-49,49L383.5,396.7z
		 M512.2,461.7c-6.5,11.5-17.4,19.1-29.9,20.9c-12.5,1.7-24.9-2.4-33.8-11.3c-0.8-0.8-1.5-1.6-2.2-2.4c0,0-0.1-0.1-0.1-0.1
		L409.8,427l51-51l41.8,36.4c0,0,0.1,0.1,0.1,0.1c3.1,2.7,5.9,5.8,8.3,9.5C518.5,433.7,519,449.6,512.2,461.7z"/>
	<linearGradient id="SVGID_4_" gradientUnits="userSpaceOnUse" x1="185.1985" y1="154.1349" x2="185.1985" y2="91.7075">
		<stop  offset="0" style="stop-color:#E5700F"/>
		<stop  offset="1" style="stop-color:#FEBA1C"/>
	</linearGradient>
	<path class="st4" d="M199.3,94.6l-42.4,42.4c-3.9,3.9-3.9,10.2,0,14.1c2,2,4.5,2.9,7.1,2.9c2.6,0,5.1-1,7.1-2.9l42.4-42.4
		c3.9-3.9,3.9-10.2,0-14.1C209.6,90.7,203.2,90.7,199.3,94.6z"/>
</g>
<g class="st0">
	<linearGradient id="SVGID_5_" gradientUnits="userSpaceOnUse" x1="-588.2957" y1="172.419" x2="-568.2914" y2="172.419">
		<stop  offset="0" style="stop-color:#E5700F"/>
		<stop  offset="1" style="stop-color:#FEBA1C"/>
	</linearGradient>
	<path class="st5" d="M-585.4,165.3c-3.9,3.9-3.9,10.2,0,14.1c3.9,3.9,10.2,3.9,14.1,0c3.9-3.9,3.9-10.2,0-14.1
		C-575.1,161.4-581.5,161.4-585.4,165.3z"/>
	<linearGradient id="SVGID_6_" gradientUnits="userSpaceOnUse" x1="-688.9995" y1="442.9852" x2="-409.0099" y2="442.9852">
		<stop  offset="0" style="stop-color:#E5700F"/>
		<stop  offset="1" style="stop-color:#FEBA1C"/>
	</linearGradient>
	<path class="st6" d="M-435.8,438.7c4.4-6,6.8-13.2,6.8-20.7c0-19.3-15.7-35-35-35h-170c-9.4,0-18.1,3.6-24.7,10.2
		c-6.6,6.6-10.2,15.4-10.2,24.8c0,7.7,2.5,14.9,6.8,20.7c-15.9,8.4-26.8,25.1-26.8,44.3v10c0,5.5,4.5,10,10,10h260
		c5.5,0,10-4.5,10-10v-10C-409,463.8-419.9,447.1-435.8,438.7z M-644.6,407.4c2.8-2.8,6.6-4.4,10.6-4.4h170c8.3,0,15,6.7,15,15
		c0,4-1.6,7.8-4.4,10.6c-2.8,2.8-6.6,4.4-10.6,4.4h-170c-8.3,0-15-6.7-15-15C-649,414-647.4,410.2-644.6,407.4z M-669,483
		c0-16.5,13.5-30,30-30h5h170h5c16.5,0,30,13.5,30,30H-669z"/>
	<linearGradient id="SVGID_7_" gradientUnits="userSpaceOnUse" x1="-688.9782" y1="247" x2="-177" y2="247">
		<stop  offset="0" style="stop-color:#E5700F"/>
		<stop  offset="1" style="stop-color:#FEBA1C"/>
	</linearGradient>
	<path class="st7" d="M-186.3,411.1c-3.4-5.3-7.4-9.9-12-13.8l-46.7-40.8c-0.4-0.5-0.8-1.1-1.3-1.6c-0.8-0.8-1.7-1.4-2.7-1.9
		l-28.3-24.6l-130.8-114.1c5.4-5.6,8.3-12.9,8.3-20.7c0-8-3.1-15.6-8.8-21.2c-2.5-2.5-5.3-4.4-8.3-5.8l12.1-12.1
		c3.4,0.9,6.9,1.4,10.3,1.4c10.2,0,20.5-3.9,28.3-11.7c7.6-7.6,11.7-17.6,11.7-28.3s-4.2-20.7-11.7-28.3L-451,2.7
		C-458.6-4.8-468.6-9-479.3-9C-490-9-500-4.8-507.6,2.7C-518,13.2-521.5,28-517.9,41.3l-120.7,120.7c-3.3-0.9-6.8-1.4-10.4-1.4
		c-10.7,0-20.7,4.2-28.3,11.7c-15.6,15.6-15.6,41,0,56.6l84.8,84.8c7.8,7.8,18,11.7,28.3,11.7c10.2,0,20.5-3.9,28.3-11.7
		c10.4-10.4,13.9-25.3,10.3-38.6l12.1-12.1c1.5,3,3.4,5.8,5.9,8.3c5.7,5.7,13.2,8.8,21.2,8.8c7.8,0,15.1-2.9,20.7-8.3L-326.4,432
		c0.4,0.6,0.8,1.2,1.4,1.7c0.2,0.2,0.4,0.3,0.6,0.5l41.5,47.7c1,1.2,2.1,2.4,3.3,3.6c11.4,11.4,26.5,17.6,42.3,17.6
		c2.8,0,5.6-0.2,8.4-0.6c18.8-2.6,35.1-13.9,44.6-30.9C-173.9,452.8-174.7,429.1-186.3,411.1z M-330.5,396.7l47.1-47.1l15.1,13.2
		l-49,49L-330.5,396.7z M-451.5,257.7l29.2-29.2l123.7,107.9l-45.2,45.2L-451.5,257.7z M-493.4,16.9c3.8-3.8,8.8-5.9,14.1-5.9
		c5.3,0,10.4,2.1,14.1,5.9l84.8,84.8c3.8,3.8,5.9,8.8,5.9,14.1c0,5.3-2.1,10.4-5.9,14.1c-7.8,7.8-20.5,7.8-28.3,0l-84.9-84.9
		c0,0,0,0,0,0C-501.2,37.3-501.2,24.7-493.4,16.9z M-550,299.7c-7.8,7.8-20.5,7.8-28.3,0l-84.8-84.8c-7.8-7.8-7.8-20.5,0-28.3
		c3.8-3.8,8.8-5.9,14.1-5.9c5.3,0,10.4,2.1,14.1,5.8l84.9,84.9C-542.2,279.2-542.2,291.9-550,299.7z M-620.7,172.4l113.1-113.1
		l84.9,84.9l-28,28c-0.1,0.1-0.2,0.2-0.3,0.3l-56.5,56.5c-0.1,0.1-0.2,0.2-0.3,0.4l-28,28L-620.7,172.4z M-486.4,260.2
		c-2.7,0-5.2-1-7.1-2.9c-1.9-1.9-2.9-4.4-2.9-7.1c0-2.6,1-5.1,2.8-6.9l56.8-56.8c3.9-3.8,10.2-3.7,14,0.1c1.9,1.9,2.9,4.4,2.9,7.1
		c0,2.7-1,5.2-2.9,7.1l-7,7c0,0-0.1,0.1-0.1,0.1l-42.3,42.3c0,0,0,0-0.1,0.1l-7,7C-481.2,259.2-483.7,260.2-486.4,260.2z
		 M-201.8,461.7c-6.5,11.5-17.4,19.1-29.9,20.9c-12.5,1.7-24.9-2.4-33.8-11.3c-0.8-0.8-1.5-1.6-2.2-2.4c0,0-0.1-0.1-0.1-0.1
		l-36.4-41.8l51-51l41.8,36.4c0,0,0.1,0.1,0.1,0.1c3.1,2.7,5.9,5.8,8.3,9.5C-195.5,433.7-195,449.6-201.8,461.7z"/>
	<linearGradient id="SVGID_8_" gradientUnits="userSpaceOnUse" x1="-560.015" y1="122.9212" x2="-497.5869" y2="122.9212">
		<stop  offset="0" style="stop-color:#E5700F"/>
		<stop  offset="1" style="stop-color:#FEBA1C"/>
	</linearGradient>
	<path class="st8" d="M-500.5,94.6c-3.9-3.9-10.2-3.9-14.1,0l-42.4,42.4c-3.9,3.9-3.9,10.2,0,14.1c2,2,4.5,2.9,7.1,2.9
		s5.1-1,7.1-2.9l42.4-42.4C-496.6,104.9-496.6,98.5-500.5,94.6z"/>
</g>
<g class="st0">
	<g class="st9">
		<linearGradient id="SVGID_9_" gradientUnits="userSpaceOnUse" x1="92.5731" y1="247" x2="461.6824" y2="247">
			<stop  offset="0" style="stop-color:#E5700F"/>
			<stop  offset="1" style="stop-color:#FEBA1C"/>
		</linearGradient>
		<path class="st10" d="M439.3,357.8c-6.7-33.8-38.5-39.6-38.6-39.6v0c-0.3-0.1,2.9,0.7-77.3-19.2v-2.7h59.1
			c12.2,0,22.1-9.9,22.1-22.1V161.6c1-4.2,1-8.5,0-12.7v-41.1c0-4.1-3.4-7.5-7.5-7.5c-4.1,0-7.5,3.4-7.5,7.5v21.5
			c-4-2.4-8.5-4.1-13.4-4.9c-1.8-7.8-8.3-14-16.5-15.1c-8.6-1.1-15.1-6.1-19.3-14.9c-2-4.1-5.9-6.8-10.4-7.2
			c-4.5-0.4-8.8,1.5-11.5,5.2c-12.9,17.5-48.7,56.9-110.6,56.9c-4.7,0-7.9-0.2-9-0.3c-11.4-0.7-21,8.4-21,19.8V186
			c0,27.5,11.4,54.3,31.4,73.3c6.6,6.3,13.9,11.6,21.7,15.8v6.2H172c-3.9,0-7.1-3.2-7.1-7.1V105.7C165,51,209.5,6,263.3,6
			c0.2,0,0.3,0,0.5,0c19.3,0.1,41.5,5.6,56.7,13.9c9.6,5.3,15.6,1.1,25,1.1c23.2,0,41.7,23.8,44,45.3c0,0.3,0,1.6,0.1,6.4
			c0,7.2,8.2,7.8,7.5,7.5c4.1,0,7.5-3.4,7.5-7.5c0-1.3,0-6.6-0.1-7.8C401.5,35.1,376.1,6,345.6,6c-11.9,0-13.7,3-17.8,0.8
			C310.6-2.7,285.5-8.9,263.9-9c-62.3-0.4-114,51.5-114,114.7v168.6c0,12.2,9.9,22.1,22.1,22.1h58.8v2.7l-77,19.1
			c-0.1,0-0.2,0.1-0.3,0.1l-5.6,1.7c-0.2,0-0.3,0.1-0.5,0.2c-10,3.7-27.6,13.6-32.4,37.8C92.1,472.5,93.1,467.6,93,468
			c-2.8,19.5,7,35,30.4,35h81.1c4.1,0,7.5-3.4,7.5-7.5c0-4.1-3.4-7.5-7.5-7.5h-28.2v-70.8c0-4.1-3.4-7.5-7.5-7.5s-7.5,3.4-7.5,7.5
			V488h-37.9c-10,0-15.8-3.2-15.8-13.7c0-5.1-0.2-0.1,22.1-113.6c3.4-16.8,15.6-23.9,22.7-26.6l5.2-1.5l44.2-11
			c49.2,58,46.3,54.9,49.1,57.7c16.4,16,39.9,14.9,55.3-3.2l46.3-54.4l44.1,10.9c1.3,0.6,23.2,4.4,27.9,28.1
			c22.1,112.5,22.1,108.5,22.1,113.6c-0.1,10.3-5.6,13.7-15.8,13.7h-37.6v-70.8c0-4.1-3.4-7.5-7.5-7.5s-7.5,3.4-7.5,7.5V488H239.6
			c-4.1,0-7.5,3.4-7.5,7.5c0,4.1,3.4,7.5,7.5,7.5h191.3c18.5,0,30.7-10.2,30.8-28.6C461.7,465.9,461.2,470,439.3,357.8z
			 M376.7,139.8c6.3,1.9,11.1,6,12.9,11.1v8.6c-1.8,5.1-6.6,9.2-12.9,11.1V139.8z M376.7,187.3V186c4.7-0.9,9-2.5,12.9-4.8v93.1
			c0,3.9-3.2,7.1-7.1,7.1h-59.1v-5.8C355.2,258.9,376.7,225.6,376.7,187.3z M219.5,248.5c-17-16.2-26.7-38.9-26.7-62.4
			c0.4-16.3-1.1-18.3,1.5-20.8c0.9-0.9,2.2-1.4,3.6-1.3c53.8,3.2,100-20.4,130.6-60c8.2,14.5,20.3,19,29.3,20.1
			c2.2,0.3,3.9,2.2,3.9,4.4c0,20.8,0,38.2,0,58.8C361.7,262,272.3,298.9,219.5,248.5z M294.8,366.4c-10.5,12.3-25.1,12.2-35.5-0.1
			l-15.7-18.5h66.9L294.8,366.4z M323.4,332.9H231l-12.9-15.2l22.1-5.5c3.3-0.8,5.7-3.9,5.7-7.4l0-23.2c20.6,6.9,42.4,6.8,62.6,0.2
			c0.1,24-0.3,23.4,0.4,25.5c0.8,2.3,2.8,4.2,5.3,4.8l22.2,5.5L323.4,332.9z"/>
	</g>
</g>
<g class="st0">
	<g class="st9">
		<g>
			<linearGradient id="SVGID_10_" gradientUnits="userSpaceOnUse" x1="95" y1="247" x2="461" y2="247">
				<stop  offset="0" style="stop-color:#E5700F"/>
				<stop  offset="1" style="stop-color:#FEBA1C"/>
			</linearGradient>
			<path class="st11" d="M453.3-6.5H102.7C98.5-6.5,95-3,95,1.2v491.6c0,4.3,3.5,7.7,7.7,7.7h266.6c2.1,0,4-0.8,5.4-2.3l84-84
				c1.4-1.4,2.3-3.4,2.3-5.5V1.2C461-3,457.5-6.5,453.3-6.5z M377,474.2v-57.8h57.8L377,474.2z M445.6,401.1l-76.4-0.1
				c-2.1,0-4,0.8-5.5,2.3c-1.4,1.4-2.3,3.4-2.3,5.5l0.1,76.4H110.4V8.9h335.2V401.1z"/>
		</g>
	</g>
</g>
<g class="st0">
	<g class="st9">
		<g>
			<linearGradient id="SVGID_11_" gradientUnits="userSpaceOnUse" x1="153" y1="405.5001" x2="241" y2="405.5001">
				<stop  offset="0" style="stop-color:#E5700F"/>
				<stop  offset="1" style="stop-color:#FEBA1C"/>
			</linearGradient>
			<path class="st12" d="M228.1,374.4c-8.3-8.3-19.4-12.9-31.1-12.9c-24.3,0-44,19.7-44,44s19.7,44,44,44s44-19.7,44-44
				C241,393.8,236.5,382.7,228.1,374.4z M197,434.1c-15.8,0-28.6-12.8-28.6-28.6s12.8-28.6,28.6-28.6s28.6,12.8,28.6,28.6
				S212.8,434.1,197,434.1z"/>
		</g>
	</g>
</g>
<g class="st0">
	<g class="st9">
		<g>
			<linearGradient id="SVGID_12_" gradientUnits="userSpaceOnUse" x1="266.2" y1="407.1" x2="337.7" y2="407.1">
				<stop  offset="0" style="stop-color:#E5700F"/>
				<stop  offset="1" style="stop-color:#FEBA1C"/>
			</linearGradient>
			<path class="st13" d="M337.7,407.1c0,4.2-3.5,7.7-7.7,7.7h-56.1c-4.3,0-7.7-3.5-7.7-7.7c0-4.3,3.5-7.7,7.7-7.7H330
				C334.3,399.4,337.7,402.9,337.7,407.1z"/>
		</g>
	</g>
</g>
<g class="st0">
	<g class="st9">
		<g>
			<linearGradient id="SVGID_13_" gradientUnits="userSpaceOnUse" x1="156.1" y1="62.4" x2="201" y2="62.4">
				<stop  offset="0" style="stop-color:#E5700F"/>
				<stop  offset="1" style="stop-color:#FEBA1C"/>
			</linearGradient>
			<path class="st14" d="M201,62.4c0,4.3-3.5,7.7-7.7,7.7h-29.5c-4.3,0-7.7-3.5-7.7-7.7s3.5-7.7,7.7-7.7h29.6
				C197.6,54.7,201,58.2,201,62.4z"/>
		</g>
	</g>
</g>
<g class="st0">
	<g class="st9">
		<g>
			<linearGradient id="SVGID_14_" gradientUnits="userSpaceOnUse" x1="299.9" y1="62.4" x2="404" y2="62.4">
				<stop  offset="0" style="stop-color:#E5700F"/>
				<stop  offset="1" style="stop-color:#FEBA1C"/>
			</linearGradient>
			<path class="st15" d="M404,62.4c0,4.3-3.5,7.7-7.7,7.7h-88.7c-4.3,0-7.7-3.5-7.7-7.7s3.5-7.7,7.7-7.7h88.7
				C400.6,54.7,404,58.2,404,62.4z"/>
		</g>
	</g>
</g>
<g class="st0">
	<g class="st9">
		<g>
			<linearGradient id="SVGID_15_" gradientUnits="userSpaceOnUse" x1="237.6" y1="106.299" x2="404" y2="106.299">
				<stop  offset="0" style="stop-color:#E5700F"/>
				<stop  offset="1" style="stop-color:#FEBA1C"/>
			</linearGradient>
			<path class="st16" d="M404,106.3c0,4.3-3.5,7.7-7.7,7.7h-151c-4.2,0-7.7-3.5-7.7-7.7c0-4.2,3.5-7.7,7.7-7.7h151
				C400.6,98.5,404,102,404,106.3z"/>
		</g>
	</g>
</g>
<g class="st0">
	<g class="st9">
		<g>
			<linearGradient id="SVGID_16_" gradientUnits="userSpaceOnUse" x1="151.5" y1="186.8" x2="404.5" y2="186.8">
				<stop  offset="0" style="stop-color:#E5700F"/>
				<stop  offset="1" style="stop-color:#FEBA1C"/>
			</linearGradient>
			<path class="st17" d="M404.5,186.8c0,4.3-3.5,7.7-7.7,7.7H159.2c-4.3,0-7.7-3.5-7.7-7.7s3.5-7.7,7.7-7.7h237.6
				C401.1,179.1,404.5,182.6,404.5,186.8z"/>
		</g>
	</g>
</g>
<g class="st0">
	<g class="st9">
		<g>
			<linearGradient id="SVGID_17_" gradientUnits="userSpaceOnUse" x1="151.5" y1="221.5" x2="404.5" y2="221.5">
				<stop  offset="0" style="stop-color:#E5700F"/>
				<stop  offset="1" style="stop-color:#FEBA1C"/>
			</linearGradient>
			<path class="st18" d="M404.5,221.5c0,4.3-3.5,7.7-7.7,7.7H159.2c-4.3,0-7.7-3.5-7.7-7.7s3.5-7.7,7.7-7.7h237.6
				c2.1,0,4,0.8,5.4,2.3C403.7,217.5,404.5,219.5,404.5,221.5z"/>
		</g>
	</g>
</g>
<g class="st0">
	<g class="st9">
		<g>
			<linearGradient id="SVGID_18_" gradientUnits="userSpaceOnUse" x1="151.5" y1="259.2" x2="404.5" y2="259.2">
				<stop  offset="0" style="stop-color:#E5700F"/>
				<stop  offset="1" style="stop-color:#FEBA1C"/>
			</linearGradient>
			<path class="st19" d="M404.5,259.2c0,4.2-3.5,7.7-7.7,7.7H159.2c-4.3,0-7.7-3.5-7.7-7.7c0-4.3,3.5-7.7,7.7-7.7h237.6
				c2.1,0,4,0.8,5.4,2.3C403.7,255.3,404.5,257.2,404.5,259.2z"/>
		</g>
	</g>
</g>
<g class="st0">
	<g class="st9">
		<g>
			<linearGradient id="SVGID_19_" gradientUnits="userSpaceOnUse" x1="383.5" y1="293.9" x2="404.5" y2="293.9">
				<stop  offset="0" style="stop-color:#E5700F"/>
				<stop  offset="1" style="stop-color:#FEBA1C"/>
			</linearGradient>
			<path class="st20" d="M404.5,293.9c0,4.2-3.5,7.7-7.7,7.7h-5.6c-4.2,0-7.7-3.5-7.7-7.7c0-4.3,3.5-7.7,7.7-7.7h5.6
				C401.1,286.2,404.5,289.7,404.5,293.9z"/>
		</g>
	</g>
</g>
<g class="st0">
	<g class="st9">
		<g>
			<linearGradient id="SVGID_20_" gradientUnits="userSpaceOnUse" x1="151.5" y1="293.9" x2="363.2" y2="293.9">
				<stop  offset="0" style="stop-color:#E5700F"/>
				<stop  offset="1" style="stop-color:#FEBA1C"/>
			</linearGradient>
			<path class="st21" d="M363.2,293.9c0,4.2-3.5,7.7-7.7,7.7H159.2c-4.3,0-7.7-3.5-7.7-7.7c0-4.3,3.5-7.7,7.7-7.7h196.3
				C359.8,286.2,363.2,289.7,363.2,293.9z"/>
		</g>
	</g>
</g>
<g class="st0">
	<g class="st9">
		<linearGradient id="SVGID_21_" gradientUnits="userSpaceOnUse" x1="110.4" y1="240.002" x2="462.4" y2="240.002">
			<stop  offset="0" style="stop-color:#E5700F"/>
			<stop  offset="1" style="stop-color:#FEBA1C"/>
		</linearGradient>
		<path class="st22" d="M462.3,111.5c0-0.6-0.2-1.3-0.4-1.9c-0.1-0.3-0.1-0.5-0.2-0.8c-0.3-0.8-0.8-1.6-1.4-2.3l-96-104
			c-0.7-0.7-1.5-1.3-2.4-1.7c-0.2-0.1-0.5-0.2-0.7-0.3c-0.7-0.3-1.5-0.4-2.3-0.5c-0.2,0-0.3-0.1-0.5-0.1h-240c-4.4,0-8,3.6-8,8v464
			c0,4.4,3.6,8,8,8h336c4.4,0,8-3.6,8-8V112C462.4,111.8,462.3,111.7,462.3,111.5z M366.4,28.5l69.7,75.5h-69.7V28.5z M446.4,464
			h-320V16h224v96c0,4.4,3.6,8,8,8h88V464z"/>
	</g>
</g>
<g class="st0">
	<g class="st9">
		<linearGradient id="SVGID_22_" gradientUnits="userSpaceOnUse" x1="222.4" y1="168.002" x2="414.4" y2="168.002">
			<stop  offset="0" style="stop-color:#E5700F"/>
			<stop  offset="1" style="stop-color:#FEBA1C"/>
		</linearGradient>
		<path class="st23" d="M406.4,160h-176c-4.4,0-8,3.6-8,8s3.6,8,8,8h176c4.4,0,8-3.6,8-8S410.8,160,406.4,160z"/>
	</g>
</g>
<g class="st0">
	<g class="st9">
		<linearGradient id="SVGID_23_" gradientUnits="userSpaceOnUse" x1="222.4" y1="312.002" x2="414.4" y2="312.002">
			<stop  offset="0" style="stop-color:#E5700F"/>
			<stop  offset="1" style="stop-color:#FEBA1C"/>
		</linearGradient>
		<path class="st24" d="M406.4,304h-176c-4.4,0-8,3.6-8,8s3.6,8,8,8h176c4.4,0,8-3.6,8-8S410.8,304,406.4,304z"/>
	</g>
</g>
<g class="st0">
	<g class="st9">
		<linearGradient id="SVGID_24_" gradientUnits="userSpaceOnUse" x1="222.4" y1="384.002" x2="414.4" y2="384.002">
			<stop  offset="0" style="stop-color:#E5700F"/>
			<stop  offset="1" style="stop-color:#FEBA1C"/>
		</linearGradient>
		<path class="st25" d="M406.4,376h-176c-4.4,0-8,3.6-8,8s3.6,8,8,8h176c4.4,0,8-3.6,8-8S410.8,376,406.4,376z"/>
	</g>
</g>
<g class="st0">
	<g class="st9">
		<linearGradient id="SVGID_25_" gradientUnits="userSpaceOnUse" x1="156.5625" y1="155.268" x2="240.4343" y2="155.268">
			<stop  offset="0" style="stop-color:#E5700F"/>
			<stop  offset="1" style="stop-color:#FEBA1C"/>
		</linearGradient>
		<path class="st26" d="M238.2,127c-3.1-3.2-8.1-3.3-11.3-0.2c-0.1,0.1-0.1,0.1-0.2,0.2l-39.6,39.6l-17-17c-3.2-3.1-8.2-3-11.3,0.2
			c-3,3.1-3,8,0,11.1l22.6,22.6c3.1,3.1,8.2,3.1,11.3,0l45.2-45.3C241.2,135.3,241.3,130.2,238.2,127z"/>
	</g>
</g>
<g class="st0">
	<g class="st9">
		<linearGradient id="SVGID_26_" gradientUnits="userSpaceOnUse" x1="222.4" y1="240.002" x2="414.4" y2="240.002">
			<stop  offset="0" style="stop-color:#E5700F"/>
			<stop  offset="1" style="stop-color:#FEBA1C"/>
		</linearGradient>
		<path class="st27" d="M406.4,232h-176c-4.4,0-8,3.6-8,8s3.6,8,8,8h176c4.4,0,8-3.6,8-8S410.8,232,406.4,232z"/>
	</g>
</g>
<g class="st0">
	<g class="st9">
		<linearGradient id="SVGID_27_" gradientUnits="userSpaceOnUse" x1="156.5625" y1="227.2679" x2="240.4343" y2="227.2679">
			<stop  offset="0" style="stop-color:#E5700F"/>
			<stop  offset="1" style="stop-color:#FEBA1C"/>
		</linearGradient>
		<path class="st28" d="M238.2,199c-3.1-3.2-8.1-3.3-11.3-0.2c-0.1,0.1-0.1,0.1-0.2,0.2l-39.6,39.6l-17-17c-3.2-3.1-8.2-3-11.3,0.2
			c-3,3.1-3,8,0,11.1l22.6,22.6c3.1,3.1,8.2,3.1,11.3,0l45.2-45.3C241.2,207.3,241.3,202.2,238.2,199z"/>
	</g>
</g>
<g class="st0">
	<g class="st9">
		<linearGradient id="SVGID_28_" gradientUnits="userSpaceOnUse" x1="156.5625" y1="299.3664" x2="240.2378" y2="299.3664">
			<stop  offset="0" style="stop-color:#E5700F"/>
			<stop  offset="1" style="stop-color:#FEBA1C"/>
		</linearGradient>
		<path class="st29" d="M237.8,271c-3.1-3-8-3-11.1,0l-39.6,39.6l-17-17c-3.2-3.1-8.2-3-11.3,0.2c-3,3.1-3,8,0,11.1l22.6,22.6
			c3.1,3.1,8.2,3.1,11.3,0l45.2-45.3C241.1,279.2,241,274.1,237.8,271z"/>
	</g>
</g>
<g class="st0">
	<g class="st9">
		<linearGradient id="SVGID_29_" gradientUnits="userSpaceOnUse" x1="156.5625" y1="371.318" x2="239.5322" y2="371.318">
			<stop  offset="0" style="stop-color:#E5700F"/>
			<stop  offset="1" style="stop-color:#FEBA1C"/>
		</linearGradient>
		<path class="st30" d="M238,343c-3.1-3.1-8.2-3.1-11.3,0l-39.6,39.6l-17-17c-3.2-3.1-8.2-3-11.3,0.2c-3,3.1-3,8,0,11.1l22.6,22.6
			c3.1,3.1,8.2,3.1,11.3,0l45.2-45.3C240.4,351.4,239.7,346.6,238,343z"/>
	</g>
</g>
<g class="st0">
	<linearGradient id="SVGID_30_" gradientUnits="userSpaceOnUse" x1="93" y1="247" x2="466" y2="247">
		<stop  offset="0" style="stop-color:#E5700F"/>
		<stop  offset="1" style="stop-color:#FEBA1C"/>
	</linearGradient>
	<path class="st31" d="M460.4-7c4.7,2.3,5.6,6.9,5.6,12.5c0,65.8,0,131.6,0,197.4c0,94.7,0,189.5,0,284.2c0,2.3-0.1,4.6-0.4,6.9
		c-0.5,4.2-2.8,6.3-6.1,6.9c-1.5,0.3-3,0.2-4.5,0.2c-105,0-210,0-315.1,0c-9.1,0-10.9-2.3-11-13.4c0-33.6,0-67.1,0-100.7
		c0-3.4-0.8-5.8-2.8-8.2c-8.5-10-16.8-20.3-25.1-30.5c-4.9-6-4.9-10,0-16c1.7-2.1,3.6-3.9,6.3-6.7c-3.8-4.2-7.1-7.6-10.2-11.3
		c-5.7-6.7-5.6-10.8-0.1-17.5c7-8.5,14-17.1,21-25.6c4.3-5.2,4.6-5.4,10.6-5.3c0.1-1.4,0.2-2.8,0.2-4.3c0-85.2,0-170.3,0-255.5
		c0-5.6,0.4-10.7,5.3-13.1C243-7,351.7-7,460.4-7z M451.4,10.5c-102.9,0-205.4,0-308,0c-0.1,1.5-0.2,2.7-0.2,3.8
		c0,88.5,0,176.9,0.1,265.4c0,2.3,1.1,5.1,2.4,6.7c15.7,19.3,31.5,38.4,47.2,57.6c15.2,18.5,30.4,36.9,45.5,55.4
		c5,6.2,5,10.3-0.1,16.4c-1.9,2.3-4.1,4.3-7,7.3c3.7,4,6.7,7,9.5,10.4c3.6,4.3,3.8,9.6,0.8,13.2c-3.1,3.7-7,3.4-10.8-1.1
		c-2.8-3.3-5.5-6.8-8.9-11.1c-1.9,2.8-3.3,5.2-5,7.3c-5.8,7.2-8.8,7.2-14.6,0.2c-18.5-22.4-36.9-44.9-55.3-67.3
		c-1-1.2-2.1-2.4-3.6-4c0,38,0,75.2,0,112.8c102.7,0,205.2,0,308,0C451.4,325.8,451.4,168.3,451.4,10.5z M159.3,364.4
		c4.9-6,9.9-12.2,14.4-17.8c-10.5-12.8-21.2-26-31.3-38.4c-4.9,5.9-10,12-14.6,17.6C138.2,338.6,148.9,351.7,159.3,364.4z
		 M188.3,399.6c7.2,8.9,14.3,17.7,20.9,25.9c5-6.1,10.1-12.3,15-18.3c-6.9-8.3-14.2-17-21.3-25.5
		C198.2,387.5,193.2,393.6,188.3,399.6z M185.3,359.3c-5.3,6.5-10.2,12.6-15.3,18.8c2.4,2.8,5,5.8,7.3,8.4c5-6.1,10-12.2,15.1-18.4
		C190.2,365.3,187.8,362.3,185.3,359.3z M111.2,304.8c1.8,2.8,3.6,5.5,4.7,7.3c5.2-6.3,10.3-12.4,15-18.1c-1.6-2.1-3.5-4.5-5.4-6.9
		C120.7,293.2,115.8,299.2,111.2,304.8z M128.4,356.2c0.3-0.1,0.5-0.2,0.8-0.3c-0.4-1.4-0.5-3.2-1.3-4.2c-3.2-4.2-6.6-8.3-10.1-12.3
		c-0.5-0.6-1.9-0.1-2.9-0.1C119.7,345.4,124.1,350.8,128.4,356.2z"/>
	<linearGradient id="SVGID_31_" gradientUnits="userSpaceOnUse" x1="320.8634" y1="382.1973" x2="438.6504" y2="382.1973">
		<stop  offset="0" style="stop-color:#E5700F"/>
		<stop  offset="1" style="stop-color:#FEBA1C"/>
	</linearGradient>
	<path class="st32" d="M404.9,414.9c-3,3.9-5.7,8.9-9.1,11.8c-8.7,7.4-19.9-3.3-21.6-19.9c-0.9-8.8,0.7-16.6,3.1-24.3
		c2.1-7,4.4-13.8,6.2-21c1.3-5-0.3-9-3.7-9c-2.2,0-4.7,0.5-6.5,2.1c-5.5,5-11.1,10-16.1,16.1c-8.8,10.7-16.4,23.4-22.8,37.9
		c-1.3,2.9-2.3,6.3-3.4,9.4c-1.6,4.4-4.1,6-6.7,4.2c-2.7-1.8-4.2-6.4-2.9-11c1.8-6.1,3.9-12.1,6.4-17.4c9.4-19.4,20.5-36,33.5-49
		c5.1-5.1,10.5-8.9,16.6-9.8c9.5-1.4,20.6,11.6,15.7,32.7c-1.8,7.7-4.4,14.9-6.6,22.3c-0.8,2.8-1.5,5.8-2,8.8
		c-0.8,4.7,0.7,10,3.3,12.2c2.2,1.9,4,0.2,5.1-2.5c2.6-6.4,5.1-13,7.3-19.9c1.5-4.6,2.1-10.1,6.2-10.1c4-0.1,5.1,5.3,6.4,9.9
		c0.8,2.9,1.4,5.9,2.3,9.9c1.2-4.8,2.3-8.8,3.3-12.8c2.3-9.2,6-10.8,10.6-4.2c4.4,6.3,8.1,13.5,9.1,23.4c0.9,9-1.2,16.2-5,22.3
		c-2,3.1-5,2.9-7,0.1c-2.1-3-2.5-7.7-0.6-11.6c2.1-4.4,3-8.6,0.8-12.9c-3,6.5-5.9,13.2-9.1,19.5c-1.3,2.5-3.1,4.8-4.9,5.6
		c-1.8,0.9-4.2,0.7-6-0.6c-2.1-1.5-2.5-5.3-1.9-9.1C404.8,417,404.9,415.7,404.9,414.9z"/>
	<linearGradient id="SVGID_32_" gradientUnits="userSpaceOnUse" x1="245.1003" y1="152.892" x2="426.0541" y2="152.892">
		<stop  offset="0" style="stop-color:#E5700F"/>
		<stop  offset="1" style="stop-color:#FEBA1C"/>
	</linearGradient>
	<path class="st33" d="M335.7,161.4c-27.5,0-54.9,0-82.4,0c-1.1,0-2.3,0.1-3.4-0.1c-3-0.5-4.9-4-4.9-8.6c0-4.3,1.9-7.7,4.8-8.3
		c1-0.2,2-0.1,3.1-0.1c55.1,0,110.2,0,165.3,0c5.3,0,7.7,2.6,7.8,8.5c0,5.9-2.4,8.6-7.7,8.6C390.8,161.4,363.3,161.4,335.7,161.4z"
		/>
	<linearGradient id="SVGID_33_" gradientUnits="userSpaceOnUse" x1="245.1152" y1="72.2697" x2="426.0343" y2="72.2697">
		<stop  offset="0" style="stop-color:#E5700F"/>
		<stop  offset="1" style="stop-color:#FEBA1C"/>
	</linearGradient>
	<path class="st34" d="M335.5,63.6c27.4,0,54.7,0,82.1,0c1.3,0,2.7,0,4,0.3c2.7,0.6,4.2,3.3,4.4,7.6c0.2,4.6-1.2,7.6-3.9,8.9
		c-1,0.4-2,0.5-3,0.5c-54.9,0-109.8,0-164.7,0c-1.6,0-3.3,0.1-4.9-0.4c-2.8-0.8-4.6-4.4-4.3-8.8c0.2-4.5,1.8-7.3,4.6-7.8
		c1.2-0.2,2.5-0.2,3.7-0.2C280.8,63.6,308.2,63.6,335.5,63.6z"/>
	<linearGradient id="SVGID_34_" gradientUnits="userSpaceOnUse" x1="245.092" y1="273.9211" x2="382.8875" y2="273.9211">
		<stop  offset="0" style="stop-color:#E5700F"/>
		<stop  offset="1" style="stop-color:#FEBA1C"/>
	</linearGradient>
	<path class="st35" d="M313.8,282.5c-20.3,0-40.6,0-60.9,0c-1,0-2.1,0.1-3.1-0.1c-2.8-0.5-4.7-3.8-4.8-8.1c-0.1-4.4,1.7-8,4.5-8.7
		c1.1-0.3,2.2-0.2,3.4-0.2c40.7,0,81.3,0,122,0c1.2,0,2.5-0.1,3.7,0.3c2.5,0.7,4.3,4.4,4.2,8.5c-0.1,4.1-1.9,7.5-4.5,8.1
		c-1.1,0.2-2.2,0.2-3.4,0.2C354.6,282.5,334.2,282.5,313.8,282.5z"/>
	<linearGradient id="SVGID_35_" gradientUnits="userSpaceOnUse" x1="245.0981" y1="193.2603" x2="370.7076" y2="193.2603">
		<stop  offset="0" style="stop-color:#E5700F"/>
		<stop  offset="1" style="stop-color:#FEBA1C"/>
	</linearGradient>
	<path class="st36" d="M307.8,201.9c-18.4,0-36.8,0-55.3,0c-1.4,0-2.9-0.1-4.2-0.9c-2.4-1.4-3.5-4.5-3.2-8.6c0.3-3.9,1.6-6.4,4-7.2
		c1.3-0.4,2.6-0.5,4-0.5c36.4,0,72.9,0,109.3,0c1.4,0,2.9,0,4.3,0.5c2.5,0.8,3.9,3.5,4.1,7.6c0.2,4.1-1,7.1-3.4,8.4
		c-1.3,0.7-2.8,0.8-4.2,0.8C344.7,201.9,326.2,201.9,307.8,201.9z"/>
	<linearGradient id="SVGID_36_" gradientUnits="userSpaceOnUse" x1="320.2901" y1="233.6085" x2="426.02" y2="233.6085">
		<stop  offset="0" style="stop-color:#E5700F"/>
		<stop  offset="1" style="stop-color:#FEBA1C"/>
	</linearGradient>
	<path class="st37" d="M373,242.3c-14.9,0-29.9,0-44.8,0c-5.2,0-7.8-2.8-7.9-8.5c-0.1-5.8,2.6-8.9,8-8.9c30.1,0,60.2,0,90.3,0
		c1.3,0,2.7,0.1,3.9,0.8c2.5,1.2,3.6,4.1,3.5,8.2c-0.1,4.1-1.4,6.9-3.9,7.8c-1.2,0.4-2.4,0.5-3.7,0.5
		C403.3,242.3,388.2,242.3,373,242.3C373,242.3,373,242.3,373,242.3z"/>
	<linearGradient id="SVGID_37_" gradientUnits="userSpaceOnUse" x1="245.1463" y1="112.5616" x2="345.9038" y2="112.5616">
		<stop  offset="0" style="stop-color:#E5700F"/>
		<stop  offset="1" style="stop-color:#FEBA1C"/>
	</linearGradient>
	<path class="st38" d="M295.3,121.3c-14.2,0-28.5,0-42.7,0c-1.3,0-2.7-0.1-3.9-0.8c-2.3-1.2-3.8-4.1-3.4-7.8
		c0.4-2.8,1.7-5.8,3.1-7.7c0.9-1.2,2.7-1,4.1-1c28.5,0,57,0,85.4,0c5.3,0,8.1,3.1,8,8.9c-0.1,5.7-2.7,8.5-7.9,8.5
		C323.7,121.3,309.5,121.3,295.3,121.3z"/>
	<linearGradient id="SVGID_38_" gradientUnits="userSpaceOnUse" x1="351.6423" y1="112.5413" x2="426.0279" y2="112.5413">
		<stop  offset="0" style="stop-color:#E5700F"/>
		<stop  offset="1" style="stop-color:#FEBA1C"/>
	</linearGradient>
	<path class="st39" d="M389,103.9c10.1,0,20.3,0,30.4,0c4.2,0,6.6,3.1,6.6,8.4c0,4.3-1.2,7.3-3.9,8.3c-1.3,0.5-2.6,0.6-4,0.6
		c-19.5,0-39.1,0-58.6,0c-5.2,0-7.8-2.8-7.9-8.5c-0.1-5.9,2.6-9,7.9-9C369.4,103.8,379.2,103.8,389,103.9
		C389,103.8,389,103.9,389,103.9z"/>
	<linearGradient id="SVGID_39_" gradientUnits="userSpaceOnUse" x1="245.1307" y1="233.5886" x2="315.2053" y2="233.5886">
		<stop  offset="0" style="stop-color:#E5700F"/>
		<stop  offset="1" style="stop-color:#FEBA1C"/>
	</linearGradient>
	<path class="st40" d="M279.9,242.3c-9,0-18,0-27,0c-1.2,0-2.5-0.1-3.7-0.5c-2.5-0.8-3.9-3.5-4.1-7.6c-0.2-4.3,1.1-7.3,3.7-8.5
		c1.2-0.5,2.4-0.7,3.6-0.7c18.4,0,36.8,0,55.3,0c1,0,2.1,0,3,0.4c2.8,1,4.7,4.6,4.4,8.7c-0.3,4.4-1.8,7.5-4.6,7.9
		c-2.7,0.4-5.5,0.3-8.3,0.4C294.8,242.3,287.3,242.3,279.9,242.3z"/>
	<linearGradient id="SVGID_40_" gradientUnits="userSpaceOnUse" x1="334.4131" y1="410.9075" x2="371.2895" y2="410.9075">
		<stop  offset="0" style="stop-color:#E5700F"/>
		<stop  offset="1" style="stop-color:#FEBA1C"/>
	</linearGradient>
	<path class="st41" d="M371.3,389c-0.5,1.1-1.3,4.6-2.6,5.4c-8.7,5.2-13.8,16.7-18.9,28.1c-2.1,4.6-3.5,10-5.1,15.1
		c-1.3,4.3-3.7,6.6-6.5,5.3c-2.6-1.2-4.6-5.6-3.6-10c1.2-5.7,2.6-11.7,4.8-16.4c4.5-9.7,9.3-19.2,14.7-27.8
		c2.8-4.4,6.8-7.3,10.5-9.6C368.1,377,371.3,381.5,371.3,389z"/>
	<linearGradient id="SVGID_41_" gradientUnits="userSpaceOnUse" x1="376.6872" y1="193.2753" x2="426.062" y2="193.2753">
		<stop  offset="0" style="stop-color:#E5700F"/>
		<stop  offset="1" style="stop-color:#FEBA1C"/>
	</linearGradient>
	<path class="st42" d="M401.3,201.9c-5.8,0-11.7,0.1-17.5,0c-1.3,0-2.7-0.2-3.9-0.9c-2.3-1.5-3.5-4.6-3.2-8.7c0.3-3.8,1.6-6.4,4-7.2
		c1-0.4,2-0.4,3-0.4c11.7,0,23.3-0.1,35,0c1.5,0,3.1,0.2,4.5,1.2c2.5,1.8,3.2,5.5,2.6,9.6c-0.7,4.5-2.8,6.4-5.5,6.4
		C414,202,407.7,201.9,401.3,201.9z"/>
</g>
<g class="st0">
	<g class="st9">
		<g>
			<linearGradient id="SVGID_42_" gradientUnits="userSpaceOnUse" x1="-42" y1="253.9114" x2="470.0005" y2="253.9114">
				<stop  offset="0" style="stop-color:#E5700F"/>
				<stop  offset="1" style="stop-color:#FEBA1C"/>
			</linearGradient>
			<path class="st43" d="M460.6,130.5c-14.6-7.6-46.5-7.5-59.1,8.2c-4.8,6-9.3,11.8-14,17.8c-12.2,15.8-26.1,33.7-51.5,62.8
				c-5.7,6.5-13.1,11.9-21.7,16.4c0.3-1.3,0.5-2.6,0.6-3.9c0.9-10.6-4-20.8-12.6-26.7c-10.2-7-24-7.2-37.8-0.4
				c-17.7,8.6-37.4,8.5-56.5,8.4c-2.3,0-4.6,0-6.8,0c-8.1,0-16.4-3.5-26.1-7.6c-13.1-5.5-28-11.8-47.4-11.8
				c-21.9,0-43.2,12.9-56.6,22.9v-4.1c0-4.5-3.6-8.1-8.1-8.1h-97c-4.5,0-8.1,3.6-8.1,8.1v161.6c0,4.5,3.6,8.1,8.1,8.1h97
				c4.5,0,8.1-3.6,8.1-8.1v-15.5c35,4.9,66.5,6.8,94.8,6.8c56.8,0,101-7.8,135.9-15.8c33.6-7.7,96.3-73.4,131.4-138
				c6.6-12.1,13.6-23.7,19.7-33.9c8.5-14.1,14.7-24.2,16.5-30.4C470.2,144.9,471.8,136.3,460.6,130.5z M55,366h-80.8V220.6H55
				C55,220.6,55,366,55,366z M439.2,169.5c-6.2,10.3-13.3,22-20.1,34.5c-35.2,64.8-94.9,124-120.8,130C247,345.6,175,357,71.1,342.3
				V237.5c7.7-6.9,32.7-27.7,56.6-27.7c16.2,0,28.9,5.4,41.2,10.5c10.8,4.6,21.1,8.9,32.4,8.9c2.2,0,4.5,0,6.7,0
				c19.9,0.1,42.6,0.3,63.7-10c8.4-4.1,16.2-4.4,21.6-0.7c3.9,2.7,6.1,7.2,5.6,12.1c-0.5,6.5-5.6,12.5-13.8,16.4
				c-41.8,11.4-94.4,11.4-125,11.4c-4.5,0-8.1,3.6-8.1,8.1s3.6,8.1,8.1,8.1c30.2,0,65.3-0.4,99.2-5.7c42.9-6.7,72.1-19.3,89-38.7
				c25.8-29.4,39.8-47.6,52.1-63.5c4.7-6,9.1-11.7,13.8-17.6c3.2-4,11-6.7,20.5-7c8.7-0.3,15.7,1.5,18.5,3
				C451,149.9,445.2,159.5,439.2,169.5z"/>
			<linearGradient id="SVGID_43_" gradientUnits="userSpaceOnUse" x1="244.784" y1="107.927" x2="271.723" y2="107.927">
				<stop  offset="0" style="stop-color:#E5700F"/>
				<stop  offset="1" style="stop-color:#FEBA1C"/>
			</linearGradient>
			<path class="st44" d="M258.3,121.4c7.4,0,13.5-6,13.5-13.5c0-7.4-6-13.5-13.5-13.5c-7.4,0-13.5,6-13.5,13.5
				C244.8,115.4,250.8,121.4,258.3,121.4z"/>
			<linearGradient id="SVGID_44_" gradientUnits="userSpaceOnUse" x1="143.505" y1="140.825" x2="314.7988" y2="140.825">
				<stop  offset="0" style="stop-color:#E5700F"/>
				<stop  offset="1" style="stop-color:#FEBA1C"/>
			</linearGradient>
			<path class="st45" d="M151.6,230.3h30.5c4.5,0,8.1-3.6,8.1-8.1v-7.2h7.2c2.1,0,8.1-3,8.1-8.1v-7.2h7.2c4.5,0,8.1-3.6,8.1-8.1
				v-7.2h7.2c2.1,0,4.2-0.9,5.7-2.4l18.1-18.1c2.2,0.3,4.4,0.4,6.7,0.4c0,0,0,0,0,0c15.1,0,29.3-5.9,40-16.6
				c22.1-22.1,22.1-57.9,0-80c-10.7-10.7-24.9-16.6-40-16.6c-15.1,0-29.3,5.9-40,16.6c-15.5,15.5-20.5,38.6-13.3,59L145.9,186
				c-1.5,1.5-2.4,3.6-2.4,5.7v30.5C143.5,226.7,147.1,230.3,151.6,230.3z M159.7,195.1l60.5-60.5c2.4-2.4,3.1-6.1,1.6-9.2
				c-7.4-15.4-4.2-33.9,7.9-46c7.6-7.6,17.8-11.8,28.6-11.8s20.9,4.2,28.6,11.8c15.8,15.8,15.8,41.4,0,57.1
				c-7.6,7.6-17.8,11.8-28.6,11.8c0,0,0,0,0,0c-2.6,0-5.3-0.3-7.9-0.8c-2.6-0.5-5.4,0.3-7.3,2.2l-18.6,18.6h-11.9
				c-4.5,0-8.1,3.6-8.1,8.1v7.2h-7.2c-4.5,0-8.1,3.6-8.1,8.1v7.2h-7.2h0c-4.2,0-8.1,3.5-8.1,8.1v7.2h-14.3L159.7,195.1L159.7,195.1z
				"/>
			<linearGradient id="SVGID_45_" gradientUnits="userSpaceOnUse" x1="-28.899" y1="355.755" x2="-1.96" y2="355.755">
				<stop  offset="0" style="stop-color:#E5700F"/>
				<stop  offset="1" style="stop-color:#FEBA1C"/>
			</linearGradient>
			<path class="st46" d="M-15.4,369.2c7.4,0,13.5-6,13.5-13.5c0-7.4-6-13.5-13.5-13.5c-7.4,0-13.5,6-13.5,13.5
				C-28.9,363.2-22.9,369.2-15.4,369.2z"/>
		</g>
	</g>
</g>
<linearGradient id="SVGID_46_" gradientUnits="userSpaceOnUse" x1="100.6839" y1="241.7155" x2="167.0988" y2="241.7155">
	<stop  offset="0" style="stop-color:#E5700F"/>
	<stop  offset="1" style="stop-color:#FEBA1C"/>
</linearGradient>
<path class="st47" d="M165.4,232.7c-2.6-3.2-7.4-3.7-10.6-1c-5.3,4.4-12.9,6.9-20.9,6.9c-8,0-15.6-2.5-20.9-6.9
	c-3.2-2.6-7.9-2.2-10.6,1c-2.6,3.2-2.2,7.9,1,10.6c8.1,6.6,18.9,10.3,30.5,10.3c11.6,0,22.4-3.6,30.5-10.3
	C167.6,240.6,168,235.9,165.4,232.7z"/>
<linearGradient id="SVGID_47_" gradientUnits="userSpaceOnUse" x1="83.547" y1="190.3015" x2="98.547" y2="190.3015">
	<stop  offset="0" style="stop-color:#E5700F"/>
	<stop  offset="1" style="stop-color:#FEBA1C"/>
</linearGradient>
<path class="st48" d="M91,178.5c-4.1,0-7.5,3.4-7.5,7.5v8.6c0,4.1,3.4,7.5,7.5,7.5s7.5-3.4,7.5-7.5V186
	C98.5,181.9,95.2,178.5,91,178.5z"/>
<linearGradient id="SVGID_48_" gradientUnits="userSpaceOnUse" x1="169.236" y1="190.3015" x2="184.236" y2="190.3015">
	<stop  offset="0" style="stop-color:#E5700F"/>
	<stop  offset="1" style="stop-color:#FEBA1C"/>
</linearGradient>
<path class="st49" d="M176.7,202.1c4.1,0,7.5-3.4,7.5-7.5V186c0-4.1-3.4-7.5-7.5-7.5s-7.5,3.4-7.5,7.5v8.6
	C169.2,198.7,172.6,202.1,176.7,202.1z"/>
<linearGradient id="SVGID_49_" gradientUnits="userSpaceOnUse" x1="-19.281" y1="246" x2="252.788" y2="246">
	<stop  offset="0" style="stop-color:#E5700F"/>
	<stop  offset="1" style="stop-color:#FEBA1C"/>
</linearGradient>
<path class="st50" d="M73.8,340.1l6.4-3.2c11.3-5.7,18.4-17,18.4-29.7v-8.7c11.3,4.2,23.3,6.3,35.5,6.3c7,0,14.1-0.7,21.2-2.1
	c22.6-4.6,43.1-17.3,57.8-35.6c14.6-18.3,22.6-41.1,22.6-64.2c-0.1-44.4-33.8-52.2-72.8-61.3c-19-4.4-40.5-9.4-62-19.2
	c-7.1-3.2-15.5-1-19.9,5.4c-14.6,21-30,33.6-41.3,33.6c-3.4,0-6.7,0.7-9.6,2v-20.2C30,85.9,76.6,39.3,133.9,39.3
	s103.9,46.6,103.9,103.9v17.1c0,4.1,3.4,7.5,7.5,7.5c4.1,0,7.5-3.4,7.5-7.5v-17.1c0-44.2-24.3-82.9-60.2-103.4
	c0.1-1.3,0.2-2.5,0.2-3.8c0-25.4-26.4-46.1-58.9-46.1C101.4-10,75,10.7,75,36.1c0,1.3,0.1,2.5,0.2,3.8C39.3,60.3,15,99,15,143.2V186
	c0,11,7.3,20.4,17.3,23.5c1.8,28.3,15.1,54.4,37.2,72.5c4.4,3.6,9.1,6.8,14,9.6v15.7c0,6.9-3.9,13.2-10.1,16.3l-74.4,37.2
	c-11.3,5.7-18.4,17-18.4,29.7v35.5c0,6.2,3.5,11.5,8.6,14.2v54.4c0,4.1,3.4,7.5,7.5,7.5s7.5-3.4,7.5-7.5V442h27.8v52.5
	c0,4.1,3.4,7.5,7.5,7.5s7.5-3.4,7.5-7.5v-77.1c0-4.1-3.4-7.5-7.5-7.5s-7.5,3.4-7.5,7.5v9.6H-3.2c-0.6,0-1.1-0.5-1.1-1.1v-35.5
	c0-6.9,3.9-13.2,10.1-16.3l54.6-27.3c11.2,20,33.1,40.8,34.1,41.7c1.4,1.4,3.3,2,5.1,2c2,0,4-0.8,5.5-2.4c2.8-3,2.7-7.8-0.3-10.6
	C104.5,377.4,83.9,357.9,73.8,340.1z M133.9,5c22.5,0,41.2,12.1,43.6,27.6c-13.5-5.3-28.2-8.3-43.6-8.3c-15.4,0-30.1,2.9-43.6,8.3
	C92.7,17.1,111.3,5,133.9,5z M79.1,270.4c-20.3-16.6-31.9-41.1-31.9-67.2c0-4.1-3.4-7.5-7.5-7.5c-5.3,0-9.6-4.3-9.6-9.6
	s4.3-9.6,9.6-9.6c22.5,0,43.3-25.1,53.6-40.1c0.2-0.3,0.5-0.4,0.8-0.4c0.2,0,0.4,0.1,0.6,0.1l0,0c22.8,10.3,45.1,15.5,64.7,20.1
	c41.3,9.6,61.1,15.6,61.2,46.8c0.1,19.7-6.8,39.2-19.3,54.8c-12.5,15.6-30,26.4-49.1,30.3C126,293.4,99.3,287,79.1,270.4z"/>
<linearGradient id="SVGID_50_" gradientUnits="userSpaceOnUse" x1="117.8622" y1="370.2706" x2="381.2823" y2="370.2706">
	<stop  offset="0" style="stop-color:#E5700F"/>
	<stop  offset="1" style="stop-color:#FEBA1C"/>
</linearGradient>
<path class="st51" d="M356.5,263.3c-33-33-86.7-33-119.7,0l-94.3,94.3c-33,33-33,86.7,0,119.7c16.5,16.5,38.2,24.7,59.8,24.7
	c21.2,0,42.3-7.9,58.7-23.6l12,20c2.1,3.6,6.7,4.7,10.3,2.6s4.7-6.7,2.6-10.3L262.8,452c-2.9-4.8-8.2-7.8-13.8-7.8h-12.3
	c-7.5,0-14.8-3.2-19.8-8.8c-5.1-5.6-7.6-13-6.8-20.7c1.3-13.5,13.6-24.1,28.1-24.1H254c13,0,24.9,7.1,31.1,18.6l47.9,88.9
	c1.4,2.5,3.9,3.9,6.6,3.9c1.2,0,2.4-0.3,3.5-0.9c3.6-2,5-6.5,3-10.2L312,427.5l44.5-44.5C389.5,350,389.5,296.3,356.5,263.3z
	 M195.1,413.3c-1.1,11.8,2.8,23.5,10.7,32.2c7.9,8.7,19.2,13.7,30.9,13.7H249c0.4,0,0.7,0.2,0.9,0.5l3.3,5.4l-1.5,1.5
	c-27.1,27.1-71.3,27.1-98.5,0c-27.1-27.1-27.1-71.3,0-98.5l22.3-22.3c7.6,7.5,22.5,21.7,40.5,35.7
	C204.5,388.3,196.4,399.9,195.1,413.3z M304.6,413.7l-6.3-11.6c-8.8-16.3-25.8-26.5-44.3-26.5h-15.8c-1.7,0-3.3,0.1-5,0.3
	c-20.6-15.1-38.6-32.2-47.1-40.6l61.4-61.4c27.1-27.1,71.3-27.1,98.5,0c13.1,13.1,20.4,30.6,20.4,49.2s-7.2,36.1-20.4,49.2
	L304.6,413.7z"/>
<linearGradient id="SVGID_51_" gradientUnits="userSpaceOnUse" x1="246.3813" y1="323.1198" x2="347.0227" y2="323.1198">
	<stop  offset="0" style="stop-color:#E5700F"/>
	<stop  offset="1" style="stop-color:#FEBA1C"/>
</linearGradient>
<path class="st52" d="M332.3,287.5c-19.6-19.6-51.6-19.6-71.2,0c-19.6,19.6-19.6,51.6,0,71.2c9.8,9.8,22.7,14.7,35.6,14.7
	s25.8-4.9,35.6-14.7C351.9,339.1,351.9,307.2,332.3,287.5z M321.7,348.1c-13.8,13.8-36.2,13.8-50,0c-13.8-13.8-13.8-36.2,0-50
	c6.9-6.9,15.9-10.3,25-10.3s18.1,3.4,25,10.3C335.5,311.9,335.5,334.3,321.7,348.1z"/>
<linearGradient id="SVGID_52_" gradientUnits="userSpaceOnUse" x1="277.02" y1="311" x2="292.02" y2="311">
	<stop  offset="0" style="stop-color:#E5700F"/>
	<stop  offset="1" style="stop-color:#FEBA1C"/>
</linearGradient>
<circle class="st53" cx="284.5" cy="311" r="7.5"/>
<linearGradient id="SVGID_53_" gradientUnits="userSpaceOnUse" x1="301.27" y1="335.17" x2="316.27" y2="335.17">
	<stop  offset="0" style="stop-color:#E5700F"/>
	<stop  offset="1" style="stop-color:#FEBA1C"/>
</linearGradient>
<circle class="st54" cx="308.8" cy="335.2" r="7.5"/>
<linearGradient id="SVGID_54_" gradientUnits="userSpaceOnUse" x1="-66.683" y1="320.624" x2="177.374" y2="320.624">
	<stop  offset="0" style="stop-color:#E5700F"/>
	<stop  offset="1" style="stop-color:#FEBA1C"/>
</linearGradient>
<path class="st55" d="M138.4,375.2h-23.4l0-17.2c19.1-16.7,31.1-41.2,31.1-68.4v-29.9c6.1-30.6,3.3-53.3-8.3-67.5
	c-7.3-8.9-16.4-12.3-22.8-13.6v-34.5c0-4.3-3.5-7.8-7.8-7.8c-3,0-6,0-9.1,0c-3.2,0-6.5,0-9.8,0c-37.6,0-79.8,2.4-104.8,30.8
	c-18,20.4-24.3,50.6-19.1,92.2v30.3c0,27.3,12.1,51.8,31.2,68.4v17.2h-23.4c-21.5,0-38.9,17.5-38.9,38.9v83.1c0,4.3,3.5,7.8,7.8,7.8
	h228.5c4.3,0,7.8-3.5,7.8-7.8v-83.1c0,0,0,0,0,0C177.4,392.6,159.9,375.2,138.4,375.2z M99.5,378.8l-23.9,15.9l-12.4-6.2V380
	c13.1-1.1,25.4-5,36.4-11.1L99.5,378.8z M-4.8,177.3c20.8-23.5,59-25.5,93.1-25.5c3.3,0,6.5,0,9.7,0c0.5,0,0.9,0,1.4,0v33.8
	c0,2.1,0.9,4.2,2.4,5.7c1.6,1.5,3.6,2.2,5.8,2.1c0.7,0,11-0.2,18.2,8.6c5.3,6.5,8,16.4,7.9,29.3l-3.4-6.8c-1.7-3.4-5.7-5.1-9.3-3.9
	c-0.5,0.1-46.6,14.8-73.2,14.8c-25.5,0-48.6-13.8-48.9-14c-3.4-2.1-7.9-1.2-10.3,2l-10.3,13.7C-22.2,210.8-16.6,190.7-4.8,177.3z
	 M-19.9,289.5v-28.7l17.1-22.7c9.6,4.8,29.1,12.9,50.7,12.9c23.1,0,57.4-9.4,71.6-13.5l11.2,22.5v29.6c0,41.5-33.8,75.3-75.3,75.3
	C13.8,364.8-19.9,331-19.9,289.5z M47.6,380v8l-16.8,6.7l-19.5-15.6v-10.3C22.1,375,34.5,378.9,47.6,380z M161.8,489.4h-36.3v-23.4
	c0-4.3-3.5-7.8-7.8-7.8s-7.8,3.5-7.8,7.8v23.4H0.8v-23.4c0-4.3-3.5-7.8-7.8-7.8s-7.8,3.5-7.8,7.8v23.4h-36.3v-75.3
	c0-12.9,10.5-23.4,23.4-23.4H0.7l23.8,19.1c0.1,0.1,0.2,0.1,0.2,0.1c0.2,0.2,0.4,0.3,0.7,0.4c0.1,0.1,0.3,0.2,0.4,0.2
	c0.2,0.1,0.4,0.2,0.7,0.3c0.2,0.1,0.3,0.1,0.5,0.2c0.3,0.1,0.5,0.1,0.8,0.2c0.1,0,0.3,0.1,0.4,0.1c0.4,0.1,0.8,0.1,1.2,0.1
	c0.3,0,0.5,0,0.8,0c0,0,0.1,0,0.1,0c0.2,0,0.4-0.1,0.6-0.1c0.1,0,0.2,0,0.3-0.1c0.2,0,0.3-0.1,0.5-0.1c0.1,0,0.2-0.1,0.3-0.1
	c0.1,0,0.1,0,0.2-0.1l22.7-9.1l17.5,8.7c0,0,0,0,0,0l0.1,0.1c0.1,0.1,0.2,0.1,0.3,0.1c0.2,0.1,0.3,0.1,0.5,0.2
	c0.2,0.1,0.4,0.1,0.6,0.2c0.1,0,0.2,0.1,0.3,0.1c0.3,0.1,0.6,0.1,0.8,0.2c0,0,0,0,0.1,0c0.3,0,0.6,0.1,0.9,0.1c0.4,0,0.7,0,1.1-0.1
	c0.2,0,0.3-0.1,0.5-0.1c0.2,0,0.4-0.1,0.6-0.1c0.2,0,0.3-0.1,0.5-0.2c0.2-0.1,0.4-0.1,0.6-0.2c0.1-0.1,0.3-0.1,0.4-0.2
	c0.2-0.1,0.4-0.2,0.6-0.3c0,0,0.1,0,0.1-0.1l29.2-19.5h28.8c12.9,0,23.4,10.5,23.4,23.4c0,0,0,0,0,0L161.8,489.4L161.8,489.4z"/>
<linearGradient id="SVGID_55_" gradientUnits="userSpaceOnUse" x1="192.954" y1="310.254" x2="437.012" y2="310.254">
	<stop  offset="0" style="stop-color:#E5700F"/>
	<stop  offset="1" style="stop-color:#FEBA1C"/>
</linearGradient>
<path class="st56" d="M437,237.5C437,237.5,437,237.5,437,237.5c0-67.3-54.8-122-122-122c-67.3,0-122,54.7-122,122v187v72.7
	c0,4.3,3.5,7.8,7.8,7.8h228.5c4.3,0,7.8-3.5,7.8-7.8v-72.7c0,0,0,0,0,0L437,237.5L437,237.5z M315,131.1
	c58.7,0,106.5,47.8,106.5,106.4c0,0,0,0,0,0v155.8c-6.5-4.9-14.6-7.8-23.4-7.8h-30.9c-0.1,0-0.2,0-0.3,0s-0.2,0-0.3,0h-12.7l0-14
	c30.7-14.6,51.9-45.9,51.9-82.1V248c0-4.3-3.5-7.8-7.8-7.8h-13v-13c0-4.3-3.5-7.8-7.8-7.8s-7.8,3.5-7.8,7.8v13h-15.6v-13
	c0-4.3-3.5-7.8-7.8-7.8s-7.8,3.5-7.8,7.8v13h-15.6v-13c0-4.3-3.5-7.8-7.8-7.8s-7.8,3.5-7.8,7.8v13h-15.6v-13c0-4.3-3.5-7.8-7.8-7.8
	s-7.8,3.5-7.8,7.8v13h-15.6v-13c0-4.3-3.5-7.8-7.8-7.8s-7.8,3.5-7.8,7.8v13h-13c-4.3,0-7.8,3.5-7.8,7.8v41.6
	c0,36.2,21.3,67.5,51.9,82.1v14h-12.7c-0.1,0-0.2,0-0.3,0c-0.1,0-0.2,0-0.3,0h-30.9c-8.8,0-16.9,2.9-23.4,7.8V237.5
	C208.5,178.8,256.3,131.1,315,131.1z M239.7,255.7h150.6v33.8c0,41.5-33.8,75.3-75.3,75.3s-75.3-33.8-75.3-75.3L239.7,255.7
	L239.7,255.7z M283.8,401.1c4.3,0,7.8-3.5,7.8-7.8v-16c7.5,2,15.3,3,23.4,3c8.1,0,15.9-1.1,23.4-3.1l0,16v0c0,0,0,0,0,0
	c0,0.1,0,0.3,0,0.4c0,0.1,0,0.3,0,0.4c0,0.1,0,0.2,0.1,0.4c0,0.1,0,0.3,0.1,0.4c0,0.1,0.1,0.2,0.1,0.4c0,0.1,0.1,0.3,0.1,0.4
	c0,0.1,0.1,0.3,0.1,0.4c0,0.1,0.1,0.2,0.1,0.3c0.1,0.2,0.2,0.4,0.3,0.5c0,0,0,0.1,0.1,0.1c1.1,2,3,3.4,5.3,3.9c0,0,0,0,0,0
	c0.2,0,0.4,0.1,0.6,0.1c0.1,0,0.1,0,0.2,0c0.2,0,0.3,0,0.5,0c0.1,0,0.2,0,0.3,0c0,0,0,0,0,0h12.3c-3.7,20.6-21.8,36.3-43.4,36.3
	s-39.7-15.7-43.4-36.3L283.8,401.1L283.8,401.1z M421.4,489.4h-36.3v-23.4c0-4.3-3.5-7.8-7.8-7.8s-7.8,3.5-7.8,7.8v23.4H260.5v-23.4
	c0-4.3-3.5-7.8-7.8-7.8s-7.8,3.5-7.8,7.8v23.4h-36.3v-64.9c0-12.9,10.5-23.4,23.4-23.4h23.9c3.8,29.3,28.9,51.9,59.2,51.9
	s55.4-22.7,59.2-51.9h23.9c12.9,0,23.4,10.5,23.4,23.3c0,0,0,0,0,0L421.4,489.4L421.4,489.4z"/>
<g class="st0">
	<linearGradient id="SVGID_56_" gradientUnits="userSpaceOnUse" x1="183.1266" y1="62.6868" x2="274.9148" y2="62.6868">
		<stop  offset="0" style="stop-color:#E5700F"/>
		<stop  offset="1" style="stop-color:#FEBA1C"/>
	</linearGradient>
	<path class="st57" d="M260.6,7.5C251.3-1.8,239-6.9,226-6.9c-13.1,0-25.3,5.1-34.6,14.3c-0.5,0.5-0.9,1.1-1.1,1.8
		c-0.3,1.2-0.1,2.5,0.7,3.4l8.3,11.5l-13.9,18c-1.3,1.7-1,4.1,0.6,5.5L202,60.8l-13.7,17.9c-1.1,1.4-1.1,3.3,0,4.8l11.8,15.8
		l-15.1,9.3c-1,0.6-1.7,1.7-1.9,2.9c-0.1,1.2,0.3,2.4,1.1,3.3l16.3,16.3c0.7,0.7,1.8,1.2,2.8,1.2c0.1,0,0.2,0,0.2,0
		c1-0.1,1.9-0.5,2.6-1.2l54.4-54.4c9.2-9.2,14.3-21.5,14.3-34.6C274.9,29,269.8,16.7,260.6,7.5L260.6,7.5z M255,71.1l-51.6,51.6
		l-10-10l14.5-9c0.9-0.6,1.6-1.5,1.8-2.6c0.2-1.1-0.1-2.2-0.7-3.1l-12.6-16.9l14.2-18.6c1.3-1.7,1-4.1-0.6-5.5L193.9,44l13.4-17.3
		c1.1-1.4,1.1-3.3,0.1-4.7l-8-11.2C206.8,4.5,216.1,1,226,1c11,0,21.3,4.3,29,12c7.8,7.8,12,18.1,12,29S262.7,63.4,255,71.1
		L255,71.1z M255,71.1"/>
	<g class="st9">
		<linearGradient id="SVGID_57_" gradientUnits="userSpaceOnUse" x1="85.164" y1="67.3005" x2="183.2624" y2="67.3005">
			<stop  offset="0" style="stop-color:#E5700F"/>
			<stop  offset="1" style="stop-color:#FEBA1C"/>
		</linearGradient>
		<path class="st58" d="M165.2,112.7l14.5-9c0.9-0.6,1.6-1.5,1.8-2.6c0.2-1.1,0-2.2-0.7-3.1l-12.6-16.9l14.2-18.6
			c1.3-1.7,1-4.1-0.6-5.5L165.7,44l13.4-17.3c1.1-1.4,1.1-3.3,0.1-4.7L172,11.9c-3.5-4.9-7.8-8.9-12.8-11.9
			c-19.3-11.4-43.8-8.4-59.6,7.5C90.3,16.7,85.2,29,85.2,42.1c0,13.1,5.1,25.4,14.3,34.6l63.6,63.6c0.8,0.8,1.8,1.2,2.8,1.2
			s2-0.4,2.8-1.2l9.2-9.2c0.4-0.3,0.6-0.7,0.9-1.2c0.7-1.5,0.4-3.3-0.8-4.5L165.2,112.7z M165.9,132l-60.8-60.8
			c-7.8-7.8-12-18.1-12-29s4.3-21.3,12-29c7.9-7.9,18.4-12,29-12c7.2,0,14.4,1.9,20.9,5.8c4,2.4,7.6,5.7,10.5,9.7l5.5,7.7l-13.9,18
			c-1.3,1.7-1,4.1,0.6,5.5l16.1,13.1l-13.7,17.9c-1.1,1.4-1.1,3.3,0,4.8l11.8,15.8l-15.1,9.3c-1,0.6-1.7,1.7-1.9,2.9
			c-0.1,1.2,0.3,2.4,1.1,3.3l13.5,13.5L165.9,132z M165.9,132"/>
	</g>
</g>
<linearGradient id="SVGID_58_" gradientUnits="userSpaceOnUse" x1="99.8479" y1="242.7155" x2="166.2628" y2="242.7155">
	<stop  offset="0" style="stop-color:#E5700F"/>
	<stop  offset="1" style="stop-color:#FEBA1C"/>
</linearGradient>
<path class="st59" d="M164.6,233.7c-2.6-3.2-7.4-3.7-10.6-1c-5.3,4.4-12.9,6.9-20.9,6.9c-8,0-15.6-2.5-20.9-6.9
	c-3.2-2.6-7.9-2.2-10.6,1c-2.6,3.2-2.2,7.9,1,10.6c8.1,6.6,18.9,10.3,30.5,10.3c11.6,0,22.4-3.6,30.5-10.3
	C166.7,241.6,167.2,236.9,164.6,233.7z"/>
<linearGradient id="SVGID_59_" gradientUnits="userSpaceOnUse" x1="82.711" y1="191.3015" x2="97.711" y2="191.3015">
	<stop  offset="0" style="stop-color:#E5700F"/>
	<stop  offset="1" style="stop-color:#FEBA1C"/>
</linearGradient>
<path class="st60" d="M90.2,179.5c-4.1,0-7.5,3.4-7.5,7.5v8.6c0,4.1,3.4,7.5,7.5,7.5s7.5-3.4,7.5-7.5V187
	C97.7,182.9,94.4,179.5,90.2,179.5z"/>
<linearGradient id="SVGID_60_" gradientUnits="userSpaceOnUse" x1="168.4" y1="191.3015" x2="183.4" y2="191.3015">
	<stop  offset="0" style="stop-color:#E5700F"/>
	<stop  offset="1" style="stop-color:#FEBA1C"/>
</linearGradient>
<path class="st61" d="M175.9,203.1c4.1,0,7.5-3.4,7.5-7.5V187c0-4.1-3.4-7.5-7.5-7.5s-7.5,3.4-7.5,7.5v8.6
	C168.4,199.7,171.8,203.1,175.9,203.1z"/>
<linearGradient id="SVGID_61_" gradientUnits="userSpaceOnUse" x1="-20.117" y1="247" x2="251.952" y2="247">
	<stop  offset="0" style="stop-color:#E5700F"/>
	<stop  offset="1" style="stop-color:#FEBA1C"/>
</linearGradient>
<path class="st62" d="M72.9,341.1l6.4-3.2c11.3-5.7,18.4-17,18.4-29.7v-8.7c11.3,4.2,23.3,6.3,35.5,6.3c7,0,14.1-0.7,21.2-2.1
	c22.6-4.6,43.1-17.3,57.8-35.6c14.6-18.3,22.6-41.1,22.6-64.2c-0.1-44.4-33.8-52.2-72.8-61.3c-19-4.4-40.5-9.4-62-19.2
	c-7.1-3.2-15.5-1-19.9,5.4c-14.6,21-30,33.6-41.3,33.6c-3.4,0-6.7,0.7-9.6,2v-20.2c0-57.3,46.6-103.9,103.9-103.9
	S237,86.9,237,144.2v17.1c0,4.1,3.4,7.5,7.5,7.5c4.1,0,7.5-3.4,7.5-7.5v-17.1c0-44.2-24.3-82.9-60.2-103.4c0.1-1.3,0.2-2.5,0.2-3.8
	C192,11.7,165.5-9,133.1-9c-32.5,0-58.9,20.7-58.9,46.1c0,1.3,0.1,2.5,0.2,3.8C38.4,61.3,14.2,100,14.2,144.2V187
	c0,11,7.3,20.4,17.3,23.5c1.8,28.3,15.1,54.4,37.2,72.5c4.4,3.6,9.1,6.8,14,9.6v15.7c0,6.9-3.9,13.2-10.1,16.3l-74.4,37.2
	c-11.3,5.7-18.4,17-18.4,29.7v35.5c0,6.2,3.5,11.5,8.6,14.2v54.4c0,4.1,3.4,7.5,7.5,7.5s7.5-3.4,7.5-7.5V443h27.8v52.5
	c0,4.1,3.4,7.5,7.5,7.5s7.5-3.4,7.5-7.5v-77.1c0-4.1-3.4-7.5-7.5-7.5s-7.5,3.4-7.5,7.5v9.6H-4c-0.6,0-1.1-0.5-1.1-1.1v-35.5
	c0-6.9,3.9-13.2,10.1-16.3l54.6-27.3c11.2,20,33.1,40.8,34.1,41.7c1.4,1.4,3.3,2,5.1,2c2,0,4-0.8,5.5-2.4c2.8-3,2.7-7.8-0.3-10.6
	C103.7,378.4,83.1,358.9,72.9,341.1z M133.1,6c22.5,0,41.2,12.1,43.6,27.6c-13.5-5.3-28.2-8.3-43.6-8.3c-15.4,0-30.1,2.9-43.6,8.3
	C91.9,18.1,110.5,6,133.1,6z M78.2,271.4c-20.3-16.6-31.9-41.1-31.9-67.2c0-4.1-3.4-7.5-7.5-7.5c-5.3,0-9.6-4.3-9.6-9.6
	s4.3-9.6,9.6-9.6c22.5,0,43.3-25.1,53.6-40.1c0.2-0.3,0.5-0.4,0.8-0.4c0.2,0,0.4,0.1,0.6,0.1l0,0c22.8,10.3,45.1,15.5,64.7,20.1
	c41.3,9.6,61.1,15.6,61.2,46.8c0.1,19.7-6.8,39.2-19.3,54.8c-12.5,15.6-30,26.4-49.1,30.3C125.2,294.4,98.5,288,78.2,271.4z"/>
<linearGradient id="SVGID_62_" gradientUnits="userSpaceOnUse" x1="117.0262" y1="371.2706" x2="380.4463" y2="371.2706">
	<stop  offset="0" style="stop-color:#E5700F"/>
	<stop  offset="1" style="stop-color:#FEBA1C"/>
</linearGradient>
<path class="st63" d="M355.7,264.3c-33-33-86.7-33-119.7,0l-94.3,94.3c-33,33-33,86.7,0,119.7c16.5,16.5,38.2,24.7,59.8,24.7
	c21.2,0,42.3-7.9,58.7-23.6l12,20c2.1,3.6,6.7,4.7,10.3,2.6s4.7-6.7,2.6-10.3L261.9,453c-2.9-4.8-8.2-7.8-13.8-7.8h-12.3
	c-7.5,0-14.8-3.2-19.8-8.8c-5.1-5.6-7.6-13-6.8-20.7c1.3-13.5,13.6-24.1,28.1-24.1h15.8c13,0,24.9,7.1,31.1,18.6l47.9,88.9
	c1.4,2.5,3.9,3.9,6.6,3.9c1.2,0,2.4-0.3,3.5-0.9c3.6-2,5-6.5,3-10.2l-34.2-63.4l44.5-44.5C388.7,351,388.7,297.3,355.7,264.3z
	 M194.3,414.3c-1.1,11.8,2.8,23.5,10.7,32.2c7.9,8.7,19.2,13.7,30.9,13.7h12.3c0.4,0,0.7,0.2,0.9,0.5l3.3,5.4l-1.5,1.5
	c-27.1,27.1-71.3,27.1-98.5,0c-27.1-27.1-27.1-71.3,0-98.5l22.3-22.3c7.6,7.5,22.5,21.7,40.5,35.7
	C203.7,389.3,195.6,400.9,194.3,414.3z M303.7,414.7l-6.3-11.6c-8.8-16.3-25.8-26.5-44.3-26.5h-15.8c-1.7,0-3.3,0.1-5,0.3
	c-20.6-15.1-38.6-32.2-47.1-40.6l61.4-61.4c27.1-27.1,71.3-27.1,98.5,0c13.1,13.1,20.4,30.6,20.4,49.2s-7.2,36.1-20.4,49.2
	L303.7,414.7z"/>
<linearGradient id="SVGID_63_" gradientUnits="userSpaceOnUse" x1="245.5453" y1="324.1198" x2="346.1867" y2="324.1198">
	<stop  offset="0" style="stop-color:#E5700F"/>
	<stop  offset="1" style="stop-color:#FEBA1C"/>
</linearGradient>
<path class="st64" d="M331.5,288.5c-19.6-19.6-51.6-19.6-71.2,0c-19.6,19.6-19.6,51.6,0,71.2c9.8,9.8,22.7,14.7,35.6,14.7
	s25.8-4.9,35.6-14.7C351.1,340.1,351.1,308.2,331.5,288.5z M320.9,349.1c-13.8,13.8-36.2,13.8-50,0c-13.8-13.8-13.8-36.2,0-50
	c6.9-6.9,15.9-10.3,25-10.3s18.1,3.4,25,10.3C334.6,312.9,334.6,335.3,320.9,349.1z"/>
<linearGradient id="SVGID_64_" gradientUnits="userSpaceOnUse" x1="276.184" y1="312" x2="291.184" y2="312">
	<stop  offset="0" style="stop-color:#E5700F"/>
	<stop  offset="1" style="stop-color:#FEBA1C"/>
</linearGradient>
<circle class="st65" cx="283.7" cy="312" r="7.5"/>
<linearGradient id="SVGID_65_" gradientUnits="userSpaceOnUse" x1="300.434" y1="336.17" x2="315.434" y2="336.17">
	<stop  offset="0" style="stop-color:#E5700F"/>
	<stop  offset="1" style="stop-color:#FEBA1C"/>
</linearGradient>
<circle class="st66" cx="307.9" cy="336.2" r="7.5"/>
<linearGradient id="SVGID_66_" gradientUnits="userSpaceOnUse" x1="-67.683" y1="297.624" x2="176.374" y2="297.624">
	<stop  offset="0" style="stop-color:#E5700F"/>
	<stop  offset="1" style="stop-color:#FEBA1C"/>
</linearGradient>
<path class="st67" d="M137.4,352.2h-23.4l0-17.2c19.1-16.7,31.1-41.2,31.1-68.4v-29.9c6.1-30.6,3.3-53.3-8.3-67.5
	c-7.3-8.9-16.4-12.3-22.8-13.6v-34.5c0-4.3-3.5-7.8-7.8-7.8c-3,0-6,0-9.1,0c-3.2,0-6.5,0-9.8,0c-37.6,0-79.8,2.4-104.8,30.8
	c-18,20.4-24.3,50.6-19.1,92.2v30.3c0,27.3,12.1,51.8,31.2,68.4v17.2h-23.4c-21.5,0-38.9,17.5-38.9,38.9v83.1c0,4.3,3.5,7.8,7.8,7.8
	h228.5c4.3,0,7.8-3.5,7.8-7.8v-83.1c0,0,0,0,0,0C176.4,369.6,158.9,352.2,137.4,352.2z M98.5,355.8l-23.9,15.9l-12.4-6.2V357
	c13.1-1.1,25.4-5,36.4-11.1L98.5,355.8z M-5.8,154.3c20.8-23.5,59-25.5,93.1-25.5c3.3,0,6.5,0,9.7,0c0.5,0,0.9,0,1.4,0v33.8
	c0,2.1,0.9,4.2,2.4,5.7c1.6,1.5,3.6,2.2,5.8,2.1c0.7,0,11-0.2,18.2,8.6c5.3,6.5,8,16.4,7.9,29.3l-3.4-6.8c-1.7-3.4-5.7-5.1-9.3-3.9
	c-0.5,0.1-46.6,14.8-73.2,14.8c-25.5,0-48.6-13.8-48.9-14c-3.4-2.1-7.9-1.2-10.3,2l-10.3,13.7C-23.2,187.8-17.6,167.7-5.8,154.3z
	 M-20.9,266.5v-28.7l17.1-22.7c9.6,4.8,29.1,12.9,50.7,12.9c23.1,0,57.4-9.4,71.6-13.5l11.2,22.5v29.6c0,41.5-33.8,75.3-75.3,75.3
	C12.8,341.8-20.9,308-20.9,266.5z M46.6,357v8l-16.8,6.7l-19.5-15.6v-10.3C21.1,352,33.5,355.9,46.6,357z M160.8,466.4h-36.3v-23.4
	c0-4.3-3.5-7.8-7.8-7.8s-7.8,3.5-7.8,7.8v23.4H-0.2v-23.4c0-4.3-3.5-7.8-7.8-7.8s-7.8,3.5-7.8,7.8v23.4h-36.3v-75.3
	c0-12.9,10.5-23.4,23.4-23.4h28.4l23.8,19.1c0.1,0.1,0.2,0.1,0.2,0.1c0.2,0.2,0.4,0.3,0.7,0.4c0.1,0.1,0.3,0.2,0.4,0.2
	c0.2,0.1,0.4,0.2,0.7,0.3c0.2,0.1,0.3,0.1,0.5,0.2c0.3,0.1,0.5,0.1,0.8,0.2c0.1,0,0.3,0.1,0.4,0.1c0.4,0.1,0.8,0.1,1.2,0.1
	c0.3,0,0.5,0,0.8,0c0,0,0.1,0,0.1,0c0.2,0,0.4-0.1,0.6-0.1c0.1,0,0.2,0,0.3-0.1c0.2,0,0.3-0.1,0.5-0.1c0.1,0,0.2-0.1,0.3-0.1
	c0.1,0,0.1,0,0.2-0.1l22.7-9.1l17.5,8.7c0,0,0,0,0,0l0.1,0.1c0.1,0.1,0.2,0.1,0.3,0.1c0.2,0.1,0.3,0.1,0.5,0.2
	c0.2,0.1,0.4,0.1,0.6,0.2c0.1,0,0.2,0.1,0.3,0.1c0.3,0.1,0.6,0.1,0.8,0.2c0,0,0,0,0.1,0c0.3,0,0.6,0.1,0.9,0.1c0.4,0,0.7,0,1.1-0.1
	c0.2,0,0.3-0.1,0.5-0.1c0.2,0,0.4-0.1,0.6-0.1c0.2,0,0.3-0.1,0.5-0.2c0.2-0.1,0.4-0.1,0.6-0.2c0.1-0.1,0.3-0.1,0.4-0.2
	c0.2-0.1,0.4-0.2,0.6-0.3c0,0,0.1,0,0.1-0.1l29.2-19.5h28.8c12.9,0,23.4,10.5,23.4,23.4c0,0,0,0,0,0L160.8,466.4L160.8,466.4z"/>
<linearGradient id="SVGID_67_" gradientUnits="userSpaceOnUse" x1="191.954" y1="287.254" x2="436.012" y2="287.254">
	<stop  offset="0" style="stop-color:#E5700F"/>
	<stop  offset="1" style="stop-color:#FEBA1C"/>
</linearGradient>
<path class="st68" d="M436,214.5C436,214.5,436,214.5,436,214.5c0-67.3-54.8-122-122-122c-67.3,0-122,54.7-122,122v187v72.7
	c0,4.3,3.5,7.8,7.8,7.8h228.5c4.3,0,7.8-3.5,7.8-7.8v-72.7c0,0,0,0,0,0L436,214.5L436,214.5z M314,108.1
	c58.7,0,106.5,47.8,106.5,106.4c0,0,0,0,0,0v155.8c-6.5-4.9-14.6-7.8-23.4-7.8h-30.9c-0.1,0-0.2,0-0.3,0s-0.2,0-0.3,0h-12.7l0-14
	c30.7-14.6,51.9-45.9,51.9-82.1V225c0-4.3-3.5-7.8-7.8-7.8h-13v-13c0-4.3-3.5-7.8-7.8-7.8s-7.8,3.5-7.8,7.8v13h-15.6v-13
	c0-4.3-3.5-7.8-7.8-7.8s-7.8,3.5-7.8,7.8v13h-15.6v-13c0-4.3-3.5-7.8-7.8-7.8s-7.8,3.5-7.8,7.8v13h-15.6v-13c0-4.3-3.5-7.8-7.8-7.8
	s-7.8,3.5-7.8,7.8v13h-15.6v-13c0-4.3-3.5-7.8-7.8-7.8s-7.8,3.5-7.8,7.8v13h-13c-4.3,0-7.8,3.5-7.8,7.8v41.6
	c0,36.2,21.3,67.5,51.9,82.1v14h-12.7c-0.1,0-0.2,0-0.3,0c-0.1,0-0.2,0-0.3,0h-30.9c-8.8,0-16.9,2.9-23.4,7.8V214.5
	C207.5,155.8,255.3,108.1,314,108.1z M238.7,232.7h150.6v33.8c0,41.5-33.8,75.3-75.3,75.3s-75.3-33.8-75.3-75.3L238.7,232.7
	L238.7,232.7z M282.8,378.1c4.3,0,7.8-3.5,7.8-7.8v-16c7.5,2,15.3,3,23.4,3c8.1,0,15.9-1.1,23.4-3.1l0,16v0c0,0,0,0,0,0
	c0,0.1,0,0.3,0,0.4c0,0.1,0,0.3,0,0.4c0,0.1,0,0.2,0.1,0.4c0,0.1,0,0.3,0.1,0.4c0,0.1,0.1,0.2,0.1,0.4c0,0.1,0.1,0.3,0.1,0.4
	c0,0.1,0.1,0.3,0.1,0.4c0,0.1,0.1,0.2,0.1,0.3c0.1,0.2,0.2,0.4,0.3,0.5c0,0,0,0.1,0.1,0.1c1.1,2,3,3.4,5.3,3.9c0,0,0,0,0,0
	c0.2,0,0.4,0.1,0.6,0.1c0.1,0,0.1,0,0.2,0c0.2,0,0.3,0,0.5,0c0.1,0,0.2,0,0.3,0c0,0,0,0,0,0h12.3c-3.7,20.6-21.8,36.3-43.4,36.3
	s-39.7-15.7-43.4-36.3L282.8,378.1L282.8,378.1z M420.4,466.4h-36.3v-23.4c0-4.3-3.5-7.8-7.8-7.8s-7.8,3.5-7.8,7.8v23.4H259.5v-23.4
	c0-4.3-3.5-7.8-7.8-7.8s-7.8,3.5-7.8,7.8v23.4h-36.3v-64.9c0-12.9,10.5-23.4,23.4-23.4h23.9c3.8,29.3,28.9,51.9,59.2,51.9
	s55.4-22.7,59.2-51.9h23.9c12.9,0,23.4,10.5,23.4,23.3c0,0,0,0,0,0L420.4,466.4L420.4,466.4z"/>
<g class="st0">
	<linearGradient id="SVGID_68_" gradientUnits="userSpaceOnUse" x1="182.1266" y1="39.6868" x2="273.9148" y2="39.6868">
		<stop  offset="0" style="stop-color:#E5700F"/>
		<stop  offset="1" style="stop-color:#FEBA1C"/>
	</linearGradient>
	<path class="st69" d="M259.6-15.5c-9.2-9.2-21.5-14.3-34.6-14.3c-13.1,0-25.3,5.1-34.6,14.3c-0.5,0.5-0.9,1.1-1.1,1.8
		c-0.3,1.2-0.1,2.5,0.7,3.4l8.3,11.5l-13.9,18c-1.3,1.7-1,4.1,0.6,5.5L201,37.8l-13.7,17.9c-1.1,1.4-1.1,3.3,0,4.8l11.8,15.8
		L184,85.6c-1,0.6-1.7,1.7-1.9,2.9c-0.1,1.2,0.3,2.4,1.1,3.3l16.3,16.3c0.7,0.7,1.8,1.2,2.8,1.2c0.1,0,0.2,0,0.2,0
		c1-0.1,1.9-0.5,2.6-1.2l54.4-54.4c9.2-9.2,14.3-21.5,14.3-34.6C273.9,6,268.8-6.3,259.6-15.5L259.6-15.5z M254,48.1l-51.6,51.6
		l-10-10l14.5-9c0.9-0.6,1.6-1.5,1.8-2.6c0.2-1.1-0.1-2.2-0.7-3.1l-12.6-16.9l14.2-18.6c1.3-1.7,1-4.1-0.6-5.5L192.9,21l13.4-17.3
		c1.1-1.4,1.1-3.3,0.1-4.7l-8-11.2c7.4-6.3,16.7-9.8,26.6-9.8c11,0,21.3,4.3,29,12c7.8,7.8,12,18.1,12,29S261.7,40.4,254,48.1
		L254,48.1z M254,48.1"/>
	<g class="st9">
		<linearGradient id="SVGID_69_" gradientUnits="userSpaceOnUse" x1="84.164" y1="44.3005" x2="182.2624" y2="44.3005">
			<stop  offset="0" style="stop-color:#E5700F"/>
			<stop  offset="1" style="stop-color:#FEBA1C"/>
		</linearGradient>
		<path class="st70" d="M164.2,89.7l14.5-9c0.9-0.6,1.6-1.5,1.8-2.6c0.2-1.1,0-2.2-0.7-3.1l-12.6-16.9l14.2-18.6
			c1.3-1.7,1-4.1-0.6-5.5L164.7,21l13.4-17.3c1.1-1.4,1.1-3.3,0.1-4.7L171-11.1c-3.5-4.9-7.8-8.9-12.8-11.9
			c-19.3-11.4-43.8-8.4-59.6,7.5C89.3-6.3,84.2,6,84.2,19.1c0,13.1,5.1,25.4,14.3,34.6l63.6,63.6c0.8,0.8,1.8,1.2,2.8,1.2
			s2-0.4,2.8-1.2l9.2-9.2c0.4-0.3,0.6-0.7,0.9-1.2c0.7-1.5,0.4-3.3-0.8-4.5L164.2,89.7z M164.9,109l-60.8-60.8
			c-7.8-7.8-12-18.1-12-29s4.3-21.3,12-29c7.9-7.9,18.4-12,29-12c7.2,0,14.4,1.9,20.9,5.8c4,2.4,7.6,5.7,10.5,9.7l5.5,7.7l-13.9,18
			c-1.3,1.7-1,4.1,0.6,5.5l16.1,13.1l-13.7,17.9c-1.1,1.4-1.1,3.3,0,4.8l11.8,15.8l-15.1,9.3c-1,0.6-1.7,1.7-1.9,2.9
			c-0.1,1.2,0.3,2.4,1.1,3.3l13.5,13.5L164.9,109z M164.9,109"/>
	</g>
</g>
<linearGradient id="SVGID_70_" gradientUnits="userSpaceOnUse" x1="39.714" y1="164.1413" x2="88.99" y2="164.1413">
	<stop  offset="0" style="stop-color:#E5700F"/>
	<stop  offset="1" style="stop-color:#FEBA1C"/>
</linearGradient>
<path class="st71" d="M64.4,175.9c8.7,0,17.1-4.1,23-11.3c2.6-3.2,2.1-7.9-1.1-10.5s-7.9-2.1-10.5,1.1c-3,3.7-7,5.8-11.3,5.8
	s-8.3-2.1-11.3-5.8c-2.6-3.2-7.3-3.7-10.5-1.1c-3.2,2.6-3.7,7.3-1.1,10.5C47.2,171.8,55.6,175.9,64.4,175.9z"/>
<linearGradient id="SVGID_71_" gradientUnits="userSpaceOnUse" x1="22.576" y1="121.2964" x2="37.576" y2="121.2964">
	<stop  offset="0" style="stop-color:#E5700F"/>
	<stop  offset="1" style="stop-color:#FEBA1C"/>
</linearGradient>
<path class="st72" d="M30.1,133.1c4.1,0,7.5-3.4,7.5-7.5V117c0-4.1-3.4-7.5-7.5-7.5s-7.5,3.4-7.5,7.5v8.6
	C22.6,129.7,25.9,133.1,30.1,133.1z"/>
<linearGradient id="SVGID_72_" gradientUnits="userSpaceOnUse" x1="91.128" y1="121.2964" x2="106.128" y2="121.2964">
	<stop  offset="0" style="stop-color:#E5700F"/>
	<stop  offset="1" style="stop-color:#FEBA1C"/>
</linearGradient>
<path class="st73" d="M98.6,133.1c4.1,0,7.5-3.4,7.5-7.5V117c0-4.1-3.4-7.5-7.5-7.5s-7.5,3.4-7.5,7.5v8.6
	C91.1,129.7,94.5,133.1,98.6,133.1z"/>
<linearGradient id="SVGID_73_" gradientUnits="userSpaceOnUse" x1="288.2146" y1="206.9853" x2="337.4894" y2="206.9853">
	<stop  offset="0" style="stop-color:#E5700F"/>
	<stop  offset="1" style="stop-color:#FEBA1C"/>
</linearGradient>
<path class="st74" d="M312.9,218.8c8.7,0,17.1-4.1,23-11.3c2.6-3.2,2.1-7.9-1.1-10.5c-3.2-2.6-7.9-2.1-10.5,1.1
	c-3,3.7-7,5.8-11.3,5.8c-4.3,0-8.3-2.1-11.3-5.8c-2.6-3.2-7.3-3.7-10.5-1.1c-3.2,2.6-3.7,7.3-1.1,10.5
	C295.7,214.6,304.1,218.8,312.9,218.8z"/>
<linearGradient id="SVGID_74_" gradientUnits="userSpaceOnUse" x1="271.076" y1="164.1414" x2="286.076" y2="164.1414">
	<stop  offset="0" style="stop-color:#E5700F"/>
	<stop  offset="1" style="stop-color:#FEBA1C"/>
</linearGradient>
<path class="st75" d="M278.6,175.9c4.1,0,7.5-3.4,7.5-7.5v-8.6c0-4.1-3.4-7.5-7.5-7.5c-4.1,0-7.5,3.4-7.5,7.5v8.6
	C271.1,172.6,274.4,175.9,278.6,175.9z"/>
<linearGradient id="SVGID_75_" gradientUnits="userSpaceOnUse" x1="339.628" y1="164.1414" x2="354.628" y2="164.1414">
	<stop  offset="0" style="stop-color:#E5700F"/>
	<stop  offset="1" style="stop-color:#FEBA1C"/>
</linearGradient>
<path class="st76" d="M347.1,175.9c4.1,0,7.5-3.4,7.5-7.5v-8.6c0-4.1-3.4-7.5-7.5-7.5c-4.1,0-7.5,3.4-7.5,7.5v8.6
	C339.6,172.6,343,175.9,347.1,175.9z"/>
<linearGradient id="SVGID_76_" gradientUnits="userSpaceOnUse" x1="-71.683" y1="224.1244" x2="440.3141" y2="224.1244">
	<stop  offset="0" style="stop-color:#E5700F"/>
	<stop  offset="1" style="stop-color:#FEBA1C"/>
</linearGradient>
<path class="st77" d="M419.4,300.7l-58.8-23.5c-0.3-0.1-0.6-0.3-0.9-0.4c40.6-9.2,59.8-24.7,60.7-25.4c2-1.7,3-4.3,2.7-6.9
	c-0.1-0.6-8.5-60.1-8.5-118.9c0-56.1-45.6-101.8-101.8-101.8c-56.1,0-101.8,45.6-101.8,101.8c0,15.4-0.7,34.2-1.8,52l-16.4,8.2
	l-48.1-24c-0.1-0.1-0.3-0.1-0.4-0.2c2.3-6.7,3.8-13.7,4.3-21c10.1-3.1,17.4-12.5,17.4-23.5c0-7.4-3.3-14.1-8.6-18.7V48.5
	c0-13.8-7-26.7-18.4-34.4c-3.9-14.4-16.8-24.5-32-24.5H38.6C1.4-10.5-28.8,19.8-28.8,57v41.3c-5.2,4.5-8.6,11.2-8.6,18.7
	c0,11.1,7.3,20.4,17.4,23.5c1.9,25.2,14.9,47.3,34,61.5v20.7l-62,18.6c-14.2,4.2-23.7,17-23.7,31.8v83.7c0,4.1,3.4,7.5,7.5,7.5h1.1
	v86.8c0,4.1,3.4,7.5,7.5,7.5s7.5-3.4,7.5-7.5v-86.8h27.8v86.8c0,4.1,3.4,7.5,7.5,7.5s7.5-3.4,7.5-7.5V321.9c0-6.6-1.9-12.9-5.6-18.4
	l-12.8-19.2c-2.3-3.4-7-4.4-10.4-2.1c-3.4,2.3-4.4,7-2.1,10.4l12.8,19.2c2,3,3.1,6.5,3.1,10.1v27.6h-35.3h-1.1v-76.2
	c0-8.1,5.2-15.1,13-17.4l25.7-7.7c9,37.5,43,64.9,82.3,64.9c14.1,0,27.8-3.5,40.1-10.1c4.5,6.1,11.7,10.1,19.9,10.1h1.1v1.1
	c0,25.1,13.8,47.1,34.3,58.7V385c0,0.5-0.3,0.9-0.7,1l-28,9.3c-13.6,4.5-22.7,17.2-22.7,31.5v24.3c0,4.1,3.4,7.5,7.5,7.5
	s7.5-3.4,7.5-7.5v-24.3c0-7.8,5-14.8,12.4-17.3l8.2-2.7c10.9,16.2,29.2,26.1,48.9,26.1c19.8,0,38.1-9.9,48.9-26.1l8.2,2.7
	c7.4,2.5,12.4,9.4,12.4,17.3v24.3c0,4.1,3.4,7.5,7.5,7.5c4.1,0,7.5-3.4,7.5-7.5v-24.3c0-14.3-9.1-27-22.7-31.5l-28-9.3
	c-0.4-0.1-0.7-0.6-0.7-1v-12.2c15.3-8.7,26.9-23.2,31.8-40.5c14.2,14.8,34,23.5,55,23.5c33.2,0,62.4-21.5,72.4-52.7l28.6,11.5
	c7,2.8,11.4,9.4,11.4,16.9v35.1h-1.1h-26.8v-9.6c0-4.1-3.4-7.5-7.5-7.5c-4.1,0-7.5,3.4-7.5,7.5v94.3c0,4.1,3.4,7.5,7.5,7.5
	c4.1,0,7.5-3.4,7.5-7.5v-69.6h19.3v69.6c0,4.1,3.4,7.5,7.5,7.5c4.1,0,7.5-3.4,7.5-7.5v-69.6h1.1c2,0,3.9-0.8,5.3-2.2
	c1.4-1.4,2.2-3.3,2.2-5.3v-42.6C440.3,317.8,432.1,305.7,419.4,300.7z M226.1,125.6c0-47.8,38.9-86.8,86.8-86.8
	c47.8,0,86.8,38.9,86.8,86.8c0,50.4,6.1,101.3,8,116.5c-6.7,4.4-23.9,14.1-53,20.4v-11.9c4-2.3,7.8-4.8,11.4-7.7
	c14.8-11.9,25.2-28.6,29.4-47c1.4-6.1,2.1-12.5,2.1-18.8c0-42.4-30.7-48.5-60.3-54.4c-18.9-3.7-38.4-7.6-53.9-20
	c-2.3-1.8-5.3-2.2-7.9-0.9s-4.3,3.9-4.3,6.8c0,0.2-0.3,19.9-28.6,27c-4,1-6.5,5.1-5.5,9.1c1,4,5.1,6.5,9.1,5.5
	c23.7-5.9,33.3-19.2,37.2-29.2c16.3,9.6,34.5,13.3,50.9,16.5c31.7,6.3,48.2,10.9,48.2,39.6c0,5.2-0.6,10.4-1.7,15.5
	c-3.4,15.1-12,28.9-24.2,38.7c-12.5,10.1-27.6,15.4-43.7,15.4c-14.7,0-28.7-4.5-40.5-13c-4.3-11.9-11.3-22.7-20.5-31.6v-33.5
	c0-2.6-1.3-5-3.6-6.4s-5-1.5-7.3-0.3l-16.2,8.1C225.6,154.2,226.1,139.3,226.1,125.6z M236.8,180.6v27.1l-27.1-13.6L236.8,180.6z
	 M149,180.6l27.1,13.6L149,207.7V180.6z M134,202c-8.4,8.2-14.9,17.9-19.3,28.5c0-0.7,0.1-1.4,0.1-2.1v-26.3
	c7.5-5.5,14-12.3,19.3-19.9V202z M-5.3,134.1c0-4.1-3.4-7.5-7.5-7.5c-5.3,0-9.6-4.3-9.6-9.6s4.3-9.6,9.6-9.6H4.4
	c3.2,0,6.1-2.1,7.1-5.1l6.9-20.7c17.2-0.4,70.7-2.8,100.8-17.9c3.7-1.9,5.2-6.4,3.4-10.1c-1.9-3.7-6.4-5.2-10.1-3.4
	C80.1,66.5,13.6,66.7,12.9,66.7c-3.2,0-6.1,2.1-7.1,5.1L-1,92.4h-11.7c-0.4,0-0.7,0-1.1,0V57c0-28.9,23.5-52.5,52.5-52.5h68.6
	c9,0,16.5,6.5,17.9,15.3c0.4,2.3,1.7,4.2,3.7,5.4c8.5,4.8,13.7,13.7,13.7,23.2v43.9c-0.4,0-0.7,0-1.1,0h-8.6c-4.1,0-7.5,3.4-7.5,7.5
	s3.4,7.5,7.5,7.5h8.6c5.3,0,9.6,4.3,9.6,9.6s-4.3,9.6-9.6,9.6c-4.1,0-7.5,3.4-7.5,7.5c0,38.4-31.2,69.6-69.6,69.6
	S-5.3,172.5-5.3,134.1z M64.4,218.8c12.6,0,24.6-2.8,35.3-7.7v17.4c0,19.5-15.9,35.3-35.3,35.3c-19.5,0-35.3-15.8-35.3-35.2
	c0,0,0-0.1,0-0.1V211C39.8,216,51.7,218.8,64.4,218.8z M-3.6,243.8l18.5-5.6c4.6,23.1,25,40.6,49.4,40.6c19.4,0,36.2-11,44.6-27.1
	c-0.5,3.6-0.7,7.3-0.7,11v7.1c-5.4,4.6-8.6,11.4-8.6,18.6C89,294.7,76.9,298,64.4,298C31.7,298,3.5,275.1-3.6,243.8z M222.1,400.3
	l4.8,1.6c-8.3,10.1-20.7,16.1-34,16.1c-13.3,0-25.7-6-34-16.1l4.8-1.6c6.6-2.2,11-8.3,11-15.2v-6c5.8,1.6,11.9,2.5,18.2,2.5
	s12.4-0.9,18.2-2.5v6C211.1,392,215.5,398.1,222.1,400.3z M192.9,366.6c-28.9,0-52.5-23.5-52.5-52.5v-8.6c0-4.1-3.4-7.5-7.5-7.5
	h-8.6c-5.3,0-9.6-4.3-9.6-9.6c0-3.4,1.8-6.5,4.8-8.3c0.7-0.4,1.3-0.9,1.8-1.5c18.5-0.5,78.6-4,118.1-26.6c3.6-2.1,4.8-6.6,2.8-10.2
	s-6.6-4.8-10.2-2.8c-34.6,19.8-89,23.7-108.7,24.5v-0.9c0-13.9,4.2-27.5,11.9-38.8c0.6,0.9,1.4,1.8,2.4,2.4c1.2,0.7,2.6,1.1,3.9,1.1
	c1.1,0,2.3-0.3,3.4-0.8l48.1-24l48.1,24c1.1,0.5,2.2,0.8,3.4,0.8c1.4,0,2.7-0.4,3.9-1.1c1-0.6,1.8-1.4,2.4-2.4
	c7.7,11.4,11.9,24.9,11.9,38.8v10.9c0,2.7,1.4,5.1,3.7,6.5c3,1.8,4.8,4.9,4.8,8.3c0,5.3-4.3,9.6-9.6,9.6h-8.6
	c-4.1,0-7.5,3.4-7.5,7.5v7.5c0,0.1,0,0.1,0,0.2v0.9C245.4,343,221.8,366.6,192.9,366.6z M312.9,340.9c-20.8,0-40-10.6-51.2-27.8
	c13.5-0.1,24.5-11.1,24.5-24.6c0-7.2-3.2-13.9-8.6-18.6v-7.1c0-3-0.2-6-0.5-9c11.1,5.2,23.3,7.9,35.8,7.9c9.1,0,18.2-1.5,26.8-4.4
	v11c0,10.1,6.1,19.1,15.5,22.9l16.2,6.5C363.5,323.2,339.9,340.9,312.9,340.9z"/>
<linearGradient id="SVGID_77_" gradientUnits="userSpaceOnUse" x1="168.249" y1="335.5203" x2="217.5243" y2="335.5203">
	<stop  offset="0" style="stop-color:#E5700F"/>
	<stop  offset="1" style="stop-color:#FEBA1C"/>
</linearGradient>
<path class="st78" d="M214.7,325.4c-3.2-2.6-7.9-2.1-10.5,1.1c-3,3.7-7,5.8-11.3,5.8s-8.3-2.1-11.3-5.8c-2.6-3.2-7.3-3.7-10.5-1.1
	c-3.2,2.6-3.7,7.3-1.1,10.5c5.8,7.2,14.2,11.3,23,11.3s17.1-4.1,23-11.3C218.5,332.7,218,328,214.7,325.4z"/>
<linearGradient id="SVGID_78_" gradientUnits="userSpaceOnUse" x1="159.817" y1="296.994" x2="174.817" y2="296.994">
	<stop  offset="0" style="stop-color:#E5700F"/>
	<stop  offset="1" style="stop-color:#FEBA1C"/>
</linearGradient>
<circle class="st79" cx="167.3" cy="297" r="7.5"/>
<linearGradient id="SVGID_79_" gradientUnits="userSpaceOnUse" x1="210.817" y1="296.994" x2="225.817" y2="296.994">
	<stop  offset="0" style="stop-color:#E5700F"/>
	<stop  offset="1" style="stop-color:#FEBA1C"/>
</linearGradient>
<circle class="st80" cx="218.3" cy="297" r="7.5"/>
<linearGradient id="SVGID_80_" gradientUnits="userSpaceOnUse" x1="246.6393" y1="76.9101" x2="281.9011" y2="76.9101">
	<stop  offset="0" style="stop-color:#E5700F"/>
	<stop  offset="1" style="stop-color:#FEBA1C"/>
</linearGradient>
<path class="st81" d="M263.8,62.2c-3.9-3.9-10.3-3.9-14.2,0c-3.9,3.9-3.9,10.3,0,14.2l15.2,15.2c2,2,4.5,2.9,7.1,2.9
	c2.6,0,5.1-1,7.1-2.9c3.9-3.9,3.9-10.3,0-14.2L263.8,62.2z"/>
<linearGradient id="SVGID_81_" gradientUnits="userSpaceOnUse" x1="263.8763" y1="37.5243" x2="299.0128" y2="37.5243">
	<stop  offset="0" style="stop-color:#E5700F"/>
	<stop  offset="1" style="stop-color:#FEBA1C"/>
</linearGradient>
<path class="st82" d="M266.8,37.1l15.1,15.1c2,2,4.5,2.9,7.1,2.9c2.6,0,5.1-1,7.1-2.9c3.9-3.9,3.9-10.3,0-14.2L281,22.9
	c-3.9-3.9-10.3-3.9-14.2,0C262.9,26.8,262.9,33.2,266.8,37.1z"/>
<linearGradient id="SVGID_82_" gradientUnits="userSpaceOnUse" x1="-71.6811" y1="224.001" x2="440.3166" y2="224.001">
	<stop  offset="0" style="stop-color:#E5700F"/>
	<stop  offset="1" style="stop-color:#FEBA1C"/>
</linearGradient>
<path class="st83" d="M434.2,152.7c-5.5-7.1-13.9-11.2-22.9-11.2c-3.4,0-6.7,0.6-9.9,1.7l-87.2-87.2c-3.9-3.9-10.3-3.9-14.2,0
	c-3.9,3.9-3.9,10.3,0,14.2l84.3,84.3c-5.4,3.9-11,7.7-16.8,11.4l-69.7-69.7c-3.9-3.9-10.3-3.9-14.2,0c-3.9,3.9-3.9,10.3,0,14.2
	l66.2,66.2c-8.4,4.6-16.6,8.7-24.1,11.8l-81.9-81.9c-3.9-3.9-10.3-3.9-14.2,0c-3.9,3.9-3.9,10.3,0,14.2l74.2,74.2
	c-1.1,0.1-2.1,0.2-3.1,0.2c-8,0-20.4,0-34.2,0l-28-28c-3.9-3.9-10.3-3.9-14.2,0c-3.9,3.9-3.9,10.3,0,14.2L238,195
	c-8.7,0-17.1,0-24.6,0c0-28.1,0-68.9,0-87.2c0-19.9,24.5-63.7,47.3-92.9c4.8-6.1,6.9-13.7,5.9-21.4c-0.9-7.7-4.8-14.6-10.9-19.3
	c-5.1-4-11.4-6.1-17.8-6.1c-9,0-17.4,4.1-22.9,11.2c-9.9,12.7-59.6,78.8-59.6,128.6c0,18.2,0,59.1,0,87.2c-28.1,0-69,0-87.2,0
	c-49.8,0-115.9,49.6-128.6,59.6c-6.1,4.8-10,11.6-10.9,19.3c-0.9,7.7,1.2,15.3,5.9,21.4c5.5,7.1,13.9,11.2,22.9,11.2
	c3.4,0,6.7-0.6,9.8-1.7l87.2,87.2c2,2,4.5,2.9,7.1,2.9s5.1-1,7.1-2.9c3.9-3.9,3.9-10.3,0-14.2l-84.3-84.3c5.4-3.9,11-7.7,16.8-11.4
	l69.7,69.7c2,2,4.5,2.9,7.1,2.9s5.1-1,7.1-2.9c3.9-3.9,3.9-10.3,0-14.2l-66.2-66.2c8.4-4.6,16.6-8.7,24.1-11.8l81.9,81.9
	c2,2,4.5,2.9,7.1,2.9c2.6,0,5.1-1,7.1-2.9c3.9-3.9,3.9-10.3,0-14.2L65,253.2c1.1-0.1,2.1-0.2,3.1-0.2c8,0,20.4,0,34.2,0l28,28
	c2,2,4.5,2.9,7.1,2.9c2.6,0,5.1-1,7.1-2.9c3.9-3.9,3.9-10.3,0-14.2L130.7,253c8.7,0,17.1,0,24.6,0c0,28.1,0,68.9,0,87.1
	c0,31.6-34.2,77.9-46.2,91.7c-10.5,12-9.3,30.4,2.7,40.9c5.3,4.6,12.1,7.2,19.1,7.2c8.4,0,16.3-3.6,21.8-9.9
	c0.6-0.7,15-17.2,29.5-40.5c20.6-33.2,31.1-63.2,31.1-89.4c0-18.2,0-59.1,0-87.2c28.1,0,69,0,87.2,0c49.8,0,115.9-49.6,128.6-59.6
	c6.1-4.8,10-11.6,11-19.3C441,166.5,438.9,158.9,434.2,152.7z M420.2,171.7c-0.3,2.4-1.5,4.5-3.4,6c-26.3,20.5-80.4,55.3-116.3,55.3
	c-20.6,0-69.9,0-97.2,0c0,0,0,0,0,0c-2.7,0-5.2,1.1-7.1,2.9c-1.9,1.9-2.9,4.4-2.9,7.1c0,27.3,0,76.7,0,97.2
	c0,22.4-9.4,48.9-28.1,78.8c-13.7,21.9-27.4,37.7-27.6,37.9c-1.7,1.9-4.2,3-6.7,3c-1.5,0-3.8-0.4-5.9-2.2c-3.7-3.2-4.1-8.9-0.8-12.6
	c0.5-0.6,51.2-59.1,51.2-104.9c0-20.5,0-69.9,0-97.2c0-5.5-4.5-10-10-10c-27.3,0-76.6,0-97.2,0c-32.2,0-86.9,37.2-105.3,51.5
	c-2,1.6-4.1,1.9-5.5,1.9c-2.8,0-5.4-1.3-7.1-3.4c-1.5-1.9-2.1-4.2-1.8-6.6c0.3-2.4,1.5-4.5,3.4-6c26.3-20.5,80.4-55.3,116.3-55.3
	c20.6,0,69.9,0,97.2,0c0,0,0,0,0,0c2.7,0,5.2-1.1,7.1-2.9c1.9-1.9,2.9-4.4,2.9-7.1c0-27.3,0-76.7,0-97.2c0-35.8,34.8-90,55.3-116.3
	c1.7-2.2,4.3-3.4,7.1-3.4c1.4,0,3.5,0.3,5.5,1.9c1.9,1.5,3.1,3.6,3.4,6c0.3,2.4-0.4,4.7-1.8,6.6c-14.3,18.4-51.5,73.2-51.5,105.3
	c0,20.5,0,69.9,0,97.2c0,5.5,4.5,10,10,10h1.5c27.6,0,75.5,0,95.7,0c32.2,0,86.9-37.2,105.3-51.5c2-1.6,4.1-1.9,5.5-1.9
	c2.8,0,5.4,1.3,7.1,3.4C419.8,167,420.5,169.3,420.2,171.7z"/>
<linearGradient id="SVGID_83_" gradientUnits="userSpaceOnUse" x1="86.7309" y1="371.0905" x2="121.9937" y2="371.0905">
	<stop  offset="0" style="stop-color:#E5700F"/>
	<stop  offset="1" style="stop-color:#FEBA1C"/>
</linearGradient>
<path class="st84" d="M104.9,385.8c2,2,4.5,2.9,7.1,2.9c2.6,0,5.1-1,7.1-2.9c3.9-3.9,3.9-10.3,0-14.2l-15.2-15.2
	c-3.9-3.9-10.3-3.9-14.2,0c-3.9,3.9-3.9,10.3,0,14.2L104.9,385.8z"/>
<linearGradient id="SVGID_84_" gradientUnits="userSpaceOnUse" x1="69.6203" y1="410.4764" x2="104.7574" y2="410.4764">
	<stop  offset="0" style="stop-color:#E5700F"/>
	<stop  offset="1" style="stop-color:#FEBA1C"/>
</linearGradient>
<path class="st85" d="M101.8,410.9l-15.1-15.1c-3.9-3.9-10.3-3.9-14.2,0c-3.9,3.9-3.9,10.3,0,14.2l15.1,15.1c2,2,4.5,2.9,7.1,2.9
	s5.1-1,7.1-2.9C105.7,421.2,105.7,414.8,101.8,410.9z"/>
<linearGradient id="SVGID_85_" gradientUnits="userSpaceOnUse" x1="199.1158" y1="287.705" x2="397.417" y2="287.705">
	<stop  offset="0" style="stop-color:#E5700F"/>
	<stop  offset="1" style="stop-color:#FEBA1C"/>
</linearGradient>
<path class="st86" d="M354.3,290.4V113.3c0-5.5-4.5-9.3-10-9.3h-38.7c-5.5,0-10.3,3.8-10.3,9.3v159.8c-6.4,0.2-12.8,1-19,2.5V165.5
	c0-5.5-4.7-9.5-10.2-9.5h-38.7c-5.5,0-10.1,3.9-10.1,9.5v149.3c-11.9,16.7-18.3,36.8-18.2,57.4c0,54.8,44.4,99.2,99.1,99.2
	c54.8,0,99.2-44.4,99.2-99.1C397.4,339.5,381.3,308.9,354.3,290.4z M315.3,124h19v155.8c-6.1-2.4-12.5-4.2-19-5.2V124z M237.3,176
	h19v106.5c-6.7,3.1-13.1,6.9-19,11.4V176z M298.3,451.3c-43.7,0-79.1-35.5-79.1-79.1c0-32,19.3-60.9,48.9-73.1
	c1.2-0.2,2.3-0.7,3.3-1.3c8.6-3.2,17.8-4.8,27-4.8c2.1,0,4.1,0.1,6.2,0.3h0.1c12,0.9,23.7,4.6,34,10.8c37.6,22.3,50,70.8,27.7,108.4
	C352.1,436.6,326.2,451.3,298.3,451.3z"/>
<linearGradient id="SVGID_86_" gradientUnits="userSpaceOnUse" x1="60.317" y1="324.505" x2="119.317" y2="324.505">
	<stop  offset="0" style="stop-color:#E5700F"/>
	<stop  offset="1" style="stop-color:#FEBA1C"/>
</linearGradient>
<path class="st87" d="M119.3,246c0-5.5-4.5-10-10-10h-39c-5.5,0-10,4.5-10,10v157c0,5.5,4.5,10,10,10h39c5.5,0,10-4.5,10-10V246z
	 M99.3,394h-19V256h19V394z"/>
<linearGradient id="SVGID_87_" gradientUnits="userSpaceOnUse" x1="139.317" y1="313.505" x2="198.317" y2="313.505">
	<stop  offset="0" style="stop-color:#E5700F"/>
	<stop  offset="1" style="stop-color:#FEBA1C"/>
</linearGradient>
<path class="st88" d="M198.3,223c0-5.5-4.5-10-10-10h-39c-5.5,0-10,4.5-10,10v181c0,5.5,4.5,10,10,10h39c5.5,0,10-4.5,10-10V223z
	 M178.3,394h-19V233h19V394z"/>
<linearGradient id="SVGID_88_" gradientUnits="userSpaceOnUse" x1="-18.683" y1="367.505" x2="40.317" y2="367.505">
	<stop  offset="0" style="stop-color:#E5700F"/>
	<stop  offset="1" style="stop-color:#FEBA1C"/>
</linearGradient>
<path class="st89" d="M40.3,332c0-5.5-4.5-10-10-10h-39c-5.5,0-10,4.5-10,10v71c0,5.5,4.5,10,10,10h39c5.5,0,10-4.5,10-10V332z
	 M20.3,394h-19v-52h19V394z"/>
<linearGradient id="SVGID_89_" gradientUnits="userSpaceOnUse" x1="-26.808" y1="126.805" x2="362.817" y2="126.805">
	<stop  offset="0" style="stop-color:#E5700F"/>
	<stop  offset="1" style="stop-color:#FEBA1C"/>
</linearGradient>
<path class="st90" d="M-9.7,273.6l185-185l37.9,38.2c1.8,2,4.4,3.1,7.1,3.2l0,0c2.7-0.1,5.2-1.3,7.1-3.2L342.8,11.3l-0.1,44.5
	c0,5.6,4.4,10.1,10,10.3l0,0c5.6-0.1,10-4.7,10-10.3l0.1-68.6c0-5.5-4.5-10.1-10-10.1l0,0l-68.4,0.1c-5.5-0.1-10,4.4-10.1,9.9
	s4.4,10,9.9,10.1c0.1,0,0.1,0,0.2,0l0,0l44.3-0.1L220.2,105.2l-37.9-37.6c-1.9-1.8-4.5-2.7-7.1-2.6l0,0c-2.6-0.1-5.2,0.8-7.1,2.6
	l-192,192c-3.9,3.9-3.9,10.2,0,14c1.9,1.9,4.4,2.9,7.1,2.9C-14.1,276.5-11.6,275.5-9.7,273.6z"/>
<linearGradient id="SVGID_90_" gradientUnits="userSpaceOnUse" x1="255.6524" y1="373.155" x2="344.317" y2="373.155">
	<stop  offset="0" style="stop-color:#E5700F"/>
	<stop  offset="1" style="stop-color:#FEBA1C"/>
</linearGradient>
<path class="st91" d="M312.7,383.3c17.7,0,32.1-14.6,31.6-32.4c-0.4-17.3-15-30.9-32.2-30.9h-32.7c-1.9,0-3.4,1.5-3.4,3.4v4.5v39.6
	h-16.9c-1.9,0-3.4,1.5-3.4,3.4v9c0,1.9,1.5,3.4,3.4,3.4h16.9v9.2h-16.9c-1.9,0-3.4,1.5-3.4,3.4v9c0,1.9,1.5,3.4,3.4,3.4h16.9v14.7
	c0,1.9,1.5,3.5,3.5,3.5h8.9c1.9,0,3.5-1.5,3.5-3.5v-14.7h27.5c1.9,0,3.4-1.5,3.4-3.4v-9c0-1.9-1.5-3.4-3.4-3.4h-27.5v-9.2
	L312.7,383.3L312.7,383.3z M328.5,351.6c0,8.7-7.1,15.9-15.9,15.9h-20.9v-31.7h20.9C321.4,335.7,328.5,342.9,328.5,351.6z"/>
<linearGradient id="SVGID_91_" gradientUnits="userSpaceOnUse" x1="-56.8" y1="336.8469" x2="420.6268" y2="336.8469">
	<stop  offset="0" style="stop-color:#E5700F"/>
	<stop  offset="1" style="stop-color:#FEBA1C"/>
</linearGradient>
<path class="st92" d="M412.5,259c-0.2-0.3-0.4-0.6-0.7-0.9c-6.2-7.7-15.3-12.5-25.2-13.5c-9.7-1-19.4,1.9-27,8
	c-19.8,16.1-49.9,40.4-67.9,54.9C278.4,318.3,262,324.4,245,325l-51.1,1.7c-2.1,0.1-4-1-5-2.7l-5.7-9.7c-0.9-1.6-1.1-3.5-0.3-5.2
	c0.7-1.7,2.3-2.9,4.1-3.2l52.8-10c18.7-3.4,31.6-21,29.5-40.1c-2.1-18.3-17.6-32.2-36-32.1c-0.5,0-1.1,0-1.8,0l-70.6-2.9
	c-28.3-1-52.4,4.4-80.6,18l-37,18c-5.1-10.8-16-17.8-27.9-17.7h-40.9c-17,0-31.3,13.7-31.3,30.7v152.1c0,17,14.3,31.1,31.3,31.1
	h40.9c17,0,30.8-14.1,30.8-31.1v-10.3l39.3-7.2c12.7-1.9,20.7-2.6,34.2-2.1l107.4,5c2.2,0.1,4.4,0.1,6.6,0.1
	c36.4,0,71.6-12.7,99.6-36l74.4-61.7l0.2-0.1c14.9-12.8,17-35.1,4.8-50.5L412.5,259z M26,422.1c0,6-4.9,10.9-10.9,10.9h-41.3
	c-6,0-10.9-4.9-10.9-10.9V269.9c0-6,4.9-10.9,10.9-10.9h41.3c6,0,10.9,4.9,10.9,10.9V422.1z M394.7,294.5l-74.3,61.6
	c-25.9,21.5-58.9,32.7-92.6,31.2l-107.4-5c-15.1-0.6-24.3,0.2-38.1,2.3c-0.1,0-0.3,0-0.4,0.1L46,391.3V277.5l42.8-20.7
	c25.1-12.1,46.4-16.9,71.1-16.1l71.1,2.9c0.4,0,0.9,0,1.3,0c0.1,0,0.5,0,0.8,0c9.1,0.1,16.4,7.5,16.3,16.6
	c-0.1,7.8-5.7,14.5-13.4,16l-52.8,10c-13.9,2.6-23.1,16-20.5,29.9c0.5,2.9,1.6,5.7,3.1,8.3l5.7,9.8c4.8,8.1,13.6,12.9,23,12.5
	l51.1-1.7c21.4-0.7,42-8.4,58.6-21.8c18-14.5,48.2-38.9,68-55c3.5-2.8,7.9-4.1,12.3-3.6c4.4,0.4,8.4,2.5,11.3,5.8l0,0
	c0.2,0.3,0.4,0.6,0.7,0.9C402.5,278.3,401.6,288.6,394.7,294.5z"/>
<linearGradient id="SVGID_92_" gradientUnits="userSpaceOnUse" x1="38.5" y1="102.0113" x2="388.1693" y2="102.0113">
	<stop  offset="0" style="stop-color:#E5700F"/>
	<stop  offset="1" style="stop-color:#FEBA1C"/>
</linearGradient>
<path class="st93" d="M48.5,74H116v25H48.5c-5.5,0-10,4.5-10,10s4.5,10,10,10H116v26H48.5c-5.5,0-10,4.5-10,10s4.5,10,10,10H116v24
	H48.5c-5.5,0-10,4.5-10,10s4.5,10,10,10h272.8c1.9,0.1,3.8-0.4,5.5-1.4l56.8-37c4.6-3,5.9-9.1,2.9-13.7l0,0c-3-4.7-9.2-6.1-13.8-3.1
	L318.3,189H249v-24h72.3c2.1-0.1,4.2-0.8,5.9-2.1l56.8-41.1c4.5-3.2,5.5-9.4,2.3-13.9s-9.4-5.5-13.9-2.3c-0.1,0-0.1,0.1-0.2,0.1
	L318,145h-69v-26h72.3c2.2,0.1,4.4-0.6,6.2-2l56.8-44.8c4.4-3.4,5.1-9.8,1.7-14.1c-3.4-4.3-9.7-5.1-14.1-1.7L317.8,99H249V74h72.3
	c2.5,0.1,4.9-0.8,6.8-2.4l56.8-52.5c4-3.7,4.3-9.9,0.6-13.9c-1.9-2.1-4.6-3.3-7.4-3.2h-68.4l-0.1-0.4c-1.5-3.9-5.2-6.5-9.3-6.6h-113
	c-2.6,0.1-5,1.1-6.8,2.9L176.3,2h-71c-2.5,0-4.9,0.9-6.8,2.6L41.7,57.2c-3,2.7-4,7-2.5,10.7C40.7,71.7,44.4,74.1,48.5,74z M352.6,22
	l-35.2,32h-55.2l35-32H352.6z M191.3,15h83.6l-42.6,39.7c-2.1,1.9-3.3,4.6-3.3,7.5V189h-93V66.5L191.3,15z M109.3,22h45.6l-35,32H74
	L109.3,22z"/>
<g class="st0">
	<rect x="-1.9" y="76.4" class="st94" width="367.9" height="301"/>
	<g class="st9">
		<linearGradient id="SVGID_93_" gradientUnits="userSpaceOnUse" x1="179.9945" y1="217.1435" x2="365.58" y2="217.1435">
			<stop  offset="0" style="stop-color:#E5700F"/>
			<stop  offset="1" style="stop-color:#FEBA1C"/>
		</linearGradient>
		<path class="st95" d="M336.6,105.5c-18.7-18.7-43.6-29-70-29c-26.4,0-51.3,10.3-69.9,28.9c-1,1-1.8,2.2-2.1,3.7
			c-0.7,2.4-0.1,5,1.4,6.9l16.7,23.3l-28.2,36.4c-2.7,3.4-2.1,8.4,1.3,11.1l32.5,26.5l-27.6,36.2c-2.2,2.8-2.2,6.8-0.1,9.6l23.8,32
			L183.8,310c-2.1,1.3-3.5,3.4-3.7,5.9c-0.3,2.4,0.6,4.9,2.3,6.6l33,33c1.5,1.5,3.5,2.3,5.7,2.3c0.2,0,0.3,0,0.5,0
			c1.9-0.1,3.8-1,5.2-2.3l110-110c18.7-18.7,29-43.6,29-70C365.6,149,355.3,124.2,336.6,105.5z M325.3,234.2L221,338.5l-20.2-20.2
			l29.3-18.1c1.9-1.2,3.2-3.1,3.7-5.3c0.4-2.2-0.1-4.5-1.4-6.3l-25.4-34.2l28.7-37.6c2.6-3.4,2-8.3-1.3-11.1l-32.5-26.4l27.1-35
			c2.2-2.8,2.2-6.7,0.2-9.6l-16.2-22.6c15-12.8,33.8-19.7,53.7-19.7c22.2,0,43,8.6,58.7,24.3c15.7,15.7,24.3,36.5,24.3,58.7
			C349.6,197.7,340.9,218.5,325.3,234.2z"/>
		<linearGradient id="SVGID_94_" gradientUnits="userSpaceOnUse" x1="283.1951" y1="167.956" x2="341.788" y2="167.956">
			<stop  offset="0" style="stop-color:#E5700F"/>
			<stop  offset="1" style="stop-color:#FEBA1C"/>
		</linearGradient>
		<path class="st96" d="M319.8,122.3c-7.4-7.4-16-13.1-25.6-16.8c-4.1-1.6-8.8,0.4-10.4,4.5c-1.6,4.1,0.4,8.8,4.5,10.4
			c7.6,3,14.3,7.4,20.2,13.3c11.2,11.2,17.3,26,17.3,41.9c0,15.8-6.2,30.7-17.3,41.9c-3.1,3.1-3.1,8.2,0,11.3
			c1.6,1.6,3.6,2.3,5.7,2.3s4.1-0.8,5.7-2.3c14.2-14.2,22-33.1,22-53.2S334,136.5,319.8,122.3z"/>
		<linearGradient id="SVGID_95_" gradientUnits="userSpaceOnUse" x1="242.2403" y1="109.2845" x2="274.592" y2="109.2845">
			<stop  offset="0" style="stop-color:#E5700F"/>
			<stop  offset="1" style="stop-color:#FEBA1C"/>
		</linearGradient>
		<path class="st97" d="M266.6,100.3c-6.2,0-12.3,0.8-18.3,2.2c-4.3,1.1-6.9,5.4-5.8,9.7c0.9,3.6,4.2,6.1,7.8,6.1
			c0.6,0,1.3-0.1,1.9-0.2c4.7-1.2,9.5-1.8,14.4-1.8c4.4,0,8-3.6,8-8C274.6,103.9,271,100.3,266.6,100.3z"/>
		<linearGradient id="SVGID_96_" gradientUnits="userSpaceOnUse" x1="-1.9" y1="226.4718" x2="196.4441" y2="226.4718">
			<stop  offset="0" style="stop-color:#E5700F"/>
			<stop  offset="1" style="stop-color:#FEBA1C"/>
		</linearGradient>
		<path class="st98" d="M160,318.3l29.3-18.1c1.9-1.2,3.2-3.1,3.7-5.3c0.4-2.2-0.1-4.5-1.4-6.3l-25.4-34.2l28.7-37.6
			c2.6-3.4,2-8.3-1.3-11.1L161,179.4l27-35c2.2-2.8,2.2-6.7,0.2-9.6l-14.6-20.4c-7.1-10-15.9-18-26-24
			c-38.9-23.1-88.5-16.9-120.6,15.1c-18.7,18.7-29,43.6-29,70c0,26.4,10.3,51.3,29,70l128.7,128.7c1.6,1.6,3.6,2.3,5.7,2.3
			s4.1-0.8,5.7-2.3l18.6-18.6c0.7-0.7,1.3-1.5,1.7-2.4c1.4-3,0.8-6.6-1.6-9L160,318.3z M161.4,357.2l-123-123
			c-15.7-15.7-24.3-36.5-24.3-58.7c0-22.2,8.6-43,24.3-58.7c16-16,37.3-24.4,58.7-24.4c14.5,0,29.2,3.8,42.3,11.7
			c8.2,4.9,15.3,11.5,21.1,19.6l11.2,15.6l-28.2,36.4c-2.7,3.4-2.1,8.4,1.3,11.1l32.5,26.5l-27.6,36.2c-2.2,2.8-2.2,6.8-0.1,9.6
			l23.8,32L143,310c-2.1,1.3-3.5,3.4-3.7,5.9c-0.3,2.4,0.6,4.9,2.3,6.6l27.3,27.3L161.4,357.2z"/>
		<linearGradient id="SVGID_97_" gradientUnits="userSpaceOnUse" x1="104.0331" y1="124.456" x2="160.0915" y2="124.456">
			<stop  offset="0" style="stop-color:#E5700F"/>
			<stop  offset="1" style="stop-color:#FEBA1C"/>
		</linearGradient>
		<path class="st99" d="M145.6,143.6c1.6,2.2,4,3.3,6.5,3.3c1.6,0,3.2-0.5,4.7-1.5c3.6-2.6,4.4-7.6,1.8-11.2l-4.3-6
			c-5.2-7.3-11.5-13.1-18.8-17.5c-6.7-4-14-6.9-21.7-8.6c-4.3-1-8.6,1.7-9.6,6c-1,4.3,1.7,8.6,6,9.6c6,1.4,11.8,3.7,17,6.8
			c5.3,3.2,10,7.6,14,13L145.6,143.6z"/>
		<linearGradient id="SVGID_98_" gradientUnits="userSpaceOnUse" x1="63.3562" y1="111.0802" x2="96.7935" y2="111.0802">
			<stop  offset="0" style="stop-color:#E5700F"/>
			<stop  offset="1" style="stop-color:#FEBA1C"/>
		</linearGradient>
		<path class="st100" d="M87.8,100.9c-6.7,0.8-13.3,2.5-19.5,5.1c-4.1,1.7-6,6.4-4.3,10.5c1.3,3.1,4.3,4.9,7.4,4.9
			c1,0,2.1-0.2,3.1-0.6c4.9-2,10.1-3.4,15.3-4c4.4-0.5,7.5-4.5,7-8.9C96.2,103.4,92.2,100.3,87.8,100.9z"/>
	</g>
</g>
<g>
	<linearGradient id="SVGID_99_" gradientUnits="userSpaceOnUse" x1="7.211" y1="190" x2="263.91" y2="190">
		<stop  offset="0" style="stop-color:#E5700F"/>
		<stop  offset="1" style="stop-color:#FEBA1C"/>
	</linearGradient>
	<path class="st101" d="M257.9,248.5c-3.3,0-6,2.7-6,6V364H75.2v-50c0-3.3-2.7-6-6-6h-50V16h232.7v109.5c0,3.3,2.7,6,6,6
		c3.3,0,6-2.7,6-6V10c0-3.3-2.7-6-6-6H13.2c-3.3,0-6,2.7-6,6v304c0,0.2,0,0.4,0,0.6c0,0.1,0,0.3,0.1,0.4c0,0.1,0,0.1,0,0.2
		c0,0.2,0.1,0.3,0.1,0.5c0,0,0,0.1,0,0.1c0,0.2,0.1,0.3,0.2,0.5c0,0,0,0,0,0.1c0.1,0.2,0.1,0.3,0.2,0.4c0,0,0,0.1,0,0.1
		c0.1,0.1,0.2,0.3,0.2,0.4c0,0,0,0.1,0.1,0.1c0.1,0.1,0.2,0.2,0.3,0.4c0,0,0.1,0.1,0.1,0.1c0.1,0.2,0.3,0.3,0.4,0.4l56,56
		c0.1,0.1,0.3,0.3,0.4,0.4c0,0,0.1,0.1,0.1,0.1c0.1,0.1,0.2,0.2,0.4,0.3c0,0,0.1,0,0.1,0.1c0.1,0.1,0.3,0.2,0.4,0.2c0,0,0.1,0,0.1,0
		c0.1,0.1,0.3,0.1,0.4,0.2c0,0,0,0,0.1,0c0.2,0.1,0.3,0.1,0.5,0.2c0,0,0,0,0.1,0c0.2,0,0.3,0.1,0.5,0.1c0.1,0,0.1,0,0.2,0
		c0.1,0,0.3,0.1,0.4,0.1c0.2,0,0.4,0,0.6,0h188.7c3.3,0,6-2.7,6-6V254.5C263.9,251.2,261.2,248.5,257.9,248.5L257.9,248.5z
		 M63.2,355.5L27.7,320h35.5V355.5z M63.2,355.5"/>
	<linearGradient id="SVGID_100_" gradientUnits="userSpaceOnUse" x1="160.387" y1="322" x2="223.91" y2="322">
		<stop  offset="0" style="stop-color:#E5700F"/>
		<stop  offset="1" style="stop-color:#FEBA1C"/>
	</linearGradient>
	<path class="st102" d="M217.9,328c3.3,0,6-2.7,6-6s-2.7-6-6-6h-51.5c-3.3,0-6,2.7-6,6s2.7,6,6,6H217.9z M217.9,328"/>
	<linearGradient id="SVGID_101_" gradientUnits="userSpaceOnUse" x1="47.211" y1="66" x2="223.91" y2="66">
		<stop  offset="0" style="stop-color:#E5700F"/>
		<stop  offset="1" style="stop-color:#FEBA1C"/>
	</linearGradient>
	<path class="st103" d="M217.9,60H53.2c-3.3,0-6,2.7-6,6s2.7,6,6,6h164.7c3.3,0,6-2.7,6-6S221.2,60,217.9,60L217.9,60z M217.9,60"/>
	<linearGradient id="SVGID_102_" gradientUnits="userSpaceOnUse" x1="47.211" y1="98" x2="223.91" y2="98">
		<stop  offset="0" style="stop-color:#E5700F"/>
		<stop  offset="1" style="stop-color:#FEBA1C"/>
	</linearGradient>
	<path class="st104" d="M217.9,92H53.2c-3.3,0-6,2.7-6,6s2.7,6,6,6h164.7c3.3,0,6-2.7,6-6S221.2,92,217.9,92L217.9,92z M217.9,92"/>
	<linearGradient id="SVGID_103_" gradientUnits="userSpaceOnUse" x1="47.211" y1="130" x2="223.91" y2="130">
		<stop  offset="0" style="stop-color:#E5700F"/>
		<stop  offset="1" style="stop-color:#FEBA1C"/>
	</linearGradient>
	<path class="st105" d="M217.9,124H53.2c-3.3,0-6,2.7-6,6c0,3.3,2.7,6,6,6h164.7c3.3,0,6-2.7,6-6C223.9,126.7,221.2,124,217.9,124
		L217.9,124z M217.9,124"/>
	<linearGradient id="SVGID_104_" gradientUnits="userSpaceOnUse" x1="47.211" y1="162" x2="223.91" y2="162">
		<stop  offset="0" style="stop-color:#E5700F"/>
		<stop  offset="1" style="stop-color:#FEBA1C"/>
	</linearGradient>
	<path class="st106" d="M223.9,162c0-3.3-2.7-6-6-6H53.2c-3.3,0-6,2.7-6,6s2.7,6,6,6h164.7C221.2,168,223.9,165.3,223.9,162
		L223.9,162z M223.9,162"/>
	<linearGradient id="SVGID_105_" gradientUnits="userSpaceOnUse" x1="47.211" y1="194" x2="195.422" y2="194">
		<stop  offset="0" style="stop-color:#E5700F"/>
		<stop  offset="1" style="stop-color:#FEBA1C"/>
	</linearGradient>
	<path class="st107" d="M195.4,194c0-3.3-2.7-6-6-6H53.2c-3.3,0-6,2.7-6,6s2.7,6,6,6h136.2C192.7,200,195.4,197.3,195.4,194
		L195.4,194z M195.4,194"/>
	<g>
		<defs>
			<rect id="SVGID_106_" x="7.2" y="4" width="372" height="372"/>
		</defs>
		<clipPath id="SVGID_107_">
			<use xlink:href="#SVGID_106_"  style="overflow:visible;"/>
		</clipPath>
		<linearGradient id="SVGID_108_" gradientUnits="userSpaceOnUse" x1="47.211" y1="226" x2="141.559" y2="226">
			<stop  offset="0" style="stop-color:#E5700F"/>
			<stop  offset="1" style="stop-color:#FEBA1C"/>
		</linearGradient>
		<path class="st108" d="M53.2,220c-3.3,0-6,2.7-6,6c0,3.3,2.7,6,6,6h82.3c3.3,0,6-2.7,6-6c0-3.3-2.7-6-6-6H53.2z M53.2,220"/>
		<linearGradient id="SVGID_109_" gradientUnits="userSpaceOnUse" x1="136.609" y1="190" x2="379.2085" y2="190">
			<stop  offset="0" style="stop-color:#E5700F"/>
			<stop  offset="1" style="stop-color:#FEBA1C"/>
		</linearGradient>
		<path class="st109" d="M371.1,76.8c-5.2-5.2-12.1-8.1-19.5-8.1s-14.3,2.9-19.5,8.1l-35.6,35.6h0L175.2,233.7
			c-0.2,0.2-0.3,0.3-0.5,0.5c0,0-0.1,0.1-0.1,0.1c-0.1,0.1-0.2,0.3-0.3,0.4c0,0,0,0.1-0.1,0.1l-35.3,60c-1.5,1.8-2.3,4-2.3,6.4
			c0,2.7,1,5.2,2.9,7.1c1.9,1.9,4.4,2.9,7.1,2.9c2.4,0,4.6-0.8,6.4-2.3l60-35.3c0,0,0.1,0,0.1-0.1c0.2-0.1,0.3-0.2,0.4-0.3
			c0,0,0.1-0.1,0.1-0.1c0.2-0.1,0.4-0.3,0.5-0.5l121.3-121.3c0,0,0,0,0,0l0,0l35.6-35.6C381.9,105,381.9,87.5,371.1,76.8L371.1,76.8
			z M331.3,138.7l-22.1-22.1l8.5-8.5l22.1,22.1L331.3,138.7z M210,260l-22.1-22.1l112.8-112.8l22.1,22.1L210,260z M175.3,281.9
			l-9.3-9.3l14.7-24.9l19.6,19.6L175.3,281.9z M152.6,295.3l7.1-12l4.9,4.9L152.6,295.3z M362.7,107.3l-14.4,14.4l-22.1-22.1
			l14.4-14.4c2.9-2.9,6.9-4.6,11-4.6c4.2,0,8.1,1.6,11,4.6c2.9,2.9,4.6,6.9,4.6,11C367.2,100.5,365.6,104.4,362.7,107.3L362.7,107.3
			z M362.7,107.3"/>
	</g>
</g>
</svg>
