<?xml version="1.0" encoding="utf-8"?>
<!-- Generator: Adobe Illustrator 19.0.1, SVG Export Plug-In . SVG Version: 6.00 Build 0)  -->
<svg version="1.1" id="Layer_1" xmlns="http://www.w3.org/2000/svg" xmlns:xlink="http://www.w3.org/1999/xlink" x="0px" y="0px"
	 viewBox="-52 176.3 489.6 489.6" style="enable-background:new -52 176.3 489.6 489.6;" xml:space="preserve">
<style type="text/css">
	.st0{fill:url(#SVGID_1_);}
	.st1{fill:url(#SVGID_2_);}
</style>
<g>
	<g>
		
			<linearGradient id="SVGID_1_" gradientUnits="userSpaceOnUse" x1="-52" y1="421.09" x2="437.6" y2="421.09" gradientTransform="matrix(-1 0 0 -1 385.6 842.18)">
			<stop  offset="0" style="stop-color:#FEBA1C"/>
			<stop  offset="1" style="stop-color:#E5700F"/>
		</linearGradient>
		<path class="st0" d="M192.8,176.3C57.8,176.3-52,286.1-52,421.1S57.8,665.9,192.8,665.9s244.8-109.8,244.8-244.8
			S327.8,176.3,192.8,176.3z M192.8,646.1c-124.1,0-225-100.9-225-225s100.9-225,225-225s225,100.9,225,225S316.9,646.1,192.8,646.1
			z"/>
		
			<linearGradient id="SVGID_2_" gradientUnits="userSpaceOnUse" x1="136.275" y1="421.0775" x2="230.425" y2="421.0775" gradientTransform="matrix(-1 0 0 -1 385.6 842.18)">
			<stop  offset="0" style="stop-color:#FEBA1C"/>
			<stop  offset="1" style="stop-color:#E5700F"/>
		</linearGradient>
		<path class="st1" d="M172.1,339.8c-1.9-1.9-4.5-2.9-7-2.9s-5.1,1-7,2.9c-3.9,3.9-3.9,10.1,0,14l67.3,67.3l-67.3,67.3
			c-3.9,3.9-3.9,10.1,0,14s10.1,3.9,14,0l74.3-74.3c3.9-3.9,3.9-10.1,0-14L172.1,339.8z"/>
	</g>
</g>
</svg>
