<?xml version="1.0" encoding="iso-8859-1"?>
<!-- Generator: Adobe Illustrator 19.0.1, SVG Export Plug-In . SVG Version: 6.00 Build 0)  -->
<svg version="1.1" id="Layer_1" xmlns="http://www.w3.org/2000/svg" xmlns:xlink="http://www.w3.org/1999/xlink" x="0px" y="0px"
	 viewBox="-49 141 512 512" style="enable-background:new -49 141 512 512;" xml:space="preserve">
<path style="fill:#121212;" d="M332.6,145H81c-69.2,0-126,56.8-126,126.4V523c0,69.2,56.8,126,126,126h251.6
	c69.6,0,126.4-56.8,126.4-126.4V271.4C459,201.8,402.2,145,332.6,145z M211.8,239.8c75.2,2.4,140,70,139.2,142.8
	c0,7.2,2.4,17.6-8.4,17.6c-10.4,0-7.6-10.8-8.8-18c-10-77.2-46-113.6-124.4-125.6c-6.4-0.8-16.4,0.4-16-8
	C194.2,236.2,205.8,240.6,211.8,239.8z M305.8,385.8c-12,1.6-9.6-8.8-10.8-15.6c-8-47.2-24.8-64.4-73.2-74.8
	c-7.2-1.6-18.4-0.4-16.4-11.2c1.6-10.4,11.6-6.8,19.2-6c48.4,5.6,88,46.8,87.6,92C311.4,375,314.6,384.2,305.8,385.8z M267.8,374.2
	c-5.2,0.8-8.4-3.6-9.2-8.8c-2-19.2-12.4-30.8-32.4-34c-6-0.8-11.6-2.8-8.8-10.8c2-5.2,6.8-6,12-6c21.6-0.4,46.4,24.8,46.4,46.4
	C275.8,367.4,275,373.4,267.8,374.2z M351.8,508.6c-8.4,22.8-36.8,46-61.2,45.6c-3.6-0.8-10.4-2-16.4-4.4
	C167,504.6,89,430.2,45,323.8c-14.8-35.6,0.8-66,38-78c6.8-2.4,13.2-2.4,20,0c16,5.6,56.4,60.4,57.2,76.4c0.8,12.4-8,19.2-16.4,24.8
	c-16.4,10.8-16.4,24.4-9.2,40c15.6,34.4,42.4,58.4,77.2,73.6c12.4,5.6,24.8,5.2,33.2-7.6c15.2-22.8,34-21.6,54.4-7.6
	c10.4,7.2,20.8,14,30.4,21.6C343,477.8,359.8,486.6,351.8,508.6z"/>
</svg>
