<?xml version="1.0" encoding="iso-8859-1"?>
<!-- Generator: Adobe Illustrator 19.0.1, SVG Export Plug-In . SVG Version: 6.00 Build 0)  -->
<svg version="1.1" id="&#x421;&#x43B;&#x43E;&#x439;_1"
	 xmlns="http://www.w3.org/2000/svg" xmlns:xlink="http://www.w3.org/1999/xlink" x="0px" y="0px"
	 viewBox="-237 330.19 120.8 180.7" style="enable-background:new -237 330.19 120.8 180.7;" xml:space="preserve">
<g>
	<g>
		<defs>
			<rect id="SVGID_1_" x="-237" y="330.19" width="120.8" height="180.7"/>
		</defs>
		<clipPath id="SVGID_2_">
			<use xlink:href="#SVGID_1_"  style="overflow:visible;"/>
		</clipPath>
		<path style="clip-path:url(#SVGID_2_);fill:#DBB878;" d="M-187.2,375.59c-0.2,0-0.4,0-0.5,0.1c-0.1,0.1-0.3,0.3-0.4,0.6
			c0,0-0.1,0.1-0.1,0.3c-0.1,0.2-0.2,0.5-0.3,0.8l-0.5,1.9c-0.1,0.4-0.2,0.8-0.2,1c-0.1,0.3-0.2,0.5-0.3,0.7s-0.2,0.3-0.3,0.4
			c-0.1,0.1-0.2,0.2-0.2,0.2s-0.1,0-0.2,0c-0.1,0-0.2-0.1-0.3-0.1c0.2-0.2,0.4-0.5,0.6-0.9c0.2-0.4,0.3-0.8,0.4-1.3
			c0.1-0.4,0.2-0.9,0.3-1.4c0.1-0.5,0.2-0.9,0.3-1.3c0.1-0.3,0.2-0.6,0.3-0.9c0.1-0.2,0.2-0.4,0.3-0.5c0.1-0.1,0.2-0.2,0.3-0.3
			c0.1-0.1,0.2-0.1,0.4-0.1c0.3,0,0.4-0.1,0.4-0.2l-0.1-0.2l-0.2-0.1h-0.1c-0.7,0.2-1.2,0.6-1.6,1.2c-0.4,0.6-0.7,1.5-1,2.5
			c-0.1,0.3-0.1,0.6-0.2,0.9c-0.1,0.3-0.1,0.6-0.2,0.9c-0.1,0.3-0.1,0.6-0.2,0.8c-0.1,0.3-0.2,0.5-0.4,0.7h-0.2h-0.2
			c-0.2,0-0.4,0-0.5,0c-0.2,0-0.3,0.1-0.5,0.1c-0.1,0.1-0.3,0.1-0.4,0.2s-0.1,0.1-0.1,0.2l0.1,0.2l0.2,0.1l0.3,0.1h0.2
			c0.1,0,0.2,0,0.4-0.1c0.1,0,0.3-0.1,0.4-0.1c0.1-0.1,0.3-0.1,0.4-0.2c0.1-0.1,0.2-0.1,0.2-0.2c0.4,0.1,0.5,0.2,0.5,0.2v0.4
			l-0.2,0.1l-0.2,0.1l-0.2,0.2c0,0.1,0.1,0.2,0.2,0.2c0.2,0,0.4-0.2,0.8-0.6h0.1c0.1,0,0.2,0.1,0.3,0.1c0.1,0,0.3,0.1,0.4,0.1
			c0.1,0,0.2,0,0.3,0c0.4,0,0.7-0.1,0.9-0.2c0.2-0.1,0.3-0.3,0.3-0.6c0-0.2-0.1-0.3-0.3-0.3c-0.1,0-0.2,0-0.2,0.1l-0.1,0.2l-0.2,0.2
			c-0.1,0-0.2,0.1-0.4,0.1c-0.2,0-0.3,0-0.5-0.1c-0.2-0.1-0.3-0.1-0.4-0.1c0.3-0.4,0.5-0.7,0.7-1.1c0.2-0.4,0.3-0.8,0.4-1.3
			c0.1-0.5,0.2-0.9,0.2-1.2c0.1-0.3,0.1-0.4,0.1-0.5c0.1-0.3,0.1-0.6,0.2-0.8c0.1-0.2,0.2-0.4,0.4-0.5h0.3c0.2,0,0.3-0.1,0.3-0.3
			V375.59L-187.2,375.59z M-192.1,382.09c-0.2,0-0.3-0.1-0.3-0.1c0-0.1,0.1-0.2,0.2-0.2c0.1,0,0.3-0.1,0.5-0.1s0.4,0,0.5,0.1
			C-191.5,381.99-191.8,382.09-192.1,382.09"/>
	</g>
	<g>
		<defs>
			<rect id="SVGID_3_" x="-237" y="330.19" width="120.8" height="180.7"/>
		</defs>
		<clipPath id="SVGID_4_">
			<use xlink:href="#SVGID_3_"  style="overflow:visible;"/>
		</clipPath>
		<path style="clip-path:url(#SVGID_4_);fill:#DBB878;" d="M-195,372.99c-0.2,0.1-0.5,0.2-0.7,0.4c-0.2,0.2-0.4,0.3-0.6,0.5
			c-0.2,0.2-0.3,0.4-0.5,0.6c-0.2,0.4-0.2,0.7-0.1,1.1c0.1,0.4,0.2,0.6,0.5,0.9c0.2,0.2,0.5,0.4,0.9,0.5s0.7,0.1,1.1,0
			c0.2-0.1,0.4-0.2,0.6-0.3c0.2-0.1,0.3-0.3,0.5-0.4v-0.1c0-0.1,0-0.2-0.1-0.2h-0.1c-0.4,0.2-0.8,0.4-1.1,0.4
			c-0.3,0-0.5-0.1-0.7-0.2s-0.4-0.3-0.5-0.5c-0.2-0.1-0.2-0.3-0.3-0.5c0-0.2,0-0.5,0.1-0.7c0.1-0.3,0.3-0.6,0.5-0.8
			c0.3-0.2,0.6-0.3,0.9-0.4c0.3-0.1,0.7-0.1,1.1-0.1s0.7,0,1.1,0c0.4,0,0.7,0.1,1.1,0.1c0.3,0,0.6,0.1,0.9,0.1l0,0
			c-0.3,0.3-0.6,0.7-0.9,1.1s-0.5,0.9-0.7,1.5c-0.2,0.5-0.4,1.1-0.6,1.7c-0.1,0.5-0.3,0.9-0.4,1.4c-0.2,0.5-0.4,0.9-0.6,1.3
			s-0.5,0.8-0.8,1.1c-0.3,0.3-0.7,0.5-1.1,0.6c-0.4,0.1-0.9,0.1-1.3,0.1c-0.4-0.1-0.8-0.2-1.1-0.4c-0.3-0.2-0.6-0.5-0.8-0.8
			c-0.2-0.3-0.3-0.7-0.4-1.1c0-0.3,0-0.6,0.1-0.9c0.1-0.3,0.2-0.5,0.4-0.8c0.2-0.2,0.4-0.4,0.6-0.5c0.2-0.1,0.5-0.2,0.8-0.3
			c0.1,0,0.3,0,0.4,0c0.1,0,0.3,0,0.4,0.1c0.1,0.1,0.3,0.1,0.4,0.3c0.1,0.1,0.3,0.3,0.4,0.5c-0.1,0.1-0.2,0.1-0.3,0.3
			c-0.1,0.1-0.2,0.2-0.2,0.4c-0.1,0.1-0.1,0.3-0.1,0.4s0,0.3,0,0.4s0.1,0.2,0.1,0.3c0.1,0.1,0.2,0.1,0.3,0.1c0.1,0,0.3-0.1,0.4-0.1
			c0.1-0.1,0.2-0.2,0.3-0.3c0.1-0.1,0.1-0.3,0.1-0.5c0-0.2,0-0.4,0-0.6v-0.1v-0.1c0.2-0.1,0.4-0.1,0.7-0.1c0.2,0.1,0.5,0.2,0.7,0.4
			h0.1v-0.2c0-0.1-0.1-0.2-0.1-0.3c-0.1-0.1-0.2-0.2-0.3-0.2c-0.1-0.1-0.3-0.1-0.5-0.1s-0.5,0.1-0.7,0.2c-0.1-0.4-0.4-0.6-0.8-0.8
			c-0.4-0.2-0.7-0.2-1.2-0.2c-0.4,0-0.8,0.2-1.1,0.4c-0.4,0.2-0.7,0.5-0.9,0.8c-0.3,0.3-0.4,0.6-0.6,1c-0.1,0.4-0.2,0.7-0.1,1.1
			c0.1,0.4,0.2,0.8,0.4,1.1c0.2,0.3,0.4,0.6,0.8,0.8c0.3,0.2,0.7,0.3,1.2,0.4c0.5,0.1,1,0.1,1.7,0c0.9-0.2,1.6-0.5,2.2-1
			c0.6-0.5,1.1-1.2,1.5-2c0.2-0.3,0.3-0.7,0.4-1c0.1-0.3,0.2-0.6,0.3-0.9c0.1-0.3,0.2-0.7,0.3-1.1c0.1-0.4,0.2-0.7,0.3-1.1
			c0.2-0.7,0.5-1.3,0.8-1.7c0.1-0.2,0.3-0.4,0.4-0.5c0.2,0,0.5,0.1,0.7,0.1c0.3,0.1,0.6,0.1,0.9,0.1c0.2,0,0.5,0.1,0.7,0.1
			c0.2,0,0.5,0,0.7,0s0.4,0,0.6,0c0.2,0,0.3-0.1,0.5-0.1c0.3-0.1,0.5-0.2,0.7-0.3c0.2-0.1,0.3-0.3,0.3-0.5v-0.2l-0.2-0.2l-0.2,0.1
			l-0.1,0.1v0.1v0.1c0,0.1-0.1,0.3-0.2,0.3c-0.1,0.1-0.3,0.1-0.5,0c-0.7-0.1-1.4-0.2-2.1-0.3c-0.7-0.1-1.4-0.3-2.1-0.3
			c-0.7-0.1-1.4-0.1-2.1-0.1s-1.4,0.1-2,0.3C-194.6,372.79-194.8,372.89-195,372.99 M-195.7,378.69L-195.7,378.69v0.2
			c0,0.3,0,0.5,0,0.6s-0.1,0.2-0.2,0.3c-0.1,0-0.2,0-0.2-0.2v-0.2l0.1-0.3l0.2-0.2L-195.7,378.69z"/>
	</g>
	<g>
		<defs>
			<rect id="SVGID_5_" x="-237" y="330.19" width="120.8" height="180.7"/>
		</defs>
		<clipPath id="SVGID_6_">
			<use xlink:href="#SVGID_5_"  style="overflow:visible;"/>
		</clipPath>
		<path style="clip-path:url(#SVGID_6_);fill:#DBB878;" d="M-230.4,488.29c-0.2,0.2-0.4,0.4-0.4,0.7c-0.1,0.3-0.2,0.7-0.2,1
			c-0.2,0.7-0.3,1.4-0.3,2.1c0,0.2,0,0.4,0,0.6c-0.2-0.1-0.4-0.1-0.4-0.2c-0.3-0.4-0.7-0.5-1.1-0.7c-0.2-0.1-0.4-0.2-0.6-0.4
			l-0.3-0.1c-0.3,0.1-0.5,0-0.7-0.2c-0.1-0.1-0.2-0.1-0.3,0c-0.2,0.1-0.3,0.1-0.5,0.1c-0.1,0-0.2,0-0.3-0.1c-0.5,0-0.7,0.2-0.8,0.7
			c0,0.1-0.1,0.2-0.2,0.3c-0.2,0.1-0.3,0.3-0.3,0.6v0.1c-0.2,0.2-0.2,0.5-0.2,0.7v0.2l0,0c0,0.1,0,0.2,0.1,0.3c0.1,0.1,0,0.2,0,0.3
			c-0.1,0.4,0,0.5,0.3,0.7l0.1,0.2c0.2,0.3,0.5,0.5,0.8,0.5c0.2,0,0.4,0.1,0.5,0.2c0.2,0,0.4,0,0.6,0c0.3,0,0.6,0,0.8,0h0.1
			c0.4,0.2,0.9,0.4,1.3,0.6c0.2,0.1,0.3,0.2,0.3,0.4c0.3,0.7,0.6,1.3,0.9,1.9c0.1,0.2,0.1,0.3,0.2,0.5c0.2,0.8,0.7,1.2,1.4,1.3
			c0.5,0.1,0.9,0.1,1.4,0c0.2-0.1,0.5,0,0.7,0c0.4,0.1,0.7,0.1,1.1,0c0.1,0,0.2-0.1,0.3,0c0.6,0.3,1.2,0.1,1.7-0.1
			c0.1,0,0.3-0.1,0.4-0.1c0.3,0,0.4-0.2,0.6-0.4c0.3-0.3,0.5-0.7,0.7-1.1l0.1-0.1c0.4,0.1,0.8-0.1,1.1,0.2c0.4,0.3,0.8,0.3,1.3,0.2
			l0.1-0.1c0.4-0.3,0.8-0.3,1.2-0.3c0.7,0,1.4-0.1,2.1-0.3c0.9-0.2,1.7-0.4,2.6-0.6c0.4-0.1,0.7-0.3,1.1-0.4
			c0.2-0.1,0.3-0.1,0.5-0.2c0.2-0.1,0.4-0.2,0.6-0.2c0.4-0.1,0.8-0.2,1.2-0.2c0.5,0,1-0.1,1.4-0.3c0.3-0.1,0.5-0.1,0.8,0
			c0.7,0.2,1.4,0.3,2.1,0.2c0.8-0.1,1.6-0.2,2.4-0.3c0.5,0,1,0,1.5,0c0.6,0,1,0.3,1.5,0.6c0.5,0.4,1.1,0.9,1.4,1.5
			c0.1,0.2,0.1,0.3,0.1,0.6c-0.2,0.6-0.1,1.2,0.3,1.6c0.4,0.5,0.9,0.8,1.5,0.9c0.2,0,0.4,0.1,0.6,0.2v0.1c-1,0.2-1,1.1-1,1.1l0,0
			c0,0,0,0.9,0.9,1.1c-0.8,0.8-2.2,2.3-2.1,3.4c0.1,0.8,0.8,1.3,3,1.6c-0.5,0.2-0.6,0.8-0.6,0.8l0,0c0,0,0,0.7,0.8,0.8
			c0,0.1,1.3,0.1,2.9,0.1c1.6,0,2.9-0.1,2.9-0.1c0.7-0.1,0.8-0.8,0.8-0.8v-0.1c0-0.2-0.1-0.5-0.5-0.7c2.4-0.2,3.2-0.8,3.3-1.6
			c0.1-1.2-1.4-2.7-2.3-3.4c0.8-0.2,0.8-1.1,0.8-1.1v-0.1c0-0.2-0.2-0.9-1-1v-11.7v-17.5c0.9-0.2,1-1.1,1-1.1v-0.1
			c0-0.2-0.2-0.9-1-1l0,0v-0.7c0.9-0.2,1-1.1,1-1.1v-0.1c0-0.2-0.2-0.9-1-1l0,0v-19.3c0.1,0,0.2,0,0.3,0c0.7,0.1,1.4,0.4,2,0.9
			c0.6,0.5,1.1,1.4,1.6,2.6c0.4,1.2,0.6,3,0.6,5.3c0,1.9,0,3.7,0.1,5.2s0.3,2.8,0.8,3.8s1.2,1.8,2.2,2.4c1,0.5,2.4,0.8,4.3,0.8v-0.8
			c-0.8,0-1.3-0.3-1.7-0.8c-0.3-0.5-0.6-1.2-0.7-2.2c-0.1-0.9-0.2-2.1-0.2-3.6c0-1.4,0-3.1-0.1-4.9c0-1.7-0.1-3.1-0.4-4.4
			c-0.3-1.3-0.8-2.3-1.5-3.1c-0.7-0.8-1.7-1.4-2.8-1.9c-1.2-0.4-2.6-0.6-4.4-0.6l0,0c1.5,0,2.5-0.3,3.1-0.8c0.6-0.5,1-1.3,1.2-2.3
			c0.2-1,0.3-2.3,0.3-3.8s0.3-3.2,0.7-5.2c0.2-1.2,0.5-2.1,0.7-2.6s0.5-0.8,0.8-0.8c0.3,0,0.6,0.1,0.9,0.3c0.3,0.3,0.6,0.5,1,0.7
			c0.4,0.2,0.8,0.3,1.2,0.3c0.4,0,0.9-0.3,1.4-0.8c0.4-0.5,0.6-1,0.5-1.5c-0.1-0.5-0.3-0.9-0.7-1.3c-0.4-0.3-0.9-0.5-1.5-0.6
			c-0.6-0.1-1.2,0.1-1.9,0.5c-0.6,0.4-1.2,1-1.8,2c-0.6,0.9-1,2.2-1.2,3.8c-0.5,2.3-0.7,4.2-0.8,5.7c-0.1,1.5-0.2,2.7-0.4,3.6
			s-0.6,1.5-1.3,1.9c-0.5,0.3-1,0.5-2,0.5v-2.4c0,0-0.3-13.7,1.7-17.5c0.5-0.3,0.7-0.6,0.7-1c0.1-1.3-1.7-2.9-2.5-3.6h0.1
			c1-0.1,1-1.1,1-1.1v-0.1c0-0.2-0.2-0.9-0.9-1l0,0c0-2.6,1.8-7.1,2.3-8.2l0.1-0.3l0,0l0,0v-0.2c0-0.2,0-0.4-0.1-0.6l0.1-0.1
			c0.3-0.3,0.5-0.7,0.7-1.2h0.1c0.5,0.4,1.1,0.8,2,0.8c0.8,0,1.6-0.3,2.1-1c0.5-0.6,0.7-1.3,0.7-2v-0.2c0.3,0.2,0.4,0.6,0.5,1
			c0.1,0.4,0.2,0.8,0.4,1.1c0.1,0.1,0.6,0.4,0.9,0.4c-0.1-0.2-0.1-0.4-0.1-0.6c0-0.4,0.2-0.6,0.4-0.9c0.3-0.4,0.6-0.8,0.7-1.4
			c0-0.2,0-0.3,0-0.5c0-0.6-0.2-1.1-0.5-1.5c-0.3-0.4-0.7-0.7-1.1-0.8c0.8-0.4,1-1.1,1-1.6c0-1.1-0.7-1.7-1.3-2
			c-0.2-0.1-0.6-0.2-0.9-0.2c0.4,0.3,0.5,1.1,0.3,1.5c-0.1,0.2-0.3,0.4-0.7,0.4c-0.5,0-1.2-0.5-1.9-1c-0.8-0.6-1.8-1.3-3.1-1.9
			c-1.1-0.5-2-1-2.7-1.5c0.2,0,0.3,0.1,0.5,0.1c0.6,0,1,0.3,1.3,0.4c0.3,0.2,0.6,0.6,0.6,0.6s0-0.4,0-0.8c-0.1-0.9-0.8-1.3-1.4-1.7
			c-0.7-0.4-1.3-0.8-1.3-1.8c0-2,1.9-3.3,3.2-3.3c1.1,0,2.2,0.8,2.2,2c0,0.5-0.2,1-0.6,1.2c-0.5,0.3-1.3,0.3-1.7,0.1l-0.3-0.1
			c0,1.1,1,1.9,1.8,1.9c0.4,0,0.8-0.1,1.2-0.3c0,0.2,0,0.3,0,0.3c-0.2,1.4-0.9,1.6-0.6,2.1c0.4,0.4,2.8,0.4,3.5,0.5
			c1.1,0.2,2.1,0.6,3.2,0.8c1.2,0.2,2.5,0.3,3.7,0.7c0.7,0.3,1.7,1.1,2.2,1.3c0.5,0.2,0.9,0.6,1.6,0.6c0.6,0,0.9-0.5,1.6-0.8
			c0.5-0.2,1.2,0.1,1.7-0.1c0.4-0.1,0.6-0.5,0.9-0.7c0.5-0.3,1.1-0.3,1.5-0.6c0.2-0.2,0.2-0.5,0.2-0.7c0.8-0.6,1.5-1.5,1.8-2.4
			c0.2,0,0.4-0.2,0.4-0.5v-0.1c0.2-0.2,0.4-0.4,0.4-0.7c0-0.3-0.2-0.6-0.4-0.8v-0.1c0-0.2-0.1-0.3-0.2-0.4c-0.3-1.9-1.8-3.4-3.6-3.9
			v-0.1l0,0l-0.1-0.1c-0.2-0.3-0.6-0.6-0.6-0.9c0.3,0.1,0.8,0.5,1.1,0.8v-2.5c-0.2,0.2-0.8,0.7-1.1,0.8c0.1-0.3,0.5-0.8,0.8-1.1
			h-2.5c0.2,0.2,0.7,0.8,0.8,1.1c-0.3-0.1-0.8-0.5-1.1-0.8v2.5c0.2-0.2,0.8-0.7,1.1-0.8c-0.1,0.3-0.5,0.8-0.8,1.1h0.1
			c-1.9,0.4-3.4,2-3.8,3.9c-0.2,0-0.3,0.1-0.3,0.3v0.1c-0.2,0.2-0.4,0.5-0.4,0.8c0,0.3,0.2,0.5,0.4,0.7v0.1c0,0.3,0.2,0.4,0.4,0.5
			c0.1,0.2,0.2,0.5,0.3,0.7c-0.1,0.7-1,1.1-1.2,1.1c-1.5,0.2-3.3-0.5-4.8-1c-0.7-0.3-1.6-0.6-2.1-1.3c-0.1-0.2-0.3-0.6-0.3-1.1
			c0.2,0.2,0.3,0.4,0.6,0.6l0.4,0.3l-0.1-0.5c0-0.1,0-0.3,0-0.4v-0.1c0.3,0.5,0.8,1.1,1.7,1.1h0.4l-0.3-0.2
			c-0.2-0.3-0.5-0.9-0.5-1.6c0-0.2,0-0.4,0.1-0.7c0.3,0.4,0.8,0.9,1.6,0.9c1.3,0,2.1-1.4,2.2-2c-0.4,0.5-0.7,0.7-1.1,0.7
			c-0.4,0-0.8-0.2-0.9-0.9c0-0.3,0-0.6,0.1-0.9c0.1-0.5,0.2-1.1,0.1-1.8c-0.2-1.2-0.8-1.9-1.4-2.3c-0.6-0.4-1.4-0.7-2.1-0.7
			c0.1-0.1,0.2-0.3,0.3-0.4l0.3-0.4l-0.5,0.2c-1.1,0.3-1.9,0.1-2.3-0.2c-0.4-0.3-0.8-0.6-0.9-1.1c0.2,0.1,0.4,0.2,0.7,0.3l0.5,0.1
			l-0.3-0.4c-1-1.6-1-3.4-0.1-5.5c0.2-0.1,0.3-0.2,0.4-0.3c0.2,0.4,0.6,0.5,0.9,0.7c0.3,0.1,0.5,0.2,0.7,0.4l0.2,0.2l0.1-0.2
			l0.1-0.2c0,1.5,0,2.9,0.2,3.4c0.3,0.6,0.7,0.8,1.1,1.1c0.2,0.2,0.5,0.3,0.7,0.5l0.1,0.1l0.1-0.1c0.2-0.3,0.4-0.4,0.7-0.6
			c0.4-0.3,0.8-0.6,0.9-1.2c0.2-0.7-0.1-1.9-0.4-3l-0.1-0.4c0-0.1,0.1-0.2,0.2-0.4c0.4,1.3,1.2,4.4,1.6,5.2c0.2,0.4,0.6,0.5,1,0.6
			c0.3,0.1,0.6,0.1,1,0.4h0.2l0.1-0.1c0.1-0.2,0.3-0.5,0.5-0.7c0.4-0.5,0.9-1.1,0.6-1.9c-0.5-1.1-1.4-3.2-2.2-4.8h0.1l0,0l1,1.9
			l1.6,3c0.5,0.9,1.4,1,2,1.1l0.5,0.1c0.1,0,0.2,0,0.2-0.1c0-0.2,0.2-0.4,0.3-0.6c0.4-0.6,0.8-1.3,0.1-2.5c-0.4-0.7-1.2-1.7-2.1-2.8
			l-0.2-0.3l-1.2-1.5l0,0c0.2,0.2,0.8,0.8,1.4,1.6c0.1,0.1,0.2,0.3,0.3,0.4c1,1.2,2.2,2.5,2.9,3.3c0.6,0.6,1.7,0.7,3.1,0.1l0.1-0.2
			v-0.4c0-0.7,0.1-1.4-0.7-2.3l-0.1-0.1c0.7,0.2,1.5,0.3,1.9,0.2c0.4-0.1,0.8-0.3,0.9-0.5c0.1-0.1,0.1-0.3,0.1-0.4
			c0-0.2,0-0.4-0.1-0.6c-0.1-0.4-0.3-0.8-0.6-1.1c1,0.2,1.8,0.1,2.2-0.1c0.6-0.3,1-0.7,1.1-1c0.1-0.4,0-1-0.3-1.5
			c-0.2-0.4-0.7-1.1-1.7-1.4c1.4-0.1,2.3-0.6,2.8-1c0.6-0.6,0.9-1.2,0.9-1.3c0-0.5-1.7-1.3-3-1.5c-0.1,0-0.2,0-0.3,0
			c2.2-0.5,3.3-1.8,3.7-2.2c0.1-0.2,0.5-0.7,0.4-0.9c-0.1-0.5-2.2-0.8-3.2-0.8c-0.4,0-0.8,0-1.3,0.1c1.5-0.5,2.7-1.1,3.6-1.9
			c0.8-0.8,1.5-2,1.3-2.4c-0.2-0.5-2.3-0.4-3.3-0.2c-0.2,0-0.4,0.1-0.7,0.2c0.7-0.5,1.4-1.1,1.9-1.9c0.6-0.9,1.2-2.7,0.9-3.1
			c-0.4-0.4-2.4,0.2-3.3,0.5l-0.2,0.1c1-0.9,1.7-1.8,2.1-2.7c0.6-1.3,0.6-2.8,0-3.7c-0.1-0.2-0.3-0.2-0.3-0.2c-0.1,0-0.2,0-0.3,0.2
			c-0.5,0.6-2,2.1-2.8,2.8c-0.7,0.6-1.5,1.4-2.5,2.2c1.4-1.7,2.7-3.4,3.3-4.8c1.1-2.2,1.3-5.6,0-6.6c-0.3-0.2-0.5-0.3-0.7-0.2
			c-0.2,0-0.4,0.2-0.5,0.4c-1.2,2.3-3.7,6.7-6.3,9.9c-0.1-0.1-0.2-0.3-0.3-0.4l-0.2-0.5l-0.1,0.3c-0.6,1.6-1.9,3.3-3.3,4.4
			c-0.1-0.2-0.2-0.5-0.3-0.7l-0.2-0.3l-0.1,0.2c-0.7,1.2-1.9,2.2-2.9,3.1c-0.5,0.5-1,0.9-1.4,1.3c-1.1,1.2-1.9,2.2-1.9,3.5
			c0,1.1,0.5,1.7,1,2.1c0.4,0.4,0.8,0.8,0.8,1.5c0,0.4-0.3,1-0.7,1.4s-1.2,1-2.4,1.1c-1.2,0-2-0.4-2.5-1.4c0.3-0.1,0.6-0.2,0.9-0.4
			c0.6-0.5,0.9-1.2,0.9-1.7c0-0.6-0.1-1.1-0.3-1.5l-0.2-0.1l-0.2,0.1c-0.3,0.5-1,0.8-1.7,0.8c-1.1,0-1.8-0.5-2.4-1.1
			c0.3,0.1,0.5,0.1,0.8,0.1c0.6,0,1.1-0.2,1.4-0.6c0.3-0.3,0.4-0.7,0.4-1.1l0-0.1h-0.2c-0.3,0.2-0.6,0.4-1.1,0.4
			c-1.2,0-2-1.2-2.1-2.4c0-0.2,0-0.6,0-0.9c0.1-1.8,1.2-3.7,2.9-5.2l0.2,0.2c0.2,0.1,0.4,0.1,0.6,0c0.5-0.2,1.1-0.4,1.5-0.4
			c1.1,0,2,0.3,2.4,0.8c0.3,0.4,0.4,0.7,0.3,1.1c0,0.1,0,0.3-0.1,0.4c0.4-0.2,1-0.7,1-1.4c0-0.5-0.4-1-1.1-1.3l-0.2-0.1l0.2,0.1h0.1
			c0.4,0.2,0.9,0.4,1.2,0.7c0.7,0.4,1.4,0.9,2.3,0.9c1.7,0,2.6-1.4,2.6-2.4c0-0.1-0.1-0.2-0.1-0.2c-0.1,0-0.2,0-0.2,0.1
			c-0.2,0.5-0.6,1-1.5,1c-0.9,0-1.7-0.3-2.5-0.6c-0.7-0.3-1.4-0.5-2.1-0.6c-0.2,0-0.3,0-0.5,0c0.4-0.2,0.8-0.3,1.2-0.4
			c1-0.2,2.3-0.1,2.8,0.7l0,0l0.1,0.2c0.2-0.1,0.4-0.3,0.5-0.5c0.3-0.4,0.5-1,0.5-1.7c0-0.8-0.4-1.5-1-2c-0.6-0.5-1.4-0.7-2.1-0.6
			c0-0.2-0.1-0.5-0.2-0.6c-0.1-0.1-0.4-0.2-0.6-0.1c0-0.1,0-0.2-0.1-0.3c0.7-0.1,1.3-0.2,1.7-0.3c0.3-0.1,0.6-0.2,0.8-0.3l0,0
			c2.1-0.7,2.5-1.9,2.5-2.5c0.1-0.9-0.1-1.5-0.4-2c-0.2-0.4-0.3-0.9-0.3-1.5c0-0.4,0.1-0.6,0.2-0.8l0.6,0.3c0.4,0.2,0.7,0.3,1.1,0.4
			l0,0c1.1,0.4,1.3,1.2,1.3,1.7c0,0.9-0.3,1.3-0.6,1.8c-0.3,0.4-0.6,0.9-0.6,1.6c0,0.9,0.3,1.4,0.7,1.8c0.3,0.4,0.5,0.7,0.5,1.1
			s-0.1,0.7-0.3,1c-0.2,0.2-0.3,0.4-0.4,0.5c0.2,0,0.6-0.1,0.8-0.2c0.9-0.4,1.4-1,1.4-1.8c0-0.5-0.3-0.9-0.5-1.2
			c-0.2-0.2-0.3-0.4-0.4-0.7c0-0.1,0-0.2,0-0.3c0.3,0.6,0.9,0.9,1.6,0.9c0.3,0,0.6-0.1,0.7-0.2s0.2-0.1,0.4-0.1
			c0.2,0,0.3,0.1,0.4,0.2s0.1,0.3,0.1,0.5s-0.1,0.3-0.2,0.4c0.1,0,0.3-0.1,0.5-0.2l0,0c0.5-0.4,0.7-0.8,0.7-1.4
			c0-0.7-0.4-1.2-1.1-1.2c-0.2,0-0.4,0.1-0.6,0.1c-0.2,0.1-0.3,0.1-0.5,0.1c-0.2,0-0.3-0.1-0.3-0.4c0-0.3,0.3-0.5,0.6-0.8
			c0.4-0.4,1-0.9,1-1.8c0-1-0.8-2.1-3-2.4c-0.4-0.2-0.7-0.5-1-0.9l-0.5-0.6c-0.3-0.3-1.1-1-1.9-0.9c-0.2,0-0.5,0.2-0.9,0.5
			c-0.4,0.2-0.8,0.5-1.4,0.7l0,0c-0.2,0.1-0.3,0.2-0.5,0.3c-0.4,0.4-0.5,1-0.5,1.3c0,0.7,0.4,1.6,0.7,2.4c0.3,0.7,0.6,1.3,0.6,1.8
			c0.1,1.2-0.9,1.9-3.2,2.5c0-1,0.2-1.7,0.5-2.4c0.2-0.5,0.4-1,0.4-1.5c0-1.2-1.2-1.6-2.1-1.6l-0.1,0.1c0,0.2,0,0.3,0,0.5h-0.4
			c0-0.2,0-0.4,0-0.6l-0.1-0.1h-0.3c0.2-0.1,0.3-0.3,0.3-0.6c0-0.2-0.1-0.4-0.2-0.5h0.1h0.1v-0.1l0,0l-0.1-0.2
			c-0.1-0.1-0.1-0.2-0.2-0.3c0.1,0,0.2,0.1,0.3,0.2l0.2,0.1h0.1l0.1-0.1v-1.1l-0.1-0.1h-0.1c-0.1,0-0.3,0.1-0.5,0.2
			c0.1-0.1,0.2-0.3,0.2-0.5v-0.1v-0.1l-0.1-0.1h-1.1v0.2v0.1l0,0l0.1,0.2c0.1,0.1,0.1,0.2,0.2,0.3c-0.1,0-0.2-0.1-0.3-0.2h-0.2h-0.1
			l-0.1,0.1v1.1l0.1,0.1h0.1l0.2-0.1c0.1-0.1,0.2-0.1,0.3-0.2c0,0.1-0.1,0.2-0.2,0.3l-0.1,0.2l0,0v0.1h0.1h0.1
			c-0.2,0.1-0.2,0.3-0.2,0.5c0,0.2,0.1,0.4,0.3,0.6h-0.1l-0.2,0.1c0,0.2,0,0.4,0,0.6h-0.4c0-0.2,0-0.3,0-0.5l-0.1-0.1
			c-1,0-2.1,0.4-2.1,1.6c0,0.5,0.2,1,0.4,1.5c0.2,0.6,0.5,1.3,0.5,2.3c-0.5-0.1-1-0.3-1.2-0.4c-1.9-0.7-3.6-1.8-4.8-3.1v-1.3
			c0.6-0.9,1.1-2.1,1.5-3.1c1-2.8-0.5-3.9-2.9-4.4c-0.3-0.2-0.6-0.2-1-0.1l-0.1,0.4l-0.5-0.1v-0.5c-0.1,0-0.2,0-0.3,0
			c0.4-0.2,0.6-0.6,0.6-1c0-0.4-0.2-0.7-0.4-0.9h0.4c-0.2-0.2-0.6-0.7-0.7-0.9c0.3,0.1,0.7,0.5,0.9,0.7v-2.2
			c-0.2,0.2-0.7,0.6-0.9,0.7c0.1-0.3,0.5-0.7,0.7-0.9h-1.1h-1.1c0.2,0.2,0.6,0.7,0.7,0.9c-0.3-0.1-0.7-0.5-0.9-0.7v2.2
			c0.2-0.2,0.7-0.6,0.9-0.7c-0.1,0.3-0.5,0.7-0.7,0.9h0.4c-0.3,0.2-0.4,0.5-0.4,0.9c0,0.4,0.2,0.8,0.6,1c-0.1,0-0.2,0-0.3,0v0.5
			l-0.5,0.1l-0.2-0.4c-0.4-0.1-0.7-0.1-1,0.1c-2.4,0.5-3.9,1.7-2.9,4.4c0.4,1,0.9,2.2,1.5,3.1v1.3c-1.2,1.3-2.9,2.4-4.8,3.1
			c-0.2,0.1-0.7,0.2-1.2,0.4c0-1,0.3-1.7,0.5-2.3c0.2-0.5,0.4-1,0.4-1.5c0-1.2-1.2-1.6-2.1-1.6l-0.1,0.1c0,0.2,0,0.3,0,0.5h-0.4
			c0-0.2,0-0.4,0-0.6l-0.1-0.1h-0.1c0.2-0.1,0.3-0.3,0.3-0.6c0-0.2-0.1-0.4-0.2-0.5h0.1h0.1v-0.1l0,0l-0.1-0.2
			c-0.1-0.1-0.1-0.2-0.2-0.3c0.1,0,0.2,0.1,0.3,0.2l0.2,0.1h0.1l0.1-0.1v-1.1l-0.2-0.1h-0.1c-0.1,0.1-0.3,0.2-0.5,0.2
			c0.1-0.1,0.2-0.3,0.2-0.5v-0.1v-0.1l-0.1-0.1h-1.1l-0.1,0.1v0.1l0,0l0.1,0.2c0.1,0.1,0.1,0.2,0.2,0.3c-0.1,0-0.2-0.1-0.3-0.2
			l-0.1,0.1h-0.1l-0.1,0.1v1.1l0.1,0.1h0.1l0.2-0.1c0.1-0.1,0.2-0.1,0.3-0.2c0,0.1-0.1,0.2-0.2,0.3l-0.1,0.2l0,0v0.1h0.1h0.1
			c-0.1,0.1-0.2,0.3-0.2,0.5c0,0.2,0.1,0.4,0.3,0.6h-0.1l-0.1,0.1c0,0.2,0,0.4,0,0.6h-0.4c0-0.2,0-0.3,0-0.5l-0.1-0.1
			c-1,0-2.1,0.4-2.1,1.6c0,0.5,0.2,1,0.4,1.5c0.2,0.6,0.5,1.3,0.5,2.4c-2.4-0.6-3.3-1.3-3.2-2.5c0-0.5,0.3-1.1,0.6-1.8
			c0.4-0.8,0.7-1.7,0.7-2.4c0-0.3-0.1-0.9-0.5-1.3c-0.5-0.1-0.6-0.2-0.8-0.3l0,0c-0.5-0.2-1-0.5-1.4-0.8c-0.4-0.2-0.6-0.4-0.9-0.5
			c-0.8-0.1-1.6,0.6-1.9,0.9l-0.5,0.6c-0.3,0.4-0.7,0.8-1.1,1.1c-2.2,0.3-3,1.4-3,2.4c0,0.9,0.6,1.4,1,1.8c0.3,0.3,0.6,0.5,0.6,0.8
			s-0.1,0.4-0.3,0.4s-0.4-0.1-0.5-0.1c-0.2-0.1-0.3-0.1-0.5-0.1c-0.7,0-1.1,0.5-1.1,1.2c0,0.6,0.2,1,0.7,1.4l0,0
			c0.1,0.1,0.2,0.1,0.3,0.1l0.2,0.1v-0.1c-0.1-0.1-0.1-0.2-0.2-0.3c0-0.2,0-0.3,0.1-0.5c0.1-0.1,0.2-0.2,0.4-0.2s0.3,0,0.4,0.1
			c0.2,0.1,0.4,0.2,0.7,0.2c0.6,0,1.2-0.4,1.6-0.9c0,0.1,0,0.3,0,0.3c-0.1,0.3-0.2,0.5-0.4,0.7c-0.1,0.2-0.3,0.4-0.4,0.6
			c-0.1,0.2-0.1,0.3-0.1,0.5c0,0.8,0.5,1.4,1.4,1.8c0.2,0.1,0.6,0.2,0.8,0.2c-0.1-0.1-0.2-0.3-0.4-0.5c-0.2-0.3-0.3-0.6-0.3-1
			s0.2-0.7,0.4-1l0.1-0.2c0.3-0.4,0.7-0.9,0.7-1.8c0-0.8-0.3-1.2-0.6-1.6c-0.3-0.5-0.6-0.9-0.6-1.8c0-0.5,0.2-1.3,1.3-1.7l0,0
			c0.4-0.1,0.7-0.3,1.1-0.4l0.6-0.3c0.1,0.1,0.3,0.4,0.2,0.8c0,0.6-0.2,1-0.3,1.5c-0.2,0.6-0.4,1.1-0.4,2c0.1,0.7,0.5,1.9,2.5,2.5
			l0,0c0.2,0.1,0.5,0.2,0.8,0.3c0.4,0.1,1,0.2,1.7,0.3c0,0.1-0.1,0.2-0.1,0.3c-0.1,0-0.4,0-0.6,0.1l0,0c-0.2,0.1-0.3,0.4-0.2,0.6
			c-0.7-0.1-1.5,0.2-2.1,0.6c-0.6,0.5-1,1.2-1,2c0,0.7,0.2,1.3,0.5,1.7c0.1,0.2,0.3,0.4,0.5,0.5l0.1-0.2l0,0c0.6-0.8,1.8-1,2.8-0.7
			c0.4,0.1,0.8,0.2,1.2,0.4c-0.2,0-0.3,0-0.5,0c-0.7,0-1.4,0.3-2.1,0.6c-0.8,0.3-1.6,0.6-2.5,0.6s-1.3-0.5-1.5-1
			c0-0.1-0.1-0.1-0.2-0.1c-0.1,0-0.2,0.1-0.1,0.2c0.1,1,0.9,2.4,2.6,2.4c0.9,0,1.6-0.5,2.3-0.9c0.4-0.3,0.8-0.5,1.2-0.7h0.1l0.2-0.1
			l-0.2,0.1c-0.7,0.3-1.1,0.8-1.1,1.3c0,0.7,0.6,1.2,1,1.4c0-0.1-0.1-0.2-0.1-0.4c0-0.4,0.1-0.7,0.3-1.1c0.4-0.5,1.3-0.9,2.4-0.8
			c0.4,0,1,0.2,1.5,0.4c0.2,0.1,0.4,0.1,0.6,0l0.2-0.2c1.7,1.5,2.8,3.3,2.9,5.2c0,0.3,0,0.7,0,0.9c-0.2,1.2-1,2.4-2.1,2.4
			c-0.5,0-0.8-0.1-1.1-0.4h-0.2l-0.1,0.2c0,0.4,0.1,0.8,0.4,1.1c0.3,0.4,0.8,0.6,1.4,0.6c0.3,0,0.6,0,0.8-0.1
			c-0.6,0.6-1.3,1.1-2.4,1.1c-0.8,0-1.4-0.3-1.7-0.8l-0.2-0.1l-0.2,0.1c-0.1,0.6-0.2,1-0.2,1.7c0,0.5,0.3,1.3,0.9,1.7
			c0.3,0.2,0.6,0.3,0.9,0.4c-0.5,0.9-1.3,1.4-2.5,1.4c-1.3,0-2.1-0.7-2.4-1.1c-0.5-0.5-0.7-1-0.7-1.4c0-0.7,0.4-1.1,0.8-1.5
			c0.5-0.5,1-1,1-2.1c0-1.4-0.8-2.3-1.9-3.5c-0.4-0.4-0.9-0.9-1.4-1.3c-1-0.9-2.1-1.9-2.9-3.1l-0.2-0.3l-0.1,0.1
			c-0.1,0.2-0.2,0.4-0.3,0.7c-1.4-1.1-2.6-2.7-3.2-4.2l-0.1-0.1l-0.1-0.3l-0.2,0.2c-0.1,0.1-0.2,0.2-0.3,0.4
			c-1.1-1.4-2.2-2.9-3.1-4.4c-1.3-2.1-2.4-4.1-3.1-5.4c-0.1-0.2-0.3-0.4-0.5-0.4c-0.2-0.1-0.5,0-0.7,0.2c-1.2,0.8-1.1,3.6-0.4,5.7
			c0.1,0.3,0.2,0.6,0.4,0.9c0.7,1.3,1.9,3.1,3.3,4.8c-0.9-0.8-1.8-1.6-2.5-2.2c-0.8-0.7-2.3-2.2-2.8-2.8c-0.1-0.1-0.3-0.2-0.3-0.2
			c-0.1,0-0.2,0.1-0.3,0.2c-0.6,0.9-0.6,2.4,0,3.7c0.4,0.9,1.1,1.8,2.1,2.7l-0.2-0.1c-0.9-0.3-2.9-0.9-3.3-0.5
			c-0.5,0.1,0.1,1.9,0.6,2.8c0.5,0.8,1.2,1.4,1.9,1.9c-0.3-0.1-0.5-0.1-0.7-0.2c-1-0.2-3-0.3-3.3,0.2c-0.2,0.4,0.5,1.6,1.3,2.4
			c0.8,0.8,2.1,1.4,3.5,1.9c-0.5-0.1-0.9-0.1-1.3-0.1c-0.9,0-3,0.3-3.2,0.8c-0.1,0.3,0.2,0.8,0.4,0.9c0.3,0.4,1.4,1.8,3.7,2.2
			c-0.1,0-0.2,0-0.3,0c-1.3,0.2-3,1-3,1.5c0,0.2,0.3,0.8,0.9,1.3c0.2,0.2,0.6,0.4,1,0.6l-0.1,0.1l-0.1,0.1v0.1l0.1,0.2l0,0l0,0
			c-0.1,0.1-0.2,0.2-0.2,0.3v0.2l0.1,0.1l0.2,0.2l0,0l-0.1,0.2v-0.1c0-0.1-0.2-0.2-0.3-0.1l0,0v-0.1v0.1h-0.1h-0.1l-0.1,0.1v0.1v0.1
			l0,0l0,0l-0.1-0.1h-0.1h-0.1h-0.1c-0.1,0-0.2,0.1-0.2,0.2l0,0v0.1l0,0v0.1c-0.2,0.1-0.2,0.3-0.2,0.4l0.1,0.1l0,0l-0.2-0.1h-0.2
			l-0.1,0.1c-0.1,0.1,0,0.2,0,0.3l0.1,0.1l-0.2,0.1v0.2l0.1,0.1v0.1v0.1l0.1,0.2l-0.1,0.1v0.1l0.2,0.2v0.1l0,0l0.1,0.1h0.1v0.1
			l0.2,0.1l0,0l0,0l0,0v0.1v0.1c0,0.1,0.1,0.2,0.2,0.2h0.1l0,0h0.1h0.1l0,0h0.1l0.6,0.6l0,0l0.1,0.1l0,0l0,0l0.1,0.4l0.1,0.1
			l0.1,0.1v0.2l0,0l0.1,0.1l0.1,0.1h0.1h0.2l0,0l0.1,0.1h0.1l0.2-0.1v-0.1v-0.1v-0.1l0,0l0,0l0,0l0,0v-0.1l0,0l0,0l0.1-0.1v0.1
			l0.1,0.1v0.2v0.1l0,0l0.1,0.1l0,0l0,0l0,0l0.1,0.1h0.1l0,0l0,0h0.3l0.1-0.1h0.2c-0.2,0.2-0.2,0.4-0.2,0.7c0,0.5,0.3,0.9,0.8,1
			c-0.1,0.4,0,0.7,0.6,0.8l4.6,11c-0.2,0.5,0,1,0.4,1.1c-0.1,0.1-0.2,0.2-0.2,0.5c0.2-0.1,0.4-0.1,0.6,0.2c0.1,0.3-0.4,1.1,0.3,1.7
			c-0.1,0.5,0.2,1,0.7,1.2c0,0.3,0.2,1.1,0.3,1.4c-0.3,0.4-1.1,1.1-1,1.9c0.1,0.5,0.3,0.7,0.7,0.9c-0.2,1,0.4,1.4,1.2,1.5
			c0,0.7,0.7,1,1.1,1c0.4,0.3,0.6,0.5,1,0.7c-0.4,0.5-0.1,1.2,0.7,1.4c0.1,0.3,0.3,0.6,0.8,0.7c0.3,0.4,0.7,0.5,1,0.3
			c0.2-0.1,0.5-0.6,0.2-1c0.2-0.2,0.1-0.6,0-0.9c0.3-0.5,0-1.1-0.3-1.3c0-0.3-0.1-0.7-0.2-0.9c0.6-0.4,1.4-0.9,1.7-1.1
			c1.6-1.1,3.3-2.1,5.3-2.2c0.5,0,1.4-0.1,1.9,0c0.8,0.1,1.9,0.3,2.6-0.2c0.2-0.1,0.3-0.3,0.3-0.6c-0.1-0.5-0.6-0.9-0.8-1.4
			c0-0.1-0.1-0.3-0.2-0.4c0.3,0.1,0.6,0.2,0.9,0.2c0.8,0,1.8-0.8,1.8-1.9l-0.3,0c-0.4,0.2-1.2,0.2-1.7-0.1c-0.4-0.3-0.6-0.7-0.6-1.2
			c0-1.3,1.1-2,2.2-2c1.4,0,3.2,1.3,3.2,3.3c0,1-0.6,1.4-1.3,1.8c-0.6,0.4-1.3,0.8-1.4,1.7c-0.1,0.4,0,0.8,0,0.8s0.3-0.4,0.6-0.6
			c0.3-0.2,0.7-0.4,1.3-0.4c0.2,0,0.3,0,0.5-0.1c-0.7,0.6-1.6,1.1-2.7,1.5c-1.3,0.6-2.3,1.3-3.1,1.9c-0.8,0.6-1.4,1-1.9,1
			c-0.4,0-0.6-0.2-0.7-0.4c-0.2-0.3-0.1-1.3,0.3-1.5c-0.1,0-0.4,0-0.6,0.1c-0.6,0.2-1.6,0.9-1.6,2.1c0,0.5,0.2,1.2,1,1.6
			c-0.4,0.2-0.8,0.4-1.1,0.8c-0.4,0.4-0.5,0.9-0.5,1.5c0,0.2,0,0.3,0,0.5c0.1,0.6,0.4,1,0.7,1.4c0.2,0.3,0.4,0.6,0.4,0.9
			c0,0.1,0,0.2,0,0.3l-0.1,0.3l0.3-0.1c0.7-0.2,0.9-0.8,1-1.4c0.1-0.4,0.2-0.8,0.5-1v0.2c0,0.8,0.2,1.5,0.7,2c0.5,0.6,1.3,1,2.1,1
			c0.9,0,1.5-0.5,2-0.8h0.1c0.2,0.5,0.4,0.9,0.8,1.3c-0.1,0.2-0.1,0.4-0.1,0.7c0,0.1,0,0.2,0.1,0.3l0,0c0,0,2,5.3,2,8.4l0,0
			c-0.9,0.2-1,1.1-1,1.1s0,1,1,1.1l0,0c-0.7,0.7-2.4,2.3-2.3,3.6c0,0.4,0.2,0.7,0.7,1c0.6,1.7,1.8,6.6,1.5,17.5v23.3
			c-1,0.1-1,1.1-1,1.1s0,1,1,1.1v0.7c-1,0.1-1,1.1-1,1.1l0,0c0,0,0,1,1,1.1v0.4c0,0.2-0.1,0.3-0.1,0.4c-0.5-0.2-1-0.3-1.5-0.5
			c-0.2-0.1-0.4-0.2-0.5-0.3h-0.6c-0.1,0.2-0.1,0.4-0.2,0.7c-0.5,0.2-1,0.5-1.5,1c-0.1,0.2-0.2,0.4-0.3,0.7
			c-0.2,0.7,0.3,1.3,0.9,1.3h0.3c0,0.1,0,0.2,0.1,0.3c0,0.2,0.1,0.4,0.4,0.5c0.1,0.1,0.3,0.1,0.2,0.3l0.2,0.1c0.3,0,0.4,0.1,0.4,0.4
			c0,0.1,0.1,0.3,0,0.4c0,0.1-0.1,0.3-0.2,0.3c-0.1,0-0.3-0.1-0.3-0.2c-0.1-0.4-0.5-0.6-0.8-0.9c-0.1-0.1-0.3-0.1-0.4-0.1
			c-0.2,0.1-0.3,0.2-0.5,0.3c-0.2,0.2-0.2,0.3,0,0.5c0.2,0.2,0.3,0.3,0.5,0.5l0,0c-0.1-0.2-0.3-0.3-0.4-0.5l-0.1-0.2
			c0.1-0.3,0.3-0.4,0.5-0.4c0.2-0.1,0.3,0,0.4,0.2c0.2,0.3,0.5,0.5,0.6,0.9c0.1,0.3,0.4,0.2,0.5,0c0.3-0.5,0-1.1-0.5-1.2
			c-0.1-0.1-0.2-0.2-0.3-0.3c-0.3-0.1-0.4-0.3-0.4-0.6c0-0.1,0-0.2-0.1-0.3c-0.2,0-0.4,0-0.6,0c-0.1,0-0.2,0-0.3-0.1
			c-0.4-0.3-0.5-1.3-0.1-1.7s0.9-0.8,1.4-1c0.1-0.1,0.2-0.1,0.2-0.3c0-0.1,0-0.2,0-0.3h0.1v0.1c0,0.9,0.1,1.7,0.7,2.5
			c0.1,0.2,0.2,0.5,0.3,0.7l0.1,0.2h0.1c0-0.1,0-0.2,0-0.3c-0.1-0.4-0.2-0.8-0.3-1.2c-0.1-0.3,0-0.6-0.2-0.8
			c-0.3-0.3-0.1-0.6,0.1-0.9c-0.1,0.3,0.1,0.1,0.2,0.2c-0.1,0-0.2,0.1-0.3,0.1c0.1,0.1,0.3,0.2,0.4,0.3c0-0.3,0.1-0.3,0.3-0.4
			c0.1,0,0.2,0,0.4,0v0.1c-0.1,0-0.2,0-0.3,0l-0.2,0.2l0.1,0.2c-0.1,0.3,0.2,0.4,0.4,0.5c0.2,0.2,0.4,0.3,0.6,0.5
			c0.2,0.2,0.3,0.5,0.4,0.7v1.2c0,0.1,0,0.2-0.1,0.3c0,0.2-0.1,0.3,0,0.4c0.1,0.1,0,0.2,0,0.3c-0.1,0.1-0.2,0.3-0.3,0.4v0.3
			c0,0.1,0,0.2-0.1,0.3c-0.3,0.2-0.5,0.3-0.8,0.5c-0.5,0.3-0.7,0.7-0.6,1.3v0.2c-0.3-0.2-0.6-0.4-0.8-0.6l-0.2-0.1l-0.1-0.1
			c-0.1-0.3-0.3-0.3-0.6-0.4c-0.1,0-0.2-0.2-0.3-0.3l0.1-0.2c0.1-0.1,0.1-0.2,0.1-0.2l-0.1,0.1v0.1c-0.1,0.1-0.3,0.2-0.2,0.4
			c0.1,0.2,0.2,0.5,0.5,0.4c0.2,0,0.3,0.1,0.4,0.2c0.1,0.2,0.3,0.3,0.5,0.5c0.4,0.3,0.4,0.3,0.3,0.8c-0.3,0-0.5-0.1-0.8-0.1
			c-0.2,0-0.5-0.1-0.7,0c-0.4,0-0.8,0.1-1.2,0.2c-0.5,0.1-0.7,0.4-0.9,0.8c-0.1,0.2-0.2,0.3-0.3,0.5v0.3c0.1,0.3,0.3,0.6,0.4,0.8
			c-0.3,0.3-0.7,0.6-1.1,1c-0.2,0.2-0.5,0.3-0.8,0.4c-0.4,0.1-0.7,0.2-0.9,0.5c-0.2,0.4-0.5,0.5-1,0.4c-0.8-0.2-1.5-0.3-2.3-0.5
			c-0.7-0.2-1.4-0.4-2.1-0.7c-0.1,0-0.2,0-0.3-0.1v-0.1c0-0.1,0-0.2,0-0.3c-0.1,0-0.2,0-0.3,0c-0.3,0.1-0.5,0.1-0.7-0.2
			c-0.2-0.3-0.7-0.3-0.9-0.1c-0.4-0.2-0.7-0.3-1.1-0.5l-0.3,0.1c-0.1,0.1-0.2,0.1-0.3,0.2c-0.2-0.1-0.3-0.2-0.5-0.3
			c-0.2-0.1-0.5-0.2-0.7-0.3s-0.3-0.1-0.5,0c-0.1,0.1-0.2,0-0.3,0c-0.1,0-0.2,0-0.3,0c-0.2,0.1-0.3,0-0.4-0.1
			c-0.1-0.1-0.2-0.2-0.3-0.3c-0.2-0.3-0.5-0.4-0.9-0.4c-0.2,0-0.4,0-0.6-0.1c-0.1,0-0.2-0.1-0.3-0.2c-0.3-0.1-0.5-0.2-0.8-0.2
			c-0.2,0-0.3,0-0.5,0c0.2-0.4-0.2-0.5-0.4-0.7c0.1-0.3,0-0.4-0.3-0.4s-0.5,0-0.8,0l-0.2,0.2c-0.2,0.3-0.3,0.5-0.5,0.8l0.1,0.1
			c-0.2,0-0.5,0-0.7,0s-0.3,0-0.5,0.1c-0.3,0.2-0.6,0.3-1,0.2c-0.2,0-0.4,0.1-0.6,0.3c-0.1,0.2-0.2,0.3-0.3,0.5
			c-0.1,0.1-0.2,0.2-0.3,0.3c-0.2,0.1-0.3,0.2-0.4,0.4c-0.1,0.2-0.2,0.4-0.4,0.6c-0.4,0.5-0.8,1.1-1.3,1.6l-0.1,0.1
			c-0.1,0.3-0.2,0.6-0.6,0.8C-229.4,487.29-230.4,488.29-230.4,488.29 M-228.3,487.09c0.2,0,0.2-0.2,0.3-0.3c0.3-0.3,0.5-0.7,0.8-1
			c0.1-0.1,0.3-0.2,0.5-0.2c0.2-0.1,0.5-0.1,0.7-0.2h-0.2c-0.2,0-0.5,0-0.7-0.1c-0.3-0.1-0.5,0-0.6,0.2c-0.3,0.4-0.6,0.7-0.9,1.1
			l0.1-0.2c0.2-0.4,0.5-0.8,0.8-1.1c0.3-0.3,0.6-0.8,0.8-1.1c0.1-0.1,0.1-0.3,0.2-0.4c0.2,0.1,0.4,0.1,0.6,0c0.2-0.1,0.5,0,0.7,0
			h0.1l-0.2-0.2c-0.2-0.1-0.2-0.2,0-0.3c0.3-0.2,0.5-0.1,0.8,0h0.1c0.1-0.1,0.1-0.2,0.2-0.3h-0.1c0.3-0.3,0.7-0.4,1.1-0.1
			c0.1,0.1,0.3,0,0.4-0.3l0,0l0,0c-0.2-0.1-0.1-0.2,0-0.3c0.1-0.2,0.2-0.3,0.4-0.5l0.1-0.1l0,0c-0.1,0.1-0.1,0.2-0.2,0.3
			c0.2,0,0.3,0,0.5,0s0.2,0,0.3,0.2c-0.2,0-0.4,0-0.6,0c-0.3-0.1-0.4,0.1-0.5,0.4l0,0l0,0c0.2,0,0.4,0,0.6,0.1
			c0.2,0,0.3,0.1,0.3,0.4c-0.1,0.3-0.1,0.6,0.2,0.7c0-0.1,0-0.2,0-0.3c0.3,0.2,0,0.3,0,0.3c0.3,0.3,0.5,0.5,0.8,0.7
			c0.2,0.2,0.4,0.2,0.6-0.1c0.1,0.2,0.3,0.4,0.4,0.6c0.1,0.1,0.2,0.2,0.4,0.1c0.4-0.1,0.6,0.1,0.9,0.3v0.1c0.4,0.2,0.6,0.6,1.1,0.5
			l0.1,0.1h0.2c-0.1-0.2-0.1-0.4-0.3-0.3l-0.1-0.1l0.1-0.3c0.3,0,0.6,0.1,0.9,0.1c-0.2,0.1-0.4,0.2-0.7,0.3c0.2,0.1,0.3,0.1,0.2,0.3
			c0.2,0.1,0.3,0,0.4-0.2v0.2c0.1,0,0.2,0,0.4,0v0.1c-0.1,0-0.2,0.1-0.4,0.1c-0.1,0-0.3,0-0.3,0.2c-0.2,0-0.4,0-0.5-0.1
			c-0.2-0.2-0.4-0.3-0.7-0.2c-0.1,0-0.3,0-0.5,0l-0.1-0.1c-0.1-0.1-0.3-0.1-0.4-0.2l-0.2,0.1c-0.1,0.1-0.1,0.2-0.1,0.3
			c0.1,0,0.3,0,0.4,0c0.3-0.1,0.4,0,0.5,0.3l0.1,0.2c0.1,0.1,0.2,0.2,0,0.3l-0.1,0.2c0.1,0,0.2,0,0.3,0h-0.1c0-0.1,0.1-0.2,0.1-0.3
			c0.1,0.1,0.2,0.3,0.3,0.4s0.2,0.1,0.1,0.2l0.3,0.1c0.3-0.2,0.4,0,0.7,0.1h-0.2c0,0.3,0.2,0.3,0.3,0.4c-0.2,0-0.2,0.3-0.1,0.3
			c0.1,0.1,0.1,0.3,0.3,0.4c0.2,0.1,0.3,0.2,0.5,0.3l0.1,0.2c0,0.2,0,0.3,0,0.5c0-0.1-0.1-0.3-0.1-0.5c-0.2,0.3,0.1,0.5,0,0.8
			c-0.1,0.1-0.2,0.1-0.4-0.1h0.3c-0.1-0.3-0.5-0.3-0.7-0.5c-0.1,0-0.3,0.1-0.5,0.2v0.1c0.1,0,0.3,0,0.4-0.1c0,0.2-0.1,0.3,0,0.3
			c0.1,0.1,0.2,0.1,0.3,0.2l0.2,0.1l-0.1,0.1c0.1,0.3,0.4,0.5,0.7,0.6c0.2,0,0.4,0,0.5,0l0.1-0.1l-0.2-0.2h-0.2
			c-0.1,0.1-0.2,0.1-0.3,0.1c-0.2-0.1-0.4-0.3-0.6-0.4c0.2,0.1,0.3,0.2,0.5,0.2h0.3c0.2-0.1,0.4-0.1,0.6,0.1l0.1,0.1
			c0.1-0.2,0.2-0.1,0.3,0c0.1,0.1,0.2,0.1,0.3,0.2v-0.1c-0.1-0.1-0.3-0.2-0.4-0.4c-0.1-0.1-0.2-0.3-0.3-0.5c0,0.2-0.1,0.4-0.1,0.6
			c-0.1-0.3-0.1-0.5-0.4-0.6c0.1,0,0.2,0.1,0.3,0.1l0.1-0.1c0-0.1,0-0.1,0.1-0.2c0-0.1-0.1-0.2-0.1-0.3c-0.2-0.4-0.5-0.7-0.8-0.8
			c-0.2-0.1-0.3-0.3-0.5-0.2c-0.1,0-0.2-0.1-0.4-0.2v-0.1h0.1v-0.3c0.1,0.1,0.1,0.2,0.2,0.2h0.7c0.3-0.1,0.3,0.3,0.6,0.2l0.2,0.2
			c0.1,0.1,0.2,0.3,0.4,0.4h0.1c0-0.1,0-0.3-0.1-0.4c-0.1-0.2,0-0.5-0.4-0.7c-0.1,0-0.1-0.3-0.1-0.4c-0.1,0-0.2,0.1-0.4,0.1l0.1-0.2
			l0,0c-0.2,0.1-0.4,0.2-0.6,0.3l0,0c0.1-0.1,0.3-0.3,0.4-0.4c0.1-0.1,0.2-0.1,0.3-0.1s0.2-0.1,0.1-0.2c-0.1,0-0.2,0-0.3,0v-0.2
			h-0.2v-0.4c0.4,0.2,0.6-0.2,0.9-0.3c0.2,0.3-0.1,0.6-0.1,0.9l0.1,0.1c-0.1,0.2-0.2,0.3-0.3,0.4l0,0c0.2-0.1,0.4-0.2,0.6-0.3
			c0.1,0.4,0.2,0.7,0.2,1.1c0,0.1,0,0.2,0,0.3c0,0.2,0.2,0.2,0.3,0.1c0.1-0.1,0.2-0.1,0.3-0.1c0.4,0.1,0.6-0.2,0.9-0.3
			s0.5-0.3,0.8-0.2c-0.1,0.2-0.5,0.5-0.7,0.4c0,0.1,0,0.2,0,0.3h0.1c0.2-0.2,0.4-0.1,0.6,0.1c0.3,0.2,0.6,0.1,0.9,0.2
			c0.2,0,0.4,0,0.6,0.1s0.4,0.2,0.6,0.3c-0.1,0.1-0.2,0.1-0.3,0.2c0.4,0.4,1,0.5,1.1,1.2h0.1v-0.2c0-0.2,0.2-0.3,0.3-0.1
			c0.2,0.2,0.4,0.3,0.3,0.7l0.1,0.1c0.2,0.1,0.3,0.4,0.2,0.6c-0.2,0.4-0.5,0.7-0.8,0.9c0.1-0.3,0.1-0.6,0.2-1
			c-0.3,0-0.4,0.2-0.4,0.4c0,0.3-0.2,0.5-0.3,0.7c-0.3,0.4-0.6,0.6-0.9,0.9c-0.1,0.1-0.2,0.2-0.3,0.3c-0.1,0.2-0.3,0.4-0.6,0.5
			c-0.3,0-0.3,0.2-0.1,0.5c-0.1,0-0.3,0-0.4,0s-0.3,0-0.4,0.1c-0.1,0-0.2,0.1-0.3,0.2c0.2,0.3,0.4,0.5,0.7,0.5c0,0,0,0.3,0.1,0.3
			c-0.1,0-0.1,0.1,0.1,0.3c0.1,0.1,0.1,0.2,0.1,0.3c-0.3,0.2-0.5,0.2-0.8,0.1s-0.6-0.1-0.8,0.1c-0.2-0.2-0.4-0.4-0.6-0.6
			c0.2-0.1,0.4-0.3,0.6-0.4v-0.1c-0.2,0.1-0.4,0.1-0.5,0.2c-0.2,0.2-0.5,0.1-0.7,0.1s-0.2,0-0.2,0.1v0.2c0,0.3-0.1,0.3-0.4,0.3
			c-0.6-0.2-1.2-0.4-1.8-0.6c-0.8-0.2-1.3-0.8-1.7-1.5l-0.2-0.2l-0.1,0.1c0.2,0.3,0.4,0.6,0.7,0.9c0.4,0.5,0.9,0.8,1.4,1
			c0.5,0.2,1,0.4,1.6,0.5l0.2,0.1c0.4,0.3,0.9,0.4,1.4,0.5c-0.5,0.1-1,0.2-1.5,0.3c-0.8,0.2-1.7,0.4-2.5,0.5c-0.3,0.1-0.6,0-0.9,0.1
			c-0.3,0-0.6,0-0.9,0.1c-0.1,0-0.2,0.1-0.3,0.1c-0.4,0.3-0.9,0.3-1.4,0.1c-0.1,0-0.2-0.1-0.3-0.1c-0.2-0.1-0.5-0.3-0.8-0.1h-0.2
			c0.2-0.5,0.3-1.1,0.5-1.6c0.1-0.3,0.3-0.5,0.6-0.5c0.4-0.1,0.9-0.1,1.4,0c-0.2,0.1-0.3,0.2-0.5,0.3v0.1c0.2-0.1,0.4-0.1,0.6-0.2
			l0,0c-0.1,0.2-0.3,0.4-0.4,0.6h0.2c0.1-0.1,0.1-0.2,0.2-0.4l0.3-0.6h0.1c0-0.1,0-0.2-0.1-0.4c-0.3,0-0.7,0.1-1,0
			c-0.4,0-0.7-0.1-1.1-0.2l-0.2-0.2c0-0.2,0.1-0.2,0.2-0.2c0.5,0,1,0.1,1.5,0.1c0,0.1,0,0.2,0,0.3h0.1c0.1-0.1,0.1-0.2,0.2-0.3
			c0,0,0.1,0.1,0.2,0.2c0-0.2,0-0.3,0-0.4c0.1,0,0.2,0,0.3,0v-0.1l-0.3-0.1c-0.3-0.2-0.6-0.4-1-0.5l-0.2-0.2
			c-0.1-0.2-0.3-0.3-0.5-0.2c-0.1-0.4,0-0.5,0.3-0.8c0.1,0.2,0.3,0.3,0.3,0.6l0.2,0.2c0.4,0.2,0.7,0.4,1.1,0.6v-0.7
			c-0.1,0-0.2,0-0.3,0c0-0.3-0.1-0.5-0.4-0.7c-0.3-0.2-0.3-0.5-0.3-0.9c0.4,0.1,0.4,0.1,0.4-0.3c0-0.2,0.1-0.5,0.1-0.7
			c-0.1,0-0.2,0-0.3,0v0.1c-0.1,0-0.2,0.1-0.4,0.2v-0.2c-0.5-0.1-0.5-0.4-0.4-1c0.1-0.2,0.1-0.4-0.2-0.5c0-0.1,0-0.1,0.1-0.2
			l-0.2-0.2v-0.1c0.2,0,0.4,0,0.6,0c0.1,0,0.2,0,0.2-0.2c0-0.2,0.1-0.5,0.3-0.6c0.2-0.2,0.3-0.7,0.1-0.9c-0.2,0.1-0.5,0.2-0.7,0.3
			h-0.3c-0.4,0.2-0.9,0.4-1.4,0.5l-0.1,0.2c0.1,0.2,0.2,0.5,0.5,0.5c0.2,0,0.2,0.1,0.1,0.2c-0.1,0.4-0.1,0.8-0.3,1.2l-0.1,0.1
			c-0.2,0.1-0.5,0.1-0.7,0.2c-0.3,0.1-0.4,0-0.6-0.2c-0.1-0.1-0.3-0.2-0.5-0.3c-0.5-0.2-0.9-0.4-1.3-0.6c-0.3-0.2-0.6-0.2-0.9-0.1
			c-0.5,0.1-0.9-0.2-1.2-0.4c-0.1-0.1-0.1-0.3,0-0.5c0.1-0.2,0.2-0.3,0.3-0.5c0.1-0.2,0.2-0.3,0.3-0.5c0.2-0.3,0.6-1.2,0.6-1.2
			l0.1-0.2c0.3-0.1,0.3-0.3,0.4-0.5c0.2-0.4,0.4-0.7,0.8-0.9c0.4-0.2,0.8-0.3,1.2-0.4c0.2,0,0.5-0.2,0.7-0.3
			c0.2-0.1,0.4-0.2,0.7-0.3l0.2,0.1c0.2,0.2,0.3,0.3,0.5,0.4c0.1,0.1,0.2,0.3,0.3,0.5c0.1,0.2,0.1,0.3,0.1,0.5
			c0,0.2,0.2,0.3,0.3,0.2c-0.1,0.2,0,0.4,0.2,0.4c0.2,0.1,0.4,0.1,0.6,0.2c0.1,0.1,0.1,0.2,0.2,0.4v-0.2c-0.1-0.2-0.3-0.4-0.6-0.4
			c0-0.1,0-0.1,0-0.2c-0.1,0-0.2,0.1-0.2,0.1l-0.2-0.1c0.1-0.1,0.2-0.2,0.3-0.3c-0.2,0-0.5,0.3-0.6-0.1c0-0.2,0.4-0.1,0.3-0.3h0
			c0-0.1,0.1-0.2,0.1-0.3c0.2,0.3,0.4,0.6,0.5,0.8c0.2,0.2,0.4,0.4,0.6,0.7c0.1,0.1,0.2,0.2,0.2,0.3c0,0.2,0,0.3,0.1,0.4
			s0.2,0.3,0,0.4v0.1c0.4,0.7-0.1,1.2-0.3,1.7c-0.1,0.1-0.1,0.2-0.2,0.3c-0.3,0.4-0.2,0.9-0.3,1.3l0.1,0.2l0.1-0.1
			c0-0.3,0.2-0.6,0-0.9c0-0.1,0.1-0.2,0.1-0.3c0.3-0.5,0.7-1.1,1.2-1.5c0.2-0.2,0.4-0.5,0.3-0.8c-0.1-0.2,0-0.4-0.1-0.6
			c0-0.1-0.1-0.2-0.3-0.3c0.1-0.1,0.3-0.1,0.4-0.2v-0.1c-0.1,0-0.3,0-0.4,0l-0.2-0.1c-0.2-0.2-0.4-0.4-0.6-0.6l-0.1-0.2
			c-0.2-0.3-0.3-0.7-0.5-1c-0.1-0.1-0.2-0.2-0.3-0.1c-0.1,0.1-0.2,0.1-0.3-0.1l-0.2-0.1c-0.4-0.2-0.6-0.4-0.8-0.8l-0.2,0.1
			c0-0.1,0.1-0.3,0.1-0.4c-0.3-0.1-0.2,0.2-0.3,0.3c-0.2,0.2,0,0.3,0,0.5c-0.1,0-0.2,0-0.3,0.1c-0.6,0.2-1.2,0.3-1.7,0.5
			c-0.3,0.1-0.5,0.1-0.8,0.3c0.2-0.1,0.4-0.1,0.6-0.2l0,0c-0.3,0.2-0.6,0.4-0.8,0.6c0-0.1,0-0.2,0-0.4h-0.1
			c-0.1,0.2-0.2,0.3-0.4,0.5c-0.2-0.2-0.3-0.3-0.5-0.1c0.1,0.1,0.2,0.2,0.2,0.3c0,0.2,0,0.3-0.1,0.5c0,0.1-0.1,0.2-0.2,0.3
			c-0.1,0.1-0.1,0.2-0.2,0.3c0,0-0.2,0.9-0.4,1.1c-0.2,0.3-0.4,0.6-0.7,0.8c-0.3,0.2-0.6,0.3-0.9,0.5c-0.1-0.4,0.2-0.8-0.1-1.2
			c-0.1,0.3-0.1,0.6-0.1,0.9h-0.1c-0.2-0.3-0.2-0.7-0.6-0.8c0.4,1,0.5,1.9-0.3,2.9h1.1c0,0.1,0,0.2,0,0.2c0,0.4-0.1,0.4,0.4,0.6
			c0.2,0.1,0.4,0.1,0.6,0.2c0.3,0.1,0.4,0.3,0.4,0.7c0,0.3-0.1,0.6-0.2,0.9c0,0.3,0,0.5,0.2,0.8c0.1-0.3,0.2-0.6,0.2-0.9
			c0-0.2,0.1-0.4,0.2-0.5c0-0.2,0.1-0.2,0.3-0.1c0.2,0.1,0.4-0.1,0.5-0.3c0.1,0,0.2,0.1,0.3,0.1c0-0.1,0.1-0.3,0.1-0.3
			c0.1-0.1,0.3-0.1,0.4-0.1c0,0.2,0.1,0.3,0.1,0.5l0.2-0.2l0,0c0.1-0.1,0.2-0.1,0.3-0.2c0,0,0.1,0,0.2,0.1c0-0.1,0-0.2,0-0.2
			c0.1,0,0.3,0,0.4,0c0,0,0.1-0.2,0.1-0.3h0.2c0.1,0.1,0.1,0.2,0.2,0.3h0.1c-0.1-0.3,0.1-0.5,0.3-0.6c0,0.1,0.1,0.2,0.1,0.3h0.1
			c0-0.1,0-0.2,0-0.3c0.3,0,0.3,0.1,0.4,0.6c0-0.1,0.1-0.2,0.1-0.4c0.1-0.5,0.4-0.9,0.6-1.4c0.1-0.2,0.1-0.4,0.2-0.5l0.1-0.1
			l0.1,0.1c0.3,0.1,0.2,0.4,0.3,0.6c-0.4,0.2-0.3,0.5-0.3,0.8c0.1,0.4-0.1,0.7-0.2,1.1c-0.2,0.8-0.5,1.7-0.7,2.5
			c0,0.2-0.1,0.2-0.3,0.2c-0.2-0.1-0.3,0-0.3,0.2c0,0.3,0,0.6,0,0.9c0.1-0.3,0.2-0.5,0.3-0.8c0.3,1.3,0,2.4-0.7,3.5
			c0-0.4,0-0.7-0.4-0.9c0,0.3,0,0.5,0,0.8c0,0.2-0.1,0.4-0.2,0.6c-0.2,0.2-0.3,0.3-0.1,0.6c-0.5-0.1-0.9,0-1.2,0.3
			c-0.3,0.3-0.6,0.2-1,0.1c-0.1,0-0.3,0-0.5,0c-0.3,0.1-0.5,0.1-0.7,0c-0.4-0.2-0.8-0.1-1.2,0c-0.6,0.1-1.2,0-1.8-0.2
			c-0.3-0.2-0.5-0.5-0.6-0.8c-0.4-0.9-0.8-1.9-1.2-2.8c0-0.1-0.1-0.2-0.2-0.2c-0.3-0.1-0.6-0.2-0.9-0.4c-0.2-0.1-0.3-0.2-0.5-0.2
			h-0.2c-0.3,0-0.6,0-0.9,0l-0.2-0.2l-0.1-0.2c0.3,0,0.2-0.3,0.3-0.4l-0.2-0.1c0,0.3-0.1,0.3-0.3,0.2c-0.1-0.1-0.2-0.1-0.3-0.1
			c0,0.3,0.2,0.6,0.4,0.6c0,0.1,0,0.2,0,0.3c-0.4-0.1-0.7-0.3-1-0.4c-0.2-0.1-0.4-0.2-0.5-0.5c-0.4-0.2-0.4-0.3-0.4-0.8
			c0-0.1-0.1-0.3-0.1-0.4v-0.2c0-0.1,0-0.3,0-0.4l0.2,0.2l-0.2,0.1c0.1,0.1,0.1,0.2,0.2,0.4l0.2-0.1c0,0.1,0,0.1,0,0.3
			c0.1-0.2,0.2-0.3,0.3-0.4c0.1,0,0.2,0,0.3,0c0-0.1,0-0.3,0-0.4l0.4-0.1l0.1-0.2c-0.1,0-0.1,0-0.2-0.1c0.1-0.1,0.2-0.1,0.3-0.2
			c0.1,0.1,0.3,0.2,0.5,0.3c-0.2,0.1-0.3-0.3-0.5,0c0.1,0.1,0.2,0.1,0.4,0.2v-0.1l0.1,0.2c-0.1,0-0.2,0-0.4,0
			c0.1,0.3,0.2,0.2,0.4,0.2c-0.1,0.2-0.1,0.3-0.1,0.3c0.1-0.1,0.2-0.2,0.4-0.3c0,0-0.1-0.1-0.2-0.3l0.2-0.1l-0.1-0.1v-0.3l0.3-0.1
			c0.1,0.1,0.2,0.2,0.3,0.3l-0.1,0.1l-0.1-0.1h-0.2c0,0.2,0,0.3,0.1,0.5c0,0.1,0.2,0.2,0.3,0.3v0.1c-0.1-0.1-0.3-0.3-0.4,0
			c0.2,0.1,0.4,0.4,0.7,0.1v0.1c-0.1,0.1-0.1,0.3-0.2,0.4c0.1,0.1,0.1,0.3,0.2,0.5h0.1c0.1-0.2,0.1-0.4,0.2-0.6h0.2
			c0-0.1,0.1-0.3,0-0.3c-0.1-0.1-0.1-0.4-0.4-0.4l-0.1-0.1c-0.1-0.2-0.2-0.3-0.4-0.3c0-0.1-0.1-0.2-0.1-0.3c0.2,0,0.4,0,0.4-0.3
			l0.1-0.1c0.1-0.1,0.2-0.2,0.4-0.3c0.2,0.1,0.2,0.1,0.1,0.3c-0.2,0.4-0.2,0.7,0.1,1.1c0.1-0.3,0.1-0.6,0.2-0.9
			c0.2,0.1,0.3,0.2,0.2,0.4l0.1,0.2c0.1,0.1,0.2,0.1,0.3-0.1c0.1-0.2,0.3-0.3,0.4,0c0.1-0.1,0.2-0.2,0.2-0.3c0-0.2,0-0.4-0.1-0.7
			h-0.1c0,0.1-0.1,0.2-0.1,0.3c-0.1,0-0.2,0.1-0.3,0.1c-0.1-0.1-0.2-0.4-0.5-0.3l-0.1-0.2l-0.1,0.1c0-0.1,0.1-0.2,0.1-0.3
			c0.1,0,0.2,0,0.3,0c0.2,0,0.5,0.1,0.7,0.2v0.1c0,0.2,0.1,0.3,0.3,0.2c0.1,0.8,0.1,0.9,0.3,1.1c0-0.2,0-0.4,0.1-0.5h0.1
			c0,0.2,0,0.3,0,0.5c0.2,0,0.2,0,0.4-0.5l0.1,0.2c0,0.4-0.1,0.7-0.3,1c-0.4,0.6-0.8,0.8-1.3,0.9v0.1c0.3,0.2,0.6,0.3,1,0.2
			c0.2-0.1,0.5,0,0.8-0.1c0.3-0.1,0.7-0.1,1.1-0.2l0,0l0,0l0,0c0.2,0.3,0.2,0.3,0.5,0.2c0.2,0,0.4,0,0.5,0c0.4,0.1,0.8,0.2,1.2,0.3
			c0.3,0.1,0.4,0.2,0.5,0.5c0,0.4,0.1,0.8,0.1,1.1c0,0.2-0.1,0.3-0.2,0.3c-0.3,0-0.7,0-1,0c-0.4,0-0.7-0.2-1.1,0l-0.2-0.1
			c-0.1-0.1-0.1-0.2-0.1-0.3c-0.2,0.2-0.4,0.4-0.6,0.7l0.1,0.2c0.1-0.1,0.1-0.2,0.2-0.3c0.2,0.1,0.3,0.2,0.5,0.3
			c0.1,0.1,0.2,0.1,0.3,0.3c0.1,0.2,0.3,0.4,0.6,0.4c0.1,0,0.2,0.1,0.3,0.2c0.1,0.1,0.3,0.2,0.3-0.1l0.1-0.3c0.2-0.8,0.3-0.7,1-0.8
			c0.6-0.1,1.2-0.1,1.8,0l0.2-0.1c0.1-0.2,0.3-0.4,0.4-0.6c0.2-0.4,0.4-0.7,0.6-1.1v-0.3c-0.1-0.1-0.1-0.1-0.3-0.1
			c-0.2,0-0.4,0-0.6,0c-0.1,0-0.3-0.1-0.4,0c-0.5,0.1-0.7-0.2-1-0.6c-0.1-0.2-0.2-0.3-0.4-0.5c-0.1,0.2-0.1,0.4-0.1,0.6
			c0.2,0.1,0.4,0.2,0.5,0.3c-0.1,0.1-0.1,0.2-0.2,0.2c0.1,0.2,0.2,0.4,0.3,0.6c0.2-0.4,0.5-0.3,0.8-0.3s0.5,0.2,0.8,0.3
			c-0.5,0.5-1,0.5-1.6,0.7c0-0.2,0-0.3,0-0.4c0-0.1-0.1-0.2-0.2-0.3l-0.1,0.1c0,0.2,0,0.3,0.1,0.5c0.1,0.2,0.1,0.3-0.1,0.3
			c-0.1,0-0.1,0.1-0.3,0.1c0.1-0.5,0.1-0.9,0.1-1.3c0-0.2,0-0.3-0.2-0.4l-0.2-0.2c-0.1-0.2-0.3-0.3-0.6-0.3c-0.4,0-0.8,0-1.3-0.1
			c-0.3,0-0.5-0.2-0.6-0.5v-0.1c-0.1,0.1-0.1,0.2-0.2,0.3c-0.1-0.1-0.2-0.2-0.3-0.2c-0.1,0.1-0.2,0.3-0.3,0.3
			c-0.1,0.1-0.3,0.1-0.5,0.1s-0.4,0-0.5-0.3c0.3,0.1,0.6,0.3,0.9,0.1c-0.1,0-0.2-0.1-0.3-0.1c-0.2-0.1-0.3-0.1-0.4-0.3
			c0-0.3,0.1-0.5,0.3-0.6c0.1-0.1,0.1-0.1,0.1-0.3c0-0.2,0-0.3,0-0.5c0-0.1,0.1-0.3,0.2-0.3c0.3-0.3,0.3-0.9,0-1.1
			c-0.2-0.2-0.3-0.3-0.3-0.6c0-0.2-0.1-0.5-0.1-0.7c0-0.4-0.1-0.9,0.1-1.2C-230.1,487.99-228.3,487.09-228.3,487.09 M-204.1,385.79
			c-0.4,0.3-1.2,0.5-2.3,0.2l-0.5-0.2l0.3,0.4c0.1,0.1,0.2,0.3,0.3,0.4c-0.7,0-1.5,0.2-2.1,0.7c-0.5,0.4-1.2,1.1-1.4,2.3
			c-0.1,0.7,0,1.3,0.1,1.8c0.1,0.4,0.1,0.7,0.1,0.9c-0.1,0.7-0.5,1-0.9,0.9c-0.4-0.1-0.7-0.2-1.1-0.7c0.1,0.6,0.9,2,2.2,2
			c0.8,0,1.3-0.5,1.6-0.9c0.1,0.2,0.1,0.5,0.1,0.7c0,0.7-0.3,1.3-0.5,1.6l-0.2,0.3h0.4c0.9-0.1,1.4-0.7,1.7-1.1v0.1
			c0,0.1,0,0.2,0,0.4l-0.1,0.5l0.4-0.3c0.3-0.2,0.5-0.5,0.7-0.7c0.1,0.3,0.1,0.6,0.1,0.8l0,0c-0.4,0.3-0.8,0.5-1.5,0.8
			c-0.9,0.5-2.5,1.1-3.5,1.2c-0.7,0.1-2.1-0.3-2.4-1.4c-0.3-1-1.2-1.4-1.8-0.7c-0.2-0.1-0.7-0.2-0.9,0.1c0,0-0.2-0.5-0.5-0.7
			c0.2-0.5,0-1.2-0.5-1.4c-0.1-1-0.7-1-0.9-1.4c-0.1-0.2-0.1-0.5,0.2-0.5c-0.1-0.2-0.4-0.2-0.5-0.2c0.1-0.4,0-1-0.6-1.2l-4.3-8.9
			c1.2,0.4,2.2,0.3,2.7-0.3c0.7-0.8,1.9-2.1,2.9-3.3c0.1-0.1,0.2-0.3,0.3-0.4c0.6-0.7,1.2-1.3,1.4-1.6l0,0l-1.2,1.6l-0.2,0.3
			c-0.9,1.1-1.7,2.1-2.1,2.8c-0.7,1.2-0.3,1.9,0.1,2.5c0.1,0.2,0.3,0.4,0.3,0.6c0,0.1,0.1,0.2,0.2,0.1l0.5-0.1
			c0.7-0.1,1.5-0.2,2-1.1l1.6-3l1-1.9l0,0h0.1c-0.8,1.6-1.7,3.6-2.2,4.8c-0.3,0.8,0.1,1.4,0.6,1.9c0.2,0.2,0.4,0.5,0.5,0.7l0.1,0.1
			h0.2c0.4-0.2,0.7-0.3,1-0.4c0.4-0.1,0.8-0.2,1-0.6c0.4-0.8,1.2-3.9,1.6-5.2c0.1,0.1,0.1,0.2,0.2,0.4l-0.1,0.4
			c-0.3,1.1-0.6,2.2-0.4,3c0.1,0.6,0.5,0.9,0.9,1.2c0.2,0.2,0.5,0.3,0.7,0.6l0.1,0.1l0.1-0.1c0.2-0.2,0.5-0.4,0.7-0.5
			c0.4-0.3,0.8-0.5,1.1-1.1c0.2-0.4,0.2-1.8,0.2-3.4l0.1,0.2l0.1,0.2l0.2-0.2c0.2-0.2,0.4-0.3,0.7-0.4s0.7-0.3,0.9-0.7
			c0.1,0.2,0.3,0.3,0.4,0.3c0.9,2,0.9,3.9-0.1,5.5l-0.3,0.4l0.5-0.1c0.2-0.1,0.5-0.2,0.7-0.3
			C-203.3,385.09-203.6,385.49-204.1,385.79 M-215.1,490.09l-0.1,0.1c-0.1-0.1-0.2-0.2-0.3-0.3v-0.1
			C-215.4,489.89-215.3,489.99-215.1,490.09 M-216.7,487.19c-0.2,0-0.5,0-0.7-0.1c0-0.1,0-0.3,0-0.4l0,0l0,0
			c-0.1-0.1-0.2-0.2-0.4-0.4l-0.2,0.2l-0.1-0.2c0-0.1,0-0.2-0.1-0.3c0.1,0.1,0.2,0.1,0.3,0.1c0.4,0.1,0.4,0.1,0.5,0.5l0,0l0,0
			c0.1,0.1,0.2,0.2,0.3,0.3C-217,487.09-216.8,487.09-216.7,487.19L-216.7,487.19z M-216.2,486.69c0,0.1-0.1,0.3-0.1,0.4h-0.2
			c0-0.1,0.1-0.1,0.1-0.2h-0.6c0.2-0.1,0.4-0.1,0.6-0.2c-0.2-0.2-0.5,0.1-0.7-0.2c0.1-0.1,0.3-0.2,0.4,0.1c0.1-0.1,0.3,0,0.2-0.2
			C-216.3,486.39-216.2,486.49-216.2,486.69 M-224.5,490.79c-0.3,0-0.5-0.1-0.8-0.1v-0.1C-225,490.59-224.7,490.69-224.5,490.79
			L-224.5,490.79z M-221.3,489.39c-0.2,0-0.3-0.1-0.4-0.3c0.2-0.1,0.4-0.1,0.6-0.2c0.1,0,0.2-0.2,0.2-0.2c0.2-0.1,0.5-0.2,0.7-0.3
			c0.1,0,0.3-0.1,0.5-0.1c-0.2,0.3-0.3,0.6-0.5,0.8h-0.1C-220.6,489.49-221,489.39-221.3,489.39 M-233.2,491.79
			c0.2,0.1,0.5,0.2,0.7,0.3v0.1C-232.8,492.09-233,491.99-233.2,491.79L-233.2,491.79z M-234.6,491.79c0.2,0,0.3,0,0.3,0.2h-0.2
			c-0.1,0.2-0.2,0.3-0.3,0.4c0-0.2,0-0.4-0.1-0.5h-0.1c0,0.2,0,0.3-0.1,0.5c0.1-0.1,0-0.2,0.1-0.4
			C-235,491.89-234.8,491.89-234.6,491.79 M-236.2,491.79c0-0.2,0.3-0.3,0.5-0.3c0,0.3-0.6,0.1-0.3,0.5l-0.2,0.2l0.1,0.1
			c0.1,0,0.3-0.1,0.4-0.1v-0.2c-0.1-0.2,0.1-0.2,0.2-0.2c-0.2,0.2-0.1,0.3,0,0.5c0.1,0.1,0.2,0.3,0.4,0.4l0.1,0.1
			c-0.2,0-0.3,0.1-0.5,0.1v-0.2l0.1-0.1l-0.2-0.1c-0.1,0.1-0.1,0.2-0.2,0.3c-0.1-0.1-0.1-0.2-0.1-0.3l-0.2,0.2l-0.1,0.1l-0.2-0.3
			l-0.2,0.1v-0.1C-236.4,492.29-236.2,492.09-236.2,491.79 M-236.5,492.59c0,0.2,0,0.3,0.1,0.5c0.1,0.1,0.3,0.2,0.4,0.3
			c-0.1,0.1-0.2,0.2-0.3,0.2c-0.1-0.4-0.2-0.8-0.4-1C-236.6,492.59-236.5,492.59-236.5,492.59 M-199.5,347.79h-0.8
			c0.1,0,0.2,0,0.3,0c1.4-0.3,4.2-1.2,6-2.9c0.5,0,1,0,1.5,0l0,0c0.5,0,1,0,1.5,0c1.8,1.8,4.5,2.7,6,2.9c0.1,0,0.2,0,0.3,0h-0.8
			c-1.2,0-2,0-3-0.2c-0.2-0.1-0.4-0.1-0.6-0.3c0.1,0.2,0.2,0.3,0.3,0.5l0,0l0.1,0.1l0,0l0,0c0.7,0.7,1.5,1.2,2.6,1.5
			c-0.6,0.1-1.3,0-1.9-0.2l0,0c-0.2,0-0.3-0.1-0.5-0.2c0.1,0.2,0.2,0.3,0.3,0.4l0,0l0,0l0,0l0,0c0.4,0.4,0.8,0.7,1.3,0.9
			c-1,1-2.3,1.5-3.9,1.6c-0.2,0-0.4,0-0.7,0c0.1,0.1,0.2,0.2,0.4,0.4l0,0c0.4,0.3,1.1,0.4,1.7,0.5c-1.2,1.7-2.6,4.1-3.1,7.6l0,0
			c-0.5-3.5-1.9-5.9-3.1-7.6c0.6,0,1.3-0.2,1.7-0.5l0,0c0.2-0.1,0.3-0.2,0.4-0.4c-0.2,0-0.4,0-0.7,0c-1.6-0.1-2.9-0.6-3.9-1.6
			c0.5-0.2,0.9-0.5,1.3-0.9l0,0l0,0l0,0l0,0c0.1-0.1,0.2-0.3,0.3-0.4c-0.2,0.1-0.3,0.1-0.5,0.2l0,0c-0.6,0.2-1.3,0.2-1.9,0.2
			c0.9-0.3,1.6-0.6,2.1-1.1c0.2-0.1,0.3-0.3,0.4-0.4l0,0l0,0l0.1-0.1l0,0c0.1-0.1,0.2-0.3,0.3-0.5c-0.2,0.1-0.4,0.2-0.6,0.3
			C-197.4,347.79-198.3,347.79-199.5,347.79 M-199.7,483.89L-199.7,483.89c0,0.3-0.2,0.5-0.3,0.7c-0.1-0.1-0.2-0.1-0.3-0.2
			C-200,484.19-199.9,483.99-199.7,483.89 M-200.4,481.49c-0.1,0.2-0.4,0.3-0.7,0.2C-200.9,481.59-200.7,481.49-200.4,481.49
			 M-202.8,482.99c0-0.1,0.1-0.6,0.3-0.6h0.2c0.1,0.1,0.3,0.2,0.4,0.2c0.4,0.1,0.8,0.2,1.3,0.2c-0.5,0.5-1,0.7-1.5,1h-0.1
			C-202.5,483.59-202.7,483.29-202.8,482.99 M-207.4,490.59c0.1,0.3-0.2,0.4-0.3,0.6h-0.1C-207.6,490.99-207.5,490.79-207.4,490.59
			 M-210,493.59c0.7-0.4,1.3-1,2.1-1.3c0.8-0.4,1.7-0.7,2.4-1.3c0.2-0.2,0.5-0.3,0.8-0.4c0.5-0.1,0.9-0.1,1.4-0.2v0.1
			c0.1,0.5,0.2,1,0.3,1.5c0.2,0.6,0.5,1.1,1,1.4c0.5,0.2,1,0.4,1.5,0.7v0.5c-0.9,0-1.7-0.2-2.6-0.5c-0.9-0.3-1.8-0.6-2.7-0.7
			c-0.8-0.1-1.6,0-2.5,0c-0.2,0-0.4,0.2-0.6,0.3c-0.1,0.1-0.3,0.2-0.4,0.2C-209.4,493.79-209.7,493.69-210,493.59L-210,493.59z
			 M-209.9,496.59c-0.3-0.1-0.6-0.1-0.8,0.2h-0.1l-0.1,0.1c-0.1,0.2-0.2,0.1-0.3,0c-0.1-0.2-0.1-0.4-0.2-0.6
			c0.4,0.1,0.7,0.2,1.1,0.3c0-0.1,0-0.2,0-0.2l0.2-0.2c0.2,0.1,0.4,0.2,0.6,0.2C-209.5,496.59-209.7,496.59-209.9,496.59
			 M-199.5,497.79l-0.1,0.2l-0.2-0.1c-0.2-0.2-0.4-0.4-0.6-0.5c-0.8-0.7-1.7-1.2-2.7-1.1c-0.3,0-0.6,0-0.8,0.1
			c-0.6,0.1-1.2,0.1-1.8,0.2c-0.9,0.2-1.7,0.2-2.6,0c-0.4-0.1-0.7-0.1-1.1,0.1h-0.1c0.1-0.1,0.2-0.1,0.3-0.2
			c0.1-0.1,0.3-0.2,0.5-0.2c0.3,0,0.5,0.1,0.8,0.1c0.4,0,0.8,0.1,1.2,0.1v-0.1c-0.8-0.1-1.5-0.2-2.4-0.2c0.1-0.1,0.2-0.2,0.3-0.2
			l-0.2-0.1c-0.2-0.1-0.4-0.3-0.5-0.5c-0.1-0.2,0-0.3,0.2-0.3s0.4,0.1,0.6,0.1c0.1,0,0.3-0.1,0.4-0.1c0.2,0,0.2-0.1,0.2-0.2
			c0-0.1,0-0.2,0.2-0.2c0.5,0,1,0,1.5,0s0.9,0.2,1.4,0.2c0.3,0,0.6,0,0.9,0c0.5,0.1,1,0.3,1.5,0.4s1,0.1,1.5,0.2
			c0.4,0,0.4,0.1,0.3,0.5v0.1l0.1,0.2l0.2-0.1l0.2-0.2c0,0.1,0.1,0.2,0.1,0.3c0.1,0.1,0.1,0.3,0.3,0.4c0.3,0.1,0.5,0.5,0.4,0.8
			C-199.4,497.39-199.4,497.59-199.5,497.79 M-200.2,493.89c0.1,0.3,0.4,0.2,0.6,0.4c-0.2,0.1-0.5,0.1-0.7,0.2v-0.2
			c0-0.3-0.1-0.4-0.3-0.4c-0.3-0.1-0.7-0.3-1-0.4c-0.7-0.3-1.1-0.9-1.3-1.7c-0.1-0.5-0.2-1-0.4-1.6h-0.1c-0.4,0.2-0.9,0.3-1.4,0.3
			l-0.3,0.1c-0.4,0.3-0.8,0.6-1.2,0.8c-0.6,0.3-1.3,0.6-2,0.9l-0.1-0.1c0.1-0.1,0.1-0.3,0.2-0.4c0.5-0.6,1.1-1.2,1.5-1.9
			c0.1-0.2,0.3-0.4,0.4-0.5c0.3-0.1,0.6-0.2,0.9-0.3c0,0.1,0.1,0.3,0.1,0.4c-0.1-0.1-0.2-0.1-0.3-0.1h-0.1l0.3,0.8h0.1
			c0.2-0.4,0.4-0.7,0.6-1.1c0.1-0.1,0-0.2,0.2-0.2l0.2-0.1c0-0.2,0-0.3-0.1-0.5c-0.2-0.4-0.4-0.7-0.5-1.1c0.5-0.1,1-0.1,1.4-0.1
			c0.2,0,0.5,0.1,0.7,0.2c-0.1,0.2-0.1,0.3-0.2,0.4l0.1,0.1c0.7-0.5,1.3-1,1.9-1.4c0.1,0.1,0.2,0.2,0.4,0.2c0.2,0,0.2,0.1,0.2,0.2
			l-0.2,0.2l-0.3,0.2c-0.3,0.2-0.5,0.4-0.8,0.5c-0.7,0.3-1.3,0.7-1.6,1.5c0,0.1-0.1,0.2-0.1,0.3c0,0.5,0,1,0,1.5
			c0.1,0.9,0.5,1.7,1.2,2.4c0.2,0.2,0.5,0.4,0.8,0.3c0-0.2-0.1-0.3-0.2-0.3c-0.3-0.1-0.6-0.2-0.8-0.5c-0.1-0.2-0.3-0.4-0.4-0.6
			c-0.1-0.3-0.1-0.5-0.2-0.8c-0.1-0.4-0.3-0.8-0.1-1.2c0-0.1,0-0.2,0-0.3c0-0.2,0-0.4,0-0.6c0.3,0.3,0.2-0.1,0.3-0.2
			c0.1,0.1,0.3,0.2,0.5,0.3c0,0.4,0,0.9,0.5,1.1h-0.1c-0.3-0.1-0.3-0.1-0.3,0.2c0.1,0.4,0.2,0.7,0.3,1.1l0.2,0.1
			c0.2,0.1,0.4,0.2,0.5,0.4c0.2,0.1,0.1,0.6,0,0.7c-0.1,0.1-0.2,0.2-0.2,0.3c0,0.2,0.2,0.2,0.4,0.1h0.1c-0.1,0.1-0.2,0.1-0.3,0.2
			c0.3,0,0.5,0.1,0.6,0c0.2-0.1,0.3,0,0.4,0c0.2,0.1,0.3,0.1,0.5,0c0.3-0.2,0.6-0.4,0.9-0.6c0-0.1-0.4-0.1-0.2-0.4
			c0.1-0.1,0.3-0.1,0.4-0.2c0,0.5,0.1,0.9,0.1,1.2c0,0.2-0.1,0.4-0.3,0.4c-0.2,0.1-0.5,0.1-0.7,0.1
			C-199.4,493.99-199.8,493.99-200.2,493.89 M-197.4,501.59c-0.6-0.1-1.1-0.3-1.5-0.7c-0.4-0.5-0.4-1-0.4-1.6c0-0.3,0.3-0.4,0.5-0.4
			c0.4-0.1,0.4-0.1,0.6,0.2h0.2c0.1,0,0.2,0.2,0.4,0.1c0.2,0,0.4,0,0.6,0c0,0.2-0.1,0.4,0,0.6c0,0.2,0,0.3,0.1,0.4v1.5
			C-196.9,501.69-197.1,501.59-197.4,501.59 M-189.1,428.49v0.7h-1.2l0.1,39.2h1.2v0.7h-7.4v-0.7h1.4v-39.2h-1.4v-0.7H-189.1z
			 M-183.7,377.69v6.6c0,1-0.4,2.6-3,2.6h-2.4h-0.4c-1.1,0-2.6,0.9-3.1,2.5c-0.5-1.6-2-2.5-3.1-2.5h-0.4h-2.4c-2.6,0-3-1.6-3-2.6
			v-6.6v-9.5h8.9h8.9C-183.7,368.19-183.7,377.69-183.7,377.69z"/>
	</g>
	<g style="display:none;">
		<defs>
			<rect id="SVGID_7_" x="-237" y="330.19" width="120.8" height="180.7"/>
		</defs>
		<clipPath id="SVGID_8_" style="display:inline;">
			<use xlink:href="#SVGID_7_"  style="overflow:visible;"/>
		</clipPath>
		<path style="display:inline;clip-path:url(#SVGID_8_);fill:#DBB878;" d="M-172.1,497.59L-172.1,497.59l-0.9,0.1
			c-0.1-0.2-0.3-0.4-0.6-0.9c-0.3-0.4-0.5-0.7-0.6-0.7s-0.2-0.1-0.3-0.1v1c0,0.2,0,0.4,0.1,0.4c0.1,0.1,0.2,0.1,0.4,0.1v0.1h-1.5
			v-0.1c0.2,0,0.3,0,0.4-0.1c0.1-0.1,0.1-0.2,0.1-0.4v-2.1c0-0.2,0-0.4-0.1-0.4c-0.1-0.1-0.2-0.1-0.4-0.1v-0.1h1.5v0.1
			c-0.2,0-0.3,0-0.4,0.1c-0.1,0.1-0.1,0.2-0.1,0.4v0.9c0.2,0,0.3,0,0.4,0l0.2-0.2c0.1-0.1,0.2-0.2,0.2-0.3c0.1-0.1,0.1-0.2,0.2-0.5
			c0.1-0.2,0.1-0.3,0.2-0.4c0-0.1,0.1-0.1,0.2-0.2c0.1-0.1,0.2-0.1,0.4-0.1c0.3,0,0.4,0.1,0.4,0.3l-0.1,0.2l-0.2,0.1
			c0,0-0.1,0-0.2-0.1c-0.1,0-0.2-0.1-0.2-0.1l-0.1,0.1c0,0.1-0.1,0.2-0.2,0.4c-0.2,0.4-0.4,0.7-0.6,0.8c0.2,0,0.4,0.2,0.6,0.6
			c0.3,0.4,0.5,0.7,0.6,0.8C-172.5,497.49-172.3,497.59-172.1,497.59"/>
	</g>
	<g style="display:none;">
		<defs>
			<rect id="SVGID_9_" x="-237" y="330.19" width="120.8" height="180.7"/>
		</defs>
		<clipPath id="SVGID_10_" style="display:inline;">
			<use xlink:href="#SVGID_9_"  style="overflow:visible;"/>
		</clipPath>
		<path style="display:inline;clip-path:url(#SVGID_10_);fill:#DBB878;" d="M-169.9,494.29c0.4,0,0.8,0.2,1.1,0.5
			c0.3,0.3,0.5,0.7,0.5,1.2s-0.2,0.9-0.5,1.3c-0.3,0.3-0.7,0.5-1.2,0.5s-0.9-0.2-1.2-0.5c-0.3-0.3-0.5-0.8-0.5-1.3s0.2-1,0.5-1.3
			C-170.7,494.39-170.3,494.29-169.9,494.29 M-169.9,494.39c-0.3,0-0.5,0.1-0.7,0.3c-0.2,0.3-0.3,0.7-0.3,1.2s0.1,1,0.4,1.3
			c0.2,0.2,0.4,0.3,0.7,0.3s0.6-0.1,0.8-0.4c0.2-0.2,0.3-0.6,0.3-1.2c0-0.6-0.1-1-0.3-1.3C-169.3,494.59-169.6,494.39-169.9,494.39"
			/>
	</g>
	<g style="display:none;">
		<defs>
			<rect id="SVGID_11_" x="-237" y="330.19" width="120.8" height="180.7"/>
		</defs>
		<clipPath id="SVGID_12_" style="display:inline;">
			<use xlink:href="#SVGID_11_"  style="overflow:visible;"/>
		</clipPath>
		<path style="display:inline;clip-path:url(#SVGID_12_);fill:#DBB878;" d="M-166.5,495.89h1.6v-1c0-0.2,0-0.3,0-0.3l-0.1-0.1
			l-0.2-0.1h-0.1v-0.1h1.3v0.1h-0.1l-0.2,0.1l-0.1,0.1c0,0.1,0,0.2,0,0.3v2.2c0,0.2,0,0.3,0,0.3l0.1,0.1l0.2,0.1h0.1v0.1h-1.4v-0.1
			h0.1c0.1,0,0.2,0,0.3-0.1c0-0.1,0.1-0.2,0.1-0.4v-1h-1.6v1c0,0.2,0,0.3,0,0.3l0.1,0.1l0.2,0.1h0.2v0.1h-1.4v-0.1h0.1
			c0.1,0,0.2,0,0.3-0.1c0-0.1,0.1-0.2,0.1-0.4v-2.2c0-0.2,0-0.3,0-0.3l-0.1-0.1l-0.2-0.1h-0.1v-0.1h1.3v0.1h-0.1l-0.2,0.1l-0.1,0.1
			c0,0.1,0,0.2,0,0.3v1H-166.5z"/>
	</g>
	<g style="display:none;">
		<defs>
			<rect id="SVGID_13_" x="-237" y="330.19" width="120.8" height="180.7"/>
		</defs>
		<clipPath id="SVGID_14_" style="display:inline;">
			<use xlink:href="#SVGID_13_"  style="overflow:visible;"/>
		</clipPath>
		<path style="display:inline;clip-path:url(#SVGID_14_);fill:#DBB878;" d="M-160.3,494.29l0.1,1.1h-0.1c-0.1-0.3-0.3-0.6-0.4-0.7
			c-0.2-0.1-0.4-0.2-0.7-0.2c-0.2,0-0.4,0.1-0.6,0.2c-0.2,0.1-0.3,0.3-0.4,0.5c-0.1,0.2-0.2,0.6-0.2,0.9c0,0.3,0,0.6,0.1,0.8
			c0.1,0.2,0.2,0.4,0.4,0.5c0.2,0.1,0.4,0.2,0.7,0.2c0.2,0,0.4,0,0.6-0.1s0.4-0.3,0.6-0.6h0.1c-0.2,0.3-0.4,0.5-0.6,0.7
			c-0.2,0.1-0.5,0.2-0.8,0.2c-0.6,0-1-0.2-1.3-0.6c-0.2-0.3-0.3-0.7-0.3-1.1c0-0.3,0.1-0.6,0.2-0.9c0.1-0.3,0.4-0.5,0.6-0.7
			c0.3-0.2,0.6-0.2,0.9-0.2c0.2,0,0.5,0.1,0.7,0.2l0.2,0.1h0.1L-160.3,494.29L-160.3,494.29z"/>
	</g>
	<g style="display:none;">
		<defs>
			<rect id="SVGID_15_" x="-237" y="330.19" width="120.8" height="180.7"/>
		</defs>
		<clipPath id="SVGID_16_" style="display:inline;">
			<use xlink:href="#SVGID_15_"  style="overflow:visible;"/>
		</clipPath>
		<path style="display:inline;clip-path:url(#SVGID_16_);fill:#DBB878;" d="M-158.4,495.89h0.1c0.4,0,0.7,0,0.9,0.1
			c0.2,0.1,0.4,0.2,0.5,0.3c0.1,0.1,0.2,0.3,0.2,0.5c0,0.3-0.1,0.5-0.3,0.7c-0.2,0.2-0.5,0.3-1,0.3h-1.4v-0.1c0.2,0,0.3,0,0.4-0.1
			c0.1-0.1,0.1-0.2,0.1-0.4v-2.1c0-0.2,0-0.4-0.1-0.4c-0.1-0.1-0.2-0.1-0.4-0.1v-0.1h1.5v0.1c-0.2,0-0.3,0-0.4,0.1
			c-0.1,0.1-0.1,0.2-0.1,0.4C-158.4,495.09-158.4,495.89-158.4,495.89z M-158.4,497.49c0.1,0,0.3,0,0.3,0c0.2,0,0.4-0.1,0.6-0.2
			c0.2-0.1,0.2-0.3,0.2-0.6c0-0.2-0.1-0.4-0.3-0.6c-0.2-0.1-0.4-0.2-0.7-0.2h-0.2v1.6H-158.4z"/>
	</g>
	<g style="display:none;">
		<defs>
			<rect id="SVGID_17_" x="-237" y="330.19" width="120.8" height="180.7"/>
		</defs>
		<clipPath id="SVGID_18_" style="display:inline;">
			<use xlink:href="#SVGID_17_"  style="overflow:visible;"/>
		</clipPath>
		<path style="display:inline;clip-path:url(#SVGID_18_);fill:#DBB878;" d="M-155,494.49v1.3h0.7c0.2,0,0.3,0,0.4-0.1
			c0.1-0.1,0.1-0.2,0.1-0.4h0.1v1.2h-0.1c0-0.2,0-0.3-0.1-0.3l-0.1-0.1c-0.1,0-0.2,0-0.3,0h-0.7v1.1c0,0.1,0,0.2,0,0.3l0.1,0.1
			c0,0,0.1,0,0.2,0h0.6c0.2,0,0.3,0,0.4,0l0.2-0.2c0.1-0.1,0.2-0.3,0.3-0.5h0.2l-0.3,0.8h-2.6v-0.1h0.1l0.2-0.1l0.1-0.1
			c0-0.1,0-0.2,0-0.3v-2.2c0-0.2,0-0.3-0.1-0.4s-0.2-0.1-0.3-0.1h-0.1v-0.1h2.6v0.7h-0.1c0-0.2-0.1-0.3-0.1-0.4l-0.2-0.2
			c-0.1,0-0.2,0-0.3,0h-0.9V494.49z"/>
	</g>
	<g style="display:none;">
		<defs>
			<rect id="SVGID_19_" x="-237" y="330.19" width="120.8" height="180.7"/>
		</defs>
		<clipPath id="SVGID_20_" style="display:inline;">
			<use xlink:href="#SVGID_19_"  style="overflow:visible;"/>
		</clipPath>
		<path style="display:inline;clip-path:url(#SVGID_20_);fill:#DBB878;" d="M-151.4,496.09v1c0,0.2,0,0.3,0.1,0.4s0.2,0.1,0.3,0.1
			h0.1v0.1h-1.4v-0.1h0.1c0.1,0,0.2,0,0.3-0.1c0-0.1,0-0.2,0-0.4v-2.2c0-0.2,0-0.3-0.1-0.4s-0.2-0.1-0.3-0.1h-0.1v-0.1h1.2
			c0.3,0,0.5,0,0.7,0.1c0.2,0.1,0.3,0.2,0.4,0.3s0.2,0.3,0.2,0.5c0,0.3-0.1,0.5-0.3,0.7c-0.2,0.2-0.4,0.3-0.8,0.3
			c-0.1,0-0.2,0-0.3,0C-151.2,496.19-151.3,496.19-151.4,496.09 M-151.4,495.99h0.2h0.2c0.2,0,0.3-0.1,0.4-0.2
			c0.1-0.1,0.2-0.3,0.2-0.5c0-0.1,0-0.3-0.1-0.4c-0.1-0.1-0.1-0.2-0.3-0.3c-0.1-0.1-0.2-0.1-0.4-0.1c-0.1,0-0.2,0-0.3,0v1.5H-151.4z
			"/>
	</g>
	<g style="display:none;">
		<defs>
			<rect id="SVGID_21_" x="-237" y="330.19" width="120.8" height="180.7"/>
		</defs>
		<clipPath id="SVGID_22_" style="display:inline;">
			<use xlink:href="#SVGID_21_"  style="overflow:visible;"/>
		</clipPath>
		<path style="display:inline;clip-path:url(#SVGID_22_);fill:#DBB878;" d="M-147.7,497.69L-147.7,497.69c0.2-0.1,0.3-0.1,0.4-0.2
			c0.1-0.1,0.1-0.2,0.1-0.4v-1h-0.1h-0.2l-0.1,0.1c0,0-0.1,0.2-0.3,0.6l-0.5,0.9h-0.9v-0.1c0.2,0,0.4-0.1,0.5-0.3
			c0.1-0.2,0.3-0.5,0.6-1c0.1-0.2,0.2-0.3,0.3-0.4c-0.1-0.1-0.2-0.2-0.2-0.3c-0.1-0.1-0.1-0.3-0.2-0.6c-0.1-0.2-0.1-0.4-0.2-0.4
			l-0.1-0.1l-0.2,0.1l-0.2,0.1l-0.2-0.1l-0.1-0.2l0.1-0.2c0.1-0.1,0.2-0.1,0.3-0.1c0.1,0,0.3,0,0.4,0.1s0.2,0.1,0.2,0.2
			s0.1,0.3,0.2,0.5c0.1,0.2,0.1,0.4,0.2,0.5l0.2,0.2c0.1,0,0.2,0.1,0.3,0.1h0.2v-0.9c0-0.2,0-0.4-0.1-0.4c-0.1-0.1-0.2-0.1-0.4-0.1
			v-0.1h1.5v0.1c-0.2,0-0.3,0-0.4,0.1c-0.1,0.1-0.1,0.2-0.1,0.4v0.9h0.1c0.1,0,0.2,0,0.3-0.1l0.2-0.2c0-0.1,0.1-0.2,0.2-0.5
			c0.1-0.3,0.1-0.4,0.2-0.5c0-0.1,0.1-0.2,0.2-0.2c0.1-0.1,0.2-0.1,0.4-0.1c0.1,0,0.2,0,0.3,0.1l0.1,0.2l-0.1,0.2l-0.2,0.1l-0.2-0.1
			l-0.2-0.1l-0.1,0.1c0,0.1-0.1,0.2-0.2,0.4c-0.1,0.3-0.2,0.5-0.2,0.6c-0.1,0.1-0.1,0.2-0.2,0.3l0.1,0.3c0.1,0.1,0.2,0.3,0.4,0.6
			c0.2,0.3,0.3,0.5,0.4,0.6s0.3,0.1,0.4,0.2v0.1h-0.9c0,0-0.1-0.3-0.4-0.7l-0.4-0.7l-0.1-0.1l-0.2-0.1h-0.1v1c0,0.2,0,0.4,0.1,0.4
			c0.1,0.1,0.2,0.1,0.4,0.1v0.1H-147.7L-147.7,497.69z"/>
	</g>
	<g style="display:none;">
		<defs>
			<rect id="SVGID_23_" x="-237" y="330.19" width="120.8" height="180.7"/>
		</defs>
		<clipPath id="SVGID_24_" style="display:inline;">
			<use xlink:href="#SVGID_23_"  style="overflow:visible;"/>
		</clipPath>
		<rect x="-142.2" y="495.69" style="display:inline;clip-path:url(#SVGID_24_);fill:#DBB878;" width="1.3" height="0.4"/>
	</g>
	<g style="display:none;">
		<defs>
			<rect id="SVGID_25_" x="-237" y="330.19" width="120.8" height="180.7"/>
		</defs>
		<clipPath id="SVGID_26_" style="display:inline;">
			<use xlink:href="#SVGID_25_"  style="overflow:visible;"/>
		</clipPath>
		<path style="display:inline;clip-path:url(#SVGID_26_);fill:#DBB878;" d="M-135.3,494.29l0.1,1.1h-0.1c-0.1-0.3-0.3-0.6-0.4-0.7
			c-0.2-0.1-0.4-0.2-0.7-0.2c-0.2,0-0.4,0.1-0.6,0.2c-0.2,0.1-0.3,0.3-0.4,0.5c-0.1,0.2-0.2,0.6-0.2,0.9c0,0.3,0,0.6,0.1,0.8
			c0.1,0.2,0.2,0.4,0.4,0.5c0.2,0.1,0.4,0.2,0.7,0.2c0.2,0,0.4,0,0.6-0.1s0.4-0.3,0.6-0.6h0.1c-0.2,0.3-0.4,0.5-0.6,0.7
			c-0.2,0.1-0.5,0.2-0.8,0.2c-0.6,0-1-0.2-1.3-0.6c-0.2-0.3-0.3-0.7-0.3-1.1c0-0.3,0.1-0.6,0.2-0.9c0.2-0.3,0.4-0.5,0.6-0.7
			c0.3-0.2,0.6-0.2,0.9-0.2c0.2,0,0.5,0.1,0.7,0.2l0.2,0.1h0.1L-135.3,494.29L-135.3,494.29z"/>
	</g>
	<g style="display:none;">
		<defs>
			<rect id="SVGID_27_" x="-237" y="330.19" width="120.8" height="180.7"/>
		</defs>
		<clipPath id="SVGID_28_" style="display:inline;">
			<use xlink:href="#SVGID_27_"  style="overflow:visible;"/>
		</clipPath>
		<path style="display:inline;clip-path:url(#SVGID_28_);fill:#DBB878;" d="M-133.4,494.49v1.3h0.7c0.2,0,0.3,0,0.4-0.1
			s0.1-0.2,0.1-0.4h0.1v1.2h-0.1c0-0.2,0-0.3-0.1-0.3l-0.1-0.1c-0.1,0-0.2,0-0.3,0h-0.7v1.1c0,0.1,0,0.2,0,0.3l0.1,0.1
			c0,0,0.1,0,0.2,0h0.6c0.2,0,0.3,0,0.4,0l0.2-0.2c0.1-0.1,0.2-0.3,0.3-0.5h0.1l-0.3,0.8h-2.6v-0.1h0.1l0.2-0.1l0.1-0.1
			c0-0.1,0-0.2,0-0.3v-2.2c0-0.2,0-0.3-0.1-0.4c-0.1-0.1-0.2-0.1-0.3-0.1h-0.1v-0.1h2.6v0.7h-0.1c0-0.2-0.1-0.3-0.1-0.4l-0.2-0.2
			c-0.1,0-0.2,0-0.3,0h-0.8V494.49z"/>
	</g>
	<g style="display:none;">
		<defs>
			<rect id="SVGID_29_" x="-237" y="330.19" width="120.8" height="180.7"/>
		</defs>
		<clipPath id="SVGID_30_" style="display:inline;">
			<use xlink:href="#SVGID_29_"  style="overflow:visible;"/>
		</clipPath>
		<path style="display:inline;clip-path:url(#SVGID_30_);fill:#DBB878;" d="M-129.8,496.09v1c0,0.2,0,0.3,0.1,0.4
			c0.1,0.1,0.2,0.1,0.3,0.1h0.1v0.1h-1.4v-0.1h0.1c0.1,0,0.2,0,0.3-0.1c0-0.1,0-0.2,0-0.4v-2.2c0-0.2,0-0.3-0.1-0.4
			c-0.1-0.1-0.2-0.1-0.3-0.1h-0.1v-0.1h1.2c0.3,0,0.5,0,0.7,0.1s0.3,0.2,0.4,0.3c0.1,0.1,0.2,0.3,0.2,0.5c0,0.3-0.1,0.5-0.3,0.7
			c-0.2,0.2-0.4,0.3-0.8,0.3c-0.1,0-0.2,0-0.3,0C-129.6,496.19-129.7,496.19-129.8,496.09 M-129.8,495.99h0.2h0.2
			c0.2,0,0.3-0.1,0.4-0.2c0.1-0.1,0.2-0.3,0.2-0.5c0-0.1,0-0.3-0.1-0.4c-0.1-0.1-0.1-0.2-0.3-0.3c-0.1-0.1-0.2-0.1-0.4-0.1
			c-0.1,0-0.2,0-0.3,0v1.5H-129.8z"/>
	</g>
	<g style="display:none;">
		<defs>
			<rect id="SVGID_31_" x="-237" y="330.19" width="120.8" height="180.7"/>
		</defs>
		<clipPath id="SVGID_32_" style="display:inline;">
			<use xlink:href="#SVGID_31_"  style="overflow:visible;"/>
		</clipPath>
		<path style="display:inline;clip-path:url(#SVGID_32_);fill:#DBB878;" d="M-125.2,495.99c0.2,0,0.4,0.1,0.5,0.2
			c0.2,0.2,0.2,0.3,0.2,0.6c0,0.2-0.1,0.3-0.2,0.5c-0.1,0.2-0.3,0.3-0.4,0.3c-0.2,0.1-0.5,0.1-0.8,0.1h-1.6v-0.1h0.1
			c0.1,0,0.2,0,0.3-0.1c0-0.1,0.1-0.2,0.1-0.4v-2.2c0-0.2,0-0.3-0.1-0.4c-0.1-0.1-0.2-0.1-0.3-0.1h-0.1v-0.1h1.5
			c0.3,0,0.5,0,0.7,0.1s0.4,0.2,0.6,0.3c0.1,0.2,0.2,0.3,0.2,0.5c0,0.2-0.1,0.3-0.2,0.5C-124.8,495.79-125,495.89-125.2,495.99
			 M-126.5,495.89h0.2c0.1,0,0.2,0,0.3,0c0.2,0,0.4,0,0.5-0.1s0.2-0.1,0.3-0.2c0.1-0.1,0.1-0.2,0.1-0.4c0-0.2-0.1-0.4-0.2-0.5
			c-0.2-0.1-0.4-0.2-0.7-0.2c-0.2,0-0.3,0-0.4,0.1v1.3H-126.5z M-126.5,497.49c0.2,0,0.4,0.1,0.6,0.1c0.3,0,0.5-0.1,0.7-0.2
			c0.2-0.1,0.2-0.3,0.2-0.5c0-0.1,0-0.3-0.1-0.4c-0.1-0.1-0.2-0.2-0.3-0.3c-0.2-0.1-0.4-0.1-0.6-0.1c-0.1,0-0.2,0-0.3,0h-0.2
			C-126.5,496.09-126.5,497.49-126.5,497.49z"/>
	</g>
	<g style="display:none;">
		<defs>
			<rect id="SVGID_33_" x="-237" y="330.19" width="120.8" height="180.7"/>
		</defs>
		<clipPath id="SVGID_34_" style="display:inline;">
			<use xlink:href="#SVGID_33_"  style="overflow:visible;"/>
		</clipPath>
		<path style="display:inline;clip-path:url(#SVGID_34_);fill:#DBB878;" d="M-121,494.89c0-0.2,0-0.3-0.1-0.4s-0.2-0.1-0.4-0.1v-0.1
			h1.5v0.1c-0.2,0-0.3,0-0.4,0.1s-0.1,0.2-0.1,0.4v2.1c0,0.2,0,0.4,0.1,0.4c0.1,0.1,0.2,0.1,0.4,0.1v0.1h-1.5v-0.1
			c0.2,0,0.3,0,0.4-0.1s0.1-0.2,0.1-0.4v-1.8l-1.6,2c0,0.1,0,0.2,0,0.3l0.1,0.1c0.1,0,0.2,0,0.3,0v0.1h-1.5v-0.1
			c0.2,0,0.3,0,0.4-0.1s0.1-0.2,0.1-0.4v-2.1c0-0.2,0-0.4-0.1-0.4c-0.1-0.1-0.2-0.1-0.4-0.1v-0.1h1.5v0.1c-0.2,0-0.3,0-0.4,0.1
			s-0.1,0.2-0.1,0.4v1.9L-121,494.89z"/>
	</g>
	<g style="display:none;">
		<defs>
			<rect id="SVGID_35_" x="-237" y="330.19" width="120.8" height="180.7"/>
		</defs>
		<clipPath id="SVGID_36_" style="display:inline;">
			<use xlink:href="#SVGID_35_"  style="overflow:visible;"/>
		</clipPath>
		<path style="display:inline;clip-path:url(#SVGID_36_);fill:#DBB878;" d="M-116.4,494.29l0.1,1.1h-0.1c-0.1-0.3-0.3-0.6-0.4-0.7
			c-0.2-0.1-0.4-0.2-0.7-0.2c-0.2,0-0.4,0.1-0.6,0.2c-0.2,0.1-0.3,0.3-0.4,0.5c-0.1,0.2-0.2,0.6-0.2,0.9c0,0.3,0,0.6,0.1,0.8
			c0.1,0.2,0.2,0.4,0.4,0.5c0.2,0.1,0.4,0.2,0.7,0.2c0.2,0,0.4,0,0.6-0.1s0.4-0.3,0.6-0.6h0.1c-0.2,0.3-0.4,0.5-0.6,0.7
			c-0.2,0.1-0.5,0.2-0.8,0.2c-0.6,0-1-0.2-1.3-0.6c-0.2-0.3-0.3-0.7-0.3-1.1c0-0.3,0.1-0.6,0.2-0.9c0.2-0.3,0.4-0.5,0.6-0.7
			c0.3-0.2,0.6-0.2,0.9-0.2c0.2,0,0.5,0.1,0.7,0.2l0.2,0.1h0.1L-116.4,494.29L-116.4,494.29z"/>
	</g>
	<g style="display:none;">
		<defs>
			<rect id="SVGID_37_" x="-237" y="330.19" width="120.8" height="180.7"/>
		</defs>
		<clipPath id="SVGID_38_" style="display:inline;">
			<use xlink:href="#SVGID_37_"  style="overflow:visible;"/>
		</clipPath>
		<rect x="-175.4" y="492.39" style="display:inline;clip-path:url(#SVGID_38_);fill:#DBB878;" width="59.2" height="0.1"/>
	</g>
	<g style="display:none;">
		<defs>
			<rect id="SVGID_39_" x="-237" y="330.19" width="120.8" height="180.7"/>
		</defs>
		<clipPath id="SVGID_40_" style="display:inline;">
			<use xlink:href="#SVGID_39_"  style="overflow:visible;"/>
		</clipPath>
		<rect x="-175.4" y="499.49" style="display:inline;clip-path:url(#SVGID_40_);fill:#DBB878;" width="59.2" height="0.1"/>
	</g>
	<g style="display:none;">
		<defs>
			<rect id="SVGID_41_" x="-237" y="330.19" width="120.8" height="180.7"/>
		</defs>
		<clipPath id="SVGID_42_" style="display:inline;">
			<use xlink:href="#SVGID_41_"  style="overflow:visible;"/>
		</clipPath>
		<path style="display:inline;clip-path:url(#SVGID_42_);fill:#DBB878;" d="M-171.5,454.99l2.5,14h0.4v0.2h-2.9v-0.2h0.5l-2-13
			l-1.7,13h0.3v0.2h-0.2h-0.3h-0.3h-0.1v-0.2h0.3c0,0,0-0.2,0.1-0.6c0.1-0.4,0.1-0.9,0.2-1.6c0.1-0.6,0.2-1.4,0.3-2.2
			c0.1-0.8,0.2-1.7,0.3-2.5c0.3-2,0.5-4.3,0.9-6.9h-0.5v-0.2C-173.7,454.99-171.5,454.99-171.5,454.99z"/>
	</g>
	<g style="display:none;">
		<defs>
			<rect id="SVGID_43_" x="-237" y="330.19" width="120.8" height="180.7"/>
		</defs>
		<clipPath id="SVGID_44_" style="display:inline;">
			<use xlink:href="#SVGID_43_"  style="overflow:visible;"/>
		</clipPath>
		<path style="display:inline;clip-path:url(#SVGID_44_);fill:#DBB878;" d="M-163.9,458.09c0-0.3,0-0.7,0-1c0-0.4,0.1-0.7,0.3-1
			c0.2-0.3,0.4-0.5,0.8-0.7c0.4-0.2,0.9-0.3,1.5-0.3c0.7,0,1.2,0.1,1.5,0.3c0.4,0.2,0.6,0.4,0.8,0.7c0.2,0.3,0.3,0.6,0.3,1
			s0,0.8,0,1.2c0,1,0,1.9,0,2.7c0,0.8,0,1.5,0,2c0,0.6,0,1.1,0,1.5s0,0.7,0,1c0,0.6,0,0.9,0,1c0,0.5,0,1,0,1.3
			c0,0.4-0.1,0.7-0.3,0.9c-0.2,0.3-0.4,0.4-0.8,0.6c-0.4,0.1-0.9,0.2-1.6,0.2s-1.2-0.1-1.5-0.2c-0.4-0.1-0.6-0.3-0.8-0.6
			c-0.2-0.3-0.3-0.6-0.3-0.9c0-0.4,0-0.8,0-1.3v-3.6h-1.2v6.4h0.4v0.2h-2.6v-0.2h0.5v-13.8h-0.5v-0.2h2.6v0.2h-0.4v7.1h0.6h0.6v-4.5
			H-163.9z M-162.4,466.19c0,0.4,0,0.8,0,1.2c0,0.3,0.1,0.6,0.1,0.9c0.1,0.2,0.2,0.4,0.3,0.5s0.3,0.2,0.6,0.2c0.3,0,0.5-0.1,0.6-0.2
			s0.2-0.3,0.3-0.5c0.1-0.2,0.1-0.5,0.1-0.9c0-0.3,0-0.7,0-1.2v-1.4c0-0.6,0-1.4,0-2.5s0-2.5,0-4.3c0-0.4,0-0.7,0-1
			c0-0.3,0-0.6-0.1-0.9c-0.1-0.3-0.2-0.5-0.3-0.6c-0.1-0.2-0.3-0.2-0.6-0.2c-0.3,0-0.5,0.1-0.6,0.3s-0.2,0.4-0.3,0.7
			c-0.1,0.3-0.1,0.6-0.1,0.9c0,0.3,0,0.6,0,0.9v2c0,0.7,0,1.5,0,2.5S-162.4,464.79-162.4,466.19"/>
	</g>
	<g style="display:none;">
		<defs>
			<rect id="SVGID_45_" x="-237" y="330.19" width="120.8" height="180.7"/>
		</defs>
		<clipPath id="SVGID_46_" style="display:inline;">
			<use xlink:href="#SVGID_45_"  style="overflow:visible;"/>
		</clipPath>
		<path style="display:inline;clip-path:url(#SVGID_46_);fill:#DBB878;" d="M-152.4,463.49c-0.4,0.4-0.8,0.7-1.3,0.8s-1,0.1-1.5-0.1
			s-0.9-0.5-1.2-1c-0.3-0.5-0.5-1.1-0.5-1.9v-6h-0.5v-0.2h2.6v0.2h-0.4v6c0,0.8,0.1,1.4,0.3,1.8c0.2,0.4,0.4,0.7,0.7,0.8
			c0.3,0.1,0.6,0.1,0.9,0s0.7-0.4,1-0.8v-7.8h-0.7v-0.2h2.6v0.2h-0.4v13.8h0.4v0.2h-2.6v-0.2h0.5v-5.6H-152.4z"/>
	</g>
	<g style="display:none;">
		<defs>
			<rect id="SVGID_47_" x="-237" y="330.19" width="120.8" height="180.7"/>
		</defs>
		<clipPath id="SVGID_48_" style="display:inline;">
			<use xlink:href="#SVGID_47_"  style="overflow:visible;"/>
		</clipPath>
		<path style="display:inline;clip-path:url(#SVGID_48_);fill:#DBB878;" d="M-144,462.49h-1.5c-0.1,0-0.2,0-0.3,0
			c-0.1,0-0.3,0-0.4,0.1c-0.1,0-0.3,0.1-0.3,0.2c-0.1,0.1-0.1,0.2-0.1,0.3v5.9h0.4v0.2h-2.6v-0.2h0.5v-13.8h-0.5v-0.2h2.6v0.2h-0.4
			v7.3l0.1-0.1c0.1,0,0.2-0.1,0.3-0.1s0.3-0.1,0.4-0.1s0.3,0,0.4,0h1.4v-7h-0.5v-0.2h2.6v0.2h-0.4v13.8h0.4v0.2h-2.6v-0.2h0.5
			V462.49z"/>
	</g>
	<g style="display:none;">
		<defs>
			<rect id="SVGID_49_" x="-237" y="330.19" width="120.8" height="180.7"/>
		</defs>
		<clipPath id="SVGID_50_" style="display:inline;">
			<use xlink:href="#SVGID_49_"  style="overflow:visible;"/>
		</clipPath>
		<path style="display:inline;clip-path:url(#SVGID_50_);fill:#DBB878;" d="M-135.4,458.29c-0.2,0.5-0.3,1-0.5,1.4
			c-0.1,0.4-0.3,0.9-0.4,1.4c-0.2,0.5-0.3,1.1-0.5,1.6c-0.4,1.3-0.9,2.7-1.4,4.4v2h0.4v0.2h-2.6v-0.2h0.5v-13.8h-0.5v-0.2h2.6v0.2
			h-0.4v11c0.2-0.5,0.3-1,0.5-1.4c0.1-0.4,0.3-0.9,0.5-1.4c0.2-0.5,0.3-1.1,0.5-1.6c0.4-1.3,0.9-2.7,1.4-4.4v-2.2h-0.5v-0.2h2.6v0.2
			h-0.4v13.8h0.4v0.2h-2.6v-0.2h0.5v-10.8H-135.4z"/>
	</g>
	<g style="display:none;">
		<defs>
			<rect id="SVGID_51_" x="-237" y="330.19" width="120.8" height="180.7"/>
		</defs>
		<clipPath id="SVGID_52_" style="display:inline;">
			<use xlink:href="#SVGID_51_"  style="overflow:visible;"/>
		</clipPath>
		<path style="display:inline;clip-path:url(#SVGID_52_);fill:#DBB878;" d="M-127.3,457.19c0.1-0.6,0.2-1,0.4-1.3
			c0.2-0.3,0.4-0.6,0.6-0.7c0.2-0.1,0.4-0.2,0.7-0.2c0.2,0,0.4,0.1,0.5,0.2c0.1,0.1,0.2,0.3,0.3,0.4c0,0.2,0,0.4-0.2,0.5
			c-0.2,0.2-0.3,0.3-0.5,0.3c-0.1,0-0.3,0-0.4-0.1c-0.1-0.1-0.2-0.1-0.4-0.2c-0.1-0.1-0.2-0.1-0.3-0.1c-0.1,0-0.2,0.1-0.3,0.3
			c-0.1,0.2-0.2,0.5-0.2,0.9c-0.2,0.7-0.2,1.3-0.2,1.8s-0.1,1-0.1,1.3c-0.1,0.4-0.2,0.6-0.4,0.8c-0.2,0.2-0.6,0.3-1.1,0.3
			c0.6,0,1.1,0.1,1.6,0.2c0.4,0.1,0.7,0.4,1,0.7c0.3,0.3,0.4,0.7,0.5,1.1s0.2,1,0.2,1.5c0,0.7,0,1.2,0,1.7s0,0.9,0.1,1.3
			c0,0.3,0.1,0.6,0.3,0.8c0.1,0.2,0.3,0.3,0.6,0.3v0.3c-0.7,0-1.2-0.1-1.5-0.3c-0.4-0.2-0.6-0.5-0.8-0.8c-0.2-0.4-0.3-0.8-0.3-1.3
			s0-1.1,0-1.8c0-0.8-0.1-1.4-0.2-1.9c-0.1-0.4-0.3-0.7-0.5-0.9c-0.2-0.2-0.4-0.3-0.7-0.3c-0.2,0-0.5,0-0.6,0v7.2h0.4v0.2h-2.6v-0.2
			h0.5v-13.8h-0.5v-0.2h2.6v0.2h-0.4v6.1c0.6,0,1-0.1,1.2-0.2c0.2-0.1,0.4-0.4,0.5-0.7c0.1-0.3,0.1-0.7,0.1-1.3
			C-127.6,458.69-127.5,457.99-127.3,457.19"/>
	</g>
	<g style="display:none;">
		<defs>
			<rect id="SVGID_53_" x="-237" y="330.19" width="120.8" height="180.7"/>
		</defs>
		<clipPath id="SVGID_54_" style="display:inline;">
			<use xlink:href="#SVGID_53_"  style="overflow:visible;"/>
		</clipPath>
		<path style="display:inline;clip-path:url(#SVGID_54_);fill:#DBB878;" d="M-118.4,458.29c-0.2,0.5-0.3,1-0.5,1.4
			c-0.1,0.4-0.3,0.9-0.4,1.4c-0.2,0.5-0.3,1.1-0.5,1.6c-0.4,1.3-0.9,2.7-1.4,4.4v2h0.4v0.2h-2.6v-0.2h0.5v-13.8h-0.5v-0.2h2.6v0.2
			h-0.4v11c0.2-0.5,0.3-1,0.5-1.4c0.1-0.4,0.3-0.9,0.5-1.4s0.3-1.1,0.5-1.6c0.4-1.3,0.9-2.7,1.4-4.4v-2.2h-0.5v-0.2h2.6v0.2h-0.4
			v13.8h0.4v0.2h-2.6v-0.2h0.5v-10.8H-118.4z"/>
	</g>
	<g style="display:none;">
		<defs>
			<rect id="SVGID_55_" x="-237" y="330.19" width="120.8" height="180.7"/>
		</defs>
		<clipPath id="SVGID_56_" style="display:inline;">
			<use xlink:href="#SVGID_55_"  style="overflow:visible;"/>
		</clipPath>
		<polygon style="display:inline;clip-path:url(#SVGID_56_);fill:#DBB878;" points="-173.2,473.89 -173.2,486.79 -172.8,486.79 
			-172.8,487.09 -175.3,487.09 -175.3,486.79 -174.8,486.79 -174.8,473.89 -175.3,473.89 -175.3,473.69 -168.9,473.69 
			-168.9,473.89 -169.3,473.89 -169.2,486.79 -168.9,486.79 -168.9,487.09 -171.3,487.09 -171.3,486.79 -170.8,486.79 
			-170.8,473.89 		"/>
	</g>
	<g style="display:none;">
		<defs>
			<rect id="SVGID_57_" x="-237" y="330.19" width="120.8" height="180.7"/>
		</defs>
		<clipPath id="SVGID_58_" style="display:inline;">
			<use xlink:href="#SVGID_57_"  style="overflow:visible;"/>
		</clipPath>
		<path style="display:inline;clip-path:url(#SVGID_58_);fill:#DBB878;" d="M-163.1,473.69v0.8h-0.2v-0.6h-2.4v6.2
			c0-0.1,0-0.2,0.2-0.3c0.1-0.1,0.3-0.1,0.6-0.1h0.9v-0.4h0.2v1h-0.2v-0.4h-1c-0.2,0-0.4,0.1-0.5,0.2s-0.1,0.3-0.1,0.6v6.1h2.4v-0.6
			h0.2v0.8h-4.7v-0.2h0.5v-12.9h-0.5v-0.2H-163.1L-163.1,473.69z"/>
	</g>
	<g style="display:none;">
		<defs>
			<rect id="SVGID_59_" x="-237" y="330.19" width="120.8" height="180.7"/>
		</defs>
		<clipPath id="SVGID_60_" style="display:inline;">
			<use xlink:href="#SVGID_59_"  style="overflow:visible;"/>
		</clipPath>
		<polygon style="display:inline;clip-path:url(#SVGID_60_);fill:#DBB878;" points="-156.4,473.69 -156.4,474.59 -156.7,474.59 
			-156.7,473.89 -158.5,473.89 -158.5,486.79 -158.1,486.79 -158.1,487.09 -160.6,487.09 -160.6,486.79 -160.1,486.79 
			-160.1,473.89 -161.9,473.89 -161.9,474.59 -162.1,474.59 -162.1,473.69 		"/>
	</g>
	<g style="display:none;">
		<defs>
			<rect id="SVGID_61_" x="-237" y="330.19" width="120.8" height="180.7"/>
		</defs>
		<clipPath id="SVGID_62_" style="display:inline;">
			<use xlink:href="#SVGID_61_"  style="overflow:visible;"/>
		</clipPath>
		<path style="display:inline;clip-path:url(#SVGID_62_);fill:#DBB878;" d="M-150.6,473.69v0.8h-0.2v-0.6h-2.4v6.2
			c0-0.1,0-0.2,0.2-0.3c0.1-0.1,0.3-0.1,0.6-0.1h0.9v-0.4h0.2v1h-0.2v-0.4h-1c-0.2,0-0.4,0.1-0.5,0.2s-0.1,0.3-0.1,0.6v6.1h2.4v-0.6
			h0.2v0.8h-4.7v-0.2h0.5v-12.9h-0.5v-0.2H-150.6L-150.6,473.69z"/>
	</g>
	<g style="display:none;">
		<defs>
			<rect id="SVGID_63_" x="-237" y="330.19" width="120.8" height="180.7"/>
		</defs>
		<clipPath id="SVGID_64_" style="display:inline;">
			<use xlink:href="#SVGID_63_"  style="overflow:visible;"/>
		</clipPath>
		<path style="display:inline;clip-path:url(#SVGID_64_);fill:#DBB878;" d="M-147.4,473.69c0.6,0,1.1,0,1.5,0.1c0.4,0,0.8,0.2,1,0.5
			c0.3,0.3,0.4,0.7,0.5,1.2c0.1,0.6,0.2,1.4,0.2,2.4c0,1.2,0,2.1-0.1,2.7c0,0.6-0.2,1.1-0.3,1.4c-0.2,0.3-0.4,0.5-0.8,0.6
			s-0.8,0.1-1.4,0.1c-0.2,0-0.4,0.1-0.5,0.2c-0.1,0.1-0.1,0.3-0.1,0.6v3.4h0.4v0.2h-2.4v-0.2h0.5v-12.9h-0.5v-0.2h2V473.69z
			 M-147.4,473.89v8.8c0-0.1,0-0.2,0.2-0.3c0.1-0.1,0.3-0.1,0.6-0.1c0.2,0,0.4,0,0.6-0.1c0.1-0.1,0.2-0.3,0.3-0.6
			c0.1-0.3,0.1-0.7,0.1-1.3s0-1.4,0-2.5c0-1,0-1.8-0.1-2.3c-0.1-0.5-0.2-0.9-0.4-1.2c-0.2-0.2-0.4-0.4-0.6-0.4
			C-146.9,473.99-147.1,473.89-147.4,473.89"/>
	</g>
	<g style="display:none;">
		<defs>
			<rect id="SVGID_65_" x="-237" y="330.19" width="120.8" height="180.7"/>
		</defs>
		<clipPath id="SVGID_66_" style="display:inline;">
			<use xlink:href="#SVGID_65_"  style="overflow:visible;"/>
		</clipPath>
		<polygon style="display:inline;clip-path:url(#SVGID_66_);fill:#DBB878;" points="-138.7,473.69 -138.7,474.69 -139,474.69 
			-139,473.89 -140.8,473.89 -140.8,486.79 -140.4,486.79 -140.4,487.09 -142.8,487.09 -142.8,486.79 -142.3,486.79 -142.3,473.89 
			-142.8,473.89 -142.8,473.69 		"/>
	</g>
	<g style="display:none;">
		<defs>
			<rect id="SVGID_67_" x="-237" y="330.19" width="120.8" height="180.7"/>
		</defs>
		<clipPath id="SVGID_68_" style="display:inline;">
			<use xlink:href="#SVGID_67_"  style="overflow:visible;"/>
		</clipPath>
		<path style="display:inline;clip-path:url(#SVGID_68_);fill:#DBB878;" d="M-137.4,484.19c0-1.5,0-2.8,0-3.8s0-1.8,0-2.3v-1.5
			c0-0.3,0-0.6,0-1c0-0.3,0.1-0.6,0.3-0.9c0.2-0.3,0.4-0.5,0.7-0.7c0.3-0.2,0.8-0.3,1.4-0.3s1.1,0.1,1.4,0.2
			c0.3,0.2,0.6,0.4,0.7,0.6c0.2,0.3,0.3,0.6,0.3,0.9c0,0.3,0,0.7,0,1.1c0,1,0,1.8,0,2.6c0,0.7,0,1.4,0,1.9s0,1,0,1.4s0,0.7,0,0.9
			c0,0.5,0,0.9,0,0.9c0,0.5,0,0.9,0,1.3c0,0.4-0.1,0.6-0.3,0.9c-0.2,0.2-0.4,0.4-0.8,0.5c-0.3,0.1-0.8,0.2-1.5,0.2
			c-0.6,0-1.1-0.1-1.4-0.2c-0.3-0.1-0.6-0.3-0.7-0.5c-0.2-0.2-0.2-0.5-0.3-0.9C-137.4,485.09-137.4,484.69-137.4,484.19
			 M-136,484.19c0,0.4,0,0.8,0,1.1c0,0.3,0,0.6,0.1,0.8c0.1,0.2,0.2,0.4,0.3,0.5s0.3,0.2,0.6,0.2c0.2,0,0.4-0.1,0.6-0.2
			c0.1-0.1,0.2-0.3,0.3-0.5c0.1-0.2,0.1-0.5,0.1-0.8c0-0.3,0-0.7,0-1.1v-1.3c0-0.5,0-1.3,0-2.3s0-2.3,0-4c0-0.3,0-0.7,0-1
			c0-0.3,0-0.6-0.1-0.8c-0.1-0.2-0.2-0.4-0.3-0.6c-0.1-0.2-0.3-0.2-0.5-0.2c-0.3,0-0.4,0.1-0.6,0.3c-0.1,0.2-0.2,0.4-0.3,0.6
			c-0.1,0.3-0.1,0.5-0.1,0.9c0,0.3,0,0.6,0,0.9v1.8c0,0.6,0,1.4,0,2.4C-136,481.69-136,482.89-136,484.19"/>
	</g>
	<g style="display:none;">
		<defs>
			<rect id="SVGID_69_" x="-237" y="330.19" width="120.8" height="180.7"/>
		</defs>
		<clipPath id="SVGID_70_" style="display:inline;">
			<use xlink:href="#SVGID_69_"  style="overflow:visible;"/>
		</clipPath>
		<path style="display:inline;clip-path:url(#SVGID_70_);fill:#DBB878;" d="M-126.4,486.79h0.4v0.2h-2.4v-0.2h0.5v-1.3
			c-0.6,0-1.1-0.1-1.5-0.2c-0.4-0.1-0.7-0.4-0.9-0.8c-0.2-0.4-0.4-0.9-0.4-1.7c-0.1-0.7-0.1-1.7-0.1-2.9c0-1,0-1.9,0.1-2.5
			c0.1-0.6,0.2-1.1,0.4-1.5s0.5-0.6,0.9-0.7c0.4-0.1,0.9-0.2,1.5-0.2v-1.1h-0.5v-0.2h2.4v0.2h-0.4v1.1c0.6,0,1.1,0.1,1.5,0.2
			c0.4,0.1,0.7,0.4,0.9,0.7c0.2,0.4,0.4,0.9,0.5,1.5s0.1,1.5,0.1,2.5c0,1.2,0,2.2-0.1,2.9c-0.1,0.7-0.2,1.3-0.4,1.7
			c-0.2,0.4-0.5,0.6-0.9,0.8c-0.4,0.1-0.9,0.2-1.5,0.2v1.3H-126.4z M-127.9,475.29c-0.3,0-0.5,0.1-0.6,0.2c-0.2,0.1-0.3,0.3-0.5,0.7
			c-0.1,0.3-0.2,0.8-0.3,1.4c-0.1,0.6-0.1,1.4-0.1,2.5c0,1.2,0,2.1,0.1,2.8c0.1,0.7,0.1,1.2,0.3,1.6c0.1,0.4,0.3,0.6,0.5,0.7
			s0.4,0.2,0.6,0.2V475.29z M-126.4,485.29c0.2,0,0.5-0.1,0.6-0.2c0.2-0.1,0.4-0.3,0.5-0.7s0.2-0.9,0.3-1.6c0.1-0.7,0.1-1.7,0.1-2.8
			c0-1,0-1.8-0.1-2.5c-0.1-0.6-0.2-1.1-0.3-1.4c-0.1-0.3-0.3-0.6-0.5-0.7c-0.2-0.1-0.4-0.2-0.7-0.2L-126.4,485.29z"/>
	</g>
	<g style="display:none;">
		<defs>
			<rect id="SVGID_71_" x="-237" y="330.19" width="120.8" height="180.7"/>
		</defs>
		<clipPath id="SVGID_72_" style="display:inline;">
			<use xlink:href="#SVGID_71_"  style="overflow:visible;"/>
		</clipPath>
		<path style="display:inline;clip-path:url(#SVGID_72_);fill:#DBB878;" d="M-119.1,483.79h-1.5c-0.1,0-0.2,0-0.4,0
			c-0.1,0-0.3,0.1-0.4,0.1c-0.1,0.1-0.2,0.1-0.3,0.2c-0.1,0.1-0.1,0.2-0.1,0.4l-0.3,2.3h0.3v0.2h-0.2h-0.3h-0.3h-0.1v-0.2h0.3
			c0,0,0-0.2,0.1-0.6s0.1-0.9,0.2-1.5s0.2-1.3,0.3-2.1c0.1-0.8,0.2-1.6,0.3-2.4c0.2-1.9,0.5-4,0.8-6.4h-0.5v-0.2h2.1l2.4,13.2h0.4
			v0.2h-2.7v-0.2h0.5L-119.1,483.79z M-119.1,483.59l-1.4-9l-1.3,9.5c0-0.2,0.1-0.3,0.4-0.4c0.3-0.1,0.5-0.2,0.8-0.2h1.5V483.59z"/>
	</g>
</g>
</svg>
