<?xml version="1.0" encoding="utf-8"?>
<!-- Generator: Adobe Illustrator 19.0.1, SVG Export Plug-In . SVG Version: 6.00 Build 0)  -->
<svg version="1.1" id="Layer_1" xmlns="http://www.w3.org/2000/svg" xmlns:xlink="http://www.w3.org/1999/xlink" x="0px" y="0px"
	 viewBox="240 -239.6 489.6 489.6" style="enable-background:new 240 -239.6 489.6 489.6;" xml:space="preserve">
<style type="text/css">
	.st0{fill:url(#SVGID_1_);}
	.st1{fill:url(#SVGID_2_);}
</style>
<g>
	<g>
		<linearGradient id="SVGID_1_" gradientUnits="userSpaceOnUse" x1="484.8" y1="-239.6" x2="484.8" y2="250">
			<stop  offset="0" style="stop-color:#FEBA1C"/>
			<stop  offset="1" style="stop-color:#E5700F"/>
		</linearGradient>
		<path class="st0" d="M484.8,250c135,0,244.8-109.8,244.8-244.8S619.8-239.6,484.8-239.6S240-129.8,240,5.2S349.8,250,484.8,250z
			 M484.8-219.8c124.1,0,225,100.9,225,225s-100.9,225-225,225s-225-100.9-225-225S360.7-219.8,484.8-219.8z"/>
		<linearGradient id="SVGID_2_" gradientUnits="userSpaceOnUse" x1="475.35" y1="-79.025" x2="475.35" y2="89.4">
			<stop  offset="0" style="stop-color:#FEBA1C"/>
			<stop  offset="1" style="stop-color:#E5700F"/>
		</linearGradient>
		<path class="st1" d="M505.5,86.5c1.9,1.9,4.5,2.9,7,2.9s5.1-1,7-2.9c3.9-3.9,3.9-10.1,0-14L452.2,5.2l67.3-67.3
			c3.9-3.9,3.9-10.1,0-14s-10.1-3.9-14,0L431.2-1.8c-3.9,3.9-3.9,10.1,0,14L505.5,86.5z"/>
	</g>
</g>
</svg>
